<?xml version="1.0" encoding="utf-8" standalone="no"?>
<!DOCTYPE svg PUBLIC "-//W3C//DTD SVG 1.1//EN"
  "http://www.w3.org/Graphics/SVG/1.1/DTD/svg11.dtd">
<svg xmlns:xlink="http://www.w3.org/1999/xlink" width="576pt" height="288pt" viewBox="0 0 576 288" xmlns="http://www.w3.org/2000/svg" version="1.1">
 <metadata>
  <rdf:RDF xmlns:dc="http://purl.org/dc/elements/1.1/" xmlns:cc="http://creativecommons.org/ns#" xmlns:rdf="http://www.w3.org/1999/02/22-rdf-syntax-ns#">
   <cc:Work>
    <dc:type rdf:resource="http://purl.org/dc/dcmitype/StillImage"/>
    <dc:date>2025-01-01T00:44:05.175448</dc:date>
    <dc:format>image/svg+xml</dc:format>
    <dc:creator>
     <cc:Agent>
      <dc:title>Matplotlib v3.10.0, https://matplotlib.org/</dc:title>
     </cc:Agent>
    </dc:creator>
   </cc:Work>
  </rdf:RDF>
 </metadata>
 <defs>
  <style type="text/css">*{stroke-linejoin: round; stroke-linecap: butt}</style>
 </defs>
 <g id="figure_1">
  <g id="patch_1">
   <path d="M 0 288 
L 576 288 
L 576 0 
L 0 0 
z
" style="fill: #ffffff"/>
  </g>
  <g id="axes_1">
   <g id="patch_2">
    <path d="M 72 135.36 
L 518.4 135.36 
L 518.4 34.56 
L 72 34.56 
z
" style="fill: #ffffff"/>
   </g>
   <g id="matplotlib.axis_1">
    <g id="xtick_1">
     <g id="line2d_1">
      <defs>
       <path id="mdf4baad460" d="M 0 0 
L 0 3.5 
" style="stroke: #000000; stroke-width: 0.8"/>
      </defs>
      <g>
       <use xlink:href="#mdf4baad460" x="92.290909" y="135.36" style="stroke: #000000; stroke-width: 0.8"/>
      </g>
     </g>
    </g>
    <g id="xtick_2">
     <g id="line2d_2">
      <g>
       <use xlink:href="#mdf4baad460" x="143.273093" y="135.36" style="stroke: #000000; stroke-width: 0.8"/>
      </g>
     </g>
    </g>
    <g id="xtick_3">
     <g id="line2d_3">
      <g>
       <use xlink:href="#mdf4baad460" x="194.255276" y="135.36" style="stroke: #000000; stroke-width: 0.8"/>
      </g>
     </g>
    </g>
    <g id="xtick_4">
     <g id="line2d_4">
      <g>
       <use xlink:href="#mdf4baad460" x="245.23746" y="135.36" style="stroke: #000000; stroke-width: 0.8"/>
      </g>
     </g>
    </g>
    <g id="xtick_5">
     <g id="line2d_5">
      <g>
       <use xlink:href="#mdf4baad460" x="296.219644" y="135.36" style="stroke: #000000; stroke-width: 0.8"/>
      </g>
     </g>
    </g>
    <g id="xtick_6">
     <g id="line2d_6">
      <g>
       <use xlink:href="#mdf4baad460" x="347.201827" y="135.36" style="stroke: #000000; stroke-width: 0.8"/>
      </g>
     </g>
    </g>
    <g id="xtick_7">
     <g id="line2d_7">
      <g>
       <use xlink:href="#mdf4baad460" x="398.184011" y="135.36" style="stroke: #000000; stroke-width: 0.8"/>
      </g>
     </g>
    </g>
    <g id="xtick_8">
     <g id="line2d_8">
      <g>
       <use xlink:href="#mdf4baad460" x="449.166195" y="135.36" style="stroke: #000000; stroke-width: 0.8"/>
      </g>
     </g>
    </g>
    <g id="xtick_9">
     <g id="line2d_9">
      <g>
       <use xlink:href="#mdf4baad460" x="500.148378" y="135.36" style="stroke: #000000; stroke-width: 0.8"/>
      </g>
     </g>
    </g>
   </g>
   <g id="matplotlib.axis_2">
    <g id="ytick_1">
     <g id="line2d_10">
      <defs>
       <path id="m58c8df54cd" d="M 0 0 
L -3.5 0 
" style="stroke: #000000; stroke-width: 0.8"/>
      </defs>
      <g>
       <use xlink:href="#m58c8df54cd" x="72" y="115.67119" style="stroke: #000000; stroke-width: 0.8"/>
      </g>
     </g>
     <g id="text_1">
      <!-- −150 -->
      <g transform="translate(37.532812 119.470408) scale(0.1 -0.1)">
       <defs>
        <path id="DejaVuSans-2212" d="M 678 2272 
L 4684 2272 
L 4684 1741 
L 678 1741 
L 678 2272 
z
" transform="scale(0.015625)"/>
        <path id="DejaVuSans-31" d="M 794 531 
L 1825 531 
L 1825 4091 
L 703 3866 
L 703 4441 
L 1819 4666 
L 2450 4666 
L 2450 531 
L 3481 531 
L 3481 0 
L 794 0 
L 794 531 
z
" transform="scale(0.015625)"/>
        <path id="DejaVuSans-35" d="M 691 4666 
L 3169 4666 
L 3169 4134 
L 1269 4134 
L 1269 2991 
Q 1406 3038 1543 3061 
Q 1681 3084 1819 3084 
Q 2600 3084 3056 2656 
Q 3513 2228 3513 1497 
Q 3513 744 3044 326 
Q 2575 -91 1722 -91 
Q 1428 -91 1123 -41 
Q 819 9 494 109 
L 494 744 
Q 775 591 1075 516 
Q 1375 441 1709 441 
Q 2250 441 2565 725 
Q 2881 1009 2881 1497 
Q 2881 1984 2565 2268 
Q 2250 2553 1709 2553 
Q 1456 2553 1204 2497 
Q 953 2441 691 2322 
L 691 4666 
z
" transform="scale(0.015625)"/>
        <path id="DejaVuSans-30" d="M 2034 4250 
Q 1547 4250 1301 3770 
Q 1056 3291 1056 2328 
Q 1056 1369 1301 889 
Q 1547 409 2034 409 
Q 2525 409 2770 889 
Q 3016 1369 3016 2328 
Q 3016 3291 2770 3770 
Q 2525 4250 2034 4250 
z
M 2034 4750 
Q 2819 4750 3233 4129 
Q 3647 3509 3647 2328 
Q 3647 1150 3233 529 
Q 2819 -91 2034 -91 
Q 1250 -91 836 529 
Q 422 1150 422 2328 
Q 422 3509 836 4129 
Q 1250 4750 2034 4750 
z
" transform="scale(0.015625)"/>
       </defs>
       <use xlink:href="#DejaVuSans-2212"/>
       <use xlink:href="#DejaVuSans-31" transform="translate(83.789062 0)"/>
       <use xlink:href="#DejaVuSans-35" transform="translate(147.412109 0)"/>
       <use xlink:href="#DejaVuSans-30" transform="translate(211.035156 0)"/>
      </g>
     </g>
    </g>
    <g id="ytick_2">
     <g id="line2d_11">
      <g>
       <use xlink:href="#m58c8df54cd" x="72" y="78.0124" style="stroke: #000000; stroke-width: 0.8"/>
      </g>
     </g>
     <g id="text_2">
      <!-- −100 -->
      <g transform="translate(37.532812 81.811619) scale(0.1 -0.1)">
       <use xlink:href="#DejaVuSans-2212"/>
       <use xlink:href="#DejaVuSans-31" transform="translate(83.789062 0)"/>
       <use xlink:href="#DejaVuSans-30" transform="translate(147.412109 0)"/>
       <use xlink:href="#DejaVuSans-30" transform="translate(211.035156 0)"/>
      </g>
     </g>
    </g>
    <g id="ytick_3">
     <g id="line2d_12">
      <g>
       <use xlink:href="#m58c8df54cd" x="72" y="40.35361" style="stroke: #000000; stroke-width: 0.8"/>
      </g>
     </g>
     <g id="text_3">
      <!-- −50 -->
      <g transform="translate(43.895313 44.152829) scale(0.1 -0.1)">
       <use xlink:href="#DejaVuSans-2212"/>
       <use xlink:href="#DejaVuSans-35" transform="translate(83.789062 0)"/>
       <use xlink:href="#DejaVuSans-30" transform="translate(147.412109 0)"/>
      </g>
     </g>
    </g>
   </g>
   <g id="line2d_13">
    <path d="M 92.290909 62.62746 
L 94.330196 107.851325 
L 96.369484 128.147227 
L 98.408771 106.087758 
L 100.448058 90.633168 
L 102.487346 107.693716 
L 104.526633 99.112125 
L 106.565921 69.03704 
L 108.605208 112.424004 
L 110.644495 44.982177 
L 112.683783 81.53297 
L 114.72307 121.407076 
L 116.762357 123.514488 
L 118.801645 112.513876 
L 120.840932 67.345968 
L 122.880219 118.842927 
L 124.919507 69.727811 
L 126.958794 66.212343 
L 128.998081 86.868312 
L 131.037369 66.484791 
L 133.076656 54.706369 
L 135.115943 54.978404 
L 137.155231 108.5603 
L 139.194518 107.661456 
L 141.233805 124.892031 
L 143.273093 122.878432 
L 145.31238 118.145398 
L 147.351667 114.201269 
L 149.390955 118.283079 
L 151.430242 107.327552 
L 153.469529 105.765634 
L 155.508817 113.629285 
L 157.548104 127.065847 
L 159.587392 109.709705 
L 161.626679 118.173175 
L 163.665966 98.122714 
L 165.705254 94.493677 
L 167.744541 111.122001 
L 169.783828 49.776493 
L 171.823116 56.860102 
L 173.862403 75.127982 
L 175.90169 51.429446 
L 177.940978 45.239392 
L 179.980265 70.99475 
L 182.019552 67.493653 
L 184.05884 70.708447 
L 186.098127 63.520437 
L 188.137414 55.853963 
L 190.176702 66.810203 
L 192.215989 64.508934 
L 194.255276 50.887372 
L 196.294564 67.760855 
L 198.333851 75.015711 
L 200.373138 98.039347 
L 202.412426 71.881061 
L 204.451713 54.039209 
L 206.491 45.872267 
L 208.530288 79.1533 
L 210.569575 56.066058 
L 212.608862 111.066067 
L 214.64815 109.424563 
L 216.687437 91.402957 
L 218.726725 92.938384 
L 220.766012 107.440087 
L 222.805299 120.470444 
L 224.844587 119.623857 
L 226.883874 68.260109 
L 228.923161 59.173041 
L 230.962449 79.398068 
L 233.001736 73.549779 
L 235.041023 42.371889 
L 237.080311 58.827885 
L 239.119598 53.411176 
L 241.158885 77.267688 
L 243.198173 53.400591 
L 245.23746 82.854809 
L 247.276747 51.770988 
L 249.316035 98.218734 
L 251.355322 76.051955 
L 253.394609 111.566924 
L 255.433897 87.387017 
L 257.473184 67.40704 
L 261.551759 60.065972 
L 263.591046 68.897675 
L 265.630333 69.940923 
L 267.669621 61.437171 
L 269.708908 50.424118 
L 271.748196 44.99444 
L 273.787483 60.760024 
L 275.82677 52.509126 
L 277.866058 70.315977 
L 279.905345 56.704757 
L 281.944632 76.532843 
L 283.98392 63.037129 
L 286.023207 59.460492 
L 288.062494 54.230325 
L 290.101782 68.220775 
L 292.141069 73.229631 
L 294.180356 56.487025 
L 296.219644 44.14768 
L 298.258931 79.069421 
L 300.298218 60.81478 
L 302.337506 62.354765 
L 304.376793 56.707711 
L 306.41608 43.166981 
L 308.455368 48.429621 
L 310.494655 51.205537 
L 312.533942 61.157868 
L 314.57323 72.307762 
L 316.612517 42.127172 
L 318.651804 57.47593 
L 320.691092 47.95499 
L 322.730379 42.020955 
L 324.769667 55.387808 
L 326.808954 63.251483 
L 328.848241 49.409651 
L 330.887529 44.719096 
L 332.926816 54.196715 
L 334.966103 48.306507 
L 337.005391 57.076949 
L 339.044678 45.110308 
L 341.083965 50.190831 
L 343.123253 55.618642 
L 345.16254 50.104465 
L 349.241115 54.500273 
L 351.280402 46.623038 
L 353.319689 50.982829 
L 355.358977 56.85674 
L 357.398264 65.677652 
L 359.437551 82.681116 
L 361.476839 48.56294 
L 363.516126 55.912478 
L 365.555413 47.405111 
L 367.594701 71.047575 
L 369.633988 53.759009 
L 371.673275 59.626916 
L 373.712563 54.898479 
L 375.75185 69.143541 
L 377.791138 52.658115 
L 379.830425 94.770038 
L 381.869712 66.710465 
L 383.909 69.275309 
L 385.948287 101.6784 
L 387.987574 74.958818 
L 390.026862 81.956689 
L 392.066149 63.247851 
L 394.105436 65.965437 
L 396.144724 100.022243 
L 398.184011 85.888578 
L 400.223298 83.69677 
L 402.262586 58.475397 
L 404.301873 83.178468 
L 406.34116 71.752683 
L 408.380448 69.563174 
L 410.419735 49.217047 
L 412.459022 73.632514 
L 414.49831 106.73295 
L 416.537597 81.588129 
L 418.576884 116.099701 
L 420.616172 98.805188 
L 422.655459 83.990842 
L 424.694746 82.352809 
L 426.734034 65.389925 
L 428.773321 69.65281 
L 430.812608 66.622035 
L 432.851896 60.356182 
L 434.891183 71.31053 
L 436.930471 60.660993 
L 438.969758 59.062339 
L 441.009045 73.968648 
L 443.048333 47.715542 
L 445.08762 64.186907 
L 447.126907 69.319337 
L 449.166195 65.705464 
L 451.205482 57.216693 
L 453.244769 65.666481 
L 455.284057 61.612059 
L 457.323344 54.465692 
L 459.362631 53.731841 
L 461.401919 62.850324 
L 463.441206 59.117934 
L 465.480493 64.758909 
L 467.519781 59.307848 
L 469.559068 56.509487 
L 471.598355 67.671311 
L 473.637643 70.390155 
L 475.67693 71.143877 
L 477.716217 49.222233 
L 479.755505 66.196455 
L 481.794792 63.898094 
L 483.834079 62.42241 
L 485.873367 67.78661 
L 487.912654 64.290564 
L 489.951942 46.462734 
L 491.991229 51.785687 
L 494.030516 46.55514 
L 496.069804 63.875787 
L 498.109091 57.97839 
L 498.109091 57.97839 
" clip-path="url(#p9b24c3e7ac)" style="fill: none; stroke: #ff0000; stroke-opacity: 0.9; stroke-width: 1.5; stroke-linecap: square"/>
   </g>
   <g id="line2d_14">
    <path d="M 92.290909 61.00801 
L 94.330196 107.055466 
L 96.369484 129.028303 
L 98.408771 103.988414 
L 100.448058 91.113701 
L 102.487346 106.336101 
L 104.526633 98.60104 
L 106.565921 67.175465 
L 108.605208 113.807339 
L 110.644495 48.765327 
L 112.683783 83.765709 
L 114.72307 122.934551 
L 116.762357 120.154123 
L 118.801645 111.605619 
L 120.840932 70.347357 
L 122.880219 117.985651 
L 124.919507 68.760736 
L 126.958794 66.997514 
L 128.998081 88.903419 
L 131.037369 65.791647 
L 133.076656 53.459037 
L 135.115943 49.515104 
L 137.155231 109.607076 
L 139.194518 107.658376 
L 141.233805 128.550523 
L 143.273093 120.573383 
L 145.31238 119.375331 
L 147.351667 114.370279 
L 149.390955 118.268793 
L 151.430242 107.553151 
L 153.469529 104.708917 
L 155.508817 109.200849 
L 157.548104 127.715302 
L 159.587392 108.694269 
L 161.626679 121.356382 
L 163.665966 101.013763 
L 165.705254 91.696258 
L 167.744541 113.681266 
L 169.783828 47.12124 
L 171.823116 56.801978 
L 173.862403 73.233751 
L 175.90169 46.828295 
L 177.940978 46.416261 
L 179.980265 70.450974 
L 182.019552 66.263824 
L 184.05884 70.223726 
L 186.098127 67.220607 
L 188.137414 53.75247 
L 190.176702 67.623755 
L 192.215989 63.647206 
L 194.255276 49.906482 
L 196.294564 72.550094 
L 198.333851 76.998843 
L 200.373138 97.892731 
L 202.412426 69.144156 
L 204.451713 54.552875 
L 206.491 42.379936 
L 208.530288 77.004756 
L 210.569575 55.83099 
L 212.608862 111.477294 
L 214.64815 108.135087 
L 216.687437 94.225757 
L 218.726725 93.632937 
L 222.805299 123.16 
L 224.844587 116.256976 
L 226.883874 67.155675 
L 228.923161 60.647179 
L 230.962449 80.881843 
L 233.001736 75.060211 
L 235.041023 41.274841 
L 237.080311 62.191312 
L 239.119598 51.232981 
L 241.158885 75.90366 
L 243.198173 50.291888 
L 245.23746 86.505975 
L 247.276747 50.401418 
L 249.316035 99.410115 
L 251.355322 73.416874 
L 253.394609 114.842197 
L 255.433897 91.995323 
L 257.473184 72.068608 
L 259.512471 66.538789 
L 261.551759 57.627563 
L 263.591046 67.591903 
L 265.630333 66.485337 
L 267.669621 60.527829 
L 269.708908 53.380502 
L 271.748196 42.909832 
L 273.787483 63.29997 
L 275.82677 48.232839 
L 277.866058 65.926793 
L 279.905345 55.875506 
L 281.944632 77.336879 
L 283.98392 63.236261 
L 286.023207 61.445607 
L 288.062494 58.787494 
L 290.101782 68.538021 
L 292.141069 75.417066 
L 294.180356 52.500937 
L 296.219644 44.446435 
L 298.258931 82.039148 
L 300.298218 56.338185 
L 302.337506 62.325522 
L 304.376793 62.842302 
L 306.41608 45.306804 
L 308.455368 47.5667 
L 312.533942 59.997534 
L 314.57323 72.907506 
L 316.612517 39.141818 
L 318.651804 58.232956 
L 320.691092 49.909422 
L 322.730379 43.262475 
L 324.769667 56.110155 
L 326.808954 63.926251 
L 328.848241 47.380736 
L 330.887529 44.888754 
L 332.926816 51.361646 
L 334.966103 46.508523 
L 337.005391 59.92062 
L 339.044678 50.378042 
L 341.083965 53.796665 
L 343.123253 55.772148 
L 345.16254 47.818114 
L 347.201827 54.968997 
L 349.241115 54.643988 
L 351.280402 42.964513 
L 353.319689 56.398751 
L 355.358977 54.15895 
L 357.398264 67.46545 
L 359.437551 81.741026 
L 361.476839 54.32577 
L 363.516126 59.367437 
L 365.555413 47.729267 
L 367.594701 69.415897 
L 369.633988 56.075448 
L 371.673275 60.165509 
L 373.712563 53.43119 
L 375.75185 67.026889 
L 377.791138 53.992682 
L 379.830425 90.589451 
L 381.869712 71.353225 
L 383.909 67.238628 
L 385.948287 105.198005 
L 387.987574 71.274915 
L 390.026862 82.327347 
L 392.066149 61.70081 
L 394.105436 65.906176 
L 396.144724 99.40037 
L 398.184011 81.713219 
L 400.223298 87.280303 
L 402.262586 58.955487 
L 404.301873 79.235943 
L 406.34116 73.021834 
L 408.380448 69.270936 
L 410.419735 51.228815 
L 412.459022 71.307042 
L 414.49831 106.945264 
L 416.537597 82.041269 
L 418.576884 116.628967 
L 420.616172 99.014703 
L 422.655459 82.953191 
L 424.694746 79.316419 
L 426.734034 66.984976 
L 428.773321 65.315602 
L 430.812608 65.762071 
L 432.851896 60.63013 
L 434.891183 70.334899 
L 436.930471 62.449624 
L 438.969758 63.636288 
L 441.009045 71.886077 
L 443.048333 49.119967 
L 445.08762 63.616877 
L 447.126907 69.49642 
L 449.166195 65.410525 
L 451.205482 58.808624 
L 453.244769 66.287769 
L 455.284057 63.111572 
L 457.323344 57.952199 
L 459.362631 50.130205 
L 461.401919 61.191995 
L 463.441206 60.862779 
L 465.480493 63.731004 
L 467.519781 56.580528 
L 469.559068 55.407938 
L 471.598355 70.559389 
L 473.637643 67.198691 
L 475.67693 70.942953 
L 477.716217 50.552085 
L 479.755505 64.855285 
L 481.794792 60.103932 
L 483.834079 60.733867 
L 485.873367 67.337234 
L 487.912654 70.190995 
L 489.951942 46.021411 
L 491.991229 56.056709 
L 494.030516 44.403904 
L 496.069804 65.280705 
L 498.109091 57.639463 
L 498.109091 57.639463 
" clip-path="url(#p9b24c3e7ac)" style="fill: none; stroke: #ff0000; stroke-opacity: 0.9; stroke-width: 1.5; stroke-linecap: square"/>
   </g>
   <g id="line2d_15">
    <path d="M 92.290909 62.278788 
L 94.330196 104.885753 
L 96.369484 129.300217 
L 98.408771 102.994228 
L 100.448058 89.221998 
L 102.487346 106.794309 
L 104.526633 98.206437 
L 106.565921 66.781914 
L 108.605208 112.477548 
L 110.644495 46.504722 
L 112.683783 82.264948 
L 114.72307 123.511477 
L 116.762357 119.50299 
L 118.801645 108.785072 
L 120.840932 66.758584 
L 122.880219 116.247713 
L 124.919507 67.597609 
L 126.958794 65.91102 
L 128.998081 89.343865 
L 131.037369 63.587795 
L 133.076656 53.368872 
L 135.115943 56.236493 
L 137.155231 109.940659 
L 139.194518 107.462428 
L 141.233805 125.510341 
L 143.273093 122.632044 
L 145.31238 118.254382 
L 147.351667 117.525122 
L 149.390955 114.815351 
L 151.430242 107.944748 
L 153.469529 107.738744 
L 155.508817 110.559556 
L 157.548104 127.626177 
L 159.587392 108.654194 
L 161.626679 119.091154 
L 163.665966 95.511526 
L 165.705254 92.736748 
L 167.744541 112.314101 
L 169.783828 46.798204 
L 171.823116 56.178956 
L 173.862403 74.617598 
L 175.90169 50.726591 
L 177.940978 44.129723 
L 179.980265 69.47228 
L 182.019552 67.137453 
L 184.05884 72.327397 
L 188.137414 56.913789 
L 190.176702 69.102076 
L 192.215989 64.43964 
L 194.255276 51.193596 
L 196.294564 71.624208 
L 198.333851 76.827748 
L 200.373138 93.47338 
L 202.412426 70.340059 
L 204.451713 55.49108 
L 206.491 45.496954 
L 208.530288 75.910935 
L 210.569575 57.530842 
L 212.608862 108.195481 
L 214.64815 109.93443 
L 216.687437 95.107781 
L 218.726725 89.203823 
L 220.766012 110.554878 
L 222.805299 120.437104 
L 224.844587 118.48167 
L 226.883874 68.619688 
L 228.923161 61.792653 
L 230.962449 82.802782 
L 233.001736 78.227287 
L 235.041023 46.991791 
L 237.080311 64.676122 
L 239.119598 55.15894 
L 241.158885 74.797008 
L 243.198173 47.915203 
L 245.23746 83.708901 
L 247.276747 50.772337 
L 249.316035 96.3537 
L 251.355322 75.670741 
L 253.394609 114.552309 
L 255.433897 89.882331 
L 257.473184 69.134031 
L 259.512471 67.325965 
L 261.551759 60.119309 
L 263.591046 71.542559 
L 265.630333 64.669589 
L 267.669621 59.522001 
L 271.748196 43.23366 
L 273.787483 61.464931 
L 275.82677 50.47951 
L 277.866058 68.255109 
L 279.905345 59.217896 
L 281.944632 78.760122 
L 283.98392 65.15277 
L 286.023207 60.245072 
L 288.062494 54.650067 
L 290.101782 68.769476 
L 292.141069 75.076771 
L 294.180356 52.870474 
L 296.219644 47.943563 
L 298.258931 78.465356 
L 300.298218 59.863456 
L 302.337506 64.963919 
L 304.376793 60.358164 
L 306.41608 49.125661 
L 308.455368 46.806111 
L 310.494655 54.54468 
L 312.533942 58.804538 
L 314.57323 73.052663 
L 316.612517 46.959198 
L 318.651804 54.183475 
L 320.691092 50.64812 
L 322.730379 42.363332 
L 324.769667 57.797693 
L 326.808954 64.58209 
L 328.848241 46.83253 
L 330.887529 45.816223 
L 332.926816 51.410191 
L 334.966103 48.155069 
L 337.005391 55.275681 
L 339.044678 50.885596 
L 341.083965 52.00882 
L 343.123253 53.596597 
L 345.16254 52.258496 
L 347.201827 55.150154 
L 349.241115 56.186386 
L 351.280402 42.467168 
L 353.319689 55.092306 
L 355.358977 54.557506 
L 357.398264 63.720091 
L 359.437551 84.168143 
L 361.476839 54.035227 
L 363.516126 58.539324 
L 365.555413 47.870442 
L 367.594701 70.924869 
L 369.633988 54.50475 
L 371.673275 61.338473 
L 373.712563 53.550621 
L 375.75185 68.668359 
L 377.791138 51.073539 
L 379.830425 89.642878 
L 381.869712 67.260372 
L 383.909 70.141129 
L 385.948287 99.682707 
L 387.987574 76.946839 
L 390.026862 78.375788 
L 392.066149 62.107658 
L 394.105436 64.063196 
L 396.144724 99.023736 
L 398.184011 83.287831 
L 400.223298 84.634275 
L 402.262586 56.145346 
L 404.301873 81.564701 
L 406.34116 70.949779 
L 408.380448 71.462577 
L 410.419735 52.782212 
L 412.459022 70.205154 
L 414.49831 106.410182 
L 416.537597 81.374103 
L 418.576884 115.21374 
L 422.655459 82.927195 
L 424.694746 80.743116 
L 426.734034 66.834458 
L 428.773321 67.853991 
L 430.812608 66.034071 
L 432.851896 65.822573 
L 434.891183 67.761746 
L 436.930471 61.364544 
L 438.969758 60.92462 
L 441.009045 71.223003 
L 443.048333 49.112522 
L 445.08762 64.814228 
L 447.126907 70.988003 
L 449.166195 64.505199 
L 451.205482 58.902052 
L 453.244769 62.412377 
L 455.284057 63.810337 
L 457.323344 57.621845 
L 459.362631 50.50302 
L 461.401919 57.386489 
L 463.441206 63.575848 
L 465.480493 62.701783 
L 467.519781 59.799603 
L 469.559068 54.664404 
L 471.598355 68.658366 
L 473.637643 70.464288 
L 475.67693 70.549896 
L 477.716217 49.824236 
L 479.755505 65.714015 
L 481.794792 61.735495 
L 483.834079 60.1331 
L 485.873367 69.253645 
L 487.912654 68.207818 
L 489.951942 47.052491 
L 491.991229 55.720271 
L 494.030516 42.370708 
L 496.069804 61.838249 
L 498.109091 56.413317 
L 498.109091 56.413317 
" clip-path="url(#p9b24c3e7ac)" style="fill: none; stroke: #ff0000; stroke-opacity: 0.9; stroke-width: 1.5; stroke-linecap: square"/>
   </g>
   <g id="line2d_16">
    <path d="M 92.290909 61.485106 
L 94.330196 108.896561 
L 96.369484 126.617143 
L 98.408771 102.841331 
L 100.448058 90.033539 
L 102.487346 105.978234 
L 104.526633 96.788159 
L 106.565921 70.238511 
L 108.605208 113.936653 
L 110.644495 48.384285 
L 112.683783 80.734669 
L 114.72307 123.679521 
L 118.801645 110.85573 
L 120.840932 69.986238 
L 122.880219 116.399806 
L 124.919507 70.207309 
L 126.958794 68.612315 
L 128.998081 89.962078 
L 131.037369 65.385362 
L 133.076656 55.074136 
L 135.115943 56.343006 
L 137.155231 108.259 
L 139.194518 106.930438 
L 141.233805 125.922798 
L 143.273093 118.746975 
L 145.31238 116.052811 
L 147.351667 112.868375 
L 149.390955 116.294637 
L 151.430242 107.689659 
L 153.469529 110.781454 
L 155.508817 111.91701 
L 157.548104 129.874109 
L 159.587392 106.445223 
L 161.626679 117.170462 
L 163.665966 98.709162 
L 165.705254 92.974304 
L 167.744541 110.874992 
L 169.783828 51.799156 
L 171.823116 56.664022 
L 173.862403 76.31734 
L 175.90169 50.065505 
L 177.940978 48.28832 
L 179.980265 69.519669 
L 182.019552 67.212861 
L 184.05884 74.080574 
L 186.098127 67.375355 
L 188.137414 59.195107 
L 190.176702 64.401611 
L 192.215989 58.226986 
L 194.255276 46.760379 
L 196.294564 71.578801 
L 198.333851 76.104142 
L 200.373138 97.003064 
L 202.412426 71.777553 
L 206.491 45.938975 
L 208.530288 75.64825 
L 210.569575 59.654291 
L 212.608862 111.357242 
L 214.64815 108.460327 
L 216.687437 91.979423 
L 218.726725 94.52065 
L 220.766012 109.746791 
L 222.805299 121.160618 
L 224.844587 119.003363 
L 226.883874 68.215328 
L 228.923161 59.404667 
L 230.962449 78.83803 
L 233.001736 73.248416 
L 235.041023 41.15448 
L 237.080311 60.005739 
L 239.119598 53.02209 
L 241.158885 74.848552 
L 243.198173 53.905907 
L 245.23746 86.238262 
L 247.276747 51.470348 
L 249.316035 99.688017 
L 251.355322 75.868217 
L 253.394609 110.452078 
L 255.433897 88.868912 
L 257.473184 68.652091 
L 259.512471 67.669041 
L 261.551759 56.656563 
L 263.591046 68.41566 
L 265.630333 66.970558 
L 267.669621 60.495155 
L 271.748196 42.811168 
L 273.787483 58.951028 
L 275.82677 50.063631 
L 277.866058 68.307366 
L 279.905345 57.287929 
L 281.944632 76.276145 
L 283.98392 68.537108 
L 286.023207 58.923267 
L 288.062494 55.322243 
L 290.101782 69.317349 
L 292.141069 79.481786 
L 294.180356 56.909646 
L 296.219644 42.813602 
L 298.258931 79.255877 
L 300.298218 58.77229 
L 302.337506 61.996059 
L 304.376793 59.667973 
L 306.41608 46.689051 
L 308.455368 49.613362 
L 310.494655 50.875215 
L 312.533942 59.237181 
L 314.57323 73.252725 
L 316.612517 41.172305 
L 318.651804 54.964906 
L 320.691092 49.643513 
L 322.730379 45.003493 
L 326.808954 66.409693 
L 328.848241 46.044554 
L 330.887529 44.38626 
L 332.926816 49.638605 
L 334.966103 45.775767 
L 337.005391 61.907176 
L 339.044678 48.146746 
L 341.083965 51.767994 
L 343.123253 54.144797 
L 345.16254 51.417494 
L 347.201827 52.667332 
L 349.241115 50.893549 
L 351.280402 43.62809 
L 353.319689 54.343883 
L 355.358977 53.201345 
L 357.398264 64.137328 
L 359.437551 87.940027 
L 361.476839 50.617495 
L 363.516126 59.111992 
L 365.555413 46.01478 
L 367.594701 70.120873 
L 369.633988 52.051176 
L 371.673275 62.400752 
L 373.712563 51.780009 
L 375.75185 68.251139 
L 377.791138 51.191884 
L 379.830425 92.405337 
L 381.869712 65.948112 
L 383.909 70.743396 
L 385.948287 98.316818 
L 387.987574 70.382495 
L 390.026862 81.076601 
L 392.066149 64.825761 
L 394.105436 63.457182 
L 396.144724 98.192342 
L 398.184011 82.849103 
L 400.223298 85.948489 
L 402.262586 60.549199 
L 404.301873 81.921752 
L 406.34116 71.397201 
L 408.380448 71.551064 
L 410.419735 50.578713 
L 412.459022 72.615791 
L 414.49831 104.79418 
L 416.537597 78.629975 
L 418.576884 114.599555 
L 420.616172 101.73184 
L 422.655459 81.661129 
L 424.694746 80.231404 
L 426.734034 66.720325 
L 428.773321 66.417686 
L 432.851896 62.575939 
L 434.891183 68.950167 
L 436.930471 56.972051 
L 438.969758 62.327349 
L 441.009045 71.022998 
L 443.048333 50.310537 
L 447.126907 70.70073 
L 449.166195 68.460883 
L 451.205482 58.512133 
L 453.244769 66.937546 
L 455.284057 61.627413 
L 457.323344 57.982913 
L 459.362631 50.643428 
L 461.401919 58.856134 
L 463.441206 58.648831 
L 465.480493 60.661832 
L 467.519781 59.970411 
L 469.559068 56.937119 
L 471.598355 68.827749 
L 473.637643 70.270345 
L 475.67693 75.336888 
L 477.716217 54.893606 
L 479.755505 67.514455 
L 481.794792 59.858888 
L 483.834079 64.427533 
L 485.873367 65.575351 
L 487.912654 70.297221 
L 489.951942 46.125976 
L 491.991229 55.176575 
L 494.030516 42.858225 
L 496.069804 62.196673 
L 498.109091 57.354258 
L 498.109091 57.354258 
" clip-path="url(#p9b24c3e7ac)" style="fill: none; stroke: #ff0000; stroke-opacity: 0.9; stroke-width: 1.5; stroke-linecap: square"/>
   </g>
   <g id="line2d_17">
    <path d="M 92.290909 64.977664 
L 94.330196 105.109639 
L 96.369484 130.778182 
L 98.408771 102.625995 
L 100.448058 90.379551 
L 102.487346 109.025082 
L 104.526633 96.774287 
L 106.565921 66.347225 
L 108.605208 112.725293 
L 110.644495 44.653686 
L 114.72307 119.686193 
L 116.762357 124.073715 
L 118.801645 109.132445 
L 120.840932 70.140675 
L 122.880219 118.673952 
L 124.919507 69.63552 
L 126.958794 65.685846 
L 128.998081 86.749508 
L 131.037369 68.996919 
L 133.076656 53.615335 
L 135.115943 53.023613 
L 137.155231 109.181059 
L 139.194518 106.084598 
L 141.233805 125.512651 
L 143.273093 120.425623 
L 145.31238 119.93365 
L 147.351667 115.962468 
L 149.390955 115.922267 
L 151.430242 107.496665 
L 153.469529 107.409907 
L 155.508817 113.7844 
L 157.548104 126.042941 
L 159.587392 108.662228 
L 161.626679 123.236575 
L 163.665966 99.601478 
L 165.705254 94.105292 
L 167.744541 113.036856 
L 169.783828 53.163138 
L 171.823116 56.388172 
L 173.862403 77.29827 
L 175.90169 48.412652 
L 177.940978 43.650639 
L 179.980265 69.771517 
L 182.019552 64.061914 
L 184.05884 71.220837 
L 186.098127 66.816432 
L 188.137414 57.590057 
L 190.176702 67.260245 
L 192.215989 63.089346 
L 194.255276 50.796034 
L 196.294564 66.454232 
L 198.333851 75.090723 
L 200.373138 97.347628 
L 202.412426 71.175792 
L 204.451713 53.598504 
L 206.491 44.769829 
L 208.530288 73.783509 
L 210.569575 58.649883 
L 212.608862 108.529408 
L 214.64815 106.863092 
L 216.687437 91.987588 
L 218.726725 92.904774 
L 222.805299 121.691068 
L 224.844587 118.109817 
L 226.883874 67.705794 
L 228.923161 60.041182 
L 230.962449 80.244075 
L 233.001736 75.166476 
L 235.041023 40.533124 
L 237.080311 63.555886 
L 239.119598 50.337212 
L 241.158885 73.014703 
L 243.198173 53.022343 
L 245.23746 84.36766 
L 247.276747 53.689468 
L 249.316035 100.274815 
L 251.355322 77.112343 
L 253.394609 112.539676 
L 255.433897 88.377175 
L 257.473184 69.135324 
L 259.512471 65.808592 
L 261.551759 56.744941 
L 263.591046 68.078808 
L 265.630333 69.22323 
L 267.669621 62.791913 
L 269.708908 49.827152 
L 271.748196 43.5194 
L 273.787483 61.332554 
L 275.82677 50.362699 
L 277.866058 65.309799 
L 279.905345 56.744464 
L 281.944632 77.86472 
L 283.98392 62.336589 
L 286.023207 59.662244 
L 288.062494 55.578694 
L 290.101782 68.743026 
L 292.141069 75.593448 
L 294.180356 54.949718 
L 296.219644 46.370006 
L 298.258931 84.352053 
L 300.298218 56.723128 
L 302.337506 64.906513 
L 304.376793 61.321952 
L 306.41608 45.928646 
L 308.455368 45.326468 
L 310.494655 53.178279 
L 312.533942 57.595016 
L 314.57323 73.808724 
L 316.612517 42.532316 
L 318.651804 55.688925 
L 320.691092 44.943335 
L 322.730379 42.257 
L 324.769667 58.098326 
L 326.808954 64.711439 
L 328.848241 46.010648 
L 330.887529 46.17486 
L 332.926816 52.252531 
L 334.966103 46.225447 
L 337.005391 59.139316 
L 339.044678 48.411603 
L 341.083965 49.516606 
L 343.123253 51.704256 
L 345.16254 49.450642 
L 347.201827 56.426086 
L 349.241115 53.319385 
L 351.280402 42.292771 
L 353.319689 56.591682 
L 355.358977 53.781403 
L 357.398264 64.308137 
L 359.437551 80.86365 
L 361.476839 50.685942 
L 363.516126 56.326865 
L 365.555413 49.798452 
L 367.594701 70.810535 
L 369.633988 51.986508 
L 371.673275 62.898219 
L 373.712563 51.708026 
L 375.75185 68.708106 
L 377.791138 51.751778 
L 379.830425 92.142209 
L 381.869712 70.485704 
L 383.909 67.759597 
L 385.948287 102.070066 
L 387.987574 69.18473 
L 390.026862 82.117073 
L 392.066149 65.79756 
L 394.105436 61.142312 
L 396.144724 96.416197 
L 398.184011 83.383294 
L 400.223298 87.023496 
L 402.262586 59.695642 
L 404.301873 82.593164 
L 406.34116 75.236547 
L 408.380448 71.098435 
L 410.419735 51.420402 
L 412.459022 70.018446 
L 414.49831 104.408524 
L 416.537597 79.049143 
L 418.576884 116.763028 
L 420.616172 98.414952 
L 422.655459 82.168089 
L 424.694746 77.338166 
L 426.734034 64.675823 
L 428.773321 68.719529 
L 430.812608 63.535734 
L 432.851896 63.104096 
L 434.891183 68.165875 
L 436.930471 61.010165 
L 438.969758 58.968146 
L 441.009045 70.501759 
L 443.048333 48.019362 
L 445.08762 62.526636 
L 447.126907 68.245421 
L 449.166195 65.277292 
L 451.205482 57.433264 
L 453.244769 65.789101 
L 455.284057 61.201154 
L 457.323344 54.312272 
L 459.362631 52.898051 
L 461.401919 61.588131 
L 463.441206 58.572469 
L 465.480493 64.146132 
L 467.519781 57.389822 
L 469.559068 54.263435 
L 471.598355 68.867306 
L 473.637643 66.349392 
L 475.67693 72.80289 
L 477.716217 51.426056 
L 479.755505 67.919941 
L 481.794792 59.450804 
L 483.834079 62.989476 
L 485.873367 68.594944 
L 487.912654 65.215749 
L 489.951942 47.928793 
L 491.991229 57.680831 
L 494.030516 43.800769 
L 496.069804 65.372519 
L 498.109091 59.319944 
L 498.109091 59.319944 
" clip-path="url(#p9b24c3e7ac)" style="fill: none; stroke: #ff0000; stroke-opacity: 0.9; stroke-width: 1.5; stroke-linecap: square"/>
   </g>
   <g id="line2d_18">
    <path d="M 92.290909 111.426876 
L 94.330196 100.307247 
L 96.369484 119.478947 
L 98.408771 100.473693 
L 100.448058 91.424333 
L 102.487346 104.237676 
L 104.526633 98.599011 
L 106.565921 67.193123 
L 108.605208 111.805555 
L 110.644495 47.595988 
L 112.683783 81.137925 
L 114.72307 118.175382 
L 116.762357 120.313778 
L 118.801645 111.801809 
L 120.840932 70.034685 
L 122.880219 111.716327 
L 124.919507 68.585296 
L 126.958794 64.284916 
L 128.998081 85.229549 
L 131.037369 64.161428 
L 133.076656 51.16548 
L 135.115943 53.39211 
L 137.155231 104.551193 
L 139.194518 108.589308 
L 141.233805 124.110101 
L 143.273093 120.28115 
L 145.31238 120.398283 
L 147.351667 112.57505 
L 149.390955 117.21326 
L 151.430242 108.625475 
L 153.469529 107.116951 
L 155.508817 113.772965 
L 157.548104 127.067559 
L 159.587392 108.945186 
L 161.626679 122.601703 
L 163.665966 95.549733 
L 165.705254 94.735543 
L 167.744541 112.127358 
L 169.783828 51.104759 
L 171.823116 55.507118 
L 173.862403 75.216785 
L 175.90169 51.851349 
L 177.940978 44.590296 
L 179.980265 69.315148 
L 182.019552 64.897641 
L 184.05884 71.110974 
L 186.098127 66.426323 
L 188.137414 60.263218 
L 190.176702 68.978824 
L 192.215989 62.192255 
L 194.255276 48.946317 
L 196.294564 69.249732 
L 198.333851 75.047149 
L 200.373138 92.529094 
L 202.412426 71.458612 
L 204.451713 53.455474 
L 206.491 43.860234 
L 208.530288 73.510584 
L 210.569575 58.852715 
L 212.608862 110.854098 
L 214.64815 105.280729 
L 216.687437 93.475994 
L 218.726725 92.132326 
L 220.766012 108.520582 
L 222.805299 119.885519 
L 224.844587 118.995525 
L 226.883874 70.377835 
L 228.923161 59.087243 
L 230.962449 79.239603 
L 233.001736 73.77624 
L 235.041023 45.280762 
L 237.080311 59.894618 
L 239.119598 52.758422 
L 241.158885 74.502667 
L 243.198173 53.259382 
L 245.23746 81.257655 
L 247.276747 51.396354 
L 249.316035 101.436643 
L 251.355322 77.215805 
L 253.394609 110.011442 
L 257.473184 72.362909 
L 259.512471 65.970367 
L 261.551759 57.879853 
L 263.591046 69.127101 
L 265.630333 64.587032 
L 267.669621 61.45934 
L 269.708908 49.725225 
L 271.748196 40.801432 
L 273.787483 62.667178 
L 275.82677 50.776003 
L 277.866058 66.062394 
L 279.905345 55.042831 
L 281.944632 81.890538 
L 283.98392 65.153396 
L 286.023207 63.591748 
L 288.062494 54.029533 
L 290.101782 67.715057 
L 292.141069 75.460387 
L 294.180356 55.190286 
L 296.219644 42.874768 
L 298.258931 79.007942 
L 300.298218 56.264144 
L 302.337506 61.355608 
L 304.376793 58.981288 
L 306.41608 46.072272 
L 308.455368 46.796205 
L 310.494655 57.348012 
L 312.533942 61.580977 
L 314.57323 72.907593 
L 316.612517 41.853925 
L 318.651804 57.57052 
L 320.691092 47.490435 
L 322.730379 43.576848 
L 326.808954 63.508226 
L 328.848241 47.329838 
L 332.926816 48.913457 
L 334.966103 47.230571 
L 337.005391 57.265536 
L 339.044678 42.269004 
L 341.083965 51.32668 
L 343.123253 57.29906 
L 345.16254 49.965215 
L 347.201827 53.701771 
L 349.241115 55.630267 
L 351.280402 42.635654 
L 353.319689 59.346797 
L 355.358977 58.654089 
L 357.398264 65.514331 
L 359.437551 83.305053 
L 361.476839 48.996494 
L 363.516126 56.935056 
L 365.555413 47.173123 
L 367.594701 70.510408 
L 369.633988 54.087737 
L 371.673275 63.121738 
L 373.712563 52.990123 
L 375.75185 68.91292 
L 377.791138 51.181977 
L 379.830425 93.857823 
L 381.869712 67.037284 
L 383.909 72.882855 
L 385.948287 99.691005 
L 387.987574 72.708886 
L 390.026862 80.368602 
L 392.066149 62.888513 
L 394.105436 67.407132 
L 396.144724 100.561267 
L 398.184011 83.602072 
L 400.223298 83.862039 
L 402.262586 59.894911 
L 404.301873 80.235668 
L 406.34116 68.948403 
L 408.380448 69.844018 
L 410.419735 48.302275 
L 412.459022 69.274022 
L 414.49831 104.673623 
L 416.537597 78.834341 
L 418.576884 112.159399 
L 420.616172 105.267972 
L 422.655459 86.220333 
L 424.694746 81.322369 
L 426.734034 62.341847 
L 428.773321 66.82928 
L 430.812608 65.265081 
L 432.851896 64.330087 
L 434.891183 71.563797 
L 436.930471 60.894912 
L 438.969758 60.868847 
L 441.009045 71.6377 
L 443.048333 49.12952 
L 445.08762 61.095791 
L 447.126907 70.141824 
L 449.166195 67.100148 
L 451.205482 57.369072 
L 453.244769 65.043309 
L 455.284057 63.107424 
L 457.323344 54.062545 
L 459.362631 51.025081 
L 461.401919 61.154374 
L 463.441206 61.098468 
L 465.480493 63.218804 
L 467.519781 55.770551 
L 469.559068 57.061664 
L 471.598355 68.489109 
L 473.637643 68.603196 
L 475.67693 70.891707 
L 477.716217 51.245514 
L 479.755505 65.744883 
L 481.794792 58.718918 
L 483.834079 62.365913 
L 485.873367 66.962611 
L 487.912654 67.547662 
L 489.951942 47.801472 
L 491.991229 50.889345 
L 494.030516 45.242489 
L 496.069804 65.132526 
L 498.109091 59.604414 
L 498.109091 59.604414 
" clip-path="url(#p9b24c3e7ac)" style="fill: none; stroke: #008000; stroke-opacity: 0.9; stroke-width: 1.5; stroke-linecap: square"/>
   </g>
   <g id="line2d_19">
    <path d="M 153.469529 135.36 
L 153.469529 34.56 
" clip-path="url(#p9b24c3e7ac)" style="fill: none; stroke-dasharray: 5.55,2.4; stroke-dashoffset: 0; stroke: #000000; stroke-width: 1.5"/>
   </g>
   <g id="line2d_20">
    <path d="M 438.969758 135.36 
L 438.969758 34.56 
" clip-path="url(#p9b24c3e7ac)" style="fill: none; stroke-dasharray: 5.55,2.4; stroke-dashoffset: 0; stroke: #0000ff; stroke-width: 1.5"/>
   </g>
   <g id="patch_3">
    <path d="M 72 135.36 
L 72 34.56 
" style="fill: none; stroke: #000000; stroke-width: 0.8; stroke-linejoin: miter; stroke-linecap: square"/>
   </g>
   <g id="patch_4">
    <path d="M 518.4 135.36 
L 518.4 34.56 
" style="fill: none; stroke: #000000; stroke-width: 0.8; stroke-linejoin: miter; stroke-linecap: square"/>
   </g>
   <g id="patch_5">
    <path d="M 72 135.36 
L 518.4 135.36 
" style="fill: none; stroke: #000000; stroke-width: 0.8; stroke-linejoin: miter; stroke-linecap: square"/>
   </g>
   <g id="patch_6">
    <path d="M 72 34.56 
L 518.4 34.56 
" style="fill: none; stroke: #000000; stroke-width: 0.8; stroke-linejoin: miter; stroke-linecap: square"/>
   </g>
  </g>
  <g id="axes_2">
   <g id="patch_7">
    <path d="M 72 256.32 
L 518.4 256.32 
L 518.4 155.52 
L 72 155.52 
z
" style="fill: #ffffff"/>
   </g>
   <g id="matplotlib.axis_3">
    <g id="xtick_10">
     <g id="line2d_21">
      <g>
       <use xlink:href="#mdf4baad460" x="92.290909" y="256.32" style="stroke: #000000; stroke-width: 0.8"/>
      </g>
     </g>
     <g id="text_4">
      <!-- 0 -->
      <g transform="translate(89.109659 270.918437) scale(0.1 -0.1)">
       <use xlink:href="#DejaVuSans-30"/>
      </g>
     </g>
    </g>
    <g id="xtick_11">
     <g id="line2d_22">
      <g>
       <use xlink:href="#mdf4baad460" x="143.273093" y="256.32" style="stroke: #000000; stroke-width: 0.8"/>
      </g>
     </g>
     <g id="text_5">
      <!-- 25 -->
      <g transform="translate(136.910593 270.918437) scale(0.1 -0.1)">
       <defs>
        <path id="DejaVuSans-32" d="M 1228 531 
L 3431 531 
L 3431 0 
L 469 0 
L 469 531 
Q 828 903 1448 1529 
Q 2069 2156 2228 2338 
Q 2531 2678 2651 2914 
Q 2772 3150 2772 3378 
Q 2772 3750 2511 3984 
Q 2250 4219 1831 4219 
Q 1534 4219 1204 4116 
Q 875 4013 500 3803 
L 500 4441 
Q 881 4594 1212 4672 
Q 1544 4750 1819 4750 
Q 2544 4750 2975 4387 
Q 3406 4025 3406 3419 
Q 3406 3131 3298 2873 
Q 3191 2616 2906 2266 
Q 2828 2175 2409 1742 
Q 1991 1309 1228 531 
z
" transform="scale(0.015625)"/>
       </defs>
       <use xlink:href="#DejaVuSans-32"/>
       <use xlink:href="#DejaVuSans-35" transform="translate(63.623047 0)"/>
      </g>
     </g>
    </g>
    <g id="xtick_12">
     <g id="line2d_23">
      <g>
       <use xlink:href="#mdf4baad460" x="194.255276" y="256.32" style="stroke: #000000; stroke-width: 0.8"/>
      </g>
     </g>
     <g id="text_6">
      <!-- 50 -->
      <g transform="translate(187.892776 270.918437) scale(0.1 -0.1)">
       <use xlink:href="#DejaVuSans-35"/>
       <use xlink:href="#DejaVuSans-30" transform="translate(63.623047 0)"/>
      </g>
     </g>
    </g>
    <g id="xtick_13">
     <g id="line2d_24">
      <g>
       <use xlink:href="#mdf4baad460" x="245.23746" y="256.32" style="stroke: #000000; stroke-width: 0.8"/>
      </g>
     </g>
     <g id="text_7">
      <!-- 75 -->
      <g transform="translate(238.87496 270.918437) scale(0.1 -0.1)">
       <defs>
        <path id="DejaVuSans-37" d="M 525 4666 
L 3525 4666 
L 3525 4397 
L 1831 0 
L 1172 0 
L 2766 4134 
L 525 4134 
L 525 4666 
z
" transform="scale(0.015625)"/>
       </defs>
       <use xlink:href="#DejaVuSans-37"/>
       <use xlink:href="#DejaVuSans-35" transform="translate(63.623047 0)"/>
      </g>
     </g>
    </g>
    <g id="xtick_14">
     <g id="line2d_25">
      <g>
       <use xlink:href="#mdf4baad460" x="296.219644" y="256.32" style="stroke: #000000; stroke-width: 0.8"/>
      </g>
     </g>
     <g id="text_8">
      <!-- 100 -->
      <g transform="translate(286.675894 270.918437) scale(0.1 -0.1)">
       <use xlink:href="#DejaVuSans-31"/>
       <use xlink:href="#DejaVuSans-30" transform="translate(63.623047 0)"/>
       <use xlink:href="#DejaVuSans-30" transform="translate(127.246094 0)"/>
      </g>
     </g>
    </g>
    <g id="xtick_15">
     <g id="line2d_26">
      <g>
       <use xlink:href="#mdf4baad460" x="347.201827" y="256.32" style="stroke: #000000; stroke-width: 0.8"/>
      </g>
     </g>
     <g id="text_9">
      <!-- 125 -->
      <g transform="translate(337.658077 270.918437) scale(0.1 -0.1)">
       <use xlink:href="#DejaVuSans-31"/>
       <use xlink:href="#DejaVuSans-32" transform="translate(63.623047 0)"/>
       <use xlink:href="#DejaVuSans-35" transform="translate(127.246094 0)"/>
      </g>
     </g>
    </g>
    <g id="xtick_16">
     <g id="line2d_27">
      <g>
       <use xlink:href="#mdf4baad460" x="398.184011" y="256.32" style="stroke: #000000; stroke-width: 0.8"/>
      </g>
     </g>
     <g id="text_10">
      <!-- 150 -->
      <g transform="translate(388.640261 270.918437) scale(0.1 -0.1)">
       <use xlink:href="#DejaVuSans-31"/>
       <use xlink:href="#DejaVuSans-35" transform="translate(63.623047 0)"/>
       <use xlink:href="#DejaVuSans-30" transform="translate(127.246094 0)"/>
      </g>
     </g>
    </g>
    <g id="xtick_17">
     <g id="line2d_28">
      <g>
       <use xlink:href="#mdf4baad460" x="449.166195" y="256.32" style="stroke: #000000; stroke-width: 0.8"/>
      </g>
     </g>
     <g id="text_11">
      <!-- 175 -->
      <g transform="translate(439.622445 270.918437) scale(0.1 -0.1)">
       <use xlink:href="#DejaVuSans-31"/>
       <use xlink:href="#DejaVuSans-37" transform="translate(63.623047 0)"/>
       <use xlink:href="#DejaVuSans-35" transform="translate(127.246094 0)"/>
      </g>
     </g>
    </g>
    <g id="xtick_18">
     <g id="line2d_29">
      <g>
       <use xlink:href="#mdf4baad460" x="500.148378" y="256.32" style="stroke: #000000; stroke-width: 0.8"/>
      </g>
     </g>
     <g id="text_12">
      <!-- 200 -->
      <g transform="translate(490.604628 270.918437) scale(0.1 -0.1)">
       <use xlink:href="#DejaVuSans-32"/>
       <use xlink:href="#DejaVuSans-30" transform="translate(63.623047 0)"/>
       <use xlink:href="#DejaVuSans-30" transform="translate(127.246094 0)"/>
      </g>
     </g>
    </g>
   </g>
   <g id="matplotlib.axis_4">
    <g id="ytick_4">
     <g id="line2d_30">
      <g>
       <use xlink:href="#m58c8df54cd" x="72" y="252.704868" style="stroke: #000000; stroke-width: 0.8"/>
      </g>
     </g>
     <g id="text_13">
      <!-- −200 -->
      <g transform="translate(37.532812 256.504087) scale(0.1 -0.1)">
       <use xlink:href="#DejaVuSans-2212"/>
       <use xlink:href="#DejaVuSans-32" transform="translate(83.789062 0)"/>
       <use xlink:href="#DejaVuSans-30" transform="translate(147.412109 0)"/>
       <use xlink:href="#DejaVuSans-30" transform="translate(211.035156 0)"/>
      </g>
     </g>
    </g>
    <g id="ytick_5">
     <g id="line2d_31">
      <g>
       <use xlink:href="#m58c8df54cd" x="72" y="228.574531" style="stroke: #000000; stroke-width: 0.8"/>
      </g>
     </g>
     <g id="text_14">
      <!-- −100 -->
      <g transform="translate(37.532812 232.37375) scale(0.1 -0.1)">
       <use xlink:href="#DejaVuSans-2212"/>
       <use xlink:href="#DejaVuSans-31" transform="translate(83.789062 0)"/>
       <use xlink:href="#DejaVuSans-30" transform="translate(147.412109 0)"/>
       <use xlink:href="#DejaVuSans-30" transform="translate(211.035156 0)"/>
      </g>
     </g>
    </g>
    <g id="ytick_6">
     <g id="line2d_32">
      <g>
       <use xlink:href="#m58c8df54cd" x="72" y="204.444195" style="stroke: #000000; stroke-width: 0.8"/>
      </g>
     </g>
     <g id="text_15">
      <!-- 0 -->
      <g transform="translate(58.6375 208.243414) scale(0.1 -0.1)">
       <use xlink:href="#DejaVuSans-30"/>
      </g>
     </g>
    </g>
    <g id="ytick_7">
     <g id="line2d_33">
      <g>
       <use xlink:href="#m58c8df54cd" x="72" y="180.313858" style="stroke: #000000; stroke-width: 0.8"/>
      </g>
     </g>
     <g id="text_16">
      <!-- 100 -->
      <g transform="translate(45.9125 184.113077) scale(0.1 -0.1)">
       <use xlink:href="#DejaVuSans-31"/>
       <use xlink:href="#DejaVuSans-30" transform="translate(63.623047 0)"/>
       <use xlink:href="#DejaVuSans-30" transform="translate(127.246094 0)"/>
      </g>
     </g>
    </g>
    <g id="ytick_8">
     <g id="line2d_34">
      <g>
       <use xlink:href="#m58c8df54cd" x="72" y="156.183521" style="stroke: #000000; stroke-width: 0.8"/>
      </g>
     </g>
     <g id="text_17">
      <!-- 200 -->
      <g transform="translate(45.9125 159.98274) scale(0.1 -0.1)">
       <use xlink:href="#DejaVuSans-32"/>
       <use xlink:href="#DejaVuSans-30" transform="translate(63.623047 0)"/>
       <use xlink:href="#DejaVuSans-30" transform="translate(127.246094 0)"/>
      </g>
     </g>
    </g>
   </g>
   <g id="line2d_35">
    <path d="M 92.290909 176.395422 
L 94.330196 170.459939 
L 96.369484 163.417004 
L 98.408771 163.900542 
L 100.448058 169.603282 
L 102.487346 167.370434 
L 104.526633 168.392453 
L 106.565921 163.178237 
L 108.605208 164.738959 
L 110.644495 176.814841 
L 112.683783 246.771838 
L 114.72307 161.880138 
L 116.762357 164.630119 
L 118.801645 170.85459 
L 120.840932 162.195925 
L 122.880219 167.899441 
L 124.919507 166.408726 
L 126.958794 180.836218 
L 128.998081 163.780045 
L 131.037369 168.841079 
L 133.076656 175.817987 
L 135.115943 169.677588 
L 137.155231 166.127182 
L 139.194518 165.091035 
L 141.233805 169.365561 
L 143.273093 165.954522 
L 145.31238 161.414807 
L 147.351667 161.035252 
L 149.390955 164.147865 
L 151.430242 164.057738 
L 153.469529 164.572124 
L 155.508817 168.217676 
L 157.548104 163.959785 
L 159.587392 166.965691 
L 161.626679 169.609773 
L 163.665966 168.572039 
L 165.705254 248.861445 
L 167.744541 162.643641 
L 169.783828 168.692297 
L 171.823116 166.604652 
L 173.862403 167.962234 
L 175.90169 172.463689 
L 177.940978 171.252662 
L 179.980265 185.122112 
L 182.019552 170.52993 
L 184.05884 173.026011 
L 186.098127 187.174297 
L 188.137414 173.543461 
L 190.176702 175.222904 
L 192.215989 197.374985 
L 194.255276 194.006655 
L 196.294564 188.982231 
L 198.333851 188.174243 
L 200.373138 171.151462 
L 202.412426 165.088796 
L 204.451713 167.664983 
L 206.491 166.80313 
L 208.530288 175.568911 
L 210.569575 166.721073 
L 212.608862 164.814793 
L 214.64815 168.105339 
L 216.687437 161.791549 
L 218.726725 168.662657 
L 220.766012 166.791164 
L 222.805299 171.043223 
L 224.844587 162.91883 
L 226.883874 177.09108 
L 228.923161 186.264553 
L 230.962449 166.247237 
L 233.001736 172.457231 
L 235.041023 165.724902 
L 237.080311 166.641056 
L 239.119598 169.669315 
L 241.158885 165.378363 
L 243.198173 170.714674 
L 245.23746 163.108857 
L 247.276747 164.811748 
L 249.316035 165.474979 
L 251.355322 169.173306 
L 253.394609 166.772154 
L 255.433897 164.099536 
L 257.473184 169.827799 
L 259.512471 165.310894 
L 261.551759 163.011999 
L 263.591046 165.539075 
L 265.630333 168.912175 
L 267.669621 163.632032 
L 269.708908 165.603646 
L 271.748196 164.899991 
L 273.787483 167.936622 
L 275.82677 161.850362 
L 277.866058 249.795998 
L 279.905345 167.307774 
L 281.944632 164.982909 
L 283.98392 163.502971 
L 286.023207 170.97047 
L 288.062494 171.853417 
L 290.101782 170.413627 
L 292.141069 172.299642 
L 294.180356 167.599627 
L 296.219644 168.004986 
L 298.258931 174.7983 
L 300.298218 170.3057 
L 302.337506 164.522104 
L 304.376793 170.266424 
L 306.41608 164.246845 
L 308.455368 168.296574 
L 310.494655 168.513123 
L 312.533942 163.559199 
L 314.57323 249.25709 
L 316.612517 161.765956 
L 318.651804 163.640387 
L 320.691092 162.329183 
L 322.730379 166.296561 
L 324.769667 164.963093 
L 326.808954 164.439111 
L 328.848241 166.986306 
L 330.887529 167.870099 
L 332.926816 163.848957 
L 334.966103 164.191125 
L 337.005391 161.698638 
L 339.044678 163.529382 
L 341.083965 164.307984 
L 343.123253 163.489664 
L 345.16254 165.649553 
L 347.201827 163.055538 
L 349.241115 251.280127 
L 351.280402 163.219417 
L 353.319689 163.694347 
L 355.358977 171.034798 
L 357.398264 167.205661 
L 359.437551 172.127092 
L 361.476839 166.494951 
L 363.516126 166.340716 
L 365.555413 171.007518 
L 367.594701 167.623082 
L 369.633988 170.007683 
L 371.673275 165.675806 
L 373.712563 172.040937 
L 375.75185 176.534433 
L 377.791138 174.492937 
L 379.830425 166.99448 
L 381.869712 178.873323 
L 383.909 170.766075 
L 385.948287 170.643626 
L 387.987574 169.254873 
L 390.026862 172.386338 
L 392.066149 171.407044 
L 394.105436 171.787693 
L 396.144724 246.049006 
L 398.184011 165.119493 
L 400.223298 172.117346 
L 402.262586 170.253199 
L 404.301873 171.289423 
L 406.34116 168.016864 
L 408.380448 172.449966 
L 410.419735 168.108763 
L 412.459022 172.697017 
L 414.49831 166.774757 
L 416.537597 167.999927 
L 418.576884 161.717202 
L 420.616172 168.27235 
L 422.655459 167.920852 
L 424.694746 170.942218 
L 426.734034 168.089594 
L 428.773321 173.139737 
L 430.812608 175.745503 
L 432.851896 172.573453 
L 434.891183 174.456977 
L 436.930471 178.757649 
L 438.969758 171.953519 
L 441.009045 178.49768 
L 443.048333 171.325252 
L 445.08762 174.284969 
L 447.126907 175.671001 
L 449.166195 164.808368 
L 451.205482 170.31865 
L 453.244769 174.376074 
L 455.284057 178.791424 
L 457.323344 181.219083 
L 459.362631 173.849424 
L 461.401919 173.34879 
L 463.441206 177.390078 
L 465.480493 174.972457 
L 467.519781 175.848525 
L 469.559068 175.769736 
L 471.598355 170.541668 
L 473.637643 176.538607 
L 475.67693 178.344938 
L 477.716217 178.965803 
L 479.755505 174.853101 
L 481.794792 177.050033 
L 483.834079 171.689494 
L 485.873367 174.413167 
L 487.912654 178.233226 
L 489.951942 173.25234 
L 491.991229 169.155271 
L 494.030516 169.740101 
L 496.069804 175.27431 
L 498.109091 176.535256 
L 498.109091 176.535256 
" clip-path="url(#paac51f1f0a)" style="fill: none; stroke: #ff0000; stroke-opacity: 0.9; stroke-width: 1.5; stroke-linecap: square"/>
   </g>
   <g id="line2d_36">
    <path d="M 92.290909 176.522084 
L 94.330196 171.347484 
L 96.369484 164.860251 
L 98.408771 163.699104 
L 100.448058 169.718116 
L 102.487346 166.146262 
L 104.526633 168.498465 
L 106.565921 163.163071 
L 108.605208 166.192987 
L 110.644495 177.287663 
L 112.683783 247.129798 
L 114.72307 162.378739 
L 116.762357 163.13817 
L 118.801645 171.429449 
L 120.840932 162.453219 
L 122.880219 168.298846 
L 124.919507 166.53257 
L 126.958794 180.587105 
L 128.998081 164.37225 
L 131.037369 168.24887 
L 133.076656 174.485844 
L 135.115943 168.242534 
L 137.155231 166.859601 
L 139.194518 167.287666 
L 141.233805 168.374401 
L 143.273093 165.577913 
L 145.31238 161.61668 
L 147.351667 161.624118 
L 149.390955 164.433331 
L 151.430242 163.679873 
L 153.469529 164.511573 
L 155.508817 168.324915 
L 157.548104 164.239065 
L 159.587392 165.512266 
L 161.626679 169.215523 
L 163.665966 168.246779 
L 165.705254 248.667532 
L 167.744541 163.429394 
L 169.783828 169.034005 
L 171.823116 166.600451 
L 173.862403 166.849778 
L 175.90169 172.293088 
L 177.940978 170.862845 
L 179.980265 185.82374 
L 182.019552 170.036671 
L 184.05884 172.467636 
L 186.098127 188.600791 
L 188.137414 174.183469 
L 190.176702 173.994861 
L 192.215989 197.908531 
L 194.255276 194.851228 
L 196.294564 189.489088 
L 198.333851 186.819137 
L 200.373138 171.70948 
L 202.412426 165.924963 
L 204.451713 168.532215 
L 206.491 166.469033 
L 208.530288 175.493918 
L 210.569575 166.168365 
L 212.608862 163.535045 
L 214.64815 168.694749 
L 216.687437 162.08021 
L 218.726725 168.099709 
L 220.766012 166.061466 
L 222.805299 170.140997 
L 224.844587 163.996539 
L 226.883874 176.958355 
L 228.923161 186.815571 
L 230.962449 166.423259 
L 233.001736 171.589215 
L 235.041023 166.59354 
L 237.080311 166.256486 
L 239.119598 168.717865 
L 241.158885 165.615406 
L 243.198173 170.670998 
L 245.23746 163.733273 
L 247.276747 164.489905 
L 249.316035 165.727464 
L 251.355322 170.663373 
L 253.394609 165.598738 
L 255.433897 163.662939 
L 257.473184 170.94403 
L 259.512471 164.798681 
L 261.551759 162.711596 
L 265.630333 167.932631 
L 267.669621 163.934538 
L 269.708908 166.226721 
L 271.748196 164.92001 
L 273.787483 166.464655 
L 275.82677 162.723761 
L 277.866058 249.832354 
L 279.905345 167.732757 
L 281.944632 166.1951 
L 283.98392 163.792166 
L 286.023207 170.853187 
L 288.062494 172.873632 
L 290.101782 169.615591 
L 292.141069 172.719212 
L 294.180356 167.011031 
L 296.219644 167.636668 
L 298.258931 175.807429 
L 302.337506 164.056994 
L 304.376793 171.049441 
L 306.41608 163.582241 
L 308.455368 168.356281 
L 310.494655 168.613031 
L 312.533942 164.558555 
L 314.57323 249.587862 
L 316.612517 160.101818 
L 318.651804 162.903023 
L 320.691092 162.86825 
L 322.730379 167.51883 
L 324.769667 164.506418 
L 326.808954 164.262254 
L 328.848241 167.047125 
L 330.887529 167.958563 
L 332.926816 164.720659 
L 334.966103 166.481011 
L 337.005391 161.471967 
L 339.044678 164.268723 
L 341.083965 162.075811 
L 343.123253 163.853048 
L 345.16254 165.94841 
L 347.201827 164.034615 
L 349.241115 249.875949 
L 351.280402 163.290881 
L 353.319689 164.896577 
L 355.358977 171.494691 
L 357.398264 167.320985 
L 359.437551 171.82047 
L 361.476839 166.468868 
L 363.516126 165.190092 
L 365.555413 170.820738 
L 367.594701 168.68568 
L 369.633988 170.30844 
L 371.673275 165.387531 
L 373.712563 172.327279 
L 375.75185 176.555506 
L 377.791138 174.727674 
L 379.830425 166.192733 
L 381.869712 178.622406 
L 383.909 171.808095 
L 385.948287 169.814117 
L 387.987574 169.180754 
L 390.026862 171.966505 
L 392.066149 172.975417 
L 394.105436 172.405654 
L 396.144724 247.818788 
L 398.184011 165.096539 
L 400.223298 170.930053 
L 402.262586 170.525766 
L 404.301873 170.392407 
L 406.34116 168.053378 
L 408.380448 172.553147 
L 410.419735 167.830536 
L 412.459022 172.308732 
L 414.49831 165.627402 
L 416.537597 166.835709 
L 418.576884 161.597162 
L 420.616172 168.595689 
L 422.655459 167.911069 
L 424.694746 170.82234 
L 426.734034 168.259581 
L 428.773321 171.922152 
L 430.812608 176.467093 
L 432.851896 171.907398 
L 434.891183 173.76925 
L 436.930471 179.150303 
L 438.969758 172.358406 
L 441.009045 179.400067 
L 443.048333 171.851598 
L 445.08762 174.804661 
L 447.126907 175.058043 
L 449.166195 164.163654 
L 451.205482 170.139804 
L 453.244769 173.883419 
L 455.284057 178.023304 
L 457.323344 180.409108 
L 459.362631 173.132679 
L 461.401919 173.554245 
L 463.441206 176.272695 
L 465.480493 174.727405 
L 467.519781 174.869042 
L 469.559068 175.337273 
L 471.598355 170.59153 
L 473.637643 176.105755 
L 475.67693 177.537253 
L 477.716217 179.20626 
L 479.755505 173.439916 
L 481.794792 176.342001 
L 483.834079 171.724097 
L 485.873367 175.434761 
L 487.912654 177.471231 
L 489.951942 172.972865 
L 491.991229 169.241459 
L 494.030516 168.741683 
L 496.069804 174.281808 
L 498.109091 176.890657 
L 498.109091 176.890657 
" clip-path="url(#paac51f1f0a)" style="fill: none; stroke: #ff0000; stroke-opacity: 0.9; stroke-width: 1.5; stroke-linecap: square"/>
   </g>
   <g id="line2d_37">
    <path d="M 92.290909 176.377481 
L 94.330196 169.558564 
L 96.369484 163.421776 
L 98.408771 163.60061 
L 100.448058 170.183981 
L 102.487346 168.208011 
L 104.526633 169.256294 
L 106.565921 162.557986 
L 108.605208 165.232788 
L 110.644495 176.025929 
L 112.683783 247.778499 
L 114.72307 161.731912 
L 116.762357 163.747978 
L 118.801645 169.830266 
L 120.840932 162.65268 
L 122.880219 168.09775 
L 124.919507 166.495301 
L 126.958794 180.614836 
L 128.998081 163.788687 
L 131.037369 167.414769 
L 133.076656 174.570517 
L 135.115943 167.494094 
L 137.155231 167.797557 
L 139.194518 166.273523 
L 141.233805 167.227311 
L 143.273093 166.272083 
L 145.31238 161.630329 
L 147.351667 161.373598 
L 149.390955 163.967374 
L 151.430242 162.494159 
L 153.469529 163.981483 
L 155.508817 167.925764 
L 157.548104 164.472279 
L 159.587392 165.159866 
L 161.626679 168.680264 
L 163.665966 170.16542 
L 165.705254 248.983503 
L 167.744541 163.329324 
L 169.783828 167.780855 
L 171.823116 168.117335 
L 173.862403 167.041886 
L 175.90169 172.64618 
L 177.940978 171.226236 
L 179.980265 185.145436 
L 182.019552 169.665224 
L 184.05884 173.371887 
L 186.098127 187.645108 
L 188.137414 173.662557 
L 190.176702 174.577756 
L 192.215989 198.445247 
L 194.255276 192.894005 
L 196.294564 189.518111 
L 198.333851 188.733199 
L 200.373138 172.314134 
L 202.412426 165.606949 
L 204.451713 168.371529 
L 206.491 167.472613 
L 208.530288 174.338065 
L 210.569575 166.258961 
L 212.608862 163.779666 
L 214.64815 170.020706 
L 216.687437 162.033711 
L 218.726725 167.628126 
L 220.766012 167.962573 
L 222.805299 170.927888 
L 224.844587 163.449313 
L 226.883874 178.824689 
L 228.923161 187.265246 
L 230.962449 167.064703 
L 233.001736 171.599808 
L 235.041023 165.936326 
L 237.080311 166.241537 
L 239.119598 169.036232 
L 241.158885 165.874976 
L 243.198173 171.564483 
L 245.23746 162.799636 
L 247.276747 164.596318 
L 249.316035 164.644556 
L 251.355322 169.812051 
L 253.394609 165.697379 
L 255.433897 163.209755 
L 257.473184 169.318682 
L 259.512471 164.188684 
L 261.551759 162.064319 
L 263.591046 165.36904 
L 265.630333 169.029557 
L 267.669621 163.568095 
L 269.708908 164.741805 
L 271.748196 164.535149 
L 273.787483 166.03581 
L 275.82677 162.994502 
L 277.866058 249.750765 
L 279.905345 167.801938 
L 281.944632 165.088167 
L 283.98392 163.694313 
L 286.023207 169.939518 
L 288.062494 172.214657 
L 290.101782 169.595874 
L 292.141069 172.10799 
L 294.180356 166.799828 
L 296.219644 168.039339 
L 298.258931 174.121243 
L 300.298218 170.838224 
L 302.337506 164.594484 
L 304.376793 170.977786 
L 306.41608 166.029348 
L 310.494655 168.357566 
L 312.533942 165.191262 
L 314.57323 249.639793 
L 316.612517 162.167065 
L 318.651804 162.147311 
L 320.691092 163.323617 
L 322.730379 166.519337 
L 324.769667 165.425714 
L 326.808954 164.144559 
L 328.848241 167.611045 
L 330.887529 167.28735 
L 332.926816 165.148404 
L 334.966103 165.200629 
L 337.005391 161.498816 
L 339.044678 163.926865 
L 341.083965 162.763961 
L 343.123253 163.608817 
L 345.16254 164.825659 
L 347.201827 163.124591 
L 349.241115 250.713169 
L 351.280402 164.672344 
L 353.319689 165.57764 
L 355.358977 172.000741 
L 357.398264 168.471057 
L 359.437551 171.613358 
L 361.476839 167.332852 
L 363.516126 166.922983 
L 365.555413 171.179305 
L 367.594701 168.025159 
L 369.633988 171.058554 
L 371.673275 166.117145 
L 373.712563 171.17583 
L 375.75185 177.467766 
L 377.791138 174.70394 
L 379.830425 167.110923 
L 381.869712 179.170771 
L 383.909 171.23156 
L 385.948287 170.262838 
L 387.987574 169.564764 
L 390.026862 173.146302 
L 394.105436 171.7589 
L 396.144724 249.050449 
L 398.184011 164.571641 
L 400.223298 170.780623 
L 402.262586 171.823552 
L 404.301873 170.945002 
L 406.34116 169.107398 
L 408.380448 173.50132 
L 410.419735 166.293586 
L 412.459022 171.656673 
L 414.49831 165.236404 
L 416.537597 167.526234 
L 418.576884 161.95616 
L 420.616172 168.353295 
L 422.655459 168.121385 
L 424.694746 172.792782 
L 426.734034 167.699347 
L 428.773321 172.266747 
L 430.812608 175.54891 
L 432.851896 172.127597 
L 434.891183 174.581143 
L 436.930471 179.367913 
L 438.969758 170.395489 
L 441.009045 178.207785 
L 443.048333 172.10401 
L 445.08762 174.216198 
L 447.126907 176.498475 
L 449.166195 163.521175 
L 451.205482 170.102226 
L 455.284057 179.065558 
L 457.323344 179.725827 
L 459.362631 173.26093 
L 461.401919 174.047753 
L 463.441206 175.789278 
L 465.480493 175.012861 
L 467.519781 175.526577 
L 469.559068 176.200379 
L 471.598355 170.676201 
L 473.637643 176.188847 
L 475.67693 178.284238 
L 477.716217 179.36936 
L 479.755505 173.207401 
L 481.794792 176.618702 
L 483.834079 170.879639 
L 485.873367 175.264861 
L 487.912654 178.160709 
L 489.951942 172.682323 
L 491.991229 169.509531 
L 494.030516 169.768541 
L 496.069804 174.517526 
L 498.109091 176.147303 
L 498.109091 176.147303 
" clip-path="url(#paac51f1f0a)" style="fill: none; stroke: #ff0000; stroke-opacity: 0.9; stroke-width: 1.5; stroke-linecap: square"/>
   </g>
   <g id="line2d_38">
    <path d="M 92.290909 177.016501 
L 96.369484 165.286067 
L 98.408771 163.659327 
L 100.448058 170.930064 
L 102.487346 166.741556 
L 104.526633 168.327853 
L 106.565921 163.577049 
L 108.605208 165.868006 
L 110.644495 177.33401 
L 112.683783 247.219068 
L 114.72307 162.423822 
L 116.762357 164.545297 
L 118.801645 170.794714 
L 120.840932 160.969334 
L 122.880219 167.9109 
L 124.919507 166.718842 
L 126.958794 181.180151 
L 128.998081 163.470857 
L 131.037369 168.001882 
L 133.076656 173.52733 
L 135.115943 168.249695 
L 137.155231 165.850344 
L 139.194518 164.872659 
L 141.233805 167.239933 
L 143.273093 165.273128 
L 145.31238 161.261058 
L 147.351667 162.658074 
L 149.390955 164.448169 
L 151.430242 162.994833 
L 153.469529 163.770619 
L 155.508817 169.42268 
L 157.548104 163.780535 
L 159.587392 165.674425 
L 161.626679 168.39397 
L 163.665966 169.038018 
L 165.705254 249.11178 
L 167.744541 163.089531 
L 169.783828 168.649221 
L 171.823116 167.215809 
L 173.862403 167.279393 
L 175.90169 172.635097 
L 177.940978 172.102541 
L 179.980265 185.547585 
L 182.019552 169.592696 
L 184.05884 173.682068 
L 186.098127 187.972414 
L 188.137414 173.193557 
L 190.176702 174.70021 
L 192.215989 196.78438 
L 194.255276 193.863847 
L 196.294564 189.423974 
L 198.333851 187.410781 
L 200.373138 172.825913 
L 202.412426 165.394755 
L 204.451713 169.119327 
L 206.491 167.372673 
L 208.530288 176.106839 
L 210.569575 165.540434 
L 212.608862 164.436541 
L 214.64815 168.564966 
L 216.687437 163.113349 
L 218.726725 168.178474 
L 220.766012 166.889455 
L 222.805299 170.189537 
L 224.844587 163.318175 
L 226.883874 178.371314 
L 228.923161 186.506628 
L 230.962449 166.888431 
L 233.001736 170.96931 
L 235.041023 165.741843 
L 237.080311 167.174478 
L 239.119598 169.779789 
L 241.158885 164.813961 
L 243.198173 171.370917 
L 245.23746 162.454147 
L 247.276747 164.899247 
L 249.316035 165.566591 
L 251.355322 169.825133 
L 253.394609 166.966854 
L 255.433897 163.750615 
L 257.473184 169.862697 
L 259.512471 164.623274 
L 261.551759 162.821426 
L 263.591046 165.660507 
L 265.630333 169.03779 
L 267.669621 164.16653 
L 269.708908 164.827577 
L 271.748196 166.311109 
L 273.787483 166.164087 
L 275.82677 163.771551 
L 277.866058 250.597624 
L 279.905345 168.614905 
L 281.944632 164.78072 
L 283.98392 162.690155 
L 286.023207 169.831621 
L 288.062494 172.596639 
L 290.101782 169.267778 
L 292.141069 172.312238 
L 294.180356 167.636812 
L 296.219644 167.502496 
L 298.258931 175.320766 
L 302.337506 164.943335 
L 304.376793 170.115319 
L 306.41608 164.548032 
L 308.455368 168.519744 
L 310.494655 167.706891 
L 312.533942 163.658598 
L 314.57323 250.480905 
L 316.612517 161.358112 
L 318.651804 163.669504 
L 320.691092 163.074792 
L 322.730379 166.117322 
L 324.769667 165.239342 
L 326.808954 165.020528 
L 328.848241 168.562061 
L 330.887529 167.419898 
L 332.926816 164.403588 
L 334.966103 165.449731 
L 337.005391 161.472313 
L 339.044678 163.89545 
L 341.083965 162.847248 
L 343.123253 163.486339 
L 345.16254 165.98762 
L 347.201827 163.749735 
L 349.241115 251.619658 
L 351.280402 162.2554 
L 353.319689 163.865994 
L 355.358977 171.026219 
L 357.398264 168.16178 
L 359.437551 171.608556 
L 361.476839 167.323805 
L 363.516126 167.194468 
L 365.555413 171.342256 
L 367.594701 167.428308 
L 369.633988 170.678882 
L 371.673275 165.860753 
L 373.712563 172.821193 
L 375.75185 175.836531 
L 377.791138 173.855856 
L 379.830425 165.401884 
L 381.869712 178.705508 
L 383.909 171.427907 
L 385.948287 170.291049 
L 387.987574 169.50899 
L 390.026862 172.729769 
L 392.066149 171.976535 
L 394.105436 172.045094 
L 396.144724 249.492458 
L 398.184011 164.803732 
L 400.223298 170.765883 
L 402.262586 171.318235 
L 404.301873 171.986377 
L 406.34116 168.751735 
L 408.380448 172.656018 
L 410.419735 166.790022 
L 412.459022 172.147553 
L 414.49831 165.406365 
L 416.537597 168.368572 
L 418.576884 161.275433 
L 420.616172 168.410167 
L 422.655459 167.67632 
L 424.694746 171.672807 
L 426.734034 167.165038 
L 428.773321 172.52885 
L 430.812608 176.333516 
L 432.851896 172.063567 
L 434.891183 173.516129 
L 436.930471 179.317311 
L 438.969758 171.998064 
L 441.009045 178.536926 
L 443.048333 172.570051 
L 445.08762 174.570578 
L 447.126907 174.339862 
L 449.166195 164.709753 
L 451.205482 170.384705 
L 453.244769 173.13516 
L 455.284057 178.441971 
L 457.323344 180.331508 
L 459.362631 174.999945 
L 461.401919 174.163214 
L 463.441206 177.013156 
L 465.480493 175.866215 
L 467.519781 176.301315 
L 469.559068 175.035886 
L 471.598355 171.139128 
L 473.637643 175.527809 
L 475.67693 178.246995 
L 477.716217 179.353606 
L 479.755505 173.740309 
L 481.794792 176.805532 
L 483.834079 171.004366 
L 487.912654 179.121337 
L 489.951942 172.74942 
L 491.991229 170.501048 
L 494.030516 169.563792 
L 496.069804 175.000007 
L 498.109091 176.849949 
L 498.109091 176.849949 
" clip-path="url(#paac51f1f0a)" style="fill: none; stroke: #ff0000; stroke-opacity: 0.9; stroke-width: 1.5; stroke-linecap: square"/>
   </g>
   <g id="line2d_39">
    <path d="M 92.290909 177.035419 
L 96.369484 163.397776 
L 98.408771 163.45776 
L 100.448058 171.04953 
L 102.487346 166.153265 
L 104.526633 169.962442 
L 106.565921 163.303488 
L 108.605208 165.236271 
L 110.644495 175.70788 
L 112.683783 247.560223 
L 114.72307 162.467866 
L 116.762357 162.688362 
L 118.801645 170.210101 
L 120.840932 162.22059 
L 122.880219 168.286412 
L 124.919507 167.112179 
L 126.958794 180.056934 
L 128.998081 163.853928 
L 131.037369 168.232647 
L 133.076656 174.565093 
L 135.115943 167.706438 
L 137.155231 165.320928 
L 139.194518 166.017532 
L 141.233805 169.488624 
L 143.273093 164.055444 
L 145.31238 162.305851 
L 147.351667 161.239518 
L 149.390955 164.646375 
L 151.430242 163.414607 
L 153.469529 165.859453 
L 155.508817 168.125509 
L 157.548104 165.453811 
L 161.626679 167.75869 
L 163.665966 168.411117 
L 165.705254 249.277857 
L 167.744541 162.870853 
L 169.783828 168.153521 
L 171.823116 167.242404 
L 173.862403 167.079799 
L 175.90169 173.5317 
L 177.940978 170.703823 
L 179.980265 184.938898 
L 182.019552 169.978967 
L 184.05884 172.509383 
L 186.098127 188.781791 
L 188.137414 173.661342 
L 190.176702 174.614224 
L 192.215989 197.669526 
L 194.255276 192.868287 
L 196.294564 190.304857 
L 198.333851 188.458581 
L 200.373138 172.857317 
L 202.412426 165.396541 
L 204.451713 167.678194 
L 206.491 167.061702 
L 208.530288 174.863013 
L 210.569575 166.002001 
L 212.608862 164.64442 
L 214.64815 169.14019 
L 216.687437 163.138726 
L 218.726725 167.128166 
L 220.766012 167.071404 
L 222.805299 170.030725 
L 224.844587 163.853022 
L 226.883874 178.19844 
L 228.923161 185.430004 
L 230.962449 167.81192 
L 233.001736 171.226406 
L 235.041023 166.321065 
L 237.080311 167.046831 
L 239.119598 169.152933 
L 241.158885 165.168482 
L 243.198173 171.648212 
L 245.23746 162.569441 
L 247.276747 164.366064 
L 249.316035 164.697356 
L 251.355322 169.691094 
L 253.394609 166.457148 
L 255.433897 163.929147 
L 257.473184 170.904345 
L 259.512471 164.372243 
L 261.551759 161.979199 
L 263.591046 164.535985 
L 265.630333 168.402656 
L 267.669621 163.839973 
L 269.708908 165.754203 
L 271.748196 165.27568 
L 273.787483 167.645262 
L 275.82677 163.811073 
L 277.866058 251.290149 
L 279.905345 168.857541 
L 281.944632 164.912671 
L 283.98392 163.85416 
L 286.023207 171.031934 
L 288.062494 170.932851 
L 290.101782 169.876269 
L 292.141069 171.684244 
L 294.180356 167.497629 
L 296.219644 167.712072 
L 298.258931 174.142286 
L 300.298218 169.024803 
L 302.337506 165.041829 
L 304.376793 170.953883 
L 306.41608 163.694387 
L 308.455368 168.495582 
L 310.494655 168.528893 
L 312.533942 163.717109 
L 314.57323 249.691698 
L 316.612517 160.594782 
L 318.651804 163.125294 
L 320.691092 162.31535 
L 322.730379 165.518887 
L 324.769667 166.004181 
L 326.808954 164.074811 
L 328.848241 167.193371 
L 330.887529 168.367685 
L 332.926816 163.571324 
L 334.966103 165.383109 
L 337.005391 161.56085 
L 339.044678 163.039868 
L 341.083965 164.37028 
L 343.123253 164.615387 
L 345.16254 165.808627 
L 347.201827 164.075812 
L 349.241115 251.738182 
L 351.280402 163.41703 
L 353.319689 164.766507 
L 355.358977 170.454265 
L 357.398264 168.299892 
L 359.437551 170.656845 
L 361.476839 166.240628 
L 363.516126 167.569196 
L 365.555413 170.401914 
L 367.594701 168.27031 
L 369.633988 170.351305 
L 371.673275 165.356963 
L 373.712563 173.452368 
L 375.75185 176.201732 
L 377.791138 174.2234 
L 379.830425 166.497421 
L 381.869712 178.89844 
L 383.909 170.447715 
L 385.948287 170.50807 
L 387.987574 168.199038 
L 390.026862 172.652594 
L 392.066149 172.273643 
L 394.105436 172.644343 
L 396.144724 249.298233 
L 398.184011 164.976731 
L 400.223298 172.553773 
L 402.262586 170.389624 
L 404.301873 170.849675 
L 406.34116 167.591299 
L 408.380448 172.912123 
L 410.419735 166.194169 
L 412.459022 172.74925 
L 414.49831 165.412385 
L 416.537597 167.069979 
L 418.576884 160.522682 
L 420.616172 169.06909 
L 422.655459 168.037682 
L 424.694746 172.189012 
L 426.734034 167.652354 
L 428.773321 171.926869 
L 430.812608 175.676594 
L 432.851896 173.1523 
L 434.891183 173.884522 
L 436.930471 177.57932 
L 438.969758 171.640207 
L 441.009045 178.706512 
L 443.048333 171.860225 
L 445.08762 174.781963 
L 447.126907 174.68432 
L 449.166195 163.730305 
L 451.205482 169.4481 
L 453.244769 174.472324 
L 455.284057 178.079147 
L 457.323344 181.08346 
L 459.362631 173.683172 
L 461.401919 173.914853 
L 463.441206 176.751333 
L 465.480493 175.393305 
L 467.519781 175.125891 
L 469.559068 176.221976 
L 471.598355 170.908395 
L 473.637643 176.081049 
L 475.67693 178.312857 
L 477.716217 181.069369 
L 479.755505 174.000781 
L 481.794792 177.818208 
L 483.834079 171.405358 
L 485.873367 174.093369 
L 487.912654 178.6208 
L 489.951942 173.143021 
L 491.991229 169.579264 
L 494.030516 169.603746 
L 496.069804 173.86686 
L 498.109091 176.330199 
L 498.109091 176.330199 
" clip-path="url(#paac51f1f0a)" style="fill: none; stroke: #ff0000; stroke-opacity: 0.9; stroke-width: 1.5; stroke-linecap: square"/>
   </g>
   <g id="line2d_40">
    <path d="M 92.290909 170.899426 
L 94.330196 169.187971 
L 96.369484 165.892874 
L 98.408771 163.864933 
L 100.448058 167.085643 
L 102.487346 165.238304 
L 104.526633 167.797108 
L 106.565921 163.725029 
L 108.605208 164.760119 
L 110.644495 174.576984 
L 112.683783 246.579078 
L 114.72307 162.146855 
L 116.762357 163.339082 
L 118.801645 169.643349 
L 120.840932 161.347294 
L 122.880219 167.899474 
L 124.919507 165.866099 
L 126.958794 180.124596 
L 128.998081 163.410395 
L 131.037369 166.250665 
L 133.076656 173.488308 
L 135.115943 167.243685 
L 139.194518 165.879181 
L 141.233805 167.464686 
L 143.273093 164.87133 
L 145.31238 161.879571 
L 147.351667 161.954621 
L 149.390955 164.501135 
L 151.430242 162.916657 
L 153.469529 163.760085 
L 155.508817 167.792096 
L 157.548104 164.194178 
L 159.587392 165.510863 
L 161.626679 168.555551 
L 163.665966 167.956159 
L 165.705254 246.752319 
L 167.744541 163.890855 
L 169.783828 167.913831 
L 171.823116 166.41127 
L 173.862403 166.818035 
L 175.90169 171.963269 
L 177.940978 171.083651 
L 179.980265 183.46305 
L 182.019552 169.047352 
L 184.05884 172.899373 
L 186.098127 188.372329 
L 188.137414 172.220221 
L 190.176702 174.301396 
L 192.215989 195.554781 
L 198.333851 186.851117 
L 200.373138 172.619154 
L 202.412426 164.896073 
L 204.451713 166.907095 
L 206.491 167.096339 
L 208.530288 173.457342 
L 210.569575 166.252215 
L 212.608862 163.71135 
L 214.64815 167.415686 
L 216.687437 161.310529 
L 218.726725 165.946661 
L 220.766012 166.691698 
L 222.805299 170.016858 
L 224.844587 162.818981 
L 226.883874 177.341606 
L 228.923161 186.181931 
L 230.962449 165.89909 
L 233.001736 170.473364 
L 235.041023 167.221302 
L 237.080311 166.278409 
L 239.119598 168.436365 
L 241.158885 165.654697 
L 243.198173 170.668517 
L 245.23746 162.153361 
L 247.276747 164.086571 
L 249.316035 165.245333 
L 251.355322 169.253286 
L 253.394609 165.631176 
L 255.433897 163.133726 
L 257.473184 169.229728 
L 259.512471 163.779419 
L 261.551759 162.543465 
L 263.591046 164.567506 
L 265.630333 167.868903 
L 267.669621 163.915031 
L 269.708908 164.981735 
L 271.748196 164.937893 
L 273.787483 166.646874 
L 275.82677 162.618979 
L 277.866058 247.307671 
L 279.905345 169.09468 
L 281.944632 164.549505 
L 283.98392 162.924842 
L 286.023207 170.07506 
L 288.062494 170.889241 
L 290.101782 169.149789 
L 292.141069 171.196423 
L 294.180356 166.6135 
L 296.219644 167.956089 
L 298.258931 174.6258 
L 300.298218 168.541269 
L 302.337506 166.142727 
L 304.376793 170.683285 
L 306.41608 163.771584 
L 308.455368 167.18759 
L 310.494655 166.867768 
L 312.533942 163.314475 
L 314.57323 247.113851 
L 316.612517 161.651431 
L 318.651804 162.374354 
L 320.691092 162.808819 
L 322.730379 164.823162 
L 324.769667 164.489463 
L 326.808954 164.629901 
L 328.848241 165.83605 
L 330.887529 166.542427 
L 332.926816 164.283429 
L 334.966103 165.915798 
L 337.005391 161.613278 
L 339.044678 163.044632 
L 341.083965 162.35942 
L 343.123253 163.236188 
L 345.16254 164.649596 
L 347.201827 163.872161 
L 349.241115 247.777406 
L 351.280402 164.334778 
L 353.319689 162.621258 
L 355.358977 170.497738 
L 357.398264 167.691983 
L 359.437551 172.287115 
L 361.476839 168.143282 
L 363.516126 167.3102 
L 365.555413 170.169996 
L 367.594701 167.336633 
L 369.633988 170.053572 
L 371.673275 165.338436 
L 373.712563 171.298562 
L 375.75185 176.277014 
L 377.791138 174.180161 
L 379.830425 165.984033 
L 381.869712 177.83687 
L 383.909 171.699126 
L 385.948287 169.787371 
L 387.987574 168.038521 
L 390.026862 171.326725 
L 394.105436 172.805592 
L 396.144724 247.352415 
L 398.184011 166.194102 
L 400.223298 170.459917 
L 402.262586 171.271326 
L 404.301873 170.906451 
L 406.34116 168.009165 
L 408.380448 172.733013 
L 410.419735 166.845992 
L 412.459022 171.025225 
L 414.49831 165.425861 
L 416.537597 166.325778 
L 418.576884 161.45331 
L 420.616172 168.689491 
L 422.655459 167.455021 
L 424.694746 171.358924 
L 426.734034 167.764231 
L 428.773321 171.886809 
L 430.812608 175.046251 
L 432.851896 172.061125 
L 434.891183 173.6333 
L 436.930471 178.010741 
L 438.969758 171.302137 
L 441.009045 177.931241 
L 443.048333 172.126514 
L 445.08762 174.226221 
L 447.126907 175.513994 
L 449.166195 163.941696 
L 451.205482 169.2277 
L 453.244769 172.577323 
L 455.284057 178.171576 
L 457.323344 179.344048 
L 459.362631 174.529052 
L 461.401919 173.211624 
L 463.441206 175.964589 
L 465.480493 175.154458 
L 467.519781 175.744354 
L 469.559068 175.778641 
L 471.598355 169.518375 
L 473.637643 174.856969 
L 475.67693 178.05621 
L 477.716217 178.317319 
L 479.755505 173.484924 
L 481.794792 176.484699 
L 483.834079 170.413406 
L 487.912654 177.418128 
L 489.951942 172.382236 
L 491.991229 169.173836 
L 494.030516 168.416791 
L 496.069804 174.316052 
L 498.109091 175.785729 
L 498.109091 175.785729 
" clip-path="url(#paac51f1f0a)" style="fill: none; stroke: #008000; stroke-opacity: 0.9; stroke-width: 1.5; stroke-linecap: square"/>
   </g>
   <g id="line2d_41">
    <path d="M 438.969758 256.32 
L 438.969758 155.52 
" clip-path="url(#paac51f1f0a)" style="fill: none; stroke-dasharray: 5.55,2.4; stroke-dashoffset: 0; stroke: #0000ff; stroke-width: 1.5"/>
   </g>
   <g id="line2d_42">
    <path d="M 153.469529 256.32 
L 153.469529 155.52 
" clip-path="url(#paac51f1f0a)" style="fill: none; stroke-dasharray: 5.55,2.4; stroke-dashoffset: 0; stroke: #000000; stroke-width: 1.5"/>
   </g>
   <g id="patch_8">
    <path d="M 72 256.32 
L 72 155.52 
" style="fill: none; stroke: #000000; stroke-width: 0.8; stroke-linejoin: miter; stroke-linecap: square"/>
   </g>
   <g id="patch_9">
    <path d="M 518.4 256.32 
L 518.4 155.52 
" style="fill: none; stroke: #000000; stroke-width: 0.8; stroke-linejoin: miter; stroke-linecap: square"/>
   </g>
   <g id="patch_10">
    <path d="M 72 256.32 
L 518.4 256.32 
" style="fill: none; stroke: #000000; stroke-width: 0.8; stroke-linejoin: miter; stroke-linecap: square"/>
   </g>
   <g id="patch_11">
    <path d="M 72 155.52 
L 518.4 155.52 
" style="fill: none; stroke: #000000; stroke-width: 0.8; stroke-linejoin: miter; stroke-linecap: square"/>
   </g>
  </g>
 </g>
 <defs>
  <clipPath id="p9b24c3e7ac">
   <rect x="72" y="34.56" width="446.4" height="100.8"/>
  </clipPath>
  <clipPath id="paac51f1f0a">
   <rect x="72" y="155.52" width="446.4" height="100.8"/>
  </clipPath>
 </defs>
</svg>
