<?xml version="1.0" encoding="utf-8" standalone="no"?>
<!DOCTYPE svg PUBLIC "-//W3C//DTD SVG 1.1//EN"
  "http://www.w3.org/Graphics/SVG/1.1/DTD/svg11.dtd">
<svg xmlns:xlink="http://www.w3.org/1999/xlink" width="576pt" height="288pt" viewBox="0 0 576 288" xmlns="http://www.w3.org/2000/svg" version="1.1">
 <metadata>
  <rdf:RDF xmlns:dc="http://purl.org/dc/elements/1.1/" xmlns:cc="http://creativecommons.org/ns#" xmlns:rdf="http://www.w3.org/1999/02/22-rdf-syntax-ns#">
   <cc:Work>
    <dc:type rdf:resource="http://purl.org/dc/dcmitype/StillImage"/>
    <dc:date>2025-05-07T09:55:17.730993</dc:date>
    <dc:format>image/svg+xml</dc:format>
    <dc:creator>
     <cc:Agent>
      <dc:title>Matplotlib v3.10.0, https://matplotlib.org/</dc:title>
     </cc:Agent>
    </dc:creator>
   </cc:Work>
  </rdf:RDF>
 </metadata>
 <defs>
  <style type="text/css">*{stroke-linejoin: round; stroke-linecap: butt}</style>
 </defs>
 <g id="figure_1">
  <g id="patch_1">
   <path d="M 0 288 
L 576 288 
L 576 0 
L 0 0 
z
" style="fill: #ffffff"/>
  </g>
  <g id="axes_1">
   <g id="patch_2">
    <path d="M 72 135.36 
L 518.4 135.36 
L 518.4 34.56 
L 72 34.56 
z
" style="fill: #ffffff"/>
   </g>
   <g id="matplotlib.axis_1">
    <g id="xtick_1">
     <g id="line2d_1">
      <defs>
       <path id="mc722489e17" d="M 0 0 
L 0 3.5 
" style="stroke: #000000; stroke-width: 0.8"/>
      </defs>
      <g>
       <use xlink:href="#mc722489e17" x="92.290909" y="135.36" style="stroke: #000000; stroke-width: 0.8"/>
      </g>
     </g>
    </g>
    <g id="xtick_2">
     <g id="line2d_2">
      <g>
       <use xlink:href="#mc722489e17" x="143.273093" y="135.36" style="stroke: #000000; stroke-width: 0.8"/>
      </g>
     </g>
    </g>
    <g id="xtick_3">
     <g id="line2d_3">
      <g>
       <use xlink:href="#mc722489e17" x="194.255276" y="135.36" style="stroke: #000000; stroke-width: 0.8"/>
      </g>
     </g>
    </g>
    <g id="xtick_4">
     <g id="line2d_4">
      <g>
       <use xlink:href="#mc722489e17" x="245.23746" y="135.36" style="stroke: #000000; stroke-width: 0.8"/>
      </g>
     </g>
    </g>
    <g id="xtick_5">
     <g id="line2d_5">
      <g>
       <use xlink:href="#mc722489e17" x="296.219644" y="135.36" style="stroke: #000000; stroke-width: 0.8"/>
      </g>
     </g>
    </g>
    <g id="xtick_6">
     <g id="line2d_6">
      <g>
       <use xlink:href="#mc722489e17" x="347.201827" y="135.36" style="stroke: #000000; stroke-width: 0.8"/>
      </g>
     </g>
    </g>
    <g id="xtick_7">
     <g id="line2d_7">
      <g>
       <use xlink:href="#mc722489e17" x="398.184011" y="135.36" style="stroke: #000000; stroke-width: 0.8"/>
      </g>
     </g>
    </g>
    <g id="xtick_8">
     <g id="line2d_8">
      <g>
       <use xlink:href="#mc722489e17" x="449.166195" y="135.36" style="stroke: #000000; stroke-width: 0.8"/>
      </g>
     </g>
    </g>
    <g id="xtick_9">
     <g id="line2d_9">
      <g>
       <use xlink:href="#mc722489e17" x="500.148378" y="135.36" style="stroke: #000000; stroke-width: 0.8"/>
      </g>
     </g>
    </g>
   </g>
   <g id="matplotlib.axis_2">
    <g id="ytick_1">
     <g id="line2d_10">
      <defs>
       <path id="m01c9c80c14" d="M 0 0 
L -3.5 0 
" style="stroke: #000000; stroke-width: 0.8"/>
      </defs>
      <g>
       <use xlink:href="#m01c9c80c14" x="72" y="113.986201" style="stroke: #000000; stroke-width: 0.8"/>
      </g>
     </g>
     <g id="text_1">
      <!-- −150 -->
      <g transform="translate(37.532812 117.78542) scale(0.1 -0.1)">
       <defs>
        <path id="DejaVuSans-2212" d="M 678 2272 
L 4684 2272 
L 4684 1741 
L 678 1741 
L 678 2272 
z
" transform="scale(0.015625)"/>
        <path id="DejaVuSans-31" d="M 794 531 
L 1825 531 
L 1825 4091 
L 703 3866 
L 703 4441 
L 1819 4666 
L 2450 4666 
L 2450 531 
L 3481 531 
L 3481 0 
L 794 0 
L 794 531 
z
" transform="scale(0.015625)"/>
        <path id="DejaVuSans-35" d="M 691 4666 
L 3169 4666 
L 3169 4134 
L 1269 4134 
L 1269 2991 
Q 1406 3038 1543 3061 
Q 1681 3084 1819 3084 
Q 2600 3084 3056 2656 
Q 3513 2228 3513 1497 
Q 3513 744 3044 326 
Q 2575 -91 1722 -91 
Q 1428 -91 1123 -41 
Q 819 9 494 109 
L 494 744 
Q 775 591 1075 516 
Q 1375 441 1709 441 
Q 2250 441 2565 725 
Q 2881 1009 2881 1497 
Q 2881 1984 2565 2268 
Q 2250 2553 1709 2553 
Q 1456 2553 1204 2497 
Q 953 2441 691 2322 
L 691 4666 
z
" transform="scale(0.015625)"/>
        <path id="DejaVuSans-30" d="M 2034 4250 
Q 1547 4250 1301 3770 
Q 1056 3291 1056 2328 
Q 1056 1369 1301 889 
Q 1547 409 2034 409 
Q 2525 409 2770 889 
Q 3016 1369 3016 2328 
Q 3016 3291 2770 3770 
Q 2525 4250 2034 4250 
z
M 2034 4750 
Q 2819 4750 3233 4129 
Q 3647 3509 3647 2328 
Q 3647 1150 3233 529 
Q 2819 -91 2034 -91 
Q 1250 -91 836 529 
Q 422 1150 422 2328 
Q 422 3509 836 4129 
Q 1250 4750 2034 4750 
z
" transform="scale(0.015625)"/>
       </defs>
       <use xlink:href="#DejaVuSans-2212"/>
       <use xlink:href="#DejaVuSans-31" transform="translate(83.789062 0)"/>
       <use xlink:href="#DejaVuSans-35" transform="translate(147.412109 0)"/>
       <use xlink:href="#DejaVuSans-30" transform="translate(211.035156 0)"/>
      </g>
     </g>
    </g>
    <g id="ytick_2">
     <g id="line2d_11">
      <g>
       <use xlink:href="#m01c9c80c14" x="72" y="76.774082" style="stroke: #000000; stroke-width: 0.8"/>
      </g>
     </g>
     <g id="text_2">
      <!-- −100 -->
      <g transform="translate(37.532812 80.573301) scale(0.1 -0.1)">
       <use xlink:href="#DejaVuSans-2212"/>
       <use xlink:href="#DejaVuSans-31" transform="translate(83.789062 0)"/>
       <use xlink:href="#DejaVuSans-30" transform="translate(147.412109 0)"/>
       <use xlink:href="#DejaVuSans-30" transform="translate(211.035156 0)"/>
      </g>
     </g>
    </g>
    <g id="ytick_3">
     <g id="line2d_12">
      <g>
       <use xlink:href="#m01c9c80c14" x="72" y="39.561962" style="stroke: #000000; stroke-width: 0.8"/>
      </g>
     </g>
     <g id="text_3">
      <!-- −50 -->
      <g transform="translate(43.895313 43.361181) scale(0.1 -0.1)">
       <use xlink:href="#DejaVuSans-2212"/>
       <use xlink:href="#DejaVuSans-35" transform="translate(83.789062 0)"/>
       <use xlink:href="#DejaVuSans-30" transform="translate(147.412109 0)"/>
      </g>
     </g>
    </g>
   </g>
   <g id="line2d_13">
    <path d="M 92.290909 61.03504 
L 94.330196 103.270092 
L 96.369484 129.209238 
L 98.408771 101.99557 
L 100.448058 92.321986 
L 102.487346 105.833899 
L 104.526633 97.91549 
L 106.565921 68.533513 
L 108.605208 113.805751 
L 110.644495 47.665203 
L 112.683783 76.419534 
L 114.72307 122.020024 
L 116.762357 120.684326 
L 118.801645 106.699528 
L 120.840932 70.862166 
L 122.880219 114.86003 
L 124.919507 69.503177 
L 126.958794 67.977347 
L 128.998081 88.539303 
L 131.037369 65.36937 
L 133.076656 55.074123 
L 135.115943 53.780023 
L 137.155231 108.913461 
L 139.194518 104.092647 
L 141.233805 126.111688 
L 145.31238 118.356786 
L 147.351667 112.761477 
L 149.390955 113.57146 
L 151.430242 106.911617 
L 153.469529 103.223986 
L 155.508817 108.555319 
L 157.548104 123.290719 
L 159.587392 104.243572 
L 161.626679 116.604087 
L 163.665966 97.066963 
L 165.705254 90.876814 
L 167.744541 112.168056 
L 169.783828 49.95629 
L 171.823116 54.474252 
L 173.862403 73.309282 
L 175.90169 47.758562 
L 177.940978 44.297462 
L 179.980265 69.414933 
L 182.019552 66.587315 
L 184.05884 69.55575 
L 186.098127 63.283939 
L 188.137414 60.381171 
L 190.176702 66.444323 
L 194.255276 49.476747 
L 196.294564 67.535442 
L 198.333851 74.394978 
L 200.373138 95.412581 
L 202.412426 70.551982 
L 204.451713 52.38379 
L 206.491 48.347179 
L 208.530288 77.068577 
L 210.569575 56.438881 
L 212.608862 110.897861 
L 214.64815 105.384646 
L 216.687437 90.836477 
L 218.726725 87.618693 
L 220.766012 105.042449 
L 222.805299 120.367953 
L 224.844587 118.121519 
L 226.883874 66.756216 
L 228.923161 58.073141 
L 230.962449 79.664608 
L 233.001736 75.476336 
L 235.041023 40.42846 
L 237.080311 58.711202 
L 239.119598 51.344416 
L 241.158885 75.024279 
L 243.198173 51.380688 
L 245.23746 81.828573 
L 247.276747 52.26392 
L 249.316035 98.735319 
L 251.355322 73.374325 
L 253.394609 108.624888 
L 255.433897 91.76184 
L 257.473184 70.412777 
L 261.551759 59.868846 
L 263.591046 66.781847 
L 265.630333 71.057278 
L 267.669621 58.977046 
L 269.708908 49.749728 
L 271.748196 42.608185 
L 273.787483 59.072836 
L 275.82677 51.374806 
L 277.866058 67.248095 
L 279.905345 55.019136 
L 281.944632 77.657512 
L 283.98392 61.849595 
L 286.023207 59.32767 
L 288.062494 52.927124 
L 290.101782 68.312464 
L 292.141069 73.855313 
L 294.180356 52.033257 
L 296.219644 45.961844 
L 298.258931 77.809163 
L 300.298218 57.580439 
L 302.337506 61.563883 
L 304.376793 61.439652 
L 306.41608 43.581375 
L 308.455368 49.075114 
L 310.494655 52.374637 
L 312.533942 60.554672 
L 314.57323 70.33953 
L 316.612517 40.8955 
L 318.651804 57.27641 
L 320.691092 45.779795 
L 322.730379 42.704114 
L 324.769667 55.924342 
L 326.808954 63.18799 
L 328.848241 43.89255 
L 330.887529 45.725205 
L 332.926816 50.272921 
L 334.966103 43.952508 
L 337.005391 55.103479 
L 339.044678 47.435026 
L 341.083965 48.959334 
L 343.123253 55.031821 
L 345.16254 49.105239 
L 347.201827 54.135927 
L 349.241115 54.166992 
L 351.280402 43.227103 
L 353.319689 52.557115 
L 355.358977 54.8471 
L 357.398264 63.469125 
L 359.437551 80.663764 
L 361.476839 50.755862 
L 363.516126 59.437808 
L 365.555413 46.851327 
L 367.594701 67.097131 
L 369.633988 52.59258 
L 371.673275 60.562507 
L 373.712563 52.110786 
L 375.75185 68.070638 
L 377.791138 50.457693 
L 379.830425 89.778728 
L 381.869712 66.275586 
L 383.909 68.328118 
L 385.948287 100.83737 
L 387.987574 69.109127 
L 390.026862 78.589314 
L 392.066149 62.726382 
L 394.105436 63.579099 
L 396.144724 97.226848 
L 398.184011 82.32576 
L 400.223298 81.850155 
L 402.262586 56.956289 
L 404.301873 79.053472 
L 406.34116 70.695037 
L 408.380448 69.294875 
L 410.419735 50.602247 
L 412.459022 70.519952 
L 414.49831 107.466529 
L 416.537597 77.943803 
L 418.576884 112.233889 
L 420.616172 97.59161 
L 422.655459 80.738862 
L 424.694746 79.843258 
L 426.734034 61.409376 
L 428.773321 65.441374 
L 430.812608 63.31522 
L 432.851896 63.295852 
L 434.891183 65.305292 
L 436.930471 57.966653 
L 438.969758 57.209584 
L 441.009045 69.353167 
L 443.048333 45.27918 
L 445.08762 67.475004 
L 447.126907 67.936186 
L 449.166195 66.123339 
L 451.205482 56.968843 
L 453.244769 64.997107 
L 455.284057 62.299529 
L 457.323344 53.528914 
L 459.362631 54.562127 
L 461.401919 56.602883 
L 463.441206 62.167183 
L 465.480493 58.158806 
L 467.519781 63.249916 
L 469.559068 54.023733 
L 471.598355 65.45729 
L 473.637643 71.287372 
L 475.67693 69.178479 
L 477.716217 51.200351 
L 479.755505 65.152108 
L 481.794792 59.825107 
L 483.834079 63.957773 
L 485.873367 68.49476 
L 487.912654 64.860735 
L 489.951942 48.657868 
L 491.991229 52.229101 
L 494.030516 45.089704 
L 496.069804 62.32143 
L 498.109091 56.945171 
L 498.109091 56.945171 
" clip-path="url(#p03e4993bc4)" style="fill: none; stroke: #ff0000; stroke-opacity: 0.9; stroke-width: 1.5; stroke-linecap: square"/>
   </g>
   <g id="line2d_14">
    <path d="M 92.290909 58.359704 
L 94.330196 102.235528 
L 96.369484 126.836341 
L 98.408771 102.456009 
L 100.448058 91.501464 
L 102.487346 102.418795 
L 104.526633 94.730264 
L 106.565921 69.195059 
L 108.605208 111.485876 
L 110.644495 46.849796 
L 114.72307 118.167523 
L 116.762357 123.000238 
L 118.801645 107.814768 
L 120.840932 64.939758 
L 122.880219 114.937377 
L 124.919507 68.279883 
L 126.958794 62.621371 
L 128.998081 87.174817 
L 131.037369 62.369154 
L 133.076656 53.564924 
L 135.115943 53.464592 
L 137.155231 108.561168 
L 139.194518 104.101891 
L 141.233805 121.937112 
L 143.273093 118.945868 
L 145.31238 117.578543 
L 147.351667 115.765156 
L 149.390955 113.767196 
L 151.430242 105.413332 
L 153.469529 103.881898 
L 155.508817 110.382095 
L 157.548104 123.679943 
L 159.587392 105.584891 
L 161.626679 117.480118 
L 163.665966 98.382402 
L 165.705254 93.65627 
L 167.744541 109.978176 
L 169.783828 48.692278 
L 171.823116 56.728994 
L 173.862403 74.184309 
L 175.90169 46.554767 
L 177.940978 42.415245 
L 179.980265 69.105879 
L 182.019552 66.950351 
L 184.05884 67.417643 
L 186.098127 66.784158 
L 188.137414 56.122633 
L 190.176702 67.740206 
L 192.215989 60.827846 
L 194.255276 49.182578 
L 196.294564 69.63559 
L 198.333851 74.946721 
L 200.373138 95.363368 
L 202.412426 68.910358 
L 204.451713 55.028902 
L 206.491 42.830151 
L 208.530288 74.407879 
L 210.569575 57.317496 
L 212.608862 108.867582 
L 214.64815 106.574564 
L 216.687437 91.10315 
L 218.726725 91.512054 
L 220.766012 111.660762 
L 222.805299 122.203087 
L 224.844587 120.772178 
L 226.883874 68.829462 
L 228.923161 58.241468 
L 230.962449 82.516261 
L 233.001736 71.580551 
L 235.041023 39.892358 
L 237.080311 60.628266 
L 239.119598 51.126837 
L 241.158885 75.872533 
L 243.198173 46.08467 
L 245.23746 82.006156 
L 247.276747 51.133849 
L 249.316035 97.657737 
L 251.355322 75.322772 
L 253.394609 110.402763 
L 255.433897 91.778403 
L 257.473184 71.787978 
L 259.512471 67.218398 
L 261.551759 56.882916 
L 263.591046 65.249363 
L 265.630333 68.508881 
L 267.669621 57.73904 
L 269.708908 48.756239 
L 271.748196 43.934659 
L 273.787483 58.457964 
L 275.82677 47.340426 
L 277.866058 65.36468 
L 279.905345 57.208181 
L 281.944632 77.681366 
L 283.98392 63.938938 
L 286.023207 62.364265 
L 288.062494 53.330287 
L 290.101782 66.923386 
L 292.141069 75.090911 
L 294.180356 52.829307 
L 296.219644 46.445057 
L 298.258931 80.712028 
L 300.298218 54.622417 
L 302.337506 61.058764 
L 304.376793 59.513026 
L 306.41608 44.369506 
L 308.455368 46.20918 
L 310.494655 48.873938 
L 312.533942 56.887237 
L 314.57323 73.958995 
L 316.612517 39.966724 
L 318.651804 54.11414 
L 320.691092 45.326544 
L 322.730379 41.19828 
L 324.769667 57.532777 
L 326.808954 64.221464 
L 328.848241 48.224338 
L 330.887529 46.231872 
L 332.926816 51.615706 
L 334.966103 44.419848 
L 337.005391 56.660317 
L 339.044678 46.438329 
L 341.083965 50.142484 
L 343.123253 50.547186 
L 345.16254 48.355895 
L 347.201827 53.096587 
L 349.241115 54.473645 
L 351.280402 43.476009 
L 353.319689 53.021619 
L 355.358977 56.060361 
L 357.398264 65.442209 
L 359.437551 82.091231 
L 361.476839 50.336278 
L 363.516126 57.199522 
L 365.555413 43.219951 
L 367.594701 69.115702 
L 369.633988 54.650626 
L 371.673275 59.464132 
L 373.712563 53.231704 
L 375.75185 67.352056 
L 377.791138 50.47546 
L 379.830425 89.438933 
L 381.869712 64.725795 
L 383.909 67.537724 
L 385.948287 99.92551 
L 387.987574 68.201354 
L 390.026862 78.622321 
L 392.066149 60.576623 
L 394.105436 61.737747 
L 396.144724 98.711778 
L 398.184011 85.522144 
L 400.223298 83.925173 
L 402.262586 54.04464 
L 404.301873 80.649069 
L 406.34116 75.107645 
L 408.380448 66.008908 
L 410.419735 49.137391 
L 412.459022 70.599304 
L 414.49831 105.434171 
L 416.537597 81.341816 
L 418.576884 111.314442 
L 420.616172 94.62498 
L 422.655459 81.511643 
L 424.694746 79.460275 
L 426.734034 69.468921 
L 428.773321 62.549185 
L 430.812608 60.126178 
L 432.851896 58.587436 
L 434.891183 67.891732 
L 436.930471 59.701653 
L 438.969758 60.778548 
L 441.009045 69.543934 
L 443.048333 51.018674 
L 445.08762 61.194675 
L 447.126907 68.767735 
L 449.166195 63.194628 
L 451.205482 53.969604 
L 453.244769 60.382778 
L 455.284057 59.009769 
L 457.323344 53.664303 
L 459.362631 53.266244 
L 461.401919 61.035682 
L 463.441206 59.287815 
L 465.480493 62.497928 
L 467.519781 56.961098 
L 469.559068 54.992148 
L 471.598355 66.947382 
L 473.637643 69.047468 
L 475.67693 74.74701 
L 477.716217 49.380747 
L 479.755505 66.531511 
L 481.794792 60.723925 
L 483.834079 61.43185 
L 485.873367 66.369003 
L 487.912654 68.047529 
L 489.951942 46.838315 
L 491.991229 51.427192 
L 494.030516 47.309108 
L 496.069804 62.372169 
L 498.109091 56.227025 
L 498.109091 56.227025 
" clip-path="url(#p03e4993bc4)" style="fill: none; stroke: #ff0000; stroke-opacity: 0.9; stroke-width: 1.5; stroke-linecap: square"/>
   </g>
   <g id="line2d_15">
    <path d="M 92.290909 59.671662 
L 94.330196 103.532262 
L 96.369484 130.778182 
L 98.408771 101.023397 
L 100.448058 90.7961 
L 102.487346 103.221363 
L 104.526633 97.501016 
L 106.565921 65.591753 
L 108.605208 114.654278 
L 110.644495 42.753437 
L 112.683783 78.859337 
L 114.72307 120.383545 
L 116.762357 119.527557 
L 118.801645 107.877284 
L 120.840932 67.730837 
L 122.880219 115.746895 
L 124.919507 73.19777 
L 126.958794 65.983527 
L 128.998081 87.633075 
L 131.037369 62.021784 
L 133.076656 51.506884 
L 135.115943 51.662726 
L 137.155231 106.29059 
L 139.194518 103.578834 
L 141.233805 120.892815 
L 143.273093 119.227843 
L 145.31238 118.625815 
L 147.351667 117.827506 
L 149.390955 118.346713 
L 151.430242 107.435038 
L 153.469529 106.542778 
L 155.508817 111.880062 
L 157.548104 125.373782 
L 159.587392 107.673235 
L 161.626679 118.423595 
L 163.665966 95.633959 
L 165.705254 94.33258 
L 167.744541 109.779931 
L 169.783828 48.627201 
L 171.823116 52.676918 
L 173.862403 74.101721 
L 175.90169 47.428507 
L 177.940978 45.44842 
L 179.980265 72.079839 
L 182.019552 70.280841 
L 184.05884 70.830323 
L 186.098127 63.945116 
L 188.137414 55.553492 
L 190.176702 65.682314 
L 192.215989 59.713242 
L 194.255276 50.453911 
L 196.294564 74.262042 
L 198.333851 75.341129 
L 200.373138 91.990549 
L 202.412426 68.12282 
L 204.451713 54.150634 
L 206.491 42.783542 
L 208.530288 74.609236 
L 210.569575 58.118299 
L 212.608862 113.447166 
L 214.64815 104.837798 
L 216.687437 93.477046 
L 218.726725 89.097366 
L 220.766012 110.146078 
L 222.805299 117.479596 
L 224.844587 120.601017 
L 226.883874 66.364756 
L 228.923161 57.957023 
L 230.962449 76.245364 
L 233.001736 72.403259 
L 235.041023 41.657835 
L 237.080311 62.644554 
L 239.119598 49.159428 
L 241.158885 72.668756 
L 243.198173 49.824938 
L 245.23746 81.907998 
L 247.276747 48.442761 
L 249.316035 95.966674 
L 251.355322 74.25922 
L 253.394609 110.011144 
L 255.433897 93.228015 
L 257.473184 68.213432 
L 259.512471 64.164223 
L 261.551759 56.923952 
L 263.591046 67.867265 
L 265.630333 69.451046 
L 267.669621 58.944908 
L 269.708908 49.395144 
L 271.748196 41.664606 
L 273.787483 57.478358 
L 275.82677 50.293402 
L 277.866058 65.394053 
L 279.905345 57.422962 
L 281.944632 78.956506 
L 283.98392 62.517745 
L 286.023207 59.11432 
L 288.062494 54.660937 
L 290.101782 69.511961 
L 292.141069 73.988607 
L 294.180356 50.522696 
L 296.219644 42.742518 
L 298.258931 79.958394 
L 300.298218 55.558591 
L 302.337506 63.191323 
L 304.376793 60.116514 
L 306.41608 44.881042 
L 308.455368 46.310315 
L 310.494655 52.163604 
L 312.533942 56.461969 
L 314.57323 74.846082 
L 316.612517 39.674184 
L 318.651804 54.737144 
L 320.691092 45.168522 
L 322.730379 42.542208 
L 324.769667 55.060757 
L 326.808954 62.687873 
L 328.848241 47.219127 
L 330.887529 44.103197 
L 332.926816 51.594611 
L 334.966103 44.404744 
L 337.005391 55.286445 
L 339.044678 45.864663 
L 341.083965 47.358056 
L 343.123253 55.697586 
L 345.16254 49.001116 
L 347.201827 55.144259 
L 349.241115 55.088466 
L 351.280402 43.794264 
L 353.319689 54.373613 
L 355.358977 57.47176 
L 357.398264 61.650583 
L 359.437551 79.721321 
L 361.476839 49.601393 
L 363.516126 60.350833 
L 365.555413 46.324477 
L 367.594701 68.639103 
L 369.633988 52.648981 
L 371.673275 58.58056 
L 373.712563 56.888838 
L 375.75185 69.534446 
L 377.791138 49.78334 
L 379.830425 90.789496 
L 381.869712 65.391923 
L 383.909 68.779904 
L 385.948287 98.356237 
L 387.987574 73.604232 
L 390.026862 78.143553 
L 392.066149 64.149892 
L 394.105436 61.366784 
L 396.144724 98.613649 
L 398.184011 80.686425 
L 400.223298 81.775891 
L 402.262586 57.385418 
L 404.301873 81.621872 
L 406.34116 71.030636 
L 408.380448 66.011991 
L 410.419735 53.261946 
L 412.459022 68.008895 
L 414.49831 103.382246 
L 416.537597 78.927139 
L 418.576884 115.144629 
L 422.655459 82.107783 
L 424.694746 78.009958 
L 426.734034 64.227006 
L 428.773321 68.961853 
L 430.812608 65.375559 
L 432.851896 59.265057 
L 434.891183 65.065454 
L 436.930471 61.638517 
L 438.969758 62.313389 
L 441.009045 70.728657 
L 443.048333 43.112163 
L 445.08762 63.191675 
L 447.126907 68.694386 
L 449.166195 68.401741 
L 451.205482 53.507377 
L 453.244769 65.459482 
L 455.284057 60.334684 
L 457.323344 58.408167 
L 459.362631 51.365062 
L 461.401919 59.302436 
L 463.441206 60.034482 
L 465.480493 62.591328 
L 467.519781 60.242097 
L 469.559068 52.711054 
L 471.598355 71.607005 
L 473.637643 70.672415 
L 475.67693 72.097878 
L 477.716217 51.601045 
L 479.755505 63.02387 
L 481.794792 63.397842 
L 485.873367 66.338273 
L 487.912654 66.963144 
L 489.951942 46.458784 
L 491.991229 56.088905 
L 494.030516 41.753563 
L 496.069804 60.617755 
L 498.109091 57.378582 
L 498.109091 57.378582 
" clip-path="url(#p03e4993bc4)" style="fill: none; stroke: #ff0000; stroke-opacity: 0.9; stroke-width: 1.5; stroke-linecap: square"/>
   </g>
   <g id="line2d_16">
    <path d="M 92.290909 62.636701 
L 94.330196 102.01843 
L 96.369484 127.772015 
L 98.408771 102.093904 
L 100.448058 85.556934 
L 102.487346 105.106509 
L 104.526633 98.90723 
L 106.565921 67.381593 
L 108.605208 112.556565 
L 110.644495 46.492518 
L 112.683783 79.477355 
L 114.72307 123.336848 
L 116.762357 116.685397 
L 118.801645 111.065025 
L 120.840932 65.88546 
L 122.880219 112.239998 
L 124.919507 73.928237 
L 126.958794 68.493352 
L 128.998081 83.017406 
L 131.037369 66.429327 
L 133.076656 55.327004 
L 135.115943 52.657833 
L 137.155231 106.585273 
L 139.194518 108.766965 
L 141.233805 121.041446 
L 143.273093 118.360851 
L 145.31238 120.591398 
L 147.351667 110.796836 
L 149.390955 115.206554 
L 151.430242 113.014289 
L 153.469529 103.754617 
L 155.508817 108.915426 
L 157.548104 125.597228 
L 159.587392 106.542108 
L 161.626679 117.062186 
L 163.665966 99.276512 
L 165.705254 93.171047 
L 167.744541 110.628298 
L 169.783828 49.561436 
L 171.823116 55.398054 
L 173.862403 74.199526 
L 175.90169 46.272888 
L 177.940978 45.095178 
L 179.980265 66.54457 
L 182.019552 65.758821 
L 184.05884 67.820551 
L 186.098127 66.822548 
L 188.137414 56.357122 
L 190.176702 68.177932 
L 192.215989 59.329413 
L 194.255276 48.679917 
L 196.294564 67.117163 
L 198.333851 71.516127 
L 200.373138 95.971245 
L 202.412426 70.142414 
L 204.451713 53.35338 
L 206.491 45.465167 
L 208.530288 74.282779 
L 210.569575 55.707937 
L 212.608862 106.269365 
L 214.64815 109.64763 
L 216.687437 90.680857 
L 218.726725 92.46537 
L 220.766012 109.399076 
L 222.805299 118.236194 
L 224.844587 119.886653 
L 226.883874 68.519562 
L 228.923161 61.689938 
L 230.962449 75.227135 
L 233.001736 71.155912 
L 235.041023 42.778798 
L 237.080311 60.818102 
L 239.119598 56.430007 
L 241.158885 75.361008 
L 243.198173 49.750268 
L 245.23746 81.857656 
L 247.276747 49.855063 
L 249.316035 95.380687 
L 251.355322 72.753031 
L 253.394609 109.014531 
L 257.473184 67.526504 
L 259.512471 67.449611 
L 261.551759 55.762515 
L 263.591046 70.220346 
L 265.630333 68.51645 
L 267.669621 56.241896 
L 269.708908 48.449728 
L 271.748196 43.932211 
L 273.787483 62.872525 
L 275.82677 50.63648 
L 277.866058 66.771689 
L 279.905345 56.785837 
L 281.944632 78.564943 
L 283.98392 62.873854 
L 286.023207 62.108881 
L 288.062494 57.370019 
L 290.101782 67.095416 
L 292.141069 74.021341 
L 294.180356 55.801036 
L 296.219644 46.624517 
L 298.258931 79.94915 
L 300.298218 55.03173 
L 302.337506 65.30925 
L 304.376793 60.886995 
L 306.41608 45.885992 
L 308.455368 45.133423 
L 312.533942 56.58272 
L 314.57323 71.572817 
L 316.612517 39.141818 
L 318.651804 55.709641 
L 320.691092 44.550561 
L 322.730379 41.601999 
L 324.769667 56.340826 
L 326.808954 63.633416 
L 328.848241 48.903484 
L 330.887529 46.747008 
L 332.926816 48.280012 
L 334.966103 45.462984 
L 337.005391 55.155093 
L 339.044678 45.838725 
L 341.083965 48.324702 
L 343.123253 49.603957 
L 345.16254 48.504255 
L 347.201827 52.828398 
L 349.241115 52.353901 
L 351.280402 39.18929 
L 353.319689 52.648169 
L 355.358977 52.016013 
L 357.398264 62.725513 
L 359.437551 83.770427 
L 361.476839 51.36115 
L 363.516126 54.888834 
L 365.555413 44.835708 
L 367.594701 73.071199 
L 369.633988 53.97309 
L 371.673275 63.035697 
L 373.712563 52.952255 
L 375.75185 69.30576 
L 377.791138 48.961233 
L 379.830425 92.043037 
L 381.869712 65.743882 
L 383.909 71.89886 
L 385.948287 100.485145 
L 387.987574 70.672494 
L 390.026862 76.271131 
L 392.066149 61.449742 
L 394.105436 64.553441 
L 396.144724 96.556392 
L 398.184011 80.637712 
L 400.223298 85.989765 
L 402.262586 55.903338 
L 404.301873 81.761321 
L 406.34116 71.560467 
L 408.380448 66.524646 
L 410.419735 48.644891 
L 412.459022 67.421039 
L 414.49831 103.952647 
L 416.537597 76.542085 
L 418.576884 111.299259 
L 420.616172 97.891982 
L 422.655459 85.621039 
L 424.694746 80.629837 
L 426.734034 65.745006 
L 428.773321 67.18647 
L 430.812608 63.321897 
L 432.851896 61.56101 
L 434.891183 65.76903 
L 436.930471 56.989364 
L 438.969758 61.900653 
L 441.009045 74.57452 
L 443.048333 47.79398 
L 445.08762 59.687941 
L 447.126907 69.74599 
L 449.166195 68.064103 
L 451.205482 55.603 
L 453.244769 63.01332 
L 455.284057 61.05731 
L 457.323344 55.846262 
L 459.362631 53.903789 
L 461.401919 56.387091 
L 463.441206 60.4134 
L 465.480493 63.495619 
L 467.519781 59.708689 
L 469.559068 52.754577 
L 471.598355 69.33766 
L 473.637643 68.67985 
L 475.67693 70.062273 
L 477.716217 49.908835 
L 479.755505 65.394933 
L 481.794792 58.750251 
L 483.834079 64.396333 
L 485.873367 70.976529 
L 487.912654 69.528762 
L 489.951942 46.862345 
L 491.991229 54.179762 
L 494.030516 42.377554 
L 496.069804 61.334709 
L 498.109091 56.923742 
L 498.109091 56.923742 
" clip-path="url(#p03e4993bc4)" style="fill: none; stroke: #ff0000; stroke-opacity: 0.9; stroke-width: 1.5; stroke-linecap: square"/>
   </g>
   <g id="line2d_17">
    <path d="M 92.290909 61.287967 
L 94.330196 101.191946 
L 96.369484 127.276179 
L 98.408771 102.846766 
L 100.448058 92.066108 
L 102.487346 105.017579 
L 104.526633 96.948296 
L 106.565921 67.380463 
L 108.605208 115.469451 
L 110.644495 47.925209 
L 112.683783 79.475464 
L 114.72307 122.857944 
L 116.762357 122.416675 
L 118.801645 107.857206 
L 120.840932 71.244877 
L 122.880219 114.18288 
L 124.919507 67.131268 
L 126.958794 64.64767 
L 128.998081 87.164023 
L 131.037369 66.174584 
L 133.076656 54.504874 
L 135.115943 54.214444 
L 137.155231 105.192522 
L 139.194518 103.558336 
L 141.233805 126.791813 
L 143.273093 120.078153 
L 145.31238 117.510496 
L 147.351667 113.431018 
L 149.390955 113.912556 
L 151.430242 106.656034 
L 153.469529 106.494775 
L 155.508817 109.551034 
L 157.548104 125.741838 
L 159.587392 107.143444 
L 161.626679 119.198294 
L 163.665966 97.264317 
L 165.705254 91.65127 
L 167.744541 109.446863 
L 169.783828 47.538566 
L 171.823116 55.759194 
L 173.862403 73.341119 
L 175.90169 47.57682 
L 177.940978 44.600063 
L 179.980265 68.037194 
L 182.019552 65.94629 
L 184.05884 69.85606 
L 186.098127 65.348077 
L 188.137414 55.532915 
L 190.176702 68.091415 
L 192.215989 60.159315 
L 194.255276 48.175115 
L 196.294564 67.463472 
L 198.333851 76.366291 
L 200.373138 93.505562 
L 202.412426 72.859927 
L 204.451713 57.494773 
L 206.491 45.164025 
L 208.530288 74.020086 
L 210.569575 59.138503 
L 212.608862 107.391464 
L 214.64815 108.815582 
L 216.687437 93.840321 
L 218.726725 90.876229 
L 220.766012 112.395999 
L 222.805299 119.725576 
L 224.844587 116.83815 
L 226.883874 67.086251 
L 228.923161 57.315163 
L 230.962449 80.409282 
L 233.001736 70.25923 
L 235.041023 44.933519 
L 237.080311 60.239627 
L 239.119598 53.258482 
L 241.158885 73.110031 
L 243.198173 50.844816 
L 245.23746 84.612702 
L 247.276747 53.640619 
L 249.316035 96.213763 
L 251.355322 72.55374 
L 253.394609 109.095967 
L 255.433897 88.163508 
L 257.473184 68.653265 
L 259.512471 62.53068 
L 261.551759 59.327409 
L 263.591046 69.074394 
L 265.630333 68.617918 
L 267.669621 57.848111 
L 269.708908 49.220161 
L 271.748196 42.264809 
L 273.787483 59.748594 
L 275.82677 50.681053 
L 277.866058 64.064294 
L 279.905345 59.198862 
L 281.944632 80.328005 
L 283.98392 65.137629 
L 286.023207 60.678324 
L 288.062494 56.754369 
L 290.101782 67.376892 
L 292.141069 72.108621 
L 294.180356 56.10921 
L 296.219644 42.420946 
L 298.258931 77.237808 
L 300.298218 58.130705 
L 302.337506 67.018483 
L 304.376793 60.786401 
L 306.41608 44.576368 
L 308.455368 47.08943 
L 310.494655 54.169065 
L 312.533942 55.358932 
L 314.57323 70.319009 
L 316.612517 39.793232 
L 318.651804 54.592124 
L 320.691092 48.627173 
L 322.730379 43.852008 
L 324.769667 53.916076 
L 326.808954 62.083295 
L 328.848241 50.177109 
L 330.887529 46.459375 
L 332.926816 50.519914 
L 334.966103 47.268901 
L 337.005391 53.715275 
L 339.044678 47.689636 
L 341.083965 50.176382 
L 343.123253 54.807075 
L 345.16254 50.062689 
L 347.201827 56.924588 
L 349.241115 55.477156 
L 351.280402 43.523381 
L 353.319689 57.790961 
L 355.358977 54.999342 
L 357.398264 64.595647 
L 359.437551 86.155101 
L 361.476839 52.103587 
L 363.516126 57.119569 
L 365.555413 47.219229 
L 367.594701 72.389609 
L 369.633988 52.409745 
L 371.673275 60.805247 
L 373.712563 55.601978 
L 375.75185 68.208441 
L 377.791138 50.000621 
L 379.830425 89.373935 
L 381.869712 66.200624 
L 383.909 67.885708 
L 385.948287 96.012877 
L 387.987574 75.78777 
L 390.026862 76.711111 
L 392.066149 61.503286 
L 394.105436 60.367856 
L 396.144724 97.967819 
L 398.184011 80.119981 
L 400.223298 83.546391 
L 402.262586 59.016174 
L 404.301873 77.315576 
L 406.34116 71.670526 
L 408.380448 65.098257 
L 410.419735 51.335763 
L 412.459022 70.468162 
L 414.49831 103.724035 
L 416.537597 76.877225 
L 418.576884 112.085871 
L 422.655459 83.589829 
L 424.694746 81.168338 
L 426.734034 65.843243 
L 428.773321 68.951553 
L 430.812608 65.57008 
L 432.851896 58.001352 
L 434.891183 71.182038 
L 436.930471 59.037331 
L 438.969758 61.988817 
L 441.009045 69.402742 
L 443.048333 48.885581 
L 445.08762 59.993696 
L 447.126907 70.050343 
L 449.166195 68.84368 
L 451.205482 54.706425 
L 453.244769 61.455369 
L 455.284057 63.767618 
L 457.323344 54.749374 
L 459.362631 51.622707 
L 461.401919 61.814277 
L 463.441206 62.010519 
L 465.480493 59.103413 
L 467.519781 60.03024 
L 469.559068 57.26678 
L 471.598355 69.745644 
L 473.637643 68.408464 
L 475.67693 71.702028 
L 477.716217 51.124844 
L 479.755505 64.911032 
L 481.794792 62.601849 
L 483.834079 62.075164 
L 485.873367 67.017007 
L 487.912654 63.965177 
L 489.951942 47.139576 
L 491.991229 57.600891 
L 494.030516 43.960503 
L 496.069804 61.831703 
L 498.109091 60.937416 
L 498.109091 60.937416 
" clip-path="url(#p03e4993bc4)" style="fill: none; stroke: #ff0000; stroke-opacity: 0.9; stroke-width: 1.5; stroke-linecap: square"/>
   </g>
   <g id="line2d_18">
    <path d="M 92.290909 109.792229 
L 94.330196 98.80449 
L 96.369484 117.748796 
L 98.408771 98.968963 
L 100.448058 90.026936 
L 102.487346 102.688301 
L 104.526633 97.116516 
L 106.565921 66.083132 
L 108.605208 110.166417 
L 110.644495 46.718439 
L 112.683783 79.862536 
L 114.72307 116.460692 
L 116.762357 118.573724 
L 118.801645 110.162715 
L 120.840932 68.89099 
L 122.880219 110.078248 
L 124.919507 67.458793 
L 126.958794 63.209419 
L 128.998081 83.905629 
L 131.037369 63.087396 
L 133.076656 50.245593 
L 135.115943 52.445812 
L 137.155231 102.998099 
L 139.194518 106.988317 
L 141.233805 122.325019 
L 143.273093 118.541484 
L 145.31238 118.657226 
L 147.351667 110.926786 
L 149.390955 115.509981 
L 151.430242 107.024056 
L 153.469529 105.533424 
L 155.508817 112.110492 
L 157.548104 125.247399 
L 159.587392 107.339975 
L 161.626679 120.834512 
L 163.665966 94.103405 
L 165.705254 93.298873 
L 167.744541 110.484403 
L 169.783828 50.185592 
L 171.823116 54.535735 
L 173.862403 74.011626 
L 175.90169 50.923327 
L 177.940978 43.748397 
L 179.980265 68.179988 
L 182.019552 63.814877 
L 184.05884 69.954513 
L 186.098127 65.325427 
L 188.137414 59.235423 
L 190.176702 67.847653 
L 192.215989 61.141579 
L 194.255276 48.052751 
L 196.294564 68.115348 
L 198.333851 73.844002 
L 200.373138 91.118594 
L 202.412426 70.298028 
L 204.451713 52.508425 
L 206.491 43.026994 
L 208.530288 72.325662 
L 210.569575 57.841649 
L 212.608862 109.226246 
L 214.64815 103.718982 
L 216.687437 92.054263 
L 218.726725 90.726531 
L 220.766012 106.920407 
L 222.805299 118.150545 
L 224.844587 117.271107 
L 226.883874 69.230071 
L 228.923161 58.073396 
L 230.962449 77.986729 
L 233.001736 72.588167 
L 235.041023 44.430674 
L 237.080311 58.871194 
L 239.119598 51.819641 
L 241.158885 73.305978 
L 243.198173 52.314659 
L 245.23746 79.980845 
L 247.276747 50.473728 
L 249.316035 99.92049 
L 251.355322 75.986936 
L 253.394609 108.393584 
L 257.473184 71.191599 
L 259.512471 64.87488 
L 261.551759 56.880327 
L 263.591046 67.994171 
L 265.630333 63.507952 
L 267.669621 60.417358 
L 269.708908 48.82242 
L 271.748196 40.004472 
L 273.787483 61.61087 
L 275.82677 49.860735 
L 277.866058 64.965815 
L 279.905345 54.076954 
L 281.944632 80.606221 
L 283.98392 64.067599 
L 286.023207 62.524473 
L 288.062494 53.075675 
L 290.101782 66.598876 
L 292.141069 74.252338 
L 294.180356 54.222661 
L 296.219644 42.053217 
L 298.258931 77.757816 
L 300.298218 55.283782 
L 302.337506 60.314856 
L 304.376793 57.968697 
L 306.41608 45.212795 
L 308.455368 45.928141 
L 310.494655 56.354794 
L 312.533942 60.537552 
L 314.57323 71.729823 
L 316.612517 41.044482 
L 318.651804 56.574662 
L 320.691092 46.614137 
L 322.730379 42.746969 
L 326.808954 62.441942 
L 328.848241 46.455445 
L 332.926816 48.020281 
L 334.966103 46.357356 
L 337.005391 56.273296 
L 339.044678 41.454638 
L 341.083965 50.404881 
L 343.123253 56.306422 
L 345.16254 49.059564 
L 347.201827 52.751801 
L 349.241115 54.657423 
L 351.280402 41.816939 
L 353.319689 58.329871 
L 355.358977 57.645379 
L 357.398264 64.424253 
L 359.437551 82.003959 
L 361.476839 48.102333 
L 363.516126 55.946736 
L 365.555413 46.300589 
L 367.594701 69.36107 
L 369.633988 53.133189 
L 371.673275 62.060037 
L 373.712563 52.048594 
L 375.75185 67.782531 
L 377.791138 50.261894 
L 379.830425 92.431563 
L 381.869712 65.929142 
L 383.909 71.705378 
L 385.948287 98.195557 
L 387.987574 71.533473 
L 390.026862 79.102338 
L 392.066149 61.82958 
L 394.105436 66.294602 
L 396.144724 99.055497 
L 398.184011 82.297455 
L 400.223298 82.554339 
L 402.262586 58.871484 
L 404.301873 78.97098 
L 406.34116 67.817593 
L 408.380448 68.702585 
L 410.419735 47.416348 
L 412.459022 68.139349 
L 414.49831 103.119077 
L 416.537597 77.586274 
L 418.576884 110.516065 
L 420.616172 103.706376 
L 422.655459 84.884661 
L 424.694746 80.044792 
L 426.734034 61.289397 
L 428.773321 65.723605 
L 430.812608 64.177959 
L 432.851896 63.254055 
L 434.891183 70.401966 
L 436.930471 59.859624 
L 438.969758 59.833868 
L 441.009045 70.474992 
L 443.048333 48.233781 
L 445.08762 60.05812 
L 447.126907 68.996859 
L 449.166195 65.99126 
L 451.205482 56.375604 
L 453.244769 63.958817 
L 455.284057 62.045893 
L 457.323344 53.108296 
L 459.362631 50.106859 
L 461.401919 60.116008 
L 463.441206 60.060766 
L 465.480493 62.155952 
L 467.519781 54.796043 
L 469.559068 56.071842 
L 471.598355 67.363747 
L 473.637643 67.47648 
L 475.67693 69.737848 
L 477.716217 50.324677 
L 479.755505 64.65207 
L 481.794792 57.70944 
L 483.834079 61.313177 
L 485.873367 65.855354 
L 487.912654 66.433466 
L 489.951942 46.921485 
L 491.991229 49.972733 
L 494.030516 44.392854 
L 496.069804 64.046976 
L 498.109091 58.584432 
L 498.109091 58.584432 
" clip-path="url(#p03e4993bc4)" style="fill: none; stroke: #008000; stroke-opacity: 0.9; stroke-width: 1.5; stroke-linecap: square"/>
   </g>
   <g id="line2d_19">
    <path d="M 153.469529 135.36 
L 153.469529 34.56 
" clip-path="url(#p03e4993bc4)" style="fill: none; stroke-dasharray: 5.55,2.4; stroke-dashoffset: 0; stroke: #000000; stroke-width: 1.5"/>
   </g>
   <g id="line2d_20">
    <path d="M 438.969758 135.36 
L 438.969758 34.56 
" clip-path="url(#p03e4993bc4)" style="fill: none; stroke-dasharray: 5.55,2.4; stroke-dashoffset: 0; stroke: #0000ff; stroke-width: 1.5"/>
   </g>
   <g id="patch_3">
    <path d="M 72 135.36 
L 72 34.56 
" style="fill: none; stroke: #000000; stroke-width: 0.8; stroke-linejoin: miter; stroke-linecap: square"/>
   </g>
   <g id="patch_4">
    <path d="M 518.4 135.36 
L 518.4 34.56 
" style="fill: none; stroke: #000000; stroke-width: 0.8; stroke-linejoin: miter; stroke-linecap: square"/>
   </g>
   <g id="patch_5">
    <path d="M 72 135.36 
L 518.4 135.36 
" style="fill: none; stroke: #000000; stroke-width: 0.8; stroke-linejoin: miter; stroke-linecap: square"/>
   </g>
   <g id="patch_6">
    <path d="M 72 34.56 
L 518.4 34.56 
" style="fill: none; stroke: #000000; stroke-width: 0.8; stroke-linejoin: miter; stroke-linecap: square"/>
   </g>
  </g>
  <g id="axes_2">
   <g id="patch_7">
    <path d="M 72 256.32 
L 518.4 256.32 
L 518.4 155.52 
L 72 155.52 
z
" style="fill: #ffffff"/>
   </g>
   <g id="matplotlib.axis_3">
    <g id="xtick_10">
     <g id="line2d_21">
      <g>
       <use xlink:href="#mc722489e17" x="92.290909" y="256.32" style="stroke: #000000; stroke-width: 0.8"/>
      </g>
     </g>
     <g id="text_4">
      <!-- 0 -->
      <g transform="translate(89.109659 270.918437) scale(0.1 -0.1)">
       <use xlink:href="#DejaVuSans-30"/>
      </g>
     </g>
    </g>
    <g id="xtick_11">
     <g id="line2d_22">
      <g>
       <use xlink:href="#mc722489e17" x="143.273093" y="256.32" style="stroke: #000000; stroke-width: 0.8"/>
      </g>
     </g>
     <g id="text_5">
      <!-- 25 -->
      <g transform="translate(136.910593 270.918437) scale(0.1 -0.1)">
       <defs>
        <path id="DejaVuSans-32" d="M 1228 531 
L 3431 531 
L 3431 0 
L 469 0 
L 469 531 
Q 828 903 1448 1529 
Q 2069 2156 2228 2338 
Q 2531 2678 2651 2914 
Q 2772 3150 2772 3378 
Q 2772 3750 2511 3984 
Q 2250 4219 1831 4219 
Q 1534 4219 1204 4116 
Q 875 4013 500 3803 
L 500 4441 
Q 881 4594 1212 4672 
Q 1544 4750 1819 4750 
Q 2544 4750 2975 4387 
Q 3406 4025 3406 3419 
Q 3406 3131 3298 2873 
Q 3191 2616 2906 2266 
Q 2828 2175 2409 1742 
Q 1991 1309 1228 531 
z
" transform="scale(0.015625)"/>
       </defs>
       <use xlink:href="#DejaVuSans-32"/>
       <use xlink:href="#DejaVuSans-35" transform="translate(63.623047 0)"/>
      </g>
     </g>
    </g>
    <g id="xtick_12">
     <g id="line2d_23">
      <g>
       <use xlink:href="#mc722489e17" x="194.255276" y="256.32" style="stroke: #000000; stroke-width: 0.8"/>
      </g>
     </g>
     <g id="text_6">
      <!-- 50 -->
      <g transform="translate(187.892776 270.918437) scale(0.1 -0.1)">
       <use xlink:href="#DejaVuSans-35"/>
       <use xlink:href="#DejaVuSans-30" transform="translate(63.623047 0)"/>
      </g>
     </g>
    </g>
    <g id="xtick_13">
     <g id="line2d_24">
      <g>
       <use xlink:href="#mc722489e17" x="245.23746" y="256.32" style="stroke: #000000; stroke-width: 0.8"/>
      </g>
     </g>
     <g id="text_7">
      <!-- 75 -->
      <g transform="translate(238.87496 270.918437) scale(0.1 -0.1)">
       <defs>
        <path id="DejaVuSans-37" d="M 525 4666 
L 3525 4666 
L 3525 4397 
L 1831 0 
L 1172 0 
L 2766 4134 
L 525 4134 
L 525 4666 
z
" transform="scale(0.015625)"/>
       </defs>
       <use xlink:href="#DejaVuSans-37"/>
       <use xlink:href="#DejaVuSans-35" transform="translate(63.623047 0)"/>
      </g>
     </g>
    </g>
    <g id="xtick_14">
     <g id="line2d_25">
      <g>
       <use xlink:href="#mc722489e17" x="296.219644" y="256.32" style="stroke: #000000; stroke-width: 0.8"/>
      </g>
     </g>
     <g id="text_8">
      <!-- 100 -->
      <g transform="translate(286.675894 270.918437) scale(0.1 -0.1)">
       <use xlink:href="#DejaVuSans-31"/>
       <use xlink:href="#DejaVuSans-30" transform="translate(63.623047 0)"/>
       <use xlink:href="#DejaVuSans-30" transform="translate(127.246094 0)"/>
      </g>
     </g>
    </g>
    <g id="xtick_15">
     <g id="line2d_26">
      <g>
       <use xlink:href="#mc722489e17" x="347.201827" y="256.32" style="stroke: #000000; stroke-width: 0.8"/>
      </g>
     </g>
     <g id="text_9">
      <!-- 125 -->
      <g transform="translate(337.658077 270.918437) scale(0.1 -0.1)">
       <use xlink:href="#DejaVuSans-31"/>
       <use xlink:href="#DejaVuSans-32" transform="translate(63.623047 0)"/>
       <use xlink:href="#DejaVuSans-35" transform="translate(127.246094 0)"/>
      </g>
     </g>
    </g>
    <g id="xtick_16">
     <g id="line2d_27">
      <g>
       <use xlink:href="#mc722489e17" x="398.184011" y="256.32" style="stroke: #000000; stroke-width: 0.8"/>
      </g>
     </g>
     <g id="text_10">
      <!-- 150 -->
      <g transform="translate(388.640261 270.918437) scale(0.1 -0.1)">
       <use xlink:href="#DejaVuSans-31"/>
       <use xlink:href="#DejaVuSans-35" transform="translate(63.623047 0)"/>
       <use xlink:href="#DejaVuSans-30" transform="translate(127.246094 0)"/>
      </g>
     </g>
    </g>
    <g id="xtick_17">
     <g id="line2d_28">
      <g>
       <use xlink:href="#mc722489e17" x="449.166195" y="256.32" style="stroke: #000000; stroke-width: 0.8"/>
      </g>
     </g>
     <g id="text_11">
      <!-- 175 -->
      <g transform="translate(439.622445 270.918437) scale(0.1 -0.1)">
       <use xlink:href="#DejaVuSans-31"/>
       <use xlink:href="#DejaVuSans-37" transform="translate(63.623047 0)"/>
       <use xlink:href="#DejaVuSans-35" transform="translate(127.246094 0)"/>
      </g>
     </g>
    </g>
    <g id="xtick_18">
     <g id="line2d_29">
      <g>
       <use xlink:href="#mc722489e17" x="500.148378" y="256.32" style="stroke: #000000; stroke-width: 0.8"/>
      </g>
     </g>
     <g id="text_12">
      <!-- 200 -->
      <g transform="translate(490.604628 270.918437) scale(0.1 -0.1)">
       <use xlink:href="#DejaVuSans-32"/>
       <use xlink:href="#DejaVuSans-30" transform="translate(63.623047 0)"/>
       <use xlink:href="#DejaVuSans-30" transform="translate(127.246094 0)"/>
      </g>
     </g>
    </g>
   </g>
   <g id="matplotlib.axis_4">
    <g id="ytick_4">
     <g id="line2d_30">
      <g>
       <use xlink:href="#m01c9c80c14" x="72" y="253.274857" style="stroke: #000000; stroke-width: 0.8"/>
      </g>
     </g>
     <g id="text_13">
      <!-- −200 -->
      <g transform="translate(37.532812 257.074076) scale(0.1 -0.1)">
       <use xlink:href="#DejaVuSans-2212"/>
       <use xlink:href="#DejaVuSans-32" transform="translate(83.789062 0)"/>
       <use xlink:href="#DejaVuSans-30" transform="translate(147.412109 0)"/>
       <use xlink:href="#DejaVuSans-30" transform="translate(211.035156 0)"/>
      </g>
     </g>
    </g>
    <g id="ytick_5">
     <g id="line2d_31">
      <g>
       <use xlink:href="#m01c9c80c14" x="72" y="229.032684" style="stroke: #000000; stroke-width: 0.8"/>
      </g>
     </g>
     <g id="text_14">
      <!-- −100 -->
      <g transform="translate(37.532812 232.831902) scale(0.1 -0.1)">
       <use xlink:href="#DejaVuSans-2212"/>
       <use xlink:href="#DejaVuSans-31" transform="translate(83.789062 0)"/>
       <use xlink:href="#DejaVuSans-30" transform="translate(147.412109 0)"/>
       <use xlink:href="#DejaVuSans-30" transform="translate(211.035156 0)"/>
      </g>
     </g>
    </g>
    <g id="ytick_6">
     <g id="line2d_32">
      <g>
       <use xlink:href="#m01c9c80c14" x="72" y="204.79051" style="stroke: #000000; stroke-width: 0.8"/>
      </g>
     </g>
     <g id="text_15">
      <!-- 0 -->
      <g transform="translate(58.6375 208.589729) scale(0.1 -0.1)">
       <use xlink:href="#DejaVuSans-30"/>
      </g>
     </g>
    </g>
    <g id="ytick_7">
     <g id="line2d_33">
      <g>
       <use xlink:href="#m01c9c80c14" x="72" y="180.548336" style="stroke: #000000; stroke-width: 0.8"/>
      </g>
     </g>
     <g id="text_16">
      <!-- 100 -->
      <g transform="translate(45.9125 184.347555) scale(0.1 -0.1)">
       <use xlink:href="#DejaVuSans-31"/>
       <use xlink:href="#DejaVuSans-30" transform="translate(63.623047 0)"/>
       <use xlink:href="#DejaVuSans-30" transform="translate(127.246094 0)"/>
      </g>
     </g>
    </g>
    <g id="ytick_8">
     <g id="line2d_34">
      <g>
       <use xlink:href="#m01c9c80c14" x="72" y="156.306162" style="stroke: #000000; stroke-width: 0.8"/>
      </g>
     </g>
     <g id="text_17">
      <!-- 200 -->
      <g transform="translate(45.9125 160.105381) scale(0.1 -0.1)">
       <use xlink:href="#DejaVuSans-32"/>
       <use xlink:href="#DejaVuSans-30" transform="translate(63.623047 0)"/>
       <use xlink:href="#DejaVuSans-30" transform="translate(127.246094 0)"/>
      </g>
     </g>
    </g>
   </g>
   <g id="line2d_35">
    <path d="M 92.290909 176.228309 
L 94.330196 171.999807 
L 96.369484 164.440511 
L 98.408771 165.355855 
L 100.448058 169.947875 
L 102.487346 167.047891 
L 104.526633 168.573125 
L 106.565921 164.615836 
L 108.605208 165.380391 
L 110.644495 176.28724 
L 112.683783 248.295657 
L 114.72307 162.322236 
L 116.762357 163.406235 
L 118.801645 170.992719 
L 120.840932 162.111911 
L 122.880219 169.287044 
L 124.919507 166.549864 
L 126.958794 180.914715 
L 128.998081 163.748894 
L 131.037369 167.981516 
L 133.076656 174.357847 
L 135.115943 168.595279 
L 137.155231 166.85726 
L 139.194518 164.85373 
L 141.233805 167.966402 
L 143.273093 165.3083 
L 145.31238 162.253629 
L 147.351667 161.036527 
L 149.390955 163.880244 
L 151.430242 163.249565 
L 153.469529 164.965171 
L 155.508817 168.447868 
L 157.548104 164.351652 
L 159.587392 165.8753 
L 161.626679 168.430793 
L 163.665966 169.369911 
L 165.705254 249.941103 
L 167.744541 163.934442 
L 169.783828 168.339171 
L 171.823116 166.902011 
L 173.862403 168.696445 
L 175.90169 172.781108 
L 177.940978 171.340841 
L 179.980265 184.017988 
L 182.019552 169.782711 
L 184.05884 173.860656 
L 186.098127 188.925353 
L 188.137414 173.425318 
L 190.176702 173.412964 
L 192.215989 198.914607 
L 194.255276 191.858551 
L 196.294564 189.727171 
L 198.333851 189.245937 
L 200.373138 172.25677 
L 202.412426 164.795318 
L 204.451713 168.131424 
L 206.491 167.163542 
L 208.530288 174.499587 
L 210.569575 166.826214 
L 212.608862 163.219935 
L 214.64815 170.434653 
L 216.687437 161.616518 
L 218.726725 168.612587 
L 220.766012 166.813596 
L 222.805299 169.726708 
L 224.844587 162.727091 
L 226.883874 177.756458 
L 228.923161 187.306286 
L 230.962449 167.956595 
L 233.001736 170.426663 
L 235.041023 167.548704 
L 237.080311 166.889083 
L 239.119598 169.513938 
L 241.158885 165.186039 
L 243.198173 172.019279 
L 245.23746 163.239481 
L 247.276747 164.449182 
L 249.316035 164.730081 
L 251.355322 170.355711 
L 253.394609 166.14515 
L 255.433897 163.482669 
L 257.473184 170.176798 
L 259.512471 164.261292 
L 261.551759 163.211605 
L 263.591046 165.963241 
L 265.630333 169.418572 
L 267.669621 163.914434 
L 269.708908 165.609433 
L 271.748196 166.149681 
L 273.787483 167.937375 
L 275.82677 163.486885 
L 277.866058 249.650483 
L 279.905345 168.626259 
L 281.944632 166.092253 
L 283.98392 165.169138 
L 286.023207 171.774153 
L 288.062494 172.283425 
L 290.101782 169.888057 
L 292.141069 171.824775 
L 294.180356 168.244697 
L 296.219644 168.388091 
L 298.258931 175.129451 
L 300.298218 170.890362 
L 302.337506 165.550503 
L 304.376793 171.198986 
L 306.41608 164.803737 
L 308.455368 166.909128 
L 310.494655 168.447539 
L 312.533942 163.696215 
L 314.57323 249.336732 
L 316.612517 161.230654 
L 318.651804 163.664163 
L 320.691092 163.313414 
L 322.730379 166.06066 
L 324.769667 165.260001 
L 326.808954 165.418247 
L 328.848241 167.141951 
L 330.887529 167.502524 
L 332.926816 164.053844 
L 334.966103 165.640169 
L 337.005391 162.69553 
L 339.044678 163.254222 
L 341.083965 164.223073 
L 343.123253 163.044326 
L 345.16254 166.769755 
L 347.201827 163.709595 
L 349.241115 250.673096 
L 351.280402 165.080645 
L 353.319689 165.040958 
L 355.358977 172.272247 
L 357.398264 168.644884 
L 359.437551 171.678936 
L 361.476839 167.120911 
L 363.516126 167.917441 
L 365.555413 169.1129 
L 367.594701 169.001969 
L 369.633988 171.3504 
L 371.673275 165.958144 
L 373.712563 172.94585 
L 375.75185 176.016965 
L 377.791138 174.179487 
L 379.830425 166.798471 
L 381.869712 179.26188 
L 383.909 171.718553 
L 385.948287 169.649342 
L 387.987574 168.102227 
L 390.026862 173.528578 
L 392.066149 171.770173 
L 394.105436 171.863904 
L 396.144724 248.763048 
L 398.184011 166.172741 
L 400.223298 171.502627 
L 402.262586 170.588571 
L 404.301873 171.539119 
L 406.34116 167.837426 
L 408.380448 173.557664 
L 410.419735 167.966505 
L 412.459022 172.22626 
L 414.49831 165.321687 
L 416.537597 167.041285 
L 418.576884 162.669951 
L 420.616172 169.728265 
L 422.655459 168.933137 
L 424.694746 170.787125 
L 426.734034 168.758104 
L 428.773321 172.280477 
L 430.812608 176.961452 
L 432.851896 171.953084 
L 434.891183 174.343759 
L 436.930471 178.434999 
L 438.969758 171.409052 
L 441.009045 179.492117 
L 443.048333 171.553719 
L 445.08762 174.965323 
L 447.126907 175.415717 
L 449.166195 164.160074 
L 451.205482 170.988598 
L 453.244769 173.742872 
L 455.284057 179.520877 
L 457.323344 181.733149 
L 459.362631 174.443866 
L 461.401919 174.134105 
L 463.441206 178.000509 
L 465.480493 175.538694 
L 467.519781 175.037582 
L 469.559068 176.299638 
L 471.598355 171.163586 
L 473.637643 176.3135 
L 475.67693 178.080068 
L 477.716217 180.069019 
L 479.755505 173.888674 
L 481.794792 175.995738 
L 483.834079 171.49136 
L 485.873367 174.414808 
L 487.912654 177.933138 
L 489.951942 173.38262 
L 491.991229 169.332846 
L 494.030516 168.671535 
L 496.069804 174.9204 
L 498.109091 176.450167 
L 498.109091 176.450167 
" clip-path="url(#p0643892d31)" style="fill: none; stroke: #ff0000; stroke-opacity: 0.9; stroke-width: 1.5; stroke-linecap: square"/>
   </g>
   <g id="line2d_36">
    <path d="M 92.290909 177.637507 
L 94.330196 169.427712 
L 96.369484 164.666609 
L 98.408771 163.880717 
L 100.448058 169.575971 
L 102.487346 166.388559 
L 104.526633 169.032845 
L 106.565921 163.386826 
L 108.605208 165.017073 
L 110.644495 176.938042 
L 112.683783 247.797308 
L 114.72307 163.050637 
L 116.762357 164.097575 
L 118.801645 170.374998 
L 120.840932 161.537176 
L 122.880219 169.650655 
L 124.919507 165.928285 
L 126.958794 181.52199 
L 128.998081 163.790989 
L 131.037369 168.227326 
L 133.076656 174.577865 
L 135.115943 167.846674 
L 137.155231 167.128072 
L 139.194518 164.925954 
L 141.233805 168.34968 
L 143.273093 166.150883 
L 145.31238 162.094078 
L 147.351667 161.445695 
L 149.390955 163.784952 
L 151.430242 164.222888 
L 153.469529 164.144372 
L 155.508817 168.455599 
L 157.548104 165.17816 
L 159.587392 166.110774 
L 161.626679 169.321638 
L 163.665966 169.331578 
L 165.705254 249.312651 
L 167.744541 162.809077 
L 169.783828 168.607075 
L 171.823116 166.616566 
L 173.862403 167.633775 
L 175.90169 172.969945 
L 177.940978 171.072153 
L 179.980265 185.481661 
L 182.019552 169.703167 
L 184.05884 173.442593 
L 186.098127 188.026887 
L 188.137414 173.870432 
L 190.176702 174.701946 
L 192.215989 197.65147 
L 194.255276 194.018428 
L 196.294564 189.572023 
L 198.333851 188.426767 
L 200.373138 172.106858 
L 202.412426 165.034014 
L 204.451713 167.523443 
L 206.491 166.647786 
L 208.530288 175.096555 
L 210.569575 166.15847 
L 212.608862 164.594507 
L 214.64815 169.346544 
L 216.687437 162.660637 
L 218.726725 168.018488 
L 220.766012 167.346213 
L 222.805299 170.821027 
L 224.844587 162.637092 
L 226.883874 178.879449 
L 228.923161 187.113846 
L 230.962449 166.540672 
L 233.001736 171.802988 
L 235.041023 167.052578 
L 237.080311 166.961418 
L 239.119598 168.394908 
L 241.158885 166.230084 
L 243.198173 170.485626 
L 245.23746 162.597664 
L 249.316035 166.345177 
L 251.355322 169.226165 
L 255.433897 164.618181 
L 257.473184 170.221927 
L 259.512471 164.629729 
L 261.551759 163.928298 
L 263.591046 165.464264 
L 265.630333 168.890427 
L 267.669621 164.016425 
L 269.708908 165.938709 
L 271.748196 165.399689 
L 273.787483 167.108415 
L 275.82677 162.782495 
L 277.866058 250.358839 
L 279.905345 168.353309 
L 281.944632 165.166563 
L 283.98392 163.70284 
L 286.023207 170.115327 
L 288.062494 172.709513 
L 290.101782 169.411366 
L 292.141069 171.191584 
L 294.180356 167.280178 
L 296.219644 168.743715 
L 298.258931 174.127449 
L 300.298218 169.393137 
L 302.337506 165.221143 
L 304.376793 170.090847 
L 306.41608 164.55405 
L 308.455368 168.609942 
L 310.494655 167.208712 
L 312.533942 164.98438 
L 314.57323 250.891326 
L 316.612517 160.278238 
L 318.651804 162.943253 
L 320.691092 163.255246 
L 322.730379 166.024028 
L 326.808954 164.878617 
L 328.848241 167.233702 
L 330.887529 167.742712 
L 332.926816 165.052806 
L 334.966103 165.921183 
L 337.005391 161.877756 
L 339.044678 164.069517 
L 341.083965 163.300501 
L 343.123253 163.949568 
L 345.16254 166.400618 
L 347.201827 164.222433 
L 349.241115 251.738182 
L 351.280402 163.516889 
L 353.319689 164.25295 
L 355.358977 171.233495 
L 357.398264 167.891122 
L 359.437551 172.488435 
L 361.476839 166.963035 
L 363.516126 167.247234 
L 365.555413 170.470049 
L 367.594701 167.963524 
L 369.633988 170.864654 
L 371.673275 165.285861 
L 373.712563 172.212392 
L 375.75185 176.248752 
L 377.791138 173.77994 
L 379.830425 167.030176 
L 381.869712 178.275651 
L 383.909 171.44079 
L 385.948287 169.954525 
L 387.987574 168.166107 
L 390.026862 172.855604 
L 392.066149 172.348503 
L 394.105436 172.113361 
L 396.144724 247.551543 
L 398.184011 165.052332 
L 400.223298 171.438937 
L 402.262586 172.205508 
L 404.301873 171.447367 
L 406.34116 167.883398 
L 408.380448 172.940168 
L 410.419735 166.688967 
L 412.459022 172.202819 
L 414.49831 165.305392 
L 416.537597 167.699056 
L 418.576884 160.101818 
L 420.616172 168.981028 
L 422.655459 169.174064 
L 424.694746 171.413236 
L 426.734034 168.357692 
L 428.773321 174.123152 
L 430.812608 176.364066 
L 432.851896 173.182209 
L 434.891183 173.984879 
L 436.930471 178.328503 
L 438.969758 171.080949 
L 441.009045 179.635241 
L 443.048333 173.1451 
L 445.08762 174.804623 
L 447.126907 176.67802 
L 449.166195 164.076771 
L 451.205482 169.508641 
L 453.244769 173.762836 
L 455.284057 178.305031 
L 457.323344 180.225427 
L 459.362631 173.402192 
L 461.401919 174.352525 
L 463.441206 176.706015 
L 465.480493 174.304854 
L 467.519781 175.911022 
L 469.559068 175.125278 
L 471.598355 170.532123 
L 473.637643 176.434086 
L 477.716217 180.553877 
L 479.755505 174.700198 
L 481.794792 176.630388 
L 483.834079 172.034678 
L 485.873367 174.157779 
L 487.912654 178.755489 
L 489.951942 173.051288 
L 491.991229 169.392878 
L 494.030516 169.169141 
L 496.069804 173.541262 
L 498.109091 177.107263 
L 498.109091 177.107263 
" clip-path="url(#p0643892d31)" style="fill: none; stroke: #ff0000; stroke-opacity: 0.9; stroke-width: 1.5; stroke-linecap: square"/>
   </g>
   <g id="line2d_37">
    <path d="M 92.290909 177.919228 
L 94.330196 169.390737 
L 96.369484 164.717549 
L 98.408771 163.728771 
L 100.448058 170.80747 
L 102.487346 165.986745 
L 104.526633 168.513674 
L 106.565921 163.058767 
L 108.605208 164.971253 
L 110.644495 176.700831 
L 112.683783 247.884443 
L 114.72307 161.841702 
L 116.762357 165.189183 
L 118.801645 171.856276 
L 120.840932 162.036772 
L 122.880219 167.518797 
L 124.919507 166.030194 
L 126.958794 180.251596 
L 128.998081 163.899926 
L 131.037369 168.468901 
L 133.076656 174.828944 
L 135.115943 168.706565 
L 137.155231 165.872529 
L 139.194518 165.76155 
L 141.233805 168.617255 
L 143.273093 165.667956 
L 145.31238 161.865427 
L 147.351667 162.939432 
L 149.390955 164.352547 
L 151.430242 162.628777 
L 153.469529 163.883821 
L 155.508817 169.482085 
L 157.548104 163.771661 
L 159.587392 165.712803 
L 161.626679 168.777033 
L 163.665966 169.047667 
L 165.705254 248.098338 
L 167.744541 162.645057 
L 169.783828 169.411666 
L 171.823116 167.091477 
L 173.862403 167.407444 
L 175.90169 172.425373 
L 177.940978 170.680966 
L 179.980265 185.847742 
L 182.019552 169.459088 
L 184.05884 172.553864 
L 186.098127 187.845467 
L 188.137414 173.767201 
L 190.176702 174.237583 
L 192.215989 199.280513 
L 194.255276 193.764443 
L 196.294564 190.803659 
L 198.333851 188.677859 
L 200.373138 171.911481 
L 202.412426 164.825106 
L 204.451713 167.674856 
L 206.491 168.015518 
L 208.530288 175.032411 
L 210.569575 166.86238 
L 212.608862 165.010418 
L 214.64815 168.213155 
L 216.687437 161.6481 
L 218.726725 169.139707 
L 220.766012 166.852729 
L 222.805299 170.503189 
L 224.844587 162.871839 
L 226.883874 177.825697 
L 228.923161 188.099988 
L 230.962449 167.90857 
L 233.001736 171.43152 
L 235.041023 166.131456 
L 237.080311 168.094374 
L 239.119598 168.846083 
L 241.158885 165.119944 
L 243.198173 171.975301 
L 245.23746 164.559502 
L 247.276747 164.431992 
L 249.316035 165.127346 
L 251.355322 170.911702 
L 253.394609 165.97702 
L 255.433897 162.665401 
L 257.473184 169.440289 
L 259.512471 165.599009 
L 261.551759 163.216902 
L 263.591046 165.671015 
L 265.630333 168.537019 
L 267.669621 163.998784 
L 269.708908 165.940725 
L 271.748196 165.637431 
L 273.787483 167.438875 
L 275.82677 163.351478 
L 277.866058 249.033871 
L 279.905345 168.943431 
L 281.944632 165.088021 
L 283.98392 163.330726 
L 286.023207 171.433976 
L 288.062494 171.637847 
L 290.101782 169.634242 
L 292.141069 172.304728 
L 294.180356 168.001424 
L 296.219644 167.641513 
L 298.258931 173.820386 
L 300.298218 170.532045 
L 302.337506 164.799701 
L 304.376793 170.864646 
L 306.41608 164.737427 
L 308.455368 167.667917 
L 310.494655 168.792454 
L 312.533942 163.389119 
L 314.57323 250.502543 
L 316.612517 160.236904 
L 318.651804 162.233754 
L 320.691092 161.909394 
L 322.730379 165.628824 
L 324.769667 164.663916 
L 326.808954 163.991334 
L 328.848241 168.22042 
L 330.887529 167.67644 
L 332.926816 164.896099 
L 334.966103 166.213586 
L 337.005391 162.64661 
L 339.044678 164.127078 
L 343.123253 164.085024 
L 345.16254 166.061551 
L 347.201827 163.235464 
L 349.241115 250.337114 
L 351.280402 164.295992 
L 353.319689 164.376965 
L 355.358977 170.794671 
L 357.398264 169.343877 
L 359.437551 171.293586 
L 361.476839 166.798197 
L 363.516126 167.413747 
L 365.555413 169.779027 
L 367.594701 168.260029 
L 369.633988 169.880866 
L 371.673275 166.647849 
L 373.712563 172.195843 
L 375.75185 175.691985 
L 377.791138 173.513045 
L 379.830425 167.540236 
L 381.869712 178.98342 
L 383.909 171.787303 
L 385.948287 171.281361 
L 387.987574 168.127089 
L 390.026862 172.771986 
L 392.066149 171.917599 
L 394.105436 171.982329 
L 396.144724 247.883852 
L 398.184011 165.497692 
L 400.223298 172.749211 
L 402.262586 172.561243 
L 404.301873 170.993559 
L 406.34116 168.043727 
L 408.380448 172.765565 
L 410.419735 167.642615 
L 412.459022 172.192329 
L 414.49831 165.538189 
L 416.537597 167.620266 
L 418.576884 161.443638 
L 420.616172 168.262974 
L 422.655459 167.907524 
L 424.694746 172.278154 
L 426.734034 168.017397 
L 428.773321 172.245292 
L 430.812608 177.165951 
L 432.851896 172.072017 
L 434.891183 174.836698 
L 436.930471 179.734881 
L 438.969758 170.589259 
L 441.009045 179.862815 
L 443.048333 172.867681 
L 445.08762 174.696551 
L 447.126907 175.369634 
L 449.166195 163.816897 
L 451.205482 169.467529 
L 453.244769 173.678179 
L 455.284057 179.490658 
L 457.323344 180.886982 
L 459.362631 174.918889 
L 461.401919 173.531711 
L 463.441206 178.176969 
L 465.480493 175.831695 
L 467.519781 176.030407 
L 469.559068 176.576008 
L 471.598355 171.280255 
L 473.637643 176.378448 
L 475.67693 178.35548 
L 477.716217 180.139704 
L 479.755505 174.903305 
L 481.794792 176.54407 
L 483.834079 172.026426 
L 485.873367 174.494976 
L 487.912654 178.62934 
L 491.991229 169.338436 
L 494.030516 168.966081 
L 496.069804 174.005365 
L 498.109091 176.564787 
L 498.109091 176.564787 
" clip-path="url(#p0643892d31)" style="fill: none; stroke: #ff0000; stroke-opacity: 0.9; stroke-width: 1.5; stroke-linecap: square"/>
   </g>
   <g id="line2d_38">
    <path d="M 92.290909 176.204455 
L 94.330196 169.67444 
L 96.369484 164.564296 
L 98.408771 163.025065 
L 100.448058 170.705901 
L 102.487346 167.069031 
L 104.526633 169.138583 
L 106.565921 162.792405 
L 108.605208 165.951796 
L 110.644495 175.95392 
L 112.683783 248.47572 
L 114.72307 162.642219 
L 116.762357 164.643967 
L 118.801645 170.09246 
L 120.840932 162.211826 
L 122.880219 168.923726 
L 124.919507 166.864325 
L 126.958794 180.036919 
L 128.998081 163.644432 
L 131.037369 166.914189 
L 133.076656 175.319723 
L 135.115943 168.119095 
L 137.155231 166.870887 
L 139.194518 167.192462 
L 141.233805 168.205413 
L 143.273093 165.360934 
L 145.31238 162.042379 
L 147.351667 161.603438 
L 149.390955 165.37731 
L 151.430242 162.718106 
L 153.469529 164.150283 
L 155.508817 169.213977 
L 157.548104 164.448102 
L 159.587392 166.676823 
L 161.626679 168.419944 
L 163.665966 168.602733 
L 165.705254 248.495828 
L 167.744541 162.829932 
L 169.783828 168.744673 
L 171.823116 167.485353 
L 173.862403 167.325129 
L 175.90169 173.597739 
L 177.940978 172.331987 
L 179.980265 185.101462 
L 182.019552 169.533139 
L 184.05884 173.918048 
L 186.098127 187.79749 
L 188.137414 174.003071 
L 190.176702 175.20281 
L 192.215989 197.438793 
L 194.255276 194.010236 
L 196.294564 191.096964 
L 198.333851 189.773541 
L 200.373138 172.868584 
L 202.412426 164.781524 
L 204.451713 168.22261 
L 206.491 166.590362 
L 208.530288 175.293652 
L 210.569575 166.515393 
L 212.608862 164.314728 
L 214.64815 169.883026 
L 216.687437 161.42933 
L 218.726725 168.393455 
L 220.766012 167.033661 
L 222.805299 171.061621 
L 224.844587 162.76673 
L 226.883874 177.760573 
L 228.923161 187.229218 
L 230.962449 167.448281 
L 233.001736 172.136732 
L 235.041023 167.034752 
L 237.080311 166.941695 
L 239.119598 168.86156 
L 241.158885 164.822376 
L 243.198173 171.247947 
L 245.23746 162.257018 
L 247.276747 165.330997 
L 249.316035 165.053753 
L 251.355322 169.711357 
L 253.394609 166.339695 
L 255.433897 164.128051 
L 257.473184 169.845377 
L 259.512471 164.806537 
L 261.551759 163.387 
L 263.591046 165.282395 
L 265.630333 168.922979 
L 267.669621 164.21566 
L 269.708908 165.329425 
L 271.748196 166.031448 
L 273.787483 167.777502 
L 275.82677 162.477944 
L 277.866058 248.870539 
L 279.905345 169.066591 
L 281.944632 164.998611 
L 283.98392 164.278869 
L 286.023207 170.077223 
L 288.062494 172.328058 
L 290.101782 170.157208 
L 292.141069 172.851383 
L 294.180356 168.18404 
L 296.219644 168.83749 
L 298.258931 175.763194 
L 302.337506 164.558297 
L 304.376793 171.009158 
L 306.41608 163.742106 
L 308.455368 167.224052 
L 310.494655 168.948651 
L 312.533942 164.959097 
L 314.57323 248.801108 
L 316.612517 161.22303 
L 318.651804 163.033247 
L 320.691092 162.290072 
L 322.730379 165.678724 
L 324.769667 165.729834 
L 326.808954 164.265349 
L 328.848241 166.507762 
L 330.887529 167.137934 
L 332.926816 163.644787 
L 334.966103 165.632889 
L 337.005391 162.107365 
L 339.044678 163.929759 
L 343.123253 163.651194 
L 345.16254 165.995042 
L 347.201827 164.079989 
L 349.241115 250.643 
L 351.280402 163.328314 
L 353.319689 164.934021 
L 355.358977 172.188829 
L 357.398264 168.960902 
L 359.437551 170.969589 
L 361.476839 167.246549 
L 363.516126 166.3001 
L 365.555413 169.366933 
L 367.594701 166.866596 
L 369.633988 171.095771 
L 371.673275 165.92496 
L 373.712563 172.27875 
L 375.75185 176.395516 
L 377.791138 173.762997 
L 379.830425 166.565763 
L 381.869712 178.324033 
L 383.909 172.624764 
L 385.948287 170.061225 
L 387.987574 169.006911 
L 390.026862 172.120922 
L 392.066149 171.119486 
L 394.105436 172.984753 
L 396.144724 248.752336 
L 398.184011 165.315809 
L 400.223298 171.514353 
L 402.262586 170.775177 
L 404.301873 171.287298 
L 406.34116 166.946407 
L 408.380448 173.856993 
L 410.419735 167.416236 
L 412.459022 173.090613 
L 414.49831 165.942323 
L 416.537597 167.693544 
L 418.576884 161.217899 
L 420.616172 168.827688 
L 422.655459 168.002271 
L 424.694746 173.52364 
L 426.734034 166.699809 
L 428.773321 173.382639 
L 430.812608 175.869685 
L 432.851896 171.969856 
L 434.891183 174.062487 
L 436.930471 179.216485 
L 438.969758 170.755998 
L 441.009045 178.246863 
L 443.048333 171.659571 
L 445.08762 174.377729 
L 447.126907 175.840538 
L 449.166195 164.502256 
L 451.205482 170.553389 
L 455.284057 178.554771 
L 457.323344 181.333002 
L 459.362631 174.075146 
L 461.401919 173.138404 
L 463.441206 176.756378 
L 465.480493 176.960401 
L 467.519781 175.26865 
L 469.559068 175.083196 
L 471.598355 171.674242 
L 473.637643 176.512785 
L 475.67693 179.219087 
L 477.716217 179.941831 
L 479.755505 174.65787 
L 481.794792 177.319665 
L 483.834079 170.753712 
L 485.873367 175.763965 
L 487.912654 178.611966 
L 491.991229 169.078758 
L 494.030516 170.352238 
L 496.069804 175.361731 
L 498.109091 177.237513 
L 498.109091 177.237513 
" clip-path="url(#p0643892d31)" style="fill: none; stroke: #ff0000; stroke-opacity: 0.9; stroke-width: 1.5; stroke-linecap: square"/>
   </g>
   <g id="line2d_39">
    <path d="M 92.290909 177.440018 
L 96.369484 164.51535 
L 98.408771 164.222104 
L 100.448058 170.247169 
L 102.487346 166.473031 
L 104.526633 170.327258 
L 106.565921 163.585824 
L 108.605208 166.05851 
L 110.644495 175.510617 
L 112.683783 248.272131 
L 114.72307 162.669966 
L 116.762357 164.875957 
L 118.801645 170.620715 
L 120.840932 161.868516 
L 122.880219 168.711433 
L 124.919507 166.820121 
L 126.958794 180.047124 
L 128.998081 163.721898 
L 131.037369 168.536675 
L 133.076656 173.985336 
L 135.115943 168.194711 
L 137.155231 167.101184 
L 139.194518 166.492987 
L 141.233805 168.561829 
L 143.273093 165.300443 
L 145.31238 162.670846 
L 147.351667 161.566758 
L 149.390955 165.648521 
L 151.430242 162.709798 
L 153.469529 164.914206 
L 155.508817 167.912569 
L 157.548104 165.949044 
L 159.587392 166.227672 
L 161.626679 169.259483 
L 163.665966 168.658189 
L 165.705254 249.083028 
L 167.744541 162.234583 
L 169.783828 169.758035 
L 171.823116 167.357481 
L 173.862403 167.294227 
L 175.90169 173.629011 
L 177.940978 171.317471 
L 179.980265 186.0067 
L 182.019552 170.071782 
L 184.05884 173.079486 
L 186.098127 188.068019 
L 188.137414 173.499448 
L 190.176702 174.637523 
L 192.215989 197.281114 
L 194.255276 194.754569 
L 196.294564 190.336767 
L 198.333851 188.884437 
L 200.373138 172.161083 
L 202.412426 165.154959 
L 204.451713 168.179416 
L 206.491 166.650608 
L 208.530288 175.830563 
L 210.569575 166.513846 
L 212.608862 163.940146 
L 214.64815 170.064473 
L 216.687437 162.173877 
L 218.726725 168.242126 
L 220.766012 166.705702 
L 222.805299 171.365851 
L 224.844587 163.433907 
L 226.883874 177.416644 
L 228.923161 186.504413 
L 230.962449 167.024158 
L 233.001736 171.93733 
L 235.041023 166.749296 
L 237.080311 167.207705 
L 239.119598 169.382136 
L 241.158885 165.656962 
L 243.198173 170.628361 
L 245.23746 163.916239 
L 247.276747 165.856904 
L 249.316035 165.507898 
L 251.355322 169.380875 
L 253.394609 167.333625 
L 255.433897 162.948816 
L 257.473184 170.876128 
L 259.512471 164.449755 
L 261.551759 162.889835 
L 263.591046 166.044927 
L 265.630333 168.367095 
L 267.669621 163.870482 
L 269.708908 165.806778 
L 271.748196 165.459185 
L 273.787483 167.241526 
L 275.82677 162.766826 
L 277.866058 250.882234 
L 279.905345 167.796988 
L 281.944632 166.163334 
L 283.98392 163.945965 
L 286.023207 170.401809 
L 288.062494 171.119138 
L 290.101782 169.92696 
L 292.141069 171.913941 
L 294.180356 167.711658 
L 296.219644 168.513685 
L 298.258931 174.05875 
L 300.298218 170.407527 
L 302.337506 165.081174 
L 304.376793 171.10132 
L 306.41608 164.704528 
L 308.455368 168.985967 
L 310.494655 167.739054 
L 312.533942 164.662111 
L 314.57323 250.560038 
L 316.612517 161.282692 
L 318.651804 164.337359 
L 320.691092 163.559724 
L 322.730379 165.647286 
L 324.769667 165.359876 
L 326.808954 165.854341 
L 328.848241 168.06867 
L 330.887529 167.607752 
L 332.926816 164.113684 
L 334.966103 165.299648 
L 337.005391 162.335652 
L 339.044678 164.918559 
L 341.083965 163.814471 
L 343.123253 163.975609 
L 345.16254 165.402138 
L 347.201827 163.889909 
L 349.241115 250.060176 
L 351.280402 163.270834 
L 353.319689 164.586324 
L 355.358977 172.163432 
L 357.398264 169.031772 
L 359.437551 172.309674 
L 361.476839 166.9526 
L 363.516126 166.998072 
L 365.555413 169.247231 
L 367.594701 168.13485 
L 369.633988 171.441445 
L 371.673275 165.971238 
L 373.712563 172.628012 
L 375.75185 176.996095 
L 377.791138 173.81704 
L 379.830425 166.679217 
L 381.869712 178.455494 
L 383.909 170.396512 
L 385.948287 170.239501 
L 387.987574 169.206087 
L 390.026862 172.342351 
L 392.066149 171.711584 
L 394.105436 173.246288 
L 396.144724 247.196821 
L 398.184011 165.587672 
L 400.223298 172.118906 
L 402.262586 170.686685 
L 404.301873 170.175833 
L 406.34116 167.948831 
L 408.380448 172.910764 
L 410.419735 167.383744 
L 412.459022 172.629291 
L 414.49831 166.010215 
L 416.537597 167.751997 
L 418.576884 161.142686 
L 420.616172 168.781623 
L 422.655459 168.389053 
L 424.694746 171.244607 
L 426.734034 167.953529 
L 428.773321 173.289729 
L 430.812608 175.947284 
L 432.851896 171.081171 
L 434.891183 174.801575 
L 436.930471 178.285174 
L 438.969758 172.203977 
L 441.009045 178.528489 
L 443.048333 172.454563 
L 445.08762 174.189299 
L 447.126907 175.310157 
L 449.166195 164.35079 
L 451.205482 170.239031 
L 453.244769 173.20987 
L 455.284057 179.961363 
L 457.323344 180.43486 
L 459.362631 174.315653 
L 461.401919 174.408775 
L 463.441206 178.507952 
L 465.480493 175.179713 
L 467.519781 176.213777 
L 469.559068 175.454809 
L 471.598355 171.481742 
L 473.637643 175.721569 
L 475.67693 177.432672 
L 477.716217 180.103074 
L 479.755505 173.614407 
L 481.794792 176.833547 
L 483.834079 171.033608 
L 485.873367 174.007636 
L 487.912654 178.875343 
L 489.951942 172.857028 
L 491.991229 169.388735 
L 494.030516 169.622971 
L 496.069804 174.958223 
L 498.109091 175.811153 
L 498.109091 175.811153 
" clip-path="url(#p0643892d31)" style="fill: none; stroke: #ff0000; stroke-opacity: 0.9; stroke-width: 1.5; stroke-linecap: square"/>
   </g>
   <g id="line2d_40">
    <path d="M 92.290909 171.090271 
L 94.330196 169.370884 
L 96.369484 166.060515 
L 98.408771 164.023175 
L 100.448058 167.258812 
L 102.487346 165.402911 
L 104.526633 167.973574 
L 106.565921 163.882622 
L 108.605208 164.92251 
L 110.644495 174.784874 
L 112.683783 247.120676 
L 114.72307 162.297134 
L 116.762357 163.494887 
L 118.801645 169.828373 
L 120.840932 161.493868 
L 122.880219 168.076415 
L 124.919507 166.033616 
L 126.958794 180.358197 
L 128.998081 163.56653 
L 131.037369 166.419964 
L 133.076656 173.691152 
L 135.115943 167.417587 
L 139.194518 166.046759 
L 141.233805 167.639612 
L 143.273093 165.034236 
L 145.31238 162.028612 
L 147.351667 162.10401 
L 149.390955 164.662325 
L 151.430242 163.070504 
L 153.469529 163.917841 
L 155.508817 167.96854 
L 157.548104 164.353946 
L 159.587392 165.676734 
L 161.626679 168.735533 
L 163.665966 168.133362 
L 165.705254 247.29472 
L 167.744541 164.049217 
L 169.783828 168.090838 
L 171.823116 166.581314 
L 173.862403 166.989964 
L 175.90169 172.159044 
L 177.940978 171.27535 
L 179.980265 183.712124 
L 182.019552 169.229613 
L 184.05884 173.099487 
L 186.098127 188.644155 
L 188.137414 172.417187 
L 190.176702 174.508008 
L 192.215989 195.859896 
L 198.333851 187.115893 
L 200.373138 172.817969 
L 202.412426 165.059094 
L 204.451713 167.079437 
L 206.491 167.269557 
L 208.530288 173.660042 
L 210.569575 166.421522 
L 212.608862 163.86888 
L 214.64815 167.590385 
L 216.687437 161.456933 
L 218.726725 166.114551 
L 220.766012 166.863042 
L 222.805299 170.203613 
L 224.844587 162.972375 
L 226.883874 177.562309 
L 228.923161 186.443605 
L 230.962449 166.066759 
L 233.001736 170.662234 
L 235.041023 167.3951 
L 237.080311 166.447837 
L 239.119598 168.615794 
L 241.158885 165.821234 
L 243.198173 170.858291 
L 245.23746 162.30367 
L 247.276747 164.245841 
L 249.316035 165.409972 
L 251.355322 169.436501 
L 253.394609 165.797604 
L 255.433897 163.288579 
L 257.473184 169.412835 
L 259.512471 163.937265 
L 261.551759 162.695582 
L 263.591046 164.729005 
L 265.630333 168.045702 
L 267.669621 164.073505 
L 269.708908 165.145153 
L 271.748196 165.101108 
L 273.787483 166.818009 
L 275.82677 162.771446 
L 277.866058 247.852646 
L 279.905345 169.277161 
L 281.944632 164.71092 
L 283.98392 163.078727 
L 286.023207 170.262084 
L 288.062494 171.080039 
L 290.101782 169.332524 
L 292.141069 171.388644 
L 294.180356 166.784481 
L 296.219644 168.133292 
L 298.258931 174.833916 
L 300.298218 168.721184 
L 302.337506 166.311526 
L 304.376793 170.873128 
L 306.41608 163.929393 
L 308.455368 167.361231 
L 310.494655 167.039927 
L 312.533942 163.470166 
L 314.57323 247.657928 
L 316.612517 161.799414 
L 318.651804 162.525688 
L 320.691092 162.962166 
L 322.730379 164.985845 
L 324.769667 164.650599 
L 326.808954 164.791689 
L 328.848241 166.003428 
L 330.887529 166.713078 
L 332.926816 164.443611 
L 334.966103 166.083546 
L 337.005391 161.761084 
L 339.044678 163.199073 
L 341.083965 162.510684 
L 343.123253 163.391516 
L 345.16254 164.811475 
L 347.201827 164.030437 
L 349.241115 248.324558 
L 351.280402 164.495198 
L 353.319689 162.773736 
L 355.358977 170.686722 
L 357.398264 167.867962 
L 359.437551 172.484392 
L 361.476839 168.321353 
L 363.516126 167.48441 
L 365.555413 170.357461 
L 367.594701 167.510966 
L 369.633988 170.240496 
L 371.673275 165.503507 
L 373.712563 171.491256 
L 375.75185 176.492782 
L 377.791138 174.386211 
L 379.830425 166.152097 
L 381.869712 178.059868 
L 383.909 171.893677 
L 385.948287 169.973061 
L 387.987574 168.216107 
L 390.026862 171.519551 
L 394.105436 173.005271 
L 396.144724 247.897597 
L 398.184011 166.363139 
L 400.223298 170.648725 
L 402.262586 171.463894 
L 404.301873 171.097329 
L 406.34116 168.186614 
L 408.380448 172.932356 
L 410.419735 167.018051 
L 412.459022 171.216653 
L 414.49831 165.591337 
L 416.537597 166.495425 
L 418.576884 161.600375 
L 420.616172 168.870094 
L 422.655459 167.629902 
L 424.694746 171.551899 
L 426.734034 167.940545 
L 428.773321 172.08223 
L 430.812608 175.256315 
L 432.851896 172.257354 
L 434.891183 173.836815 
L 436.930471 178.234545 
L 438.969758 171.494848 
L 441.009045 178.154677 
L 443.048333 172.323046 
L 445.08762 174.432484 
L 447.126907 175.726226 
L 449.166195 164.100294 
L 451.205482 169.410797 
L 453.244769 172.775944 
L 455.284057 178.396126 
L 457.323344 179.574031 
L 459.362631 174.736719 
L 461.401919 173.413186 
L 463.441206 176.17891 
L 465.480493 175.365023 
L 467.519781 175.957654 
L 469.559068 175.9921 
L 471.598355 169.702819 
L 473.637643 175.066156 
L 475.67693 178.280225 
L 477.716217 178.542544 
L 479.755505 173.687752 
L 481.794792 176.70143 
L 483.834079 170.601998 
L 487.912654 177.639185 
L 489.951942 172.579953 
L 491.991229 169.356683 
L 494.030516 168.59613 
L 496.069804 174.522732 
L 498.109091 175.99922 
L 498.109091 175.99922 
" clip-path="url(#p0643892d31)" style="fill: none; stroke: #008000; stroke-opacity: 0.9; stroke-width: 1.5; stroke-linecap: square"/>
   </g>
   <g id="line2d_41">
    <path d="M 438.969758 256.32 
L 438.969758 155.52 
" clip-path="url(#p0643892d31)" style="fill: none; stroke-dasharray: 5.55,2.4; stroke-dashoffset: 0; stroke: #0000ff; stroke-width: 1.5"/>
   </g>
   <g id="line2d_42">
    <path d="M 153.469529 256.32 
L 153.469529 155.52 
" clip-path="url(#p0643892d31)" style="fill: none; stroke-dasharray: 5.55,2.4; stroke-dashoffset: 0; stroke: #000000; stroke-width: 1.5"/>
   </g>
   <g id="patch_8">
    <path d="M 72 256.32 
L 72 155.52 
" style="fill: none; stroke: #000000; stroke-width: 0.8; stroke-linejoin: miter; stroke-linecap: square"/>
   </g>
   <g id="patch_9">
    <path d="M 518.4 256.32 
L 518.4 155.52 
" style="fill: none; stroke: #000000; stroke-width: 0.8; stroke-linejoin: miter; stroke-linecap: square"/>
   </g>
   <g id="patch_10">
    <path d="M 72 256.32 
L 518.4 256.32 
" style="fill: none; stroke: #000000; stroke-width: 0.8; stroke-linejoin: miter; stroke-linecap: square"/>
   </g>
   <g id="patch_11">
    <path d="M 72 155.52 
L 518.4 155.52 
" style="fill: none; stroke: #000000; stroke-width: 0.8; stroke-linejoin: miter; stroke-linecap: square"/>
   </g>
  </g>
 </g>
 <defs>
  <clipPath id="p03e4993bc4">
   <rect x="72" y="34.56" width="446.4" height="100.8"/>
  </clipPath>
  <clipPath id="p0643892d31">
   <rect x="72" y="155.52" width="446.4" height="100.8"/>
  </clipPath>
 </defs>
</svg>
