<?xml version="1.0" encoding="utf-8" standalone="no"?>
<!DOCTYPE svg PUBLIC "-//W3C//DTD SVG 1.1//EN"
  "http://www.w3.org/Graphics/SVG/1.1/DTD/svg11.dtd">
<svg xmlns:xlink="http://www.w3.org/1999/xlink" width="576pt" height="288pt" viewBox="0 0 576 288" xmlns="http://www.w3.org/2000/svg" version="1.1">
 <metadata>
  <rdf:RDF xmlns:dc="http://purl.org/dc/elements/1.1/" xmlns:cc="http://creativecommons.org/ns#" xmlns:rdf="http://www.w3.org/1999/02/22-rdf-syntax-ns#">
   <cc:Work>
    <dc:type rdf:resource="http://purl.org/dc/dcmitype/StillImage"/>
    <dc:date>2025-05-07T09:55:07.987962</dc:date>
    <dc:format>image/svg+xml</dc:format>
    <dc:creator>
     <cc:Agent>
      <dc:title>Matplotlib v3.10.0, https://matplotlib.org/</dc:title>
     </cc:Agent>
    </dc:creator>
   </cc:Work>
  </rdf:RDF>
 </metadata>
 <defs>
  <style type="text/css">*{stroke-linejoin: round; stroke-linecap: butt}</style>
 </defs>
 <g id="figure_1">
  <g id="patch_1">
   <path d="M 0 288 
L 576 288 
L 576 0 
L 0 0 
z
" style="fill: #ffffff"/>
  </g>
  <g id="axes_1">
   <g id="patch_2">
    <path d="M 72 135.36 
L 518.4 135.36 
L 518.4 34.56 
L 72 34.56 
z
" style="fill: #ffffff"/>
   </g>
   <g id="matplotlib.axis_1">
    <g id="xtick_1">
     <g id="line2d_1">
      <defs>
       <path id="m575d212e62" d="M 0 0 
L 0 3.5 
" style="stroke: #000000; stroke-width: 0.8"/>
      </defs>
      <g>
       <use xlink:href="#m575d212e62" x="92.290909" y="135.36" style="stroke: #000000; stroke-width: 0.8"/>
      </g>
     </g>
    </g>
    <g id="xtick_2">
     <g id="line2d_2">
      <g>
       <use xlink:href="#m575d212e62" x="143.273093" y="135.36" style="stroke: #000000; stroke-width: 0.8"/>
      </g>
     </g>
    </g>
    <g id="xtick_3">
     <g id="line2d_3">
      <g>
       <use xlink:href="#m575d212e62" x="194.255276" y="135.36" style="stroke: #000000; stroke-width: 0.8"/>
      </g>
     </g>
    </g>
    <g id="xtick_4">
     <g id="line2d_4">
      <g>
       <use xlink:href="#m575d212e62" x="245.23746" y="135.36" style="stroke: #000000; stroke-width: 0.8"/>
      </g>
     </g>
    </g>
    <g id="xtick_5">
     <g id="line2d_5">
      <g>
       <use xlink:href="#m575d212e62" x="296.219644" y="135.36" style="stroke: #000000; stroke-width: 0.8"/>
      </g>
     </g>
    </g>
    <g id="xtick_6">
     <g id="line2d_6">
      <g>
       <use xlink:href="#m575d212e62" x="347.201827" y="135.36" style="stroke: #000000; stroke-width: 0.8"/>
      </g>
     </g>
    </g>
    <g id="xtick_7">
     <g id="line2d_7">
      <g>
       <use xlink:href="#m575d212e62" x="398.184011" y="135.36" style="stroke: #000000; stroke-width: 0.8"/>
      </g>
     </g>
    </g>
    <g id="xtick_8">
     <g id="line2d_8">
      <g>
       <use xlink:href="#m575d212e62" x="449.166195" y="135.36" style="stroke: #000000; stroke-width: 0.8"/>
      </g>
     </g>
    </g>
    <g id="xtick_9">
     <g id="line2d_9">
      <g>
       <use xlink:href="#m575d212e62" x="500.148378" y="135.36" style="stroke: #000000; stroke-width: 0.8"/>
      </g>
     </g>
    </g>
   </g>
   <g id="matplotlib.axis_2">
    <g id="ytick_1">
     <g id="line2d_10">
      <defs>
       <path id="m109917227b" d="M 0 0 
L -3.5 0 
" style="stroke: #000000; stroke-width: 0.8"/>
      </defs>
      <g>
       <use xlink:href="#m109917227b" x="72" y="113.211199" style="stroke: #000000; stroke-width: 0.8"/>
      </g>
     </g>
     <g id="text_1">
      <!-- −150 -->
      <g transform="translate(37.532812 117.010418) scale(0.1 -0.1)">
       <defs>
        <path id="DejaVuSans-2212" d="M 678 2272 
L 4684 2272 
L 4684 1741 
L 678 1741 
L 678 2272 
z
" transform="scale(0.015625)"/>
        <path id="DejaVuSans-31" d="M 794 531 
L 1825 531 
L 1825 4091 
L 703 3866 
L 703 4441 
L 1819 4666 
L 2450 4666 
L 2450 531 
L 3481 531 
L 3481 0 
L 794 0 
L 794 531 
z
" transform="scale(0.015625)"/>
        <path id="DejaVuSans-35" d="M 691 4666 
L 3169 4666 
L 3169 4134 
L 1269 4134 
L 1269 2991 
Q 1406 3038 1543 3061 
Q 1681 3084 1819 3084 
Q 2600 3084 3056 2656 
Q 3513 2228 3513 1497 
Q 3513 744 3044 326 
Q 2575 -91 1722 -91 
Q 1428 -91 1123 -41 
Q 819 9 494 109 
L 494 744 
Q 775 591 1075 516 
Q 1375 441 1709 441 
Q 2250 441 2565 725 
Q 2881 1009 2881 1497 
Q 2881 1984 2565 2268 
Q 2250 2553 1709 2553 
Q 1456 2553 1204 2497 
Q 953 2441 691 2322 
L 691 4666 
z
" transform="scale(0.015625)"/>
        <path id="DejaVuSans-30" d="M 2034 4250 
Q 1547 4250 1301 3770 
Q 1056 3291 1056 2328 
Q 1056 1369 1301 889 
Q 1547 409 2034 409 
Q 2525 409 2770 889 
Q 3016 1369 3016 2328 
Q 3016 3291 2770 3770 
Q 2525 4250 2034 4250 
z
M 2034 4750 
Q 2819 4750 3233 4129 
Q 3647 3509 3647 2328 
Q 3647 1150 3233 529 
Q 2819 -91 2034 -91 
Q 1250 -91 836 529 
Q 422 1150 422 2328 
Q 422 3509 836 4129 
Q 1250 4750 2034 4750 
z
" transform="scale(0.015625)"/>
       </defs>
       <use xlink:href="#DejaVuSans-2212"/>
       <use xlink:href="#DejaVuSans-31" transform="translate(83.789062 0)"/>
       <use xlink:href="#DejaVuSans-35" transform="translate(147.412109 0)"/>
       <use xlink:href="#DejaVuSans-30" transform="translate(211.035156 0)"/>
      </g>
     </g>
    </g>
    <g id="ytick_2">
     <g id="line2d_11">
      <g>
       <use xlink:href="#m109917227b" x="72" y="76.548541" style="stroke: #000000; stroke-width: 0.8"/>
      </g>
     </g>
     <g id="text_2">
      <!-- −100 -->
      <g transform="translate(37.532812 80.347759) scale(0.1 -0.1)">
       <use xlink:href="#DejaVuSans-2212"/>
       <use xlink:href="#DejaVuSans-31" transform="translate(83.789062 0)"/>
       <use xlink:href="#DejaVuSans-30" transform="translate(147.412109 0)"/>
       <use xlink:href="#DejaVuSans-30" transform="translate(211.035156 0)"/>
      </g>
     </g>
    </g>
    <g id="ytick_3">
     <g id="line2d_12">
      <g>
       <use xlink:href="#m109917227b" x="72" y="39.885882" style="stroke: #000000; stroke-width: 0.8"/>
      </g>
     </g>
     <g id="text_3">
      <!-- −50 -->
      <g transform="translate(43.895313 43.685101) scale(0.1 -0.1)">
       <use xlink:href="#DejaVuSans-2212"/>
       <use xlink:href="#DejaVuSans-35" transform="translate(83.789062 0)"/>
       <use xlink:href="#DejaVuSans-30" transform="translate(147.412109 0)"/>
      </g>
     </g>
    </g>
   </g>
   <g id="line2d_13">
    <path d="M 92.290909 60.091585 
L 94.330196 102.258062 
L 96.369484 130.778182 
L 98.408771 104.025675 
L 100.448058 85.837134 
L 102.487346 102.275001 
L 104.526633 96.749668 
L 106.565921 66.62912 
L 108.605208 113.173561 
L 110.644495 48.825012 
L 112.683783 80.217693 
L 114.72307 121.460196 
L 116.762357 118.255525 
L 118.801645 108.528218 
L 120.840932 63.962551 
L 122.880219 113.764305 
L 124.919507 68.833556 
L 126.958794 66.722013 
L 128.998081 85.903454 
L 131.037369 65.530588 
L 133.076656 51.681926 
L 135.115943 50.960437 
L 137.155231 105.489238 
L 139.194518 106.573711 
L 141.233805 120.859785 
L 143.273093 118.481669 
L 145.31238 114.776164 
L 147.351667 111.412672 
L 149.390955 115.741032 
L 151.430242 109.586252 
L 153.469529 104.478957 
L 155.508817 109.958977 
L 157.548104 124.347403 
L 159.587392 106.55139 
L 161.626679 117.755207 
L 163.665966 96.253332 
L 165.705254 93.134936 
L 167.744541 107.764375 
L 169.783828 51.503541 
L 171.823116 55.136857 
L 173.862403 74.930508 
L 175.90169 50.742635 
L 177.940978 42.408051 
L 179.980265 68.79862 
L 182.019552 66.778347 
L 184.05884 68.000484 
L 186.098127 66.396907 
L 188.137414 56.678897 
L 190.176702 66.826844 
L 192.215989 61.359433 
L 194.255276 49.094021 
L 196.294564 70.804717 
L 198.333851 75.073492 
L 200.373138 92.114769 
L 202.412426 70.976282 
L 204.451713 53.775814 
L 206.491 45.681708 
L 208.530288 75.761235 
L 210.569575 57.708759 
L 212.608862 105.384569 
L 214.64815 103.812387 
L 216.687437 91.947405 
L 218.726725 90.741833 
L 220.766012 106.928433 
L 222.805299 117.554943 
L 224.844587 115.685223 
L 226.883874 67.17299 
L 228.923161 59.295486 
L 230.962449 81.048147 
L 233.001736 70.756225 
L 235.041023 45.371474 
L 237.080311 57.323973 
L 239.119598 55.703076 
L 241.158885 72.949602 
L 243.198173 53.858133 
L 245.23746 80.201962 
L 247.276747 52.734954 
L 249.316035 96.397441 
L 251.355322 73.688634 
L 253.394609 106.061153 
L 257.473184 71.057511 
L 259.512471 62.105134 
L 261.551759 58.383003 
L 263.591046 68.723405 
L 265.630333 71.258888 
L 269.708908 54.502426 
L 271.748196 40.821679 
L 273.787483 59.363389 
L 275.82677 49.04729 
L 277.866058 64.326448 
L 279.905345 55.36625 
L 281.944632 77.315572 
L 283.98392 63.477365 
L 286.023207 58.827648 
L 288.062494 57.983147 
L 290.101782 65.332775 
L 292.141069 76.988782 
L 294.180356 56.161169 
L 296.219644 40.485379 
L 298.258931 80.240708 
L 300.298218 56.196614 
L 302.337506 64.491899 
L 304.376793 62.647353 
L 306.41608 46.12426 
L 308.455368 46.95562 
L 310.494655 51.890503 
L 312.533942 59.394645 
L 314.57323 69.207204 
L 316.612517 39.512713 
L 318.651804 57.160313 
L 320.691092 48.699337 
L 322.730379 45.223067 
L 324.769667 57.915445 
L 326.808954 61.366728 
L 328.848241 49.039309 
L 330.887529 43.014532 
L 332.926816 49.510006 
L 334.966103 43.907583 
L 337.005391 56.514917 
L 339.044678 47.815911 
L 341.083965 51.60223 
L 343.123253 53.711457 
L 345.16254 49.592704 
L 347.201827 54.833977 
L 349.241115 53.273459 
L 351.280402 40.05243 
L 353.319689 50.855494 
L 355.358977 52.531417 
L 357.398264 63.411716 
L 359.437551 79.321803 
L 361.476839 48.849182 
L 363.516126 55.086318 
L 365.555413 44.645102 
L 367.594701 70.357191 
L 369.633988 53.678009 
L 371.673275 59.666129 
L 373.712563 55.656341 
L 375.75185 67.000406 
L 377.791138 52.116557 
L 379.830425 88.404807 
L 381.869712 67.182914 
L 383.909 67.128169 
L 385.948287 99.583471 
L 387.987574 70.932289 
L 390.026862 76.794275 
L 392.066149 64.342705 
L 394.105436 60.853257 
L 396.144724 96.062819 
L 398.184011 83.688377 
L 400.223298 83.814025 
L 402.262586 58.899171 
L 404.301873 78.022129 
L 406.34116 73.188326 
L 408.380448 67.719747 
L 410.419735 50.083034 
L 412.459022 70.388402 
L 414.49831 105.772812 
L 416.537597 75.166256 
L 418.576884 110.675123 
L 420.616172 98.558667 
L 422.655459 80.793725 
L 424.694746 79.220351 
L 426.734034 69.036091 
L 428.773321 69.333075 
L 430.812608 64.716794 
L 432.851896 63.001091 
L 434.891183 66.978158 
L 436.930471 58.398086 
L 438.969758 63.875616 
L 441.009045 71.567312 
L 443.048333 48.350808 
L 445.08762 64.48673 
L 447.126907 69.507236 
L 449.166195 67.285206 
L 451.205482 55.865864 
L 453.244769 60.767083 
L 455.284057 61.436696 
L 457.323344 56.803918 
L 459.362631 55.347364 
L 463.441206 59.750933 
L 465.480493 62.506243 
L 467.519781 63.78881 
L 469.559068 55.909729 
L 471.598355 68.859804 
L 473.637643 69.854998 
L 475.67693 71.871254 
L 477.716217 52.097665 
L 479.755505 65.567276 
L 481.794792 56.600868 
L 483.834079 64.28641 
L 485.873367 69.145336 
L 487.912654 68.543325 
L 489.951942 46.201978 
L 491.991229 50.674279 
L 494.030516 45.212798 
L 496.069804 62.380316 
L 498.109091 58.620671 
L 498.109091 58.620671 
" clip-path="url(#pbeaf087285)" style="fill: none; stroke: #ff0000; stroke-opacity: 0.9; stroke-width: 1.5; stroke-linecap: square"/>
   </g>
   <g id="line2d_14">
    <path d="M 92.290909 64.092859 
L 94.330196 103.652603 
L 96.369484 124.864941 
L 98.408771 101.298509 
L 100.448058 83.864586 
L 102.487346 103.758794 
L 104.526633 95.786982 
L 106.565921 68.786296 
L 108.605208 112.478897 
L 110.644495 47.879655 
L 112.683783 80.859603 
L 114.72307 118.083177 
L 116.762357 118.930453 
L 118.801645 110.552351 
L 120.840932 68.241721 
L 122.880219 114.952284 
L 124.919507 71.677916 
L 126.958794 67.990728 
L 128.998081 85.214049 
L 131.037369 62.286758 
L 133.076656 49.523041 
L 135.115943 53.079863 
L 137.155231 107.035172 
L 139.194518 104.856738 
L 141.233805 123.093446 
L 143.273093 116.224702 
L 145.31238 115.703125 
L 147.351667 115.766396 
L 149.390955 112.45417 
L 151.430242 106.747503 
L 153.469529 104.517546 
L 155.508817 107.349224 
L 157.548104 125.660268 
L 159.587392 105.28225 
L 161.626679 118.505892 
L 163.665966 96.814158 
L 165.705254 94.583876 
L 167.744541 106.62058 
L 169.783828 46.870758 
L 171.823116 55.595168 
L 173.862403 72.679974 
L 175.90169 51.270528 
L 177.940978 45.840431 
L 179.980265 69.46844 
L 182.019552 67.655698 
L 184.05884 71.166672 
L 186.098127 62.804083 
L 188.137414 56.692497 
L 190.176702 68.021524 
L 192.215989 60.308185 
L 194.255276 47.87483 
L 196.294564 66.292702 
L 198.333851 73.338147 
L 200.373138 95.712695 
L 202.412426 68.004484 
L 204.451713 55.129198 
L 206.491 43.712757 
L 208.530288 75.197925 
L 210.569575 59.49942 
L 212.608862 106.899019 
L 214.64815 105.133476 
L 216.687437 91.211512 
L 218.726725 92.136481 
L 220.766012 107.537874 
L 222.805299 121.273157 
L 224.844587 114.990325 
L 226.883874 66.372829 
L 228.923161 57.10913 
L 230.962449 79.805674 
L 233.001736 72.881911 
L 235.041023 43.526263 
L 237.080311 60.790937 
L 239.119598 52.710417 
L 241.158885 75.593698 
L 243.198173 54.509453 
L 245.23746 84.50272 
L 247.276747 51.839399 
L 249.316035 94.582332 
L 251.355322 77.46664 
L 253.394609 110.964358 
L 255.433897 88.085054 
L 257.473184 69.033764 
L 259.512471 66.850553 
L 261.551759 58.744114 
L 263.591046 68.025496 
L 265.630333 69.38443 
L 267.669621 59.051083 
L 269.708908 51.819741 
L 271.748196 41.744587 
L 273.787483 60.052879 
L 275.82677 52.714176 
L 277.866058 66.276384 
L 279.905345 58.490218 
L 281.944632 80.276668 
L 283.98392 62.802052 
L 286.023207 60.273192 
L 288.062494 53.277268 
L 290.101782 69.228876 
L 292.141069 72.84406 
L 294.180356 51.513851 
L 296.219644 44.646557 
L 298.258931 78.183569 
L 300.298218 55.01432 
L 302.337506 61.451459 
L 304.376793 61.288084 
L 306.41608 46.588149 
L 308.455368 48.590092 
L 310.494655 50.873363 
L 314.57323 69.197979 
L 316.612517 39.896679 
L 318.651804 59.517014 
L 320.691092 46.646186 
L 322.730379 42.574666 
L 324.769667 56.565523 
L 326.808954 65.364338 
L 328.848241 49.112516 
L 330.887529 46.484288 
L 332.926816 51.789795 
L 334.966103 47.214579 
L 337.005391 56.325786 
L 339.044678 48.893215 
L 341.083965 48.000905 
L 343.123253 53.631123 
L 345.16254 52.36304 
L 347.201827 51.897513 
L 349.241115 56.546872 
L 351.280402 43.874342 
L 353.319689 49.722659 
L 355.358977 54.71803 
L 357.398264 63.70757 
L 359.437551 85.241203 
L 361.476839 48.076626 
L 363.516126 60.529394 
L 365.555413 46.417596 
L 367.594701 68.898164 
L 369.633988 52.625529 
L 371.673275 60.332514 
L 373.712563 52.084501 
L 375.75185 70.906639 
L 377.791138 49.348494 
L 379.830425 86.301179 
L 381.869712 63.89631 
L 383.909 69.914964 
L 385.948287 98.292043 
L 387.987574 72.490854 
L 390.026862 77.938758 
L 392.066149 62.210474 
L 394.105436 65.094498 
L 396.144724 95.42511 
L 398.184011 83.587854 
L 400.223298 83.465423 
L 402.262586 59.287883 
L 404.301873 81.499029 
L 406.34116 72.859439 
L 408.380448 69.103956 
L 410.419735 51.209724 
L 412.459022 70.197525 
L 414.49831 107.447381 
L 416.537597 75.761817 
L 418.576884 110.577077 
L 420.616172 99.739663 
L 422.655459 80.803123 
L 424.694746 77.577132 
L 426.734034 68.720954 
L 428.773321 65.453583 
L 430.812608 63.090471 
L 432.851896 58.764919 
L 434.891183 66.666109 
L 436.930471 59.833096 
L 438.969758 59.741898 
L 441.009045 69.454935 
L 443.048333 47.692322 
L 445.08762 60.512728 
L 447.126907 68.672016 
L 449.166195 65.839801 
L 451.205482 55.587772 
L 453.244769 64.266858 
L 455.284057 62.319607 
L 457.323344 55.869511 
L 459.362631 51.380534 
L 461.401919 61.194346 
L 463.441206 56.640442 
L 465.480493 61.932041 
L 467.519781 59.390477 
L 469.559068 55.317591 
L 471.598355 64.499608 
L 473.637643 68.791985 
L 475.67693 71.514015 
L 477.716217 50.280464 
L 479.755505 64.639079 
L 481.794792 61.865262 
L 483.834079 61.371567 
L 485.873367 65.836987 
L 487.912654 66.56473 
L 489.951942 50.166285 
L 491.991229 53.365311 
L 494.030516 44.709168 
L 496.069804 61.94893 
L 498.109091 58.055996 
L 498.109091 58.055996 
" clip-path="url(#pbeaf087285)" style="fill: none; stroke: #ff0000; stroke-opacity: 0.9; stroke-width: 1.5; stroke-linecap: square"/>
   </g>
   <g id="line2d_15">
    <path d="M 92.290909 59.300152 
L 94.330196 100.676381 
L 96.369484 124.482885 
L 98.408771 104.160318 
L 100.448058 84.965484 
L 102.487346 103.842227 
L 104.526633 99.324042 
L 106.565921 70.43611 
L 108.605208 114.349455 
L 110.644495 44.323199 
L 112.683783 78.748809 
L 114.72307 123.607302 
L 116.762357 117.835373 
L 118.801645 111.219703 
L 120.840932 71.359854 
L 122.880219 112.81678 
L 124.919507 69.787229 
L 126.958794 65.43317 
L 128.998081 84.054741 
L 131.037369 62.836569 
L 133.076656 55.318206 
L 135.115943 54.489884 
L 137.155231 106.539575 
L 139.194518 106.712024 
L 141.233805 121.135068 
L 143.273093 120.255927 
L 147.351667 113.283499 
L 149.390955 114.499796 
L 151.430242 108.121514 
L 153.469529 102.698253 
L 155.508817 108.805403 
L 157.548104 124.872885 
L 159.587392 106.686917 
L 161.626679 120.455386 
L 163.665966 97.568491 
L 165.705254 92.364291 
L 167.744541 107.356977 
L 169.783828 50.417104 
L 171.823116 56.619687 
L 173.862403 71.394454 
L 175.90169 47.057344 
L 177.940978 47.542325 
L 179.980265 70.876379 
L 182.019552 69.379742 
L 184.05884 68.243226 
L 186.098127 62.555898 
L 188.137414 59.51514 
L 190.176702 63.497896 
L 192.215989 62.401368 
L 194.255276 49.561278 
L 196.294564 68.898472 
L 198.333851 72.715308 
L 200.373138 94.654627 
L 202.412426 69.547352 
L 204.451713 54.912073 
L 206.491 46.271138 
L 208.530288 72.856597 
L 210.569575 57.609975 
L 212.608862 107.058937 
L 214.64815 104.587452 
L 216.687437 89.513011 
L 218.726725 89.682998 
L 220.766012 108.27275 
L 222.805299 118.482966 
L 224.844587 116.942582 
L 226.883874 69.771213 
L 228.923161 59.720472 
L 230.962449 78.058889 
L 233.001736 73.815915 
L 235.041023 43.351369 
L 237.080311 60.488354 
L 239.119598 55.583817 
L 241.158885 73.415969 
L 243.198173 52.577139 
L 245.23746 81.192513 
L 247.276747 48.834391 
L 249.316035 96.231906 
L 251.355322 74.026534 
L 253.394609 110.439055 
L 255.433897 87.092104 
L 257.473184 69.555117 
L 259.512471 62.154056 
L 261.551759 60.094718 
L 263.591046 64.846923 
L 265.630333 67.909857 
L 267.669621 61.753528 
L 269.708908 49.941795 
L 271.748196 43.668831 
L 273.787483 62.721366 
L 275.82677 47.427721 
L 277.866058 65.18828 
L 279.905345 54.587448 
L 281.944632 75.053481 
L 283.98392 64.702736 
L 286.023207 57.578015 
L 288.062494 56.268383 
L 290.101782 70.688775 
L 292.141069 73.475022 
L 294.180356 55.004921 
L 296.219644 46.73332 
L 298.258931 80.659193 
L 300.298218 56.589534 
L 302.337506 61.886045 
L 304.376793 59.234811 
L 306.41608 45.259653 
L 308.455368 47.628612 
L 310.494655 52.629591 
L 314.57323 68.686511 
L 316.612517 39.833416 
L 318.651804 58.138125 
L 320.691092 49.8398 
L 322.730379 44.676352 
L 324.769667 55.854418 
L 326.808954 60.251224 
L 328.848241 44.785686 
L 330.887529 44.578167 
L 332.926816 48.140894 
L 334.966103 46.184217 
L 337.005391 57.476635 
L 339.044678 47.845698 
L 341.083965 48.354377 
L 343.123253 52.745957 
L 345.16254 46.392184 
L 347.201827 53.904331 
L 349.241115 57.035359 
L 351.280402 42.71313 
L 353.319689 54.578772 
L 355.358977 53.670082 
L 357.398264 63.521622 
L 359.437551 82.070384 
L 361.476839 51.26405 
L 363.516126 58.678594 
L 365.555413 44.337143 
L 367.594701 71.374248 
L 369.633988 55.744367 
L 371.673275 60.816391 
L 373.712563 54.0997 
L 375.75185 67.728658 
L 377.791138 48.869565 
L 379.830425 89.559471 
L 381.869712 67.489402 
L 383.909 72.603288 
L 385.948287 98.211519 
L 387.987574 71.122388 
L 390.026862 76.774057 
L 392.066149 63.920024 
L 394.105436 64.223015 
L 396.144724 94.540761 
L 398.184011 84.151427 
L 400.223298 80.703008 
L 402.262586 54.193824 
L 404.301873 78.776579 
L 406.34116 75.513409 
L 408.380448 64.611393 
L 410.419735 50.531491 
L 412.459022 66.800243 
L 414.49831 105.916205 
L 416.537597 77.768826 
L 418.576884 110.15434 
L 420.616172 99.907548 
L 422.655459 85.486529 
L 424.694746 78.04252 
L 426.734034 63.967055 
L 428.773321 66.632689 
L 430.812608 59.507817 
L 432.851896 58.727007 
L 434.891183 66.213062 
L 436.930471 57.854053 
L 438.969758 58.967337 
L 441.009045 71.026507 
L 443.048333 45.875144 
L 445.08762 60.829051 
L 447.126907 67.941067 
L 449.166195 65.531215 
L 451.205482 54.830111 
L 453.244769 65.919765 
L 455.284057 61.818813 
L 457.323344 55.04873 
L 459.362631 54.03828 
L 461.401919 60.306428 
L 463.441206 65.208621 
L 465.480493 61.627601 
L 467.519781 63.154234 
L 469.559068 56.528819 
L 471.598355 63.575086 
L 473.637643 69.590311 
L 475.67693 70.678381 
L 477.716217 49.515696 
L 479.755505 65.123912 
L 481.794792 59.223879 
L 485.873367 64.564775 
L 487.912654 68.665448 
L 489.951942 45.464454 
L 491.991229 53.262617 
L 494.030516 47.672818 
L 496.069804 63.324457 
L 498.109091 58.421984 
L 498.109091 58.421984 
" clip-path="url(#pbeaf087285)" style="fill: none; stroke: #ff0000; stroke-opacity: 0.9; stroke-width: 1.5; stroke-linecap: square"/>
   </g>
   <g id="line2d_16">
    <path d="M 92.290909 61.75651 
L 94.330196 102.466191 
L 96.369484 127.654583 
L 98.408771 100.611207 
L 100.448058 90.487019 
L 102.487346 103.074133 
L 104.526633 91.519303 
L 106.565921 68.287901 
L 108.605208 109.845883 
L 110.644495 45.706558 
L 114.72307 117.021864 
L 116.762357 119.263704 
L 118.801645 110.523853 
L 120.840932 67.460737 
L 122.880219 115.002386 
L 124.919507 72.906123 
L 126.958794 67.539566 
L 128.998081 89.031483 
L 131.037369 64.634514 
L 133.076656 56.389813 
L 135.115943 52.59847 
L 137.155231 105.830847 
L 139.194518 102.427356 
L 141.233805 124.477403 
L 143.273093 118.489433 
L 145.31238 116.777294 
L 147.351667 111.158983 
L 149.390955 116.610785 
L 151.430242 106.90854 
L 153.469529 103.569562 
L 155.508817 109.901546 
L 157.548104 124.502521 
L 159.587392 111.015277 
L 161.626679 120.433009 
L 163.665966 95.462877 
L 165.705254 90.952043 
L 167.744541 109.071131 
L 169.783828 48.458436 
L 171.823116 55.249229 
L 173.862403 75.354118 
L 175.90169 48.696086 
L 177.940978 45.171686 
L 179.980265 70.788197 
L 182.019552 64.453326 
L 184.05884 70.288432 
L 186.098127 65.578968 
L 188.137414 55.559225 
L 190.176702 64.478517 
L 192.215989 58.496511 
L 194.255276 49.972513 
L 196.294564 68.87478 
L 198.333851 72.810086 
L 200.373138 93.858992 
L 204.451713 53.170832 
L 206.491 49.517752 
L 208.530288 74.558085 
L 210.569575 57.415205 
L 212.608862 108.726423 
L 214.64815 105.160966 
L 216.687437 88.828545 
L 218.726725 89.222449 
L 220.766012 110.692185 
L 222.805299 119.548799 
L 224.844587 117.161833 
L 226.883874 66.260132 
L 228.923161 59.120514 
L 230.962449 79.972149 
L 233.001736 74.684841 
L 235.041023 44.638434 
L 237.080311 62.348289 
L 239.119598 50.685294 
L 241.158885 74.780223 
L 243.198173 50.132434 
L 245.23746 80.401974 
L 247.276747 51.227419 
L 249.316035 93.819642 
L 251.355322 78.15939 
L 253.394609 109.617715 
L 257.473184 67.527399 
L 259.512471 66.887413 
L 261.551759 55.957901 
L 263.591046 68.736009 
L 265.630333 68.760707 
L 267.669621 57.378545 
L 269.708908 52.4856 
L 271.748196 42.149246 
L 273.787483 61.293577 
L 275.82677 49.171362 
L 277.866058 67.549412 
L 279.905345 57.890136 
L 281.944632 77.543488 
L 283.98392 61.871992 
L 286.023207 60.498356 
L 288.062494 53.234869 
L 290.101782 69.61148 
L 292.141069 71.858035 
L 294.180356 53.789251 
L 296.219644 44.023234 
L 298.258931 82.429771 
L 300.298218 55.474287 
L 302.337506 63.166989 
L 304.376793 59.535095 
L 306.41608 43.504191 
L 308.455368 48.926333 
L 310.494655 50.290159 
L 312.533942 57.261189 
L 314.57323 72.20464 
L 316.612517 42.023252 
L 318.651804 59.304957 
L 320.691092 44.534453 
L 322.730379 43.27303 
L 326.808954 64.730993 
L 328.848241 46.859396 
L 330.887529 46.184057 
L 332.926816 48.063086 
L 334.966103 45.185216 
L 337.005391 54.650624 
L 339.044678 47.557469 
L 341.083965 52.320166 
L 343.123253 54.221694 
L 345.16254 45.685744 
L 347.201827 53.308714 
L 349.241115 52.789822 
L 351.280402 40.158284 
L 353.319689 53.354923 
L 355.358977 54.162652 
L 357.398264 64.177092 
L 359.437551 83.314137 
L 361.476839 53.846274 
L 363.516126 55.804707 
L 365.555413 43.826877 
L 367.594701 70.022771 
L 369.633988 54.036597 
L 371.673275 58.404234 
L 373.712563 55.458013 
L 375.75185 69.145314 
L 377.791138 53.72932 
L 379.830425 88.841132 
L 381.869712 66.752569 
L 383.909 71.986927 
L 385.948287 99.326694 
L 387.987574 70.273395 
L 390.026862 77.149355 
L 392.066149 62.850118 
L 394.105436 64.001857 
L 396.144724 96.12581 
L 398.184011 81.195293 
L 400.223298 82.173587 
L 402.262586 58.095631 
L 404.301873 78.236435 
L 406.34116 71.343563 
L 408.380448 66.154177 
L 410.419735 49.150842 
L 412.459022 72.826852 
L 414.49831 105.861918 
L 416.537597 79.831817 
L 418.576884 111.577457 
L 420.616172 96.832233 
L 422.655459 83.063278 
L 424.694746 82.415069 
L 426.734034 66.700424 
L 428.773321 65.615828 
L 430.812608 64.334918 
L 432.851896 62.731346 
L 434.891183 70.593555 
L 436.930471 60.165268 
L 438.969758 61.18944 
L 441.009045 69.827693 
L 443.048333 49.149366 
L 445.08762 61.869542 
L 447.126907 66.349339 
L 449.166195 68.249038 
L 451.205482 56.534386 
L 453.244769 61.873374 
L 455.284057 61.688243 
L 457.323344 55.983293 
L 459.362631 53.487362 
L 461.401919 60.222374 
L 463.441206 61.34114 
L 465.480493 60.649626 
L 467.519781 60.300974 
L 469.559068 53.20442 
L 471.598355 68.137958 
L 473.637643 67.659491 
L 475.67693 69.903837 
L 477.716217 51.32317 
L 479.755505 63.465897 
L 481.794792 61.626901 
L 483.834079 63.699839 
L 485.873367 67.527074 
L 487.912654 67.000804 
L 489.951942 45.992596 
L 491.991229 50.429546 
L 494.030516 48.690151 
L 496.069804 61.20747 
L 498.109091 55.455686 
L 498.109091 55.455686 
" clip-path="url(#pbeaf087285)" style="fill: none; stroke: #ff0000; stroke-opacity: 0.9; stroke-width: 1.5; stroke-linecap: square"/>
   </g>
   <g id="line2d_17">
    <path d="M 92.290909 58.537327 
L 94.330196 100.674478 
L 96.369484 127.220904 
L 98.408771 103.172816 
L 100.448058 86.837961 
L 102.487346 102.446589 
L 104.526633 97.987491 
L 106.565921 66.939641 
L 108.605208 115.789322 
L 110.644495 47.828786 
L 112.683783 78.620135 
L 114.72307 122.513509 
L 116.762357 117.658437 
L 118.801645 111.293995 
L 120.840932 65.059875 
L 122.880219 111.406821 
L 124.919507 66.85566 
L 126.958794 66.730874 
L 128.998081 84.638946 
L 131.037369 63.86624 
L 133.076656 53.883448 
L 135.115943 53.235938 
L 137.155231 104.587832 
L 139.194518 105.592095 
L 141.233805 121.144355 
L 143.273093 118.54014 
L 145.31238 115.384833 
L 147.351667 113.57316 
L 149.390955 110.80425 
L 151.430242 105.087457 
L 153.469529 105.141946 
L 155.508817 111.065693 
L 157.548104 126.698443 
L 159.587392 107.220343 
L 161.626679 117.492723 
L 163.665966 95.389005 
L 165.705254 89.364706 
L 167.744541 110.308753 
L 169.783828 45.656654 
L 171.823116 53.314185 
L 173.862403 72.726256 
L 175.90169 49.596214 
L 177.940978 40.503835 
L 179.980265 69.261686 
L 182.019552 67.960295 
L 184.05884 69.39078 
L 186.098127 65.658412 
L 188.137414 57.580404 
L 190.176702 67.082228 
L 192.215989 61.35813 
L 194.255276 45.000305 
L 196.294564 65.843264 
L 198.333851 77.266158 
L 200.373138 94.350662 
L 202.412426 70.19291 
L 204.451713 53.289257 
L 206.491 42.299682 
L 208.530288 78.888157 
L 210.569575 55.620163 
L 212.608862 111.578252 
L 214.64815 107.90082 
L 216.687437 89.935021 
L 218.726725 90.847956 
L 220.766012 107.750043 
L 222.805299 120.044408 
L 224.844587 117.594136 
L 226.883874 65.072255 
L 228.923161 59.385666 
L 230.962449 75.80011 
L 233.001736 72.440316 
L 235.041023 43.378376 
L 237.080311 56.980831 
L 239.119598 55.196453 
L 241.158885 74.59159 
L 243.198173 51.880215 
L 245.23746 80.40791 
L 247.276747 51.294114 
L 249.316035 95.824945 
L 251.355322 76.505129 
L 253.394609 105.441183 
L 255.433897 93.877705 
L 257.473184 68.064539 
L 261.551759 58.88575 
L 263.591046 66.344075 
L 265.630333 68.463763 
L 269.708908 50.504711 
L 271.748196 41.611949 
L 273.787483 61.901625 
L 275.82677 47.090316 
L 277.866058 65.218786 
L 279.905345 59.184333 
L 281.944632 79.878383 
L 283.98392 63.58934 
L 286.023207 58.23824 
L 288.062494 53.476235 
L 290.101782 67.559124 
L 292.141069 72.481344 
L 294.180356 54.369064 
L 296.219644 41.198266 
L 298.258931 77.806213 
L 300.298218 56.424525 
L 302.337506 63.490255 
L 304.376793 60.650079 
L 306.41608 48.202201 
L 308.455368 47.024488 
L 310.494655 49.365691 
L 312.533942 56.736249 
L 314.57323 72.082741 
L 316.612517 39.141818 
L 318.651804 55.715697 
L 320.691092 47.712134 
L 322.730379 46.801439 
L 324.769667 55.519891 
L 326.808954 60.201893 
L 328.848241 49.587767 
L 330.887529 44.451053 
L 332.926816 48.453177 
L 334.966103 44.399399 
L 337.005391 54.842033 
L 339.044678 45.643888 
L 341.083965 48.228917 
L 343.123253 54.044216 
L 345.16254 47.246682 
L 347.201827 51.67594 
L 349.241115 53.419167 
L 351.280402 44.150291 
L 353.319689 52.08369 
L 355.358977 53.688521 
L 357.398264 62.086398 
L 359.437551 82.071329 
L 361.476839 50.855757 
L 363.516126 57.119676 
L 365.555413 47.544289 
L 367.594701 69.41182 
L 369.633988 52.529325 
L 371.673275 59.087552 
L 373.712563 50.183342 
L 375.75185 68.069859 
L 377.791138 50.926486 
L 379.830425 92.183663 
L 381.869712 66.177857 
L 383.909 69.225749 
L 385.948287 98.043344 
L 387.987574 72.202363 
L 390.026862 75.290986 
L 392.066149 62.771871 
L 394.105436 65.414026 
L 396.144724 96.321772 
L 398.184011 80.553987 
L 400.223298 81.346098 
L 402.262586 59.202034 
L 404.301873 79.068724 
L 406.34116 73.619287 
L 408.380448 67.637046 
L 410.419735 54.454344 
L 412.459022 67.413197 
L 414.49831 103.529485 
L 416.537597 77.814542 
L 418.576884 111.709628 
L 420.616172 94.903422 
L 422.655459 83.319832 
L 424.694746 81.719572 
L 426.734034 64.16338 
L 428.773321 66.903547 
L 430.812608 60.887662 
L 432.851896 62.762819 
L 434.891183 66.640929 
L 436.930471 60.494222 
L 438.969758 61.679846 
L 441.009045 71.005904 
L 443.048333 49.383606 
L 445.08762 60.081935 
L 447.126907 68.150584 
L 449.166195 67.132314 
L 451.205482 56.175378 
L 453.244769 61.420568 
L 455.284057 63.60934 
L 457.323344 55.943893 
L 459.362631 51.560916 
L 461.401919 55.951719 
L 463.441206 62.131897 
L 465.480493 63.0594 
L 467.519781 65.702444 
L 469.559068 54.370905 
L 471.598355 65.910854 
L 473.637643 66.447306 
L 475.67693 72.425094 
L 477.716217 50.87546 
L 479.755505 63.504945 
L 481.794792 60.618281 
L 483.834079 61.062763 
L 485.873367 66.914299 
L 487.912654 67.224474 
L 489.951942 48.317466 
L 491.991229 54.328534 
L 494.030516 42.684171 
L 496.069804 60.968897 
L 498.109091 60.049388 
L 498.109091 60.049388 
" clip-path="url(#pbeaf087285)" style="fill: none; stroke: #ff0000; stroke-opacity: 0.9; stroke-width: 1.5; stroke-linecap: square"/>
   </g>
   <g id="line2d_18">
    <path d="M 92.290909 109.079153 
L 94.330196 98.253656 
L 96.369484 116.918236 
L 98.408771 98.415699 
L 100.448058 89.605708 
L 102.487346 102.080119 
L 104.526633 96.590605 
L 106.565921 66.01545 
L 108.605208 109.447816 
L 110.644495 46.936689 
L 112.683783 79.591391 
L 114.72307 115.649151 
L 116.762357 117.730984 
L 118.801645 109.444169 
L 120.840932 68.781848 
L 122.880219 109.360948 
L 124.919507 67.370798 
L 126.958794 63.184169 
L 128.998081 83.574786 
L 131.037369 63.063948 
L 133.076656 50.411762 
L 135.115943 52.579494 
L 137.155231 102.385343 
L 139.194518 106.316643 
L 141.233805 121.426888 
L 143.273093 117.699219 
L 145.31238 117.813253 
L 147.351667 110.196957 
L 149.390955 114.712479 
L 151.430242 106.351854 
L 153.469529 104.883233 
L 155.508817 111.363185 
L 157.548104 124.306117 
L 159.587392 106.663108 
L 161.626679 119.95839 
L 163.665966 93.621985 
L 165.705254 92.829332 
L 167.744541 109.761107 
L 169.783828 50.352647 
L 171.823116 54.638558 
L 173.862403 73.826874 
L 175.90169 51.079489 
L 177.940978 44.010501 
L 179.980265 68.081344 
L 182.019552 63.780687 
L 184.05884 69.829668 
L 186.098127 65.268933 
L 188.137414 59.268852 
L 190.176702 67.753916 
L 192.215989 61.146862 
L 194.255276 48.251299 
L 196.294564 68.017659 
L 198.333851 73.661725 
L 200.373138 90.681247 
L 202.412426 70.16811 
L 204.451713 52.641182 
L 206.491 43.299751 
L 208.530288 72.165804 
L 210.569575 57.895658 
L 212.608862 108.521527 
L 214.64815 103.095581 
L 216.687437 91.6031 
L 218.726725 90.294973 
L 220.766012 106.249736 
L 222.805299 117.314053 
L 224.844587 116.4476 
L 226.883874 69.115922 
L 228.923161 58.123983 
L 230.962449 77.743282 
L 233.001736 72.424433 
L 235.041023 44.682704 
L 237.080311 58.910001 
L 239.119598 51.962568 
L 241.158885 73.131645 
L 243.198173 52.450278 
L 245.23746 79.707954 
L 247.276747 50.636529 
L 249.316035 99.353177 
L 251.355322 75.773017 
L 253.394609 107.70116 
L 257.473184 71.048487 
L 259.512471 64.825038 
L 261.551759 56.94853 
L 263.591046 67.898271 
L 265.630333 63.478294 
L 267.669621 60.433334 
L 269.708908 49.009604 
L 271.748196 40.321858 
L 273.787483 61.609223 
L 275.82677 50.032587 
L 277.866058 64.91463 
L 279.905345 54.186551 
L 281.944632 80.324096 
L 283.98392 64.029677 
L 286.023207 62.509337 
L 288.062494 53.200056 
L 290.101782 66.523578 
L 292.141069 74.064032 
L 294.180356 54.330106 
L 296.219644 42.340352 
L 298.258931 77.517749 
L 300.298218 55.375559 
L 302.337506 60.332346 
L 304.376793 58.02083 
L 306.41608 45.453277 
L 308.455368 46.158061 
L 310.494655 56.430757 
L 312.533942 60.551754 
L 314.57323 71.578763 
L 316.612517 41.346512 
L 318.651804 56.647379 
L 320.691092 46.833928 
L 322.730379 43.023861 
L 326.808954 62.428024 
L 328.848241 46.677579 
L 332.926816 48.219309 
L 334.966103 46.580938 
L 337.005391 56.350462 
L 339.044678 41.750612 
L 341.083965 50.568698 
L 343.123253 56.3831 
L 345.16254 49.243246 
L 347.201827 52.880964 
L 349.241115 54.758449 
L 351.280402 42.107563 
L 353.319689 58.376671 
L 355.358977 57.702286 
L 357.398264 64.381065 
L 359.437551 81.701195 
L 361.476839 48.300149 
L 363.516126 56.028724 
L 365.555413 46.525009 
L 367.594701 69.244987 
L 369.633988 53.256721 
L 371.673275 62.051759 
L 373.712563 52.188141 
L 375.75185 67.689756 
L 377.791138 50.427823 
L 379.830425 91.974828 
L 381.869712 65.863733 
L 383.909 71.55468 
L 385.948287 97.653714 
L 387.987574 71.385313 
L 390.026862 78.842418 
L 392.066149 61.824704 
L 394.105436 66.223798 
L 396.144724 98.500956 
L 398.184011 81.990357 
L 400.223298 82.243448 
L 402.262586 58.910286 
L 404.301873 78.713 
L 406.34116 67.7243 
L 408.380448 68.596224 
L 410.419735 47.624293 
L 412.459022 68.041306 
L 414.49831 102.504535 
L 416.537597 77.34874 
L 418.576884 109.792301 
L 420.616172 103.083162 
L 422.655459 84.539362 
L 424.694746 79.770956 
L 426.734034 61.292498 
L 428.773321 65.661231 
L 430.812608 64.138408 
L 432.851896 63.228146 
L 434.891183 70.270513 
L 436.930471 59.883836 
L 438.969758 59.858461 
L 441.009045 70.342461 
L 443.048333 48.429656 
L 445.08762 60.079401 
L 447.126907 68.886154 
L 449.166195 65.924935 
L 451.205482 56.45126 
L 453.244769 63.922502 
L 455.284057 62.037823 
L 457.323344 53.232195 
L 459.362631 50.275077 
L 461.401919 60.136435 
L 463.441206 60.082008 
L 465.480493 62.146257 
L 467.519781 54.895022 
L 469.559068 56.151983 
L 471.598355 67.277155 
L 473.637643 67.388224 
L 475.67693 69.616201 
L 477.716217 50.489679 
L 479.755505 64.605519 
L 481.794792 57.765401 
L 483.834079 61.315927 
L 485.873367 65.791035 
L 487.912654 66.360611 
L 489.951942 47.136737 
L 491.991229 50.142932 
L 494.030516 44.645443 
L 496.069804 64.009359 
L 498.109091 58.627473 
L 498.109091 58.627473 
" clip-path="url(#pbeaf087285)" style="fill: none; stroke: #008000; stroke-opacity: 0.9; stroke-width: 1.5; stroke-linecap: square"/>
   </g>
   <g id="line2d_19">
    <path d="M 153.469529 135.36 
L 153.469529 34.56 
" clip-path="url(#pbeaf087285)" style="fill: none; stroke-dasharray: 5.55,2.4; stroke-dashoffset: 0; stroke: #000000; stroke-width: 1.5"/>
   </g>
   <g id="line2d_20">
    <path d="M 438.969758 135.36 
L 438.969758 34.56 
" clip-path="url(#pbeaf087285)" style="fill: none; stroke-dasharray: 5.55,2.4; stroke-dashoffset: 0; stroke: #0000ff; stroke-width: 1.5"/>
   </g>
   <g id="patch_3">
    <path d="M 72 135.36 
L 72 34.56 
" style="fill: none; stroke: #000000; stroke-width: 0.8; stroke-linejoin: miter; stroke-linecap: square"/>
   </g>
   <g id="patch_4">
    <path d="M 518.4 135.36 
L 518.4 34.56 
" style="fill: none; stroke: #000000; stroke-width: 0.8; stroke-linejoin: miter; stroke-linecap: square"/>
   </g>
   <g id="patch_5">
    <path d="M 72 135.36 
L 518.4 135.36 
" style="fill: none; stroke: #000000; stroke-width: 0.8; stroke-linejoin: miter; stroke-linecap: square"/>
   </g>
   <g id="patch_6">
    <path d="M 72 34.56 
L 518.4 34.56 
" style="fill: none; stroke: #000000; stroke-width: 0.8; stroke-linejoin: miter; stroke-linecap: square"/>
   </g>
  </g>
  <g id="axes_2">
   <g id="patch_7">
    <path d="M 72 256.32 
L 518.4 256.32 
L 518.4 155.52 
L 72 155.52 
z
" style="fill: #ffffff"/>
   </g>
   <g id="matplotlib.axis_3">
    <g id="xtick_10">
     <g id="line2d_21">
      <g>
       <use xlink:href="#m575d212e62" x="92.290909" y="256.32" style="stroke: #000000; stroke-width: 0.8"/>
      </g>
     </g>
     <g id="text_4">
      <!-- 0 -->
      <g transform="translate(89.109659 270.918437) scale(0.1 -0.1)">
       <use xlink:href="#DejaVuSans-30"/>
      </g>
     </g>
    </g>
    <g id="xtick_11">
     <g id="line2d_22">
      <g>
       <use xlink:href="#m575d212e62" x="143.273093" y="256.32" style="stroke: #000000; stroke-width: 0.8"/>
      </g>
     </g>
     <g id="text_5">
      <!-- 25 -->
      <g transform="translate(136.910593 270.918437) scale(0.1 -0.1)">
       <defs>
        <path id="DejaVuSans-32" d="M 1228 531 
L 3431 531 
L 3431 0 
L 469 0 
L 469 531 
Q 828 903 1448 1529 
Q 2069 2156 2228 2338 
Q 2531 2678 2651 2914 
Q 2772 3150 2772 3378 
Q 2772 3750 2511 3984 
Q 2250 4219 1831 4219 
Q 1534 4219 1204 4116 
Q 875 4013 500 3803 
L 500 4441 
Q 881 4594 1212 4672 
Q 1544 4750 1819 4750 
Q 2544 4750 2975 4387 
Q 3406 4025 3406 3419 
Q 3406 3131 3298 2873 
Q 3191 2616 2906 2266 
Q 2828 2175 2409 1742 
Q 1991 1309 1228 531 
z
" transform="scale(0.015625)"/>
       </defs>
       <use xlink:href="#DejaVuSans-32"/>
       <use xlink:href="#DejaVuSans-35" transform="translate(63.623047 0)"/>
      </g>
     </g>
    </g>
    <g id="xtick_12">
     <g id="line2d_23">
      <g>
       <use xlink:href="#m575d212e62" x="194.255276" y="256.32" style="stroke: #000000; stroke-width: 0.8"/>
      </g>
     </g>
     <g id="text_6">
      <!-- 50 -->
      <g transform="translate(187.892776 270.918437) scale(0.1 -0.1)">
       <use xlink:href="#DejaVuSans-35"/>
       <use xlink:href="#DejaVuSans-30" transform="translate(63.623047 0)"/>
      </g>
     </g>
    </g>
    <g id="xtick_13">
     <g id="line2d_24">
      <g>
       <use xlink:href="#m575d212e62" x="245.23746" y="256.32" style="stroke: #000000; stroke-width: 0.8"/>
      </g>
     </g>
     <g id="text_7">
      <!-- 75 -->
      <g transform="translate(238.87496 270.918437) scale(0.1 -0.1)">
       <defs>
        <path id="DejaVuSans-37" d="M 525 4666 
L 3525 4666 
L 3525 4397 
L 1831 0 
L 1172 0 
L 2766 4134 
L 525 4134 
L 525 4666 
z
" transform="scale(0.015625)"/>
       </defs>
       <use xlink:href="#DejaVuSans-37"/>
       <use xlink:href="#DejaVuSans-35" transform="translate(63.623047 0)"/>
      </g>
     </g>
    </g>
    <g id="xtick_14">
     <g id="line2d_25">
      <g>
       <use xlink:href="#m575d212e62" x="296.219644" y="256.32" style="stroke: #000000; stroke-width: 0.8"/>
      </g>
     </g>
     <g id="text_8">
      <!-- 100 -->
      <g transform="translate(286.675894 270.918437) scale(0.1 -0.1)">
       <use xlink:href="#DejaVuSans-31"/>
       <use xlink:href="#DejaVuSans-30" transform="translate(63.623047 0)"/>
       <use xlink:href="#DejaVuSans-30" transform="translate(127.246094 0)"/>
      </g>
     </g>
    </g>
    <g id="xtick_15">
     <g id="line2d_26">
      <g>
       <use xlink:href="#m575d212e62" x="347.201827" y="256.32" style="stroke: #000000; stroke-width: 0.8"/>
      </g>
     </g>
     <g id="text_9">
      <!-- 125 -->
      <g transform="translate(337.658077 270.918437) scale(0.1 -0.1)">
       <use xlink:href="#DejaVuSans-31"/>
       <use xlink:href="#DejaVuSans-32" transform="translate(63.623047 0)"/>
       <use xlink:href="#DejaVuSans-35" transform="translate(127.246094 0)"/>
      </g>
     </g>
    </g>
    <g id="xtick_16">
     <g id="line2d_27">
      <g>
       <use xlink:href="#m575d212e62" x="398.184011" y="256.32" style="stroke: #000000; stroke-width: 0.8"/>
      </g>
     </g>
     <g id="text_10">
      <!-- 150 -->
      <g transform="translate(388.640261 270.918437) scale(0.1 -0.1)">
       <use xlink:href="#DejaVuSans-31"/>
       <use xlink:href="#DejaVuSans-35" transform="translate(63.623047 0)"/>
       <use xlink:href="#DejaVuSans-30" transform="translate(127.246094 0)"/>
      </g>
     </g>
    </g>
    <g id="xtick_17">
     <g id="line2d_28">
      <g>
       <use xlink:href="#m575d212e62" x="449.166195" y="256.32" style="stroke: #000000; stroke-width: 0.8"/>
      </g>
     </g>
     <g id="text_11">
      <!-- 175 -->
      <g transform="translate(439.622445 270.918437) scale(0.1 -0.1)">
       <use xlink:href="#DejaVuSans-31"/>
       <use xlink:href="#DejaVuSans-37" transform="translate(63.623047 0)"/>
       <use xlink:href="#DejaVuSans-35" transform="translate(127.246094 0)"/>
      </g>
     </g>
    </g>
    <g id="xtick_18">
     <g id="line2d_29">
      <g>
       <use xlink:href="#m575d212e62" x="500.148378" y="256.32" style="stroke: #000000; stroke-width: 0.8"/>
      </g>
     </g>
     <g id="text_12">
      <!-- 200 -->
      <g transform="translate(490.604628 270.918437) scale(0.1 -0.1)">
       <use xlink:href="#DejaVuSans-32"/>
       <use xlink:href="#DejaVuSans-30" transform="translate(63.623047 0)"/>
       <use xlink:href="#DejaVuSans-30" transform="translate(127.246094 0)"/>
      </g>
     </g>
    </g>
   </g>
   <g id="matplotlib.axis_4">
    <g id="ytick_4">
     <g id="line2d_30">
      <g>
       <use xlink:href="#m109917227b" x="72" y="253.340606" style="stroke: #000000; stroke-width: 0.8"/>
      </g>
     </g>
     <g id="text_13">
      <!-- −200 -->
      <g transform="translate(37.532812 257.139825) scale(0.1 -0.1)">
       <use xlink:href="#DejaVuSans-2212"/>
       <use xlink:href="#DejaVuSans-32" transform="translate(83.789062 0)"/>
       <use xlink:href="#DejaVuSans-30" transform="translate(147.412109 0)"/>
       <use xlink:href="#DejaVuSans-30" transform="translate(211.035156 0)"/>
      </g>
     </g>
    </g>
    <g id="ytick_5">
     <g id="line2d_31">
      <g>
       <use xlink:href="#m109917227b" x="72" y="229.003914" style="stroke: #000000; stroke-width: 0.8"/>
      </g>
     </g>
     <g id="text_14">
      <!-- −100 -->
      <g transform="translate(37.532812 232.803133) scale(0.1 -0.1)">
       <use xlink:href="#DejaVuSans-2212"/>
       <use xlink:href="#DejaVuSans-31" transform="translate(83.789062 0)"/>
       <use xlink:href="#DejaVuSans-30" transform="translate(147.412109 0)"/>
       <use xlink:href="#DejaVuSans-30" transform="translate(211.035156 0)"/>
      </g>
     </g>
    </g>
    <g id="ytick_6">
     <g id="line2d_32">
      <g>
       <use xlink:href="#m109917227b" x="72" y="204.667223" style="stroke: #000000; stroke-width: 0.8"/>
      </g>
     </g>
     <g id="text_15">
      <!-- 0 -->
      <g transform="translate(58.6375 208.466441) scale(0.1 -0.1)">
       <use xlink:href="#DejaVuSans-30"/>
      </g>
     </g>
    </g>
    <g id="ytick_7">
     <g id="line2d_33">
      <g>
       <use xlink:href="#m109917227b" x="72" y="180.330531" style="stroke: #000000; stroke-width: 0.8"/>
      </g>
     </g>
     <g id="text_16">
      <!-- 100 -->
      <g transform="translate(45.9125 184.12975) scale(0.1 -0.1)">
       <use xlink:href="#DejaVuSans-31"/>
       <use xlink:href="#DejaVuSans-30" transform="translate(63.623047 0)"/>
       <use xlink:href="#DejaVuSans-30" transform="translate(127.246094 0)"/>
      </g>
     </g>
    </g>
    <g id="ytick_8">
     <g id="line2d_34">
      <g>
       <use xlink:href="#m109917227b" x="72" y="155.993839" style="stroke: #000000; stroke-width: 0.8"/>
      </g>
     </g>
     <g id="text_17">
      <!-- 200 -->
      <g transform="translate(45.9125 159.793058) scale(0.1 -0.1)">
       <use xlink:href="#DejaVuSans-32"/>
       <use xlink:href="#DejaVuSans-30" transform="translate(63.623047 0)"/>
       <use xlink:href="#DejaVuSans-30" transform="translate(127.246094 0)"/>
      </g>
     </g>
    </g>
   </g>
   <g id="line2d_35">
    <path d="M 92.290909 176.659131 
L 94.330196 170.867804 
L 96.369484 163.473543 
L 98.408771 164.185359 
L 100.448058 169.238888 
L 102.487346 167.437343 
L 104.526633 168.225801 
L 106.565921 162.976419 
L 108.605208 165.715281 
L 110.644495 175.00555 
L 112.683783 248.664486 
L 114.72307 162.599096 
L 116.762357 163.391509 
L 118.801645 169.926469 
L 120.840932 161.584598 
L 122.880219 168.655729 
L 124.919507 166.687883 
L 126.958794 180.576878 
L 128.998081 163.706386 
L 131.037369 167.112491 
L 133.076656 175.060643 
L 135.115943 169.078562 
L 137.155231 167.052522 
L 139.194518 166.304332 
L 141.233805 167.227419 
L 145.31238 162.217635 
L 147.351667 160.797361 
L 149.390955 164.619161 
L 151.430242 163.074548 
L 153.469529 164.191323 
L 155.508817 169.144996 
L 157.548104 165.270016 
L 159.587392 165.324039 
L 161.626679 168.778096 
L 163.665966 168.095413 
L 165.705254 249.218226 
L 167.744541 162.124817 
L 169.783828 168.429623 
L 171.823116 166.553611 
L 173.862403 168.470334 
L 175.90169 172.073219 
L 177.940978 170.520719 
L 179.980265 184.171098 
L 182.019552 170.265521 
L 184.05884 172.442124 
L 186.098127 187.763336 
L 188.137414 173.616844 
L 190.176702 174.974177 
L 192.215989 197.322421 
L 194.255276 195.029088 
L 196.294564 190.656656 
L 198.333851 188.656906 
L 200.373138 171.035765 
L 202.412426 164.674655 
L 204.451713 169.109543 
L 206.491 166.232863 
L 208.530288 173.708083 
L 210.569575 166.176563 
L 212.608862 163.625239 
L 214.64815 169.022744 
L 216.687437 161.518988 
L 218.726725 168.998439 
L 220.766012 166.30639 
L 222.805299 170.435595 
L 224.844587 162.485871 
L 226.883874 178.45405 
L 228.923161 187.505237 
L 230.962449 166.274279 
L 233.001736 170.883534 
L 235.041023 166.717803 
L 237.080311 166.57747 
L 239.119598 168.764962 
L 241.158885 166.01679 
L 243.198173 171.980416 
L 245.23746 162.733795 
L 249.316035 165.834135 
L 251.355322 170.031215 
L 253.394609 165.407366 
L 255.433897 163.071492 
L 257.473184 170.616724 
L 259.512471 164.838969 
L 261.551759 161.84827 
L 263.591046 165.706101 
L 265.630333 167.696659 
L 267.669621 164.226103 
L 269.708908 165.97322 
L 271.748196 165.581859 
L 273.787483 167.696986 
L 275.82677 162.725336 
L 277.866058 250.166828 
L 279.905345 167.88074 
L 281.944632 165.25918 
L 283.98392 164.525079 
L 286.023207 169.366074 
L 288.062494 171.852969 
L 290.101782 169.828578 
L 292.141069 171.903803 
L 294.180356 166.883528 
L 296.219644 167.205714 
L 298.258931 174.61284 
L 302.337506 164.47168 
L 304.376793 171.015311 
L 306.41608 164.024446 
L 308.455368 167.96638 
L 310.494655 168.487267 
L 312.533942 163.375775 
L 314.57323 250.481156 
L 316.612517 161.12612 
L 318.651804 163.690678 
L 320.691092 163.877466 
L 322.730379 167.463355 
L 324.769667 164.887738 
L 326.808954 164.382103 
L 328.848241 166.984127 
L 330.887529 167.713852 
L 332.926816 163.79913 
L 334.966103 165.98521 
L 337.005391 161.423406 
L 339.044678 164.033414 
L 341.083965 162.257867 
L 343.123253 164.048491 
L 345.16254 165.419844 
L 347.201827 163.290416 
L 349.241115 250.260597 
L 351.280402 163.238294 
L 353.319689 163.863322 
L 355.358977 170.396418 
L 357.398264 167.466308 
L 359.437551 171.312906 
L 361.476839 167.007885 
L 363.516126 166.547577 
L 365.555413 169.673844 
L 367.594701 168.619931 
L 369.633988 170.56709 
L 371.673275 166.175604 
L 373.712563 171.639418 
L 375.75185 176.146522 
L 377.791138 174.800144 
L 379.830425 167.091201 
L 381.869712 178.294101 
L 383.909 170.793386 
L 385.948287 169.291482 
L 387.987574 168.425608 
L 390.026862 171.590912 
L 392.066149 172.561498 
L 394.105436 173.145923 
L 396.144724 249.804674 
L 398.184011 165.491696 
L 400.223298 170.93455 
L 402.262586 172.108267 
L 404.301873 169.962181 
L 406.34116 167.39502 
L 408.380448 172.20282 
L 410.419735 166.427553 
L 412.459022 171.335903 
L 414.49831 165.222182 
L 416.537597 167.828785 
L 418.576884 161.093107 
L 420.616172 169.794755 
L 422.655459 166.875581 
L 424.694746 172.005129 
L 426.734034 167.847586 
L 428.773321 172.589071 
L 430.812608 175.684383 
L 432.851896 172.606617 
L 434.891183 173.26149 
L 436.930471 177.482296 
L 438.969758 170.428907 
L 441.009045 178.314335 
L 443.048333 172.691997 
L 445.08762 174.033202 
L 447.126907 175.951937 
L 449.166195 163.425487 
L 451.205482 168.807344 
L 453.244769 172.321265 
L 455.284057 178.317416 
L 457.323344 179.751017 
L 459.362631 174.139523 
L 461.401919 173.44813 
L 463.441206 177.146179 
L 465.480493 175.733978 
L 469.559068 175.240172 
L 471.598355 170.701291 
L 473.637643 175.29077 
L 475.67693 179.022861 
L 477.716217 180.262877 
L 479.755505 173.69996 
L 481.794792 176.620481 
L 483.834079 171.159279 
L 485.873367 173.848822 
L 487.912654 177.78682 
L 489.951942 172.80332 
L 491.991229 168.587635 
L 494.030516 169.574943 
L 498.109091 177.32476 
L 498.109091 177.32476 
" clip-path="url(#p3ec7463d2d)" style="fill: none; stroke: #ff0000; stroke-opacity: 0.9; stroke-width: 1.5; stroke-linecap: square"/>
   </g>
   <g id="line2d_36">
    <path d="M 92.290909 176.14149 
L 94.330196 169.75218 
L 96.369484 165.358835 
L 98.408771 164.844443 
L 100.448058 170.26961 
L 102.487346 166.102193 
L 104.526633 170.357163 
L 106.565921 163.668085 
L 108.605208 165.451163 
L 110.644495 176.268653 
L 112.683783 248.676915 
L 114.72307 161.561515 
L 116.762357 164.704066 
L 118.801645 170.270646 
L 120.840932 162.372235 
L 122.880219 167.319373 
L 124.919507 167.35718 
L 126.958794 180.029063 
L 128.998081 164.187605 
L 131.037369 167.993522 
L 133.076656 173.259091 
L 135.115943 168.581567 
L 137.155231 166.345496 
L 139.194518 167.322247 
L 141.233805 168.087195 
L 143.273093 165.736708 
L 145.31238 161.403922 
L 147.351667 161.77888 
L 149.390955 164.14845 
L 151.430242 162.698647 
L 153.469529 164.539685 
L 155.508817 168.917556 
L 157.548104 163.839741 
L 159.587392 165.964604 
L 161.626679 168.670687 
L 163.665966 170.056055 
L 165.705254 250.659307 
L 167.744541 161.97686 
L 169.783828 168.361302 
L 171.823116 167.097243 
L 173.862403 168.802627 
L 175.90169 172.298505 
L 177.940978 171.105077 
L 179.980265 184.413498 
L 182.019552 169.210557 
L 184.05884 173.079187 
L 186.098127 188.631591 
L 188.137414 173.229951 
L 190.176702 174.754234 
L 192.215989 197.989767 
L 194.255276 192.707417 
L 196.294564 189.141525 
L 198.333851 189.377013 
L 200.373138 172.428927 
L 202.412426 164.535054 
L 204.451713 170.14861 
L 206.491 165.594507 
L 208.530288 174.078364 
L 210.569575 166.406223 
L 212.608862 164.641085 
L 214.64815 169.518647 
L 216.687437 161.774776 
L 218.726725 168.012338 
L 220.766012 166.191461 
L 222.805299 169.421921 
L 224.844587 162.322471 
L 226.883874 177.214665 
L 228.923161 186.874894 
L 230.962449 166.294674 
L 233.001736 171.825092 
L 235.041023 166.259964 
L 237.080311 167.206977 
L 239.119598 169.451711 
L 241.158885 164.191716 
L 243.198173 171.066798 
L 245.23746 162.766407 
L 247.276747 165.033574 
L 249.316035 165.81406 
L 251.355322 171.239093 
L 253.394609 165.266781 
L 255.433897 164.226207 
L 257.473184 169.421387 
L 259.512471 164.477395 
L 261.551759 162.797099 
L 263.591046 166.014239 
L 265.630333 168.649532 
L 267.669621 163.383532 
L 269.708908 165.566051 
L 271.748196 166.20151 
L 273.787483 166.529488 
L 275.82677 162.779151 
L 277.866058 249.659938 
L 279.905345 169.08835 
L 281.944632 165.115936 
L 283.98392 163.965346 
L 286.023207 170.280015 
L 288.062494 171.275867 
L 290.101782 169.756855 
L 292.141069 172.022883 
L 294.180356 168.29818 
L 296.219644 168.063774 
L 298.258931 173.808059 
L 302.337506 165.059275 
L 304.376793 170.689809 
L 306.41608 164.431351 
L 308.455368 167.928826 
L 310.494655 168.534157 
L 312.533942 163.206024 
L 314.57323 249.156155 
L 316.612517 160.557637 
L 318.651804 163.29573 
L 320.691092 162.035162 
L 322.730379 165.334979 
L 324.769667 165.31363 
L 326.808954 164.220678 
L 328.848241 167.619196 
L 330.887529 167.436474 
L 332.926816 163.939753 
L 334.966103 165.234745 
L 337.005391 160.596577 
L 339.044678 164.448103 
L 341.083965 163.170092 
L 343.123253 163.759779 
L 345.16254 166.270993 
L 347.201827 163.667629 
L 349.241115 250.096228 
L 351.280402 163.638136 
L 353.319689 164.985964 
L 355.358977 170.191277 
L 357.398264 168.85169 
L 359.437551 171.569745 
L 361.476839 166.020043 
L 363.516126 165.936716 
L 365.555413 171.423586 
L 367.594701 167.189876 
L 369.633988 171.125895 
L 371.673275 165.399167 
L 373.712563 171.771465 
L 375.75185 175.978888 
L 377.791138 175.501363 
L 379.830425 166.156332 
L 381.869712 178.388262 
L 383.909 171.508892 
L 385.948287 170.557739 
L 387.987574 169.157674 
L 390.026862 173.073591 
L 392.066149 171.623078 
L 394.105436 171.772813 
L 396.144724 248.078142 
L 398.184011 164.68014 
L 400.223298 170.977006 
L 402.262586 171.870664 
L 404.301873 170.367401 
L 406.34116 166.859142 
L 408.380448 172.237144 
L 410.419735 166.435845 
L 412.459022 171.215378 
L 414.49831 165.690066 
L 416.537597 166.675733 
L 418.576884 161.014986 
L 420.616172 167.82174 
L 422.655459 167.811194 
L 424.694746 171.396069 
L 426.734034 167.72578 
L 428.773321 171.900476 
L 430.812608 176.938395 
L 432.851896 172.58988 
L 434.891183 174.315672 
L 436.930471 178.798447 
L 438.969758 171.506363 
L 441.009045 179.679397 
L 443.048333 171.830231 
L 445.08762 174.308254 
L 447.126907 175.569994 
L 449.166195 163.857451 
L 451.205482 169.208467 
L 453.244769 173.18627 
L 455.284057 177.978978 
L 457.323344 180.018934 
L 459.362631 174.129216 
L 461.401919 172.303871 
L 463.441206 177.21245 
L 465.480493 175.893676 
L 467.519781 175.451449 
L 469.559068 174.646657 
L 471.598355 170.859783 
L 473.637643 175.78836 
L 475.67693 178.185201 
L 477.716217 179.82641 
L 479.755505 172.770913 
L 481.794792 176.400296 
L 483.834079 170.70779 
L 485.873367 174.360813 
L 487.912654 178.35326 
L 489.951942 173.513554 
L 491.991229 169.20166 
L 494.030516 170.649707 
L 496.069804 174.311385 
L 498.109091 176.225931 
L 498.109091 176.225931 
" clip-path="url(#p3ec7463d2d)" style="fill: none; stroke: #ff0000; stroke-opacity: 0.9; stroke-width: 1.5; stroke-linecap: square"/>
   </g>
   <g id="line2d_37">
    <path d="M 92.290909 177.539093 
L 94.330196 170.507774 
L 96.369484 164.93614 
L 98.408771 162.794893 
L 100.448058 169.766421 
L 102.487346 167.140635 
L 104.526633 168.65717 
L 106.565921 162.897552 
L 108.605208 164.460873 
L 110.644495 175.155959 
L 112.683783 247.72675 
L 114.72307 163.560168 
L 116.762357 164.597385 
L 118.801645 170.260805 
L 120.840932 161.782103 
L 122.880219 167.782429 
L 124.919507 167.452208 
L 126.958794 180.231058 
L 128.998081 163.324681 
L 131.037369 166.947872 
L 133.076656 174.278413 
L 135.115943 169.037193 
L 137.155231 166.178668 
L 139.194518 165.844878 
L 141.233805 168.311025 
L 143.273093 165.265203 
L 145.31238 161.907701 
L 147.351667 161.052095 
L 149.390955 163.92146 
L 151.430242 162.971506 
L 153.469529 164.827183 
L 155.508817 168.615445 
L 157.548104 165.584117 
L 159.587392 164.351704 
L 161.626679 168.20482 
L 163.665966 167.873087 
L 165.705254 249.703723 
L 167.744541 162.850086 
L 169.783828 168.287032 
L 171.823116 168.460136 
L 173.862403 166.871612 
L 175.90169 172.801757 
L 177.940978 170.742377 
L 179.980265 184.208122 
L 182.019552 169.357166 
L 184.05884 172.534627 
L 186.098127 187.49372 
L 188.137414 173.609083 
L 190.176702 174.549001 
L 192.215989 198.527444 
L 194.255276 193.430597 
L 196.294564 188.932108 
L 198.333851 187.959461 
L 200.373138 172.440416 
L 202.412426 164.986614 
L 204.451713 168.866993 
L 206.491 166.838933 
L 208.530288 174.200658 
L 210.569575 166.840073 
L 212.608862 164.07245 
L 214.64815 169.331858 
L 216.687437 162.190739 
L 218.726725 167.626467 
L 220.766012 166.801965 
L 222.805299 169.578426 
L 224.844587 162.792297 
L 226.883874 179.005309 
L 228.923161 186.48961 
L 230.962449 167.273764 
L 233.001736 171.161607 
L 235.041023 166.327048 
L 237.080311 167.020303 
L 239.119598 169.807964 
L 241.158885 165.154756 
L 243.198173 171.268819 
L 245.23746 163.590488 
L 247.276747 165.008709 
L 249.316035 166.168527 
L 251.355322 169.40957 
L 253.394609 165.727071 
L 255.433897 163.710148 
L 257.473184 169.526174 
L 259.512471 165.018204 
L 261.551759 162.629372 
L 263.591046 165.273116 
L 265.630333 168.210364 
L 267.669621 163.460234 
L 269.708908 165.803443 
L 271.748196 164.643087 
L 273.787483 167.786473 
L 275.82677 163.178202 
L 277.866058 250.093127 
L 279.905345 168.893318 
L 281.944632 164.966048 
L 283.98392 163.938431 
L 286.023207 170.017661 
L 288.062494 171.527178 
L 290.101782 170.748527 
L 292.141069 171.117829 
L 294.180356 168.403198 
L 296.219644 168.235731 
L 298.258931 174.907096 
L 300.298218 170.310889 
L 302.337506 165.296511 
L 304.376793 171.226653 
L 306.41608 163.682609 
L 308.455368 167.962162 
L 310.494655 168.510855 
L 312.533942 163.799996 
L 314.57323 249.870893 
L 316.612517 160.101818 
L 318.651804 163.045891 
L 320.691092 162.968821 
L 322.730379 165.820881 
L 324.769667 165.455478 
L 326.808954 164.761918 
L 328.848241 167.732958 
L 330.887529 167.339555 
L 332.926816 164.947719 
L 334.966103 164.893145 
L 337.005391 162.68546 
L 339.044678 163.410366 
L 341.083965 162.676745 
L 343.123253 163.467602 
L 345.16254 165.671302 
L 347.201827 163.880853 
L 349.241115 250.719191 
L 351.280402 163.279974 
L 353.319689 164.454486 
L 355.358977 171.713405 
L 357.398264 168.21427 
L 359.437551 171.539781 
L 361.476839 165.925119 
L 363.516126 165.676664 
L 365.555413 170.118645 
L 367.594701 167.256637 
L 369.633988 171.5738 
L 371.673275 165.537776 
L 375.75185 177.073517 
L 377.791138 174.462124 
L 379.830425 166.635676 
L 381.869712 178.920833 
L 383.909 172.16515 
L 385.948287 170.442205 
L 387.987574 168.153339 
L 390.026862 172.581038 
L 392.066149 172.466641 
L 394.105436 172.137073 
L 396.144724 249.163961 
L 398.184011 165.198397 
L 400.223298 171.818775 
L 404.301873 171.037061 
L 406.34116 166.950768 
L 408.380448 173.177858 
L 410.419735 167.500338 
L 412.459022 172.001516 
L 414.49831 165.558078 
L 416.537597 168.111095 
L 418.576884 161.019598 
L 420.616172 167.67518 
L 422.655459 167.52038 
L 424.694746 171.862977 
L 426.734034 168.064064 
L 428.773321 172.783516 
L 430.812608 175.3164 
L 432.851896 172.361482 
L 434.891183 174.600194 
L 436.930471 178.230498 
L 438.969758 171.663574 
L 441.009045 179.498441 
L 443.048333 171.812169 
L 445.08762 174.024758 
L 447.126907 175.491077 
L 449.166195 164.173156 
L 451.205482 168.996624 
L 453.244769 174.320743 
L 455.284057 178.078059 
L 457.323344 180.721095 
L 459.362631 173.971946 
L 461.401919 175.094379 
L 463.441206 176.736335 
L 465.480493 175.053866 
L 467.519781 175.739472 
L 469.559068 175.883808 
L 471.598355 171.730138 
L 473.637643 174.724124 
L 475.67693 176.791263 
L 477.716217 179.178794 
L 479.755505 174.875263 
L 481.794792 177.210513 
L 483.834079 171.534515 
L 485.873367 173.887284 
L 487.912654 178.821369 
L 489.951942 173.458033 
L 491.991229 169.174518 
L 494.030516 169.040591 
L 496.069804 174.182759 
L 498.109091 175.401666 
L 498.109091 175.401666 
" clip-path="url(#p3ec7463d2d)" style="fill: none; stroke: #ff0000; stroke-opacity: 0.9; stroke-width: 1.5; stroke-linecap: square"/>
   </g>
   <g id="line2d_38">
    <path d="M 92.290909 176.676614 
L 96.369484 164.539492 
L 98.408771 163.662456 
L 100.448058 169.760721 
L 102.487346 167.778337 
L 104.526633 168.946796 
L 106.565921 162.38182 
L 108.605208 164.617204 
L 110.644495 175.161581 
L 112.683783 248.314977 
L 114.72307 162.299521 
L 116.762357 164.417392 
L 118.801645 169.676429 
L 120.840932 161.621387 
L 122.880219 168.904455 
L 124.919507 166.147932 
L 126.958794 179.28779 
L 128.998081 162.930331 
L 131.037369 166.816745 
L 133.076656 174.230154 
L 135.115943 168.240387 
L 137.155231 166.489023 
L 139.194518 165.187272 
L 141.233805 168.328423 
L 143.273093 165.988515 
L 145.31238 161.375079 
L 147.351667 161.459034 
L 149.390955 163.911567 
L 151.430242 163.229081 
L 153.469529 164.29396 
L 155.508817 167.993923 
L 157.548104 163.183973 
L 159.587392 166.130449 
L 161.626679 169.295611 
L 163.665966 167.907217 
L 165.705254 249.395296 
L 167.744541 162.886545 
L 169.783828 167.66759 
L 171.823116 166.678087 
L 173.862403 165.887939 
L 175.90169 172.371925 
L 177.940978 170.328714 
L 179.980265 185.241731 
L 182.019552 169.147967 
L 184.05884 173.714979 
L 186.098127 188.726446 
L 188.137414 173.365271 
L 190.176702 174.263182 
L 192.215989 197.961923 
L 194.255276 192.564914 
L 196.294564 191.084853 
L 198.333851 189.322765 
L 200.373138 171.591161 
L 202.412426 166.765555 
L 204.451713 168.218656 
L 206.491 166.535345 
L 208.530288 174.747723 
L 210.569575 165.983781 
L 212.608862 163.814259 
L 214.64815 168.273701 
L 216.687437 162.102658 
L 218.726725 167.632638 
L 220.766012 167.562231 
L 222.805299 169.953629 
L 224.844587 163.143704 
L 226.883874 177.474986 
L 228.923161 187.862055 
L 230.962449 167.82079 
L 233.001736 171.273001 
L 235.041023 167.658662 
L 237.080311 166.255504 
L 239.119598 168.831288 
L 241.158885 165.15808 
L 243.198173 171.423705 
L 245.23746 162.967262 
L 247.276747 164.360316 
L 249.316035 165.437234 
L 251.355322 170.240648 
L 253.394609 165.927703 
L 255.433897 162.909833 
L 257.473184 169.68614 
L 259.512471 165.203269 
L 261.551759 162.897467 
L 263.591046 164.013384 
L 265.630333 167.651919 
L 267.669621 164.0505 
L 269.708908 165.274955 
L 271.748196 165.662416 
L 273.787483 166.798334 
L 275.82677 162.131471 
L 277.866058 248.947903 
L 279.905345 167.726497 
L 281.944632 164.067404 
L 283.98392 163.639699 
L 286.023207 169.509849 
L 288.062494 171.233552 
L 290.101782 170.073025 
L 292.141069 172.314637 
L 294.180356 166.979945 
L 296.219644 168.286936 
L 298.258931 175.400548 
L 300.298218 169.533311 
L 302.337506 164.709495 
L 304.376793 170.534671 
L 306.41608 163.90511 
L 308.455368 167.305031 
L 310.494655 169.001782 
L 312.533942 163.857228 
L 314.57323 250.95412 
L 316.612517 160.40817 
L 318.651804 162.343478 
L 320.691092 162.942352 
L 322.730379 166.640087 
L 324.769667 166.582721 
L 326.808954 165.548256 
L 328.848241 168.014429 
L 332.926816 165.364134 
L 334.966103 164.350854 
L 337.005391 160.508824 
L 339.044678 163.420485 
L 341.083965 163.603619 
L 343.123253 162.874488 
L 345.16254 165.767177 
L 347.201827 163.01345 
L 349.241115 249.751241 
L 351.280402 163.981511 
L 353.319689 164.447442 
L 355.358977 171.333675 
L 357.398264 167.192969 
L 359.437551 172.078073 
L 361.476839 167.223561 
L 363.516126 166.685132 
L 365.555413 170.763076 
L 367.594701 167.243755 
L 369.633988 170.676715 
L 371.673275 166.105843 
L 373.712563 172.119163 
L 375.75185 175.513559 
L 377.791138 174.249503 
L 379.830425 168.30489 
L 381.869712 178.127874 
L 383.909 172.114131 
L 385.948287 169.541874 
L 387.987574 169.330377 
L 390.026862 171.842928 
L 392.066149 172.718307 
L 394.105436 171.981842 
L 396.144724 249.143091 
L 398.184011 165.786279 
L 400.223298 171.566923 
L 402.262586 171.661929 
L 404.301873 170.642807 
L 406.34116 168.157837 
L 408.380448 173.265207 
L 410.419735 167.609489 
L 412.459022 171.599999 
L 414.49831 165.050018 
L 416.537597 166.629626 
L 418.576884 162.023312 
L 420.616172 168.91499 
L 422.655459 167.355475 
L 424.694746 172.514084 
L 426.734034 167.240799 
L 428.773321 172.942932 
L 430.812608 175.93529 
L 432.851896 173.290678 
L 434.891183 173.706484 
L 436.930471 178.142447 
L 438.969758 171.249754 
L 441.009045 178.757157 
L 443.048333 172.865439 
L 445.08762 174.803902 
L 447.126907 175.6334 
L 449.166195 164.177371 
L 451.205482 169.206803 
L 453.244769 172.857481 
L 455.284057 179.405608 
L 457.323344 181.285808 
L 459.362631 173.399223 
L 461.401919 173.511385 
L 463.441206 176.185109 
L 465.480493 174.913872 
L 467.519781 175.259235 
L 469.559068 176.613116 
L 471.598355 170.77979 
L 473.637643 176.109755 
L 475.67693 178.188704 
L 477.716217 180.724884 
L 479.755505 173.092188 
L 481.794792 176.612083 
L 483.834079 170.435012 
L 485.873367 173.770221 
L 487.912654 178.668032 
L 489.951942 172.920826 
L 491.991229 169.273616 
L 494.030516 169.775924 
L 496.069804 174.926362 
L 498.109091 175.451408 
L 498.109091 175.451408 
" clip-path="url(#p3ec7463d2d)" style="fill: none; stroke: #ff0000; stroke-opacity: 0.9; stroke-width: 1.5; stroke-linecap: square"/>
   </g>
   <g id="line2d_39">
    <path d="M 92.290909 177.825682 
L 94.330196 170.515078 
L 96.369484 163.952772 
L 98.408771 164.531801 
L 100.448058 170.116755 
L 102.487346 165.696769 
L 104.526633 168.882642 
L 106.565921 163.528291 
L 108.605208 164.520404 
L 110.644495 175.293321 
L 112.683783 247.973503 
L 114.72307 163.191315 
L 116.762357 164.304617 
L 118.801645 170.593856 
L 120.840932 163.269569 
L 122.880219 168.350685 
L 124.919507 166.592165 
L 126.958794 180.845203 
L 128.998081 163.467772 
L 131.037369 167.656713 
L 133.076656 173.773917 
L 135.115943 168.435453 
L 137.155231 166.251337 
L 139.194518 165.178181 
L 141.233805 168.220483 
L 143.273093 164.921085 
L 145.31238 162.043766 
L 147.351667 161.64427 
L 149.390955 165.218874 
L 151.430242 162.016561 
L 153.469529 165.172106 
L 155.508817 168.55616 
L 157.548104 165.156383 
L 159.587392 165.472215 
L 161.626679 168.646334 
L 163.665966 168.186824 
L 165.705254 250.044959 
L 167.744541 162.909045 
L 169.783828 168.9287 
L 171.823116 166.906634 
L 173.862403 168.052244 
L 175.90169 173.379887 
L 177.940978 171.967422 
L 179.980265 184.801323 
L 182.019552 169.727378 
L 184.05884 172.457598 
L 186.098127 188.286415 
L 188.137414 173.349893 
L 190.176702 174.33232 
L 192.215989 197.856067 
L 194.255276 192.904927 
L 196.294564 189.162206 
L 198.333851 188.871092 
L 200.373138 172.687355 
L 202.412426 164.70111 
L 204.451713 168.070495 
L 206.491 167.189946 
L 208.530288 174.672113 
L 210.569575 166.701274 
L 212.608862 164.267735 
L 214.64815 169.362795 
L 216.687437 162.664096 
L 218.726725 168.205079 
L 220.766012 167.322622 
L 222.805299 170.009116 
L 224.844587 163.052653 
L 226.883874 177.547846 
L 228.923161 186.822105 
L 230.962449 166.184283 
L 233.001736 172.069959 
L 235.041023 166.154352 
L 237.080311 166.493167 
L 239.119598 168.695701 
L 241.158885 165.608827 
L 243.198173 170.823305 
L 245.23746 162.11775 
L 247.276747 164.302586 
L 249.316035 165.273291 
L 251.355322 168.813931 
L 255.433897 163.221509 
L 257.473184 169.770662 
L 259.512471 164.405847 
L 261.551759 162.700541 
L 263.591046 165.063958 
L 265.630333 167.077781 
L 267.669621 163.373595 
L 269.708908 164.967018 
L 271.748196 164.455578 
L 273.787483 166.535226 
L 275.82677 162.676912 
L 277.866058 248.598798 
L 279.905345 168.253314 
L 281.944632 164.489085 
L 283.98392 163.670109 
L 286.023207 170.628273 
L 288.062494 172.072566 
L 290.101782 170.265421 
L 292.141069 170.890556 
L 294.180356 168.01265 
L 296.219644 169.23927 
L 298.258931 174.761246 
L 300.298218 170.371122 
L 302.337506 164.558111 
L 304.376793 170.65433 
L 306.41608 164.505023 
L 308.455368 167.337947 
L 310.494655 168.501817 
L 312.533942 163.806368 
L 314.57323 250.086309 
L 316.612517 161.372498 
L 318.651804 162.875219 
L 320.691092 163.038393 
L 322.730379 165.677946 
L 326.808954 164.718054 
L 328.848241 167.280726 
L 330.887529 166.984817 
L 332.926816 163.693166 
L 334.966103 166.075972 
L 337.005391 162.483135 
L 339.044678 163.986706 
L 341.083965 163.011578 
L 343.123253 163.076338 
L 345.16254 165.233085 
L 347.201827 163.807096 
L 349.241115 251.738182 
L 351.280402 163.385976 
L 353.319689 163.77786 
L 355.358977 171.332097 
L 357.398264 166.956517 
L 359.437551 172.101728 
L 361.476839 167.174873 
L 363.516126 165.952264 
L 365.555413 169.631837 
L 367.594701 167.116152 
L 369.633988 169.425772 
L 371.673275 165.565245 
L 375.75185 176.612765 
L 377.791138 174.642947 
L 379.830425 165.849286 
L 381.869712 179.181865 
L 383.909 171.046849 
L 385.948287 170.396102 
L 387.987574 168.45262 
L 390.026862 172.554234 
L 392.066149 171.088437 
L 394.105436 172.206667 
L 396.144724 248.548871 
L 398.184011 165.677875 
L 400.223298 170.941008 
L 402.262586 171.308453 
L 404.301873 170.583982 
L 406.34116 168.177667 
L 408.380448 172.736188 
L 410.419735 167.021525 
L 412.459022 172.322929 
L 414.49831 166.022728 
L 416.537597 166.92552 
L 418.576884 161.13026 
L 420.616172 169.454652 
L 422.655459 168.631599 
L 424.694746 171.848966 
L 426.734034 169.213198 
L 428.773321 173.063231 
L 430.812608 176.623642 
L 432.851896 172.727316 
L 434.891183 173.061296 
L 436.930471 178.555147 
L 438.969758 170.682527 
L 441.009045 179.127882 
L 443.048333 172.93607 
L 445.08762 174.295937 
L 447.126907 174.894092 
L 449.166195 164.027506 
L 451.205482 170.981912 
L 453.244769 172.499535 
L 455.284057 178.27832 
L 457.323344 180.694664 
L 459.362631 173.396646 
L 461.401919 173.569379 
L 463.441206 176.336751 
L 465.480493 174.575764 
L 467.519781 174.854972 
L 469.559068 174.820732 
L 471.598355 170.105243 
L 473.637643 175.789003 
L 475.67693 178.572406 
L 477.716217 180.10279 
L 479.755505 173.483939 
L 481.794792 178.032378 
L 483.834079 170.870433 
L 485.873367 174.404339 
L 487.912654 178.570389 
L 489.951942 172.641932 
L 491.991229 169.204341 
L 494.030516 169.749414 
L 496.069804 173.699796 
L 498.109091 176.389053 
L 498.109091 176.389053 
" clip-path="url(#p3ec7463d2d)" style="fill: none; stroke: #ff0000; stroke-opacity: 0.9; stroke-width: 1.5; stroke-linecap: square"/>
   </g>
   <g id="line2d_40">
    <path d="M 92.290909 170.835589 
L 94.330196 169.109499 
L 96.369484 165.786223 
L 98.408771 163.74094 
L 100.448058 166.989192 
L 102.487346 165.126055 
L 104.526633 167.706741 
L 106.565921 163.599839 
L 108.605208 164.643781 
L 110.644495 174.544597 
L 112.683783 247.16243 
L 114.72307 162.008169 
L 116.762357 163.210591 
L 118.801645 169.568771 
L 120.840932 161.201771 
L 122.880219 167.809983 
L 124.919507 165.759219 
L 126.958794 180.13965 
L 128.998081 163.282514 
L 131.037369 166.147074 
L 133.076656 173.446611 
L 135.115943 167.148586 
L 139.194518 165.772413 
L 141.233805 167.371476 
L 143.273093 164.755943 
L 145.31238 161.7386 
L 147.351667 161.814292 
L 149.390955 164.382582 
L 151.430242 162.784554 
L 153.469529 163.635195 
L 155.508817 167.701687 
L 157.548104 164.073 
L 159.587392 165.400946 
L 161.626679 168.471671 
L 163.665966 167.867152 
L 165.705254 247.337153 
L 167.744541 163.767083 
L 169.783828 167.824462 
L 171.823116 166.309052 
L 173.862403 166.719296 
L 175.90169 171.90853 
L 177.940978 171.02139 
L 179.980265 183.506654 
L 182.019552 168.967677 
L 184.05884 172.852639 
L 186.098127 188.457915 
L 188.137414 172.167679 
L 190.176702 174.266652 
L 192.215989 195.70179 
L 198.333851 186.923694 
L 200.373138 172.570024 
L 202.412426 164.780898 
L 204.451713 166.809118 
L 206.491 166.999979 
L 208.530288 173.41538 
L 210.569575 166.148637 
L 212.608862 163.586043 
L 214.64815 167.322057 
L 216.687437 161.164692 
L 218.726725 165.84047 
L 220.766012 166.591879 
L 222.805299 169.945475 
L 224.844587 162.686043 
L 226.883874 177.332861 
L 228.923161 186.248785 
L 230.962449 165.792492 
L 233.001736 170.405883 
L 235.041023 167.126011 
L 237.080311 166.175055 
L 239.119598 168.351465 
L 241.158885 165.546009 
L 243.198173 170.602706 
L 245.23746 162.014731 
L 247.276747 163.964473 
L 249.316035 165.133144 
L 251.355322 169.175372 
L 253.394609 165.522287 
L 255.433897 163.003479 
L 257.473184 169.151613 
L 259.512471 163.654694 
L 261.551759 162.408171 
L 263.591046 164.449521 
L 265.630333 167.77915 
L 267.669621 163.791466 
L 269.708908 164.867292 
L 271.748196 164.823075 
L 273.787483 166.546671 
L 275.82677 162.48433 
L 277.866058 247.897254 
L 279.905345 169.01541 
L 281.944632 164.431366 
L 283.98392 162.79281 
L 286.023207 170.004174 
L 288.062494 170.825318 
L 290.101782 169.07099 
L 292.141069 171.135126 
L 294.180356 166.513012 
L 296.219644 167.867082 
L 298.258931 174.593831 
L 300.298218 168.457266 
L 302.337506 166.038213 
L 304.376793 170.6176 
L 306.41608 163.646792 
L 308.455368 167.092011 
L 310.494655 166.769454 
L 312.533942 163.185774 
L 314.57323 247.701776 
L 316.612517 161.508508 
L 318.651804 162.237614 
L 320.691092 162.675794 
L 322.730379 164.707363 
L 324.769667 164.37081 
L 326.808954 164.51245 
L 328.848241 165.728913 
L 330.887529 166.44133 
L 332.926816 164.163015 
L 334.966103 165.809344 
L 337.005391 161.470029 
L 339.044678 162.913624 
L 341.083965 162.222552 
L 343.123253 163.106818 
L 345.16254 164.532313 
L 347.201827 163.74823 
L 349.241115 248.371006 
L 351.280402 164.214803 
L 353.319689 162.486629 
L 355.358977 170.430467 
L 357.398264 167.600717 
L 359.437551 172.235146 
L 361.476839 168.055875 
L 363.516126 167.21567 
L 365.555413 170.099922 
L 367.594701 167.242329 
L 369.633988 169.982502 
L 371.673275 165.227043 
L 373.712563 171.238138 
L 375.75185 176.259165 
L 377.791138 174.14438 
L 379.830425 165.878162 
L 381.869712 177.83236 
L 383.909 171.642128 
L 385.948287 169.714024 
L 387.987574 167.950219 
L 390.026862 171.266543 
L 394.105436 172.758056 
L 396.144724 247.942381 
L 398.184011 166.090027 
L 400.223298 170.392322 
L 402.262586 171.21067 
L 404.301873 170.842675 
L 406.34116 167.920612 
L 408.380448 172.684856 
L 410.419735 166.747492 
L 412.459022 170.962464 
L 414.49831 165.315216 
L 416.537597 166.222829 
L 418.576884 161.308693 
L 420.616172 168.606756 
L 422.655459 167.361729 
L 424.694746 171.299017 
L 426.734034 167.673583 
L 428.773321 171.831416 
L 430.812608 175.017877 
L 432.851896 172.007223 
L 434.891183 173.592842 
L 436.930471 178.007718 
L 438.969758 171.241744 
L 441.009045 177.927539 
L 443.048333 172.073171 
L 445.08762 174.190834 
L 447.126907 175.48962 
L 449.166195 163.818359 
L 451.205482 169.149567 
L 453.244769 172.527835 
L 455.284057 178.169929 
L 457.323344 179.352427 
L 459.362631 174.496255 
L 461.401919 173.167561 
L 463.441206 175.944068 
L 465.480493 175.127009 
L 467.519781 175.72195 
L 469.559068 175.75653 
L 471.598355 169.442728 
L 473.637643 174.826976 
L 475.67693 178.053576 
L 477.716217 178.316918 
L 479.755505 173.443198 
L 481.794792 176.468626 
L 483.834079 170.345413 
L 487.912654 177.410037 
L 489.951942 172.33108 
L 491.991229 169.095243 
L 494.030516 168.331724 
L 496.069804 174.281434 
L 498.109091 175.763678 
L 498.109091 175.763678 
" clip-path="url(#p3ec7463d2d)" style="fill: none; stroke: #008000; stroke-opacity: 0.9; stroke-width: 1.5; stroke-linecap: square"/>
   </g>
   <g id="line2d_41">
    <path d="M 438.969758 256.32 
L 438.969758 155.52 
" clip-path="url(#p3ec7463d2d)" style="fill: none; stroke-dasharray: 5.55,2.4; stroke-dashoffset: 0; stroke: #0000ff; stroke-width: 1.5"/>
   </g>
   <g id="line2d_42">
    <path d="M 153.469529 256.32 
L 153.469529 155.52 
" clip-path="url(#p3ec7463d2d)" style="fill: none; stroke-dasharray: 5.55,2.4; stroke-dashoffset: 0; stroke: #000000; stroke-width: 1.5"/>
   </g>
   <g id="patch_8">
    <path d="M 72 256.32 
L 72 155.52 
" style="fill: none; stroke: #000000; stroke-width: 0.8; stroke-linejoin: miter; stroke-linecap: square"/>
   </g>
   <g id="patch_9">
    <path d="M 518.4 256.32 
L 518.4 155.52 
" style="fill: none; stroke: #000000; stroke-width: 0.8; stroke-linejoin: miter; stroke-linecap: square"/>
   </g>
   <g id="patch_10">
    <path d="M 72 256.32 
L 518.4 256.32 
" style="fill: none; stroke: #000000; stroke-width: 0.8; stroke-linejoin: miter; stroke-linecap: square"/>
   </g>
   <g id="patch_11">
    <path d="M 72 155.52 
L 518.4 155.52 
" style="fill: none; stroke: #000000; stroke-width: 0.8; stroke-linejoin: miter; stroke-linecap: square"/>
   </g>
  </g>
 </g>
 <defs>
  <clipPath id="pbeaf087285">
   <rect x="72" y="34.56" width="446.4" height="100.8"/>
  </clipPath>
  <clipPath id="p3ec7463d2d">
   <rect x="72" y="155.52" width="446.4" height="100.8"/>
  </clipPath>
 </defs>
</svg>
