<?xml version="1.0" encoding="utf-8" standalone="no"?>
<!DOCTYPE svg PUBLIC "-//W3C//DTD SVG 1.1//EN"
  "http://www.w3.org/Graphics/SVG/1.1/DTD/svg11.dtd">
<svg xmlns:xlink="http://www.w3.org/1999/xlink" width="576pt" height="288pt" viewBox="0 0 576 288" xmlns="http://www.w3.org/2000/svg" version="1.1">
 <metadata>
  <rdf:RDF xmlns:dc="http://purl.org/dc/elements/1.1/" xmlns:cc="http://creativecommons.org/ns#" xmlns:rdf="http://www.w3.org/1999/02/22-rdf-syntax-ns#">
   <cc:Work>
    <dc:type rdf:resource="http://purl.org/dc/dcmitype/StillImage"/>
    <dc:date>2025-01-01T00:42:38.367244</dc:date>
    <dc:format>image/svg+xml</dc:format>
    <dc:creator>
     <cc:Agent>
      <dc:title>Matplotlib v3.10.0, https://matplotlib.org/</dc:title>
     </cc:Agent>
    </dc:creator>
   </cc:Work>
  </rdf:RDF>
 </metadata>
 <defs>
  <style type="text/css">*{stroke-linejoin: round; stroke-linecap: butt}</style>
 </defs>
 <g id="figure_1">
  <g id="patch_1">
   <path d="M 0 288 
L 576 288 
L 576 0 
L 0 0 
z
" style="fill: #ffffff"/>
  </g>
  <g id="axes_1">
   <g id="patch_2">
    <path d="M 72 135.36 
L 518.4 135.36 
L 518.4 34.56 
L 72 34.56 
z
" style="fill: #ffffff"/>
   </g>
   <g id="matplotlib.axis_1">
    <g id="xtick_1">
     <g id="line2d_1">
      <defs>
       <path id="m15f9d0de18" d="M 0 0 
L 0 3.5 
" style="stroke: #000000; stroke-width: 0.8"/>
      </defs>
      <g>
       <use xlink:href="#m15f9d0de18" x="92.290909" y="135.36" style="stroke: #000000; stroke-width: 0.8"/>
      </g>
     </g>
    </g>
    <g id="xtick_2">
     <g id="line2d_2">
      <g>
       <use xlink:href="#m15f9d0de18" x="143.273093" y="135.36" style="stroke: #000000; stroke-width: 0.8"/>
      </g>
     </g>
    </g>
    <g id="xtick_3">
     <g id="line2d_3">
      <g>
       <use xlink:href="#m15f9d0de18" x="194.255276" y="135.36" style="stroke: #000000; stroke-width: 0.8"/>
      </g>
     </g>
    </g>
    <g id="xtick_4">
     <g id="line2d_4">
      <g>
       <use xlink:href="#m15f9d0de18" x="245.23746" y="135.36" style="stroke: #000000; stroke-width: 0.8"/>
      </g>
     </g>
    </g>
    <g id="xtick_5">
     <g id="line2d_5">
      <g>
       <use xlink:href="#m15f9d0de18" x="296.219644" y="135.36" style="stroke: #000000; stroke-width: 0.8"/>
      </g>
     </g>
    </g>
    <g id="xtick_6">
     <g id="line2d_6">
      <g>
       <use xlink:href="#m15f9d0de18" x="347.201827" y="135.36" style="stroke: #000000; stroke-width: 0.8"/>
      </g>
     </g>
    </g>
    <g id="xtick_7">
     <g id="line2d_7">
      <g>
       <use xlink:href="#m15f9d0de18" x="398.184011" y="135.36" style="stroke: #000000; stroke-width: 0.8"/>
      </g>
     </g>
    </g>
    <g id="xtick_8">
     <g id="line2d_8">
      <g>
       <use xlink:href="#m15f9d0de18" x="449.166195" y="135.36" style="stroke: #000000; stroke-width: 0.8"/>
      </g>
     </g>
    </g>
    <g id="xtick_9">
     <g id="line2d_9">
      <g>
       <use xlink:href="#m15f9d0de18" x="500.148378" y="135.36" style="stroke: #000000; stroke-width: 0.8"/>
      </g>
     </g>
    </g>
   </g>
   <g id="matplotlib.axis_2">
    <g id="ytick_1">
     <g id="line2d_10">
      <defs>
       <path id="m2e2bfab407" d="M 0 0 
L -3.5 0 
" style="stroke: #000000; stroke-width: 0.8"/>
      </defs>
      <g>
       <use xlink:href="#m2e2bfab407" x="72" y="114.839596" style="stroke: #000000; stroke-width: 0.8"/>
      </g>
     </g>
     <g id="text_1">
      <!-- −150 -->
      <g transform="translate(37.532812 118.638815) scale(0.1 -0.1)">
       <defs>
        <path id="DejaVuSans-2212" d="M 678 2272 
L 4684 2272 
L 4684 1741 
L 678 1741 
L 678 2272 
z
" transform="scale(0.015625)"/>
        <path id="DejaVuSans-31" d="M 794 531 
L 1825 531 
L 1825 4091 
L 703 3866 
L 703 4441 
L 1819 4666 
L 2450 4666 
L 2450 531 
L 3481 531 
L 3481 0 
L 794 0 
L 794 531 
z
" transform="scale(0.015625)"/>
        <path id="DejaVuSans-35" d="M 691 4666 
L 3169 4666 
L 3169 4134 
L 1269 4134 
L 1269 2991 
Q 1406 3038 1543 3061 
Q 1681 3084 1819 3084 
Q 2600 3084 3056 2656 
Q 3513 2228 3513 1497 
Q 3513 744 3044 326 
Q 2575 -91 1722 -91 
Q 1428 -91 1123 -41 
Q 819 9 494 109 
L 494 744 
Q 775 591 1075 516 
Q 1375 441 1709 441 
Q 2250 441 2565 725 
Q 2881 1009 2881 1497 
Q 2881 1984 2565 2268 
Q 2250 2553 1709 2553 
Q 1456 2553 1204 2497 
Q 953 2441 691 2322 
L 691 4666 
z
" transform="scale(0.015625)"/>
        <path id="DejaVuSans-30" d="M 2034 4250 
Q 1547 4250 1301 3770 
Q 1056 3291 1056 2328 
Q 1056 1369 1301 889 
Q 1547 409 2034 409 
Q 2525 409 2770 889 
Q 3016 1369 3016 2328 
Q 3016 3291 2770 3770 
Q 2525 4250 2034 4250 
z
M 2034 4750 
Q 2819 4750 3233 4129 
Q 3647 3509 3647 2328 
Q 3647 1150 3233 529 
Q 2819 -91 2034 -91 
Q 1250 -91 836 529 
Q 422 1150 422 2328 
Q 422 3509 836 4129 
Q 1250 4750 2034 4750 
z
" transform="scale(0.015625)"/>
       </defs>
       <use xlink:href="#DejaVuSans-2212"/>
       <use xlink:href="#DejaVuSans-31" transform="translate(83.789062 0)"/>
       <use xlink:href="#DejaVuSans-35" transform="translate(147.412109 0)"/>
       <use xlink:href="#DejaVuSans-30" transform="translate(211.035156 0)"/>
      </g>
     </g>
    </g>
    <g id="ytick_2">
     <g id="line2d_11">
      <g>
       <use xlink:href="#m2e2bfab407" x="72" y="79.874137" style="stroke: #000000; stroke-width: 0.8"/>
      </g>
     </g>
     <g id="text_2">
      <!-- −100 -->
      <g transform="translate(37.532812 83.673356) scale(0.1 -0.1)">
       <use xlink:href="#DejaVuSans-2212"/>
       <use xlink:href="#DejaVuSans-31" transform="translate(83.789062 0)"/>
       <use xlink:href="#DejaVuSans-30" transform="translate(147.412109 0)"/>
       <use xlink:href="#DejaVuSans-30" transform="translate(211.035156 0)"/>
      </g>
     </g>
    </g>
    <g id="ytick_3">
     <g id="line2d_12">
      <g>
       <use xlink:href="#m2e2bfab407" x="72" y="44.908678" style="stroke: #000000; stroke-width: 0.8"/>
      </g>
     </g>
     <g id="text_3">
      <!-- −50 -->
      <g transform="translate(43.895313 48.707897) scale(0.1 -0.1)">
       <use xlink:href="#DejaVuSans-2212"/>
       <use xlink:href="#DejaVuSans-35" transform="translate(83.789062 0)"/>
       <use xlink:href="#DejaVuSans-30" transform="translate(147.412109 0)"/>
      </g>
     </g>
    </g>
   </g>
   <g id="line2d_13">
    <path d="M 92.290909 65.054787 
L 94.330196 97.991171 
L 96.369484 122.124049 
L 98.408771 108.414843 
L 100.448058 90.046804 
L 102.487346 104.340504 
L 104.526633 98.165294 
L 106.565921 76.65738 
L 108.605208 111.973203 
L 110.644495 54.065252 
L 112.683783 81.899649 
L 114.72307 120.675258 
L 116.762357 122.557148 
L 118.801645 109.707683 
L 120.840932 64.429265 
L 122.880219 115.337412 
L 124.919507 70.579138 
L 126.958794 75.1678 
L 128.998081 87.980361 
L 131.037369 70.905707 
L 133.076656 57.489254 
L 135.115943 62.726267 
L 137.155231 101.211092 
L 139.194518 103.770662 
L 141.233805 121.617195 
L 143.273093 127.006836 
L 145.31238 117.836075 
L 147.351667 114.808235 
L 149.390955 114.467299 
L 153.469529 106.820653 
L 155.508817 110.35492 
L 157.548104 122.513889 
L 159.587392 117.970044 
L 161.626679 114.579201 
L 163.665966 92.846469 
L 165.705254 90.90024 
L 167.744541 109.059113 
L 169.783828 42.314386 
L 171.823116 54.476559 
L 173.862403 80.543766 
L 175.90169 53.235036 
L 177.940978 43.824995 
L 179.980265 71.687858 
L 182.019552 66.803481 
L 184.05884 75.892575 
L 186.098127 65.922761 
L 188.137414 60.341092 
L 190.176702 75.176118 
L 192.215989 58.444284 
L 194.255276 55.739978 
L 196.294564 69.247094 
L 198.333851 76.021422 
L 200.373138 97.582102 
L 202.412426 72.794587 
L 204.451713 51.518319 
L 206.491 51.795202 
L 208.530288 86.515728 
L 210.569575 64.106804 
L 212.608862 109.855557 
L 214.64815 106.565199 
L 216.687437 91.016747 
L 218.726725 94.076267 
L 220.766012 109.9794 
L 222.805299 120.362619 
L 224.844587 118.774576 
L 226.883874 70.411556 
L 228.923161 62.028457 
L 230.962449 83.226 
L 233.001736 77.228279 
L 235.041023 42.256828 
L 237.080311 60.692262 
L 239.119598 59.254344 
L 241.158885 76.925266 
L 243.198173 56.8559 
L 245.23746 82.732687 
L 247.276747 50.291044 
L 249.316035 97.213112 
L 251.355322 77.041559 
L 253.394609 107.43702 
L 255.433897 97.519135 
L 257.473184 75.199262 
L 259.512471 72.385363 
L 261.551759 56.292449 
L 263.591046 71.436741 
L 265.630333 69.669629 
L 267.669621 61.095734 
L 269.708908 48.427603 
L 271.748196 47.769269 
L 273.787483 65.666309 
L 275.82677 59.73657 
L 277.866058 68.350042 
L 279.905345 55.278399 
L 281.944632 77.406265 
L 283.98392 77.383921 
L 286.023207 65.581536 
L 288.062494 54.52387 
L 290.101782 78.559971 
L 294.180356 56.790767 
L 296.219644 49.521909 
L 298.258931 86.682825 
L 300.298218 56.336561 
L 302.337506 70.209274 
L 304.376793 62.814711 
L 306.41608 41.477092 
L 308.455368 47.443837 
L 310.494655 60.537197 
L 312.533942 63.295753 
L 314.57323 77.4556 
L 316.612517 43.784158 
L 318.651804 58.26385 
L 320.691092 49.192536 
L 322.730379 45.727421 
L 324.769667 55.962876 
L 326.808954 67.15829 
L 328.848241 51.954357 
L 330.887529 44.416229 
L 332.926816 50.616561 
L 334.966103 49.043214 
L 337.005391 67.985673 
L 339.044678 47.859099 
L 341.083965 52.154266 
L 343.123253 54.344921 
L 345.16254 54.327872 
L 347.201827 59.442131 
L 349.241115 59.68676 
L 351.280402 47.867417 
L 353.319689 54.087666 
L 355.358977 64.696761 
L 357.398264 66.830841 
L 359.437551 81.606095 
L 361.476839 56.485747 
L 363.516126 71.930902 
L 365.555413 48.190254 
L 367.594701 78.332052 
L 369.633988 50.07431 
L 371.673275 55.781519 
L 373.712563 56.385731 
L 375.75185 66.764379 
L 377.791138 60.101457 
L 379.830425 81.35438 
L 381.869712 69.009689 
L 383.909 72.963988 
L 385.948287 108.668889 
L 387.987574 74.622356 
L 390.026862 81.528978 
L 392.066149 66.044006 
L 394.105436 70.621533 
L 396.144724 96.046622 
L 398.184011 81.223468 
L 400.223298 83.974266 
L 402.262586 59.352423 
L 404.301873 81.501075 
L 406.34116 84.466438 
L 408.380448 74.630524 
L 410.419735 53.407361 
L 412.459022 70.059981 
L 414.49831 103.718141 
L 416.537597 78.406571 
L 418.576884 114.074716 
L 420.616172 97.568844 
L 422.655459 87.323862 
L 424.694746 77.959899 
L 426.734034 69.181987 
L 428.773321 68.863838 
L 430.812608 71.451978 
L 432.851896 63.345072 
L 434.891183 77.457393 
L 436.930471 62.78621 
L 438.969758 56.797414 
L 441.009045 81.160085 
L 443.048333 46.218013 
L 447.126907 73.16125 
L 449.166195 69.2635 
L 451.205482 50.8843 
L 453.244769 71.663086 
L 455.284057 75.284787 
L 457.323344 55.852953 
L 459.362631 51.488852 
L 461.401919 59.048278 
L 463.441206 63.441022 
L 465.480493 63.829032 
L 467.519781 60.834768 
L 469.559068 57.574731 
L 471.598355 77.713322 
L 473.637643 76.439545 
L 475.67693 75.390576 
L 477.716217 53.317074 
L 479.755505 68.58136 
L 481.794792 67.761958 
L 483.834079 70.910157 
L 485.873367 61.935378 
L 487.912654 73.439092 
L 489.951942 53.596492 
L 491.991229 57.731877 
L 494.030516 39.141818 
L 496.069804 70.559542 
L 498.109091 62.410199 
L 498.109091 62.410199 
" clip-path="url(#pbb4d72be86)" style="fill: none; stroke: #ff0000; stroke-opacity: 0.9; stroke-width: 1.5; stroke-linecap: square"/>
   </g>
   <g id="line2d_14">
    <path d="M 92.290909 63.929048 
L 94.330196 108.969832 
L 96.369484 125.194848 
L 98.408771 99.380943 
L 100.448058 90.612528 
L 102.487346 108.541951 
L 104.526633 100.941018 
L 106.565921 73.308852 
L 108.605208 119.120443 
L 110.644495 52.396091 
L 112.683783 75.535355 
L 114.72307 124.30652 
L 116.762357 112.202152 
L 118.801645 110.529342 
L 120.840932 70.939181 
L 122.880219 115.696148 
L 124.919507 70.25058 
L 126.958794 72.61874 
L 128.998081 92.7371 
L 131.037369 69.976761 
L 133.076656 55.879555 
L 135.115943 51.923106 
L 137.155231 110.355592 
L 139.194518 110.623905 
L 141.233805 123.048434 
L 143.273093 118.163246 
L 145.31238 122.558951 
L 147.351667 124.117629 
L 149.390955 111.21639 
L 151.430242 106.158979 
L 153.469529 101.760884 
L 155.508817 109.11332 
L 157.548104 129.226462 
L 159.587392 111.929742 
L 161.626679 119.690904 
L 163.665966 97.915111 
L 165.705254 87.343597 
L 167.744541 108.666829 
L 169.783828 56.535734 
L 171.823116 62.85734 
L 173.862403 81.942897 
L 175.90169 58.626608 
L 177.940978 47.577056 
L 179.980265 72.50895 
L 182.019552 74.871269 
L 184.05884 71.466538 
L 186.098127 67.720732 
L 188.137414 61.986901 
L 190.176702 76.941522 
L 194.255276 51.840342 
L 196.294564 74.261758 
L 198.333851 85.163164 
L 200.373138 98.013515 
L 202.412426 74.238459 
L 204.451713 56.561786 
L 206.491 46.217978 
L 208.530288 74.209136 
L 210.569575 55.035947 
L 212.608862 109.924766 
L 214.64815 107.197134 
L 216.687437 98.978906 
L 218.726725 93.090218 
L 220.766012 101.515908 
L 222.805299 112.318867 
L 224.844587 119.205979 
L 226.883874 70.128193 
L 228.923161 65.712529 
L 230.962449 84.578154 
L 233.001736 73.000812 
L 235.041023 51.03395 
L 237.080311 69.196659 
L 239.119598 55.623295 
L 241.158885 70.057388 
L 243.198173 59.237516 
L 245.23746 87.629319 
L 247.276747 51.844127 
L 249.316035 106.353771 
L 251.355322 77.541814 
L 253.394609 114.289921 
L 255.433897 97.24665 
L 257.473184 69.465751 
L 259.512471 71.033706 
L 261.551759 58.421951 
L 263.591046 71.246468 
L 265.630333 75.454338 
L 267.669621 64.09997 
L 269.708908 47.756083 
L 271.748196 52.802079 
L 273.787483 61.973354 
L 275.82677 52.779022 
L 277.866058 69.484206 
L 279.905345 58.215176 
L 281.944632 80.226353 
L 283.98392 70.485963 
L 286.023207 57.104157 
L 288.062494 59.465142 
L 290.101782 72.715272 
L 292.141069 80.039478 
L 294.180356 59.755751 
L 296.219644 50.339755 
L 298.258931 84.720916 
L 300.298218 63.44424 
L 302.337506 66.302523 
L 304.376793 61.700491 
L 306.41608 53.694694 
L 308.455368 51.398976 
L 310.494655 66.001019 
L 312.533942 68.202132 
L 314.57323 78.115967 
L 316.612517 43.775072 
L 318.651804 63.30144 
L 320.691092 50.816678 
L 322.730379 51.121649 
L 324.769667 59.035143 
L 326.808954 65.879502 
L 328.848241 50.061063 
L 330.887529 47.094211 
L 332.926816 52.024685 
L 334.966103 54.208892 
L 337.005391 60.482803 
L 339.044678 56.885265 
L 341.083965 54.904699 
L 343.123253 56.825195 
L 345.16254 59.431519 
L 347.201827 56.094584 
L 349.241115 69.823035 
L 351.280402 42.2822 
L 353.319689 53.862129 
L 355.358977 67.934582 
L 357.398264 64.866141 
L 359.437551 86.217047 
L 361.476839 57.988148 
L 363.516126 57.812766 
L 365.555413 47.263653 
L 367.594701 70.224527 
L 369.633988 60.440393 
L 371.673275 61.020784 
L 373.712563 59.651147 
L 375.75185 79.806048 
L 377.791138 58.398774 
L 379.830425 95.355023 
L 381.869712 67.952941 
L 383.909 81.582017 
L 385.948287 91.081326 
L 387.987574 66.965749 
L 390.026862 85.13684 
L 392.066149 70.262013 
L 394.105436 63.26579 
L 396.144724 96.879581 
L 398.184011 81.895999 
L 400.223298 80.232184 
L 402.262586 62.067752 
L 404.301873 80.174061 
L 406.34116 72.288378 
L 408.380448 66.429722 
L 410.419735 59.024664 
L 412.459022 69.140996 
L 414.49831 97.68582 
L 416.537597 87.053437 
L 418.576884 121.922748 
L 420.616172 96.452095 
L 422.655459 86.548204 
L 424.694746 80.351492 
L 426.734034 61.317539 
L 428.773321 70.965447 
L 430.812608 73.253791 
L 432.851896 70.867672 
L 434.891183 78.442968 
L 436.930471 66.897004 
L 438.969758 61.59021 
L 441.009045 64.556411 
L 443.048333 46.684524 
L 445.08762 60.430619 
L 447.126907 71.383857 
L 449.166195 70.300897 
L 451.205482 55.343842 
L 453.244769 68.744503 
L 455.284057 65.369138 
L 457.323344 56.55867 
L 459.362631 53.470622 
L 461.401919 60.402523 
L 463.441206 63.351987 
L 465.480493 72.065853 
L 467.519781 64.28749 
L 469.559068 51.892324 
L 471.598355 73.520514 
L 473.637643 75.581164 
L 475.67693 69.962948 
L 477.716217 55.587762 
L 479.755505 74.114627 
L 481.794792 66.8103 
L 483.834079 63.83568 
L 485.873367 78.678863 
L 487.912654 70.908535 
L 489.951942 49.412802 
L 491.991229 56.704516 
L 494.030516 43.806276 
L 496.069804 61.073667 
L 498.109091 60.072662 
L 498.109091 60.072662 
" clip-path="url(#pbb4d72be86)" style="fill: none; stroke: #ff0000; stroke-opacity: 0.9; stroke-width: 1.5; stroke-linecap: square"/>
   </g>
   <g id="line2d_15">
    <path d="M 92.290909 62.73132 
L 94.330196 99.531441 
L 96.369484 122.615964 
L 98.408771 101.34265 
L 100.448058 96.232889 
L 102.487346 107.998273 
L 104.526633 100.733827 
L 106.565921 68.097549 
L 108.605208 115.654799 
L 110.644495 51.398272 
L 112.683783 80.675511 
L 114.72307 120.005506 
L 116.762357 111.986328 
L 118.801645 110.201092 
L 120.840932 72.537761 
L 122.880219 110.612679 
L 124.919507 71.764467 
L 126.958794 65.557319 
L 128.998081 86.386155 
L 131.037369 69.377868 
L 133.076656 57.562567 
L 135.115943 54.257062 
L 137.155231 115.008715 
L 139.194518 104.490928 
L 141.233805 120.423901 
L 143.273093 120.357434 
L 145.31238 112.659036 
L 147.351667 116.147696 
L 149.390955 124.104483 
L 151.430242 109.862343 
L 153.469529 99.722435 
L 155.508817 107.574233 
L 157.548104 130.778182 
L 159.587392 108.290242 
L 161.626679 127.548124 
L 163.665966 99.728741 
L 165.705254 97.581046 
L 167.744541 105.622002 
L 169.783828 51.433482 
L 171.823116 57.340074 
L 173.862403 80.380324 
L 175.90169 57.257136 
L 177.940978 45.110545 
L 179.980265 71.237435 
L 182.019552 63.422717 
L 184.05884 79.601781 
L 186.098127 65.195756 
L 188.137414 59.902962 
L 190.176702 72.992164 
L 192.215989 71.467371 
L 194.255276 56.504309 
L 196.294564 69.367656 
L 198.333851 80.022053 
L 200.373138 95.159425 
L 202.412426 72.030763 
L 204.451713 53.210678 
L 206.491 45.49928 
L 208.530288 86.816464 
L 210.569575 64.033865 
L 212.608862 112.243842 
L 214.64815 104.331925 
L 216.687437 94.499042 
L 218.726725 92.589905 
L 220.766012 108.956814 
L 222.805299 127.208009 
L 224.844587 124.034355 
L 226.883874 65.549487 
L 228.923161 62.157508 
L 230.962449 81.071711 
L 233.001736 79.979115 
L 235.041023 50.591838 
L 237.080311 69.758072 
L 239.119598 65.698497 
L 241.158885 77.390483 
L 243.198173 50.282625 
L 245.23746 92.104077 
L 247.276747 59.336876 
L 249.316035 101.818932 
L 251.355322 79.040064 
L 253.394609 110.675294 
L 255.433897 86.796734 
L 257.473184 66.838091 
L 259.512471 67.808936 
L 261.551759 57.102428 
L 263.591046 75.613677 
L 265.630333 71.166956 
L 267.669621 58.090122 
L 269.708908 54.536675 
L 271.748196 41.194318 
L 273.787483 68.355826 
L 275.82677 51.516961 
L 277.866058 65.300867 
L 279.905345 60.287878 
L 281.944632 89.935622 
L 283.98392 69.635232 
L 286.023207 59.807925 
L 288.062494 55.179125 
L 290.101782 66.598648 
L 292.141069 81.662617 
L 294.180356 57.368249 
L 296.219644 41.753005 
L 298.258931 86.700026 
L 300.298218 70.797294 
L 302.337506 69.962916 
L 304.376793 64.817462 
L 306.41608 40.545996 
L 308.455368 50.530218 
L 310.494655 50.899837 
L 312.533942 72.264247 
L 314.57323 72.10828 
L 316.612517 47.205183 
L 318.651804 60.150003 
L 320.691092 52.265403 
L 322.730379 41.151582 
L 324.769667 54.508822 
L 326.808954 63.496707 
L 328.848241 56.947838 
L 330.887529 55.607332 
L 332.926816 49.705451 
L 334.966103 45.218142 
L 337.005391 57.250067 
L 339.044678 48.610879 
L 341.083965 48.734122 
L 343.123253 51.929988 
L 345.16254 51.744368 
L 347.201827 60.913357 
L 349.241115 54.675846 
L 351.280402 51.998843 
L 353.319689 59.182717 
L 355.358977 61.357143 
L 357.398264 69.158811 
L 359.437551 83.01214 
L 361.476839 48.090329 
L 363.516126 61.980445 
L 365.555413 47.029094 
L 367.594701 69.408434 
L 369.633988 55.911065 
L 371.673275 61.943685 
L 373.712563 53.293885 
L 375.75185 74.626635 
L 377.791138 51.424465 
L 379.830425 91.738011 
L 381.869712 73.230807 
L 383.909 68.700711 
L 385.948287 104.35952 
L 387.987574 81.021473 
L 390.026862 86.312576 
L 392.066149 65.215316 
L 394.105436 67.263427 
L 396.144724 96.681321 
L 398.184011 84.814684 
L 400.223298 92.773946 
L 402.262586 61.626581 
L 404.301873 84.746317 
L 406.34116 84.250865 
L 408.380448 71.242834 
L 410.419735 61.657776 
L 412.459022 67.101207 
L 414.49831 100.720745 
L 416.537597 80.327515 
L 418.576884 106.00719 
L 420.616172 99.197702 
L 422.655459 89.737661 
L 424.694746 77.833084 
L 426.734034 68.369036 
L 428.773321 76.903989 
L 430.812608 60.712744 
L 432.851896 61.102825 
L 434.891183 71.142728 
L 436.930471 62.251836 
L 438.969758 64.537497 
L 441.009045 74.099064 
L 443.048333 53.751792 
L 445.08762 66.990409 
L 447.126907 75.55581 
L 451.205482 59.545545 
L 453.244769 64.385798 
L 455.284057 71.453051 
L 457.323344 59.757677 
L 459.362631 60.495731 
L 461.401919 54.53481 
L 463.441206 71.879571 
L 465.480493 69.173627 
L 467.519781 61.793955 
L 469.559068 48.374626 
L 471.598355 70.691313 
L 473.637643 75.213075 
L 475.67693 81.081293 
L 477.716217 57.881223 
L 479.755505 69.825767 
L 481.794792 71.620809 
L 483.834079 67.633634 
L 485.873367 74.291433 
L 487.912654 73.368089 
L 489.951942 55.509397 
L 491.991229 63.902313 
L 494.030516 50.020827 
L 496.069804 65.704979 
L 498.109091 65.228254 
L 498.109091 65.228254 
" clip-path="url(#pbb4d72be86)" style="fill: none; stroke: #ff0000; stroke-opacity: 0.9; stroke-width: 1.5; stroke-linecap: square"/>
   </g>
   <g id="line2d_16">
    <path d="M 92.290909 59.098916 
L 94.330196 100.559011 
L 96.369484 118.418818 
L 98.408771 107.81954 
L 100.448058 95.428196 
L 102.487346 103.812299 
L 104.526633 99.661324 
L 106.565921 71.093686 
L 108.605208 114.107336 
L 110.644495 46.48752 
L 114.72307 126.337255 
L 116.762357 109.796303 
L 118.801645 111.650919 
L 120.840932 77.740058 
L 122.880219 113.689454 
L 124.919507 79.185877 
L 126.958794 75.673139 
L 128.998081 93.094902 
L 131.037369 66.497491 
L 133.076656 55.45606 
L 135.115943 56.266583 
L 137.155231 115.08788 
L 139.194518 108.595443 
L 141.233805 123.728995 
L 143.273093 122.134218 
L 145.31238 115.524863 
L 147.351667 112.80963 
L 149.390955 110.681707 
L 151.430242 118.472609 
L 153.469529 105.141313 
L 155.508817 118.51782 
L 157.548104 123.778709 
L 159.587392 110.971745 
L 161.626679 125.908478 
L 163.665966 98.712403 
L 165.705254 91.882235 
L 167.744541 113.671591 
L 169.783828 56.277836 
L 171.823116 55.362009 
L 173.862403 81.802039 
L 175.90169 51.154856 
L 177.940978 53.637726 
L 179.980265 68.918711 
L 182.019552 64.084092 
L 184.05884 75.285833 
L 186.098127 66.443306 
L 188.137414 53.537815 
L 190.176702 74.826271 
L 192.215989 63.430474 
L 194.255276 47.789183 
L 196.294564 71.097965 
L 198.333851 85.962628 
L 200.373138 89.771332 
L 202.412426 66.29547 
L 204.451713 60.481347 
L 206.491 49.594189 
L 208.530288 78.973271 
L 210.569575 57.794193 
L 212.608862 108.649425 
L 214.64815 105.243035 
L 216.687437 91.230399 
L 218.726725 93.576408 
L 220.766012 108.508189 
L 222.805299 119.361343 
L 224.844587 124.144615 
L 226.883874 72.65183 
L 228.923161 65.105334 
L 230.962449 84.993624 
L 233.001736 75.086938 
L 235.041023 49.191891 
L 237.080311 68.48668 
L 239.119598 52.613113 
L 241.158885 78.867258 
L 243.198173 55.554064 
L 245.23746 90.176618 
L 247.276747 52.95218 
L 249.316035 99.070924 
L 251.355322 73.606391 
L 253.394609 109.349183 
L 255.433897 88.046614 
L 257.473184 72.722267 
L 259.512471 70.576039 
L 261.551759 58.161513 
L 263.591046 71.043614 
L 265.630333 73.162173 
L 267.669621 61.055522 
L 269.708908 58.154204 
L 271.748196 47.265685 
L 273.787483 61.620125 
L 275.82677 57.909212 
L 277.866058 74.161988 
L 279.905345 67.743989 
L 281.944632 80.623854 
L 283.98392 61.987002 
L 286.023207 59.997333 
L 288.062494 62.534324 
L 290.101782 74.727717 
L 292.141069 72.860248 
L 294.180356 64.589676 
L 296.219644 47.415461 
L 298.258931 92.741128 
L 300.298218 54.740803 
L 302.337506 66.881985 
L 304.376793 62.166156 
L 306.41608 50.659436 
L 308.455368 58.237152 
L 310.494655 49.680474 
L 314.57323 75.724486 
L 316.612517 41.682355 
L 318.651804 65.873164 
L 320.691092 48.939635 
L 322.730379 43.136788 
L 324.769667 64.349886 
L 326.808954 72.658867 
L 328.848241 48.929354 
L 330.887529 44.829764 
L 332.926816 54.582241 
L 334.966103 56.775097 
L 337.005391 67.520034 
L 339.044678 54.930943 
L 341.083965 54.038437 
L 343.123253 54.084105 
L 345.16254 46.486077 
L 347.201827 58.93222 
L 349.241115 54.057898 
L 351.280402 42.607753 
L 353.319689 59.550565 
L 355.358977 54.571314 
L 357.398264 69.816713 
L 359.437551 79.110794 
L 361.476839 57.7655 
L 363.516126 68.114238 
L 365.555413 48.05415 
L 367.594701 71.264042 
L 369.633988 54.507104 
L 371.673275 57.751554 
L 373.712563 62.501166 
L 375.75185 79.470511 
L 377.791138 58.339414 
L 379.830425 87.707764 
L 381.869712 68.873815 
L 383.909 72.915165 
L 385.948287 107.360917 
L 387.987574 78.289109 
L 390.026862 76.538317 
L 392.066149 65.396497 
L 394.105436 66.521249 
L 396.144724 104.064594 
L 398.184011 83.360093 
L 400.223298 93.890599 
L 402.262586 62.690393 
L 404.301873 81.698412 
L 406.34116 72.09548 
L 408.380448 68.205632 
L 410.419735 56.617615 
L 412.459022 66.953057 
L 414.49831 102.573409 
L 416.537597 87.586188 
L 418.576884 120.143872 
L 420.616172 100.599516 
L 422.655459 82.348439 
L 424.694746 88.874814 
L 426.734034 66.260182 
L 428.773321 75.852656 
L 430.812608 68.03384 
L 432.851896 70.000066 
L 434.891183 68.912512 
L 436.930471 72.472089 
L 438.969758 62.515534 
L 441.009045 69.610871 
L 443.048333 45.527075 
L 445.08762 66.251026 
L 447.126907 68.903564 
L 449.166195 62.862168 
L 451.205482 63.103137 
L 453.244769 69.814936 
L 455.284057 64.78617 
L 457.323344 57.00157 
L 459.362631 60.912829 
L 461.401919 68.265915 
L 463.441206 67.795144 
L 465.480493 64.20197 
L 467.519781 59.737845 
L 469.559068 57.864177 
L 471.598355 61.589319 
L 473.637643 70.931855 
L 475.67693 76.120451 
L 477.716217 52.155104 
L 479.755505 73.955688 
L 481.794792 58.615564 
L 483.834079 60.796423 
L 485.873367 74.188686 
L 487.912654 66.262727 
L 489.951942 50.245267 
L 491.991229 62.058079 
L 494.030516 48.242932 
L 496.069804 62.35357 
L 498.109091 57.367337 
L 498.109091 57.367337 
" clip-path="url(#pbb4d72be86)" style="fill: none; stroke: #ff0000; stroke-opacity: 0.9; stroke-width: 1.5; stroke-linecap: square"/>
   </g>
   <g id="line2d_17">
    <path d="M 92.290909 62.243065 
L 94.330196 102.487702 
L 96.369484 119.279499 
L 98.408771 109.774705 
L 100.448058 87.403945 
L 102.487346 107.119068 
L 104.526633 96.456123 
L 106.565921 71.918364 
L 108.605208 112.534008 
L 110.644495 52.012011 
L 112.683783 84.543389 
L 114.72307 125.237712 
L 116.762357 129.699821 
L 118.801645 113.01442 
L 120.840932 67.799711 
L 122.880219 114.022932 
L 124.919507 78.499085 
L 126.958794 79.765601 
L 128.998081 89.708482 
L 131.037369 74.536959 
L 133.076656 62.729335 
L 135.115943 58.149824 
L 137.155231 104.009502 
L 139.194518 100.958412 
L 141.233805 127.566285 
L 143.273093 112.257501 
L 145.31238 118.262398 
L 147.351667 115.547997 
L 149.390955 114.287392 
L 151.430242 106.448783 
L 153.469529 107.097641 
L 155.508817 106.447065 
L 157.548104 124.993035 
L 159.587392 110.1818 
L 161.626679 114.935397 
L 163.665966 90.899445 
L 165.705254 93.080262 
L 167.744541 106.855429 
L 169.783828 56.556445 
L 171.823116 62.207142 
L 173.862403 78.97549 
L 175.90169 47.939086 
L 177.940978 47.212791 
L 179.980265 70.784793 
L 182.019552 67.684063 
L 184.05884 76.27096 
L 186.098127 70.867597 
L 188.137414 55.948461 
L 190.176702 72.654711 
L 194.255276 51.250999 
L 196.294564 74.833079 
L 198.333851 75.619258 
L 200.373138 89.618438 
L 202.412426 75.936319 
L 204.451713 59.597735 
L 206.491 51.868984 
L 208.530288 73.285728 
L 210.569575 59.107682 
L 212.608862 105.809858 
L 214.64815 103.743526 
L 216.687437 91.433984 
L 218.726725 90.392068 
L 220.766012 107.709184 
L 222.805299 123.028949 
L 224.844587 119.648137 
L 226.883874 74.783898 
L 228.923161 61.131667 
L 230.962449 82.669 
L 233.001736 72.790004 
L 235.041023 43.647137 
L 237.080311 61.212625 
L 239.119598 53.404843 
L 241.158885 79.269866 
L 243.198173 53.145256 
L 245.23746 82.093016 
L 247.276747 55.557404 
L 249.316035 101.574479 
L 251.355322 82.479383 
L 253.394609 114.408557 
L 255.433897 86.581294 
L 257.473184 66.428473 
L 259.512471 67.49451 
L 261.551759 64.621011 
L 263.591046 75.848697 
L 265.630333 69.891396 
L 267.669621 68.50626 
L 269.708908 54.887519 
L 271.748196 45.922938 
L 273.787483 59.677071 
L 275.82677 49.300176 
L 277.866058 67.272545 
L 279.905345 58.553589 
L 281.944632 80.69459 
L 283.98392 73.153039 
L 286.023207 59.561764 
L 288.062494 62.088538 
L 290.101782 59.582529 
L 292.141069 80.536953 
L 294.180356 51.226486 
L 296.219644 45.78792 
L 298.258931 74.11826 
L 300.298218 67.686304 
L 302.337506 66.275345 
L 304.376793 71.990017 
L 306.41608 46.972999 
L 308.455368 48.144965 
L 310.494655 55.614812 
L 312.533942 61.409082 
L 314.57323 77.922877 
L 316.612517 52.040941 
L 318.651804 54.195191 
L 320.691092 53.447403 
L 322.730379 55.643596 
L 326.808954 62.961133 
L 328.848241 55.91027 
L 330.887529 52.636708 
L 332.926816 48.782342 
L 334.966103 44.099187 
L 337.005391 55.091685 
L 339.044678 43.758938 
L 341.083965 51.495324 
L 343.123253 58.655141 
L 345.16254 47.644004 
L 347.201827 62.394123 
L 349.241115 58.970468 
L 351.280402 47.750067 
L 353.319689 57.861754 
L 355.358977 59.149105 
L 357.398264 66.732223 
L 359.437551 81.428344 
L 361.476839 64.220297 
L 363.516126 69.129253 
L 365.555413 49.093313 
L 367.594701 70.239301 
L 369.633988 57.592028 
L 371.673275 65.167228 
L 373.712563 52.695725 
L 375.75185 69.99314 
L 377.791138 61.765992 
L 379.830425 92.025723 
L 381.869712 69.758328 
L 383.909 79.856163 
L 385.948287 110.227449 
L 387.987574 70.644469 
L 390.026862 85.12849 
L 392.066149 68.803095 
L 394.105436 61.908904 
L 396.144724 102.515158 
L 398.184011 81.441415 
L 400.223298 79.302913 
L 402.262586 61.23983 
L 404.301873 87.666292 
L 406.34116 74.274131 
L 408.380448 66.590176 
L 410.419735 54.008549 
L 412.459022 76.189714 
L 414.49831 99.642373 
L 416.537597 80.969844 
L 418.576884 108.823644 
L 420.616172 102.544726 
L 422.655459 82.397123 
L 424.694746 76.766818 
L 426.734034 67.666062 
L 428.773321 71.11133 
L 430.812608 75.210579 
L 432.851896 62.75193 
L 434.891183 70.564402 
L 436.930471 58.462883 
L 438.969758 71.315165 
L 441.009045 77.793539 
L 443.048333 49.654118 
L 445.08762 70.538825 
L 447.126907 67.972724 
L 449.166195 61.881214 
L 451.205482 67.329644 
L 453.244769 66.273707 
L 455.284057 61.751283 
L 457.323344 63.209929 
L 459.362631 54.462306 
L 461.401919 60.617707 
L 463.441206 61.210272 
L 465.480493 62.398253 
L 467.519781 66.323005 
L 469.559068 53.94584 
L 471.598355 71.266721 
L 473.637643 71.947426 
L 475.67693 75.990414 
L 477.716217 52.913026 
L 479.755505 74.455617 
L 481.794792 66.598616 
L 483.834079 65.587234 
L 485.873367 67.8861 
L 487.912654 77.191167 
L 489.951942 48.023707 
L 491.991229 51.25901 
L 494.030516 49.337707 
L 496.069804 66.650427 
L 498.109091 58.945664 
L 498.109091 58.945664 
" clip-path="url(#pbb4d72be86)" style="fill: none; stroke: #ff0000; stroke-opacity: 0.9; stroke-width: 1.5; stroke-linecap: square"/>
   </g>
   <g id="line2d_18">
    <path d="M 92.290909 110.898833 
L 94.330196 100.574472 
L 96.369484 118.375026 
L 98.408771 100.729015 
L 100.448058 92.326858 
L 102.487346 104.2238 
L 104.526633 98.988409 
L 106.565921 69.828648 
L 108.605208 111.25043 
L 110.644495 51.633087 
L 112.683783 82.776127 
L 114.72307 117.164691 
L 116.762357 119.15015 
L 118.801645 111.246951 
L 120.840932 72.466983 
L 122.880219 111.167583 
L 124.919507 71.121254 
L 126.958794 67.128433 
L 128.998081 86.575121 
L 131.037369 67.013778 
L 133.076656 54.94729 
L 135.115943 57.014673 
L 137.155231 104.514894 
L 139.194518 108.264206 
L 141.233805 122.674962 
L 143.273093 119.119856 
L 145.31238 119.228611 
L 147.351667 111.964891 
L 149.390955 116.271379 
L 151.430242 108.297786 
L 153.469529 106.897151 
L 155.508817 113.077132 
L 157.548104 125.420905 
L 159.587392 108.594632 
L 161.626679 121.274445 
L 163.665966 96.157213 
L 165.705254 95.401253 
L 167.744541 111.549217 
L 169.783828 54.890912 
L 171.823116 58.978418 
L 173.862403 77.278463 
L 175.90169 55.584107 
L 177.940978 48.842359 
L 179.980265 71.798907 
L 182.019552 67.697337 
L 184.05884 73.466296 
L 186.098127 69.116688 
L 188.137414 63.394365 
L 190.176702 71.486637 
L 192.215989 65.185438 
L 194.255276 52.886841 
L 196.294564 71.73817 
L 198.333851 77.120959 
L 200.373138 93.352608 
L 202.412426 73.789072 
L 204.451713 57.073506 
L 206.491 48.164511 
L 208.530288 75.694288 
L 210.569575 62.08474 
L 212.608862 110.36702 
L 214.64815 105.192254 
L 216.687437 94.231786 
L 218.726725 92.984216 
L 220.766012 108.200395 
L 222.805299 118.75252 
L 224.844587 117.926177 
L 226.883874 72.785591 
L 228.923161 62.302495 
L 230.962449 81.013572 
L 233.001736 75.940945 
L 235.041023 49.483444 
L 237.080311 63.052127 
L 239.119598 56.426306 
L 241.158885 76.615418 
L 243.198173 56.891438 
L 245.23746 82.887294 
L 247.276747 55.161652 
L 249.316035 101.623095 
L 251.355322 79.134514 
L 253.394609 109.58463 
L 257.473184 74.628694 
L 259.512471 68.693343 
L 261.551759 61.181456 
L 263.591046 71.624309 
L 265.630333 67.408942 
L 267.669621 64.504941 
L 269.708908 53.610041 
L 271.748196 45.324472 
L 273.787483 65.626396 
L 275.82677 54.585669 
L 277.866058 68.778788 
L 279.905345 58.547336 
L 281.944632 83.474914 
L 283.98392 67.934801 
L 286.023207 66.484841 
L 288.062494 57.606508 
L 290.101782 70.313253 
L 292.141069 77.504643 
L 294.180356 58.684245 
L 296.219644 47.249525 
L 298.258931 80.798479 
L 300.298218 59.681302 
L 302.337506 64.408628 
L 304.376793 62.204117 
L 306.41608 50.218345 
L 308.455368 50.890503 
L 310.494655 60.687652 
L 312.533942 64.617879 
L 314.57323 75.134422 
L 316.612517 46.301692 
L 318.651804 60.894246 
L 320.691092 51.535082 
L 322.730379 47.901392 
L 326.808954 66.407292 
L 328.848241 51.385971 
L 332.926816 52.856331 
L 334.966103 51.293804 
L 337.005391 60.611075 
L 339.044678 46.687085 
L 341.083965 55.096962 
L 343.123253 60.642201 
L 345.16254 53.832868 
L 347.201827 57.302188 
L 349.241115 59.092759 
L 351.280402 47.027512 
L 353.319689 62.543485 
L 355.358977 61.900319 
L 357.398264 68.269922 
L 359.437551 84.788263 
L 361.476839 52.933429 
L 363.516126 60.304231 
L 365.555413 51.240464 
L 367.594701 72.908682 
L 369.633988 57.660549 
L 371.673275 66.048445 
L 373.712563 56.641437 
L 375.75185 71.425446 
L 377.791138 54.962608 
L 379.830425 94.586307 
L 381.869712 69.683954 
L 383.909 75.111454 
L 385.948287 100.002303 
L 387.987574 74.949928 
L 390.026862 82.061826 
L 392.066149 65.831901 
L 394.105436 70.02735 
L 396.144724 100.810325 
L 398.184011 85.06404 
L 400.223298 85.305414 
L 402.262586 63.052399 
L 404.301873 81.938399 
L 406.34116 71.458391 
L 408.380448 72.289952 
L 410.419735 52.28886 
L 412.459022 71.760722 
L 414.49831 104.628568 
L 416.537597 80.637294 
L 418.576884 111.578967 
L 420.616172 105.18041 
L 422.655459 87.495045 
L 424.694746 82.94738 
L 426.734034 65.324332 
L 428.773321 69.490827 
L 430.812608 68.038498 
L 432.851896 67.170374 
L 434.891183 73.886734 
L 436.930471 63.980881 
L 438.969758 63.95668 
L 441.009045 73.955352 
L 443.048333 53.056941 
L 445.08762 64.167392 
L 447.126907 72.56646 
L 449.166195 69.742322 
L 451.205482 60.707206 
L 453.244769 67.832587 
L 455.284057 66.035155 
L 457.323344 57.637159 
L 459.362631 54.816933 
L 461.401919 64.221786 
L 463.441206 64.169878 
L 465.480493 66.138569 
L 467.519781 59.22301 
L 469.559068 60.421784 
L 471.598355 71.031946 
L 473.637643 71.137873 
L 475.67693 73.262712 
L 477.716217 55.021601 
L 479.755505 68.483985 
L 481.794792 61.960512 
L 483.834079 65.346676 
L 485.873367 69.614622 
L 487.912654 70.157831 
L 489.951942 51.823874 
L 491.991229 54.690905 
L 494.030516 49.447908 
L 496.069804 67.915423 
L 498.109091 62.782678 
L 498.109091 62.782678 
" clip-path="url(#pbb4d72be86)" style="fill: none; stroke: #008000; stroke-opacity: 0.9; stroke-width: 1.5; stroke-linecap: square"/>
   </g>
   <g id="line2d_19">
    <path d="M 153.469529 135.36 
L 153.469529 34.56 
" clip-path="url(#pbb4d72be86)" style="fill: none; stroke-dasharray: 5.55,2.4; stroke-dashoffset: 0; stroke: #000000; stroke-width: 1.5"/>
   </g>
   <g id="line2d_20">
    <path d="M 438.969758 135.36 
L 438.969758 34.56 
" clip-path="url(#pbb4d72be86)" style="fill: none; stroke-dasharray: 5.55,2.4; stroke-dashoffset: 0; stroke: #0000ff; stroke-width: 1.5"/>
   </g>
   <g id="patch_3">
    <path d="M 72 135.36 
L 72 34.56 
" style="fill: none; stroke: #000000; stroke-width: 0.8; stroke-linejoin: miter; stroke-linecap: square"/>
   </g>
   <g id="patch_4">
    <path d="M 518.4 135.36 
L 518.4 34.56 
" style="fill: none; stroke: #000000; stroke-width: 0.8; stroke-linejoin: miter; stroke-linecap: square"/>
   </g>
   <g id="patch_5">
    <path d="M 72 135.36 
L 518.4 135.36 
" style="fill: none; stroke: #000000; stroke-width: 0.8; stroke-linejoin: miter; stroke-linecap: square"/>
   </g>
   <g id="patch_6">
    <path d="M 72 34.56 
L 518.4 34.56 
" style="fill: none; stroke: #000000; stroke-width: 0.8; stroke-linejoin: miter; stroke-linecap: square"/>
   </g>
  </g>
  <g id="axes_2">
   <g id="patch_7">
    <path d="M 72 256.32 
L 518.4 256.32 
L 518.4 155.52 
L 72 155.52 
z
" style="fill: #ffffff"/>
   </g>
   <g id="matplotlib.axis_3">
    <g id="xtick_10">
     <g id="line2d_21">
      <g>
       <use xlink:href="#m15f9d0de18" x="92.290909" y="256.32" style="stroke: #000000; stroke-width: 0.8"/>
      </g>
     </g>
     <g id="text_4">
      <!-- 0 -->
      <g transform="translate(89.109659 270.918437) scale(0.1 -0.1)">
       <use xlink:href="#DejaVuSans-30"/>
      </g>
     </g>
    </g>
    <g id="xtick_11">
     <g id="line2d_22">
      <g>
       <use xlink:href="#m15f9d0de18" x="143.273093" y="256.32" style="stroke: #000000; stroke-width: 0.8"/>
      </g>
     </g>
     <g id="text_5">
      <!-- 25 -->
      <g transform="translate(136.910593 270.918437) scale(0.1 -0.1)">
       <defs>
        <path id="DejaVuSans-32" d="M 1228 531 
L 3431 531 
L 3431 0 
L 469 0 
L 469 531 
Q 828 903 1448 1529 
Q 2069 2156 2228 2338 
Q 2531 2678 2651 2914 
Q 2772 3150 2772 3378 
Q 2772 3750 2511 3984 
Q 2250 4219 1831 4219 
Q 1534 4219 1204 4116 
Q 875 4013 500 3803 
L 500 4441 
Q 881 4594 1212 4672 
Q 1544 4750 1819 4750 
Q 2544 4750 2975 4387 
Q 3406 4025 3406 3419 
Q 3406 3131 3298 2873 
Q 3191 2616 2906 2266 
Q 2828 2175 2409 1742 
Q 1991 1309 1228 531 
z
" transform="scale(0.015625)"/>
       </defs>
       <use xlink:href="#DejaVuSans-32"/>
       <use xlink:href="#DejaVuSans-35" transform="translate(63.623047 0)"/>
      </g>
     </g>
    </g>
    <g id="xtick_12">
     <g id="line2d_23">
      <g>
       <use xlink:href="#m15f9d0de18" x="194.255276" y="256.32" style="stroke: #000000; stroke-width: 0.8"/>
      </g>
     </g>
     <g id="text_6">
      <!-- 50 -->
      <g transform="translate(187.892776 270.918437) scale(0.1 -0.1)">
       <use xlink:href="#DejaVuSans-35"/>
       <use xlink:href="#DejaVuSans-30" transform="translate(63.623047 0)"/>
      </g>
     </g>
    </g>
    <g id="xtick_13">
     <g id="line2d_24">
      <g>
       <use xlink:href="#m15f9d0de18" x="245.23746" y="256.32" style="stroke: #000000; stroke-width: 0.8"/>
      </g>
     </g>
     <g id="text_7">
      <!-- 75 -->
      <g transform="translate(238.87496 270.918437) scale(0.1 -0.1)">
       <defs>
        <path id="DejaVuSans-37" d="M 525 4666 
L 3525 4666 
L 3525 4397 
L 1831 0 
L 1172 0 
L 2766 4134 
L 525 4134 
L 525 4666 
z
" transform="scale(0.015625)"/>
       </defs>
       <use xlink:href="#DejaVuSans-37"/>
       <use xlink:href="#DejaVuSans-35" transform="translate(63.623047 0)"/>
      </g>
     </g>
    </g>
    <g id="xtick_14">
     <g id="line2d_25">
      <g>
       <use xlink:href="#m15f9d0de18" x="296.219644" y="256.32" style="stroke: #000000; stroke-width: 0.8"/>
      </g>
     </g>
     <g id="text_8">
      <!-- 100 -->
      <g transform="translate(286.675894 270.918437) scale(0.1 -0.1)">
       <use xlink:href="#DejaVuSans-31"/>
       <use xlink:href="#DejaVuSans-30" transform="translate(63.623047 0)"/>
       <use xlink:href="#DejaVuSans-30" transform="translate(127.246094 0)"/>
      </g>
     </g>
    </g>
    <g id="xtick_15">
     <g id="line2d_26">
      <g>
       <use xlink:href="#m15f9d0de18" x="347.201827" y="256.32" style="stroke: #000000; stroke-width: 0.8"/>
      </g>
     </g>
     <g id="text_9">
      <!-- 125 -->
      <g transform="translate(337.658077 270.918437) scale(0.1 -0.1)">
       <use xlink:href="#DejaVuSans-31"/>
       <use xlink:href="#DejaVuSans-32" transform="translate(63.623047 0)"/>
       <use xlink:href="#DejaVuSans-35" transform="translate(127.246094 0)"/>
      </g>
     </g>
    </g>
    <g id="xtick_16">
     <g id="line2d_27">
      <g>
       <use xlink:href="#m15f9d0de18" x="398.184011" y="256.32" style="stroke: #000000; stroke-width: 0.8"/>
      </g>
     </g>
     <g id="text_10">
      <!-- 150 -->
      <g transform="translate(388.640261 270.918437) scale(0.1 -0.1)">
       <use xlink:href="#DejaVuSans-31"/>
       <use xlink:href="#DejaVuSans-35" transform="translate(63.623047 0)"/>
       <use xlink:href="#DejaVuSans-30" transform="translate(127.246094 0)"/>
      </g>
     </g>
    </g>
    <g id="xtick_17">
     <g id="line2d_28">
      <g>
       <use xlink:href="#m15f9d0de18" x="449.166195" y="256.32" style="stroke: #000000; stroke-width: 0.8"/>
      </g>
     </g>
     <g id="text_11">
      <!-- 175 -->
      <g transform="translate(439.622445 270.918437) scale(0.1 -0.1)">
       <use xlink:href="#DejaVuSans-31"/>
       <use xlink:href="#DejaVuSans-37" transform="translate(63.623047 0)"/>
       <use xlink:href="#DejaVuSans-35" transform="translate(127.246094 0)"/>
      </g>
     </g>
    </g>
    <g id="xtick_18">
     <g id="line2d_29">
      <g>
       <use xlink:href="#m15f9d0de18" x="500.148378" y="256.32" style="stroke: #000000; stroke-width: 0.8"/>
      </g>
     </g>
     <g id="text_12">
      <!-- 200 -->
      <g transform="translate(490.604628 270.918437) scale(0.1 -0.1)">
       <use xlink:href="#DejaVuSans-32"/>
       <use xlink:href="#DejaVuSans-30" transform="translate(63.623047 0)"/>
       <use xlink:href="#DejaVuSans-30" transform="translate(127.246094 0)"/>
      </g>
     </g>
    </g>
   </g>
   <g id="matplotlib.axis_4">
    <g id="ytick_4">
     <g id="line2d_30">
      <g>
       <use xlink:href="#m2e2bfab407" x="72" y="251.544507" style="stroke: #000000; stroke-width: 0.8"/>
      </g>
     </g>
     <g id="text_13">
      <!-- −200 -->
      <g transform="translate(37.532812 255.343726) scale(0.1 -0.1)">
       <use xlink:href="#DejaVuSans-2212"/>
       <use xlink:href="#DejaVuSans-32" transform="translate(83.789062 0)"/>
       <use xlink:href="#DejaVuSans-30" transform="translate(147.412109 0)"/>
       <use xlink:href="#DejaVuSans-30" transform="translate(211.035156 0)"/>
      </g>
     </g>
    </g>
    <g id="ytick_5">
     <g id="line2d_31">
      <g>
       <use xlink:href="#m2e2bfab407" x="72" y="228.397932" style="stroke: #000000; stroke-width: 0.8"/>
      </g>
     </g>
     <g id="text_14">
      <!-- −100 -->
      <g transform="translate(37.532812 232.197151) scale(0.1 -0.1)">
       <use xlink:href="#DejaVuSans-2212"/>
       <use xlink:href="#DejaVuSans-31" transform="translate(83.789062 0)"/>
       <use xlink:href="#DejaVuSans-30" transform="translate(147.412109 0)"/>
       <use xlink:href="#DejaVuSans-30" transform="translate(211.035156 0)"/>
      </g>
     </g>
    </g>
    <g id="ytick_6">
     <g id="line2d_32">
      <g>
       <use xlink:href="#m2e2bfab407" x="72" y="205.251357" style="stroke: #000000; stroke-width: 0.8"/>
      </g>
     </g>
     <g id="text_15">
      <!-- 0 -->
      <g transform="translate(58.6375 209.050576) scale(0.1 -0.1)">
       <use xlink:href="#DejaVuSans-30"/>
      </g>
     </g>
    </g>
    <g id="ytick_7">
     <g id="line2d_33">
      <g>
       <use xlink:href="#m2e2bfab407" x="72" y="182.104782" style="stroke: #000000; stroke-width: 0.8"/>
      </g>
     </g>
     <g id="text_16">
      <!-- 100 -->
      <g transform="translate(45.9125 185.904001) scale(0.1 -0.1)">
       <use xlink:href="#DejaVuSans-31"/>
       <use xlink:href="#DejaVuSans-30" transform="translate(63.623047 0)"/>
       <use xlink:href="#DejaVuSans-30" transform="translate(127.246094 0)"/>
      </g>
     </g>
    </g>
    <g id="ytick_8">
     <g id="line2d_34">
      <g>
       <use xlink:href="#m2e2bfab407" x="72" y="158.958207" style="stroke: #000000; stroke-width: 0.8"/>
      </g>
     </g>
     <g id="text_17">
      <!-- 200 -->
      <g transform="translate(45.9125 162.757426) scale(0.1 -0.1)">
       <use xlink:href="#DejaVuSans-32"/>
       <use xlink:href="#DejaVuSans-30" transform="translate(63.623047 0)"/>
       <use xlink:href="#DejaVuSans-30" transform="translate(127.246094 0)"/>
      </g>
     </g>
    </g>
   </g>
   <g id="line2d_35">
    <path d="M 92.290909 178.691003 
L 94.330196 171.380776 
L 96.369484 166.006695 
L 98.408771 168.462953 
L 100.448058 172.399799 
L 102.487346 166.407596 
L 104.526633 168.858443 
L 108.605208 168.298442 
L 110.644495 179.956208 
L 112.683783 245.011251 
L 114.72307 165.598586 
L 116.762357 168.045668 
L 118.801645 172.5385 
L 120.840932 165.262774 
L 122.880219 173.641653 
L 124.919507 170.886404 
L 126.958794 180.494436 
L 128.998081 165.425322 
L 131.037369 172.980579 
L 133.076656 175.16538 
L 135.115943 170.273932 
L 137.155231 168.5178 
L 139.194518 169.012734 
L 141.233805 171.52896 
L 143.273093 171.054913 
L 145.31238 164.210558 
L 147.351667 165.90509 
L 149.390955 166.234915 
L 151.430242 165.739847 
L 153.469529 167.045766 
L 155.508817 173.138148 
L 157.548104 169.042977 
L 159.587392 168.333994 
L 161.626679 171.258707 
L 163.665966 169.398158 
L 165.705254 248.25288 
L 167.744541 163.873513 
L 169.783828 168.273612 
L 171.823116 168.832283 
L 173.862403 168.396462 
L 175.90169 174.324968 
L 177.940978 173.917557 
L 179.980265 185.225872 
L 182.019552 173.697422 
L 184.05884 174.687586 
L 186.098127 187.44309 
L 188.137414 175.394494 
L 190.176702 174.54897 
L 192.215989 197.341984 
L 194.255276 193.421534 
L 196.294564 191.328928 
L 198.333851 192.250489 
L 200.373138 176.195098 
L 202.412426 165.947935 
L 204.451713 171.135299 
L 206.491 167.231575 
L 208.530288 174.700799 
L 210.569575 170.475574 
L 212.608862 168.576786 
L 214.64815 169.688228 
L 216.687437 165.308893 
L 218.726725 173.714523 
L 220.766012 170.605308 
L 222.805299 173.49129 
L 224.844587 165.162278 
L 226.883874 180.074548 
L 228.923161 190.219706 
L 230.962449 170.649075 
L 233.001736 174.631878 
L 235.041023 167.073474 
L 237.080311 167.899335 
L 239.119598 173.034236 
L 241.158885 170.791544 
L 243.198173 172.367589 
L 245.23746 167.017889 
L 247.276747 166.292213 
L 249.316035 167.217543 
L 251.355322 173.300141 
L 253.394609 171.553206 
L 255.433897 165.062696 
L 257.473184 173.181858 
L 259.512471 167.425571 
L 261.551759 165.584313 
L 263.591046 168.293041 
L 265.630333 168.663847 
L 267.669621 168.252036 
L 269.708908 166.612806 
L 271.748196 169.4056 
L 273.787483 169.20163 
L 275.82677 166.515559 
L 277.866058 246.757709 
L 279.905345 167.730027 
L 281.944632 169.12183 
L 283.98392 165.58395 
L 286.023207 174.319804 
L 288.062494 172.862791 
L 290.101782 171.071107 
L 292.141069 175.554686 
L 294.180356 170.740053 
L 296.219644 170.901965 
L 298.258931 175.060003 
L 300.298218 172.21114 
L 302.337506 168.913234 
L 304.376793 173.146179 
L 306.41608 165.602856 
L 308.455368 170.015666 
L 310.494655 170.794504 
L 312.533942 167.574172 
L 314.57323 248.554648 
L 316.612517 160.820642 
L 318.651804 165.684019 
L 320.691092 164.551558 
L 322.730379 171.265456 
L 324.769667 165.165746 
L 326.808954 167.653236 
L 328.848241 168.315833 
L 330.887529 170.244253 
L 332.926816 164.167596 
L 334.966103 167.560376 
L 337.005391 163.667689 
L 339.044678 167.026482 
L 341.083965 167.051721 
L 343.123253 165.291665 
L 345.16254 169.590077 
L 347.201827 165.659645 
L 349.241115 250.481219 
L 351.280402 167.994007 
L 353.319689 166.789224 
L 355.358977 170.444702 
L 357.398264 171.77391 
L 359.437551 174.363218 
L 361.476839 170.074606 
L 363.516126 167.16917 
L 365.555413 172.585329 
L 367.594701 171.474756 
L 369.633988 173.211678 
L 371.673275 169.979355 
L 373.712563 173.151343 
L 375.75185 179.359847 
L 377.791138 177.481941 
L 379.830425 167.587091 
L 381.869712 180.434293 
L 383.909 178.466741 
L 385.948287 171.040832 
L 387.987574 173.058034 
L 390.026862 173.391444 
L 392.066149 175.668902 
L 394.105436 174.097623 
L 396.144724 248.151512 
L 398.184011 167.444989 
L 400.223298 173.851734 
L 402.262586 171.289088 
L 404.301873 172.214637 
L 406.34116 169.757185 
L 408.380448 178.047499 
L 410.419735 169.905775 
L 412.459022 175.62953 
L 414.49831 165.536983 
L 416.537597 168.555549 
L 418.576884 163.525901 
L 420.616172 172.409028 
L 422.655459 170.905289 
L 424.694746 173.519153 
L 426.734034 169.188043 
L 428.773321 175.046574 
L 430.812608 175.351652 
L 432.851896 173.640555 
L 434.891183 175.940864 
L 436.930471 177.864563 
L 438.969758 172.590793 
L 441.009045 182.189209 
L 443.048333 176.65907 
L 445.08762 177.312073 
L 447.126907 175.704341 
L 449.166195 166.000264 
L 451.205482 170.252673 
L 453.244769 176.690064 
L 455.284057 179.712144 
L 457.323344 182.512041 
L 459.362631 174.995408 
L 461.401919 177.282584 
L 463.441206 178.911624 
L 465.480493 180.094946 
L 467.519781 177.168214 
L 469.559068 179.262546 
L 471.598355 175.197859 
L 473.637643 175.774231 
L 475.67693 180.923629 
L 477.716217 179.882782 
L 479.755505 175.543105 
L 481.794792 177.186626 
L 483.834079 173.570214 
L 485.873367 177.076338 
L 487.912654 178.900416 
L 489.951942 176.984867 
L 491.991229 171.24014 
L 494.030516 174.900503 
L 496.069804 174.463771 
L 498.109091 177.44281 
L 498.109091 177.44281 
" clip-path="url(#p8577a306b2)" style="fill: none; stroke: #ff0000; stroke-opacity: 0.9; stroke-width: 1.5; stroke-linecap: square"/>
   </g>
   <g id="line2d_36">
    <path d="M 92.290909 179.554629 
L 94.330196 171.092895 
L 96.369484 166.235731 
L 98.408771 169.166442 
L 100.448058 171.101842 
L 102.487346 167.967327 
L 104.526633 170.674353 
L 106.565921 166.997637 
L 108.605208 168.333683 
L 110.644495 179.209783 
L 112.683783 248.158261 
L 114.72307 164.049271 
L 116.762357 166.957554 
L 118.801645 173.40133 
L 120.840932 163.729737 
L 122.880219 168.288662 
L 124.919507 167.828693 
L 126.958794 179.819989 
L 128.998081 168.709659 
L 131.037369 171.510756 
L 133.076656 175.852733 
L 135.115943 170.673318 
L 137.155231 168.031417 
L 139.194518 167.904255 
L 141.233805 169.065836 
L 143.273093 167.459106 
L 145.31238 166.775962 
L 147.351667 160.101818 
L 149.390955 166.237095 
L 151.430242 164.869022 
L 153.469529 168.205917 
L 155.508817 172.052576 
L 157.548104 166.644756 
L 159.587392 166.369939 
L 161.626679 170.083309 
L 163.665966 171.335494 
L 165.705254 250.665173 
L 167.744541 165.804502 
L 169.783828 173.545512 
L 171.823116 168.221461 
L 173.862403 171.096876 
L 175.90169 175.264488 
L 177.940978 171.609572 
L 179.980265 185.666208 
L 182.019552 171.914603 
L 184.05884 177.029697 
L 186.098127 188.298098 
L 188.137414 176.525291 
L 190.176702 174.64111 
L 192.215989 198.336339 
L 194.255276 193.329885 
L 196.294564 190.429438 
L 198.333851 188.968782 
L 200.373138 172.30256 
L 202.412426 167.318678 
L 204.451713 170.173157 
L 206.491 168.972266 
L 208.530288 176.49527 
L 210.569575 166.334186 
L 212.608862 169.158693 
L 214.64815 170.933222 
L 216.687437 163.835266 
L 218.726725 170.148508 
L 220.766012 170.36236 
L 222.805299 172.170107 
L 224.844587 163.458428 
L 226.883874 179.469352 
L 228.923161 188.506049 
L 230.962449 169.662206 
L 233.001736 173.497086 
L 235.041023 169.248173 
L 237.080311 167.489586 
L 239.119598 170.346887 
L 241.158885 168.128914 
L 243.198173 174.72322 
L 245.23746 163.033419 
L 247.276747 166.214635 
L 249.316035 168.798218 
L 251.355322 173.352826 
L 253.394609 170.386331 
L 255.433897 167.933711 
L 257.473184 170.409104 
L 259.512471 166.493626 
L 261.551759 165.086974 
L 263.591046 166.460186 
L 265.630333 170.562003 
L 267.669621 164.064083 
L 269.708908 167.091914 
L 271.748196 167.09879 
L 273.787483 167.896287 
L 275.82677 163.391178 
L 277.866058 249.423719 
L 279.905345 172.949266 
L 281.944632 165.773446 
L 283.98392 166.16295 
L 286.023207 172.271493 
L 288.062494 173.844966 
L 292.141069 172.705145 
L 294.180356 169.466341 
L 296.219644 170.675681 
L 298.258931 179.239064 
L 300.298218 170.787472 
L 302.337506 168.120145 
L 304.376793 173.683965 
L 306.41608 165.388015 
L 308.455368 171.646194 
L 310.494655 169.4222 
L 312.533942 166.953753 
L 314.57323 248.945307 
L 316.612517 163.138015 
L 318.651804 164.192231 
L 320.691092 165.525306 
L 322.730379 169.699174 
L 324.769667 170.604004 
L 326.808954 168.084897 
L 328.848241 170.413671 
L 330.887529 169.494879 
L 332.926816 168.344734 
L 334.966103 167.508002 
L 337.005391 164.090569 
L 339.044678 165.255647 
L 341.083965 164.316083 
L 343.123253 163.036965 
L 345.16254 168.534576 
L 347.201827 165.342422 
L 349.241115 249.539974 
L 351.280402 166.711657 
L 353.319689 168.831213 
L 355.358977 173.80205 
L 357.398264 169.177126 
L 359.437551 172.175765 
L 361.476839 167.506052 
L 363.516126 167.756526 
L 365.555413 173.071356 
L 367.594701 170.273656 
L 369.633988 172.710288 
L 371.673275 169.509222 
L 373.712563 173.223255 
L 375.75185 177.730634 
L 377.791138 179.392567 
L 379.830425 167.547976 
L 381.869712 182.406518 
L 383.909 173.585666 
L 385.948287 171.217709 
L 387.987574 170.815423 
L 390.026862 176.836438 
L 392.066149 173.547306 
L 394.105436 172.378453 
L 396.144724 247.233468 
L 398.184011 165.644246 
L 400.223298 171.365151 
L 402.262586 174.474688 
L 404.301873 172.395805 
L 406.34116 170.786557 
L 408.380448 173.586853 
L 410.419735 169.879537 
L 412.459022 175.80851 
L 414.49831 166.172542 
L 416.537597 169.120372 
L 418.576884 164.038795 
L 420.616172 170.647765 
L 422.655459 169.515381 
L 424.694746 174.729912 
L 426.734034 174.232241 
L 428.773321 177.073637 
L 430.812608 176.769756 
L 432.851896 174.088787 
L 434.891183 177.963394 
L 436.930471 179.367681 
L 438.969758 172.094775 
L 441.009045 181.669389 
L 443.048333 172.137175 
L 445.08762 176.181356 
L 447.126907 178.297532 
L 449.166195 166.094735 
L 451.205482 173.734909 
L 453.244769 176.35413 
L 455.284057 180.047093 
L 457.323344 181.20654 
L 459.362631 177.192743 
L 461.401919 176.94071 
L 463.441206 176.298397 
L 465.480493 177.35882 
L 467.519781 177.537309 
L 469.559068 176.863891 
L 471.598355 173.528562 
L 473.637643 177.342704 
L 475.67693 181.456745 
L 477.716217 182.490961 
L 479.755505 178.305828 
L 481.794792 179.638082 
L 483.834079 173.425897 
L 485.873367 175.157059 
L 487.912654 179.952791 
L 489.951942 176.816626 
L 491.991229 171.342706 
L 494.030516 172.367532 
L 496.069804 175.644272 
L 498.109091 180.114613 
L 498.109091 180.114613 
" clip-path="url(#p8577a306b2)" style="fill: none; stroke: #ff0000; stroke-opacity: 0.9; stroke-width: 1.5; stroke-linecap: square"/>
   </g>
   <g id="line2d_37">
    <path d="M 92.290909 178.698802 
L 94.330196 172.920347 
L 96.369484 166.719656 
L 98.408771 167.508178 
L 100.448058 171.717898 
L 102.487346 168.289068 
L 104.526633 169.633682 
L 106.565921 164.664967 
L 108.605208 167.422449 
L 110.644495 176.918476 
L 112.683783 244.922721 
L 114.72307 166.272759 
L 116.762357 165.527439 
L 118.801645 174.019996 
L 120.840932 166.746658 
L 122.880219 168.850366 
L 124.919507 171.684437 
L 126.958794 180.837017 
L 128.998081 167.4491 
L 131.037369 169.679953 
L 133.076656 175.924135 
L 135.115943 171.331831 
L 137.155231 168.191574 
L 139.194518 166.734529 
L 141.233805 172.7621 
L 143.273093 166.125356 
L 145.31238 165.480932 
L 147.351667 163.656673 
L 149.390955 166.457633 
L 151.430242 164.808404 
L 153.469529 167.240878 
L 155.508817 170.902929 
L 157.548104 166.500096 
L 159.587392 167.148131 
L 161.626679 172.739793 
L 163.665966 170.766538 
L 165.705254 247.739807 
L 167.744541 163.617762 
L 169.783828 171.492659 
L 171.823116 169.195594 
L 173.862403 169.18218 
L 175.90169 174.722368 
L 177.940978 174.351556 
L 179.980265 183.770925 
L 182.019552 169.917741 
L 184.05884 176.745315 
L 186.098127 188.823525 
L 188.137414 174.402803 
L 190.176702 176.648545 
L 192.215989 197.67324 
L 194.255276 196.401059 
L 196.294564 193.121336 
L 198.333851 188.544248 
L 200.373138 175.427086 
L 202.412426 167.626214 
L 204.451713 171.370336 
L 206.491 167.882671 
L 208.530288 177.863728 
L 210.569575 167.961743 
L 212.608862 164.625222 
L 214.64815 172.020065 
L 216.687437 162.991559 
L 218.726725 170.524283 
L 220.766012 171.058152 
L 222.805299 174.967718 
L 224.844587 165.335662 
L 226.883874 179.883077 
L 228.923161 189.471179 
L 230.962449 168.801746 
L 233.001736 174.297913 
L 235.041023 166.081614 
L 237.080311 170.494597 
L 239.119598 169.412317 
L 241.158885 165.728167 
L 243.198173 172.176821 
L 245.23746 164.97631 
L 247.276747 167.369308 
L 249.316035 166.643477 
L 251.355322 172.458235 
L 253.394609 167.363053 
L 255.433897 166.696943 
L 257.473184 172.053254 
L 259.512471 167.136267 
L 261.551759 166.06571 
L 263.591046 166.061146 
L 265.630333 168.434472 
L 267.669621 167.964435 
L 269.708908 166.908753 
L 271.748196 171.176516 
L 273.787483 168.660944 
L 275.82677 164.146956 
L 277.866058 247.363064 
L 279.905345 173.145783 
L 281.944632 165.8879 
L 283.98392 165.600769 
L 286.023207 173.143354 
L 288.062494 172.434193 
L 290.101782 171.074063 
L 292.141069 173.937127 
L 294.180356 171.888153 
L 296.219644 170.687526 
L 298.258931 176.547538 
L 300.298218 170.388383 
L 302.337506 166.829328 
L 304.376793 171.102336 
L 306.41608 168.048048 
L 308.455368 171.583517 
L 310.494655 171.19051 
L 312.533942 166.474084 
L 314.57323 248.563838 
L 316.612517 162.742681 
L 318.651804 162.936087 
L 320.691092 167.040624 
L 322.730379 166.990813 
L 324.769667 165.67859 
L 326.808954 166.465378 
L 328.848241 170.74172 
L 330.887529 168.868622 
L 332.926816 164.9529 
L 334.966103 169.230574 
L 337.005391 163.408636 
L 339.044678 167.726071 
L 341.083965 165.405144 
L 343.123253 162.299055 
L 345.16254 169.670015 
L 347.201827 164.707925 
L 349.241115 248.292275 
L 351.280402 167.720731 
L 353.319689 166.25149 
L 355.358977 172.844513 
L 357.398264 169.9055 
L 359.437551 174.867024 
L 361.476839 169.301964 
L 363.516126 170.361343 
L 365.555413 172.951314 
L 367.594701 170.795507 
L 369.633988 174.020445 
L 371.673275 166.763045 
L 373.712563 172.855731 
L 375.75185 179.772252 
L 377.791138 176.80586 
L 379.830425 171.6817 
L 381.869712 180.063396 
L 383.909 174.981287 
L 385.948287 172.624692 
L 387.987574 169.175847 
L 390.026862 173.953173 
L 392.066149 175.581383 
L 394.105436 175.073699 
L 396.144724 249.363782 
L 398.184011 167.022452 
L 400.223298 172.948263 
L 402.262586 174.462082 
L 404.301873 171.002458 
L 406.34116 170.844653 
L 408.380448 174.313019 
L 410.419735 169.375572 
L 412.459022 174.319716 
L 414.49831 168.649483 
L 416.537597 170.685633 
L 418.576884 162.556741 
L 420.616172 170.333201 
L 422.655459 169.878562 
L 424.694746 173.702349 
L 426.734034 168.496273 
L 428.773321 178.12418 
L 430.812608 180.63091 
L 432.851896 173.532758 
L 434.891183 178.850966 
L 436.930471 182.181539 
L 438.969758 171.062397 
L 441.009045 181.600434 
L 443.048333 173.763299 
L 445.08762 177.124922 
L 447.126907 178.221626 
L 449.166195 164.09682 
L 451.205482 170.998297 
L 453.244769 174.921334 
L 455.284057 181.289102 
L 457.323344 182.629886 
L 459.362631 175.215731 
L 461.401919 175.861946 
L 463.441206 177.90937 
L 465.480493 178.54108 
L 467.519781 177.448077 
L 469.559068 176.710111 
L 471.598355 172.746645 
L 473.637643 177.296092 
L 475.67693 179.644343 
L 477.716217 183.22943 
L 479.755505 176.814845 
L 481.794792 177.253004 
L 483.834079 175.117152 
L 485.873367 176.483085 
L 487.912654 178.832884 
L 489.951942 176.484091 
L 491.991229 170.677627 
L 494.030516 175.115605 
L 496.069804 172.316747 
L 498.109091 179.17627 
L 498.109091 179.17627 
" clip-path="url(#p8577a306b2)" style="fill: none; stroke: #ff0000; stroke-opacity: 0.9; stroke-width: 1.5; stroke-linecap: square"/>
   </g>
   <g id="line2d_38">
    <path d="M 92.290909 179.674116 
L 94.330196 175.138637 
L 96.369484 164.407305 
L 98.408771 166.317007 
L 100.448058 171.865111 
L 102.487346 173.132564 
L 104.526633 168.881189 
L 106.565921 165.136975 
L 108.605208 171.218909 
L 110.644495 176.698788 
L 112.683783 247.692052 
L 114.72307 163.196818 
L 116.762357 165.905726 
L 118.801645 171.062016 
L 120.840932 162.94041 
L 122.880219 171.186833 
L 124.919507 166.943719 
L 126.958794 183.976684 
L 128.998081 166.354102 
L 131.037369 171.29808 
L 133.076656 175.452417 
L 135.115943 170.368025 
L 137.155231 167.433302 
L 139.194518 166.952591 
L 141.233805 171.016642 
L 143.273093 166.299044 
L 145.31238 168.30843 
L 147.351667 163.198577 
L 149.390955 163.445671 
L 151.430242 165.52401 
L 153.469529 166.9505 
L 155.508817 170.662609 
L 157.548104 168.393728 
L 159.587392 167.842372 
L 161.626679 172.680362 
L 163.665966 170.625351 
L 165.705254 247.983253 
L 167.744541 163.596779 
L 169.783828 171.999799 
L 171.823116 172.00415 
L 173.862403 170.56206 
L 175.90169 174.410245 
L 177.940978 173.396194 
L 179.980265 184.158089 
L 182.019552 171.570887 
L 184.05884 175.956671 
L 186.098127 187.90366 
L 188.137414 175.617013 
L 190.176702 175.253451 
L 192.215989 199.020367 
L 194.255276 192.955983 
L 196.294564 194.012662 
L 198.333851 189.404522 
L 200.373138 174.606819 
L 202.412426 168.587392 
L 204.451713 170.084333 
L 206.491 168.256974 
L 208.530288 178.246607 
L 210.569575 168.818865 
L 212.608862 167.31557 
L 214.64815 171.365991 
L 216.687437 164.901692 
L 218.726725 169.094649 
L 220.766012 169.283107 
L 222.805299 173.877788 
L 224.844587 166.895982 
L 226.883874 179.812609 
L 228.923161 187.35691 
L 230.962449 170.114962 
L 233.001736 175.435545 
L 235.041023 167.463553 
L 237.080311 167.731305 
L 239.119598 173.922827 
L 241.158885 166.49536 
L 243.198173 171.955509 
L 245.23746 163.935456 
L 247.276747 167.448401 
L 249.316035 166.425644 
L 251.355322 170.67028 
L 253.394609 169.578927 
L 255.433897 165.202962 
L 257.473184 171.871917 
L 259.512471 167.880104 
L 261.551759 163.095968 
L 263.591046 170.083161 
L 265.630333 171.779081 
L 267.669621 166.155045 
L 269.708908 168.323479 
L 271.748196 168.166126 
L 273.787483 169.699283 
L 275.82677 163.580021 
L 277.866058 248.057058 
L 279.905345 172.527385 
L 281.944632 167.826758 
L 283.98392 167.593081 
L 286.023207 171.971113 
L 288.062494 171.668699 
L 290.101782 172.280796 
L 292.141069 172.565911 
L 294.180356 169.466451 
L 296.219644 168.894052 
L 298.258931 175.649777 
L 300.298218 174.835594 
L 302.337506 167.305084 
L 304.376793 174.504557 
L 306.41608 165.726899 
L 308.455368 170.805813 
L 310.494655 170.672717 
L 312.533942 165.193065 
L 314.57323 251.738182 
L 316.612517 162.81406 
L 318.651804 167.514091 
L 320.691092 163.556947 
L 322.730379 168.870155 
L 324.769667 167.144217 
L 326.808954 168.385729 
L 328.848241 170.252048 
L 330.887529 169.964796 
L 332.926816 166.563155 
L 334.966103 168.464776 
L 337.005391 164.628949 
L 339.044678 167.353835 
L 341.083965 167.856705 
L 343.123253 165.170839 
L 345.16254 167.623791 
L 347.201827 165.315685 
L 349.241115 251.328645 
L 351.280402 165.538176 
L 353.319689 166.296091 
L 355.358977 174.44627 
L 357.398264 171.746976 
L 359.437551 172.430336 
L 361.476839 168.469643 
L 363.516126 168.973007 
L 365.555413 173.889846 
L 367.594701 169.845309 
L 369.633988 172.587473 
L 371.673275 167.889968 
L 373.712563 175.324124 
L 375.75185 179.153205 
L 377.791138 176.502969 
L 379.830425 168.680751 
L 381.869712 182.51238 
L 383.909 172.569344 
L 385.948287 170.753357 
L 387.987574 169.745279 
L 390.026862 174.61549 
L 392.066149 173.480945 
L 394.105436 174.362748 
L 396.144724 249.058087 
L 398.184011 168.456606 
L 400.223298 171.215883 
L 402.262586 171.196041 
L 404.301873 173.191638 
L 406.34116 168.58813 
L 408.380448 175.312875 
L 410.419735 168.131828 
L 412.459022 177.177433 
L 414.49831 166.09934 
L 416.537597 171.18743 
L 418.576884 164.737247 
L 420.616172 173.666631 
L 422.655459 171.479708 
L 424.694746 176.349179 
L 426.734034 171.141642 
L 428.773321 177.783935 
L 430.812608 176.906528 
L 432.851896 175.471143 
L 434.891183 176.208904 
L 436.930471 178.241558 
L 438.969758 174.134302 
L 441.009045 179.827916 
L 443.048333 173.68914 
L 445.08762 177.3566 
L 447.126907 179.500595 
L 449.166195 168.492 
L 451.205482 171.891886 
L 453.244769 173.858366 
L 455.284057 179.07615 
L 457.323344 181.678574 
L 459.362631 176.472291 
L 461.401919 174.876316 
L 463.441206 179.766952 
L 465.480493 176.943431 
L 467.519781 175.957849 
L 469.559068 175.923245 
L 471.598355 171.71698 
L 473.637643 178.948012 
L 475.67693 178.497355 
L 477.716217 182.699345 
L 479.755505 178.679763 
L 481.794792 180.724159 
L 483.834079 171.233309 
L 485.873367 174.446892 
L 487.912654 180.930191 
L 489.951942 175.807908 
L 491.991229 171.606954 
L 494.030516 172.882192 
L 496.069804 175.014244 
L 498.109091 177.794029 
L 498.109091 177.794029 
" clip-path="url(#p8577a306b2)" style="fill: none; stroke: #ff0000; stroke-opacity: 0.9; stroke-width: 1.5; stroke-linecap: square"/>
   </g>
   <g id="line2d_39">
    <path d="M 92.290909 179.427253 
L 94.330196 174.034445 
L 96.369484 165.389035 
L 98.408771 167.08474 
L 100.448058 168.984557 
L 102.487346 168.135162 
L 104.526633 171.35428 
L 106.565921 166.053553 
L 108.605208 165.432658 
L 110.644495 176.744746 
L 112.683783 246.682116 
L 114.72307 162.207741 
L 116.762357 167.680517 
L 118.801645 175.936419 
L 120.840932 163.14338 
L 122.880219 170.217874 
L 124.919507 167.744811 
L 126.958794 183.315338 
L 128.998081 165.904348 
L 131.037369 168.274255 
L 133.076656 173.960505 
L 135.115943 170.397647 
L 137.155231 167.258492 
L 139.194518 166.603153 
L 141.233805 167.195175 
L 143.273093 169.178846 
L 145.31238 164.500317 
L 147.351667 165.104231 
L 149.390955 165.357888 
L 151.430242 167.677776 
L 153.469529 166.149935 
L 155.508817 168.750908 
L 157.548104 165.084071 
L 159.587392 167.404765 
L 161.626679 172.32936 
L 163.665966 170.159174 
L 165.705254 248.106756 
L 167.744541 165.690765 
L 169.783828 169.228221 
L 171.823116 169.442487 
L 173.862403 169.875256 
L 175.90169 175.120825 
L 177.940978 173.450232 
L 179.980265 188.765951 
L 182.019552 172.738281 
L 184.05884 174.333003 
L 186.098127 188.965798 
L 188.137414 177.015351 
L 190.176702 176.194079 
L 192.215989 198.631757 
L 194.255276 193.169058 
L 196.294564 191.785739 
L 198.333851 189.457882 
L 200.373138 176.431539 
L 202.412426 166.541169 
L 204.451713 172.447109 
L 206.491 168.15219 
L 208.530288 177.79301 
L 210.569575 167.104155 
L 212.608862 166.152237 
L 214.64815 167.604083 
L 216.687437 163.079125 
L 218.726725 171.274173 
L 220.766012 172.279631 
L 222.805299 172.492109 
L 224.844587 164.729325 
L 226.883874 180.416334 
L 228.923161 190.478933 
L 230.962449 168.796561 
L 233.001736 173.98306 
L 235.041023 166.020639 
L 237.080311 171.083546 
L 239.119598 171.753906 
L 241.158885 165.728828 
L 243.198173 175.941005 
L 245.23746 167.993202 
L 247.276747 168.004313 
L 249.316035 164.275008 
L 251.355322 170.102618 
L 253.394609 169.876132 
L 255.433897 166.975686 
L 257.473184 171.569248 
L 259.512471 165.13172 
L 261.551759 163.824201 
L 263.591046 168.243966 
L 265.630333 169.638535 
L 267.669621 166.642894 
L 269.708908 166.664428 
L 271.748196 168.275746 
L 273.787483 168.928325 
L 275.82677 167.894938 
L 277.866058 248.733874 
L 279.905345 172.43615 
L 281.944632 168.132503 
L 283.98392 166.440676 
L 286.023207 174.230263 
L 288.062494 174.316385 
L 290.101782 171.486524 
L 292.141069 172.753465 
L 294.180356 170.253602 
L 296.219644 169.591123 
L 298.258931 177.044538 
L 302.337506 166.191131 
L 304.376793 174.793684 
L 306.41608 166.986158 
L 310.494655 170.931114 
L 312.533942 166.335528 
L 314.57323 248.457274 
L 316.612517 162.862917 
L 318.651804 165.847951 
L 320.691092 167.786247 
L 322.730379 170.117166 
L 324.769667 170.131992 
L 326.808954 166.173319 
L 328.848241 169.116716 
L 330.887529 169.785324 
L 332.926816 168.502878 
L 334.966103 169.18515 
L 337.005391 165.624319 
L 339.044678 167.380359 
L 341.083965 166.857834 
L 343.123253 167.163908 
L 345.16254 167.898512 
L 347.201827 167.639451 
L 349.241115 249.9549 
L 351.280402 167.609561 
L 353.319689 167.902605 
L 355.358977 174.612103 
L 357.398264 170.889204 
L 359.437551 175.683967 
L 361.476839 169.225823 
L 363.516126 170.381213 
L 365.555413 173.635875 
L 367.594701 170.058257 
L 369.633988 174.535683 
L 371.673275 167.463405 
L 373.712563 176.096423 
L 375.75185 178.975645 
L 377.791138 177.563805 
L 379.830425 168.016922 
L 381.869712 181.275569 
L 383.909 171.855423 
L 385.948287 172.42999 
L 387.987574 171.069225 
L 390.026862 175.059473 
L 392.066149 174.607247 
L 394.105436 173.136117 
L 396.144724 247.90803 
L 398.184011 165.607582 
L 400.223298 174.985211 
L 402.262586 172.771742 
L 404.301873 171.452607 
L 406.34116 171.010546 
L 408.380448 178.004731 
L 410.419735 169.440848 
L 412.459022 175.279668 
L 414.49831 166.980747 
L 416.537597 170.385759 
L 418.576884 163.033369 
L 420.616172 172.566554 
L 422.655459 170.481028 
L 424.694746 174.013646 
L 426.734034 173.237796 
L 428.773321 171.427446 
L 430.812608 176.914886 
L 432.851896 175.363194 
L 434.891183 176.494752 
L 436.930471 183.519088 
L 438.969758 176.91379 
L 441.009045 179.922103 
L 443.048333 172.838425 
L 445.08762 177.277327 
L 447.126907 177.560907 
L 449.166195 166.055654 
L 451.205482 171.056425 
L 453.244769 174.453998 
L 455.284057 179.61969 
L 457.323344 182.746134 
L 459.362631 177.333747 
L 461.401919 176.847379 
L 463.441206 178.154561 
L 465.480493 176.055378 
L 467.519781 180.637345 
L 469.559068 176.4897 
L 471.598355 173.45198 
L 473.637643 176.267336 
L 475.67693 180.435423 
L 477.716217 180.791093 
L 479.755505 177.393444 
L 481.794792 179.013166 
L 483.834079 171.925863 
L 485.873367 177.722883 
L 487.912654 178.514088 
L 489.951942 175.251502 
L 491.991229 173.816701 
L 494.030516 168.712011 
L 496.069804 175.0354 
L 498.109091 179.24528 
L 498.109091 179.24528 
" clip-path="url(#p8577a306b2)" style="fill: none; stroke: #ff0000; stroke-opacity: 0.9; stroke-width: 1.5; stroke-linecap: square"/>
   </g>
   <g id="line2d_40">
    <path d="M 92.290909 173.074164 
L 94.330196 171.432483 
L 96.369484 168.271723 
L 98.408771 166.326458 
L 100.448058 169.415863 
L 102.487346 167.643838 
L 104.526633 170.098323 
L 106.565921 166.192257 
L 108.605208 167.185148 
L 110.644495 176.601793 
L 112.683783 245.668457 
L 114.72307 164.678423 
L 116.762357 165.822045 
L 118.801645 171.869296 
L 120.840932 163.91146 
L 122.880219 170.196516 
L 124.919507 168.246039 
L 126.958794 181.923236 
L 128.998081 165.89045 
L 131.037369 168.614927 
L 133.076656 175.557501 
L 135.115943 169.567463 
L 139.194518 168.258588 
L 141.233805 169.779454 
L 143.273093 167.291825 
L 145.31238 164.422037 
L 147.351667 164.494027 
L 149.390955 166.936722 
L 151.430242 165.416842 
L 153.469529 166.225884 
L 155.508817 170.093516 
L 157.548104 166.64228 
L 159.587392 167.905286 
L 161.626679 170.825846 
L 163.665966 170.25089 
L 165.705254 245.834636 
L 167.744541 166.351323 
L 169.783828 170.210287 
L 171.823116 168.768984 
L 173.862403 169.159166 
L 175.90169 174.094636 
L 177.940978 173.250878 
L 179.980265 185.125586 
L 182.019552 171.297596 
L 184.05884 174.992575 
L 186.098127 189.83472 
L 188.137414 174.341112 
L 190.176702 176.33744 
L 192.215989 196.724353 
L 198.333851 188.375526 
L 200.373138 174.723781 
L 202.412426 167.31556 
L 204.451713 169.244595 
L 206.491 169.426124 
L 208.530288 175.527798 
L 210.569575 168.616414 
L 212.608862 166.179136 
L 214.64815 169.732451 
L 216.687437 163.876194 
L 218.726725 168.323317 
L 220.766012 169.03798 
L 222.805299 172.227578 
L 224.844587 165.323148 
L 226.883874 179.253705 
L 228.923161 187.733621 
L 230.962449 168.277685 
L 233.001736 172.665472 
L 235.041023 169.545992 
L 237.080311 168.64154 
L 239.119598 170.711519 
L 241.158885 168.043256 
L 243.198173 172.852669 
L 245.23746 164.684664 
L 247.276747 166.53906 
L 249.316035 167.65058 
L 251.355322 171.495135 
L 253.394609 168.020694 
L 255.433897 165.625061 
L 257.473184 171.472538 
L 259.512471 166.24443 
L 261.551759 165.058864 
L 263.591046 167.000388 
L 265.630333 170.167191 
L 267.669621 166.374513 
L 269.708908 167.397729 
L 271.748196 167.355675 
L 273.787483 168.994983 
L 275.82677 165.1313 
L 277.866058 246.367347 
L 279.905345 171.342995 
L 281.944632 166.983121 
L 283.98392 165.424693 
L 286.023207 172.283406 
L 288.062494 173.064395 
L 290.101782 171.395857 
L 292.141069 173.359053 
L 294.180356 168.96297 
L 296.219644 170.250823 
L 298.258931 176.648619 
L 300.298218 170.812146 
L 302.337506 168.51139 
L 304.376793 172.866835 
L 306.41608 166.236914 
L 308.455368 169.513654 
L 310.494655 169.206871 
L 312.533942 165.798441 
L 314.57323 246.181429 
L 316.612517 164.203197 
L 318.651804 164.896648 
L 320.691092 165.3134 
L 322.730379 167.245621 
L 324.769667 166.925526 
L 326.808954 167.06024 
L 328.848241 168.217215 
L 330.887529 168.894794 
L 332.926816 166.727893 
L 334.966103 168.293712 
L 337.005391 164.1666 
L 339.044678 165.5396 
L 341.083965 164.882323 
L 343.123253 165.723346 
L 345.16254 167.079132 
L 347.201827 166.333391 
L 349.241115 246.817931 
L 351.280402 166.777148 
L 353.319689 165.133486 
L 355.358977 172.688853 
L 357.398264 169.997484 
L 359.437551 174.405279 
L 361.476839 170.430384 
L 363.516126 169.631266 
L 365.555413 172.374472 
L 367.594701 169.656622 
L 369.633988 172.262794 
L 371.673275 167.739888 
L 373.712563 173.457027 
L 375.75185 178.232515 
L 377.791138 176.221148 
L 379.830425 168.359165 
L 381.869712 179.728778 
L 383.909 173.841261 
L 385.948287 172.007446 
L 387.987574 170.329895 
L 390.026862 173.484043 
L 394.105436 174.902618 
L 396.144724 246.410267 
L 398.184011 168.56067 
L 400.223298 172.652573 
L 402.262586 173.430902 
L 404.301873 173.080903 
L 406.34116 170.301735 
L 408.380448 174.832998 
L 410.419735 169.185984 
L 412.459022 173.194834 
L 414.49831 167.823749 
L 416.537597 168.686977 
L 418.576884 164.013154 
L 420.616172 170.954325 
L 422.655459 169.770182 
L 424.694746 173.514929 
L 426.734034 170.066787 
L 428.773321 174.021292 
L 430.812608 177.051929 
L 432.851896 174.188502 
L 434.891183 175.696581 
L 436.930471 179.89556 
L 438.969758 173.460457 
L 441.009045 179.819302 
L 443.048333 174.251225 
L 445.08762 176.26533 
L 447.126907 177.500602 
L 449.166195 166.400091 
L 451.205482 171.470592 
L 453.244769 174.683655 
L 455.284057 180.049839 
L 457.323344 181.17451 
L 459.362631 176.555815 
L 461.401919 175.292097 
L 463.441206 177.932827 
L 465.480493 177.155724 
L 467.519781 177.721571 
L 469.559068 177.75446 
L 471.598355 171.749417 
L 473.637643 176.870363 
L 475.67693 179.939176 
L 477.716217 180.189639 
L 479.755505 175.554255 
L 481.794792 178.431733 
L 483.834079 172.607958 
L 487.912654 179.327107 
L 489.951942 174.496522 
L 491.991229 171.418924 
L 494.030516 170.692743 
L 496.069804 176.351499 
L 498.109091 177.761259 
L 498.109091 177.761259 
" clip-path="url(#p8577a306b2)" style="fill: none; stroke: #008000; stroke-opacity: 0.9; stroke-width: 1.5; stroke-linecap: square"/>
   </g>
   <g id="line2d_41">
    <path d="M 438.969758 256.32 
L 438.969758 155.52 
" clip-path="url(#p8577a306b2)" style="fill: none; stroke-dasharray: 5.55,2.4; stroke-dashoffset: 0; stroke: #0000ff; stroke-width: 1.5"/>
   </g>
   <g id="line2d_42">
    <path d="M 153.469529 256.32 
L 153.469529 155.52 
" clip-path="url(#p8577a306b2)" style="fill: none; stroke-dasharray: 5.55,2.4; stroke-dashoffset: 0; stroke: #000000; stroke-width: 1.5"/>
   </g>
   <g id="patch_8">
    <path d="M 72 256.32 
L 72 155.52 
" style="fill: none; stroke: #000000; stroke-width: 0.8; stroke-linejoin: miter; stroke-linecap: square"/>
   </g>
   <g id="patch_9">
    <path d="M 518.4 256.32 
L 518.4 155.52 
" style="fill: none; stroke: #000000; stroke-width: 0.8; stroke-linejoin: miter; stroke-linecap: square"/>
   </g>
   <g id="patch_10">
    <path d="M 72 256.32 
L 518.4 256.32 
" style="fill: none; stroke: #000000; stroke-width: 0.8; stroke-linejoin: miter; stroke-linecap: square"/>
   </g>
   <g id="patch_11">
    <path d="M 72 155.52 
L 518.4 155.52 
" style="fill: none; stroke: #000000; stroke-width: 0.8; stroke-linejoin: miter; stroke-linecap: square"/>
   </g>
  </g>
 </g>
 <defs>
  <clipPath id="pbb4d72be86">
   <rect x="72" y="34.56" width="446.4" height="100.8"/>
  </clipPath>
  <clipPath id="p8577a306b2">
   <rect x="72" y="155.52" width="446.4" height="100.8"/>
  </clipPath>
 </defs>
</svg>
