<?xml version="1.0" encoding="utf-8" standalone="no"?>
<!DOCTYPE svg PUBLIC "-//W3C//DTD SVG 1.1//EN"
  "http://www.w3.org/Graphics/SVG/1.1/DTD/svg11.dtd">
<svg xmlns:xlink="http://www.w3.org/1999/xlink" width="576pt" height="288pt" viewBox="0 0 576 288" xmlns="http://www.w3.org/2000/svg" version="1.1">
 <metadata>
  <rdf:RDF xmlns:dc="http://purl.org/dc/elements/1.1/" xmlns:cc="http://creativecommons.org/ns#" xmlns:rdf="http://www.w3.org/1999/02/22-rdf-syntax-ns#">
   <cc:Work>
    <dc:type rdf:resource="http://purl.org/dc/dcmitype/StillImage"/>
    <dc:date>2025-01-01T00:42:39.874025</dc:date>
    <dc:format>image/svg+xml</dc:format>
    <dc:creator>
     <cc:Agent>
      <dc:title>Matplotlib v3.10.0, https://matplotlib.org/</dc:title>
     </cc:Agent>
    </dc:creator>
   </cc:Work>
  </rdf:RDF>
 </metadata>
 <defs>
  <style type="text/css">*{stroke-linejoin: round; stroke-linecap: butt}</style>
 </defs>
 <g id="figure_1">
  <g id="patch_1">
   <path d="M 0 288 
L 576 288 
L 576 0 
L 0 0 
z
" style="fill: #ffffff"/>
  </g>
  <g id="axes_1">
   <g id="patch_2">
    <path d="M 72 135.36 
L 518.4 135.36 
L 518.4 34.56 
L 72 34.56 
z
" style="fill: #ffffff"/>
   </g>
   <g id="matplotlib.axis_1">
    <g id="xtick_1">
     <g id="line2d_1">
      <defs>
       <path id="m227b92ca9b" d="M 0 0 
L 0 3.5 
" style="stroke: #000000; stroke-width: 0.8"/>
      </defs>
      <g>
       <use xlink:href="#m227b92ca9b" x="92.290909" y="135.36" style="stroke: #000000; stroke-width: 0.8"/>
      </g>
     </g>
    </g>
    <g id="xtick_2">
     <g id="line2d_2">
      <g>
       <use xlink:href="#m227b92ca9b" x="143.273093" y="135.36" style="stroke: #000000; stroke-width: 0.8"/>
      </g>
     </g>
    </g>
    <g id="xtick_3">
     <g id="line2d_3">
      <g>
       <use xlink:href="#m227b92ca9b" x="194.255276" y="135.36" style="stroke: #000000; stroke-width: 0.8"/>
      </g>
     </g>
    </g>
    <g id="xtick_4">
     <g id="line2d_4">
      <g>
       <use xlink:href="#m227b92ca9b" x="245.23746" y="135.36" style="stroke: #000000; stroke-width: 0.8"/>
      </g>
     </g>
    </g>
    <g id="xtick_5">
     <g id="line2d_5">
      <g>
       <use xlink:href="#m227b92ca9b" x="296.219644" y="135.36" style="stroke: #000000; stroke-width: 0.8"/>
      </g>
     </g>
    </g>
    <g id="xtick_6">
     <g id="line2d_6">
      <g>
       <use xlink:href="#m227b92ca9b" x="347.201827" y="135.36" style="stroke: #000000; stroke-width: 0.8"/>
      </g>
     </g>
    </g>
    <g id="xtick_7">
     <g id="line2d_7">
      <g>
       <use xlink:href="#m227b92ca9b" x="398.184011" y="135.36" style="stroke: #000000; stroke-width: 0.8"/>
      </g>
     </g>
    </g>
    <g id="xtick_8">
     <g id="line2d_8">
      <g>
       <use xlink:href="#m227b92ca9b" x="449.166195" y="135.36" style="stroke: #000000; stroke-width: 0.8"/>
      </g>
     </g>
    </g>
    <g id="xtick_9">
     <g id="line2d_9">
      <g>
       <use xlink:href="#m227b92ca9b" x="500.148378" y="135.36" style="stroke: #000000; stroke-width: 0.8"/>
      </g>
     </g>
    </g>
   </g>
   <g id="matplotlib.axis_2">
    <g id="ytick_1">
     <g id="line2d_10">
      <defs>
       <path id="m759f35b6b7" d="M 0 0 
L -3.5 0 
" style="stroke: #000000; stroke-width: 0.8"/>
      </defs>
      <g>
       <use xlink:href="#m759f35b6b7" x="72" y="113.992324" style="stroke: #000000; stroke-width: 0.8"/>
      </g>
     </g>
     <g id="text_1">
      <!-- −150 -->
      <g transform="translate(37.532812 117.791543) scale(0.1 -0.1)">
       <defs>
        <path id="DejaVuSans-2212" d="M 678 2272 
L 4684 2272 
L 4684 1741 
L 678 1741 
L 678 2272 
z
" transform="scale(0.015625)"/>
        <path id="DejaVuSans-31" d="M 794 531 
L 1825 531 
L 1825 4091 
L 703 3866 
L 703 4441 
L 1819 4666 
L 2450 4666 
L 2450 531 
L 3481 531 
L 3481 0 
L 794 0 
L 794 531 
z
" transform="scale(0.015625)"/>
        <path id="DejaVuSans-35" d="M 691 4666 
L 3169 4666 
L 3169 4134 
L 1269 4134 
L 1269 2991 
Q 1406 3038 1543 3061 
Q 1681 3084 1819 3084 
Q 2600 3084 3056 2656 
Q 3513 2228 3513 1497 
Q 3513 744 3044 326 
Q 2575 -91 1722 -91 
Q 1428 -91 1123 -41 
Q 819 9 494 109 
L 494 744 
Q 775 591 1075 516 
Q 1375 441 1709 441 
Q 2250 441 2565 725 
Q 2881 1009 2881 1497 
Q 2881 1984 2565 2268 
Q 2250 2553 1709 2553 
Q 1456 2553 1204 2497 
Q 953 2441 691 2322 
L 691 4666 
z
" transform="scale(0.015625)"/>
        <path id="DejaVuSans-30" d="M 2034 4250 
Q 1547 4250 1301 3770 
Q 1056 3291 1056 2328 
Q 1056 1369 1301 889 
Q 1547 409 2034 409 
Q 2525 409 2770 889 
Q 3016 1369 3016 2328 
Q 3016 3291 2770 3770 
Q 2525 4250 2034 4250 
z
M 2034 4750 
Q 2819 4750 3233 4129 
Q 3647 3509 3647 2328 
Q 3647 1150 3233 529 
Q 2819 -91 2034 -91 
Q 1250 -91 836 529 
Q 422 1150 422 2328 
Q 422 3509 836 4129 
Q 1250 4750 2034 4750 
z
" transform="scale(0.015625)"/>
       </defs>
       <use xlink:href="#DejaVuSans-2212"/>
       <use xlink:href="#DejaVuSans-31" transform="translate(83.789062 0)"/>
       <use xlink:href="#DejaVuSans-35" transform="translate(147.412109 0)"/>
       <use xlink:href="#DejaVuSans-30" transform="translate(211.035156 0)"/>
      </g>
     </g>
    </g>
    <g id="ytick_2">
     <g id="line2d_11">
      <g>
       <use xlink:href="#m759f35b6b7" x="72" y="78.45931" style="stroke: #000000; stroke-width: 0.8"/>
      </g>
     </g>
     <g id="text_2">
      <!-- −100 -->
      <g transform="translate(37.532812 82.258529) scale(0.1 -0.1)">
       <use xlink:href="#DejaVuSans-2212"/>
       <use xlink:href="#DejaVuSans-31" transform="translate(83.789062 0)"/>
       <use xlink:href="#DejaVuSans-30" transform="translate(147.412109 0)"/>
       <use xlink:href="#DejaVuSans-30" transform="translate(211.035156 0)"/>
      </g>
     </g>
    </g>
    <g id="ytick_3">
     <g id="line2d_12">
      <g>
       <use xlink:href="#m759f35b6b7" x="72" y="42.926296" style="stroke: #000000; stroke-width: 0.8"/>
      </g>
     </g>
     <g id="text_3">
      <!-- −50 -->
      <g transform="translate(43.895313 46.725515) scale(0.1 -0.1)">
       <use xlink:href="#DejaVuSans-2212"/>
       <use xlink:href="#DejaVuSans-35" transform="translate(83.789062 0)"/>
       <use xlink:href="#DejaVuSans-30" transform="translate(147.412109 0)"/>
      </g>
     </g>
    </g>
   </g>
   <g id="line2d_13">
    <path d="M 92.290909 58.940931 
L 94.330196 108.676946 
L 96.369484 124.041668 
L 98.408771 111.112576 
L 100.448058 87.488299 
L 102.487346 106.861486 
L 104.526633 97.946709 
L 106.565921 72.328602 
L 108.605208 113.922089 
L 110.644495 50.002496 
L 112.683783 79.574358 
L 114.72307 118.109743 
L 116.762357 117.36461 
L 118.801645 115.812893 
L 120.840932 67.310106 
L 122.880219 111.281479 
L 124.919507 78.050086 
L 126.958794 71.676054 
L 128.998081 92.53718 
L 131.037369 63.442079 
L 133.076656 65.993895 
L 135.115943 53.435639 
L 137.155231 104.276721 
L 139.194518 104.617 
L 141.233805 114.750903 
L 143.273093 118.288275 
L 145.31238 115.010429 
L 147.351667 113.013236 
L 149.390955 111.282206 
L 151.430242 106.576 
L 153.469529 105.199215 
L 155.508817 116.767658 
L 157.548104 121.981191 
L 159.587392 111.523209 
L 161.626679 118.245768 
L 163.665966 102.079873 
L 165.705254 93.117232 
L 167.744541 107.504253 
L 169.783828 54.61768 
L 171.823116 62.922471 
L 173.862403 77.808074 
L 175.90169 51.516078 
L 177.940978 43.173915 
L 179.980265 74.249888 
L 182.019552 67.242451 
L 184.05884 70.175432 
L 186.098127 64.055178 
L 188.137414 65.68195 
L 190.176702 63.357194 
L 192.215989 63.553792 
L 194.255276 49.862022 
L 196.294564 70.119641 
L 198.333851 78.906997 
L 200.373138 96.512154 
L 202.412426 71.587742 
L 204.451713 61.735984 
L 206.491 48.693897 
L 208.530288 75.435523 
L 210.569575 52.640804 
L 212.608862 101.883914 
L 214.64815 109.400912 
L 216.687437 93.853559 
L 218.726725 90.106403 
L 222.805299 115.22043 
L 224.844587 121.621003 
L 226.883874 65.279878 
L 228.923161 61.150602 
L 230.962449 82.187837 
L 233.001736 76.547806 
L 235.041023 43.390832 
L 237.080311 59.927458 
L 239.119598 52.419617 
L 241.158885 72.616831 
L 243.198173 55.98861 
L 245.23746 87.982029 
L 247.276747 53.433032 
L 249.316035 102.512237 
L 251.355322 77.056744 
L 253.394609 108.913667 
L 255.433897 90.524204 
L 257.473184 71.042927 
L 259.512471 69.540684 
L 261.551759 69.548649 
L 265.630333 71.077258 
L 267.669621 66.887994 
L 269.708908 56.386984 
L 271.748196 44.470176 
L 273.787483 59.037869 
L 275.82677 52.702367 
L 277.866058 65.690154 
L 279.905345 59.840306 
L 281.944632 74.858166 
L 283.98392 63.816494 
L 286.023207 56.487919 
L 288.062494 49.982744 
L 290.101782 66.792693 
L 292.141069 72.129748 
L 294.180356 53.843258 
L 296.219644 50.755794 
L 298.258931 81.10634 
L 300.298218 54.564649 
L 302.337506 68.750696 
L 304.376793 61.17782 
L 306.41608 49.926977 
L 308.455368 45.148804 
L 310.494655 54.843752 
L 312.533942 61.900913 
L 314.57323 73.319651 
L 316.612517 47.368183 
L 318.651804 61.046501 
L 320.691092 53.604884 
L 322.730379 52.25905 
L 324.769667 62.224281 
L 326.808954 68.315317 
L 328.848241 55.289894 
L 330.887529 47.547594 
L 332.926816 59.847994 
L 334.966103 46.485798 
L 337.005391 62.059216 
L 339.044678 47.309008 
L 341.083965 54.108298 
L 343.123253 55.308724 
L 345.16254 50.600215 
L 347.201827 56.541444 
L 349.241115 57.328558 
L 351.280402 51.225662 
L 353.319689 50.597832 
L 355.358977 59.140175 
L 357.398264 73.858106 
L 359.437551 83.912275 
L 361.476839 53.211118 
L 363.516126 58.965069 
L 365.555413 50.807755 
L 367.594701 64.910017 
L 369.633988 61.561577 
L 371.673275 64.834002 
L 373.712563 59.768964 
L 375.75185 66.872097 
L 377.791138 54.190792 
L 379.830425 93.381479 
L 381.869712 65.068619 
L 383.909 69.8008 
L 385.948287 99.674378 
L 387.987574 67.723055 
L 390.026862 77.867151 
L 392.066149 60.130942 
L 394.105436 70.351482 
L 396.144724 103.066053 
L 398.184011 81.776851 
L 400.223298 90.548326 
L 402.262586 68.547109 
L 404.301873 89.014691 
L 406.34116 79.606358 
L 408.380448 69.294795 
L 410.419735 49.984004 
L 412.459022 62.496732 
L 414.49831 103.897405 
L 416.537597 83.145151 
L 418.576884 130.778182 
L 420.616172 94.815368 
L 422.655459 85.11095 
L 424.694746 81.648758 
L 426.734034 65.453059 
L 428.773321 62.227615 
L 430.812608 63.588357 
L 432.851896 64.052857 
L 434.891183 78.035865 
L 436.930471 61.158513 
L 438.969758 61.685641 
L 441.009045 77.842834 
L 443.048333 54.151391 
L 445.08762 58.164947 
L 447.126907 77.379987 
L 449.166195 65.433031 
L 451.205482 58.689766 
L 453.244769 63.107938 
L 455.284057 63.520019 
L 457.323344 60.519346 
L 459.362631 49.811054 
L 461.401919 52.864466 
L 463.441206 56.867333 
L 465.480493 65.170285 
L 467.519781 59.817539 
L 469.559068 51.070652 
L 471.598355 63.602475 
L 473.637643 71.84756 
L 475.67693 76.505694 
L 477.716217 54.791095 
L 479.755505 63.458936 
L 481.794792 61.011839 
L 483.834079 55.11533 
L 485.873367 70.123583 
L 487.912654 63.776351 
L 489.951942 44.567613 
L 491.991229 58.420802 
L 494.030516 39.226362 
L 496.069804 63.17061 
L 498.109091 54.594795 
L 498.109091 54.594795 
" clip-path="url(#p3033ad7e87)" style="fill: none; stroke: #ff0000; stroke-opacity: 0.9; stroke-width: 1.5; stroke-linecap: square"/>
   </g>
   <g id="line2d_14">
    <path d="M 92.290909 64.308587 
L 94.330196 101.093996 
L 96.369484 123.541507 
L 98.408771 99.927343 
L 100.448058 88.974027 
L 102.487346 106.10128 
L 104.526633 104.852441 
L 106.565921 61.941078 
L 108.605208 112.729768 
L 110.644495 45.21529 
L 114.72307 119.471379 
L 116.762357 125.996309 
L 118.801645 107.202632 
L 120.840932 65.044177 
L 122.880219 108.620461 
L 124.919507 67.353123 
L 126.958794 67.323297 
L 128.998081 90.344923 
L 131.037369 67.991819 
L 133.076656 48.956051 
L 135.115943 55.583756 
L 137.155231 102.664484 
L 139.194518 103.050785 
L 141.233805 119.055041 
L 143.273093 118.079792 
L 145.31238 112.01901 
L 147.351667 115.455101 
L 149.390955 113.796322 
L 151.430242 106.320759 
L 153.469529 109.979896 
L 155.508817 116.95737 
L 157.548104 119.725157 
L 159.587392 109.428661 
L 161.626679 108.339248 
L 163.665966 99.139128 
L 165.705254 86.889433 
L 167.744541 117.419501 
L 169.783828 53.778559 
L 171.823116 47.503969 
L 173.862403 72.47392 
L 175.90169 46.547548 
L 177.940978 50.391531 
L 179.980265 72.678001 
L 182.019552 73.37856 
L 184.05884 72.877906 
L 186.098127 67.654782 
L 188.137414 56.908225 
L 190.176702 67.003546 
L 192.215989 62.326402 
L 194.255276 51.50479 
L 196.294564 77.263584 
L 198.333851 81.894197 
L 200.373138 90.254079 
L 202.412426 69.872185 
L 204.451713 56.665757 
L 206.491 48.685303 
L 208.530288 79.310127 
L 210.569575 52.590472 
L 212.608862 102.342694 
L 214.64815 115.236056 
L 216.687437 93.036846 
L 218.726725 90.977655 
L 222.805299 127.799722 
L 224.844587 123.576956 
L 226.883874 58.226632 
L 228.923161 69.774905 
L 230.962449 72.669369 
L 233.001736 72.881241 
L 235.041023 52.836196 
L 237.080311 57.462951 
L 239.119598 55.521399 
L 241.158885 69.746917 
L 243.198173 50.714658 
L 245.23746 84.652408 
L 247.276747 57.350815 
L 249.316035 92.095273 
L 251.355322 76.591447 
L 253.394609 112.265718 
L 257.473184 67.466333 
L 259.512471 75.716362 
L 261.551759 60.158214 
L 263.591046 75.872486 
L 265.630333 59.534245 
L 267.669621 62.318644 
L 269.708908 54.388507 
L 271.748196 51.60069 
L 273.787483 62.67264 
L 275.82677 56.99619 
L 277.866058 71.222045 
L 279.905345 57.849994 
L 281.944632 81.864079 
L 283.98392 69.773875 
L 286.023207 66.70976 
L 288.062494 65.179952 
L 290.101782 63.92844 
L 292.141069 71.139757 
L 294.180356 56.422606 
L 296.219644 54.950716 
L 298.258931 82.681664 
L 300.298218 66.532187 
L 302.337506 70.822911 
L 304.376793 58.562281 
L 306.41608 54.528859 
L 308.455368 48.686504 
L 310.494655 48.106156 
L 312.533942 61.324737 
L 314.57323 70.718046 
L 316.612517 40.066831 
L 318.651804 67.071363 
L 320.691092 54.345869 
L 322.730379 45.508306 
L 324.769667 57.971353 
L 326.808954 55.215467 
L 328.848241 60.118282 
L 330.887529 44.33905 
L 332.926816 52.44841 
L 334.966103 49.671271 
L 337.005391 61.091221 
L 339.044678 48.384788 
L 341.083965 50.394391 
L 343.123253 53.591069 
L 345.16254 46.59477 
L 347.201827 52.618572 
L 349.241115 55.847288 
L 351.280402 39.141818 
L 353.319689 55.970728 
L 357.398264 64.479507 
L 359.437551 85.102188 
L 361.476839 54.702327 
L 363.516126 67.639606 
L 365.555413 53.310323 
L 367.594701 71.243098 
L 369.633988 56.940041 
L 371.673275 64.619051 
L 373.712563 61.004324 
L 375.75185 63.295997 
L 377.791138 50.632321 
L 379.830425 95.489452 
L 381.869712 68.946514 
L 383.909 74.53232 
L 385.948287 102.934929 
L 387.987574 79.968178 
L 392.066149 64.77666 
L 394.105436 64.011613 
L 396.144724 98.070762 
L 398.184011 81.346525 
L 400.223298 77.299158 
L 402.262586 59.9575 
L 404.301873 72.791964 
L 406.34116 68.92848 
L 408.380448 70.232834 
L 410.419735 49.747514 
L 412.459022 71.004513 
L 414.49831 107.727191 
L 416.537597 83.041131 
L 418.576884 113.319954 
L 420.616172 94.277184 
L 422.655459 85.374254 
L 424.694746 81.032325 
L 426.734034 72.994954 
L 428.773321 66.483666 
L 430.812608 62.363206 
L 432.851896 67.411452 
L 434.891183 70.914574 
L 436.930471 55.266005 
L 438.969758 67.602564 
L 441.009045 76.972347 
L 443.048333 48.549367 
L 445.08762 64.134256 
L 447.126907 74.213398 
L 449.166195 67.266758 
L 451.205482 51.549764 
L 453.244769 65.022186 
L 455.284057 63.11279 
L 457.323344 59.276623 
L 459.362631 61.944749 
L 461.401919 58.57564 
L 463.441206 69.556516 
L 465.480493 78.532023 
L 467.519781 53.422063 
L 469.559068 58.876659 
L 471.598355 68.61331 
L 473.637643 76.126187 
L 475.67693 70.402529 
L 477.716217 55.526181 
L 479.755505 65.471299 
L 481.794792 55.044325 
L 483.834079 64.692599 
L 485.873367 71.744267 
L 487.912654 65.19991 
L 489.951942 47.542601 
L 491.991229 59.358342 
L 494.030516 48.12185 
L 496.069804 58.397802 
L 498.109091 63.121747 
L 498.109091 63.121747 
" clip-path="url(#p3033ad7e87)" style="fill: none; stroke: #ff0000; stroke-opacity: 0.9; stroke-width: 1.5; stroke-linecap: square"/>
   </g>
   <g id="line2d_15">
    <path d="M 92.290909 66.124693 
L 94.330196 105.275838 
L 96.369484 121.500278 
L 98.408771 108.932828 
L 100.448058 85.606567 
L 102.487346 97.26061 
L 104.526633 95.164349 
L 106.565921 70.494967 
L 108.605208 125.561428 
L 110.644495 54.171647 
L 112.683783 73.000783 
L 114.72307 126.414978 
L 116.762357 121.090881 
L 118.801645 116.679465 
L 120.840932 63.123222 
L 122.880219 108.881222 
L 124.919507 73.431944 
L 126.958794 62.762806 
L 128.998081 88.491233 
L 131.037369 63.940049 
L 133.076656 59.852256 
L 135.115943 52.093061 
L 137.155231 111.696537 
L 139.194518 102.340948 
L 141.233805 121.113415 
L 143.273093 121.082987 
L 145.31238 111.606164 
L 147.351667 112.222299 
L 149.390955 116.164297 
L 151.430242 108.207322 
L 153.469529 103.750796 
L 155.508817 109.487337 
L 157.548104 123.029354 
L 159.587392 107.098737 
L 161.626679 120.132971 
L 163.665966 93.691905 
L 165.705254 89.169324 
L 167.744541 109.41451 
L 169.783828 52.110658 
L 171.823116 57.922133 
L 173.862403 85.455968 
L 175.90169 60.532537 
L 177.940978 47.219574 
L 179.980265 83.608106 
L 182.019552 65.528294 
L 184.05884 66.528782 
L 186.098127 66.846885 
L 188.137414 61.461684 
L 190.176702 61.301965 
L 192.215989 65.898729 
L 194.255276 55.976692 
L 196.294564 66.872254 
L 198.333851 72.496155 
L 200.373138 98.287601 
L 202.412426 67.25586 
L 204.451713 62.289723 
L 206.491 56.392151 
L 208.530288 83.907314 
L 210.569575 59.986486 
L 212.608862 109.235457 
L 214.64815 100.209564 
L 216.687437 92.837266 
L 218.726725 91.513952 
L 220.766012 104.721882 
L 222.805299 115.667022 
L 224.844587 121.417378 
L 226.883874 65.024007 
L 228.923161 66.573957 
L 230.962449 79.648882 
L 233.001736 79.801888 
L 235.041023 44.103387 
L 237.080311 67.064569 
L 239.119598 61.555759 
L 241.158885 72.923483 
L 243.198173 59.432822 
L 245.23746 77.114937 
L 247.276747 49.026121 
L 249.316035 94.232431 
L 251.355322 76.329108 
L 253.394609 111.362775 
L 255.433897 94.283072 
L 257.473184 63.202138 
L 259.512471 71.040308 
L 261.551759 61.151773 
L 263.591046 72.86478 
L 265.630333 66.924625 
L 267.669621 56.983974 
L 269.708908 60.299005 
L 271.748196 39.414998 
L 273.787483 61.962419 
L 275.82677 55.371586 
L 277.866058 71.91349 
L 279.905345 60.689577 
L 281.944632 85.401548 
L 283.98392 73.631855 
L 286.023207 59.503139 
L 288.062494 60.933194 
L 290.101782 73.969879 
L 292.141069 78.673617 
L 294.180356 55.836867 
L 296.219644 48.138346 
L 298.258931 88.766693 
L 300.298218 56.843894 
L 302.337506 66.741012 
L 304.376793 67.646725 
L 306.41608 49.961473 
L 308.455368 48.222432 
L 310.494655 51.863761 
L 312.533942 57.205421 
L 314.57323 74.205216 
L 316.612517 40.929912 
L 318.651804 62.576206 
L 320.691092 42.575317 
L 322.730379 49.276085 
L 324.769667 53.149309 
L 326.808954 70.207427 
L 328.848241 51.633416 
L 330.887529 43.791101 
L 332.926816 54.380548 
L 334.966103 44.477865 
L 337.005391 52.775856 
L 339.044678 52.473248 
L 341.083965 59.083348 
L 343.123253 53.266378 
L 345.16254 50.691883 
L 347.201827 57.920495 
L 349.241115 62.66667 
L 351.280402 42.798833 
L 353.319689 64.80313 
L 355.358977 55.366836 
L 357.398264 63.752765 
L 359.437551 85.266765 
L 361.476839 45.921678 
L 363.516126 67.274338 
L 365.555413 48.841709 
L 367.594701 76.154018 
L 369.633988 46.022458 
L 371.673275 64.849774 
L 373.712563 55.37196 
L 375.75185 62.225446 
L 377.791138 59.154738 
L 379.830425 86.352708 
L 381.869712 72.207103 
L 383.909 66.709261 
L 385.948287 93.236693 
L 387.987574 73.814346 
L 390.026862 76.893756 
L 392.066149 57.077497 
L 394.105436 66.575356 
L 396.144724 96.113112 
L 398.184011 85.635335 
L 400.223298 77.062806 
L 402.262586 60.720927 
L 404.301873 76.477543 
L 406.34116 70.175134 
L 408.380448 67.664943 
L 410.419735 47.248053 
L 412.459022 63.334275 
L 414.49831 99.53252 
L 416.537597 80.848252 
L 418.576884 118.33627 
L 420.616172 101.091101 
L 422.655459 85.552261 
L 424.694746 79.477452 
L 426.734034 67.679539 
L 428.773321 68.488585 
L 430.812608 70.507345 
L 432.851896 69.21769 
L 434.891183 63.067203 
L 436.930471 59.001542 
L 438.969758 63.825863 
L 441.009045 73.83535 
L 443.048333 45.391741 
L 445.08762 64.665316 
L 447.126907 68.161649 
L 449.166195 74.879919 
L 451.205482 56.981128 
L 453.244769 71.88361 
L 455.284057 59.412631 
L 457.323344 62.326099 
L 459.362631 55.462148 
L 461.401919 56.549121 
L 463.441206 63.017392 
L 465.480493 56.80773 
L 467.519781 65.249857 
L 469.559068 58.581084 
L 471.598355 64.110172 
L 473.637643 67.48474 
L 475.67693 71.47013 
L 477.716217 58.164687 
L 479.755505 62.608981 
L 481.794792 63.758567 
L 483.834079 62.572698 
L 485.873367 69.810077 
L 487.912654 66.389846 
L 489.951942 49.980575 
L 491.991229 54.462934 
L 494.030516 58.284489 
L 496.069804 66.161263 
L 498.109091 57.257417 
L 498.109091 57.257417 
" clip-path="url(#p3033ad7e87)" style="fill: none; stroke: #ff0000; stroke-opacity: 0.9; stroke-width: 1.5; stroke-linecap: square"/>
   </g>
   <g id="line2d_16">
    <path d="M 92.290909 58.05472 
L 94.330196 102.233237 
L 96.369484 123.865315 
L 98.408771 99.713785 
L 100.448058 94.540087 
L 102.487346 106.41369 
L 104.526633 95.711636 
L 106.565921 69.905286 
L 108.605208 109.935523 
L 110.644495 50.460221 
L 112.683783 86.359377 
L 114.72307 126.438086 
L 116.762357 125.668966 
L 118.801645 108.885733 
L 120.840932 65.329955 
L 122.880219 118.398698 
L 124.919507 69.01708 
L 126.958794 60.893419 
L 128.998081 90.864337 
L 131.037369 68.286798 
L 133.076656 53.902628 
L 135.115943 53.300303 
L 137.155231 106.72699 
L 139.194518 110.762386 
L 141.233805 117.729016 
L 143.273093 113.73345 
L 145.31238 119.604639 
L 147.351667 106.717089 
L 149.390955 121.695933 
L 151.430242 106.890178 
L 153.469529 103.462503 
L 155.508817 108.912723 
L 157.548104 129.586685 
L 159.587392 105.565411 
L 161.626679 113.943365 
L 163.665966 104.144492 
L 165.705254 96.222993 
L 167.744541 100.515999 
L 169.783828 50.195139 
L 171.823116 63.523196 
L 173.862403 75.194622 
L 175.90169 42.851859 
L 177.940978 54.315165 
L 179.980265 70.412695 
L 182.019552 61.026164 
L 184.05884 81.304386 
L 186.098127 56.164361 
L 188.137414 60.229631 
L 190.176702 71.257455 
L 192.215989 68.838807 
L 194.255276 49.022654 
L 196.294564 69.907926 
L 198.333851 76.537125 
L 200.373138 90.77705 
L 202.412426 76.352574 
L 204.451713 51.376334 
L 206.491 46.289289 
L 208.530288 77.051002 
L 210.569575 52.804641 
L 212.608862 109.623113 
L 214.64815 108.045706 
L 216.687437 85.009685 
L 218.726725 86.004936 
L 220.766012 100.859857 
L 222.805299 111.965214 
L 224.844587 115.486472 
L 226.883874 67.389841 
L 228.923161 65.529524 
L 230.962449 81.428249 
L 233.001736 67.908354 
L 235.041023 46.270046 
L 237.080311 58.711237 
L 239.119598 55.476955 
L 241.158885 74.227896 
L 243.198173 47.502725 
L 245.23746 88.37631 
L 247.276747 55.083542 
L 249.316035 106.228716 
L 251.355322 73.154331 
L 253.394609 105.282073 
L 255.433897 88.224231 
L 257.473184 67.372252 
L 259.512471 70.550346 
L 261.551759 53.087998 
L 263.591046 69.501435 
L 265.630333 64.869076 
L 269.708908 53.710991 
L 271.748196 47.348971 
L 273.787483 57.8581 
L 275.82677 50.25029 
L 277.866058 64.416347 
L 279.905345 55.307634 
L 281.944632 79.367198 
L 283.98392 59.860269 
L 286.023207 61.265622 
L 288.062494 55.351498 
L 290.101782 69.272528 
L 292.141069 75.000339 
L 296.219644 43.679445 
L 298.258931 86.663757 
L 300.298218 60.304134 
L 302.337506 69.284683 
L 304.376793 65.540092 
L 306.41608 55.639927 
L 308.455368 43.298258 
L 310.494655 55.677745 
L 312.533942 53.953242 
L 314.57323 76.558796 
L 316.612517 49.860406 
L 318.651804 65.488893 
L 320.691092 48.057484 
L 322.730379 49.696391 
L 324.769667 56.686529 
L 326.808954 70.35409 
L 328.848241 52.23537 
L 330.887529 44.898705 
L 332.926816 56.315535 
L 334.966103 54.225964 
L 337.005391 54.579624 
L 339.044678 51.737943 
L 341.083965 47.791745 
L 343.123253 45.179194 
L 345.16254 48.635305 
L 347.201827 63.194862 
L 349.241115 55.23112 
L 351.280402 39.965861 
L 353.319689 61.729575 
L 355.358977 64.724924 
L 357.398264 65.681419 
L 359.437551 84.754535 
L 361.476839 52.751435 
L 363.516126 58.639061 
L 365.555413 51.564718 
L 367.594701 71.485241 
L 369.633988 58.250115 
L 371.673275 58.941072 
L 373.712563 52.200374 
L 375.75185 76.727396 
L 377.791138 64.971659 
L 379.830425 94.063387 
L 381.869712 67.853164 
L 383.909 63.510373 
L 385.948287 103.480091 
L 387.987574 70.979659 
L 390.026862 79.201559 
L 392.066149 57.207297 
L 394.105436 60.248082 
L 396.144724 102.575316 
L 398.184011 92.054332 
L 400.223298 78.026924 
L 402.262586 56.462371 
L 404.301873 85.613431 
L 406.34116 70.553681 
L 408.380448 74.974233 
L 410.419735 49.621032 
L 412.459022 65.687269 
L 414.49831 105.905245 
L 416.537597 77.547671 
L 418.576884 112.877374 
L 420.616172 99.278666 
L 422.655459 87.113499 
L 424.694746 76.881795 
L 426.734034 69.68115 
L 428.773321 70.723923 
L 430.812608 59.783636 
L 432.851896 57.37356 
L 434.891183 67.908457 
L 436.930471 65.515628 
L 438.969758 54.074774 
L 441.009045 69.436318 
L 443.048333 50.629648 
L 445.08762 62.603391 
L 447.126907 68.930936 
L 449.166195 62.85468 
L 451.205482 53.260788 
L 453.244769 63.775689 
L 455.284057 68.662221 
L 457.323344 52.628743 
L 459.362631 52.303312 
L 461.401919 62.767306 
L 465.480493 57.587671 
L 467.519781 52.640858 
L 469.559068 51.311867 
L 471.598355 63.542916 
L 473.637643 69.859812 
L 475.67693 78.414493 
L 477.716217 61.956487 
L 479.755505 71.787019 
L 481.794792 63.127516 
L 483.834079 67.01549 
L 485.873367 71.670984 
L 487.912654 67.03553 
L 489.951942 49.524815 
L 491.991229 55.463509 
L 494.030516 42.661116 
L 496.069804 58.169626 
L 498.109091 61.820186 
L 498.109091 61.820186 
" clip-path="url(#p3033ad7e87)" style="fill: none; stroke: #ff0000; stroke-opacity: 0.9; stroke-width: 1.5; stroke-linecap: square"/>
   </g>
   <g id="line2d_17">
    <path d="M 92.290909 60.814113 
L 94.330196 102.038026 
L 96.369484 123.187999 
L 98.408771 104.341795 
L 100.448058 88.139075 
L 102.487346 104.289777 
L 104.526633 98.520867 
L 106.565921 69.641418 
L 108.605208 118.91084 
L 110.644495 46.955462 
L 112.683783 82.325092 
L 114.72307 115.569232 
L 116.762357 121.118359 
L 118.801645 104.080806 
L 120.840932 73.042949 
L 122.880219 109.56011 
L 124.919507 71.150606 
L 126.958794 67.255681 
L 128.998081 84.192408 
L 131.037369 66.566985 
L 133.076656 66.188416 
L 135.115943 51.837196 
L 137.155231 107.386543 
L 139.194518 105.991725 
L 141.233805 113.886304 
L 143.273093 118.800385 
L 145.31238 121.846543 
L 147.351667 109.016477 
L 149.390955 111.103771 
L 151.430242 113.978607 
L 153.469529 115.243256 
L 155.508817 108.874868 
L 157.548104 123.878045 
L 159.587392 103.251059 
L 161.626679 113.987054 
L 163.665966 94.841924 
L 165.705254 91.954476 
L 167.744541 114.091209 
L 169.783828 48.809424 
L 171.823116 57.408949 
L 173.862403 78.200008 
L 175.90169 53.855051 
L 177.940978 42.913831 
L 179.980265 65.363885 
L 182.019552 69.537431 
L 184.05884 76.061488 
L 186.098127 61.934485 
L 188.137414 53.3793 
L 190.176702 65.09678 
L 192.215989 60.107487 
L 194.255276 46.60878 
L 198.333851 83.523155 
L 200.373138 97.550221 
L 202.412426 64.375862 
L 204.451713 56.149521 
L 206.491 44.107678 
L 208.530288 82.266867 
L 210.569575 62.65028 
L 212.608862 113.158576 
L 214.64815 105.849085 
L 216.687437 87.298435 
L 218.726725 92.219911 
L 220.766012 104.590791 
L 222.805299 120.070608 
L 224.844587 121.664736 
L 226.883874 75.083403 
L 228.923161 59.91001 
L 230.962449 85.068578 
L 233.001736 82.18364 
L 235.041023 43.760836 
L 237.080311 59.570284 
L 239.119598 61.554529 
L 241.158885 76.231698 
L 243.198173 56.499559 
L 245.23746 91.303332 
L 247.276747 56.712386 
L 249.316035 96.695935 
L 251.355322 74.597356 
L 253.394609 105.403177 
L 255.433897 86.707984 
L 257.473184 70.34336 
L 259.512471 64.076009 
L 261.551759 65.653838 
L 263.591046 71.329719 
L 265.630333 65.824102 
L 267.669621 57.421202 
L 269.708908 59.758923 
L 271.748196 48.587023 
L 273.787483 69.008795 
L 275.82677 47.041443 
L 277.866058 66.690436 
L 279.905345 53.363474 
L 281.944632 77.917217 
L 283.98392 65.250535 
L 286.023207 66.945179 
L 288.062494 54.458759 
L 290.101782 66.162852 
L 292.141069 76.878694 
L 294.180356 74.391367 
L 296.219644 48.829154 
L 298.258931 85.750339 
L 300.298218 59.67638 
L 302.337506 67.209822 
L 304.376793 58.279105 
L 306.41608 52.292582 
L 308.455368 49.299497 
L 310.494655 62.093846 
L 312.533942 64.593578 
L 314.57323 78.673899 
L 316.612517 41.661129 
L 318.651804 63.047744 
L 320.691092 50.63675 
L 324.769667 60.452765 
L 326.808954 63.506134 
L 328.848241 47.148593 
L 330.887529 50.906455 
L 332.926816 51.340075 
L 334.966103 52.336418 
L 337.005391 55.667654 
L 341.083965 48.794017 
L 343.123253 49.512729 
L 345.16254 47.53405 
L 347.201827 51.869736 
L 349.241115 54.789755 
L 351.280402 41.056443 
L 353.319689 55.400268 
L 355.358977 62.458653 
L 357.398264 68.772313 
L 359.437551 85.269617 
L 361.476839 55.18883 
L 363.516126 61.355198 
L 365.555413 49.569106 
L 367.594701 70.781011 
L 369.633988 54.273899 
L 371.673275 65.611444 
L 373.712563 54.528094 
L 375.75185 71.652159 
L 377.791138 53.785336 
L 379.830425 87.415499 
L 381.869712 64.304976 
L 383.909 75.960228 
L 385.948287 101.016723 
L 387.987574 69.264877 
L 390.026862 75.451773 
L 392.066149 55.284141 
L 394.105436 64.112531 
L 396.144724 110.136177 
L 398.184011 86.683363 
L 400.223298 84.736144 
L 402.262586 59.839465 
L 404.301873 83.713426 
L 406.34116 72.169355 
L 408.380448 63.531611 
L 410.419735 57.412869 
L 412.459022 74.603526 
L 414.49831 106.350135 
L 416.537597 79.168322 
L 418.576884 110.819652 
L 422.655459 86.982733 
L 424.694746 83.289606 
L 426.734034 73.427747 
L 428.773321 67.417948 
L 430.812608 67.3435 
L 432.851896 59.567801 
L 434.891183 76.679585 
L 436.930471 62.722435 
L 438.969758 62.676891 
L 441.009045 67.703926 
L 443.048333 49.428871 
L 445.08762 66.318575 
L 447.126907 66.541838 
L 449.166195 65.258201 
L 451.205482 54.77124 
L 453.244769 62.127717 
L 455.284057 64.379879 
L 457.323344 62.216392 
L 459.362631 54.310817 
L 461.401919 56.666104 
L 463.441206 59.851822 
L 465.480493 58.401201 
L 467.519781 61.213323 
L 469.559068 46.721461 
L 471.598355 61.313151 
L 473.637643 73.768135 
L 475.67693 82.325472 
L 477.716217 53.361495 
L 479.755505 66.361863 
L 481.794792 66.045668 
L 483.834079 59.893072 
L 485.873367 67.880236 
L 487.912654 60.75425 
L 489.951942 54.688968 
L 491.991229 60.437209 
L 494.030516 47.364466 
L 496.069804 61.191754 
L 498.109091 64.530923 
L 498.109091 64.530923 
" clip-path="url(#p3033ad7e87)" style="fill: none; stroke: #ff0000; stroke-opacity: 0.9; stroke-width: 1.5; stroke-linecap: square"/>
   </g>
   <g id="line2d_18">
    <path d="M 92.290909 109.987595 
L 94.330196 99.495651 
L 96.369484 117.585141 
L 98.408771 99.652702 
L 100.448058 91.114162 
L 102.487346 103.204214 
L 104.526633 97.883842 
L 106.565921 68.250764 
L 108.605208 110.344899 
L 110.644495 49.759854 
L 112.683783 81.408405 
L 114.72307 116.355159 
L 116.762357 118.372846 
L 118.801645 110.341364 
L 120.840932 70.931924 
L 122.880219 110.260707 
L 124.919507 69.564351 
L 126.958794 65.50672 
L 128.998081 85.269064 
L 131.037369 65.390203 
L 133.076656 53.127854 
L 135.115943 55.228794 
L 137.155231 103.500033 
L 139.194518 107.310203 
L 141.233805 121.954873 
L 143.273093 118.342061 
L 145.31238 118.452581 
L 147.351667 111.070957 
L 149.390955 115.447348 
L 151.430242 107.344328 
L 153.469529 105.920958 
L 155.508817 112.201251 
L 157.548104 124.745388 
L 159.587392 107.645992 
L 161.626679 120.531622 
L 163.665966 95.006691 
L 165.705254 94.23846 
L 167.744541 110.648536 
L 169.783828 53.070561 
L 171.823116 57.224414 
L 173.862403 75.821503 
L 175.90169 53.775007 
L 177.940978 46.923828 
L 179.980265 70.253004 
L 182.019552 66.084858 
L 184.05884 71.947458 
L 186.098127 67.527248 
L 188.137414 61.712041 
L 190.176702 69.935665 
L 192.215989 63.532186 
L 194.255276 51.033959 
L 196.294564 70.191281 
L 198.333851 75.661443 
L 200.373138 92.156562 
L 202.412426 72.275473 
L 204.451713 55.288582 
L 206.491 46.234977 
L 208.530288 74.211614 
L 210.569575 60.381157 
L 212.608862 109.44715 
L 214.64815 104.188388 
L 216.687437 93.050011 
L 218.726725 91.78219 
L 220.766012 107.245357 
L 222.805299 117.968762 
L 224.844587 117.129006 
L 226.883874 71.255704 
L 228.923161 60.602447 
L 230.962449 79.61724 
L 233.001736 74.462275 
L 235.041023 47.575319 
L 237.080311 61.364247 
L 239.119598 54.630877 
L 241.158885 75.147696 
L 243.198173 55.103559 
L 245.23746 81.521376 
L 247.276747 53.345695 
L 249.316035 100.561294 
L 251.355322 77.707682 
L 253.394609 108.65206 
L 257.473184 73.128724 
L 259.512471 67.09703 
L 261.551759 59.463212 
L 263.591046 70.075572 
L 265.630333 65.791782 
L 267.669621 62.840643 
L 269.708908 51.768899 
L 271.748196 43.348839 
L 273.787483 63.980301 
L 275.82677 52.760363 
L 277.866058 67.183862 
L 279.905345 56.786335 
L 281.944632 82.118534 
L 283.98392 66.326176 
L 286.023207 64.852681 
L 288.062494 55.830236 
L 290.101782 68.743235 
L 292.141069 76.051354 
L 294.180356 56.925467 
L 296.219644 45.305139 
L 298.258931 79.398656 
L 300.298218 57.938707 
L 302.337506 62.742767 
L 304.376793 60.502473 
L 306.41608 48.322149 
L 308.455368 49.005217 
L 310.494655 58.961393 
L 312.533942 62.955414 
L 314.57323 73.642661 
L 316.612517 44.341921 
L 318.651804 59.17134 
L 320.691092 49.660259 
L 322.730379 45.967588 
L 326.808954 64.773873 
L 328.848241 49.508728 
L 332.926816 51.002954 
L 334.966103 49.415064 
L 337.005391 58.883572 
L 339.044678 44.73357 
L 341.083965 53.279955 
L 343.123253 58.915204 
L 345.16254 51.995342 
L 347.201827 55.520976 
L 349.241115 57.340611 
L 351.280402 45.079523 
L 353.319689 60.847349 
L 355.358977 60.193744 
L 357.398264 66.666737 
L 359.437551 83.453202 
L 361.476839 51.081303 
L 363.516126 58.571748 
L 365.555413 49.360859 
L 367.594701 71.380793 
L 369.633988 55.885154 
L 371.673275 64.409201 
L 373.712563 54.849499 
L 375.75185 69.873481 
L 377.791138 53.14342 
L 379.830425 93.410286 
L 381.869712 68.103721 
L 383.909 73.61932 
L 385.948287 98.914194 
L 387.987574 73.455171 
L 390.026862 80.682509 
L 392.066149 64.189142 
L 394.105436 68.452692 
L 396.144724 99.735331 
L 398.184011 83.733455 
L 400.223298 83.978747 
L 402.262586 61.364523 
L 404.301873 80.557079 
L 406.34116 69.906961 
L 408.380448 70.75202 
L 410.419735 50.426272 
L 412.459022 70.214199 
L 414.49831 103.615552 
L 416.537597 79.234855 
L 418.576884 110.678769 
L 420.616172 104.176351 
L 422.655459 86.20392 
L 424.694746 81.582438 
L 426.734034 63.673334 
L 428.773321 67.907459 
L 430.812608 66.431556 
L 432.851896 65.549341 
L 434.891183 72.374721 
L 436.930471 62.308076 
L 438.969758 62.283482 
L 441.009045 72.444452 
L 443.048333 51.206821 
L 445.08762 62.497615 
L 447.126907 71.033016 
L 449.166195 68.163037 
L 451.205482 58.981264 
L 453.244769 66.222303 
L 455.284057 64.395695 
L 457.323344 55.861385 
L 459.362631 52.995381 
L 461.401919 62.552892 
L 463.441206 62.500142 
L 465.480493 64.500788 
L 467.519781 57.472976 
L 469.559068 58.691208 
L 471.598355 69.473594 
L 473.637643 69.58124 
L 475.67693 71.740569 
L 477.716217 53.20337 
L 479.755505 66.884275 
L 481.794792 60.254914 
L 483.834079 63.696041 
L 485.873367 68.033264 
L 487.912654 68.58529 
L 489.951942 49.953739 
L 491.991229 52.867307 
L 494.030516 47.539206 
L 496.069804 66.306484 
L 498.109091 61.090424 
L 498.109091 61.090424 
" clip-path="url(#p3033ad7e87)" style="fill: none; stroke: #008000; stroke-opacity: 0.9; stroke-width: 1.5; stroke-linecap: square"/>
   </g>
   <g id="line2d_19">
    <path d="M 153.469529 135.36 
L 153.469529 34.56 
" clip-path="url(#p3033ad7e87)" style="fill: none; stroke-dasharray: 5.55,2.4; stroke-dashoffset: 0; stroke: #000000; stroke-width: 1.5"/>
   </g>
   <g id="line2d_20">
    <path d="M 438.969758 135.36 
L 438.969758 34.56 
" clip-path="url(#p3033ad7e87)" style="fill: none; stroke-dasharray: 5.55,2.4; stroke-dashoffset: 0; stroke: #0000ff; stroke-width: 1.5"/>
   </g>
   <g id="patch_3">
    <path d="M 72 135.36 
L 72 34.56 
" style="fill: none; stroke: #000000; stroke-width: 0.8; stroke-linejoin: miter; stroke-linecap: square"/>
   </g>
   <g id="patch_4">
    <path d="M 518.4 135.36 
L 518.4 34.56 
" style="fill: none; stroke: #000000; stroke-width: 0.8; stroke-linejoin: miter; stroke-linecap: square"/>
   </g>
   <g id="patch_5">
    <path d="M 72 135.36 
L 518.4 135.36 
" style="fill: none; stroke: #000000; stroke-width: 0.8; stroke-linejoin: miter; stroke-linecap: square"/>
   </g>
   <g id="patch_6">
    <path d="M 72 34.56 
L 518.4 34.56 
" style="fill: none; stroke: #000000; stroke-width: 0.8; stroke-linejoin: miter; stroke-linecap: square"/>
   </g>
  </g>
  <g id="axes_2">
   <g id="patch_7">
    <path d="M 72 256.32 
L 518.4 256.32 
L 518.4 155.52 
L 72 155.52 
z
" style="fill: #ffffff"/>
   </g>
   <g id="matplotlib.axis_3">
    <g id="xtick_10">
     <g id="line2d_21">
      <g>
       <use xlink:href="#m227b92ca9b" x="92.290909" y="256.32" style="stroke: #000000; stroke-width: 0.8"/>
      </g>
     </g>
     <g id="text_4">
      <!-- 0 -->
      <g transform="translate(89.109659 270.918437) scale(0.1 -0.1)">
       <use xlink:href="#DejaVuSans-30"/>
      </g>
     </g>
    </g>
    <g id="xtick_11">
     <g id="line2d_22">
      <g>
       <use xlink:href="#m227b92ca9b" x="143.273093" y="256.32" style="stroke: #000000; stroke-width: 0.8"/>
      </g>
     </g>
     <g id="text_5">
      <!-- 25 -->
      <g transform="translate(136.910593 270.918437) scale(0.1 -0.1)">
       <defs>
        <path id="DejaVuSans-32" d="M 1228 531 
L 3431 531 
L 3431 0 
L 469 0 
L 469 531 
Q 828 903 1448 1529 
Q 2069 2156 2228 2338 
Q 2531 2678 2651 2914 
Q 2772 3150 2772 3378 
Q 2772 3750 2511 3984 
Q 2250 4219 1831 4219 
Q 1534 4219 1204 4116 
Q 875 4013 500 3803 
L 500 4441 
Q 881 4594 1212 4672 
Q 1544 4750 1819 4750 
Q 2544 4750 2975 4387 
Q 3406 4025 3406 3419 
Q 3406 3131 3298 2873 
Q 3191 2616 2906 2266 
Q 2828 2175 2409 1742 
Q 1991 1309 1228 531 
z
" transform="scale(0.015625)"/>
       </defs>
       <use xlink:href="#DejaVuSans-32"/>
       <use xlink:href="#DejaVuSans-35" transform="translate(63.623047 0)"/>
      </g>
     </g>
    </g>
    <g id="xtick_12">
     <g id="line2d_23">
      <g>
       <use xlink:href="#m227b92ca9b" x="194.255276" y="256.32" style="stroke: #000000; stroke-width: 0.8"/>
      </g>
     </g>
     <g id="text_6">
      <!-- 50 -->
      <g transform="translate(187.892776 270.918437) scale(0.1 -0.1)">
       <use xlink:href="#DejaVuSans-35"/>
       <use xlink:href="#DejaVuSans-30" transform="translate(63.623047 0)"/>
      </g>
     </g>
    </g>
    <g id="xtick_13">
     <g id="line2d_24">
      <g>
       <use xlink:href="#m227b92ca9b" x="245.23746" y="256.32" style="stroke: #000000; stroke-width: 0.8"/>
      </g>
     </g>
     <g id="text_7">
      <!-- 75 -->
      <g transform="translate(238.87496 270.918437) scale(0.1 -0.1)">
       <defs>
        <path id="DejaVuSans-37" d="M 525 4666 
L 3525 4666 
L 3525 4397 
L 1831 0 
L 1172 0 
L 2766 4134 
L 525 4134 
L 525 4666 
z
" transform="scale(0.015625)"/>
       </defs>
       <use xlink:href="#DejaVuSans-37"/>
       <use xlink:href="#DejaVuSans-35" transform="translate(63.623047 0)"/>
      </g>
     </g>
    </g>
    <g id="xtick_14">
     <g id="line2d_25">
      <g>
       <use xlink:href="#m227b92ca9b" x="296.219644" y="256.32" style="stroke: #000000; stroke-width: 0.8"/>
      </g>
     </g>
     <g id="text_8">
      <!-- 100 -->
      <g transform="translate(286.675894 270.918437) scale(0.1 -0.1)">
       <use xlink:href="#DejaVuSans-31"/>
       <use xlink:href="#DejaVuSans-30" transform="translate(63.623047 0)"/>
       <use xlink:href="#DejaVuSans-30" transform="translate(127.246094 0)"/>
      </g>
     </g>
    </g>
    <g id="xtick_15">
     <g id="line2d_26">
      <g>
       <use xlink:href="#m227b92ca9b" x="347.201827" y="256.32" style="stroke: #000000; stroke-width: 0.8"/>
      </g>
     </g>
     <g id="text_9">
      <!-- 125 -->
      <g transform="translate(337.658077 270.918437) scale(0.1 -0.1)">
       <use xlink:href="#DejaVuSans-31"/>
       <use xlink:href="#DejaVuSans-32" transform="translate(63.623047 0)"/>
       <use xlink:href="#DejaVuSans-35" transform="translate(127.246094 0)"/>
      </g>
     </g>
    </g>
    <g id="xtick_16">
     <g id="line2d_27">
      <g>
       <use xlink:href="#m227b92ca9b" x="398.184011" y="256.32" style="stroke: #000000; stroke-width: 0.8"/>
      </g>
     </g>
     <g id="text_10">
      <!-- 150 -->
      <g transform="translate(388.640261 270.918437) scale(0.1 -0.1)">
       <use xlink:href="#DejaVuSans-31"/>
       <use xlink:href="#DejaVuSans-35" transform="translate(63.623047 0)"/>
       <use xlink:href="#DejaVuSans-30" transform="translate(127.246094 0)"/>
      </g>
     </g>
    </g>
    <g id="xtick_17">
     <g id="line2d_28">
      <g>
       <use xlink:href="#m227b92ca9b" x="449.166195" y="256.32" style="stroke: #000000; stroke-width: 0.8"/>
      </g>
     </g>
     <g id="text_11">
      <!-- 175 -->
      <g transform="translate(439.622445 270.918437) scale(0.1 -0.1)">
       <use xlink:href="#DejaVuSans-31"/>
       <use xlink:href="#DejaVuSans-37" transform="translate(63.623047 0)"/>
       <use xlink:href="#DejaVuSans-35" transform="translate(127.246094 0)"/>
      </g>
     </g>
    </g>
    <g id="xtick_18">
     <g id="line2d_29">
      <g>
       <use xlink:href="#m227b92ca9b" x="500.148378" y="256.32" style="stroke: #000000; stroke-width: 0.8"/>
      </g>
     </g>
     <g id="text_12">
      <!-- 200 -->
      <g transform="translate(490.604628 270.918437) scale(0.1 -0.1)">
       <use xlink:href="#DejaVuSans-32"/>
       <use xlink:href="#DejaVuSans-30" transform="translate(63.623047 0)"/>
       <use xlink:href="#DejaVuSans-30" transform="translate(127.246094 0)"/>
      </g>
     </g>
    </g>
   </g>
   <g id="matplotlib.axis_4">
    <g id="ytick_4">
     <g id="line2d_30">
      <g>
       <use xlink:href="#m759f35b6b7" x="72" y="252.044251" style="stroke: #000000; stroke-width: 0.8"/>
      </g>
     </g>
     <g id="text_13">
      <!-- −200 -->
      <g transform="translate(37.532812 255.84347) scale(0.1 -0.1)">
       <use xlink:href="#DejaVuSans-2212"/>
       <use xlink:href="#DejaVuSans-32" transform="translate(83.789062 0)"/>
       <use xlink:href="#DejaVuSans-30" transform="translate(147.412109 0)"/>
       <use xlink:href="#DejaVuSans-30" transform="translate(211.035156 0)"/>
      </g>
     </g>
    </g>
    <g id="ytick_5">
     <g id="line2d_31">
      <g>
       <use xlink:href="#m759f35b6b7" x="72" y="228.714904" style="stroke: #000000; stroke-width: 0.8"/>
      </g>
     </g>
     <g id="text_14">
      <!-- −100 -->
      <g transform="translate(37.532812 232.514123) scale(0.1 -0.1)">
       <use xlink:href="#DejaVuSans-2212"/>
       <use xlink:href="#DejaVuSans-31" transform="translate(83.789062 0)"/>
       <use xlink:href="#DejaVuSans-30" transform="translate(147.412109 0)"/>
       <use xlink:href="#DejaVuSans-30" transform="translate(211.035156 0)"/>
      </g>
     </g>
    </g>
    <g id="ytick_6">
     <g id="line2d_32">
      <g>
       <use xlink:href="#m759f35b6b7" x="72" y="205.385557" style="stroke: #000000; stroke-width: 0.8"/>
      </g>
     </g>
     <g id="text_15">
      <!-- 0 -->
      <g transform="translate(58.6375 209.184775) scale(0.1 -0.1)">
       <use xlink:href="#DejaVuSans-30"/>
      </g>
     </g>
    </g>
    <g id="ytick_7">
     <g id="line2d_33">
      <g>
       <use xlink:href="#m759f35b6b7" x="72" y="182.056209" style="stroke: #000000; stroke-width: 0.8"/>
      </g>
     </g>
     <g id="text_16">
      <!-- 100 -->
      <g transform="translate(45.9125 185.855428) scale(0.1 -0.1)">
       <use xlink:href="#DejaVuSans-31"/>
       <use xlink:href="#DejaVuSans-30" transform="translate(63.623047 0)"/>
       <use xlink:href="#DejaVuSans-30" transform="translate(127.246094 0)"/>
      </g>
     </g>
    </g>
    <g id="ytick_8">
     <g id="line2d_34">
      <g>
       <use xlink:href="#m759f35b6b7" x="72" y="158.726862" style="stroke: #000000; stroke-width: 0.8"/>
      </g>
     </g>
     <g id="text_17">
      <!-- 200 -->
      <g transform="translate(45.9125 162.526081) scale(0.1 -0.1)">
       <use xlink:href="#DejaVuSans-32"/>
       <use xlink:href="#DejaVuSans-30" transform="translate(63.623047 0)"/>
       <use xlink:href="#DejaVuSans-30" transform="translate(127.246094 0)"/>
      </g>
     </g>
    </g>
   </g>
   <g id="line2d_35">
    <path d="M 92.290909 180.455193 
L 94.330196 168.54215 
L 96.369484 165.165176 
L 98.408771 165.082678 
L 100.448058 174.338391 
L 102.487346 167.293203 
L 104.526633 172.434092 
L 106.565921 167.699402 
L 108.605208 166.493446 
L 110.644495 175.084993 
L 112.683783 248.336122 
L 114.72307 161.882233 
L 116.762357 166.236633 
L 118.801645 174.790376 
L 120.840932 165.922661 
L 122.880219 170.386954 
L 124.919507 165.696284 
L 126.958794 185.628031 
L 128.998081 167.871955 
L 131.037369 169.379046 
L 133.076656 176.840671 
L 135.115943 167.752734 
L 137.155231 168.328393 
L 139.194518 165.819313 
L 141.233805 173.39699 
L 143.273093 167.657717 
L 145.31238 163.671387 
L 147.351667 162.160529 
L 149.390955 166.795696 
L 151.430242 164.800979 
L 153.469529 166.608359 
L 155.508817 169.330434 
L 157.548104 168.08977 
L 159.587392 169.167571 
L 161.626679 171.032516 
L 163.665966 168.174158 
L 165.705254 248.256532 
L 167.744541 164.074517 
L 169.783828 169.879323 
L 171.823116 171.143688 
L 173.862403 169.902429 
L 175.90169 174.205312 
L 177.940978 173.545166 
L 179.980265 184.575553 
L 182.019552 172.690962 
L 184.05884 173.6287 
L 186.098127 188.017835 
L 188.137414 175.988461 
L 190.176702 176.259265 
L 192.215989 198.243269 
L 194.255276 194.484614 
L 196.294564 190.279772 
L 198.333851 190.222266 
L 200.373138 174.993924 
L 202.412426 167.776877 
L 204.451713 171.891355 
L 206.491 167.010411 
L 208.530288 176.446152 
L 210.569575 169.365377 
L 212.608862 165.498093 
L 214.64815 174.565604 
L 216.687437 163.535201 
L 218.726725 171.016828 
L 220.766012 167.38361 
L 222.805299 169.677929 
L 224.844587 166.276043 
L 226.883874 182.142375 
L 228.923161 187.761932 
L 230.962449 166.856803 
L 233.001736 175.447532 
L 235.041023 168.350542 
L 237.080311 172.29137 
L 239.119598 171.96873 
L 241.158885 169.877636 
L 243.198173 172.006221 
L 245.23746 163.183345 
L 247.276747 168.02846 
L 249.316035 167.43941 
L 251.355322 173.788751 
L 253.394609 165.335394 
L 255.433897 164.486807 
L 257.473184 172.70136 
L 259.512471 166.162739 
L 261.551759 164.978102 
L 263.591046 168.406647 
L 265.630333 172.630072 
L 267.669621 164.551542 
L 269.708908 168.753095 
L 271.748196 169.87645 
L 273.787483 170.477668 
L 275.82677 167.744333 
L 277.866058 250.565225 
L 279.905345 170.550109 
L 281.944632 166.236889 
L 283.98392 164.789708 
L 286.023207 170.43777 
L 288.062494 172.885892 
L 290.101782 169.100896 
L 292.141069 172.416432 
L 294.180356 168.858425 
L 296.219644 172.199197 
L 298.258931 173.942295 
L 300.298218 170.292912 
L 302.337506 169.220786 
L 304.376793 173.972179 
L 306.41608 167.091395 
L 308.455368 170.028467 
L 310.494655 170.877352 
L 312.533942 165.092937 
L 314.57323 247.941585 
L 316.612517 162.224915 
L 318.651804 167.106322 
L 320.691092 163.780932 
L 322.730379 166.42571 
L 324.769667 168.730825 
L 326.808954 167.940199 
L 328.848241 171.938603 
L 330.887529 170.996811 
L 332.926816 164.437177 
L 334.966103 167.425114 
L 337.005391 165.99403 
L 339.044678 166.079522 
L 341.083965 167.065797 
L 343.123253 166.385389 
L 345.16254 171.236267 
L 347.201827 167.96034 
L 349.241115 249.513834 
L 351.280402 165.299319 
L 353.319689 167.098615 
L 355.358977 172.70702 
L 357.398264 169.781646 
L 359.437551 171.482788 
L 361.476839 167.262592 
L 363.516126 167.737331 
L 365.555413 171.81126 
L 367.594701 168.734058 
L 369.633988 173.199925 
L 371.673275 170.33323 
L 373.712563 173.57546 
L 375.75185 179.024717 
L 377.791138 178.902426 
L 379.830425 169.646186 
L 381.869712 181.650688 
L 383.909 174.582894 
L 385.948287 172.203077 
L 387.987574 172.183466 
L 390.026862 175.090746 
L 392.066149 172.802234 
L 394.105436 174.936633 
L 396.144724 248.593433 
L 398.184011 166.743748 
L 400.223298 170.842847 
L 402.262586 173.937094 
L 404.301873 173.046103 
L 406.34116 168.454857 
L 408.380448 173.998279 
L 410.419735 167.966606 
L 412.459022 173.500359 
L 414.49831 169.054334 
L 416.537597 171.533704 
L 418.576884 163.615146 
L 420.616172 168.345302 
L 422.655459 172.462894 
L 424.694746 172.955731 
L 426.734034 170.12792 
L 428.773321 176.340601 
L 430.812608 178.781468 
L 432.851896 173.345438 
L 434.891183 178.27187 
L 436.930471 179.183726 
L 438.969758 174.859346 
L 441.009045 181.299015 
L 443.048333 174.326768 
L 445.08762 176.639825 
L 447.126907 178.649085 
L 449.166195 170.10461 
L 451.205482 171.262634 
L 453.244769 173.751216 
L 455.284057 181.515024 
L 457.323344 181.127147 
L 459.362631 174.999911 
L 461.401919 172.763265 
L 463.441206 178.84401 
L 465.480493 175.195168 
L 467.519781 179.36307 
L 469.559068 178.454464 
L 471.598355 174.979998 
L 473.637643 179.461045 
L 475.67693 183.639583 
L 477.716217 180.590518 
L 479.755505 174.245121 
L 481.794792 179.4554 
L 483.834079 173.196568 
L 487.912654 180.415147 
L 489.951942 175.100218 
L 491.991229 173.487547 
L 494.030516 170.47283 
L 496.069804 175.617947 
L 498.109091 179.934106 
L 498.109091 179.934106 
" clip-path="url(#pf557f89931)" style="fill: none; stroke: #ff0000; stroke-opacity: 0.9; stroke-width: 1.5; stroke-linecap: square"/>
   </g>
   <g id="line2d_36">
    <path d="M 92.290909 177.967604 
L 94.330196 173.165502 
L 96.369484 167.529664 
L 98.408771 165.512902 
L 100.448058 172.486036 
L 102.487346 167.979702 
L 104.526633 172.611067 
L 106.565921 165.996408 
L 108.605208 164.795393 
L 110.644495 176.769337 
L 112.683783 250.071587 
L 114.72307 163.25951 
L 116.762357 167.600176 
L 118.801645 172.577462 
L 120.840932 162.118346 
L 122.880219 170.460168 
L 124.919507 168.795948 
L 126.958794 182.669525 
L 128.998081 164.817396 
L 131.037369 169.076113 
L 133.076656 174.958372 
L 135.115943 171.27079 
L 137.155231 168.026538 
L 139.194518 166.826438 
L 141.233805 169.168763 
L 143.273093 169.069392 
L 145.31238 161.955397 
L 147.351667 166.36424 
L 149.390955 165.594357 
L 151.430242 164.439651 
L 153.469529 169.566351 
L 155.508817 169.711967 
L 157.548104 168.424329 
L 159.587392 169.909442 
L 161.626679 169.772544 
L 163.665966 170.296579 
L 165.705254 248.550947 
L 167.744541 164.079028 
L 169.783828 170.225999 
L 171.823116 171.796775 
L 173.862403 170.550654 
L 175.90169 178.174528 
L 177.940978 171.99907 
L 179.980265 185.483554 
L 182.019552 171.157215 
L 184.05884 178.308324 
L 186.098127 190.274149 
L 188.137414 175.875956 
L 190.176702 175.137831 
L 192.215989 195.784529 
L 194.255276 195.314517 
L 196.294564 192.753648 
L 198.333851 191.175608 
L 200.373138 173.904276 
L 202.412426 166.415682 
L 204.451713 168.710997 
L 206.491 170.812885 
L 208.530288 175.72935 
L 210.569575 165.77258 
L 212.608862 165.547766 
L 214.64815 171.560025 
L 216.687437 164.619523 
L 218.726725 169.705535 
L 222.805299 171.740036 
L 224.844587 164.823331 
L 226.883874 178.839183 
L 228.923161 188.285336 
L 230.962449 167.669752 
L 233.001736 170.955838 
L 235.041023 169.233758 
L 237.080311 167.999274 
L 239.119598 173.795938 
L 241.158885 168.031735 
L 243.198173 173.782535 
L 245.23746 166.255841 
L 247.276747 166.077237 
L 249.316035 167.985978 
L 251.355322 172.131565 
L 253.394609 168.35051 
L 255.433897 166.004802 
L 257.473184 171.738946 
L 259.512471 167.589116 
L 261.551759 164.222825 
L 263.591046 169.450438 
L 265.630333 171.017145 
L 267.669621 165.420198 
L 269.708908 166.436254 
L 271.748196 166.201576 
L 273.787483 171.723159 
L 275.82677 165.522652 
L 277.866058 248.67561 
L 279.905345 168.792452 
L 281.944632 167.672102 
L 283.98392 165.181067 
L 286.023207 170.740849 
L 288.062494 174.600262 
L 290.101782 171.741235 
L 292.141069 174.141133 
L 294.180356 169.056438 
L 296.219644 171.097539 
L 298.258931 176.663772 
L 300.298218 172.470384 
L 302.337506 167.292704 
L 304.376793 171.77154 
L 306.41608 165.300333 
L 308.455368 168.039011 
L 310.494655 172.784716 
L 312.533942 169.758255 
L 314.57323 251.073127 
L 316.612517 162.260011 
L 318.651804 165.851465 
L 320.691092 166.038909 
L 322.730379 165.081119 
L 324.769667 167.011062 
L 326.808954 170.254506 
L 328.848241 169.298695 
L 330.887529 167.920325 
L 332.926816 167.074625 
L 334.966103 167.145913 
L 337.005391 162.804781 
L 339.044678 166.825292 
L 343.123253 165.558015 
L 345.16254 166.976187 
L 347.201827 165.032895 
L 349.241115 251.738182 
L 351.280402 167.119845 
L 353.319689 167.796448 
L 355.358977 170.713492 
L 357.398264 166.818425 
L 359.437551 174.176371 
L 361.476839 169.875464 
L 363.516126 169.27483 
L 365.555413 175.747338 
L 367.594701 167.233096 
L 369.633988 174.852088 
L 371.673275 168.558123 
L 373.712563 175.042863 
L 375.75185 175.514961 
L 377.791138 172.156672 
L 379.830425 168.116622 
L 381.869712 181.759838 
L 383.909 172.752105 
L 385.948287 172.583247 
L 387.987574 170.590776 
L 390.026862 174.108547 
L 392.066149 174.701851 
L 394.105436 174.533356 
L 396.144724 247.946358 
L 398.184011 168.118184 
L 400.223298 175.6465 
L 402.262586 172.466888 
L 404.301873 172.807641 
L 406.34116 168.657409 
L 408.380448 175.1615 
L 410.419735 170.064132 
L 412.459022 174.878291 
L 414.49831 170.133128 
L 416.537597 169.631662 
L 418.576884 163.602897 
L 420.616172 172.427058 
L 422.655459 170.072156 
L 424.694746 172.837486 
L 426.734034 170.45826 
L 428.773321 175.161749 
L 430.812608 175.739465 
L 432.851896 174.270488 
L 434.891183 176.524997 
L 436.930471 180.832926 
L 438.969758 174.88273 
L 441.009045 179.770417 
L 443.048333 175.188252 
L 445.08762 177.182961 
L 447.126907 177.455489 
L 449.166195 168.179605 
L 451.205482 172.958718 
L 453.244769 174.975826 
L 455.284057 179.876934 
L 457.323344 180.981369 
L 459.362631 178.968675 
L 461.401919 174.784538 
L 463.441206 180.017976 
L 465.480493 176.017112 
L 467.519781 176.080355 
L 469.559068 174.664032 
L 471.598355 171.817251 
L 473.637643 178.816947 
L 475.67693 180.648549 
L 477.716217 183.260109 
L 479.755505 177.786639 
L 481.794792 181.076648 
L 483.834079 172.198065 
L 485.873367 175.941335 
L 487.912654 179.35019 
L 489.951942 174.372113 
L 491.991229 171.997386 
L 494.030516 171.448675 
L 496.069804 173.776893 
L 498.109091 176.893852 
L 498.109091 176.893852 
" clip-path="url(#pf557f89931)" style="fill: none; stroke: #ff0000; stroke-opacity: 0.9; stroke-width: 1.5; stroke-linecap: square"/>
   </g>
   <g id="line2d_37">
    <path d="M 92.290909 177.868263 
L 94.330196 171.523188 
L 96.369484 164.074133 
L 98.408771 165.751218 
L 100.448058 170.699075 
L 102.487346 169.233946 
L 104.526633 171.528094 
L 106.565921 164.592063 
L 108.605208 168.899011 
L 110.644495 178.57946 
L 112.683783 247.591146 
L 114.72307 166.918988 
L 116.762357 167.3704 
L 118.801645 172.602188 
L 120.840932 162.961696 
L 122.880219 172.442985 
L 124.919507 171.348873 
L 126.958794 183.526836 
L 128.998081 165.925063 
L 131.037369 168.798867 
L 133.076656 176.569493 
L 135.115943 169.733287 
L 137.155231 165.358315 
L 139.194518 168.077909 
L 141.233805 170.31064 
L 143.273093 167.519701 
L 145.31238 164.18931 
L 147.351667 163.095586 
L 149.390955 165.817676 
L 151.430242 164.178328 
L 153.469529 167.120995 
L 155.508817 169.805408 
L 157.548104 166.535522 
L 159.587392 167.661917 
L 163.665966 172.608902 
L 165.705254 248.706919 
L 167.744541 161.800636 
L 169.783828 171.103847 
L 171.823116 167.760943 
L 173.862403 170.327623 
L 175.90169 174.727994 
L 177.940978 173.62085 
L 179.980265 185.458075 
L 182.019552 174.051256 
L 184.05884 175.642958 
L 186.098127 192.002455 
L 188.137414 177.5373 
L 190.176702 177.298232 
L 192.215989 197.407656 
L 194.255276 194.931057 
L 196.294564 194.559473 
L 198.333851 189.741607 
L 200.373138 172.977122 
L 202.412426 167.996999 
L 204.451713 170.695601 
L 206.491 170.633298 
L 208.530288 176.940875 
L 210.569575 168.962627 
L 212.608862 163.32124 
L 214.64815 172.020101 
L 216.687437 165.119714 
L 218.726725 168.958163 
L 220.766012 169.63959 
L 222.805299 174.482341 
L 224.844587 164.287381 
L 226.883874 178.218981 
L 228.923161 188.433452 
L 230.962449 169.496416 
L 233.001736 173.576823 
L 235.041023 169.718553 
L 237.080311 168.813473 
L 239.119598 171.148298 
L 241.158885 166.707662 
L 243.198173 171.895274 
L 245.23746 164.533789 
L 247.276747 167.688573 
L 249.316035 167.101794 
L 251.355322 173.241837 
L 253.394609 168.517192 
L 255.433897 165.753785 
L 257.473184 171.436771 
L 259.512471 166.916091 
L 261.551759 165.897721 
L 263.591046 165.341573 
L 265.630333 173.271583 
L 267.669621 165.604246 
L 269.708908 168.092625 
L 271.748196 168.005585 
L 273.787483 169.584296 
L 275.82677 165.074327 
L 277.866058 249.105525 
L 279.905345 171.894929 
L 281.944632 167.034937 
L 283.98392 164.875136 
L 286.023207 171.711387 
L 288.062494 172.982757 
L 290.101782 174.597959 
L 292.141069 174.540344 
L 294.180356 170.749208 
L 296.219644 171.584879 
L 298.258931 176.754619 
L 300.298218 173.947221 
L 302.337506 167.478421 
L 304.376793 171.680306 
L 306.41608 167.339668 
L 308.455368 169.568971 
L 310.494655 169.689145 
L 312.533942 166.807802 
L 314.57323 247.675378 
L 316.612517 166.46805 
L 318.651804 163.025921 
L 320.691092 164.511978 
L 322.730379 168.203106 
L 324.769667 170.157822 
L 326.808954 168.161428 
L 328.848241 169.240336 
L 330.887529 171.735557 
L 332.926816 165.209726 
L 334.966103 170.139026 
L 337.005391 161.947551 
L 339.044678 167.168194 
L 341.083965 167.27036 
L 343.123253 165.049871 
L 345.16254 168.872971 
L 347.201827 166.037168 
L 349.241115 249.767237 
L 351.280402 165.589864 
L 353.319689 165.377338 
L 355.358977 172.603901 
L 359.437551 174.299764 
L 361.476839 170.598583 
L 363.516126 169.645321 
L 365.555413 172.642798 
L 367.594701 172.223453 
L 369.633988 172.717942 
L 371.673275 170.966268 
L 373.712563 174.540974 
L 375.75185 179.711162 
L 377.791138 177.261508 
L 379.830425 168.141554 
L 381.869712 181.226894 
L 383.909 175.081508 
L 385.948287 174.837005 
L 387.987574 173.189402 
L 390.026862 175.768148 
L 392.066149 173.719908 
L 394.105436 173.731065 
L 396.144724 243.961043 
L 398.184011 169.146903 
L 400.223298 174.030865 
L 402.262586 173.395581 
L 404.301873 173.454228 
L 406.34116 172.467842 
L 408.380448 177.375828 
L 410.419735 168.774863 
L 412.459022 173.394299 
L 414.49831 167.036066 
L 416.537597 169.63813 
L 418.576884 163.632108 
L 420.616172 171.2468 
L 422.655459 171.994973 
L 424.694746 173.412952 
L 426.734034 171.098835 
L 428.773321 176.777738 
L 430.812608 175.972896 
L 432.851896 175.487252 
L 434.891183 176.395302 
L 436.930471 180.907411 
L 438.969758 172.259873 
L 441.009045 177.871193 
L 443.048333 176.280583 
L 445.08762 177.159333 
L 447.126907 175.067255 
L 449.166195 167.084386 
L 451.205482 172.385192 
L 453.244769 176.850615 
L 455.284057 180.788203 
L 457.323344 180.905291 
L 459.362631 175.644389 
L 461.401919 174.943877 
L 463.441206 178.064604 
L 465.480493 176.451814 
L 467.519781 179.342428 
L 469.559068 178.164612 
L 471.598355 174.348113 
L 475.67693 179.564021 
L 477.716217 183.085312 
L 479.755505 176.829244 
L 481.794792 176.655139 
L 483.834079 173.685435 
L 485.873367 174.304338 
L 487.912654 180.629223 
L 489.951942 174.497317 
L 491.991229 172.833556 
L 494.030516 171.952803 
L 496.069804 175.776483 
L 498.109091 177.012309 
L 498.109091 177.012309 
" clip-path="url(#pf557f89931)" style="fill: none; stroke: #ff0000; stroke-opacity: 0.9; stroke-width: 1.5; stroke-linecap: square"/>
   </g>
   <g id="line2d_38">
    <path d="M 92.290909 176.326543 
L 94.330196 176.350533 
L 96.369484 164.421973 
L 98.408771 167.59593 
L 100.448058 171.265959 
L 102.487346 167.952128 
L 104.526633 169.253831 
L 106.565921 165.775638 
L 108.605208 168.865488 
L 110.644495 179.537128 
L 112.683783 248.874161 
L 114.72307 165.975502 
L 116.762357 165.508018 
L 118.801645 172.79253 
L 120.840932 162.908474 
L 122.880219 169.596121 
L 124.919507 165.272564 
L 126.958794 181.042129 
L 128.998081 165.779953 
L 131.037369 170.672736 
L 133.076656 174.18772 
L 135.115943 169.570776 
L 137.155231 169.497608 
L 139.194518 166.934456 
L 141.233805 170.746086 
L 143.273093 170.463454 
L 145.31238 163.289939 
L 147.351667 163.493786 
L 149.390955 166.80446 
L 151.430242 165.37165 
L 153.469529 166.430057 
L 155.508817 167.773303 
L 157.548104 165.969909 
L 159.587392 167.406033 
L 161.626679 171.199217 
L 163.665966 171.549214 
L 165.705254 249.727101 
L 167.744541 164.278827 
L 169.783828 172.850191 
L 171.823116 169.465976 
L 173.862403 171.010584 
L 175.90169 174.243288 
L 177.940978 172.750987 
L 179.980265 188.001112 
L 182.019552 173.129957 
L 184.05884 177.031308 
L 186.098127 187.235507 
L 188.137414 174.483366 
L 190.176702 175.971151 
L 192.215989 199.235157 
L 194.255276 193.850284 
L 196.294564 189.723046 
L 198.333851 189.358075 
L 200.373138 175.051432 
L 202.412426 166.454922 
L 204.451713 169.734383 
L 206.491 169.32345 
L 208.530288 176.813154 
L 210.569575 170.332639 
L 212.608862 165.322173 
L 214.64815 169.741695 
L 216.687437 165.356346 
L 218.726725 170.974022 
L 220.766012 167.86156 
L 222.805299 171.355801 
L 224.844587 163.132789 
L 226.883874 180.325213 
L 228.923161 187.154011 
L 230.962449 169.563866 
L 233.001736 173.34437 
L 235.041023 171.212021 
L 237.080311 169.919356 
L 239.119598 171.326639 
L 241.158885 164.844394 
L 243.198173 176.322743 
L 245.23746 164.487676 
L 247.276747 171.053366 
L 249.316035 168.637346 
L 251.355322 174.107255 
L 253.394609 170.023636 
L 255.433897 168.030037 
L 257.473184 172.997046 
L 259.512471 166.509781 
L 261.551759 164.745386 
L 263.591046 167.144219 
L 265.630333 171.86907 
L 267.669621 168.696085 
L 269.708908 168.070487 
L 271.748196 167.138527 
L 273.787483 167.42683 
L 275.82677 164.027058 
L 277.866058 247.758078 
L 279.905345 167.023948 
L 281.944632 168.713429 
L 283.98392 168.318546 
L 286.023207 171.902116 
L 288.062494 175.230054 
L 290.101782 171.297189 
L 292.141069 171.34389 
L 294.180356 168.222528 
L 296.219644 170.180797 
L 298.258931 177.960101 
L 300.298218 169.315216 
L 302.337506 167.483373 
L 304.376793 172.756615 
L 306.41608 166.824786 
L 308.455368 168.109392 
L 310.494655 169.221665 
L 312.533942 167.556427 
L 314.57323 249.39984 
L 316.612517 160.101818 
L 318.651804 163.68207 
L 320.691092 163.808659 
L 322.730379 169.437487 
L 324.769667 167.290647 
L 326.808954 169.788759 
L 328.848241 168.605073 
L 330.887529 168.444406 
L 332.926816 165.733611 
L 334.966103 167.311514 
L 337.005391 162.834502 
L 339.044678 166.312182 
L 341.083965 165.787862 
L 343.123253 165.565444 
L 345.16254 167.2056 
L 347.201827 165.445188 
L 349.241115 251.544847 
L 351.280402 165.058578 
L 353.319689 167.51885 
L 355.358977 171.749708 
L 357.398264 172.110644 
L 359.437551 174.146398 
L 361.476839 166.671385 
L 363.516126 170.838779 
L 365.555413 171.214438 
L 367.594701 170.207787 
L 369.633988 172.551465 
L 371.673275 167.450787 
L 373.712563 174.251949 
L 375.75185 177.583256 
L 377.791138 176.938784 
L 379.830425 168.196699 
L 381.869712 182.455671 
L 383.909 175.087012 
L 385.948287 171.847473 
L 387.987574 172.780793 
L 390.026862 173.363735 
L 392.066149 174.205547 
L 394.105436 173.643932 
L 396.144724 249.762684 
L 398.184011 168.171253 
L 400.223298 173.861637 
L 402.262586 171.067234 
L 404.301873 171.737127 
L 406.34116 170.409288 
L 408.380448 176.560164 
L 410.419735 168.324975 
L 412.459022 174.956841 
L 414.49831 169.309698 
L 416.537597 167.821253 
L 418.576884 163.219217 
L 420.616172 168.881183 
L 422.655459 168.803726 
L 424.694746 174.406073 
L 426.734034 168.289805 
L 428.773321 175.4681 
L 430.812608 178.092961 
L 432.851896 175.073538 
L 434.891183 175.222497 
L 436.930471 180.158518 
L 438.969758 172.827003 
L 441.009045 181.370536 
L 443.048333 172.883129 
L 445.08762 175.744593 
L 447.126907 176.430215 
L 449.166195 166.424158 
L 451.205482 174.070048 
L 453.244769 172.01374 
L 455.284057 182.720926 
L 457.323344 180.805174 
L 459.362631 178.297598 
L 461.401919 178.115641 
L 463.441206 179.12622 
L 465.480493 177.654397 
L 467.519781 176.484128 
L 469.559068 176.754007 
L 471.598355 173.259761 
L 473.637643 180.388965 
L 475.67693 180.122861 
L 477.716217 181.452802 
L 479.755505 175.229431 
L 481.794792 178.492845 
L 483.834079 171.898008 
L 485.873367 177.379725 
L 487.912654 180.473245 
L 489.951942 174.431543 
L 491.991229 171.405442 
L 494.030516 167.486733 
L 496.069804 176.129387 
L 498.109091 177.662931 
L 498.109091 177.662931 
" clip-path="url(#pf557f89931)" style="fill: none; stroke: #ff0000; stroke-opacity: 0.9; stroke-width: 1.5; stroke-linecap: square"/>
   </g>
   <g id="line2d_39">
    <path d="M 92.290909 177.568065 
L 94.330196 170.40376 
L 96.369484 166.050446 
L 98.408771 166.230496 
L 100.448058 173.389408 
L 102.487346 170.084672 
L 104.526633 172.001213 
L 106.565921 163.494366 
L 108.605208 169.122714 
L 110.644495 179.566538 
L 112.683783 248.100529 
L 114.72307 162.64458 
L 116.762357 164.946776 
L 118.801645 172.87213 
L 120.840932 165.151332 
L 122.880219 169.887265 
L 124.919507 170.522293 
L 126.958794 185.475938 
L 128.998081 164.953212 
L 131.037369 168.943234 
L 133.076656 176.062194 
L 135.115943 169.676298 
L 137.155231 169.344716 
L 139.194518 169.669713 
L 141.233805 172.28157 
L 143.273093 168.552238 
L 145.31238 164.445838 
L 147.351667 162.850211 
L 149.390955 167.632204 
L 151.430242 164.990736 
L 153.469529 168.306365 
L 155.508817 172.912334 
L 157.548104 166.39542 
L 159.587392 167.564394 
L 161.626679 169.650935 
L 163.665966 171.32608 
L 165.705254 251.516233 
L 167.744541 167.682041 
L 169.783828 171.794653 
L 171.823116 170.227946 
L 173.862403 169.5197 
L 175.90169 173.162629 
L 177.940978 171.783326 
L 179.980265 186.834712 
L 182.019552 174.318267 
L 184.05884 176.425347 
L 186.098127 191.142163 
L 188.137414 172.732099 
L 190.176702 176.449244 
L 192.215989 203.577735 
L 194.255276 196.87325 
L 196.294564 190.851781 
L 198.333851 191.996067 
L 200.373138 173.511159 
L 202.412426 166.33516 
L 204.451713 170.211728 
L 206.491 168.902175 
L 208.530288 176.224396 
L 210.569575 167.569918 
L 212.608862 165.679535 
L 214.64815 172.203625 
L 216.687437 165.251732 
L 218.726725 169.458771 
L 220.766012 168.278922 
L 222.805299 174.764468 
L 224.844587 163.580947 
L 226.883874 179.546233 
L 228.923161 189.543399 
L 230.962449 169.663173 
L 233.001736 174.830213 
L 235.041023 169.371215 
L 237.080311 167.483042 
L 239.119598 169.053501 
L 241.158885 169.12554 
L 243.198173 173.124016 
L 245.23746 162.486889 
L 247.276747 164.991662 
L 249.316035 168.149713 
L 251.355322 173.348204 
L 253.394609 167.967844 
L 255.433897 164.45541 
L 257.473184 173.04999 
L 259.512471 167.454916 
L 261.551759 164.21499 
L 263.591046 168.79467 
L 265.630333 169.077362 
L 267.669621 166.340226 
L 269.708908 167.768785 
L 271.748196 168.796756 
L 273.787483 166.888979 
L 275.82677 164.137319 
L 277.866058 249.52875 
L 279.905345 170.694875 
L 281.944632 167.563988 
L 283.98392 164.847558 
L 286.023207 170.169448 
L 288.062494 174.646536 
L 290.101782 169.763242 
L 292.141069 175.165526 
L 294.180356 171.230617 
L 296.219644 171.680498 
L 298.258931 176.714329 
L 300.298218 173.396677 
L 302.337506 167.298649 
L 304.376793 173.023431 
L 306.41608 166.49356 
L 308.455368 169.053562 
L 310.494655 169.168222 
L 312.533942 166.649784 
L 314.57323 246.822537 
L 316.612517 162.175053 
L 318.651804 166.149319 
L 320.691092 166.394327 
L 322.730379 170.555809 
L 324.769667 167.414342 
L 326.808954 166.484005 
L 328.848241 168.618169 
L 330.887529 168.604062 
L 332.926816 164.948222 
L 334.966103 167.32355 
L 337.005391 163.885686 
L 339.044678 164.248751 
L 341.083965 164.397336 
L 343.123253 166.668647 
L 345.16254 167.373995 
L 347.201827 167.219238 
L 349.241115 250.871287 
L 351.280402 162.596851 
L 353.319689 166.154822 
L 355.358977 171.805397 
L 357.398264 170.288188 
L 359.437551 170.700642 
L 361.476839 170.274757 
L 363.516126 170.270432 
L 365.555413 176.818588 
L 367.594701 168.538352 
L 369.633988 172.00631 
L 371.673275 168.820948 
L 373.712563 174.420444 
L 375.75185 177.557295 
L 377.791138 177.543967 
L 379.830425 168.809981 
L 381.869712 182.027526 
L 383.909 173.165651 
L 385.948287 170.804644 
L 387.987574 171.231863 
L 390.026862 172.101477 
L 392.066149 172.435231 
L 394.105436 175.253161 
L 396.144724 248.543582 
L 398.184011 164.844447 
L 400.223298 172.947287 
L 402.262586 171.772707 
L 404.301873 172.07312 
L 406.34116 168.02992 
L 408.380448 175.672036 
L 410.419735 167.196117 
L 412.459022 174.280324 
L 414.49831 164.991833 
L 416.537597 168.222728 
L 418.576884 166.661898 
L 420.616172 170.717832 
L 422.655459 170.306606 
L 424.694746 174.635935 
L 426.734034 170.666425 
L 428.773321 175.490274 
L 430.812608 176.432975 
L 432.851896 175.183143 
L 434.891183 179.268438 
L 436.930471 182.483377 
L 438.969758 172.286871 
L 441.009045 177.900545 
L 443.048333 173.838595 
L 445.08762 176.835246 
L 447.126907 175.853453 
L 449.166195 167.634521 
L 451.205482 174.923105 
L 453.244769 175.739615 
L 455.284057 182.504645 
L 457.323344 181.50263 
L 459.362631 176.33281 
L 461.401919 175.072605 
L 463.441206 179.076314 
L 465.480493 177.59678 
L 467.519781 178.879095 
L 469.559068 176.927515 
L 471.598355 173.551723 
L 473.637643 177.202401 
L 475.67693 179.844748 
L 477.716217 182.046758 
L 479.755505 175.7883 
L 481.794792 178.018654 
L 483.834079 172.711815 
L 485.873367 177.842741 
L 487.912654 181.647807 
L 489.951942 176.059788 
L 491.991229 172.451517 
L 494.030516 171.60485 
L 496.069804 178.602043 
L 498.109091 177.855391 
L 498.109091 177.855391 
" clip-path="url(#pf557f89931)" style="fill: none; stroke: #ff0000; stroke-opacity: 0.9; stroke-width: 1.5; stroke-linecap: square"/>
   </g>
   <g id="line2d_40">
    <path d="M 92.290909 172.954282 
L 94.330196 171.299638 
L 96.369484 168.11392 
L 98.408771 166.153295 
L 100.448058 169.267095 
L 102.487346 167.481077 
L 104.526633 169.954943 
L 106.565921 166.018034 
L 108.605208 167.018765 
L 110.644495 176.509767 
L 112.683783 246.121802 
L 114.72307 164.492246 
L 116.762357 165.644898 
L 118.801645 171.7399 
L 120.840932 163.719227 
L 122.880219 170.053912 
L 124.919507 168.088033 
L 126.958794 181.87323 
L 128.998081 165.713844 
L 131.037369 168.459834 
L 133.076656 175.457228 
L 135.115943 169.419891 
L 139.194518 168.100681 
L 141.233805 169.633556 
L 143.273093 167.126285 
L 145.31238 164.233835 
L 147.351667 164.306394 
L 149.390955 166.768378 
L 151.430242 165.236496 
L 153.469529 166.051927 
L 155.508817 169.950098 
L 157.548104 166.47161 
L 159.587392 167.744589 
L 161.626679 170.688211 
L 163.665966 170.108715 
L 165.705254 246.289293 
L 167.744541 166.178356 
L 169.783828 170.067792 
L 171.823116 168.615108 
L 173.862403 169.00837 
L 175.90169 173.982812 
L 177.940978 173.132392 
L 179.980265 185.100866 
L 182.019552 171.163687 
L 184.05884 174.887842 
L 186.098127 189.847185 
L 188.137414 174.231234 
L 190.176702 176.243327 
L 192.215989 196.791221 
L 198.333851 188.376469 
L 200.373138 174.616925 
L 202.412426 167.150207 
L 204.451713 169.094474 
L 206.491 169.277436 
L 208.530288 175.427291 
L 210.569575 168.461332 
L 212.608862 166.004809 
L 214.64815 169.586183 
L 216.687437 163.683682 
L 218.726725 168.165921 
L 220.766012 168.886227 
L 222.805299 172.101011 
L 224.844587 165.142062 
L 226.883874 179.182619 
L 228.923161 187.729495 
L 230.962449 168.119929 
L 233.001736 172.542363 
L 235.041023 169.398251 
L 237.080311 168.486657 
L 239.119598 170.572981 
L 241.158885 167.883649 
L 243.198173 172.731038 
L 245.23746 164.498537 
L 247.276747 166.367576 
L 249.316035 167.487873 
L 251.355322 171.362785 
L 253.394609 167.860909 
L 255.433897 165.446359 
L 257.473184 171.340009 
L 259.512471 166.070619 
L 261.551759 164.875691 
L 263.591046 166.832546 
L 265.630333 170.024355 
L 267.669621 166.201729 
L 269.708908 167.233025 
L 271.748196 167.190638 
L 273.787483 168.842891 
L 275.82677 164.948699 
L 277.866058 246.826211 
L 279.905345 171.209444 
L 281.944632 166.815143 
L 283.98392 165.244409 
L 286.023207 172.157281 
L 288.062494 172.944436 
L 290.101782 171.262723 
L 292.141069 173.241421 
L 294.180356 168.810625 
L 296.219644 170.108647 
L 298.258931 176.556962 
L 300.298218 170.674402 
L 302.337506 168.355479 
L 304.376793 172.745316 
L 306.41608 166.063044 
L 308.455368 169.365658 
L 310.494655 169.056452 
L 312.533942 165.621108 
L 314.57323 246.638824 
L 316.612517 164.013268 
L 318.651804 164.712194 
L 320.691092 165.132237 
L 322.730379 167.079716 
L 324.769667 166.757093 
L 326.808954 166.89287 
L 328.848241 168.058982 
L 330.887529 168.74191 
L 332.926816 166.557899 
L 334.966103 168.136083 
L 337.005391 163.976382 
L 339.044678 165.360223 
L 341.083965 164.697756 
L 343.123253 165.54542 
L 345.16254 166.911912 
L 347.201827 166.160283 
L 349.241115 247.280353 
L 351.280402 166.607544 
L 353.319689 164.950902 
L 355.358977 172.565929 
L 357.398264 169.853308 
L 359.437551 174.295908 
L 361.476839 170.289626 
L 363.516126 169.484199 
L 365.555413 172.249066 
L 367.594701 169.509754 
L 369.633988 172.136506 
L 371.673275 167.577885 
L 373.712563 173.340169 
L 375.75185 178.153365 
L 377.791138 176.126116 
L 379.830425 168.202053 
L 381.869712 179.661443 
L 383.909 173.727437 
L 385.948287 171.879141 
L 387.987574 170.188344 
L 390.026862 173.367398 
L 394.105436 174.797175 
L 396.144724 246.869469 
L 398.184011 168.405149 
L 400.223298 172.529363 
L 402.262586 173.313837 
L 404.301873 172.961074 
L 406.34116 170.159961 
L 408.380448 174.727004 
L 410.419735 169.0354 
L 412.459022 173.075906 
L 414.49831 167.662408 
L 416.537597 168.532453 
L 418.576884 163.821723 
L 420.616172 170.817705 
L 422.655459 169.624212 
L 424.694746 173.398528 
L 426.734034 169.923158 
L 428.773321 173.90889 
L 430.812608 176.963457 
L 432.851896 174.07742 
L 434.891183 175.597407 
L 436.930471 179.829543 
L 438.969758 173.343626 
L 441.009045 179.752682 
L 443.048333 174.140638 
L 445.08762 176.170647 
L 447.126907 177.415673 
L 449.166195 166.227509 
L 451.205482 171.338048 
L 453.244769 174.576483 
L 455.284057 179.985039 
L 457.323344 181.118591 
L 459.362631 176.463426 
L 461.401919 175.189729 
L 463.441206 177.851311 
L 465.480493 177.068071 
L 467.519781 177.638387 
L 469.559068 177.671535 
L 471.598355 171.619074 
L 473.637643 176.780458 
L 475.67693 179.873502 
L 477.716217 180.125944 
L 479.755505 175.453957 
L 481.794792 178.354156 
L 483.834079 172.484395 
L 487.912654 179.2566 
L 489.951942 174.387872 
L 491.991229 171.285972 
L 494.030516 170.554057 
L 496.069804 176.257496 
L 498.109091 177.678388 
L 498.109091 177.678388 
" clip-path="url(#pf557f89931)" style="fill: none; stroke: #008000; stroke-opacity: 0.9; stroke-width: 1.5; stroke-linecap: square"/>
   </g>
   <g id="line2d_41">
    <path d="M 438.969758 256.32 
L 438.969758 155.52 
" clip-path="url(#pf557f89931)" style="fill: none; stroke-dasharray: 5.55,2.4; stroke-dashoffset: 0; stroke: #0000ff; stroke-width: 1.5"/>
   </g>
   <g id="line2d_42">
    <path d="M 153.469529 256.32 
L 153.469529 155.52 
" clip-path="url(#pf557f89931)" style="fill: none; stroke-dasharray: 5.55,2.4; stroke-dashoffset: 0; stroke: #000000; stroke-width: 1.5"/>
   </g>
   <g id="patch_8">
    <path d="M 72 256.32 
L 72 155.52 
" style="fill: none; stroke: #000000; stroke-width: 0.8; stroke-linejoin: miter; stroke-linecap: square"/>
   </g>
   <g id="patch_9">
    <path d="M 518.4 256.32 
L 518.4 155.52 
" style="fill: none; stroke: #000000; stroke-width: 0.8; stroke-linejoin: miter; stroke-linecap: square"/>
   </g>
   <g id="patch_10">
    <path d="M 72 256.32 
L 518.4 256.32 
" style="fill: none; stroke: #000000; stroke-width: 0.8; stroke-linejoin: miter; stroke-linecap: square"/>
   </g>
   <g id="patch_11">
    <path d="M 72 155.52 
L 518.4 155.52 
" style="fill: none; stroke: #000000; stroke-width: 0.8; stroke-linejoin: miter; stroke-linecap: square"/>
   </g>
  </g>
 </g>
 <defs>
  <clipPath id="p3033ad7e87">
   <rect x="72" y="34.56" width="446.4" height="100.8"/>
  </clipPath>
  <clipPath id="pf557f89931">
   <rect x="72" y="155.52" width="446.4" height="100.8"/>
  </clipPath>
 </defs>
</svg>
