<?xml version="1.0" encoding="utf-8" standalone="no"?>
<!DOCTYPE svg PUBLIC "-//W3C//DTD SVG 1.1//EN"
  "http://www.w3.org/Graphics/SVG/1.1/DTD/svg11.dtd">
<svg xmlns:xlink="http://www.w3.org/1999/xlink" width="576pt" height="288pt" viewBox="0 0 576 288" xmlns="http://www.w3.org/2000/svg" version="1.1">
 <metadata>
  <rdf:RDF xmlns:dc="http://purl.org/dc/elements/1.1/" xmlns:cc="http://creativecommons.org/ns#" xmlns:rdf="http://www.w3.org/1999/02/22-rdf-syntax-ns#">
   <cc:Work>
    <dc:type rdf:resource="http://purl.org/dc/dcmitype/StillImage"/>
    <dc:date>2025-05-07T09:51:11.211889</dc:date>
    <dc:format>image/svg+xml</dc:format>
    <dc:creator>
     <cc:Agent>
      <dc:title>Matplotlib v3.10.0, https://matplotlib.org/</dc:title>
     </cc:Agent>
    </dc:creator>
   </cc:Work>
  </rdf:RDF>
 </metadata>
 <defs>
  <style type="text/css">*{stroke-linejoin: round; stroke-linecap: butt}</style>
 </defs>
 <g id="figure_1">
  <g id="patch_1">
   <path d="M 0 288 
L 576 288 
L 576 0 
L 0 0 
z
" style="fill: #ffffff"/>
  </g>
  <g id="axes_1">
   <g id="patch_2">
    <path d="M 72 135.36 
L 518.4 135.36 
L 518.4 34.56 
L 72 34.56 
z
" style="fill: #ffffff"/>
   </g>
   <g id="matplotlib.axis_1">
    <g id="xtick_1">
     <g id="line2d_1">
      <defs>
       <path id="m7062f13548" d="M 0 0 
L 0 3.5 
" style="stroke: #000000; stroke-width: 0.8"/>
      </defs>
      <g>
       <use xlink:href="#m7062f13548" x="92.290909" y="135.36" style="stroke: #000000; stroke-width: 0.8"/>
      </g>
     </g>
    </g>
    <g id="xtick_2">
     <g id="line2d_2">
      <g>
       <use xlink:href="#m7062f13548" x="143.273093" y="135.36" style="stroke: #000000; stroke-width: 0.8"/>
      </g>
     </g>
    </g>
    <g id="xtick_3">
     <g id="line2d_3">
      <g>
       <use xlink:href="#m7062f13548" x="194.255276" y="135.36" style="stroke: #000000; stroke-width: 0.8"/>
      </g>
     </g>
    </g>
    <g id="xtick_4">
     <g id="line2d_4">
      <g>
       <use xlink:href="#m7062f13548" x="245.23746" y="135.36" style="stroke: #000000; stroke-width: 0.8"/>
      </g>
     </g>
    </g>
    <g id="xtick_5">
     <g id="line2d_5">
      <g>
       <use xlink:href="#m7062f13548" x="296.219644" y="135.36" style="stroke: #000000; stroke-width: 0.8"/>
      </g>
     </g>
    </g>
    <g id="xtick_6">
     <g id="line2d_6">
      <g>
       <use xlink:href="#m7062f13548" x="347.201827" y="135.36" style="stroke: #000000; stroke-width: 0.8"/>
      </g>
     </g>
    </g>
    <g id="xtick_7">
     <g id="line2d_7">
      <g>
       <use xlink:href="#m7062f13548" x="398.184011" y="135.36" style="stroke: #000000; stroke-width: 0.8"/>
      </g>
     </g>
    </g>
    <g id="xtick_8">
     <g id="line2d_8">
      <g>
       <use xlink:href="#m7062f13548" x="449.166195" y="135.36" style="stroke: #000000; stroke-width: 0.8"/>
      </g>
     </g>
    </g>
    <g id="xtick_9">
     <g id="line2d_9">
      <g>
       <use xlink:href="#m7062f13548" x="500.148378" y="135.36" style="stroke: #000000; stroke-width: 0.8"/>
      </g>
     </g>
    </g>
   </g>
   <g id="matplotlib.axis_2">
    <g id="ytick_1">
     <g id="line2d_10">
      <defs>
       <path id="me27c835160" d="M 0 0 
L -3.5 0 
" style="stroke: #000000; stroke-width: 0.8"/>
      </defs>
      <g>
       <use xlink:href="#me27c835160" x="72" y="115.448994" style="stroke: #000000; stroke-width: 0.8"/>
      </g>
     </g>
     <g id="text_1">
      <!-- −150 -->
      <g transform="translate(37.532812 119.248213) scale(0.1 -0.1)">
       <defs>
        <path id="DejaVuSans-2212" d="M 678 2272 
L 4684 2272 
L 4684 1741 
L 678 1741 
L 678 2272 
z
" transform="scale(0.015625)"/>
        <path id="DejaVuSans-31" d="M 794 531 
L 1825 531 
L 1825 4091 
L 703 3866 
L 703 4441 
L 1819 4666 
L 2450 4666 
L 2450 531 
L 3481 531 
L 3481 0 
L 794 0 
L 794 531 
z
" transform="scale(0.015625)"/>
        <path id="DejaVuSans-35" d="M 691 4666 
L 3169 4666 
L 3169 4134 
L 1269 4134 
L 1269 2991 
Q 1406 3038 1543 3061 
Q 1681 3084 1819 3084 
Q 2600 3084 3056 2656 
Q 3513 2228 3513 1497 
Q 3513 744 3044 326 
Q 2575 -91 1722 -91 
Q 1428 -91 1123 -41 
Q 819 9 494 109 
L 494 744 
Q 775 591 1075 516 
Q 1375 441 1709 441 
Q 2250 441 2565 725 
Q 2881 1009 2881 1497 
Q 2881 1984 2565 2268 
Q 2250 2553 1709 2553 
Q 1456 2553 1204 2497 
Q 953 2441 691 2322 
L 691 4666 
z
" transform="scale(0.015625)"/>
        <path id="DejaVuSans-30" d="M 2034 4250 
Q 1547 4250 1301 3770 
Q 1056 3291 1056 2328 
Q 1056 1369 1301 889 
Q 1547 409 2034 409 
Q 2525 409 2770 889 
Q 3016 1369 3016 2328 
Q 3016 3291 2770 3770 
Q 2525 4250 2034 4250 
z
M 2034 4750 
Q 2819 4750 3233 4129 
Q 3647 3509 3647 2328 
Q 3647 1150 3233 529 
Q 2819 -91 2034 -91 
Q 1250 -91 836 529 
Q 422 1150 422 2328 
Q 422 3509 836 4129 
Q 1250 4750 2034 4750 
z
" transform="scale(0.015625)"/>
       </defs>
       <use xlink:href="#DejaVuSans-2212"/>
       <use xlink:href="#DejaVuSans-31" transform="translate(83.789062 0)"/>
       <use xlink:href="#DejaVuSans-35" transform="translate(147.412109 0)"/>
       <use xlink:href="#DejaVuSans-30" transform="translate(211.035156 0)"/>
      </g>
     </g>
    </g>
    <g id="ytick_2">
     <g id="line2d_11">
      <g>
       <use xlink:href="#me27c835160" x="72" y="77.579201" style="stroke: #000000; stroke-width: 0.8"/>
      </g>
     </g>
     <g id="text_2">
      <!-- −100 -->
      <g transform="translate(37.532812 81.37842) scale(0.1 -0.1)">
       <use xlink:href="#DejaVuSans-2212"/>
       <use xlink:href="#DejaVuSans-31" transform="translate(83.789062 0)"/>
       <use xlink:href="#DejaVuSans-30" transform="translate(147.412109 0)"/>
       <use xlink:href="#DejaVuSans-30" transform="translate(211.035156 0)"/>
      </g>
     </g>
    </g>
    <g id="ytick_3">
     <g id="line2d_12">
      <g>
       <use xlink:href="#me27c835160" x="72" y="39.709409" style="stroke: #000000; stroke-width: 0.8"/>
      </g>
     </g>
     <g id="text_3">
      <!-- −50 -->
      <g transform="translate(43.895313 43.508627) scale(0.1 -0.1)">
       <use xlink:href="#DejaVuSans-2212"/>
       <use xlink:href="#DejaVuSans-35" transform="translate(83.789062 0)"/>
       <use xlink:href="#DejaVuSans-30" transform="translate(147.412109 0)"/>
      </g>
     </g>
    </g>
   </g>
   <g id="line2d_13">
    <path d="M 92.290909 61.97148 
L 94.330196 107.146636 
L 96.369484 127.2469 
L 98.408771 102.897656 
L 100.448058 91.017257 
L 102.487346 106.466914 
L 104.526633 99.187542 
L 106.565921 68.134422 
L 108.605208 116.857878 
L 110.644495 46.621455 
L 112.683783 80.031897 
L 114.72307 121.800494 
L 116.762357 120.499702 
L 118.801645 108.692643 
L 120.840932 64.678832 
L 122.880219 113.919768 
L 124.919507 69.03153 
L 126.958794 66.773829 
L 128.998081 85.810952 
L 131.037369 63.793547 
L 133.076656 54.517401 
L 135.115943 50.428566 
L 137.155231 107.621384 
L 139.194518 108.504877 
L 141.233805 125.155058 
L 143.273093 122.283909 
L 145.31238 118.430397 
L 147.351667 113.208311 
L 149.390955 120.091673 
L 151.430242 109.312107 
L 153.469529 105.890304 
L 155.508817 110.486639 
L 157.548104 128.958125 
L 159.587392 106.832357 
L 161.626679 121.295559 
L 163.665966 101.09653 
L 165.705254 91.920455 
L 167.744541 111.071559 
L 169.783828 48.425774 
L 171.823116 59.631684 
L 173.862403 73.650389 
L 175.90169 51.078662 
L 177.940978 46.572141 
L 179.980265 71.627843 
L 182.019552 67.93254 
L 184.05884 69.344532 
L 186.098127 65.143508 
L 188.137414 57.452553 
L 190.176702 65.858912 
L 192.215989 60.904242 
L 194.255276 48.502414 
L 196.294564 69.431955 
L 198.333851 73.022824 
L 200.373138 96.9354 
L 202.412426 72.384921 
L 204.451713 52.581087 
L 206.491 44.229751 
L 208.530288 75.678593 
L 210.569575 56.751231 
L 212.608862 109.417414 
L 214.64815 108.006715 
L 216.687437 90.630059 
L 218.726725 91.493091 
L 220.766012 108.610797 
L 222.805299 119.177148 
L 224.844587 117.824905 
L 226.883874 66.727844 
L 228.923161 59.920561 
L 230.962449 82.124125 
L 233.001736 73.702708 
L 235.041023 45.827114 
L 237.080311 64.549949 
L 239.119598 53.253592 
L 241.158885 74.054241 
L 243.198173 54.41347 
L 245.23746 88.102943 
L 247.276747 49.509833 
L 249.316035 97.208364 
L 251.355322 76.916324 
L 253.394609 110.540529 
L 257.473184 67.014589 
L 259.512471 68.470267 
L 261.551759 58.458475 
L 263.591046 70.800684 
L 265.630333 67.329273 
L 269.708908 48.295365 
L 271.748196 45.650859 
L 273.787483 63.645809 
L 275.82677 49.095736 
L 277.866058 68.914493 
L 279.905345 57.858519 
L 281.944632 74.908097 
L 283.98392 67.755031 
L 286.023207 64.291952 
L 288.062494 54.939478 
L 290.101782 66.563625 
L 292.141069 78.834551 
L 294.180356 52.626836 
L 296.219644 43.163369 
L 298.258931 80.368545 
L 300.298218 58.902637 
L 302.337506 61.972508 
L 304.376793 59.187897 
L 306.41608 46.943391 
L 308.455368 49.633437 
L 310.494655 51.391699 
L 312.533942 57.860767 
L 314.57323 73.580516 
L 316.612517 43.27771 
L 318.651804 56.305671 
L 320.691092 48.123594 
L 322.730379 46.983831 
L 326.808954 65.144479 
L 328.848241 45.739706 
L 330.887529 47.259594 
L 332.926816 51.761949 
L 334.966103 44.13768 
L 337.005391 58.29584 
L 339.044678 48.823818 
L 341.083965 49.345695 
L 343.123253 52.391241 
L 345.16254 49.420578 
L 347.201827 53.425663 
L 349.241115 56.626399 
L 351.280402 40.216322 
L 353.319689 54.121484 
L 355.358977 54.924385 
L 357.398264 64.128965 
L 359.437551 80.911935 
L 361.476839 50.763169 
L 363.516126 55.104448 
L 365.555413 43.577229 
L 367.594701 69.350889 
L 369.633988 55.716232 
L 371.673275 60.66462 
L 373.712563 58.11012 
L 375.75185 69.769169 
L 377.791138 50.899558 
L 379.830425 91.73143 
L 381.869712 66.197605 
L 383.909 71.584545 
L 385.948287 100.02371 
L 387.987574 75.404855 
L 390.026862 79.184027 
L 392.066149 63.736445 
L 394.105436 63.575011 
L 396.144724 98.577278 
L 398.184011 83.087472 
L 400.223298 84.64165 
L 402.262586 55.521081 
L 404.301873 81.121335 
L 406.34116 72.406412 
L 408.380448 70.94462 
L 410.419735 49.92549 
L 412.459022 67.802114 
L 414.49831 107.260472 
L 416.537597 78.868182 
L 418.576884 116.056323 
L 420.616172 99.852852 
L 422.655459 81.094315 
L 424.694746 76.339014 
L 426.734034 64.499393 
L 428.773321 66.475047 
L 430.812608 63.868679 
L 432.851896 64.108873 
L 434.891183 66.677039 
L 436.930471 60.520633 
L 438.969758 61.527387 
L 441.009045 68.594614 
L 443.048333 47.262955 
L 445.08762 63.223287 
L 447.126907 72.331332 
L 449.166195 65.658809 
L 451.205482 56.357186 
L 453.244769 64.359485 
L 455.284057 63.818996 
L 457.323344 57.493632 
L 459.362631 55.112422 
L 461.401919 58.981311 
L 463.441206 64.290334 
L 465.480493 63.472952 
L 467.519781 59.242932 
L 469.559068 52.059049 
L 471.598355 68.302836 
L 473.637643 68.249616 
L 475.67693 71.790993 
L 477.716217 52.61707 
L 479.755505 67.860609 
L 481.794792 60.827273 
L 483.834079 63.492818 
L 485.873367 69.858643 
L 487.912654 68.860776 
L 489.951942 46.458103 
L 491.991229 54.536944 
L 494.030516 44.119327 
L 496.069804 61.876586 
L 498.109091 57.809212 
L 498.109091 57.809212 
" clip-path="url(#paee12f40c8)" style="fill: none; stroke: #ff0000; stroke-opacity: 0.9; stroke-width: 1.5; stroke-linecap: square"/>
   </g>
   <g id="line2d_14">
    <path d="M 92.290909 65.002329 
L 94.330196 104.300889 
L 96.369484 129.418554 
L 98.408771 102.424365 
L 100.448058 86.654765 
L 102.487346 106.755884 
L 104.526633 96.332151 
L 106.565921 64.688332 
L 108.605208 115.047101 
L 110.644495 45.248389 
L 112.683783 80.031793 
L 114.72307 123.441406 
L 116.762357 123.607896 
L 118.801645 110.293407 
L 120.840932 71.072226 
L 122.880219 116.171361 
L 124.919507 70.396804 
L 126.958794 66.196172 
L 128.998081 90.084369 
L 131.037369 64.728493 
L 133.076656 54.954115 
L 135.115943 53.983499 
L 137.155231 105.431204 
L 139.194518 104.376679 
L 141.233805 123.322659 
L 143.273093 118.974555 
L 145.31238 121.161903 
L 147.351667 116.101522 
L 149.390955 116.22079 
L 151.430242 109.240165 
L 153.469529 106.843382 
L 155.508817 111.532646 
L 157.548104 128.313502 
L 159.587392 108.126896 
L 161.626679 121.606337 
L 163.665966 98.284679 
L 165.705254 94.627906 
L 167.744541 113.820124 
L 169.783828 48.786992 
L 171.823116 55.472606 
L 173.862403 74.151048 
L 175.90169 46.909436 
L 177.940978 42.063665 
L 179.980265 73.402389 
L 182.019552 64.388325 
L 184.05884 72.300093 
L 186.098127 61.152208 
L 188.137414 60.704769 
L 190.176702 67.176288 
L 192.215989 59.310499 
L 194.255276 46.526728 
L 196.294564 67.861776 
L 198.333851 76.892759 
L 200.373138 96.088195 
L 202.412426 69.402548 
L 204.451713 56.27007 
L 206.491 44.080456 
L 208.530288 74.730484 
L 210.569575 58.586462 
L 212.608862 112.451828 
L 214.64815 107.754231 
L 216.687437 91.906165 
L 218.726725 90.024481 
L 220.766012 109.200848 
L 222.805299 123.518121 
L 224.844587 118.494931 
L 226.883874 65.870873 
L 228.923161 57.657521 
L 230.962449 79.681779 
L 233.001736 71.597957 
L 235.041023 40.665491 
L 237.080311 62.52029 
L 239.119598 51.212427 
L 241.158885 76.018072 
L 243.198173 52.242509 
L 245.23746 85.004422 
L 247.276747 50.486484 
L 249.316035 99.57158 
L 251.355322 76.114983 
L 253.394609 108.292403 
L 255.433897 89.272239 
L 257.473184 69.077648 
L 259.512471 65.940596 
L 261.551759 55.125788 
L 263.591046 69.798778 
L 265.630333 71.670171 
L 267.669621 61.045948 
L 269.708908 49.351907 
L 271.748196 46.303491 
L 273.787483 59.098978 
L 275.82677 52.144166 
L 277.866058 65.859715 
L 279.905345 57.239033 
L 281.944632 75.797525 
L 283.98392 66.99426 
L 286.023207 62.559387 
L 288.062494 55.221005 
L 290.101782 68.044035 
L 292.141069 73.157723 
L 294.180356 52.239846 
L 296.219644 44.949772 
L 298.258931 83.342562 
L 300.298218 59.564885 
L 302.337506 62.583842 
L 304.376793 61.60535 
L 306.41608 44.855609 
L 308.455368 48.832544 
L 310.494655 49.607292 
L 312.533942 58.615049 
L 314.57323 72.707545 
L 316.612517 39.197372 
L 318.651804 55.718861 
L 320.691092 49.937876 
L 322.730379 43.372714 
L 324.769667 57.725499 
L 326.808954 62.483533 
L 328.848241 46.019199 
L 330.887529 46.166677 
L 332.926816 51.411357 
L 334.966103 46.767873 
L 337.005391 56.244569 
L 339.044678 48.078782 
L 343.123253 52.087941 
L 345.16254 46.022785 
L 347.201827 58.08169 
L 349.241115 59.046498 
L 351.280402 44.285299 
L 353.319689 55.638668 
L 355.358977 58.742319 
L 357.398264 62.555648 
L 359.437551 84.362775 
L 361.476839 52.399054 
L 363.516126 59.66576 
L 365.555413 42.079657 
L 367.594701 72.499208 
L 369.633988 55.723594 
L 371.673275 59.782173 
L 373.712563 51.383516 
L 375.75185 68.468337 
L 377.791138 51.202373 
L 379.830425 90.642477 
L 381.869712 69.134439 
L 383.909 73.307611 
L 385.948287 99.129735 
L 387.987574 72.390555 
L 390.026862 80.688522 
L 392.066149 56.837712 
L 394.105436 64.231908 
L 396.144724 98.48161 
L 398.184011 82.332549 
L 400.223298 84.986428 
L 402.262586 56.033701 
L 404.301873 79.383905 
L 406.34116 74.8922 
L 408.380448 68.962373 
L 410.419735 49.67618 
L 412.459022 70.242611 
L 414.49831 106.320523 
L 416.537597 78.572758 
L 418.576884 111.86173 
L 422.655459 83.556689 
L 424.694746 79.452582 
L 426.734034 65.12114 
L 428.773321 69.340083 
L 430.812608 64.967848 
L 432.851896 62.578768 
L 434.891183 66.118163 
L 438.969758 60.46758 
L 441.009045 73.410872 
L 443.048333 43.694075 
L 445.08762 65.958747 
L 447.126907 70.07106 
L 449.166195 68.200401 
L 451.205482 60.339252 
L 453.244769 64.199404 
L 455.284057 62.528646 
L 457.323344 58.939464 
L 459.362631 53.696356 
L 461.401919 58.708556 
L 463.441206 61.291579 
L 465.480493 61.774266 
L 467.519781 61.803933 
L 469.559068 53.200944 
L 471.598355 69.963222 
L 473.637643 70.692372 
L 475.67693 71.866812 
L 477.716217 51.45636 
L 479.755505 62.211708 
L 481.794792 59.684921 
L 483.834079 63.209639 
L 485.873367 67.97092 
L 487.912654 64.833274 
L 489.951942 47.824712 
L 491.991229 53.376731 
L 494.030516 41.803486 
L 496.069804 59.874374 
L 498.109091 56.981758 
L 498.109091 56.981758 
" clip-path="url(#paee12f40c8)" style="fill: none; stroke: #ff0000; stroke-opacity: 0.9; stroke-width: 1.5; stroke-linecap: square"/>
   </g>
   <g id="line2d_15">
    <path d="M 92.290909 59.65797 
L 94.330196 103.275164 
L 96.369484 127.920843 
L 98.408771 104.765894 
L 100.448058 88.658548 
L 102.487346 101.488726 
L 104.526633 96.739036 
L 106.565921 69.162718 
L 108.605208 114.650224 
L 110.644495 45.140233 
L 112.683783 80.209053 
L 114.72307 123.108405 
L 116.762357 123.408446 
L 118.801645 108.303232 
L 120.840932 67.339564 
L 122.880219 117.893889 
L 124.919507 69.318344 
L 126.958794 64.581026 
L 128.998081 87.936378 
L 131.037369 63.026837 
L 133.076656 50.098448 
L 135.115943 53.181794 
L 137.155231 107.079375 
L 139.194518 104.762866 
L 141.233805 123.58247 
L 143.273093 120.248281 
L 145.31238 120.459472 
L 147.351667 115.503705 
L 149.390955 112.233379 
L 151.430242 109.388683 
L 153.469529 104.940624 
L 155.508817 112.417862 
L 157.548104 129.215718 
L 159.587392 106.975663 
L 161.626679 122.965792 
L 163.665966 98.245426 
L 165.705254 92.180313 
L 167.744541 109.249341 
L 169.783828 47.231156 
L 171.823116 55.328716 
L 173.862403 76.514807 
L 175.90169 49.975913 
L 177.940978 42.798562 
L 179.980265 71.226003 
L 182.019552 66.33589 
L 184.05884 73.28337 
L 186.098127 66.321461 
L 188.137414 63.822474 
L 190.176702 66.393767 
L 192.215989 62.53896 
L 194.255276 52.97656 
L 196.294564 69.33639 
L 198.333851 73.767369 
L 200.373138 96.058587 
L 202.412426 71.082801 
L 204.451713 53.214102 
L 206.491 46.13619 
L 208.530288 76.281749 
L 210.569575 57.346061 
L 212.608862 109.35808 
L 214.64815 109.229925 
L 216.687437 91.615046 
L 218.726725 95.026835 
L 220.766012 109.076969 
L 222.805299 120.508427 
L 224.844587 122.405396 
L 226.883874 69.708981 
L 228.923161 60.420012 
L 230.962449 81.606085 
L 233.001736 72.16137 
L 235.041023 42.375411 
L 237.080311 59.578522 
L 239.119598 53.898804 
L 241.158885 76.27615 
L 243.198173 50.98605 
L 245.23746 83.594463 
L 247.276747 51.369654 
L 249.316035 97.484095 
L 251.355322 72.426053 
L 253.394609 112.856356 
L 255.433897 89.122542 
L 257.473184 67.935273 
L 259.512471 64.338255 
L 261.551759 58.916373 
L 263.591046 65.3874 
L 265.630333 67.304264 
L 267.669621 61.023388 
L 269.708908 50.67622 
L 271.748196 44.959459 
L 273.787483 60.283068 
L 275.82677 51.697016 
L 277.866058 67.732073 
L 279.905345 59.674913 
L 281.944632 76.713586 
L 283.98392 63.150016 
L 286.023207 60.092315 
L 288.062494 55.408395 
L 290.101782 67.055847 
L 292.141069 72.422851 
L 294.180356 55.066142 
L 296.219644 45.005736 
L 298.258931 80.301595 
L 300.298218 54.602478 
L 302.337506 62.860873 
L 304.376793 57.854555 
L 306.41608 47.492874 
L 308.455368 46.224517 
L 310.494655 53.087698 
L 312.533942 57.059403 
L 314.57323 69.450267 
L 316.612517 40.701058 
L 318.651804 58.153077 
L 320.691092 47.352686 
L 322.730379 39.224577 
L 324.769667 57.573791 
L 326.808954 62.165891 
L 328.848241 48.794192 
L 330.887529 48.458162 
L 332.926816 50.267081 
L 334.966103 44.391144 
L 337.005391 57.67722 
L 339.044678 47.735223 
L 341.083965 51.357739 
L 343.123253 50.897697 
L 345.16254 49.622143 
L 347.201827 57.920153 
L 349.241115 53.945552 
L 351.280402 42.661896 
L 353.319689 52.208388 
L 355.358977 53.928344 
L 357.398264 66.223308 
L 359.437551 79.966912 
L 361.476839 51.04031 
L 363.516126 58.077235 
L 365.555413 44.251937 
L 367.594701 72.457938 
L 369.633988 53.973497 
L 371.673275 59.708491 
L 373.712563 55.301424 
L 375.75185 70.432682 
L 377.791138 52.229612 
L 379.830425 89.901024 
L 381.869712 65.692879 
L 383.909 70.867963 
L 385.948287 100.142469 
L 387.987574 73.186875 
L 390.026862 77.975628 
L 392.066149 62.305643 
L 394.105436 67.012347 
L 396.144724 97.946425 
L 398.184011 82.521551 
L 400.223298 84.354789 
L 402.262586 56.645647 
L 404.301873 80.489263 
L 406.34116 69.221919 
L 408.380448 67.165956 
L 410.419735 51.407907 
L 412.459022 68.090465 
L 414.49831 105.739266 
L 416.537597 76.627412 
L 418.576884 114.513633 
L 420.616172 97.885751 
L 422.655459 84.019262 
L 424.694746 77.279472 
L 426.734034 62.266898 
L 428.773321 67.710415 
L 430.812608 63.868766 
L 432.851896 63.234168 
L 434.891183 74.318415 
L 436.930471 58.055415 
L 438.969758 58.316746 
L 441.009045 70.56988 
L 443.048333 49.401333 
L 445.08762 62.692517 
L 447.126907 69.457184 
L 449.166195 66.156341 
L 451.205482 56.633431 
L 453.244769 67.038824 
L 455.284057 62.319656 
L 457.323344 56.622782 
L 459.362631 54.822019 
L 461.401919 61.646157 
L 463.441206 57.664392 
L 465.480493 65.655984 
L 467.519781 62.268574 
L 469.559068 53.315317 
L 471.598355 68.721064 
L 473.637643 66.959451 
L 475.67693 70.41886 
L 477.716217 51.407826 
L 479.755505 66.806263 
L 481.794792 59.663038 
L 483.834079 62.062652 
L 485.873367 71.973922 
L 487.912654 70.839435 
L 489.951942 44.798861 
L 491.991229 52.625836 
L 494.030516 49.864596 
L 496.069804 63.135501 
L 498.109091 60.463911 
L 498.109091 60.463911 
" clip-path="url(#paee12f40c8)" style="fill: none; stroke: #ff0000; stroke-opacity: 0.9; stroke-width: 1.5; stroke-linecap: square"/>
   </g>
   <g id="line2d_16">
    <path d="M 92.290909 59.787391 
L 94.330196 103.422203 
L 96.369484 128.635028 
L 98.408771 105.497275 
L 100.448058 89.014236 
L 102.487346 108.666732 
L 104.526633 101.460481 
L 106.565921 68.958704 
L 108.605208 115.709187 
L 110.644495 44.272246 
L 112.683783 82.794405 
L 114.72307 118.699188 
L 116.762357 124.903949 
L 118.801645 112.824158 
L 120.840932 68.514715 
L 122.880219 116.853821 
L 124.919507 72.799481 
L 126.958794 70.29037 
L 128.998081 90.824008 
L 131.037369 66.591998 
L 133.076656 54.92316 
L 135.115943 55.050858 
L 137.155231 107.305625 
L 139.194518 106.011998 
L 141.233805 123.921944 
L 143.273093 119.460005 
L 145.31238 117.54265 
L 147.351667 111.07921 
L 149.390955 117.584417 
L 151.430242 110.850382 
L 153.469529 110.059182 
L 155.508817 109.640717 
L 157.548104 128.125782 
L 159.587392 109.796713 
L 161.626679 119.685354 
L 163.665966 98.852784 
L 165.705254 97.746871 
L 167.744541 111.188134 
L 169.783828 48.308029 
L 171.823116 56.939558 
L 173.862403 75.069755 
L 175.90169 46.937864 
L 177.940978 45.849798 
L 179.980265 70.086448 
L 182.019552 67.128956 
L 184.05884 73.135112 
L 186.098127 63.501619 
L 188.137414 55.990097 
L 190.176702 67.461918 
L 192.215989 60.40697 
L 194.255276 49.986562 
L 196.294564 66.966847 
L 198.333851 75.593025 
L 200.373138 94.635216 
L 202.412426 68.883283 
L 204.451713 51.597326 
L 206.491 46.521811 
L 208.530288 75.555228 
L 210.569575 58.659317 
L 212.608862 108.438009 
L 214.64815 108.670246 
L 216.687437 94.57219 
L 218.726725 93.285244 
L 220.766012 110.989089 
L 222.805299 120.180268 
L 224.844587 119.392246 
L 226.883874 70.278345 
L 228.923161 57.950952 
L 230.962449 80.614459 
L 233.001736 70.282939 
L 235.041023 41.887052 
L 237.080311 64.749145 
L 239.119598 57.318955 
L 241.158885 76.50952 
L 243.198173 51.162889 
L 245.23746 81.729548 
L 247.276747 51.699269 
L 249.316035 100.560831 
L 251.355322 74.192965 
L 253.394609 109.406504 
L 255.433897 89.036755 
L 257.473184 70.813651 
L 259.512471 68.048103 
L 261.551759 60.427772 
L 263.591046 69.969954 
L 265.630333 68.624824 
L 267.669621 60.404243 
L 269.708908 48.13603 
L 271.748196 40.180611 
L 273.787483 60.999731 
L 275.82677 53.042129 
L 277.866058 70.063796 
L 279.905345 58.591935 
L 281.944632 75.336756 
L 283.98392 65.236391 
L 286.023207 59.956347 
L 288.062494 53.731402 
L 290.101782 65.140313 
L 292.141069 74.02135 
L 294.180356 51.506956 
L 296.219644 44.621523 
L 298.258931 78.28581 
L 300.298218 59.748513 
L 302.337506 63.734174 
L 304.376793 61.841354 
L 306.41608 44.718032 
L 308.455368 49.234627 
L 310.494655 50.815909 
L 312.533942 59.217708 
L 314.57323 74.008649 
L 316.612517 40.647702 
L 318.651804 59.620439 
L 320.691092 46.75436 
L 322.730379 46.295205 
L 326.808954 62.996887 
L 328.848241 47.70814 
L 330.887529 43.104821 
L 332.926816 48.452069 
L 334.966103 44.304013 
L 337.005391 54.242808 
L 339.044678 48.949743 
L 341.083965 51.544314 
L 343.123253 51.410617 
L 345.16254 50.592698 
L 347.201827 53.374102 
L 349.241115 57.534266 
L 351.280402 40.710003 
L 353.319689 52.49827 
L 355.358977 52.644703 
L 357.398264 62.038354 
L 359.437551 82.943137 
L 361.476839 47.221485 
L 363.516126 58.133685 
L 365.555413 45.391149 
L 367.594701 69.743755 
L 369.633988 51.031613 
L 371.673275 56.602054 
L 373.712563 51.694167 
L 375.75185 69.284846 
L 377.791138 56.305099 
L 379.830425 92.352939 
L 381.869712 66.551358 
L 383.909 69.536586 
L 385.948287 98.790966 
L 387.987574 68.623529 
L 390.026862 77.674696 
L 392.066149 60.518893 
L 394.105436 61.851386 
L 396.144724 96.749339 
L 398.184011 81.325026 
L 400.223298 86.310062 
L 402.262586 58.510868 
L 404.301873 83.004967 
L 406.34116 72.984906 
L 408.380448 67.330388 
L 410.419735 50.972546 
L 412.459022 67.492434 
L 414.49831 104.678396 
L 416.537597 76.994091 
L 418.576884 114.170553 
L 420.616172 103.047007 
L 422.655459 83.542908 
L 424.694746 80.075761 
L 426.734034 64.482694 
L 428.773321 70.172235 
L 432.851896 58.986333 
L 434.891183 69.608418 
L 436.930471 58.674723 
L 438.969758 61.523833 
L 441.009045 73.578222 
L 443.048333 46.021615 
L 445.08762 58.735749 
L 447.126907 67.852502 
L 449.166195 69.437358 
L 451.205482 58.920522 
L 453.244769 62.546397 
L 455.284057 64.468825 
L 457.323344 57.435414 
L 459.362631 52.475596 
L 461.401919 55.193991 
L 463.441206 61.586813 
L 465.480493 65.08737 
L 467.519781 61.114902 
L 469.559068 53.360447 
L 471.598355 66.455574 
L 473.637643 66.763214 
L 475.67693 71.258039 
L 477.716217 51.883268 
L 479.755505 67.651839 
L 481.794792 62.135542 
L 483.834079 64.234156 
L 485.873367 66.877864 
L 487.912654 65.185633 
L 489.951942 50.028213 
L 491.991229 53.352658 
L 494.030516 45.915958 
L 496.069804 62.855308 
L 498.109091 59.110963 
L 498.109091 59.110963 
" clip-path="url(#paee12f40c8)" style="fill: none; stroke: #ff0000; stroke-opacity: 0.9; stroke-width: 1.5; stroke-linecap: square"/>
   </g>
   <g id="line2d_17">
    <path d="M 92.290909 60.340939 
L 94.330196 108.198549 
L 96.369484 130.778182 
L 98.408771 101.677971 
L 100.448058 90.771574 
L 102.487346 105.81434 
L 104.526633 100.936905 
L 106.565921 66.885735 
L 108.605208 111.89758 
L 110.644495 45.408626 
L 112.683783 79.615327 
L 114.72307 124.056941 
L 116.762357 118.319161 
L 118.801645 113.60201 
L 120.840932 68.324632 
L 122.880219 118.185008 
L 124.919507 70.145908 
L 126.958794 68.122848 
L 128.998081 86.727354 
L 131.037369 67.417643 
L 133.076656 53.021268 
L 135.115943 57.247879 
L 137.155231 110.869775 
L 139.194518 106.288683 
L 141.233805 124.263937 
L 143.273093 124.123671 
L 145.31238 118.790603 
L 147.351667 115.65836 
L 149.390955 119.852305 
L 151.430242 112.309296 
L 153.469529 102.477099 
L 155.508817 112.59206 
L 157.548104 126.568993 
L 159.587392 109.213376 
L 161.626679 120.38003 
L 163.665966 97.922727 
L 165.705254 95.815059 
L 167.744541 109.692504 
L 169.783828 49.668264 
L 171.823116 51.557287 
L 173.862403 74.864053 
L 175.90169 51.047608 
L 177.940978 41.931838 
L 179.980265 69.338367 
L 182.019552 70.019267 
L 184.05884 74.138069 
L 188.137414 56.4441 
L 190.176702 65.487298 
L 192.215989 61.75882 
L 194.255276 50.04142 
L 196.294564 68.430112 
L 198.333851 77.354245 
L 200.373138 95.605086 
L 202.412426 70.052684 
L 204.451713 57.872971 
L 206.491 47.047334 
L 208.530288 77.411608 
L 210.569575 57.352874 
L 212.608862 106.856499 
L 214.64815 105.143321 
L 216.687437 91.445309 
L 218.726725 91.27578 
L 220.766012 108.824103 
L 222.805299 121.634756 
L 224.844587 122.438148 
L 226.883874 64.419102 
L 228.923161 58.363587 
L 230.962449 79.17989 
L 233.001736 71.600315 
L 235.041023 40.643256 
L 237.080311 61.086593 
L 239.119598 52.161871 
L 241.158885 72.96196 
L 243.198173 52.930847 
L 245.23746 82.596862 
L 247.276747 49.43987 
L 249.316035 100.524496 
L 251.355322 72.889954 
L 253.394609 109.107872 
L 255.433897 93.17851 
L 257.473184 68.118173 
L 259.512471 65.867713 
L 261.551759 56.658458 
L 263.591046 71.006045 
L 265.630333 68.791521 
L 267.669621 60.913962 
L 269.708908 52.351503 
L 271.748196 42.461253 
L 273.787483 58.929051 
L 275.82677 51.999738 
L 277.866058 65.553167 
L 279.905345 56.414658 
L 281.944632 75.346816 
L 286.023207 59.857212 
L 288.062494 55.356661 
L 290.101782 70.090204 
L 292.141069 75.028798 
L 294.180356 53.03082 
L 296.219644 45.383232 
L 298.258931 77.508814 
L 300.298218 58.262706 
L 302.337506 63.051863 
L 304.376793 59.629818 
L 306.41608 47.843931 
L 308.455368 45.79225 
L 310.494655 52.733419 
L 312.533942 58.143866 
L 314.57323 72.763302 
L 316.612517 39.141818 
L 318.651804 59.27139 
L 320.691092 49.701585 
L 322.730379 44.032318 
L 324.769667 58.50958 
L 326.808954 61.324811 
L 328.848241 52.463328 
L 330.887529 45.617191 
L 332.926816 48.761746 
L 334.966103 44.242077 
L 337.005391 56.115813 
L 339.044678 47.150838 
L 341.083965 51.907364 
L 343.123253 51.746243 
L 345.16254 49.282002 
L 347.201827 55.397243 
L 349.241115 55.690454 
L 351.280402 39.428156 
L 353.319689 56.135882 
L 355.358977 58.028152 
L 357.398264 66.869659 
L 359.437551 80.454309 
L 361.476839 52.837802 
L 363.516126 56.589007 
L 365.555413 48.284961 
L 367.594701 68.299623 
L 369.633988 55.850951 
L 371.673275 60.955676 
L 373.712563 54.541347 
L 375.75185 67.841147 
L 377.791138 49.866835 
L 379.830425 89.034507 
L 381.869712 67.698217 
L 383.909 70.328589 
L 385.948287 102.412854 
L 387.987574 72.619631 
L 390.026862 75.716759 
L 392.066149 64.220253 
L 394.105436 62.517528 
L 396.144724 97.224723 
L 398.184011 84.129579 
L 400.223298 84.878029 
L 402.262586 57.596518 
L 404.301873 81.636544 
L 406.34116 76.539683 
L 408.380448 70.946608 
L 410.419735 54.938791 
L 412.459022 72.36268 
L 414.49831 106.702052 
L 416.537597 79.33937 
L 418.576884 112.942212 
L 420.616172 100.88743 
L 422.655459 85.951652 
L 424.694746 79.27724 
L 426.734034 65.083193 
L 428.773321 65.969373 
L 430.812608 60.459525 
L 432.851896 62.689397 
L 434.891183 68.111921 
L 436.930471 61.383555 
L 438.969758 62.977171 
L 441.009045 73.017196 
L 443.048333 49.775102 
L 445.08762 65.490754 
L 447.126907 71.257987 
L 449.166195 65.523974 
L 451.205482 58.429883 
L 453.244769 64.779493 
L 455.284057 66.904925 
L 457.323344 57.0357 
L 459.362631 51.140156 
L 461.401919 62.174391 
L 463.441206 55.961256 
L 465.480493 64.875711 
L 467.519781 65.302399 
L 469.559068 53.493439 
L 471.598355 66.039454 
L 473.637643 67.909073 
L 475.67693 70.938587 
L 477.716217 51.899511 
L 479.755505 66.418274 
L 481.794792 61.72248 
L 483.834079 62.530974 
L 485.873367 69.554337 
L 487.912654 65.46196 
L 489.951942 46.64716 
L 491.991229 50.639527 
L 494.030516 43.657119 
L 496.069804 61.848884 
L 498.109091 60.253534 
L 498.109091 60.253534 
" clip-path="url(#paee12f40c8)" style="fill: none; stroke: #ff0000; stroke-opacity: 0.9; stroke-width: 1.5; stroke-linecap: square"/>
   </g>
   <g id="line2d_18">
    <path d="M 92.290909 111.180899 
L 94.330196 99.998967 
L 96.369484 119.278087 
L 98.408771 100.166346 
L 100.448058 91.066282 
L 102.487346 103.951418 
L 104.526633 98.28116 
L 106.565921 66.699304 
L 108.605208 111.561701 
L 110.644495 46.992366 
L 112.683783 80.722239 
L 114.72307 117.967217 
L 116.762357 120.117595 
L 118.801645 111.557933 
L 120.840932 69.556787 
L 122.880219 111.471972 
L 124.919507 68.099277 
L 126.958794 63.774802 
L 128.998081 84.836789 
L 131.037369 63.650623 
L 133.076656 50.581858 
L 135.115943 52.820963 
L 137.155231 104.266692 
L 139.194518 108.327432 
L 141.233805 123.935188 
L 143.273093 120.084785 
L 145.31238 120.202573 
L 147.351667 112.335507 
L 149.390955 116.999705 
L 151.430242 108.363802 
L 153.469529 106.846826 
L 155.508817 113.540134 
L 157.548104 126.909218 
L 159.587392 108.685304 
L 161.626679 122.41834 
L 163.665966 95.214797 
L 165.705254 94.396045 
L 167.744541 111.885306 
L 169.783828 50.520796 
L 171.823116 54.947822 
L 173.862403 74.767923 
L 175.90169 51.27157 
L 177.940978 43.969832 
L 179.980265 68.833218 
L 182.019552 64.39096 
L 184.05884 70.639106 
L 186.098127 65.928207 
L 188.137414 59.730571 
L 190.176702 68.49501 
L 192.215989 61.670416 
L 194.255276 48.350261 
L 196.294564 68.767436 
L 198.333851 74.597337 
L 200.373138 92.177233 
L 202.412426 70.988692 
L 204.451713 52.884683 
L 206.491 43.235681 
L 208.530288 73.052162 
L 210.569575 58.312164 
L 212.608862 110.604913 
L 214.64815 105.000315 
L 216.687437 93.129439 
L 218.726725 91.778241 
L 220.766012 108.258322 
L 222.805299 119.686937 
L 224.844587 118.791956 
L 226.883874 69.90186 
L 228.923161 58.548007 
L 230.962449 78.813281 
L 233.001736 73.319306 
L 235.041023 44.664168 
L 237.080311 59.359905 
L 239.119598 52.183725 
L 241.158885 74.049803 
L 243.198173 52.687492 
L 245.23746 80.842639 
L 247.276747 50.814025 
L 249.316035 101.134691 
L 251.355322 76.778143 
L 253.394609 109.757534 
L 257.473184 71.898056 
L 259.512471 65.469697 
L 261.551759 57.333852 
L 263.591046 68.644118 
L 265.630333 64.078611 
L 267.669621 60.933395 
L 269.708908 49.133533 
L 271.748196 40.159739 
L 273.787483 62.148 
L 275.82677 50.190198 
L 277.866058 65.562239 
L 279.905345 54.480933 
L 281.944632 81.479069 
L 283.98392 64.648149 
L 286.023207 63.077751 
L 288.062494 53.461958 
L 290.101782 67.224163 
L 292.141069 75.01289 
L 294.180356 54.629215 
L 296.219644 42.244693 
L 298.258931 78.580322 
L 300.298218 55.70909 
L 302.337506 60.829082 
L 304.376793 58.441457 
L 306.41608 45.460112 
L 308.455368 46.188101 
L 310.494655 56.799031 
L 312.533942 61.055713 
L 314.57323 72.445792 
L 316.612517 41.21813 
L 318.651804 57.022785 
L 320.691092 46.886221 
L 322.730379 42.950707 
L 326.808954 62.993761 
L 328.848241 46.724725 
L 332.926816 48.317217 
L 334.966103 46.624902 
L 337.005391 56.716092 
L 339.044678 41.635535 
L 341.083965 50.743961 
L 343.123253 56.749804 
L 345.16254 49.374868 
L 347.201827 53.132359 
L 349.241115 55.071661 
L 351.280402 42.004239 
L 353.319689 58.809015 
L 355.358977 58.112426 
L 357.398264 65.011106 
L 359.437551 82.901509 
L 361.476839 48.400718 
L 363.516126 56.383761 
L 365.555413 46.567131 
L 367.594701 70.035175 
L 369.633988 53.520488 
L 371.673275 62.605106 
L 373.712563 52.416725 
L 375.75185 68.428737 
L 377.791138 50.598447 
L 379.830425 93.513407 
L 381.869712 66.542592 
L 383.909 72.420916 
L 385.948287 99.379272 
L 387.987574 72.245972 
L 390.026862 79.948606 
L 392.066149 62.370576 
L 394.105436 66.914512 
L 396.144724 100.25441 
L 398.184011 83.200192 
L 400.223298 83.461616 
L 402.262586 59.3602 
L 404.301873 79.814927 
L 406.34116 68.464419 
L 408.380448 69.365052 
L 410.419735 47.70261 
L 412.459022 68.791862 
L 414.49831 104.389808 
L 416.537597 78.405748 
L 418.576884 111.917527 
L 420.616172 104.987487 
L 422.655459 85.833124 
L 424.694746 80.907717 
L 426.734034 61.820846 
L 428.773321 66.333423 
L 430.812608 64.760459 
L 432.851896 63.820227 
L 434.891183 71.094467 
L 436.930471 60.365804 
L 438.969758 60.339593 
L 441.009045 71.168784 
L 443.048333 48.53449 
L 445.08762 60.567808 
L 447.126907 69.664527 
L 449.166195 66.605808 
L 451.205482 56.820209 
L 453.244769 64.537445 
L 455.284057 62.590712 
L 457.323344 53.495155 
L 459.362631 50.440672 
L 461.401919 60.626719 
L 463.441206 60.570501 
L 465.480493 62.702716 
L 467.519781 55.212731 
L 469.559068 56.511078 
L 471.598355 68.002552 
L 473.637643 68.117277 
L 475.67693 70.418612 
L 477.716217 50.66234 
L 479.755505 65.24295 
L 481.794792 58.177618 
L 483.834079 61.845047 
L 485.873367 66.467501 
L 487.912654 67.05583 
L 489.951942 47.199001 
L 491.991229 50.304176 
L 494.030516 44.62568 
L 496.069804 64.627161 
L 498.109091 59.068075 
L 498.109091 59.068075 
" clip-path="url(#paee12f40c8)" style="fill: none; stroke: #008000; stroke-opacity: 0.9; stroke-width: 1.5; stroke-linecap: square"/>
   </g>
   <g id="line2d_19">
    <path d="M 153.469529 135.36 
L 153.469529 34.56 
" clip-path="url(#paee12f40c8)" style="fill: none; stroke-dasharray: 5.55,2.4; stroke-dashoffset: 0; stroke: #000000; stroke-width: 1.5"/>
   </g>
   <g id="line2d_20">
    <path d="M 438.969758 135.36 
L 438.969758 34.56 
" clip-path="url(#paee12f40c8)" style="fill: none; stroke-dasharray: 5.55,2.4; stroke-dashoffset: 0; stroke: #0000ff; stroke-width: 1.5"/>
   </g>
   <g id="patch_3">
    <path d="M 72 135.36 
L 72 34.56 
" style="fill: none; stroke: #000000; stroke-width: 0.8; stroke-linejoin: miter; stroke-linecap: square"/>
   </g>
   <g id="patch_4">
    <path d="M 518.4 135.36 
L 518.4 34.56 
" style="fill: none; stroke: #000000; stroke-width: 0.8; stroke-linejoin: miter; stroke-linecap: square"/>
   </g>
   <g id="patch_5">
    <path d="M 72 135.36 
L 518.4 135.36 
" style="fill: none; stroke: #000000; stroke-width: 0.8; stroke-linejoin: miter; stroke-linecap: square"/>
   </g>
   <g id="patch_6">
    <path d="M 72 34.56 
L 518.4 34.56 
" style="fill: none; stroke: #000000; stroke-width: 0.8; stroke-linejoin: miter; stroke-linecap: square"/>
   </g>
  </g>
  <g id="axes_2">
   <g id="patch_7">
    <path d="M 72 256.32 
L 518.4 256.32 
L 518.4 155.52 
L 72 155.52 
z
" style="fill: #ffffff"/>
   </g>
   <g id="matplotlib.axis_3">
    <g id="xtick_10">
     <g id="line2d_21">
      <g>
       <use xlink:href="#m7062f13548" x="92.290909" y="256.32" style="stroke: #000000; stroke-width: 0.8"/>
      </g>
     </g>
     <g id="text_4">
      <!-- 0 -->
      <g transform="translate(89.109659 270.918437) scale(0.1 -0.1)">
       <use xlink:href="#DejaVuSans-30"/>
      </g>
     </g>
    </g>
    <g id="xtick_11">
     <g id="line2d_22">
      <g>
       <use xlink:href="#m7062f13548" x="143.273093" y="256.32" style="stroke: #000000; stroke-width: 0.8"/>
      </g>
     </g>
     <g id="text_5">
      <!-- 25 -->
      <g transform="translate(136.910593 270.918437) scale(0.1 -0.1)">
       <defs>
        <path id="DejaVuSans-32" d="M 1228 531 
L 3431 531 
L 3431 0 
L 469 0 
L 469 531 
Q 828 903 1448 1529 
Q 2069 2156 2228 2338 
Q 2531 2678 2651 2914 
Q 2772 3150 2772 3378 
Q 2772 3750 2511 3984 
Q 2250 4219 1831 4219 
Q 1534 4219 1204 4116 
Q 875 4013 500 3803 
L 500 4441 
Q 881 4594 1212 4672 
Q 1544 4750 1819 4750 
Q 2544 4750 2975 4387 
Q 3406 4025 3406 3419 
Q 3406 3131 3298 2873 
Q 3191 2616 2906 2266 
Q 2828 2175 2409 1742 
Q 1991 1309 1228 531 
z
" transform="scale(0.015625)"/>
       </defs>
       <use xlink:href="#DejaVuSans-32"/>
       <use xlink:href="#DejaVuSans-35" transform="translate(63.623047 0)"/>
      </g>
     </g>
    </g>
    <g id="xtick_12">
     <g id="line2d_23">
      <g>
       <use xlink:href="#m7062f13548" x="194.255276" y="256.32" style="stroke: #000000; stroke-width: 0.8"/>
      </g>
     </g>
     <g id="text_6">
      <!-- 50 -->
      <g transform="translate(187.892776 270.918437) scale(0.1 -0.1)">
       <use xlink:href="#DejaVuSans-35"/>
       <use xlink:href="#DejaVuSans-30" transform="translate(63.623047 0)"/>
      </g>
     </g>
    </g>
    <g id="xtick_13">
     <g id="line2d_24">
      <g>
       <use xlink:href="#m7062f13548" x="245.23746" y="256.32" style="stroke: #000000; stroke-width: 0.8"/>
      </g>
     </g>
     <g id="text_7">
      <!-- 75 -->
      <g transform="translate(238.87496 270.918437) scale(0.1 -0.1)">
       <defs>
        <path id="DejaVuSans-37" d="M 525 4666 
L 3525 4666 
L 3525 4397 
L 1831 0 
L 1172 0 
L 2766 4134 
L 525 4134 
L 525 4666 
z
" transform="scale(0.015625)"/>
       </defs>
       <use xlink:href="#DejaVuSans-37"/>
       <use xlink:href="#DejaVuSans-35" transform="translate(63.623047 0)"/>
      </g>
     </g>
    </g>
    <g id="xtick_14">
     <g id="line2d_25">
      <g>
       <use xlink:href="#m7062f13548" x="296.219644" y="256.32" style="stroke: #000000; stroke-width: 0.8"/>
      </g>
     </g>
     <g id="text_8">
      <!-- 100 -->
      <g transform="translate(286.675894 270.918437) scale(0.1 -0.1)">
       <use xlink:href="#DejaVuSans-31"/>
       <use xlink:href="#DejaVuSans-30" transform="translate(63.623047 0)"/>
       <use xlink:href="#DejaVuSans-30" transform="translate(127.246094 0)"/>
      </g>
     </g>
    </g>
    <g id="xtick_15">
     <g id="line2d_26">
      <g>
       <use xlink:href="#m7062f13548" x="347.201827" y="256.32" style="stroke: #000000; stroke-width: 0.8"/>
      </g>
     </g>
     <g id="text_9">
      <!-- 125 -->
      <g transform="translate(337.658077 270.918437) scale(0.1 -0.1)">
       <use xlink:href="#DejaVuSans-31"/>
       <use xlink:href="#DejaVuSans-32" transform="translate(63.623047 0)"/>
       <use xlink:href="#DejaVuSans-35" transform="translate(127.246094 0)"/>
      </g>
     </g>
    </g>
    <g id="xtick_16">
     <g id="line2d_27">
      <g>
       <use xlink:href="#m7062f13548" x="398.184011" y="256.32" style="stroke: #000000; stroke-width: 0.8"/>
      </g>
     </g>
     <g id="text_10">
      <!-- 150 -->
      <g transform="translate(388.640261 270.918437) scale(0.1 -0.1)">
       <use xlink:href="#DejaVuSans-31"/>
       <use xlink:href="#DejaVuSans-35" transform="translate(63.623047 0)"/>
       <use xlink:href="#DejaVuSans-30" transform="translate(127.246094 0)"/>
      </g>
     </g>
    </g>
    <g id="xtick_17">
     <g id="line2d_28">
      <g>
       <use xlink:href="#m7062f13548" x="449.166195" y="256.32" style="stroke: #000000; stroke-width: 0.8"/>
      </g>
     </g>
     <g id="text_11">
      <!-- 175 -->
      <g transform="translate(439.622445 270.918437) scale(0.1 -0.1)">
       <use xlink:href="#DejaVuSans-31"/>
       <use xlink:href="#DejaVuSans-37" transform="translate(63.623047 0)"/>
       <use xlink:href="#DejaVuSans-35" transform="translate(127.246094 0)"/>
      </g>
     </g>
    </g>
    <g id="xtick_18">
     <g id="line2d_29">
      <g>
       <use xlink:href="#m7062f13548" x="500.148378" y="256.32" style="stroke: #000000; stroke-width: 0.8"/>
      </g>
     </g>
     <g id="text_12">
      <!-- 200 -->
      <g transform="translate(490.604628 270.918437) scale(0.1 -0.1)">
       <use xlink:href="#DejaVuSans-32"/>
       <use xlink:href="#DejaVuSans-30" transform="translate(63.623047 0)"/>
       <use xlink:href="#DejaVuSans-30" transform="translate(127.246094 0)"/>
      </g>
     </g>
    </g>
   </g>
   <g id="matplotlib.axis_4">
    <g id="ytick_4">
     <g id="line2d_30">
      <g>
       <use xlink:href="#me27c835160" x="72" y="253.01603" style="stroke: #000000; stroke-width: 0.8"/>
      </g>
     </g>
     <g id="text_13">
      <!-- −200 -->
      <g transform="translate(37.532812 256.815249) scale(0.1 -0.1)">
       <use xlink:href="#DejaVuSans-2212"/>
       <use xlink:href="#DejaVuSans-32" transform="translate(83.789062 0)"/>
       <use xlink:href="#DejaVuSans-30" transform="translate(147.412109 0)"/>
       <use xlink:href="#DejaVuSans-30" transform="translate(211.035156 0)"/>
      </g>
     </g>
    </g>
    <g id="ytick_5">
     <g id="line2d_31">
      <g>
       <use xlink:href="#me27c835160" x="72" y="228.813022" style="stroke: #000000; stroke-width: 0.8"/>
      </g>
     </g>
     <g id="text_14">
      <!-- −100 -->
      <g transform="translate(37.532812 232.612241) scale(0.1 -0.1)">
       <use xlink:href="#DejaVuSans-2212"/>
       <use xlink:href="#DejaVuSans-31" transform="translate(83.789062 0)"/>
       <use xlink:href="#DejaVuSans-30" transform="translate(147.412109 0)"/>
       <use xlink:href="#DejaVuSans-30" transform="translate(211.035156 0)"/>
      </g>
     </g>
    </g>
    <g id="ytick_6">
     <g id="line2d_32">
      <g>
       <use xlink:href="#me27c835160" x="72" y="204.610014" style="stroke: #000000; stroke-width: 0.8"/>
      </g>
     </g>
     <g id="text_15">
      <!-- 0 -->
      <g transform="translate(58.6375 208.409233) scale(0.1 -0.1)">
       <use xlink:href="#DejaVuSans-30"/>
      </g>
     </g>
    </g>
    <g id="ytick_7">
     <g id="line2d_33">
      <g>
       <use xlink:href="#me27c835160" x="72" y="180.407007" style="stroke: #000000; stroke-width: 0.8"/>
      </g>
     </g>
     <g id="text_16">
      <!-- 100 -->
      <g transform="translate(45.9125 184.206225) scale(0.1 -0.1)">
       <use xlink:href="#DejaVuSans-31"/>
       <use xlink:href="#DejaVuSans-30" transform="translate(63.623047 0)"/>
       <use xlink:href="#DejaVuSans-30" transform="translate(127.246094 0)"/>
      </g>
     </g>
    </g>
    <g id="ytick_8">
     <g id="line2d_34">
      <g>
       <use xlink:href="#me27c835160" x="72" y="156.203999" style="stroke: #000000; stroke-width: 0.8"/>
      </g>
     </g>
     <g id="text_17">
      <!-- 200 -->
      <g transform="translate(45.9125 160.003217) scale(0.1 -0.1)">
       <use xlink:href="#DejaVuSans-32"/>
       <use xlink:href="#DejaVuSans-30" transform="translate(63.623047 0)"/>
       <use xlink:href="#DejaVuSans-30" transform="translate(127.246094 0)"/>
      </g>
     </g>
    </g>
   </g>
   <g id="line2d_35">
    <path d="M 92.290909 176.437035 
L 94.330196 170.163479 
L 96.369484 164.29049 
L 98.408771 162.886881 
L 100.448058 170.444911 
L 102.487346 166.647754 
L 104.526633 167.968992 
L 106.565921 162.956592 
L 108.605208 165.168185 
L 110.644495 177.328199 
L 112.683783 248.202074 
L 114.72307 162.636287 
L 116.762357 165.4557 
L 118.801645 170.813614 
L 120.840932 161.475816 
L 122.880219 168.576926 
L 124.919507 166.239764 
L 126.958794 180.31694 
L 128.998081 164.39708 
L 133.076656 173.231307 
L 135.115943 168.019447 
L 137.155231 167.297464 
L 139.194518 165.06041 
L 141.233805 169.392201 
L 143.273093 165.783864 
L 145.31238 161.017759 
L 147.351667 161.808175 
L 149.390955 163.480851 
L 151.430242 163.378047 
L 153.469529 163.484179 
L 155.508817 167.866339 
L 157.548104 164.71798 
L 159.587392 165.557751 
L 161.626679 168.594003 
L 163.665966 168.661959 
L 165.705254 249.630039 
L 167.744541 162.713476 
L 169.783828 169.207166 
L 171.823116 166.726217 
L 173.862403 168.095769 
L 175.90169 172.077864 
L 177.940978 172.056308 
L 179.980265 184.701098 
L 182.019552 170.05737 
L 184.05884 172.102457 
L 186.098127 188.588492 
L 188.137414 173.153764 
L 190.176702 174.932553 
L 192.215989 199.043753 
L 194.255276 193.306973 
L 196.294564 190.137232 
L 198.333851 188.433646 
L 200.373138 171.420602 
L 202.412426 165.259678 
L 204.451713 168.698089 
L 206.491 167.301471 
L 208.530288 176.935818 
L 210.569575 166.391446 
L 212.608862 164.279286 
L 214.64815 168.697627 
L 216.687437 162.000921 
L 218.726725 167.995793 
L 220.766012 168.179085 
L 222.805299 170.173399 
L 224.844587 163.04739 
L 226.883874 179.428187 
L 228.923161 187.131828 
L 230.962449 167.550529 
L 233.001736 171.749889 
L 235.041023 166.778593 
L 237.080311 165.931424 
L 239.119598 168.89924 
L 241.158885 165.059203 
L 243.198173 171.358802 
L 245.23746 163.486173 
L 247.276747 165.932281 
L 249.316035 164.603003 
L 251.355322 169.859324 
L 253.394609 167.056446 
L 255.433897 163.554111 
L 257.473184 170.236204 
L 259.512471 163.88749 
L 261.551759 162.463255 
L 263.591046 165.692774 
L 265.630333 169.429486 
L 267.669621 163.235235 
L 269.708908 165.314262 
L 271.748196 164.709386 
L 273.787483 167.210901 
L 275.82677 162.587162 
L 277.866058 249.583853 
L 279.905345 168.326169 
L 281.944632 165.546753 
L 283.98392 164.417872 
L 286.023207 169.768164 
L 288.062494 172.042119 
L 290.101782 169.313575 
L 292.141069 173.191452 
L 294.180356 168.030781 
L 296.219644 167.385208 
L 298.258931 174.813676 
L 300.298218 171.258273 
L 302.337506 165.734003 
L 304.376793 170.703457 
L 306.41608 165.486526 
L 308.455368 168.305355 
L 310.494655 167.890773 
L 312.533942 165.110097 
L 314.57323 249.723422 
L 316.612517 160.101818 
L 318.651804 163.117127 
L 320.691092 163.526539 
L 322.730379 165.805764 
L 324.769667 165.850103 
L 326.808954 165.044094 
L 328.848241 167.604902 
L 330.887529 167.446616 
L 332.926816 163.960306 
L 334.966103 165.743546 
L 337.005391 162.405643 
L 339.044678 163.46195 
L 341.083965 163.955653 
L 343.123253 164.155323 
L 345.16254 166.282172 
L 347.201827 164.236656 
L 349.241115 251.051157 
L 351.280402 164.196693 
L 353.319689 165.143135 
L 355.358977 172.021796 
L 357.398264 168.192062 
L 359.437551 171.444511 
L 361.476839 167.242259 
L 363.516126 166.863714 
L 365.555413 171.643436 
L 367.594701 166.796674 
L 369.633988 171.397919 
L 371.673275 166.323896 
L 373.712563 172.218623 
L 375.75185 176.594752 
L 377.791138 174.558905 
L 379.830425 166.273271 
L 381.869712 179.121687 
L 383.909 172.891673 
L 385.948287 169.986466 
L 387.987574 168.885782 
L 390.026862 172.016319 
L 392.066149 172.561452 
L 394.105436 172.547809 
L 396.144724 248.5952 
L 398.184011 165.204939 
L 400.223298 172.753378 
L 404.301873 170.970411 
L 406.34116 168.268007 
L 408.380448 174.175528 
L 410.419735 167.826325 
L 412.459022 171.755332 
L 414.49831 164.826235 
L 416.537597 167.655593 
L 418.576884 160.919899 
L 420.616172 169.353456 
L 422.655459 168.320286 
L 424.694746 172.746575 
L 426.734034 167.614873 
L 428.773321 172.003992 
L 430.812608 176.016901 
L 432.851896 173.593979 
L 434.891183 173.551982 
L 436.930471 179.21626 
L 438.969758 170.65576 
L 441.009045 178.800137 
L 443.048333 173.764373 
L 445.08762 175.464114 
L 447.126907 175.691353 
L 449.166195 164.002145 
L 451.205482 169.713691 
L 453.244769 173.568992 
L 455.284057 179.019317 
L 457.323344 180.808061 
L 459.362631 175.214714 
L 461.401919 173.071105 
L 463.441206 177.813733 
L 465.480493 174.43915 
L 467.519781 175.565622 
L 469.559068 175.570634 
L 471.598355 171.61956 
L 473.637643 176.447095 
L 475.67693 179.623001 
L 477.716217 180.11707 
L 479.755505 174.37433 
L 481.794792 176.453216 
L 483.834079 171.165742 
L 485.873367 174.252863 
L 487.912654 178.264189 
L 489.951942 172.924257 
L 491.991229 168.715402 
L 494.030516 169.837059 
L 496.069804 174.094622 
L 498.109091 176.067594 
L 498.109091 176.067594 
" clip-path="url(#pebafd49fc1)" style="fill: none; stroke: #ff0000; stroke-opacity: 0.9; stroke-width: 1.5; stroke-linecap: square"/>
   </g>
   <g id="line2d_36">
    <path d="M 92.290909 176.845984 
L 94.330196 171.6248 
L 96.369484 163.989677 
L 98.408771 164.639232 
L 100.448058 171.186394 
L 102.487346 166.292184 
L 104.526633 169.516325 
L 106.565921 163.232942 
L 108.605208 164.669933 
L 110.644495 175.548809 
L 112.683783 247.865501 
L 114.72307 162.713439 
L 116.762357 164.55267 
L 118.801645 171.087752 
L 120.840932 162.982078 
L 122.880219 167.934628 
L 124.919507 166.928406 
L 126.958794 181.34972 
L 128.998081 164.176152 
L 131.037369 167.921965 
L 133.076656 174.188825 
L 135.115943 168.31824 
L 137.155231 167.047881 
L 139.194518 166.126948 
L 141.233805 169.015343 
L 143.273093 166.562133 
L 145.31238 162.711519 
L 147.351667 161.3113 
L 149.390955 164.142601 
L 151.430242 162.563692 
L 153.469529 165.419234 
L 155.508817 169.56921 
L 157.548104 164.193089 
L 159.587392 166.630718 
L 161.626679 168.857678 
L 163.665966 168.311748 
L 165.705254 249.46416 
L 167.744541 163.869353 
L 169.783828 167.743648 
L 171.823116 166.76868 
L 173.862403 168.593866 
L 175.90169 172.83703 
L 177.940978 171.065242 
L 179.980265 185.527843 
L 182.019552 170.27675 
L 184.05884 173.874807 
L 186.098127 188.156148 
L 188.137414 173.665732 
L 190.176702 173.954393 
L 192.215989 197.218248 
L 194.255276 193.389962 
L 196.294564 189.927644 
L 198.333851 188.708512 
L 200.373138 173.453136 
L 202.412426 164.957975 
L 204.451713 169.452176 
L 206.491 166.738559 
L 208.530288 175.49961 
L 210.569575 167.98584 
L 212.608862 164.466289 
L 214.64815 168.940115 
L 216.687437 162.115854 
L 218.726725 168.212178 
L 220.766012 166.99257 
L 222.805299 170.28691 
L 224.844587 163.701879 
L 226.883874 178.243312 
L 228.923161 187.467757 
L 230.962449 166.743881 
L 233.001736 171.467128 
L 235.041023 167.297157 
L 237.080311 166.755636 
L 239.119598 168.222116 
L 241.158885 164.600939 
L 243.198173 171.723166 
L 245.23746 162.534783 
L 249.316035 165.14257 
L 251.355322 171.023725 
L 253.394609 166.421804 
L 255.433897 163.438772 
L 257.473184 169.363446 
L 259.512471 164.199607 
L 261.551759 163.047187 
L 263.591046 164.313554 
L 265.630333 168.853065 
L 267.669621 165.300752 
L 269.708908 165.772341 
L 271.748196 165.38001 
L 273.787483 166.570742 
L 275.82677 162.996363 
L 277.866058 248.901929 
L 279.905345 167.669786 
L 281.944632 164.450674 
L 283.98392 163.442735 
L 286.023207 171.08777 
L 288.062494 171.48919 
L 290.101782 169.782925 
L 292.141069 171.309008 
L 294.180356 168.279651 
L 296.219644 168.542735 
L 298.258931 174.855453 
L 300.298218 169.167635 
L 302.337506 164.472822 
L 304.376793 170.918586 
L 306.41608 164.698724 
L 308.455368 167.679377 
L 310.494655 168.525341 
L 312.533942 163.773421 
L 314.57323 249.559036 
L 316.612517 160.449928 
L 318.651804 162.044751 
L 320.691092 162.862311 
L 322.730379 166.749786 
L 324.769667 165.268719 
L 326.808954 165.826009 
L 328.848241 168.189599 
L 330.887529 167.400482 
L 332.926816 163.792171 
L 334.966103 166.211892 
L 337.005391 160.265965 
L 339.044678 164.465964 
L 341.083965 163.521992 
L 343.123253 163.081618 
L 345.16254 165.191522 
L 347.201827 164.09924 
L 349.241115 249.530348 
L 351.280402 163.90604 
L 353.319689 165.432854 
L 355.358977 171.531214 
L 357.398264 167.603222 
L 359.437551 171.695253 
L 361.476839 167.604943 
L 363.516126 167.21078 
L 365.555413 170.890866 
L 367.594701 167.212656 
L 369.633988 170.258916 
L 371.673275 166.242645 
L 373.712563 172.88241 
L 375.75185 176.733012 
L 377.791138 174.411025 
L 379.830425 165.99982 
L 381.869712 178.339931 
L 383.909 171.563724 
L 385.948287 170.063821 
L 387.987574 168.011636 
L 390.026862 172.639154 
L 392.066149 171.708847 
L 394.105436 172.620689 
L 396.144724 248.299738 
L 398.184011 165.526943 
L 400.223298 172.156693 
L 402.262586 170.816014 
L 404.301873 170.394903 
L 406.34116 167.554569 
L 408.380448 173.062182 
L 410.419735 166.26758 
L 412.459022 171.683531 
L 414.49831 165.736555 
L 416.537597 169.137924 
L 418.576884 160.924279 
L 420.616172 169.125109 
L 422.655459 166.784671 
L 424.694746 171.739223 
L 426.734034 167.513783 
L 428.773321 173.85335 
L 430.812608 176.912965 
L 432.851896 172.287676 
L 434.891183 175.690853 
L 436.930471 178.825308 
L 438.969758 170.389485 
L 441.009045 178.356651 
L 443.048333 171.736099 
L 445.08762 174.186943 
L 447.126907 175.16182 
L 449.166195 163.868906 
L 451.205482 169.939505 
L 453.244769 173.112024 
L 455.284057 179.251089 
L 457.323344 179.69644 
L 459.362631 175.196384 
L 461.401919 172.963825 
L 463.441206 177.671826 
L 465.480493 175.401704 
L 467.519781 176.27225 
L 469.559068 176.470949 
L 471.598355 169.520853 
L 473.637643 176.013377 
L 475.67693 177.988443 
L 477.716217 179.367783 
L 479.755505 174.453793 
L 481.794792 176.71013 
L 483.834079 171.31512 
L 485.873367 174.034795 
L 487.912654 178.154486 
L 489.951942 173.117989 
L 491.991229 168.538333 
L 494.030516 169.742486 
L 496.069804 174.159755 
L 498.109091 176.732687 
L 498.109091 176.732687 
" clip-path="url(#pebafd49fc1)" style="fill: none; stroke: #ff0000; stroke-opacity: 0.9; stroke-width: 1.5; stroke-linecap: square"/>
   </g>
   <g id="line2d_37">
    <path d="M 92.290909 177.001911 
L 94.330196 170.756559 
L 96.369484 165.22904 
L 98.408771 165.364569 
L 100.448058 169.537878 
L 102.487346 167.530464 
L 104.526633 169.077598 
L 106.565921 162.915259 
L 108.605208 164.569499 
L 110.644495 176.389904 
L 112.683783 248.200734 
L 114.72307 162.419311 
L 116.762357 164.362073 
L 118.801645 171.331606 
L 120.840932 162.189036 
L 122.880219 168.129538 
L 124.919507 166.491208 
L 126.958794 180.503252 
L 128.998081 164.010876 
L 131.037369 167.836255 
L 133.076656 173.903538 
L 135.115943 169.186569 
L 137.155231 166.883155 
L 139.194518 166.500152 
L 141.233805 169.007724 
L 143.273093 166.437473 
L 145.31238 161.746527 
L 147.351667 161.327904 
L 149.390955 164.233214 
L 151.430242 163.608979 
L 153.469529 164.692376 
L 155.508817 169.875112 
L 157.548104 164.636064 
L 159.587392 167.227376 
L 161.626679 168.327476 
L 163.665966 168.609444 
L 165.705254 248.425809 
L 167.744541 164.204405 
L 169.783828 168.733103 
L 171.823116 167.047198 
L 173.862403 166.990775 
L 175.90169 172.526696 
L 177.940978 172.382762 
L 179.980265 185.125315 
L 182.019552 169.336276 
L 184.05884 173.112892 
L 186.098127 188.606684 
L 188.137414 173.002676 
L 190.176702 175.081364 
L 192.215989 197.618559 
L 194.255276 193.321998 
L 196.294564 190.159234 
L 198.333851 188.746273 
L 200.373138 171.668478 
L 202.412426 164.826265 
L 204.451713 166.764943 
L 206.491 167.216836 
L 208.530288 174.28986 
L 210.569575 166.735088 
L 212.608862 163.102366 
L 214.64815 170.040027 
L 216.687437 161.729742 
L 218.726725 169.397031 
L 220.766012 166.709236 
L 222.805299 171.896467 
L 224.844587 163.401206 
L 226.883874 178.662749 
L 228.923161 186.941102 
L 230.962449 167.425939 
L 233.001736 171.091315 
L 235.041023 166.387388 
L 237.080311 166.573124 
L 239.119598 169.53188 
L 241.158885 164.952406 
L 243.198173 170.958087 
L 245.23746 162.219929 
L 247.276747 165.331468 
L 249.316035 165.559933 
L 251.355322 170.645604 
L 253.394609 165.654831 
L 255.433897 162.581286 
L 257.473184 171.212471 
L 259.512471 164.943867 
L 261.551759 162.800537 
L 263.591046 166.227363 
L 265.630333 168.606851 
L 267.669621 164.996675 
L 269.708908 165.2599 
L 271.748196 167.180031 
L 273.787483 167.291215 
L 275.82677 161.449828 
L 277.866058 249.030315 
L 279.905345 168.178723 
L 281.944632 165.031748 
L 283.98392 163.81594 
L 286.023207 170.503926 
L 288.062494 171.420133 
L 290.101782 171.083549 
L 292.141069 171.469096 
L 294.180356 167.569637 
L 296.219644 168.082588 
L 298.258931 174.174405 
L 300.298218 170.191299 
L 302.337506 165.120201 
L 304.376793 170.169503 
L 306.41608 164.353635 
L 308.455368 167.593099 
L 310.494655 168.046924 
L 312.533942 163.268226 
L 314.57323 249.821965 
L 316.612517 161.952682 
L 318.651804 162.498391 
L 320.691092 162.428651 
L 322.730379 165.803437 
L 324.769667 166.287157 
L 326.808954 164.457684 
L 328.848241 166.526754 
L 330.887529 166.720918 
L 332.926816 165.880283 
L 334.966103 166.236551 
L 337.005391 161.431019 
L 339.044678 163.739825 
L 341.083965 164.507145 
L 343.123253 164.074434 
L 345.16254 166.359158 
L 347.201827 164.794364 
L 349.241115 250.836663 
L 351.280402 163.077829 
L 353.319689 163.949223 
L 355.358977 170.689707 
L 357.398264 168.17575 
L 359.437551 171.16473 
L 361.476839 166.382291 
L 363.516126 167.010987 
L 365.555413 169.866954 
L 367.594701 167.831454 
L 369.633988 171.177763 
L 371.673275 166.184427 
L 373.712563 171.715709 
L 375.75185 175.18078 
L 377.791138 174.21228 
L 379.830425 166.796046 
L 381.869712 178.547935 
L 383.909 173.22148 
L 387.987574 168.810539 
L 390.026862 171.830387 
L 392.066149 172.177832 
L 394.105436 171.338575 
L 396.144724 247.719152 
L 398.184011 165.680199 
L 400.223298 172.294863 
L 402.262586 171.597582 
L 404.301873 171.744453 
L 406.34116 167.469451 
L 408.380448 173.71425 
L 410.419735 167.797748 
L 412.459022 171.846245 
L 414.49831 164.788281 
L 416.537597 166.956256 
L 418.576884 161.088035 
L 420.616172 169.359875 
L 422.655459 168.377307 
L 424.694746 172.261115 
L 426.734034 168.877654 
L 428.773321 172.341355 
L 430.812608 177.324367 
L 432.851896 172.594442 
L 434.891183 175.053217 
L 436.930471 179.368533 
L 438.969758 171.705369 
L 441.009045 178.638966 
L 443.048333 171.69002 
L 445.08762 175.08445 
L 447.126907 175.138302 
L 449.166195 165.408339 
L 453.244769 172.978423 
L 455.284057 180.124897 
L 457.323344 181.15582 
L 459.362631 173.085781 
L 461.401919 174.358411 
L 463.441206 176.313068 
L 465.480493 174.969122 
L 467.519781 175.235259 
L 469.559068 176.94643 
L 471.598355 170.104312 
L 473.637643 175.759273 
L 475.67693 178.603113 
L 477.716217 180.704348 
L 479.755505 174.524194 
L 481.794792 176.539432 
L 483.834079 171.344942 
L 485.873367 174.993432 
L 487.912654 176.86692 
L 489.951942 172.503537 
L 491.991229 169.560358 
L 494.030516 169.507761 
L 496.069804 174.360031 
L 498.109091 175.836288 
L 498.109091 175.836288 
" clip-path="url(#pebafd49fc1)" style="fill: none; stroke: #ff0000; stroke-opacity: 0.9; stroke-width: 1.5; stroke-linecap: square"/>
   </g>
   <g id="line2d_38">
    <path d="M 92.290909 176.296089 
L 96.369484 165.14746 
L 98.408771 164.022893 
L 100.448058 170.314696 
L 102.487346 165.377831 
L 104.526633 168.515484 
L 106.565921 163.73426 
L 108.605208 164.95289 
L 110.644495 176.070138 
L 112.683783 248.5295 
L 114.72307 162.382963 
L 116.762357 163.986996 
L 118.801645 170.60501 
L 120.840932 162.681295 
L 122.880219 169.040456 
L 124.919507 166.680726 
L 126.958794 179.917233 
L 128.998081 164.305747 
L 131.037369 167.294742 
L 133.076656 174.780799 
L 135.115943 169.580633 
L 137.155231 165.043688 
L 139.194518 165.130763 
L 141.233805 168.788913 
L 143.273093 165.49201 
L 145.31238 161.296952 
L 147.351667 162.102101 
L 149.390955 164.526822 
L 151.430242 164.122533 
L 153.469529 164.148502 
L 155.508817 168.327207 
L 157.548104 164.666661 
L 159.587392 166.444435 
L 161.626679 169.152431 
L 163.665966 169.002602 
L 165.705254 248.649207 
L 167.744541 162.791555 
L 169.783828 168.683737 
L 171.823116 166.806032 
L 173.862403 167.217604 
L 175.90169 173.104583 
L 177.940978 170.132306 
L 179.980265 184.079592 
L 182.019552 169.999709 
L 184.05884 173.762207 
L 186.098127 188.86339 
L 188.137414 173.361743 
L 190.176702 174.878562 
L 192.215989 198.182626 
L 194.255276 193.433082 
L 196.294564 189.939721 
L 198.333851 188.442168 
L 200.373138 172.457691 
L 202.412426 164.603021 
L 204.451713 168.374153 
L 206.491 166.930142 
L 208.530288 174.776057 
L 210.569575 165.993993 
L 212.608862 162.943688 
L 214.64815 169.199754 
L 216.687437 161.647197 
L 218.726725 168.778897 
L 220.766012 167.646682 
L 222.805299 169.986052 
L 224.844587 163.454328 
L 226.883874 177.951952 
L 228.923161 186.987074 
L 230.962449 166.693899 
L 233.001736 171.035325 
L 235.041023 167.833076 
L 237.080311 167.014134 
L 239.119598 169.310572 
L 241.158885 165.855343 
L 243.198173 170.531518 
L 245.23746 163.850518 
L 247.276747 165.145554 
L 249.316035 165.610787 
L 251.355322 170.078003 
L 253.394609 167.129554 
L 255.433897 163.413024 
L 257.473184 169.614358 
L 259.512471 164.061353 
L 261.551759 161.96409 
L 265.630333 169.395753 
L 267.669621 164.574238 
L 269.708908 165.00436 
L 271.748196 166.207128 
L 273.787483 166.866998 
L 275.82677 162.365709 
L 277.866058 250.298093 
L 279.905345 168.36461 
L 281.944632 164.818746 
L 283.98392 163.091475 
L 286.023207 169.813752 
L 288.062494 171.699556 
L 290.101782 170.362027 
L 292.141069 172.04394 
L 294.180356 167.468254 
L 296.219644 168.336739 
L 298.258931 174.786702 
L 302.337506 164.962724 
L 304.376793 171.1677 
L 306.41608 164.720942 
L 308.455368 168.068768 
L 310.494655 167.686131 
L 312.533942 163.625595 
L 314.57323 249.617992 
L 316.612517 162.689623 
L 318.651804 162.358722 
L 320.691092 162.952489 
L 322.730379 165.528391 
L 324.769667 165.39702 
L 326.808954 164.835612 
L 328.848241 167.395349 
L 330.887529 167.132368 
L 332.926816 164.994559 
L 334.966103 165.534481 
L 337.005391 162.929784 
L 339.044678 163.188946 
L 341.083965 162.282471 
L 343.123253 163.791732 
L 345.16254 166.326415 
L 347.201827 163.765175 
L 349.241115 249.579628 
L 351.280402 164.353542 
L 353.319689 164.604078 
L 355.358977 170.78948 
L 357.398264 168.49943 
L 359.437551 172.151914 
L 361.476839 166.71078 
L 363.516126 166.850541 
L 365.555413 171.005876 
L 367.594701 167.106243 
L 369.633988 171.234574 
L 371.673275 165.639486 
L 373.712563 173.477392 
L 375.75185 177.081903 
L 377.791138 173.344541 
L 379.830425 165.891288 
L 381.869712 178.439554 
L 383.909 171.508091 
L 385.948287 168.475144 
L 387.987574 169.609627 
L 390.026862 172.41559 
L 392.066149 173.575008 
L 394.105436 172.49878 
L 396.144724 247.584358 
L 398.184011 165.74567 
L 400.223298 171.330133 
L 402.262586 171.536654 
L 404.301873 171.048708 
L 406.34116 167.5026 
L 408.380448 172.149913 
L 410.419735 166.323047 
L 412.459022 171.923021 
L 414.49831 165.122195 
L 416.537597 167.449582 
L 418.576884 161.442316 
L 420.616172 168.389864 
L 422.655459 167.04937 
L 424.694746 170.923214 
L 426.734034 168.365419 
L 428.773321 172.544146 
L 430.812608 175.842053 
L 432.851896 173.181336 
L 434.891183 174.266939 
L 436.930471 178.412487 
L 438.969758 171.045311 
L 441.009045 178.039737 
L 443.048333 172.856998 
L 445.08762 174.424931 
L 447.126907 176.221333 
L 449.166195 163.976578 
L 451.205482 169.678363 
L 453.244769 174.0854 
L 455.284057 178.815449 
L 457.323344 180.285332 
L 459.362631 172.686917 
L 461.401919 172.828731 
L 463.441206 177.21991 
L 465.480493 175.623384 
L 467.519781 174.928856 
L 469.559068 177.106937 
L 471.598355 170.206836 
L 473.637643 175.897734 
L 475.67693 178.398784 
L 477.716217 180.189057 
L 479.755505 173.31421 
L 481.794792 176.98484 
L 483.834079 171.701299 
L 485.873367 174.192202 
L 487.912654 178.403668 
L 489.951942 172.752059 
L 491.991229 169.341092 
L 494.030516 169.182481 
L 496.069804 173.893947 
L 498.109091 176.309723 
L 498.109091 176.309723 
" clip-path="url(#pebafd49fc1)" style="fill: none; stroke: #ff0000; stroke-opacity: 0.9; stroke-width: 1.5; stroke-linecap: square"/>
   </g>
   <g id="line2d_39">
    <path d="M 92.290909 177.06135 
L 94.330196 169.800512 
L 96.369484 165.6628 
L 98.408771 164.359643 
L 100.448058 170.840359 
L 102.487346 166.371792 
L 104.526633 168.296288 
L 106.565921 163.565427 
L 108.605208 165.640494 
L 110.644495 175.437537 
L 112.683783 248.722197 
L 114.72307 161.899694 
L 116.762357 164.128582 
L 118.801645 170.702275 
L 120.840932 161.249589 
L 122.880219 167.975448 
L 124.919507 167.611239 
L 126.958794 180.62091 
L 128.998081 164.117857 
L 131.037369 168.007386 
L 133.076656 173.044009 
L 135.115943 168.043833 
L 139.194518 164.93801 
L 141.233805 167.535409 
L 143.273093 165.35794 
L 145.31238 161.262201 
L 147.351667 162.124828 
L 149.390955 163.952891 
L 151.430242 163.113703 
L 153.469529 164.993211 
L 155.508817 169.042631 
L 157.548104 164.292027 
L 159.587392 166.929847 
L 161.626679 169.37064 
L 163.665966 169.792498 
L 165.705254 248.802622 
L 167.744541 163.682372 
L 169.783828 168.442091 
L 171.823116 167.247105 
L 173.862403 168.134443 
L 175.90169 171.741443 
L 177.940978 170.934514 
L 179.980265 185.287796 
L 182.019552 170.195299 
L 184.05884 172.880147 
L 186.098127 189.073852 
L 188.137414 174.092474 
L 190.176702 174.630715 
L 192.215989 197.873467 
L 194.255276 194.095421 
L 196.294564 189.941289 
L 198.333851 188.741651 
L 200.373138 172.223339 
L 202.412426 163.702629 
L 204.451713 168.263778 
L 206.491 167.148444 
L 208.530288 176.272975 
L 210.569575 166.956921 
L 212.608862 164.62566 
L 214.64815 168.297913 
L 216.687437 161.780204 
L 218.726725 168.390931 
L 220.766012 166.609689 
L 222.805299 170.23822 
L 224.844587 163.032821 
L 226.883874 179.740478 
L 228.923161 186.541652 
L 230.962449 166.5287 
L 233.001736 171.636467 
L 235.041023 167.252157 
L 237.080311 166.682081 
L 239.119598 169.330112 
L 241.158885 164.422448 
L 243.198173 170.990934 
L 245.23746 163.435877 
L 247.276747 164.600514 
L 249.316035 165.957365 
L 251.355322 169.802691 
L 253.394609 165.920707 
L 255.433897 163.527303 
L 257.473184 169.584991 
L 259.512471 164.498673 
L 261.551759 162.868715 
L 263.591046 166.051915 
L 265.630333 168.14468 
L 267.669621 163.556748 
L 269.708908 164.8564 
L 271.748196 165.679094 
L 273.787483 166.653766 
L 275.82677 163.260245 
L 277.866058 248.918943 
L 279.905345 167.708094 
L 281.944632 164.273495 
L 283.98392 164.148332 
L 286.023207 169.366231 
L 288.062494 171.174772 
L 290.101782 169.737611 
L 292.141069 172.677282 
L 294.180356 167.502323 
L 296.219644 167.490812 
L 298.258931 175.45377 
L 302.337506 164.919512 
L 304.376793 171.147617 
L 306.41608 163.661189 
L 308.455368 167.476855 
L 310.494655 168.198266 
L 312.533942 163.561099 
L 314.57323 249.397275 
L 316.612517 161.682717 
L 318.651804 163.260186 
L 320.691092 162.367464 
L 322.730379 165.140233 
L 324.769667 164.949599 
L 326.808954 164.995068 
L 328.848241 167.113452 
L 330.887529 167.10765 
L 332.926816 164.440692 
L 334.966103 165.614957 
L 337.005391 162.679648 
L 339.044678 163.404678 
L 341.083965 163.589203 
L 343.123253 163.405088 
L 345.16254 165.065289 
L 347.201827 163.499875 
L 349.241115 251.738182 
L 351.280402 163.358965 
L 353.319689 165.483918 
L 355.358977 171.660922 
L 357.398264 167.797855 
L 359.437551 171.7407 
L 361.476839 166.906462 
L 363.516126 166.121785 
L 365.555413 171.239246 
L 367.594701 167.92137 
L 369.633988 170.49462 
L 371.673275 166.047624 
L 373.712563 172.432016 
L 375.75185 177.346177 
L 377.791138 173.794582 
L 379.830425 165.986241 
L 381.869712 179.34529 
L 383.909 172.706723 
L 385.948287 170.05686 
L 387.987574 168.802695 
L 390.026862 171.960033 
L 394.105436 173.086959 
L 396.144724 247.617488 
L 398.184011 165.287513 
L 400.223298 170.360764 
L 402.262586 171.967533 
L 404.301873 170.787781 
L 406.34116 168.302681 
L 408.380448 173.03995 
L 410.419735 167.237377 
L 412.459022 172.412395 
L 414.49831 165.681968 
L 416.537597 166.515885 
L 418.576884 161.505763 
L 420.616172 168.684989 
L 422.655459 167.636467 
L 424.694746 172.366542 
L 426.734034 168.750324 
L 428.773321 172.676056 
L 430.812608 175.299805 
L 432.851896 173.199909 
L 434.891183 173.217676 
L 436.930471 179.197617 
L 438.969758 172.040815 
L 441.009045 178.478183 
L 443.048333 172.572498 
L 445.08762 175.43056 
L 447.126907 176.07153 
L 449.166195 165.100816 
L 451.205482 169.374928 
L 453.244769 173.242183 
L 455.284057 180.251129 
L 457.323344 179.76926 
L 459.362631 175.347309 
L 461.401919 173.853356 
L 463.441206 177.310688 
L 465.480493 175.117852 
L 467.519781 174.676211 
L 469.559068 175.847558 
L 471.598355 170.898732 
L 473.637643 176.388475 
L 475.67693 178.638292 
L 477.716217 179.859737 
L 479.755505 173.51631 
L 481.794792 176.786484 
L 483.834079 171.833341 
L 485.873367 173.886047 
L 487.912654 177.787746 
L 489.951942 172.226659 
L 491.991229 169.171365 
L 494.030516 170.631286 
L 496.069804 173.767034 
L 498.109091 177.446649 
L 498.109091 177.446649 
" clip-path="url(#pebafd49fc1)" style="fill: none; stroke: #ff0000; stroke-opacity: 0.9; stroke-width: 1.5; stroke-linecap: square"/>
   </g>
   <g id="line2d_40">
    <path d="M 92.290909 170.964222 
L 94.330196 169.247613 
L 96.369484 165.942592 
L 98.408771 163.908544 
L 100.448058 167.138953 
L 102.487346 165.28605 
L 104.526633 167.85256 
L 106.565921 163.768218 
L 108.605208 164.806426 
L 110.644495 174.652856 
L 112.683783 246.871791 
L 114.72307 162.185291 
L 116.762357 163.381109 
L 118.801645 169.704362 
L 120.840932 161.383323 
L 122.880219 167.955236 
L 124.919507 165.915736 
L 126.958794 180.217175 
L 128.998081 163.452636 
L 131.037369 166.301461 
L 133.076656 173.560901 
L 135.115943 167.297471 
L 139.194518 165.928858 
L 141.233805 167.519138 
L 143.273093 164.917972 
L 145.31238 161.917203 
L 147.351667 161.992479 
L 149.390955 164.546661 
L 151.430242 162.957412 
L 153.469529 163.80338 
L 155.508817 167.847534 
L 157.548104 164.23878 
L 159.587392 165.559431 
L 161.626679 168.613288 
L 163.665966 168.012091 
L 165.705254 247.045555 
L 167.744541 163.934543 
L 169.783828 167.969635 
L 171.823116 166.462549 
L 173.862403 166.870539 
L 175.90169 172.031269 
L 177.940978 171.149001 
L 179.980265 183.565683 
L 182.019552 169.10657 
L 184.05884 172.970191 
L 186.098127 188.489746 
L 188.137414 172.288994 
L 190.176702 174.376437 
L 192.215989 195.693829 
L 198.333851 186.963953 
L 200.373138 172.689129 
L 202.412426 164.942789 
L 204.451713 166.959868 
L 206.491 167.149681 
L 208.530288 173.529842 
L 210.569575 166.303015 
L 212.608862 163.754498 
L 214.64815 167.46999 
L 216.687437 161.346447 
L 218.726725 165.996541 
L 220.766012 166.743822 
L 222.805299 170.078996 
L 224.844587 162.859442 
L 226.883874 177.425804 
L 228.923161 186.292751 
L 230.962449 165.948826 
L 233.001736 170.536876 
L 235.041023 167.275021 
L 237.080311 166.329288 
L 239.119598 168.493743 
L 241.158885 165.703698 
L 243.198173 170.732617 
L 245.23746 162.191817 
L 247.276747 164.130849 
L 249.316035 165.2931 
L 251.355322 169.313124 
L 253.394609 165.680106 
L 255.433897 163.175134 
L 257.473184 169.289496 
L 259.512471 163.822772 
L 261.551759 162.583096 
L 263.591046 164.613233 
L 265.630333 167.924572 
L 267.669621 163.958792 
L 269.708908 165.028709 
L 271.748196 164.984735 
L 273.787483 166.698862 
L 275.82677 162.658837 
L 277.866058 247.602579 
L 279.905345 169.154041 
L 281.944632 164.595177 
L 283.98392 162.965622 
L 286.023207 170.137373 
L 288.062494 170.954007 
L 290.101782 169.209315 
L 292.141069 171.262113 
L 294.180356 166.665388 
L 296.219644 168.01202 
L 298.258931 174.701818 
L 300.298218 168.598963 
L 302.337506 166.193198 
L 304.376793 170.74743 
L 306.41608 163.814913 
L 308.455368 167.241207 
L 310.494655 166.920422 
L 312.533942 163.356428 
L 314.57323 247.408175 
L 316.612517 161.688375 
L 318.651804 162.413476 
L 320.691092 162.849249 
L 322.730379 164.869659 
L 324.769667 164.534954 
L 326.808954 164.675816 
L 328.848241 165.885597 
L 330.887529 166.594101 
L 332.926816 164.3283 
L 334.966103 165.965586 
L 337.005391 161.650108 
L 339.044678 163.085773 
L 341.083965 162.398497 
L 343.123253 163.277905 
L 345.16254 164.69557 
L 347.201827 163.915794 
L 349.241115 248.073728 
L 351.280402 164.379804 
L 353.319689 162.661123 
L 355.358977 170.561324 
L 357.398264 167.747119 
L 359.437551 172.35609 
L 361.476839 168.199777 
L 363.516126 167.364187 
L 365.555413 170.232595 
L 367.594701 167.390699 
L 369.633988 170.11582 
L 371.673275 165.386484 
L 373.712563 171.36456 
L 375.75185 176.358005 
L 377.791138 174.254837 
L 379.830425 166.034026 
L 381.869712 177.922559 
L 383.909 171.76633 
L 385.948287 169.848817 
L 387.987574 168.094701 
L 390.026862 171.392808 
L 394.105436 172.876129 
L 396.144724 247.647458 
L 398.184011 166.244727 
L 400.223298 170.523389 
L 402.262586 171.337242 
L 404.301873 170.971268 
L 406.34116 168.065256 
L 408.380448 172.80333 
L 410.419735 166.898581 
L 412.459022 171.0904 
L 414.49831 165.474172 
L 416.537597 166.3768 
L 418.576884 161.489658 
L 420.616172 168.747631 
L 422.655459 167.509443 
L 424.694746 171.425104 
L 426.734034 167.819585 
L 428.773321 171.954578 
L 430.812608 175.123536 
L 432.851896 172.12942 
L 434.891183 173.706329 
L 436.930471 178.096954 
L 438.969758 171.368146 
L 441.009045 178.017214 
L 443.048333 172.195005 
L 445.08762 174.301036 
L 447.126907 175.592687 
L 449.166195 163.985538 
L 451.205482 169.287461 
L 453.244769 172.647172 
L 455.284057 178.258273 
L 457.323344 179.434275 
L 459.362631 174.604779 
L 461.401919 173.283384 
L 463.441206 176.044639 
L 465.480493 175.232068 
L 467.519781 175.823741 
L 469.559068 175.858131 
L 471.598355 169.579012 
L 473.637643 174.933683 
L 475.67693 178.14256 
L 477.716217 178.404455 
L 479.755505 173.557507 
L 481.794792 176.566315 
L 483.834079 170.476738 
L 487.912654 177.502555 
L 489.951942 172.451497 
L 491.991229 169.233435 
L 494.030516 168.47411 
L 496.069804 174.391138 
L 498.109091 175.86524 
L 498.109091 175.86524 
" clip-path="url(#pebafd49fc1)" style="fill: none; stroke: #008000; stroke-opacity: 0.9; stroke-width: 1.5; stroke-linecap: square"/>
   </g>
   <g id="line2d_41">
    <path d="M 438.969758 256.32 
L 438.969758 155.52 
" clip-path="url(#pebafd49fc1)" style="fill: none; stroke-dasharray: 5.55,2.4; stroke-dashoffset: 0; stroke: #0000ff; stroke-width: 1.5"/>
   </g>
   <g id="line2d_42">
    <path d="M 153.469529 256.32 
L 153.469529 155.52 
" clip-path="url(#pebafd49fc1)" style="fill: none; stroke-dasharray: 5.55,2.4; stroke-dashoffset: 0; stroke: #000000; stroke-width: 1.5"/>
   </g>
   <g id="patch_8">
    <path d="M 72 256.32 
L 72 155.52 
" style="fill: none; stroke: #000000; stroke-width: 0.8; stroke-linejoin: miter; stroke-linecap: square"/>
   </g>
   <g id="patch_9">
    <path d="M 518.4 256.32 
L 518.4 155.52 
" style="fill: none; stroke: #000000; stroke-width: 0.8; stroke-linejoin: miter; stroke-linecap: square"/>
   </g>
   <g id="patch_10">
    <path d="M 72 256.32 
L 518.4 256.32 
" style="fill: none; stroke: #000000; stroke-width: 0.8; stroke-linejoin: miter; stroke-linecap: square"/>
   </g>
   <g id="patch_11">
    <path d="M 72 155.52 
L 518.4 155.52 
" style="fill: none; stroke: #000000; stroke-width: 0.8; stroke-linejoin: miter; stroke-linecap: square"/>
   </g>
  </g>
 </g>
 <defs>
  <clipPath id="paee12f40c8">
   <rect x="72" y="34.56" width="446.4" height="100.8"/>
  </clipPath>
  <clipPath id="pebafd49fc1">
   <rect x="72" y="155.52" width="446.4" height="100.8"/>
  </clipPath>
 </defs>
</svg>
