<?xml version="1.0" encoding="utf-8" standalone="no"?>
<!DOCTYPE svg PUBLIC "-//W3C//DTD SVG 1.1//EN"
  "http://www.w3.org/Graphics/SVG/1.1/DTD/svg11.dtd">
<svg xmlns:xlink="http://www.w3.org/1999/xlink" width="576pt" height="288pt" viewBox="0 0 576 288" xmlns="http://www.w3.org/2000/svg" version="1.1">
 <metadata>
  <rdf:RDF xmlns:dc="http://purl.org/dc/elements/1.1/" xmlns:cc="http://creativecommons.org/ns#" xmlns:rdf="http://www.w3.org/1999/02/22-rdf-syntax-ns#">
   <cc:Work>
    <dc:type rdf:resource="http://purl.org/dc/dcmitype/StillImage"/>
    <dc:date>2025-01-01T00:43:57.741815</dc:date>
    <dc:format>image/svg+xml</dc:format>
    <dc:creator>
     <cc:Agent>
      <dc:title>Matplotlib v3.10.0, https://matplotlib.org/</dc:title>
     </cc:Agent>
    </dc:creator>
   </cc:Work>
  </rdf:RDF>
 </metadata>
 <defs>
  <style type="text/css">*{stroke-linejoin: round; stroke-linecap: butt}</style>
 </defs>
 <g id="figure_1">
  <g id="patch_1">
   <path d="M 0 288 
L 576 288 
L 576 0 
L 0 0 
z
" style="fill: #ffffff"/>
  </g>
  <g id="axes_1">
   <g id="patch_2">
    <path d="M 72 135.36 
L 518.4 135.36 
L 518.4 34.56 
L 72 34.56 
z
" style="fill: #ffffff"/>
   </g>
   <g id="matplotlib.axis_1">
    <g id="xtick_1">
     <g id="line2d_1">
      <defs>
       <path id="mc312d59bb4" d="M 0 0 
L 0 3.5 
" style="stroke: #000000; stroke-width: 0.8"/>
      </defs>
      <g>
       <use xlink:href="#mc312d59bb4" x="92.290909" y="135.36" style="stroke: #000000; stroke-width: 0.8"/>
      </g>
     </g>
    </g>
    <g id="xtick_2">
     <g id="line2d_2">
      <g>
       <use xlink:href="#mc312d59bb4" x="143.273093" y="135.36" style="stroke: #000000; stroke-width: 0.8"/>
      </g>
     </g>
    </g>
    <g id="xtick_3">
     <g id="line2d_3">
      <g>
       <use xlink:href="#mc312d59bb4" x="194.255276" y="135.36" style="stroke: #000000; stroke-width: 0.8"/>
      </g>
     </g>
    </g>
    <g id="xtick_4">
     <g id="line2d_4">
      <g>
       <use xlink:href="#mc312d59bb4" x="245.23746" y="135.36" style="stroke: #000000; stroke-width: 0.8"/>
      </g>
     </g>
    </g>
    <g id="xtick_5">
     <g id="line2d_5">
      <g>
       <use xlink:href="#mc312d59bb4" x="296.219644" y="135.36" style="stroke: #000000; stroke-width: 0.8"/>
      </g>
     </g>
    </g>
    <g id="xtick_6">
     <g id="line2d_6">
      <g>
       <use xlink:href="#mc312d59bb4" x="347.201827" y="135.36" style="stroke: #000000; stroke-width: 0.8"/>
      </g>
     </g>
    </g>
    <g id="xtick_7">
     <g id="line2d_7">
      <g>
       <use xlink:href="#mc312d59bb4" x="398.184011" y="135.36" style="stroke: #000000; stroke-width: 0.8"/>
      </g>
     </g>
    </g>
    <g id="xtick_8">
     <g id="line2d_8">
      <g>
       <use xlink:href="#mc312d59bb4" x="449.166195" y="135.36" style="stroke: #000000; stroke-width: 0.8"/>
      </g>
     </g>
    </g>
    <g id="xtick_9">
     <g id="line2d_9">
      <g>
       <use xlink:href="#mc312d59bb4" x="500.148378" y="135.36" style="stroke: #000000; stroke-width: 0.8"/>
      </g>
     </g>
    </g>
   </g>
   <g id="matplotlib.axis_2">
    <g id="ytick_1">
     <g id="line2d_10">
      <defs>
       <path id="m83ddcfb7bd" d="M 0 0 
L -3.5 0 
" style="stroke: #000000; stroke-width: 0.8"/>
      </defs>
      <g>
       <use xlink:href="#m83ddcfb7bd" x="72" y="114.71493" style="stroke: #000000; stroke-width: 0.8"/>
      </g>
     </g>
     <g id="text_1">
      <!-- −150 -->
      <g transform="translate(37.532812 118.514149) scale(0.1 -0.1)">
       <defs>
        <path id="DejaVuSans-2212" d="M 678 2272 
L 4684 2272 
L 4684 1741 
L 678 1741 
L 678 2272 
z
" transform="scale(0.015625)"/>
        <path id="DejaVuSans-31" d="M 794 531 
L 1825 531 
L 1825 4091 
L 703 3866 
L 703 4441 
L 1819 4666 
L 2450 4666 
L 2450 531 
L 3481 531 
L 3481 0 
L 794 0 
L 794 531 
z
" transform="scale(0.015625)"/>
        <path id="DejaVuSans-35" d="M 691 4666 
L 3169 4666 
L 3169 4134 
L 1269 4134 
L 1269 2991 
Q 1406 3038 1543 3061 
Q 1681 3084 1819 3084 
Q 2600 3084 3056 2656 
Q 3513 2228 3513 1497 
Q 3513 744 3044 326 
Q 2575 -91 1722 -91 
Q 1428 -91 1123 -41 
Q 819 9 494 109 
L 494 744 
Q 775 591 1075 516 
Q 1375 441 1709 441 
Q 2250 441 2565 725 
Q 2881 1009 2881 1497 
Q 2881 1984 2565 2268 
Q 2250 2553 1709 2553 
Q 1456 2553 1204 2497 
Q 953 2441 691 2322 
L 691 4666 
z
" transform="scale(0.015625)"/>
        <path id="DejaVuSans-30" d="M 2034 4250 
Q 1547 4250 1301 3770 
Q 1056 3291 1056 2328 
Q 1056 1369 1301 889 
Q 1547 409 2034 409 
Q 2525 409 2770 889 
Q 3016 1369 3016 2328 
Q 3016 3291 2770 3770 
Q 2525 4250 2034 4250 
z
M 2034 4750 
Q 2819 4750 3233 4129 
Q 3647 3509 3647 2328 
Q 3647 1150 3233 529 
Q 2819 -91 2034 -91 
Q 1250 -91 836 529 
Q 422 1150 422 2328 
Q 422 3509 836 4129 
Q 1250 4750 2034 4750 
z
" transform="scale(0.015625)"/>
       </defs>
       <use xlink:href="#DejaVuSans-2212"/>
       <use xlink:href="#DejaVuSans-31" transform="translate(83.789062 0)"/>
       <use xlink:href="#DejaVuSans-35" transform="translate(147.412109 0)"/>
       <use xlink:href="#DejaVuSans-30" transform="translate(211.035156 0)"/>
      </g>
     </g>
    </g>
    <g id="ytick_2">
     <g id="line2d_11">
      <g>
       <use xlink:href="#m83ddcfb7bd" x="72" y="77.775969" style="stroke: #000000; stroke-width: 0.8"/>
      </g>
     </g>
     <g id="text_2">
      <!-- −100 -->
      <g transform="translate(37.532812 81.575188) scale(0.1 -0.1)">
       <use xlink:href="#DejaVuSans-2212"/>
       <use xlink:href="#DejaVuSans-31" transform="translate(83.789062 0)"/>
       <use xlink:href="#DejaVuSans-30" transform="translate(147.412109 0)"/>
       <use xlink:href="#DejaVuSans-30" transform="translate(211.035156 0)"/>
      </g>
     </g>
    </g>
    <g id="ytick_3">
     <g id="line2d_12">
      <g>
       <use xlink:href="#m83ddcfb7bd" x="72" y="40.837008" style="stroke: #000000; stroke-width: 0.8"/>
      </g>
     </g>
     <g id="text_3">
      <!-- −50 -->
      <g transform="translate(43.895313 44.636227) scale(0.1 -0.1)">
       <use xlink:href="#DejaVuSans-2212"/>
       <use xlink:href="#DejaVuSans-35" transform="translate(83.789062 0)"/>
       <use xlink:href="#DejaVuSans-30" transform="translate(147.412109 0)"/>
      </g>
     </g>
    </g>
   </g>
   <g id="line2d_13">
    <path d="M 92.290909 63.625815 
L 94.330196 105.903024 
L 96.369484 126.311947 
L 98.408771 102.789851 
L 100.448058 87.143273 
L 102.487346 105.646961 
L 104.526633 95.504253 
L 106.565921 71.442828 
L 108.605208 110.846733 
L 110.644495 48.693622 
L 112.683783 80.667101 
L 114.72307 122.378266 
L 116.762357 121.63677 
L 118.801645 111.643849 
L 120.840932 67.462736 
L 122.880219 112.32826 
L 124.919507 68.952261 
L 126.958794 70.841273 
L 128.998081 87.659413 
L 131.037369 61.673466 
L 133.076656 54.91266 
L 135.115943 54.568995 
L 137.155231 104.608605 
L 139.194518 107.471792 
L 141.233805 121.479457 
L 143.273093 117.736501 
L 145.31238 117.180106 
L 147.351667 112.553086 
L 149.390955 115.747909 
L 151.430242 109.229594 
L 153.469529 105.865429 
L 155.508817 108.661768 
L 157.548104 129.322459 
L 159.587392 108.754769 
L 161.626679 118.182231 
L 163.665966 97.524115 
L 165.705254 93.895591 
L 167.744541 108.655489 
L 169.783828 47.166877 
L 171.823116 56.954865 
L 173.862403 75.110813 
L 175.90169 47.107847 
L 177.940978 43.584064 
L 179.980265 75.665405 
L 182.019552 65.812776 
L 184.05884 73.328059 
L 186.098127 67.84957 
L 188.137414 58.203229 
L 190.176702 67.457026 
L 192.215989 62.359037 
L 194.255276 46.951165 
L 196.294564 72.909542 
L 198.333851 75.553127 
L 200.373138 94.666655 
L 202.412426 73.026036 
L 204.451713 54.526575 
L 206.491 46.755364 
L 208.530288 77.399765 
L 210.569575 56.8477 
L 212.608862 105.036715 
L 214.64815 106.264286 
L 216.687437 95.723234 
L 218.726725 90.297069 
L 220.766012 106.479531 
L 222.805299 121.738135 
L 224.844587 117.954315 
L 226.883874 67.886974 
L 228.923161 59.285436 
L 230.962449 80.051089 
L 233.001736 72.593805 
L 235.041023 42.200646 
L 237.080311 60.320969 
L 239.119598 54.964487 
L 241.158885 75.952548 
L 243.198173 53.085501 
L 245.23746 83.586765 
L 247.276747 51.848404 
L 249.316035 99.216732 
L 251.355322 74.986547 
L 253.394609 108.30293 
L 255.433897 86.463558 
L 257.473184 68.765644 
L 259.512471 65.972681 
L 261.551759 60.936005 
L 263.591046 70.080354 
L 267.669621 62.53805 
L 269.708908 51.401097 
L 271.748196 42.25588 
L 273.787483 63.167764 
L 275.82677 52.352088 
L 277.866058 65.375895 
L 279.905345 53.844769 
L 281.944632 77.650891 
L 283.98392 64.906177 
L 286.023207 64.610681 
L 288.062494 55.395404 
L 290.101782 69.220995 
L 292.141069 73.074374 
L 294.180356 57.687134 
L 296.219644 45.271526 
L 298.258931 78.417644 
L 300.298218 62.059748 
L 302.337506 64.095516 
L 304.376793 59.240999 
L 306.41608 49.869947 
L 308.455368 49.862628 
L 310.494655 54.917343 
L 312.533942 59.000543 
L 314.57323 74.580379 
L 316.612517 39.141818 
L 318.651804 58.063231 
L 320.691092 45.13615 
L 322.730379 46.073251 
L 324.769667 57.780891 
L 326.808954 64.277838 
L 328.848241 48.604211 
L 330.887529 45.860813 
L 332.926816 52.620185 
L 334.966103 47.701634 
L 337.005391 55.701829 
L 339.044678 49.138475 
L 341.083965 51.219784 
L 343.123253 52.329604 
L 345.16254 47.744297 
L 347.201827 51.742107 
L 349.241115 59.825785 
L 351.280402 43.227884 
L 353.319689 54.500732 
L 355.358977 54.124697 
L 357.398264 63.801689 
L 359.437551 80.416736 
L 361.476839 49.503325 
L 363.516126 57.834437 
L 365.555413 45.569471 
L 367.594701 72.075326 
L 369.633988 54.597729 
L 371.673275 62.31385 
L 373.712563 54.470926 
L 375.75185 68.173716 
L 377.791138 51.470284 
L 379.830425 88.436024 
L 381.869712 67.687624 
L 383.909 71.51799 
L 385.948287 101.187986 
L 387.987574 76.945446 
L 390.026862 78.756974 
L 392.066149 62.304099 
L 394.105436 62.359031 
L 396.144724 97.496638 
L 398.184011 79.231596 
L 400.223298 82.186516 
L 402.262586 59.166316 
L 404.301873 80.304492 
L 406.34116 75.173485 
L 408.380448 70.530908 
L 410.419735 50.894429 
L 412.459022 71.517161 
L 414.49831 104.271918 
L 416.537597 79.953483 
L 418.576884 110.479192 
L 420.616172 99.60816 
L 422.655459 82.530091 
L 424.694746 79.537632 
L 426.734034 66.466828 
L 428.773321 70.487908 
L 430.812608 61.720468 
L 432.851896 60.538851 
L 434.891183 69.548624 
L 436.930471 59.445275 
L 438.969758 60.83637 
L 441.009045 72.485146 
L 443.048333 49.396802 
L 445.08762 61.86657 
L 447.126907 69.536297 
L 449.166195 65.086233 
L 451.205482 56.659566 
L 453.244769 64.73027 
L 455.284057 65.890863 
L 457.323344 58.863865 
L 459.362631 56.469292 
L 461.401919 57.713276 
L 463.441206 62.019132 
L 465.480493 62.807658 
L 467.519781 59.635313 
L 469.559068 52.549707 
L 471.598355 68.072469 
L 473.637643 68.089931 
L 475.67693 70.478163 
L 477.716217 57.464726 
L 479.755505 67.716438 
L 481.794792 61.810161 
L 483.834079 62.401485 
L 485.873367 67.83035 
L 487.912654 66.208403 
L 489.951942 47.021356 
L 491.991229 53.074414 
L 494.030516 45.818329 
L 496.069804 63.396784 
L 498.109091 60.263071 
L 498.109091 60.263071 
" clip-path="url(#p994eaf896e)" style="fill: none; stroke: #ff0000; stroke-opacity: 0.9; stroke-width: 1.5; stroke-linecap: square"/>
   </g>
   <g id="line2d_14">
    <path d="M 92.290909 60.6151 
L 94.330196 105.529047 
L 96.369484 129.234068 
L 98.408771 102.05079 
L 100.448058 90.529758 
L 102.487346 105.005557 
L 104.526633 95.212381 
L 106.565921 67.385195 
L 108.605208 112.225383 
L 110.644495 43.614095 
L 112.683783 80.960912 
L 114.72307 121.654231 
L 116.762357 120.867711 
L 118.801645 110.488278 
L 120.840932 68.01323 
L 122.880219 115.243504 
L 124.919507 70.001929 
L 126.958794 65.754952 
L 128.998081 87.993496 
L 131.037369 66.84465 
L 133.076656 53.330478 
L 135.115943 54.413626 
L 137.155231 108.128944 
L 139.194518 107.109064 
L 141.233805 125.403342 
L 143.273093 119.184141 
L 145.31238 120.572869 
L 147.351667 112.587637 
L 149.390955 115.876612 
L 151.430242 105.061493 
L 153.469529 104.99522 
L 155.508817 109.222312 
L 157.548104 125.999508 
L 159.587392 110.204946 
L 161.626679 119.496253 
L 163.665966 97.881031 
L 165.705254 92.598618 
L 167.744541 111.939458 
L 169.783828 48.439921 
L 171.823116 52.865032 
L 173.862403 77.589031 
L 175.90169 49.736259 
L 177.940978 43.889145 
L 179.980265 69.15785 
L 182.019552 65.84917 
L 184.05884 73.802117 
L 186.098127 65.172358 
L 188.137414 53.799006 
L 190.176702 66.533941 
L 192.215989 59.516835 
L 194.255276 52.051012 
L 196.294564 68.027507 
L 198.333851 76.209524 
L 200.373138 96.572713 
L 202.412426 68.916616 
L 204.451713 52.124759 
L 206.491 44.221202 
L 208.530288 78.275453 
L 210.569575 57.023748 
L 212.608862 109.97047 
L 214.64815 106.714807 
L 216.687437 94.583422 
L 218.726725 92.020466 
L 220.766012 110.402976 
L 222.805299 116.940625 
L 224.844587 120.736912 
L 226.883874 67.152168 
L 228.923161 63.126641 
L 230.962449 79.730156 
L 233.001736 72.395871 
L 235.041023 44.053805 
L 237.080311 62.622005 
L 239.119598 54.367729 
L 241.158885 76.97024 
L 243.198173 54.712876 
L 245.23746 85.525288 
L 247.276747 53.491172 
L 249.316035 97.492196 
L 251.355322 73.303884 
L 253.394609 110.441135 
L 255.433897 87.821725 
L 257.473184 70.920911 
L 259.512471 62.640577 
L 261.551759 60.190395 
L 263.591046 69.755955 
L 265.630333 67.628041 
L 267.669621 63.383832 
L 269.708908 51.681712 
L 271.748196 44.491782 
L 273.787483 59.342799 
L 275.82677 53.593767 
L 277.866058 67.835738 
L 279.905345 56.90576 
L 281.944632 76.018889 
L 283.98392 64.698091 
L 286.023207 59.745917 
L 288.062494 54.366224 
L 290.101782 68.340504 
L 292.141069 71.65354 
L 294.180356 54.001896 
L 296.219644 48.923766 
L 298.258931 83.329332 
L 300.298218 59.281773 
L 302.337506 65.694557 
L 304.376793 58.995397 
L 306.41608 46.489355 
L 308.455368 51.991852 
L 310.494655 51.528266 
L 312.533942 59.88627 
L 314.57323 71.356641 
L 316.612517 41.629226 
L 318.651804 57.237933 
L 320.691092 46.914971 
L 322.730379 45.822691 
L 324.769667 56.140366 
L 326.808954 62.822589 
L 328.848241 47.780888 
L 330.887529 44.659074 
L 332.926816 53.107235 
L 334.966103 47.486458 
L 337.005391 58.488833 
L 339.044678 51.038409 
L 341.083965 49.560895 
L 343.123253 54.028691 
L 345.16254 51.113771 
L 347.201827 57.514811 
L 349.241115 54.367199 
L 351.280402 41.320028 
L 353.319689 53.888378 
L 355.358977 54.428484 
L 357.398264 65.542069 
L 359.437551 79.703558 
L 361.476839 53.990008 
L 363.516126 56.042788 
L 365.555413 47.211352 
L 367.594701 68.92936 
L 369.633988 56.164372 
L 371.673275 61.134391 
L 373.712563 57.449891 
L 375.75185 66.824454 
L 377.791138 53.266921 
L 379.830425 93.831578 
L 381.869712 68.633165 
L 383.909 70.098402 
L 385.948287 99.788988 
L 387.987574 74.991405 
L 390.026862 77.88393 
L 392.066149 64.90279 
L 394.105436 62.932167 
L 396.144724 96.32126 
L 398.184011 80.800426 
L 400.223298 86.321604 
L 402.262586 58.576401 
L 404.301873 81.81065 
L 406.34116 71.125536 
L 408.380448 67.427672 
L 410.419735 52.819625 
L 412.459022 68.290616 
L 414.49831 105.368476 
L 416.537597 77.149879 
L 418.576884 112.217436 
L 420.616172 96.521477 
L 424.694746 77.209603 
L 426.734034 67.6941 
L 428.773321 66.197124 
L 430.812608 58.395037 
L 432.851896 61.52401 
L 434.891183 70.683143 
L 436.930471 62.264384 
L 438.969758 63.288705 
L 441.009045 73.004668 
L 443.048333 50.026443 
L 445.08762 61.969007 
L 447.126907 70.419189 
L 449.166195 65.81051 
L 451.205482 57.668624 
L 453.244769 61.188146 
L 455.284057 63.163965 
L 457.323344 54.61359 
L 459.362631 54.119866 
L 461.401919 58.81525 
L 463.441206 61.509259 
L 465.480493 60.584906 
L 467.519781 59.783996 
L 469.559068 53.087609 
L 471.598355 66.314498 
L 473.637643 68.584353 
L 475.67693 71.528817 
L 477.716217 52.185773 
L 479.755505 63.723134 
L 481.794792 61.504057 
L 483.834079 63.408716 
L 485.873367 66.197863 
L 487.912654 64.592306 
L 489.951942 45.138895 
L 491.991229 52.442186 
L 494.030516 44.11241 
L 496.069804 62.836314 
L 498.109091 58.376741 
L 498.109091 58.376741 
" clip-path="url(#p994eaf896e)" style="fill: none; stroke: #ff0000; stroke-opacity: 0.9; stroke-width: 1.5; stroke-linecap: square"/>
   </g>
   <g id="line2d_15">
    <path d="M 92.290909 62.271819 
L 94.330196 105.242626 
L 96.369484 126.224842 
L 98.408771 105.983806 
L 100.448058 90.436277 
L 102.487346 105.010134 
L 104.526633 97.548707 
L 106.565921 66.564891 
L 108.605208 113.19715 
L 110.644495 46.48581 
L 112.683783 78.899356 
L 114.72307 123.104746 
L 116.762357 118.113939 
L 118.801645 112.775545 
L 120.840932 69.371093 
L 122.880219 114.95732 
L 124.919507 70.697657 
L 126.958794 65.133867 
L 128.998081 88.665038 
L 131.037369 65.19381 
L 133.076656 55.447856 
L 135.115943 53.310711 
L 137.155231 108.556457 
L 139.194518 105.560385 
L 141.233805 125.59896 
L 143.273093 119.809899 
L 145.31238 115.503716 
L 147.351667 116.360635 
L 149.390955 116.243262 
L 151.430242 106.406505 
L 153.469529 106.888071 
L 155.508817 113.2254 
L 157.548104 123.01967 
L 159.587392 107.193487 
L 161.626679 121.880275 
L 163.665966 94.923818 
L 165.705254 91.099759 
L 167.744541 108.454223 
L 169.783828 47.629325 
L 171.823116 55.198844 
L 173.862403 73.514991 
L 175.90169 48.223307 
L 177.940978 42.858455 
L 179.980265 71.963443 
L 182.019552 70.021324 
L 184.05884 69.015439 
L 186.098127 65.130265 
L 188.137414 57.155939 
L 190.176702 63.400809 
L 192.215989 62.996005 
L 194.255276 50.349926 
L 196.294564 68.890525 
L 198.333851 76.261909 
L 200.373138 92.96745 
L 204.451713 53.164163 
L 206.491 44.321333 
L 208.530288 78.606752 
L 210.569575 56.282737 
L 212.608862 109.124395 
L 214.64815 104.846632 
L 216.687437 91.990272 
L 218.726725 88.663217 
L 220.766012 105.058754 
L 222.805299 120.091709 
L 224.844587 118.226544 
L 226.883874 65.987697 
L 228.923161 60.573932 
L 230.962449 80.024446 
L 233.001736 70.608263 
L 235.041023 42.042 
L 237.080311 60.411242 
L 239.119598 53.047292 
L 241.158885 70.423055 
L 243.198173 49.883522 
L 245.23746 84.306442 
L 247.276747 51.188541 
L 249.316035 96.187862 
L 251.355322 73.671385 
L 253.394609 108.365539 
L 255.433897 89.418804 
L 257.473184 67.772593 
L 259.512471 62.438933 
L 261.551759 57.807117 
L 263.591046 71.661753 
L 265.630333 66.135067 
L 267.669621 61.181895 
L 269.708908 53.283312 
L 271.748196 42.494428 
L 273.787483 59.499892 
L 275.82677 49.614162 
L 277.866058 66.736819 
L 279.905345 56.342026 
L 281.944632 80.461912 
L 283.98392 67.317519 
L 286.023207 59.639523 
L 288.062494 55.156554 
L 290.101782 67.730501 
L 292.141069 75.65044 
L 294.180356 52.624519 
L 296.219644 41.614628 
L 298.258931 80.110278 
L 300.298218 60.113401 
L 302.337506 65.92989 
L 304.376793 59.570127 
L 306.41608 43.131655 
L 308.455368 48.931314 
L 310.494655 51.523283 
L 312.533942 59.411479 
L 314.57323 75.922505 
L 316.612517 43.566129 
L 318.651804 57.811406 
L 320.691092 47.508589 
L 322.730379 43.223518 
L 324.769667 58.236873 
L 326.808954 64.412211 
L 328.848241 49.137173 
L 330.887529 45.51218 
L 332.926816 53.242786 
L 334.966103 46.803488 
L 337.005391 53.070136 
L 339.044678 49.851471 
L 341.083965 49.154204 
L 343.123253 53.328702 
L 345.16254 48.465941 
L 347.201827 57.329897 
L 349.241115 55.370299 
L 351.280402 42.876911 
L 353.319689 54.055408 
L 355.358977 56.756835 
L 357.398264 63.994399 
L 359.437551 80.559073 
L 361.476839 51.548602 
L 363.516126 60.528885 
L 365.555413 45.68286 
L 367.594701 70.749281 
L 369.633988 51.550896 
L 371.673275 62.699596 
L 373.712563 53.303468 
L 375.75185 68.573706 
L 377.791138 53.533964 
L 379.830425 93.664739 
L 381.869712 65.763153 
L 383.909 68.534646 
L 385.948287 102.34261 
L 387.987574 73.017739 
L 390.026862 77.404973 
L 392.066149 61.888845 
L 394.105436 62.980009 
L 396.144724 98.748378 
L 398.184011 83.236449 
L 400.223298 83.362688 
L 402.262586 59.432982 
L 404.301873 80.782806 
L 406.34116 71.662688 
L 408.380448 68.003749 
L 410.419735 51.041672 
L 412.459022 67.496938 
L 414.49831 106.215475 
L 416.537597 77.484672 
L 418.576884 111.827394 
L 420.616172 99.343766 
L 422.655459 82.403 
L 424.694746 78.982883 
L 426.734034 63.291259 
L 428.773321 66.866615 
L 430.812608 62.01106 
L 432.851896 58.723557 
L 434.891183 67.666865 
L 436.930471 57.972637 
L 438.969758 60.783027 
L 441.009045 69.251003 
L 443.048333 47.400544 
L 445.08762 63.805043 
L 447.126907 69.827216 
L 449.166195 65.639878 
L 451.205482 59.796098 
L 453.244769 65.259413 
L 455.284057 65.396294 
L 457.323344 55.480869 
L 459.362631 55.629885 
L 461.401919 60.617823 
L 463.441206 63.469489 
L 465.480493 64.630956 
L 467.519781 61.191105 
L 469.559068 51.98776 
L 471.598355 67.160696 
L 473.637643 66.986288 
L 475.67693 69.995774 
L 477.716217 54.159496 
L 479.755505 65.551211 
L 481.794792 59.136725 
L 483.834079 63.604323 
L 485.873367 69.114398 
L 487.912654 64.65486 
L 489.951942 45.019189 
L 491.991229 54.248614 
L 494.030516 46.831585 
L 496.069804 62.6441 
L 498.109091 58.207028 
L 498.109091 58.207028 
" clip-path="url(#p994eaf896e)" style="fill: none; stroke: #ff0000; stroke-opacity: 0.9; stroke-width: 1.5; stroke-linecap: square"/>
   </g>
   <g id="line2d_16">
    <path d="M 92.290909 63.453684 
L 94.330196 105.734574 
L 96.369484 129.615948 
L 98.408771 102.046461 
L 100.448058 91.53934 
L 102.487346 107.383999 
L 104.526633 95.446293 
L 106.565921 69.93375 
L 108.605208 112.991894 
L 110.644495 48.122941 
L 114.72307 118.96042 
L 116.762357 119.2502 
L 118.801645 108.743406 
L 120.840932 68.303783 
L 122.880219 113.025464 
L 124.919507 69.971407 
L 126.958794 68.210116 
L 128.998081 87.328892 
L 131.037369 66.959774 
L 133.076656 53.269333 
L 135.115943 52.735405 
L 137.155231 106.428318 
L 139.194518 107.449911 
L 141.233805 123.832636 
L 143.273093 121.521831 
L 145.31238 117.183634 
L 147.351667 112.22783 
L 149.390955 115.967448 
L 151.430242 109.046782 
L 153.469529 103.623987 
L 155.508817 109.029173 
L 157.548104 123.864087 
L 159.587392 108.840623 
L 161.626679 118.257432 
L 163.665966 97.451732 
L 165.705254 89.69362 
L 167.744541 110.66701 
L 169.783828 49.038445 
L 171.823116 55.311471 
L 173.862403 76.282702 
L 175.90169 48.957481 
L 177.940978 43.407675 
L 179.980265 68.286693 
L 182.019552 70.127075 
L 184.05884 71.11862 
L 186.098127 67.353654 
L 188.137414 57.067543 
L 190.176702 67.246133 
L 192.215989 61.230588 
L 194.255276 50.373098 
L 196.294564 67.910776 
L 198.333851 77.038825 
L 200.373138 97.262601 
L 202.412426 68.630285 
L 204.451713 51.443911 
L 206.491 47.239117 
L 208.530288 76.872595 
L 210.569575 59.480953 
L 212.608862 107.243234 
L 214.64815 105.988484 
L 216.687437 92.537012 
L 218.726725 90.4797 
L 220.766012 110.044465 
L 222.805299 116.648353 
L 224.844587 115.560588 
L 226.883874 70.076285 
L 228.923161 58.375022 
L 230.962449 79.206334 
L 233.001736 74.114094 
L 235.041023 42.222041 
L 237.080311 63.361551 
L 239.119598 53.506616 
L 241.158885 74.828123 
L 243.198173 54.089035 
L 245.23746 85.272511 
L 247.276747 50.980184 
L 249.316035 96.949661 
L 251.355322 72.562371 
L 253.394609 114.445903 
L 257.473184 69.086447 
L 259.512471 68.597469 
L 261.551759 61.623719 
L 263.591046 73.64397 
L 265.630333 66.04046 
L 267.669621 63.665484 
L 269.708908 53.989383 
L 271.748196 45.510213 
L 273.787483 60.557958 
L 275.82677 49.393065 
L 277.866058 68.36239 
L 279.905345 57.589038 
L 281.944632 79.777824 
L 283.98392 63.125824 
L 286.023207 60.900631 
L 288.062494 57.083444 
L 290.101782 68.308405 
L 292.141069 76.823823 
L 294.180356 54.231141 
L 296.219644 48.508465 
L 298.258931 81.973887 
L 300.298218 59.705447 
L 302.337506 62.034248 
L 304.376793 60.718597 
L 306.41608 45.012321 
L 308.455368 49.126405 
L 310.494655 54.367143 
L 312.533942 60.229681 
L 314.57323 70.820086 
L 316.612517 44.02137 
L 318.651804 53.415717 
L 320.691092 49.959293 
L 322.730379 44.619131 
L 324.769667 60.038352 
L 326.808954 62.342285 
L 328.848241 48.084163 
L 330.887529 44.310271 
L 332.926816 50.562955 
L 334.966103 48.627031 
L 337.005391 55.49297 
L 339.044678 47.094162 
L 341.083965 52.257604 
L 343.123253 54.074234 
L 345.16254 48.735414 
L 347.201827 52.650391 
L 349.241115 53.649088 
L 351.280402 44.300405 
L 353.319689 53.988701 
L 355.358977 57.30969 
L 357.398264 62.862298 
L 359.437551 81.267399 
L 361.476839 51.660153 
L 363.516126 58.836635 
L 365.555413 44.972998 
L 367.594701 68.356218 
L 369.633988 54.14368 
L 371.673275 58.817144 
L 373.712563 53.944201 
L 375.75185 67.869281 
L 377.791138 51.478367 
L 379.830425 92.326936 
L 381.869712 68.869957 
L 383.909 70.573261 
L 385.948287 99.122592 
L 387.987574 74.524404 
L 390.026862 80.599222 
L 392.066149 66.765875 
L 394.105436 62.411946 
L 396.144724 99.050649 
L 398.184011 82.367096 
L 400.223298 85.240936 
L 402.262586 61.279704 
L 404.301873 81.923311 
L 406.34116 70.59637 
L 408.380448 67.656601 
L 410.419735 51.923713 
L 412.459022 67.061095 
L 414.49831 107.56353 
L 416.537597 78.993682 
L 418.576884 117.166341 
L 420.616172 98.431001 
L 422.655459 85.570346 
L 424.694746 79.101631 
L 426.734034 66.07651 
L 428.773321 67.539313 
L 430.812608 67.447901 
L 432.851896 58.801678 
L 434.891183 67.307339 
L 436.930471 58.731735 
L 438.969758 61.529866 
L 441.009045 71.657587 
L 443.048333 51.990381 
L 445.08762 66.087231 
L 447.126907 72.649161 
L 449.166195 65.557868 
L 451.205482 53.89052 
L 453.244769 62.284208 
L 455.284057 62.723731 
L 457.323344 55.195744 
L 459.362631 51.269801 
L 461.401919 58.17525 
L 463.441206 62.504367 
L 465.480493 62.34348 
L 467.519781 63.707234 
L 469.559068 54.417769 
L 471.598355 67.333087 
L 473.637643 66.290937 
L 475.67693 73.796266 
L 477.716217 49.860111 
L 479.755505 65.615286 
L 481.794792 60.949195 
L 487.912654 65.974164 
L 489.951942 50.56386 
L 491.991229 54.975297 
L 494.030516 42.137447 
L 496.069804 63.447647 
L 498.109091 60.025935 
L 498.109091 60.025935 
" clip-path="url(#p994eaf896e)" style="fill: none; stroke: #ff0000; stroke-opacity: 0.9; stroke-width: 1.5; stroke-linecap: square"/>
   </g>
   <g id="line2d_17">
    <path d="M 92.290909 64.546093 
L 94.330196 105.65466 
L 96.369484 130.778182 
L 98.408771 102.56702 
L 100.448058 91.173027 
L 102.487346 106.756764 
L 104.526633 101.041912 
L 106.565921 69.948259 
L 108.605208 113.040581 
L 110.644495 44.370826 
L 112.683783 83.417429 
L 114.72307 120.112079 
L 116.762357 120.864679 
L 118.801645 111.058449 
L 120.840932 67.994466 
L 122.880219 116.712822 
L 124.919507 70.109072 
L 126.958794 67.168993 
L 128.998081 86.659109 
L 131.037369 64.174427 
L 133.076656 53.027181 
L 135.115943 51.353711 
L 137.155231 105.017619 
L 139.194518 107.688547 
L 141.233805 122.814729 
L 143.273093 122.238843 
L 145.31238 116.417642 
L 147.351667 115.332301 
L 149.390955 117.412936 
L 151.430242 109.695017 
L 153.469529 104.691743 
L 155.508817 110.766808 
L 157.548104 125.245826 
L 159.587392 107.384055 
L 161.626679 121.985372 
L 163.665966 95.559354 
L 165.705254 93.226923 
L 167.744541 111.844946 
L 169.783828 47.56853 
L 171.823116 54.23273 
L 173.862403 73.798352 
L 175.90169 48.035286 
L 177.940978 41.704016 
L 179.980265 69.777413 
L 182.019552 66.848657 
L 184.05884 72.706303 
L 186.098127 69.044495 
L 188.137414 58.040206 
L 190.176702 69.904728 
L 194.255276 51.766546 
L 196.294564 70.399399 
L 198.333851 78.462138 
L 200.373138 91.225074 
L 202.412426 68.164681 
L 204.451713 52.692839 
L 206.491 48.166579 
L 208.530288 78.733978 
L 210.569575 59.154051 
L 212.608862 107.888257 
L 214.64815 105.075843 
L 216.687437 95.822227 
L 218.726725 91.045548 
L 220.766012 107.928727 
L 222.805299 118.299976 
L 224.844587 120.277272 
L 226.883874 66.419989 
L 228.923161 59.644573 
L 230.962449 78.405092 
L 233.001736 76.985064 
L 235.041023 45.551996 
L 237.080311 60.613426 
L 239.119598 55.642268 
L 241.158885 78.086627 
L 243.198173 49.837619 
L 245.23746 83.983982 
L 247.276747 49.14788 
L 249.316035 97.561372 
L 251.355322 73.853087 
L 253.394609 115.052993 
L 255.433897 89.705057 
L 257.473184 68.358603 
L 259.512471 64.023539 
L 261.551759 58.604769 
L 263.591046 71.709003 
L 265.630333 67.957288 
L 267.669621 61.820791 
L 269.708908 50.725093 
L 271.748196 43.764447 
L 273.787483 61.284805 
L 275.82677 53.266713 
L 277.866058 67.775626 
L 279.905345 56.768175 
L 281.944632 75.313567 
L 283.98392 64.562484 
L 286.023207 61.215883 
L 288.062494 55.826298 
L 290.101782 67.960659 
L 292.141069 75.556554 
L 294.180356 52.610045 
L 296.219644 44.648779 
L 298.258931 80.959988 
L 300.298218 58.458464 
L 302.337506 64.133506 
L 304.376793 61.697697 
L 306.41608 48.710873 
L 308.455368 47.551987 
L 310.494655 53.756649 
L 312.533942 61.212197 
L 314.57323 72.924862 
L 316.612517 40.382006 
L 318.651804 58.500732 
L 320.691092 48.397165 
L 322.730379 42.318126 
L 324.769667 56.484076 
L 326.808954 63.632731 
L 328.848241 46.569218 
L 330.887529 44.713212 
L 332.926816 48.855597 
L 334.966103 46.664572 
L 337.005391 58.72124 
L 339.044678 48.144326 
L 341.083965 51.941022 
L 343.123253 53.360029 
L 345.16254 52.45843 
L 347.201827 55.464963 
L 349.241115 58.092817 
L 351.280402 41.843529 
L 353.319689 53.026358 
L 355.358977 55.332174 
L 357.398264 65.862444 
L 359.437551 80.430258 
L 361.476839 51.761795 
L 363.516126 59.442676 
L 365.555413 47.190466 
L 367.594701 68.037467 
L 369.633988 53.406558 
L 371.673275 63.546285 
L 373.712563 52.783061 
L 375.75185 65.972918 
L 377.791138 53.479933 
L 379.830425 90.208188 
L 381.869712 66.050825 
L 383.909 69.752714 
L 385.948287 100.635277 
L 387.987574 73.189081 
L 390.026862 81.507376 
L 392.066149 61.172217 
L 394.105436 64.272794 
L 396.144724 96.849315 
L 398.184011 84.049483 
L 400.223298 83.713968 
L 402.262586 61.243749 
L 404.301873 81.6616 
L 408.380448 64.913753 
L 410.419735 51.496392 
L 412.459022 70.521935 
L 414.49831 105.799314 
L 416.537597 78.275431 
L 418.576884 112.371446 
L 422.655459 83.821923 
L 424.694746 80.494818 
L 426.734034 64.973583 
L 428.773321 67.028302 
L 430.812608 66.232905 
L 432.851896 60.014628 
L 434.891183 68.662001 
L 436.930471 58.572929 
L 438.969758 62.589765 
L 441.009045 71.706788 
L 443.048333 47.446876 
L 445.08762 61.349365 
L 447.126907 72.370586 
L 449.166195 61.834172 
L 451.205482 55.334412 
L 453.244769 62.897052 
L 455.284057 63.836212 
L 457.323344 56.684598 
L 459.362631 54.089012 
L 461.401919 57.56935 
L 463.441206 65.06725 
L 465.480493 65.42907 
L 467.519781 59.237256 
L 469.559068 54.122177 
L 471.598355 67.244194 
L 473.637643 67.0735 
L 475.67693 71.036007 
L 477.716217 53.606855 
L 479.755505 64.742055 
L 481.794792 57.177769 
L 483.834079 60.738933 
L 485.873367 65.551386 
L 487.912654 67.475621 
L 489.951942 50.04225 
L 491.991229 51.770114 
L 494.030516 46.803544 
L 496.069804 60.472809 
L 498.109091 56.74648 
L 498.109091 56.74648 
" clip-path="url(#p994eaf896e)" style="fill: none; stroke: #ff0000; stroke-opacity: 0.9; stroke-width: 1.5; stroke-linecap: square"/>
   </g>
   <g id="line2d_18">
    <path d="M 92.290909 110.551745 
L 94.330196 99.644662 
L 96.369484 118.449905 
L 98.408771 99.807927 
L 100.448058 90.93154 
L 102.487346 103.499963 
L 104.526633 97.969078 
L 106.565921 67.163497 
L 108.605208 110.923186 
L 110.644495 47.940952 
L 112.683783 80.841752 
L 114.72307 117.171256 
L 116.762357 119.268778 
L 118.801645 110.919511 
L 120.840932 69.950744 
L 122.880219 110.835663 
L 124.919507 68.52906 
L 126.958794 64.310879 
L 128.998081 84.855166 
L 131.037369 64.189752 
L 133.076656 51.442214 
L 135.115943 53.626283 
L 137.155231 103.807487 
L 139.194518 107.768415 
L 141.233805 122.992536 
L 143.273093 119.236774 
L 145.31238 119.351667 
L 147.351667 111.677972 
L 149.390955 116.227525 
L 151.430242 107.803891 
L 153.469529 106.324202 
L 155.508817 112.852989 
L 157.548104 125.893464 
L 159.587392 108.117491 
L 161.626679 121.512971 
L 163.665966 94.978085 
L 165.705254 94.179459 
L 167.744541 111.238838 
L 169.783828 51.382654 
L 171.823116 55.700865 
L 173.862403 75.033791 
L 175.90169 52.114974 
L 177.940978 44.992712 
L 179.980265 69.244961 
L 182.019552 64.911893 
L 184.05884 71.00646 
L 186.098127 66.411354 
L 188.137414 60.366054 
L 190.176702 68.915066 
L 192.215989 62.258218 
L 194.255276 49.26547 
L 196.294564 69.180796 
L 198.333851 74.867398 
L 200.373138 92.015185 
L 202.412426 71.347454 
L 204.451713 53.688436 
L 206.491 44.276605 
L 208.530288 73.360203 
L 210.569575 58.982512 
L 212.608862 109.989916 
L 214.64815 104.523078 
L 216.687437 92.943985 
L 218.726725 91.626 
L 220.766012 107.701003 
L 222.805299 118.848706 
L 224.844587 117.975723 
L 226.883874 70.287335 
L 228.923161 59.212557 
L 230.962449 78.979715 
L 233.001736 73.620781 
L 235.041023 45.66998 
L 237.080311 60.004499 
L 239.119598 53.004708 
L 241.158885 74.333323 
L 243.198173 53.496093 
L 245.23746 80.959193 
L 247.276747 51.668675 
L 249.316035 100.75247 
L 251.355322 76.994601 
L 253.394609 109.163366 
L 257.473184 72.234466 
L 259.512471 65.964114 
L 261.551759 58.028246 
L 263.591046 69.060508 
L 265.630333 64.607221 
L 267.669621 61.539313 
L 269.708908 50.029489 
L 271.748196 41.27627 
L 273.787483 62.724064 
L 275.82677 51.060182 
L 277.866058 66.054382 
L 279.905345 55.245452 
L 281.944632 81.579979 
L 283.98392 65.162759 
L 286.023207 63.630961 
L 288.062494 54.251522 
L 290.101782 67.675455 
L 292.141069 75.272737 
L 294.180356 55.390088 
L 296.219644 43.309975 
L 298.258931 78.752482 
L 300.298218 56.44342 
L 302.337506 61.437564 
L 304.376793 59.108627 
L 306.41608 46.44636 
L 308.455368 47.156456 
L 310.494655 57.506571 
L 312.533942 61.658625 
L 314.57323 72.768738 
L 316.612517 42.308645 
L 318.651804 57.724825 
L 320.691092 47.837416 
L 322.730379 43.998636 
L 326.808954 63.549036 
L 328.848241 47.679889 
L 332.926816 49.233238 
L 334.966103 47.58252 
L 337.005391 57.425671 
L 339.044678 42.715791 
L 341.083965 51.600333 
L 343.123253 57.458554 
L 345.16254 50.264892 
L 347.201827 53.930025 
L 349.241115 55.821659 
L 351.280402 43.075432 
L 353.319689 59.46715 
L 355.358977 58.787683 
L 357.398264 65.516795 
L 359.437551 82.967456 
L 361.476839 49.314687 
L 363.516126 57.101508 
L 365.555413 47.526169 
L 367.594701 70.417374 
L 369.633988 54.308614 
L 371.673275 63.169934 
L 373.712563 53.231981 
L 375.75185 68.850421 
L 377.791138 51.458397 
L 379.830425 93.318515 
L 381.869712 67.010637 
L 383.909 72.744473 
L 385.948287 99.040199 
L 387.987574 72.57383 
L 390.026862 80.087134 
L 392.066149 62.941168 
L 394.105436 67.373415 
L 396.144724 99.893826 
L 398.184011 83.258798 
L 400.223298 83.513796 
L 402.262586 60.004787 
L 404.301873 79.956741 
L 406.34116 68.885226 
L 408.380448 69.763722 
L 410.419735 48.633738 
L 412.459022 69.204621 
L 414.49831 103.927577 
L 416.537597 78.5822 
L 418.576884 111.270266 
L 420.616172 104.510565 
L 422.655459 85.827012 
L 424.694746 81.02267 
L 426.734034 62.404951 
L 428.773321 66.806609 
L 430.812608 65.272309 
L 432.851896 64.355187 
L 434.891183 71.450629 
L 436.930471 60.985674 
L 438.969758 60.960107 
L 441.009045 71.523119 
L 443.048333 49.445171 
L 445.08762 61.182712 
L 447.126907 70.055836 
L 449.166195 67.0723 
L 451.205482 57.527229 
L 453.244769 65.054776 
L 455.284057 63.155894 
L 457.323344 54.283904 
L 459.362631 51.304499 
L 461.401919 61.240176 
L 463.441206 61.185339 
L 465.480493 63.265145 
L 467.519781 55.959262 
L 469.559068 57.225696 
L 471.598355 68.434711 
L 473.637643 68.546617 
L 475.67693 70.791385 
L 477.716217 51.520719 
L 479.755505 65.74294 
L 481.794792 58.851273 
L 483.834079 62.428557 
L 485.873367 66.937392 
L 487.912654 67.51126 
L 489.951942 48.142508 
L 491.991229 51.171358 
L 494.030516 45.632439 
L 496.069804 65.142288 
L 498.109091 59.719842 
L 498.109091 59.719842 
" clip-path="url(#p994eaf896e)" style="fill: none; stroke: #008000; stroke-opacity: 0.9; stroke-width: 1.5; stroke-linecap: square"/>
   </g>
   <g id="line2d_19">
    <path d="M 153.469529 135.36 
L 153.469529 34.56 
" clip-path="url(#p994eaf896e)" style="fill: none; stroke-dasharray: 5.55,2.4; stroke-dashoffset: 0; stroke: #000000; stroke-width: 1.5"/>
   </g>
   <g id="line2d_20">
    <path d="M 438.969758 135.36 
L 438.969758 34.56 
" clip-path="url(#p994eaf896e)" style="fill: none; stroke-dasharray: 5.55,2.4; stroke-dashoffset: 0; stroke: #0000ff; stroke-width: 1.5"/>
   </g>
   <g id="patch_3">
    <path d="M 72 135.36 
L 72 34.56 
" style="fill: none; stroke: #000000; stroke-width: 0.8; stroke-linejoin: miter; stroke-linecap: square"/>
   </g>
   <g id="patch_4">
    <path d="M 518.4 135.36 
L 518.4 34.56 
" style="fill: none; stroke: #000000; stroke-width: 0.8; stroke-linejoin: miter; stroke-linecap: square"/>
   </g>
   <g id="patch_5">
    <path d="M 72 135.36 
L 518.4 135.36 
" style="fill: none; stroke: #000000; stroke-width: 0.8; stroke-linejoin: miter; stroke-linecap: square"/>
   </g>
   <g id="patch_6">
    <path d="M 72 34.56 
L 518.4 34.56 
" style="fill: none; stroke: #000000; stroke-width: 0.8; stroke-linejoin: miter; stroke-linecap: square"/>
   </g>
  </g>
  <g id="axes_2">
   <g id="patch_7">
    <path d="M 72 256.32 
L 518.4 256.32 
L 518.4 155.52 
L 72 155.52 
z
" style="fill: #ffffff"/>
   </g>
   <g id="matplotlib.axis_3">
    <g id="xtick_10">
     <g id="line2d_21">
      <g>
       <use xlink:href="#mc312d59bb4" x="92.290909" y="256.32" style="stroke: #000000; stroke-width: 0.8"/>
      </g>
     </g>
     <g id="text_4">
      <!-- 0 -->
      <g transform="translate(89.109659 270.918437) scale(0.1 -0.1)">
       <use xlink:href="#DejaVuSans-30"/>
      </g>
     </g>
    </g>
    <g id="xtick_11">
     <g id="line2d_22">
      <g>
       <use xlink:href="#mc312d59bb4" x="143.273093" y="256.32" style="stroke: #000000; stroke-width: 0.8"/>
      </g>
     </g>
     <g id="text_5">
      <!-- 25 -->
      <g transform="translate(136.910593 270.918437) scale(0.1 -0.1)">
       <defs>
        <path id="DejaVuSans-32" d="M 1228 531 
L 3431 531 
L 3431 0 
L 469 0 
L 469 531 
Q 828 903 1448 1529 
Q 2069 2156 2228 2338 
Q 2531 2678 2651 2914 
Q 2772 3150 2772 3378 
Q 2772 3750 2511 3984 
Q 2250 4219 1831 4219 
Q 1534 4219 1204 4116 
Q 875 4013 500 3803 
L 500 4441 
Q 881 4594 1212 4672 
Q 1544 4750 1819 4750 
Q 2544 4750 2975 4387 
Q 3406 4025 3406 3419 
Q 3406 3131 3298 2873 
Q 3191 2616 2906 2266 
Q 2828 2175 2409 1742 
Q 1991 1309 1228 531 
z
" transform="scale(0.015625)"/>
       </defs>
       <use xlink:href="#DejaVuSans-32"/>
       <use xlink:href="#DejaVuSans-35" transform="translate(63.623047 0)"/>
      </g>
     </g>
    </g>
    <g id="xtick_12">
     <g id="line2d_23">
      <g>
       <use xlink:href="#mc312d59bb4" x="194.255276" y="256.32" style="stroke: #000000; stroke-width: 0.8"/>
      </g>
     </g>
     <g id="text_6">
      <!-- 50 -->
      <g transform="translate(187.892776 270.918437) scale(0.1 -0.1)">
       <use xlink:href="#DejaVuSans-35"/>
       <use xlink:href="#DejaVuSans-30" transform="translate(63.623047 0)"/>
      </g>
     </g>
    </g>
    <g id="xtick_13">
     <g id="line2d_24">
      <g>
       <use xlink:href="#mc312d59bb4" x="245.23746" y="256.32" style="stroke: #000000; stroke-width: 0.8"/>
      </g>
     </g>
     <g id="text_7">
      <!-- 75 -->
      <g transform="translate(238.87496 270.918437) scale(0.1 -0.1)">
       <defs>
        <path id="DejaVuSans-37" d="M 525 4666 
L 3525 4666 
L 3525 4397 
L 1831 0 
L 1172 0 
L 2766 4134 
L 525 4134 
L 525 4666 
z
" transform="scale(0.015625)"/>
       </defs>
       <use xlink:href="#DejaVuSans-37"/>
       <use xlink:href="#DejaVuSans-35" transform="translate(63.623047 0)"/>
      </g>
     </g>
    </g>
    <g id="xtick_14">
     <g id="line2d_25">
      <g>
       <use xlink:href="#mc312d59bb4" x="296.219644" y="256.32" style="stroke: #000000; stroke-width: 0.8"/>
      </g>
     </g>
     <g id="text_8">
      <!-- 100 -->
      <g transform="translate(286.675894 270.918437) scale(0.1 -0.1)">
       <use xlink:href="#DejaVuSans-31"/>
       <use xlink:href="#DejaVuSans-30" transform="translate(63.623047 0)"/>
       <use xlink:href="#DejaVuSans-30" transform="translate(127.246094 0)"/>
      </g>
     </g>
    </g>
    <g id="xtick_15">
     <g id="line2d_26">
      <g>
       <use xlink:href="#mc312d59bb4" x="347.201827" y="256.32" style="stroke: #000000; stroke-width: 0.8"/>
      </g>
     </g>
     <g id="text_9">
      <!-- 125 -->
      <g transform="translate(337.658077 270.918437) scale(0.1 -0.1)">
       <use xlink:href="#DejaVuSans-31"/>
       <use xlink:href="#DejaVuSans-32" transform="translate(63.623047 0)"/>
       <use xlink:href="#DejaVuSans-35" transform="translate(127.246094 0)"/>
      </g>
     </g>
    </g>
    <g id="xtick_16">
     <g id="line2d_27">
      <g>
       <use xlink:href="#mc312d59bb4" x="398.184011" y="256.32" style="stroke: #000000; stroke-width: 0.8"/>
      </g>
     </g>
     <g id="text_10">
      <!-- 150 -->
      <g transform="translate(388.640261 270.918437) scale(0.1 -0.1)">
       <use xlink:href="#DejaVuSans-31"/>
       <use xlink:href="#DejaVuSans-35" transform="translate(63.623047 0)"/>
       <use xlink:href="#DejaVuSans-30" transform="translate(127.246094 0)"/>
      </g>
     </g>
    </g>
    <g id="xtick_17">
     <g id="line2d_28">
      <g>
       <use xlink:href="#mc312d59bb4" x="449.166195" y="256.32" style="stroke: #000000; stroke-width: 0.8"/>
      </g>
     </g>
     <g id="text_11">
      <!-- 175 -->
      <g transform="translate(439.622445 270.918437) scale(0.1 -0.1)">
       <use xlink:href="#DejaVuSans-31"/>
       <use xlink:href="#DejaVuSans-37" transform="translate(63.623047 0)"/>
       <use xlink:href="#DejaVuSans-35" transform="translate(127.246094 0)"/>
      </g>
     </g>
    </g>
    <g id="xtick_18">
     <g id="line2d_29">
      <g>
       <use xlink:href="#mc312d59bb4" x="500.148378" y="256.32" style="stroke: #000000; stroke-width: 0.8"/>
      </g>
     </g>
     <g id="text_12">
      <!-- 200 -->
      <g transform="translate(490.604628 270.918437) scale(0.1 -0.1)">
       <use xlink:href="#DejaVuSans-32"/>
       <use xlink:href="#DejaVuSans-30" transform="translate(63.623047 0)"/>
       <use xlink:href="#DejaVuSans-30" transform="translate(127.246094 0)"/>
      </g>
     </g>
    </g>
   </g>
   <g id="matplotlib.axis_4">
    <g id="ytick_4">
     <g id="line2d_30">
      <g>
       <use xlink:href="#m83ddcfb7bd" x="72" y="252.419301" style="stroke: #000000; stroke-width: 0.8"/>
      </g>
     </g>
     <g id="text_13">
      <!-- −200 -->
      <g transform="translate(37.532812 256.21852) scale(0.1 -0.1)">
       <use xlink:href="#DejaVuSans-2212"/>
       <use xlink:href="#DejaVuSans-32" transform="translate(83.789062 0)"/>
       <use xlink:href="#DejaVuSans-30" transform="translate(147.412109 0)"/>
       <use xlink:href="#DejaVuSans-30" transform="translate(211.035156 0)"/>
      </g>
     </g>
    </g>
    <g id="ytick_5">
     <g id="line2d_31">
      <g>
       <use xlink:href="#m83ddcfb7bd" x="72" y="228.510456" style="stroke: #000000; stroke-width: 0.8"/>
      </g>
     </g>
     <g id="text_14">
      <!-- −100 -->
      <g transform="translate(37.532812 232.309675) scale(0.1 -0.1)">
       <use xlink:href="#DejaVuSans-2212"/>
       <use xlink:href="#DejaVuSans-31" transform="translate(83.789062 0)"/>
       <use xlink:href="#DejaVuSans-30" transform="translate(147.412109 0)"/>
       <use xlink:href="#DejaVuSans-30" transform="translate(211.035156 0)"/>
      </g>
     </g>
    </g>
    <g id="ytick_6">
     <g id="line2d_32">
      <g>
       <use xlink:href="#m83ddcfb7bd" x="72" y="204.601612" style="stroke: #000000; stroke-width: 0.8"/>
      </g>
     </g>
     <g id="text_15">
      <!-- 0 -->
      <g transform="translate(58.6375 208.40083) scale(0.1 -0.1)">
       <use xlink:href="#DejaVuSans-30"/>
      </g>
     </g>
    </g>
    <g id="ytick_7">
     <g id="line2d_33">
      <g>
       <use xlink:href="#m83ddcfb7bd" x="72" y="180.692767" style="stroke: #000000; stroke-width: 0.8"/>
      </g>
     </g>
     <g id="text_16">
      <!-- 100 -->
      <g transform="translate(45.9125 184.491986) scale(0.1 -0.1)">
       <use xlink:href="#DejaVuSans-31"/>
       <use xlink:href="#DejaVuSans-30" transform="translate(63.623047 0)"/>
       <use xlink:href="#DejaVuSans-30" transform="translate(127.246094 0)"/>
      </g>
     </g>
    </g>
    <g id="ytick_8">
     <g id="line2d_34">
      <g>
       <use xlink:href="#m83ddcfb7bd" x="72" y="156.783922" style="stroke: #000000; stroke-width: 0.8"/>
      </g>
     </g>
     <g id="text_17">
      <!-- 200 -->
      <g transform="translate(45.9125 160.583141) scale(0.1 -0.1)">
       <use xlink:href="#DejaVuSans-32"/>
       <use xlink:href="#DejaVuSans-30" transform="translate(63.623047 0)"/>
       <use xlink:href="#DejaVuSans-30" transform="translate(127.246094 0)"/>
      </g>
     </g>
    </g>
   </g>
   <g id="line2d_35">
    <path d="M 92.290909 178.127079 
L 94.330196 169.558416 
L 96.369484 165.446453 
L 98.408771 164.724577 
L 100.448058 169.835435 
L 102.487346 166.26597 
L 104.526633 169.299387 
L 106.565921 164.565012 
L 108.605208 166.419636 
L 110.644495 176.285194 
L 112.683783 247.898561 
L 114.72307 162.432456 
L 116.762357 165.494675 
L 118.801645 171.262881 
L 120.840932 162.713032 
L 122.880219 169.807238 
L 124.919507 167.500693 
L 126.958794 181.673841 
L 128.998081 165.332494 
L 131.037369 167.688378 
L 133.076656 174.850207 
L 135.115943 169.597281 
L 137.155231 166.10495 
L 139.194518 164.856784 
L 141.233805 168.158263 
L 143.273093 165.493975 
L 145.31238 163.544946 
L 147.351667 162.331175 
L 149.390955 165.084435 
L 151.430242 163.891459 
L 153.469529 165.060813 
L 155.508817 169.317978 
L 157.548104 165.915481 
L 159.587392 165.918848 
L 161.626679 168.940524 
L 163.665966 169.470345 
L 165.705254 249.286854 
L 167.744541 163.856141 
L 169.783828 169.248575 
L 171.823116 166.797407 
L 173.862403 167.666449 
L 175.90169 173.60129 
L 177.940978 171.308735 
L 179.980265 185.237866 
L 182.019552 170.058975 
L 184.05884 173.308941 
L 186.098127 188.111464 
L 188.137414 172.975645 
L 190.176702 175.450333 
L 192.215989 198.160573 
L 194.255276 193.02043 
L 196.294564 189.72895 
L 198.333851 188.089165 
L 200.373138 173.059441 
L 202.412426 166.058946 
L 204.451713 167.700476 
L 206.491 167.754535 
L 208.530288 174.796343 
L 210.569575 165.619298 
L 212.608862 164.954023 
L 214.64815 170.195429 
L 216.687437 162.974159 
L 218.726725 168.36683 
L 220.766012 167.151115 
L 222.805299 171.362812 
L 224.844587 163.298036 
L 226.883874 179.376487 
L 228.923161 186.927448 
L 230.962449 167.912684 
L 233.001736 171.301774 
L 235.041023 166.680034 
L 237.080311 168.347104 
L 239.119598 170.964922 
L 241.158885 165.654871 
L 243.198173 171.218194 
L 245.23746 162.17984 
L 247.276747 166.618485 
L 249.316035 165.28073 
L 251.355322 171.283048 
L 253.394609 166.413898 
L 255.433897 165.427866 
L 257.473184 169.76238 
L 259.512471 164.670116 
L 261.551759 163.933906 
L 263.591046 166.19069 
L 265.630333 169.184002 
L 267.669621 164.051655 
L 269.708908 165.852078 
L 271.748196 167.330606 
L 273.787483 167.76093 
L 275.82677 162.835185 
L 277.866058 249.323318 
L 279.905345 169.026815 
L 281.944632 165.788979 
L 283.98392 163.50846 
L 286.023207 171.15905 
L 288.062494 172.650569 
L 290.101782 170.913278 
L 292.141069 171.802902 
L 294.180356 168.969367 
L 296.219644 169.10944 
L 298.258931 175.41081 
L 300.298218 171.790265 
L 302.337506 165.348984 
L 304.376793 171.52171 
L 306.41608 164.970914 
L 308.455368 169.431525 
L 310.494655 168.383342 
L 312.533942 165.219149 
L 314.57323 249.776534 
L 316.612517 160.101818 
L 318.651804 162.829847 
L 320.691092 163.100883 
L 322.730379 166.728168 
L 324.769667 166.155503 
L 326.808954 166.688242 
L 328.848241 167.993003 
L 330.887529 168.067397 
L 332.926816 165.479353 
L 334.966103 166.142617 
L 337.005391 161.333834 
L 339.044678 165.250534 
L 341.083965 163.81929 
L 343.123253 163.59505 
L 345.16254 166.066104 
L 347.201827 165.488546 
L 349.241115 249.496658 
L 351.280402 162.694047 
L 353.319689 164.945891 
L 355.358977 172.398945 
L 357.398264 168.368764 
L 359.437551 171.514213 
L 361.476839 168.146639 
L 363.516126 166.455261 
L 365.555413 171.443434 
L 367.594701 168.106287 
L 369.633988 172.422658 
L 371.673275 167.250342 
L 373.712563 173.842567 
L 375.75185 176.599005 
L 377.791138 174.478811 
L 379.830425 166.911122 
L 381.869712 179.603945 
L 383.909 171.633567 
L 385.948287 171.001148 
L 387.987574 168.890788 
L 390.026862 173.70827 
L 392.066149 172.41024 
L 394.105436 173.55406 
L 396.144724 247.962999 
L 398.184011 165.860156 
L 400.223298 173.453643 
L 402.262586 171.356873 
L 404.301873 170.314641 
L 406.34116 167.912407 
L 408.380448 173.325453 
L 410.419735 167.977447 
L 412.459022 172.739537 
L 414.49831 166.860514 
L 416.537597 167.069136 
L 418.576884 162.259072 
L 420.616172 169.382154 
L 422.655459 168.469976 
L 424.694746 173.211293 
L 426.734034 168.609771 
L 428.773321 173.308668 
L 430.812608 177.670445 
L 432.851896 173.783422 
L 434.891183 174.378387 
L 436.930471 178.742122 
L 438.969758 171.07559 
L 441.009045 178.553765 
L 443.048333 171.949399 
L 445.08762 175.527702 
L 447.126907 175.523809 
L 449.166195 164.509665 
L 451.205482 170.250195 
L 453.244769 173.711239 
L 455.284057 178.687413 
L 457.323344 181.783466 
L 459.362631 174.103377 
L 461.401919 173.678263 
L 463.441206 178.536788 
L 465.480493 175.872666 
L 467.519781 175.718535 
L 469.559068 174.665225 
L 471.598355 172.011988 
L 473.637643 176.809234 
L 475.67693 179.251867 
L 477.716217 180.354851 
L 479.755505 173.952258 
L 481.794792 177.345808 
L 483.834079 172.092303 
L 485.873367 175.123846 
L 487.912654 178.704016 
L 489.951942 173.34214 
L 491.991229 170.486369 
L 494.030516 171.076783 
L 496.069804 174.350756 
L 498.109091 175.630369 
L 498.109091 175.630369 
" clip-path="url(#pec53703e91)" style="fill: none; stroke: #ff0000; stroke-opacity: 0.9; stroke-width: 1.5; stroke-linecap: square"/>
   </g>
   <g id="line2d_36">
    <path d="M 92.290909 177.302008 
L 94.330196 170.530242 
L 96.369484 165.395506 
L 98.408771 165.116164 
L 100.448058 169.836004 
L 102.487346 168.069812 
L 104.526633 169.339696 
L 106.565921 164.544173 
L 108.605208 165.195731 
L 110.644495 175.395254 
L 112.683783 247.271979 
L 114.72307 162.846242 
L 116.762357 163.24761 
L 118.801645 170.282431 
L 120.840932 163.140718 
L 122.880219 168.845397 
L 124.919507 167.427988 
L 126.958794 180.55925 
L 128.998081 165.120549 
L 131.037369 169.01903 
L 133.076656 174.76118 
L 135.115943 169.098035 
L 137.155231 167.795449 
L 139.194518 165.342921 
L 141.233805 168.057131 
L 143.273093 166.798892 
L 145.31238 162.384975 
L 147.351667 161.735916 
L 149.390955 165.046155 
L 151.430242 163.16728 
L 153.469529 165.051393 
L 155.508817 168.196941 
L 157.548104 164.502098 
L 159.587392 166.292325 
L 161.626679 169.38173 
L 163.665966 169.639895 
L 165.705254 249.835054 
L 167.744541 163.770923 
L 169.783828 169.545801 
L 171.823116 168.458429 
L 173.862403 167.547255 
L 175.90169 172.978732 
L 177.940978 171.868902 
L 179.980265 186.173026 
L 182.019552 169.887178 
L 184.05884 173.109844 
L 186.098127 188.399459 
L 188.137414 172.662641 
L 190.176702 174.304561 
L 192.215989 197.350357 
L 194.255276 193.160352 
L 196.294564 189.711389 
L 198.333851 188.237101 
L 200.373138 171.752601 
L 202.412426 165.840189 
L 204.451713 168.133243 
L 206.491 166.587121 
L 208.530288 175.823768 
L 210.569575 166.908313 
L 212.608862 164.621471 
L 214.64815 169.859597 
L 216.687437 161.844527 
L 218.726725 169.414258 
L 220.766012 167.692074 
L 222.805299 170.291913 
L 224.844587 163.46767 
L 226.883874 179.084354 
L 228.923161 187.569462 
L 230.962449 167.358336 
L 233.001736 171.95393 
L 235.041023 167.714437 
L 237.080311 166.483662 
L 239.119598 169.894634 
L 241.158885 165.656458 
L 243.198173 171.339048 
L 245.23746 163.367512 
L 247.276747 166.427783 
L 249.316035 165.297924 
L 251.355322 170.77346 
L 253.394609 166.332357 
L 255.433897 164.519584 
L 257.473184 170.623607 
L 259.512471 165.036855 
L 261.551759 162.744914 
L 263.591046 166.719409 
L 265.630333 168.953705 
L 267.669621 164.618538 
L 269.708908 167.537463 
L 271.748196 165.879732 
L 273.787483 169.021613 
L 275.82677 163.152739 
L 277.866058 249.985032 
L 279.905345 168.230836 
L 281.944632 165.941153 
L 283.98392 164.605102 
L 286.023207 171.411804 
L 288.062494 171.691282 
L 290.101782 170.40084 
L 292.141069 172.627198 
L 294.180356 167.855509 
L 296.219644 168.279522 
L 298.258931 175.889415 
L 300.298218 170.757853 
L 302.337506 166.335655 
L 304.376793 171.033398 
L 306.41608 165.553072 
L 308.455368 168.697689 
L 310.494655 169.465285 
L 312.533942 165.195359 
L 314.57323 249.922728 
L 316.612517 160.191538 
L 318.651804 164.237484 
L 320.691092 162.173321 
L 322.730379 167.149207 
L 324.769667 165.435549 
L 326.808954 164.926461 
L 328.848241 168.236845 
L 330.887529 168.004652 
L 332.926816 164.876677 
L 334.966103 166.04269 
L 337.005391 162.047035 
L 339.044678 165.446118 
L 341.083965 164.583924 
L 343.123253 164.190969 
L 345.16254 165.272846 
L 347.201827 164.948346 
L 349.241115 250.248264 
L 351.280402 164.146859 
L 353.319689 164.080301 
L 355.358977 172.162837 
L 357.398264 167.785406 
L 359.437551 171.385844 
L 361.476839 166.610871 
L 363.516126 167.498059 
L 365.555413 171.463251 
L 367.594701 168.266333 
L 369.633988 172.027369 
L 371.673275 165.736066 
L 373.712563 173.995646 
L 375.75185 176.370447 
L 377.791138 174.388354 
L 379.830425 166.779155 
L 381.869712 179.048987 
L 383.909 172.572796 
L 385.948287 170.503574 
L 387.987574 168.626713 
L 390.026862 172.818047 
L 392.066149 172.76247 
L 394.105436 174.014018 
L 396.144724 246.367261 
L 398.184011 165.451743 
L 400.223298 172.04654 
L 402.262586 172.207294 
L 404.301873 171.088282 
L 406.34116 168.71292 
L 408.380448 174.083354 
L 410.419735 167.914585 
L 412.459022 173.389924 
L 414.49831 166.255387 
L 416.537597 167.606669 
L 418.576884 162.266868 
L 420.616172 169.491866 
L 422.655459 168.630296 
L 424.694746 173.414312 
L 426.734034 168.079177 
L 428.773321 172.975521 
L 430.812608 176.283948 
L 432.851896 172.396311 
L 434.891183 173.834016 
L 436.930471 178.146531 
L 438.969758 171.832985 
L 441.009045 179.910429 
L 443.048333 174.456566 
L 445.08762 176.30766 
L 447.126907 176.196862 
L 449.166195 164.326394 
L 451.205482 170.983593 
L 453.244769 174.074678 
L 455.284057 179.066398 
L 457.323344 180.467717 
L 459.362631 174.117672 
L 461.401919 173.315176 
L 463.441206 178.152538 
L 465.480493 176.021114 
L 467.519781 176.157388 
L 469.559068 175.801517 
L 471.598355 171.713007 
L 473.637643 176.430567 
L 475.67693 179.055925 
L 477.716217 181.218681 
L 479.755505 174.387491 
L 481.794792 177.687619 
L 483.834079 171.963689 
L 485.873367 174.989034 
L 487.912654 179.314307 
L 489.951942 173.221899 
L 491.991229 169.585479 
L 494.030516 170.891031 
L 496.069804 174.671389 
L 498.109091 176.811604 
L 498.109091 176.811604 
" clip-path="url(#pec53703e91)" style="fill: none; stroke: #ff0000; stroke-opacity: 0.9; stroke-width: 1.5; stroke-linecap: square"/>
   </g>
   <g id="line2d_37">
    <path d="M 92.290909 177.556791 
L 96.369484 164.758016 
L 98.408771 165.70402 
L 100.448058 170.31981 
L 102.487346 166.920096 
L 104.526633 168.975237 
L 106.565921 163.464941 
L 108.605208 165.322987 
L 110.644495 175.735722 
L 112.683783 248.230131 
L 114.72307 161.975395 
L 116.762357 165.055859 
L 118.801645 170.622947 
L 120.840932 162.707728 
L 122.880219 169.484533 
L 124.919507 166.307086 
L 126.958794 180.963414 
L 128.998081 164.497509 
L 131.037369 167.909587 
L 133.076656 175.225313 
L 135.115943 169.200386 
L 137.155231 166.658801 
L 139.194518 165.983906 
L 141.233805 168.169908 
L 143.273093 166.670793 
L 145.31238 162.42385 
L 147.351667 161.875051 
L 149.390955 164.942943 
L 151.430242 163.207783 
L 153.469529 165.351294 
L 155.508817 168.771967 
L 157.548104 165.037921 
L 159.587392 165.925141 
L 161.626679 169.612041 
L 163.665966 168.876688 
L 165.705254 249.572815 
L 167.744541 163.116366 
L 169.783828 168.651167 
L 171.823116 168.21211 
L 173.862403 167.352773 
L 175.90169 173.505692 
L 177.940978 172.430013 
L 179.980265 185.303764 
L 182.019552 171.260958 
L 184.05884 174.094765 
L 186.098127 188.880477 
L 188.137414 173.673604 
L 190.176702 174.580828 
L 192.215989 198.217301 
L 194.255276 193.519035 
L 196.294564 189.487027 
L 198.333851 188.678894 
L 200.373138 172.270601 
L 202.412426 165.591849 
L 204.451713 168.167825 
L 206.491 167.393793 
L 208.530288 175.825419 
L 210.569575 166.023427 
L 212.608862 165.064432 
L 214.64815 169.01084 
L 216.687437 162.296068 
L 218.726725 168.159237 
L 220.766012 168.938777 
L 222.805299 171.228179 
L 224.844587 162.928207 
L 226.883874 178.960857 
L 228.923161 188.502568 
L 230.962449 166.588395 
L 233.001736 171.559629 
L 235.041023 166.953514 
L 237.080311 166.900783 
L 239.119598 169.376054 
L 241.158885 165.531613 
L 243.198173 171.381272 
L 245.23746 164.737779 
L 247.276747 164.74717 
L 249.316035 165.595242 
L 251.355322 170.689457 
L 253.394609 166.548837 
L 255.433897 164.190688 
L 257.473184 171.973412 
L 259.512471 165.652555 
L 261.551759 164.35725 
L 263.591046 166.304346 
L 265.630333 169.176063 
L 267.669621 165.609221 
L 269.708908 166.503888 
L 271.748196 165.031339 
L 273.787483 168.452687 
L 275.82677 162.926539 
L 277.866058 250.903817 
L 279.905345 168.539262 
L 281.944632 165.392566 
L 283.98392 164.183954 
L 286.023207 171.283672 
L 288.062494 172.634462 
L 290.101782 170.729718 
L 292.141069 173.22164 
L 294.180356 167.828276 
L 296.219644 168.539832 
L 298.258931 175.430499 
L 300.298218 170.229503 
L 302.337506 165.55714 
L 304.376793 171.262848 
L 306.41608 165.941893 
L 308.455368 168.635433 
L 310.494655 169.896583 
L 312.533942 165.078394 
L 314.57323 250.690597 
L 316.612517 160.848922 
L 318.651804 163.615998 
L 320.691092 163.453971 
L 322.730379 167.779116 
L 324.769667 165.827614 
L 326.808954 165.275225 
L 328.848241 167.3963 
L 330.887529 168.476353 
L 332.926816 164.579021 
L 334.966103 166.002092 
L 337.005391 161.92625 
L 339.044678 164.557533 
L 341.083965 164.221369 
L 343.123253 164.459261 
L 345.16254 165.55815 
L 347.201827 165.772745 
L 349.241115 250.59473 
L 351.280402 163.318776 
L 353.319689 165.000067 
L 355.358977 171.143658 
L 357.398264 168.591475 
L 359.437551 171.963456 
L 361.476839 167.093794 
L 363.516126 166.341959 
L 365.555413 172.058152 
L 367.594701 167.555109 
L 369.633988 170.948928 
L 371.673275 166.306104 
L 373.712563 173.604931 
L 375.75185 177.174713 
L 377.791138 175.039708 
L 379.830425 166.944474 
L 381.869712 179.362305 
L 383.909 171.328746 
L 385.948287 170.989284 
L 387.987574 168.331151 
L 390.026862 173.148023 
L 392.066149 173.331024 
L 394.105436 173.75589 
L 396.144724 246.297143 
L 398.184011 166.39017 
L 400.223298 172.761514 
L 402.262586 171.443821 
L 404.301873 172.657274 
L 406.34116 168.638307 
L 408.380448 172.484608 
L 410.419735 168.343453 
L 412.459022 172.199243 
L 414.49831 165.726825 
L 416.537597 167.710081 
L 418.576884 162.379995 
L 420.616172 169.611862 
L 422.655459 168.930047 
L 424.694746 173.153378 
L 426.734034 168.073092 
L 428.773321 174.098111 
L 430.812608 175.905362 
L 432.851896 173.610053 
L 434.891183 174.534607 
L 436.930471 179.422387 
L 438.969758 171.861627 
L 441.009045 179.574526 
L 443.048333 173.276253 
L 445.08762 174.995838 
L 447.126907 175.951057 
L 449.166195 165.946246 
L 451.205482 169.875704 
L 453.244769 173.517443 
L 455.284057 180.118816 
L 457.323344 180.975426 
L 459.362631 173.897086 
L 461.401919 173.028588 
L 463.441206 177.546745 
L 465.480493 174.655543 
L 467.519781 175.032707 
L 469.559068 175.09404 
L 471.598355 170.970897 
L 473.637643 176.185255 
L 475.67693 177.894123 
L 477.716217 180.436689 
L 479.755505 175.407745 
L 481.794792 177.959152 
L 483.834079 172.70906 
L 485.873367 174.180383 
L 487.912654 179.70376 
L 489.951942 173.832035 
L 491.991229 169.736905 
L 494.030516 169.488389 
L 496.069804 174.546434 
L 498.109091 177.606557 
L 498.109091 177.606557 
" clip-path="url(#pec53703e91)" style="fill: none; stroke: #ff0000; stroke-opacity: 0.9; stroke-width: 1.5; stroke-linecap: square"/>
   </g>
   <g id="line2d_38">
    <path d="M 92.290909 177.779683 
L 96.369484 164.385258 
L 98.408771 164.06909 
L 100.448058 170.085541 
L 102.487346 166.61727 
L 104.526633 170.689537 
L 106.565921 163.633608 
L 108.605208 165.89601 
L 110.644495 175.955776 
L 112.683783 247.722177 
L 114.72307 162.849409 
L 116.762357 165.509155 
L 118.801645 170.141464 
L 120.840932 160.417825 
L 122.880219 168.241726 
L 124.919507 166.449522 
L 126.958794 181.096408 
L 128.998081 164.40328 
L 131.037369 168.561615 
L 133.076656 175.253924 
L 135.115943 168.813665 
L 137.155231 166.846355 
L 139.194518 166.198822 
L 141.233805 168.283239 
L 143.273093 165.740703 
L 145.31238 162.722485 
L 147.351667 161.902511 
L 149.390955 165.566176 
L 151.430242 163.824288 
L 153.469529 164.615262 
L 155.508817 168.883886 
L 157.548104 164.542725 
L 159.587392 166.596884 
L 161.626679 169.784123 
L 163.665966 169.327799 
L 165.705254 249.003881 
L 167.744541 163.125359 
L 169.783828 168.777256 
L 171.823116 167.690388 
L 173.862403 168.603091 
L 175.90169 172.139934 
L 177.940978 172.90413 
L 179.980265 184.670522 
L 182.019552 170.428494 
L 184.05884 173.004225 
L 186.098127 188.455798 
L 188.137414 173.596693 
L 190.176702 174.805276 
L 192.215989 198.457797 
L 194.255276 192.555952 
L 196.294564 189.889524 
L 198.333851 188.367199 
L 200.373138 172.191483 
L 202.412426 167.060687 
L 204.451713 169.094967 
L 206.491 167.043497 
L 208.530288 176.656851 
L 210.569575 166.59877 
L 212.608862 164.607568 
L 214.64815 170.313098 
L 216.687437 161.851513 
L 218.726725 168.515458 
L 220.766012 167.511988 
L 222.805299 171.261393 
L 224.844587 164.547081 
L 226.883874 178.129025 
L 228.923161 187.080045 
L 230.962449 167.662658 
L 233.001736 172.656333 
L 235.041023 167.958064 
L 237.080311 167.21084 
L 239.119598 169.58152 
L 241.158885 166.580124 
L 243.198173 171.516526 
L 245.23746 162.996942 
L 247.276747 165.487838 
L 249.316035 165.243763 
L 251.355322 170.373669 
L 253.394609 166.967512 
L 255.433897 163.942421 
L 257.473184 170.980634 
L 259.512471 165.271982 
L 261.551759 162.816809 
L 263.591046 165.276126 
L 265.630333 169.470276 
L 267.669621 165.255178 
L 269.708908 166.166991 
L 271.748196 165.880345 
L 273.787483 168.035107 
L 275.82677 163.708024 
L 277.866058 249.352149 
L 279.905345 167.842602 
L 281.944632 165.65231 
L 283.98392 164.606973 
L 286.023207 171.087019 
L 288.062494 172.211803 
L 290.101782 170.424433 
L 292.141069 173.841155 
L 294.180356 167.459654 
L 296.219644 170.159636 
L 298.258931 174.437505 
L 300.298218 170.21337 
L 302.337506 165.267914 
L 304.376793 171.914738 
L 306.41608 164.445486 
L 308.455368 169.241176 
L 310.494655 170.255456 
L 312.533942 165.433371 
L 314.57323 249.759453 
L 316.612517 160.745412 
L 318.651804 162.467742 
L 320.691092 163.572676 
L 322.730379 167.175113 
L 326.808954 166.401373 
L 328.848241 166.826473 
L 330.887529 168.612839 
L 332.926816 164.773087 
L 334.966103 166.353046 
L 337.005391 161.860798 
L 339.044678 163.639511 
L 343.123253 163.838921 
L 345.16254 166.555503 
L 347.201827 164.269318 
L 349.241115 250.6795 
L 351.280402 164.85346 
L 353.319689 164.83558 
L 355.358977 171.617763 
L 357.398264 168.641416 
L 359.437551 171.349737 
L 361.476839 166.817918 
L 363.516126 166.886077 
L 365.555413 170.362151 
L 367.594701 168.351701 
L 369.633988 171.275909 
L 371.673275 167.04821 
L 373.712563 172.820849 
L 375.75185 177.269373 
L 377.791138 174.814864 
L 379.830425 167.36761 
L 381.869712 179.839624 
L 383.909 172.257891 
L 387.987574 169.550985 
L 390.026862 173.79954 
L 392.066149 173.155053 
L 394.105436 172.662874 
L 396.144724 248.18594 
L 398.184011 165.83518 
L 400.223298 171.884111 
L 402.262586 170.971835 
L 404.301873 170.400446 
L 406.34116 168.311392 
L 408.380448 174.983124 
L 410.419735 168.365553 
L 412.459022 172.748851 
L 414.49831 166.521655 
L 416.537597 166.80315 
L 418.576884 162.457782 
L 420.616172 170.153679 
L 422.655459 168.795253 
L 424.694746 172.923516 
L 426.734034 168.168806 
L 428.773321 172.734481 
L 430.812608 176.684497 
L 432.851896 172.304231 
L 434.891183 175.057985 
L 436.930471 179.683157 
L 438.969758 170.605048 
L 441.009045 180.01155 
L 443.048333 172.843143 
L 445.08762 174.903903 
L 447.126907 176.027272 
L 449.166195 165.948344 
L 451.205482 169.939321 
L 453.244769 174.338066 
L 455.284057 178.455266 
L 457.323344 182.06057 
L 459.362631 175.07283 
L 461.401919 173.820331 
L 463.441206 177.073929 
L 465.480493 175.775176 
L 467.519781 175.280394 
L 469.559068 175.807231 
L 471.598355 171.811683 
L 473.637643 176.848274 
L 477.716217 180.095936 
L 479.755505 174.087141 
L 481.794792 177.329249 
L 483.834079 172.342843 
L 485.873367 175.480968 
L 487.912654 178.346599 
L 489.951942 173.942152 
L 491.991229 170.356022 
L 494.030516 171.224717 
L 496.069804 174.956445 
L 498.109091 176.591588 
L 498.109091 176.591588 
" clip-path="url(#pec53703e91)" style="fill: none; stroke: #ff0000; stroke-opacity: 0.9; stroke-width: 1.5; stroke-linecap: square"/>
   </g>
   <g id="line2d_39">
    <path d="M 92.290909 176.948696 
L 94.330196 171.168185 
L 96.369484 164.750654 
L 98.408771 165.022277 
L 100.448058 170.588216 
L 102.487346 165.800956 
L 104.526633 169.895422 
L 106.565921 162.715819 
L 108.605208 166.7205 
L 110.644495 175.264741 
L 112.683783 247.556341 
L 114.72307 162.704324 
L 116.762357 164.490548 
L 118.801645 170.699555 
L 120.840932 162.683201 
L 122.880219 169.461064 
L 124.919507 165.726387 
L 126.958794 180.408085 
L 128.998081 163.738081 
L 131.037369 168.408686 
L 133.076656 175.096787 
L 135.115943 167.875089 
L 137.155231 166.799166 
L 139.194518 166.917473 
L 141.233805 168.486469 
L 143.273093 166.715261 
L 145.31238 162.889335 
L 147.351667 162.595852 
L 149.390955 165.814495 
L 151.430242 163.752291 
L 155.508817 168.121055 
L 157.548104 164.80595 
L 159.587392 166.996026 
L 161.626679 168.457557 
L 163.665966 169.279599 
L 165.705254 249.51502 
L 167.744541 162.412672 
L 169.783828 169.74512 
L 171.823116 168.534367 
L 173.862403 168.331851 
L 175.90169 173.161408 
L 177.940978 172.042541 
L 179.980265 185.571919 
L 182.019552 170.018126 
L 184.05884 173.015819 
L 186.098127 187.255596 
L 188.137414 173.46863 
L 190.176702 174.709651 
L 192.215989 198.385674 
L 194.255276 193.032347 
L 196.294564 189.231316 
L 198.333851 186.958463 
L 200.373138 173.078105 
L 202.412426 165.932547 
L 204.451713 168.752883 
L 206.491 166.781344 
L 208.530288 175.61201 
L 210.569575 167.304022 
L 212.608862 164.232077 
L 214.64815 169.704312 
L 216.687437 162.434032 
L 218.726725 168.176879 
L 220.766012 167.875925 
L 222.805299 171.680286 
L 224.844587 163.728053 
L 226.883874 178.422018 
L 228.923161 188.113381 
L 230.962449 167.298426 
L 233.001736 171.844284 
L 235.041023 167.485881 
L 237.080311 167.496479 
L 239.119598 169.806607 
L 241.158885 166.297422 
L 243.198173 172.852657 
L 245.23746 163.052902 
L 247.276747 165.513774 
L 249.316035 165.507681 
L 251.355322 170.580215 
L 253.394609 166.640024 
L 255.433897 164.468064 
L 257.473184 170.200007 
L 259.512471 164.918716 
L 261.551759 162.870704 
L 263.591046 164.82125 
L 265.630333 170.312306 
L 267.669621 163.814026 
L 269.708908 165.67525 
L 271.748196 166.137017 
L 273.787483 168.439904 
L 275.82677 163.509792 
L 277.866058 249.925088 
L 279.905345 168.272211 
L 281.944632 165.200068 
L 283.98392 163.72571 
L 286.023207 171.221215 
L 288.062494 171.474962 
L 292.141069 172.821644 
L 294.180356 167.258927 
L 296.219644 169.314439 
L 298.258931 175.452558 
L 300.298218 169.992246 
L 302.337506 165.041138 
L 304.376793 171.535507 
L 306.41608 164.900566 
L 308.455368 168.626268 
L 310.494655 169.074701 
L 312.533942 164.709984 
L 314.57323 250.239837 
L 316.612517 160.658154 
L 318.651804 163.46706 
L 320.691092 163.33528 
L 322.730379 166.579019 
L 324.769667 166.428293 
L 326.808954 165.619765 
L 328.848241 167.847556 
L 330.887529 167.155843 
L 332.926816 165.754153 
L 334.966103 166.030928 
L 337.005391 162.336308 
L 339.044678 164.546705 
L 341.083965 163.9007 
L 343.123253 164.666884 
L 345.16254 166.010684 
L 347.201827 164.582651 
L 349.241115 251.738182 
L 351.280402 164.020806 
L 353.319689 164.522674 
L 355.358977 170.953988 
L 357.398264 168.834799 
L 359.437551 171.914657 
L 361.476839 167.37309 
L 363.516126 167.23062 
L 365.555413 170.771162 
L 367.594701 168.190677 
L 369.633988 170.693331 
L 371.673275 167.066787 
L 373.712563 173.263623 
L 375.75185 177.958003 
L 377.791138 175.112484 
L 379.830425 167.023603 
L 381.869712 179.03041 
L 383.909 173.011372 
L 387.987574 169.428376 
L 390.026862 172.319309 
L 392.066149 171.847793 
L 394.105436 172.560601 
L 396.144724 246.843089 
L 398.184011 165.577409 
L 400.223298 172.527311 
L 402.262586 171.991033 
L 404.301873 172.198228 
L 406.34116 168.200611 
L 408.380448 172.786639 
L 410.419735 168.415019 
L 412.459022 172.591147 
L 414.49831 166.758682 
L 416.537597 167.560494 
L 418.576884 163.576036 
L 420.616172 170.459686 
L 422.655459 168.967094 
L 424.694746 173.430408 
L 426.734034 168.081362 
L 428.773321 173.140343 
L 430.812608 176.730885 
L 432.851896 173.058317 
L 434.891183 174.05602 
L 436.930471 178.769883 
L 438.969758 173.649296 
L 441.009045 179.631726 
L 443.048333 171.508467 
L 445.08762 175.329559 
L 447.126907 175.575997 
L 449.166195 164.841782 
L 451.205482 170.955469 
L 453.244769 173.877046 
L 455.284057 179.115032 
L 457.323344 182.148413 
L 459.362631 174.266928 
L 461.401919 173.700047 
L 463.441206 177.441907 
L 465.480493 175.472087 
L 469.559068 175.117825 
L 471.598355 171.666208 
L 473.637643 177.330823 
L 475.67693 179.233981 
L 477.716217 179.882812 
L 479.755505 174.663793 
L 481.794792 177.980589 
L 483.834079 171.894924 
L 485.873367 174.095285 
L 487.912654 177.864336 
L 489.951942 175.706642 
L 491.991229 168.968721 
L 494.030516 169.216452 
L 496.069804 174.453916 
L 498.109091 176.166046 
L 498.109091 176.166046 
" clip-path="url(#pec53703e91)" style="fill: none; stroke: #ff0000; stroke-opacity: 0.9; stroke-width: 1.5; stroke-linecap: square"/>
   </g>
   <g id="line2d_40">
    <path d="M 92.290909 171.36475 
L 94.330196 169.669004 
L 96.369484 166.404153 
L 98.408771 164.394827 
L 100.448058 167.585973 
L 102.487346 165.755591 
L 104.526633 168.290908 
L 106.565921 164.256206 
L 108.605208 165.281795 
L 110.644495 175.008552 
L 112.683783 246.349739 
L 114.72307 162.692518 
L 116.762357 163.873802 
L 118.801645 170.120203 
L 120.840932 161.900297 
L 122.880219 168.392335 
L 124.919507 166.377624 
L 126.958794 180.505242 
L 128.998081 163.94446 
L 131.037369 166.75866 
L 133.076656 173.929869 
L 135.115943 167.742565 
L 139.194518 166.390586 
L 141.233805 167.961537 
L 143.273093 165.391986 
L 145.31238 162.427688 
L 147.351667 162.502049 
L 149.390955 165.025188 
L 151.430242 163.455255 
L 153.469529 164.290941 
L 155.508817 168.285942 
L 157.548104 164.721049 
L 159.587392 166.025649 
L 161.626679 169.042389 
L 163.665966 168.448499 
L 165.705254 246.521391 
L 167.744541 164.42051 
L 169.783828 168.406559 
L 171.823116 166.917791 
L 173.862403 167.320822 
L 175.90169 172.418828 
L 177.940978 171.547284 
L 179.980265 183.813053 
L 182.019552 169.529676 
L 184.05884 173.346339 
L 186.098127 188.677269 
L 188.137414 172.673421 
L 190.176702 174.735493 
L 192.215989 195.793794 
L 198.333851 187.170021 
L 200.373138 173.068693 
L 202.412426 165.416502 
L 204.451713 167.409065 
L 206.491 167.596571 
L 208.530288 173.899187 
L 210.569575 166.760196 
L 212.608862 164.242653 
L 214.64815 167.912987 
L 216.687437 161.86387 
L 218.726725 166.457446 
L 220.766012 167.195645 
L 222.805299 170.490283 
L 224.844587 163.358475 
L 226.883874 177.747798 
L 228.923161 186.506977 
L 230.962449 166.410311 
L 233.001736 170.942598 
L 235.041023 167.720387 
L 237.080311 166.786149 
L 239.119598 168.924297 
L 241.158885 166.168162 
L 243.198173 171.13596 
L 245.23746 162.698965 
L 247.276747 164.61443 
L 249.316035 165.762555 
L 251.355322 169.73372 
L 253.394609 166.144857 
L 255.433897 163.670331 
L 257.473184 169.710378 
L 259.512471 164.310097 
L 261.551759 163.085488 
L 263.591046 165.090951 
L 265.630333 168.362044 
L 267.669621 164.444464 
L 269.708908 165.501377 
L 271.748196 165.457938 
L 273.787483 167.151232 
L 275.82677 163.160309 
L 277.866058 247.071645 
L 279.905345 169.57657 
L 281.944632 165.073115 
L 283.98392 163.463365 
L 286.023207 170.54795 
L 288.062494 171.354659 
L 290.101782 169.631172 
L 292.141069 171.659021 
L 294.180356 167.118164 
L 296.219644 168.44843 
L 298.258931 175.05692 
L 300.298218 169.028238 
L 302.337506 166.651713 
L 304.376793 171.150593 
L 306.41608 164.302334 
L 308.455368 167.686984 
L 310.494655 167.370098 
L 312.533942 163.849421 
L 314.57323 246.879604 
L 316.612517 162.201642 
L 318.651804 162.91793 
L 320.691092 163.348406 
L 322.730379 165.34426 
L 324.769667 165.013624 
L 326.808954 165.152773 
L 328.848241 166.347851 
L 330.887529 167.047743 
L 332.926816 164.809481 
L 334.966103 166.426867 
L 337.005391 162.163839 
L 339.044678 163.582055 
L 341.083965 162.903132 
L 343.123253 163.771853 
L 345.16254 165.172287 
L 347.201827 164.401988 
L 349.241115 247.537068 
L 351.280402 164.860359 
L 353.319689 163.162567 
L 355.358977 170.966749 
L 357.398264 168.186748 
L 359.437551 172.739702 
L 361.476839 168.633904 
L 363.516126 167.80847 
L 365.555413 170.642016 
L 367.594701 167.83466 
L 369.633988 170.52666 
L 371.673275 165.854804 
L 373.712563 171.760222 
L 375.75185 176.692977 
L 377.791138 174.615371 
L 379.830425 166.494475 
L 381.869712 178.238515 
L 383.909 172.15711 
L 385.948287 170.262902 
L 387.987574 168.530105 
L 390.026862 171.788127 
L 394.105436 173.253419 
L 396.144724 247.115978 
L 398.184011 166.702616 
L 400.223298 170.929275 
L 402.262586 171.733236 
L 404.301873 171.37171 
L 406.34116 168.501018 
L 408.380448 173.181506 
L 410.419735 167.348523 
L 412.459022 171.489394 
L 414.49831 165.941427 
L 416.537597 166.833083 
L 418.576884 162.00534 
L 420.616172 169.1751 
L 422.655459 167.951961 
L 424.694746 171.82003 
L 426.734034 168.258333 
L 428.773321 172.343069 
L 430.812608 175.473511 
L 432.851896 172.515786 
L 434.891183 174.073529 
L 436.930471 178.41079 
L 438.969758 171.763764 
L 441.009045 178.33202 
L 443.048333 172.580574 
L 445.08762 174.661008 
L 447.126907 175.936961 
L 449.166195 164.470884 
L 451.205482 169.708368 
L 453.244769 173.027245 
L 455.284057 178.570149 
L 457.323344 179.731858 
L 459.362631 174.96106 
L 461.401919 173.655725 
L 463.441206 176.38342 
L 465.480493 175.580725 
L 467.519781 176.165206 
L 469.559068 176.199179 
L 471.598355 169.996375 
L 473.637643 175.285967 
L 475.67693 178.455842 
L 477.716217 178.714554 
L 479.755505 173.926516 
L 481.794792 176.898756 
L 483.834079 170.883191 
L 487.912654 177.823616 
L 489.951942 172.833949 
L 491.991229 169.654999 
L 494.030516 168.904903 
L 496.069804 174.750015 
L 498.109091 176.206201 
L 498.109091 176.206201 
" clip-path="url(#pec53703e91)" style="fill: none; stroke: #008000; stroke-opacity: 0.9; stroke-width: 1.5; stroke-linecap: square"/>
   </g>
   <g id="line2d_41">
    <path d="M 438.969758 256.32 
L 438.969758 155.52 
" clip-path="url(#pec53703e91)" style="fill: none; stroke-dasharray: 5.55,2.4; stroke-dashoffset: 0; stroke: #0000ff; stroke-width: 1.5"/>
   </g>
   <g id="line2d_42">
    <path d="M 153.469529 256.32 
L 153.469529 155.52 
" clip-path="url(#pec53703e91)" style="fill: none; stroke-dasharray: 5.55,2.4; stroke-dashoffset: 0; stroke: #000000; stroke-width: 1.5"/>
   </g>
   <g id="patch_8">
    <path d="M 72 256.32 
L 72 155.52 
" style="fill: none; stroke: #000000; stroke-width: 0.8; stroke-linejoin: miter; stroke-linecap: square"/>
   </g>
   <g id="patch_9">
    <path d="M 518.4 256.32 
L 518.4 155.52 
" style="fill: none; stroke: #000000; stroke-width: 0.8; stroke-linejoin: miter; stroke-linecap: square"/>
   </g>
   <g id="patch_10">
    <path d="M 72 256.32 
L 518.4 256.32 
" style="fill: none; stroke: #000000; stroke-width: 0.8; stroke-linejoin: miter; stroke-linecap: square"/>
   </g>
   <g id="patch_11">
    <path d="M 72 155.52 
L 518.4 155.52 
" style="fill: none; stroke: #000000; stroke-width: 0.8; stroke-linejoin: miter; stroke-linecap: square"/>
   </g>
  </g>
 </g>
 <defs>
  <clipPath id="p994eaf896e">
   <rect x="72" y="34.56" width="446.4" height="100.8"/>
  </clipPath>
  <clipPath id="pec53703e91">
   <rect x="72" y="155.52" width="446.4" height="100.8"/>
  </clipPath>
 </defs>
</svg>
