<?xml version="1.0" encoding="utf-8" standalone="no"?>
<!DOCTYPE svg PUBLIC "-//W3C//DTD SVG 1.1//EN"
  "http://www.w3.org/Graphics/SVG/1.1/DTD/svg11.dtd">
<svg xmlns:xlink="http://www.w3.org/1999/xlink" width="576pt" height="288pt" viewBox="0 0 576 288" xmlns="http://www.w3.org/2000/svg" version="1.1">
 <metadata>
  <rdf:RDF xmlns:dc="http://purl.org/dc/elements/1.1/" xmlns:cc="http://creativecommons.org/ns#" xmlns:rdf="http://www.w3.org/1999/02/22-rdf-syntax-ns#">
   <cc:Work>
    <dc:type rdf:resource="http://purl.org/dc/dcmitype/StillImage"/>
    <dc:date>2025-05-07T09:54:58.543455</dc:date>
    <dc:format>image/svg+xml</dc:format>
    <dc:creator>
     <cc:Agent>
      <dc:title>Matplotlib v3.10.0, https://matplotlib.org/</dc:title>
     </cc:Agent>
    </dc:creator>
   </cc:Work>
  </rdf:RDF>
 </metadata>
 <defs>
  <style type="text/css">*{stroke-linejoin: round; stroke-linecap: butt}</style>
 </defs>
 <g id="figure_1">
  <g id="patch_1">
   <path d="M 0 288 
L 576 288 
L 576 0 
L 0 0 
z
" style="fill: #ffffff"/>
  </g>
  <g id="axes_1">
   <g id="patch_2">
    <path d="M 72 135.36 
L 518.4 135.36 
L 518.4 34.56 
L 72 34.56 
z
" style="fill: #ffffff"/>
   </g>
   <g id="matplotlib.axis_1">
    <g id="xtick_1">
     <g id="line2d_1">
      <defs>
       <path id="m82f1d90f0d" d="M 0 0 
L 0 3.5 
" style="stroke: #000000; stroke-width: 0.8"/>
      </defs>
      <g>
       <use xlink:href="#m82f1d90f0d" x="92.290909" y="135.36" style="stroke: #000000; stroke-width: 0.8"/>
      </g>
     </g>
    </g>
    <g id="xtick_2">
     <g id="line2d_2">
      <g>
       <use xlink:href="#m82f1d90f0d" x="143.273093" y="135.36" style="stroke: #000000; stroke-width: 0.8"/>
      </g>
     </g>
    </g>
    <g id="xtick_3">
     <g id="line2d_3">
      <g>
       <use xlink:href="#m82f1d90f0d" x="194.255276" y="135.36" style="stroke: #000000; stroke-width: 0.8"/>
      </g>
     </g>
    </g>
    <g id="xtick_4">
     <g id="line2d_4">
      <g>
       <use xlink:href="#m82f1d90f0d" x="245.23746" y="135.36" style="stroke: #000000; stroke-width: 0.8"/>
      </g>
     </g>
    </g>
    <g id="xtick_5">
     <g id="line2d_5">
      <g>
       <use xlink:href="#m82f1d90f0d" x="296.219644" y="135.36" style="stroke: #000000; stroke-width: 0.8"/>
      </g>
     </g>
    </g>
    <g id="xtick_6">
     <g id="line2d_6">
      <g>
       <use xlink:href="#m82f1d90f0d" x="347.201827" y="135.36" style="stroke: #000000; stroke-width: 0.8"/>
      </g>
     </g>
    </g>
    <g id="xtick_7">
     <g id="line2d_7">
      <g>
       <use xlink:href="#m82f1d90f0d" x="398.184011" y="135.36" style="stroke: #000000; stroke-width: 0.8"/>
      </g>
     </g>
    </g>
    <g id="xtick_8">
     <g id="line2d_8">
      <g>
       <use xlink:href="#m82f1d90f0d" x="449.166195" y="135.36" style="stroke: #000000; stroke-width: 0.8"/>
      </g>
     </g>
    </g>
    <g id="xtick_9">
     <g id="line2d_9">
      <g>
       <use xlink:href="#m82f1d90f0d" x="500.148378" y="135.36" style="stroke: #000000; stroke-width: 0.8"/>
      </g>
     </g>
    </g>
   </g>
   <g id="matplotlib.axis_2">
    <g id="ytick_1">
     <g id="line2d_10">
      <defs>
       <path id="m4cf7a0fb36" d="M 0 0 
L -3.5 0 
" style="stroke: #000000; stroke-width: 0.8"/>
      </defs>
      <g>
       <use xlink:href="#m4cf7a0fb36" x="72" y="116.823906" style="stroke: #000000; stroke-width: 0.8"/>
      </g>
     </g>
     <g id="text_1">
      <!-- −150 -->
      <g transform="translate(37.532812 120.623125) scale(0.1 -0.1)">
       <defs>
        <path id="DejaVuSans-2212" d="M 678 2272 
L 4684 2272 
L 4684 1741 
L 678 1741 
L 678 2272 
z
" transform="scale(0.015625)"/>
        <path id="DejaVuSans-31" d="M 794 531 
L 1825 531 
L 1825 4091 
L 703 3866 
L 703 4441 
L 1819 4666 
L 2450 4666 
L 2450 531 
L 3481 531 
L 3481 0 
L 794 0 
L 794 531 
z
" transform="scale(0.015625)"/>
        <path id="DejaVuSans-35" d="M 691 4666 
L 3169 4666 
L 3169 4134 
L 1269 4134 
L 1269 2991 
Q 1406 3038 1543 3061 
Q 1681 3084 1819 3084 
Q 2600 3084 3056 2656 
Q 3513 2228 3513 1497 
Q 3513 744 3044 326 
Q 2575 -91 1722 -91 
Q 1428 -91 1123 -41 
Q 819 9 494 109 
L 494 744 
Q 775 591 1075 516 
Q 1375 441 1709 441 
Q 2250 441 2565 725 
Q 2881 1009 2881 1497 
Q 2881 1984 2565 2268 
Q 2250 2553 1709 2553 
Q 1456 2553 1204 2497 
Q 953 2441 691 2322 
L 691 4666 
z
" transform="scale(0.015625)"/>
        <path id="DejaVuSans-30" d="M 2034 4250 
Q 1547 4250 1301 3770 
Q 1056 3291 1056 2328 
Q 1056 1369 1301 889 
Q 1547 409 2034 409 
Q 2525 409 2770 889 
Q 3016 1369 3016 2328 
Q 3016 3291 2770 3770 
Q 2525 4250 2034 4250 
z
M 2034 4750 
Q 2819 4750 3233 4129 
Q 3647 3509 3647 2328 
Q 3647 1150 3233 529 
Q 2819 -91 2034 -91 
Q 1250 -91 836 529 
Q 422 1150 422 2328 
Q 422 3509 836 4129 
Q 1250 4750 2034 4750 
z
" transform="scale(0.015625)"/>
       </defs>
       <use xlink:href="#DejaVuSans-2212"/>
       <use xlink:href="#DejaVuSans-31" transform="translate(83.789062 0)"/>
       <use xlink:href="#DejaVuSans-35" transform="translate(147.412109 0)"/>
       <use xlink:href="#DejaVuSans-30" transform="translate(211.035156 0)"/>
      </g>
     </g>
    </g>
    <g id="ytick_2">
     <g id="line2d_11">
      <g>
       <use xlink:href="#m4cf7a0fb36" x="72" y="77.75054" style="stroke: #000000; stroke-width: 0.8"/>
      </g>
     </g>
     <g id="text_2">
      <!-- −100 -->
      <g transform="translate(37.532812 81.549759) scale(0.1 -0.1)">
       <use xlink:href="#DejaVuSans-2212"/>
       <use xlink:href="#DejaVuSans-31" transform="translate(83.789062 0)"/>
       <use xlink:href="#DejaVuSans-30" transform="translate(147.412109 0)"/>
       <use xlink:href="#DejaVuSans-30" transform="translate(211.035156 0)"/>
      </g>
     </g>
    </g>
    <g id="ytick_3">
     <g id="line2d_12">
      <g>
       <use xlink:href="#m4cf7a0fb36" x="72" y="38.677175" style="stroke: #000000; stroke-width: 0.8"/>
      </g>
     </g>
     <g id="text_3">
      <!-- −50 -->
      <g transform="translate(43.895313 42.476394) scale(0.1 -0.1)">
       <use xlink:href="#DejaVuSans-2212"/>
       <use xlink:href="#DejaVuSans-35" transform="translate(83.789062 0)"/>
       <use xlink:href="#DejaVuSans-30" transform="translate(147.412109 0)"/>
      </g>
     </g>
    </g>
   </g>
   <g id="line2d_13">
    <path d="M 92.290909 61.715066 
L 94.330196 105.945441 
L 96.369484 130.563772 
L 98.408771 105.214318 
L 100.448058 88.755253 
L 102.487346 107.942323 
L 104.526633 98.748092 
L 106.565921 68.185496 
L 108.605208 116.065154 
L 110.644495 45.35359 
L 112.683783 82.22193 
L 114.72307 124.187091 
L 116.762357 123.10784 
L 118.801645 112.501141 
L 120.840932 68.772562 
L 122.880219 117.162173 
L 124.919507 70.018109 
L 126.958794 66.621601 
L 128.998081 88.56874 
L 131.037369 64.907998 
L 133.076656 52.709459 
L 135.115943 53.261278 
L 137.155231 109.751827 
L 139.194518 108.550137 
L 141.233805 125.897266 
L 143.273093 122.59914 
L 145.31238 121.507272 
L 147.351667 116.974652 
L 149.390955 118.400363 
L 151.430242 110.389846 
L 153.469529 108.090506 
L 155.508817 112.861312 
L 157.548104 129.222998 
L 159.587392 109.661608 
L 161.626679 122.6261 
L 163.665966 98.230115 
L 165.705254 94.286129 
L 167.744541 112.011161 
L 169.783828 47.64235 
L 171.823116 55.342899 
L 173.862403 75.207916 
L 175.90169 48.667969 
L 177.940978 42.302563 
L 179.980265 70.434521 
L 182.019552 68.097858 
L 184.05884 71.45222 
L 186.098127 64.776473 
L 188.137414 57.40261 
L 190.176702 67.210647 
L 192.215989 60.896372 
L 194.255276 49.089855 
L 196.294564 69.31998 
L 198.333851 76.14847 
L 200.373138 96.799903 
L 202.412426 71.620388 
L 204.451713 53.882257 
L 206.491 45.091781 
L 208.530288 76.435076 
L 210.569575 56.860754 
L 212.608862 111.011218 
L 214.64815 109.082209 
L 216.687437 93.851234 
L 218.726725 93.152187 
L 220.766012 110.167053 
L 222.805299 122.090392 
L 224.844587 121.591601 
L 226.883874 68.195089 
L 228.923161 59.994648 
L 230.962449 80.425065 
L 233.001736 73.139405 
L 235.041023 42.019025 
L 237.080311 60.432685 
L 239.119598 52.898381 
L 241.158885 75.460287 
L 243.198173 51.111271 
L 245.23746 84.555808 
L 247.276747 49.898283 
L 249.316035 99.743522 
L 251.355322 74.920452 
L 253.394609 111.957836 
L 257.473184 69.320797 
L 259.512471 64.806236 
L 261.551759 57.531457 
L 263.591046 69.030591 
L 265.630333 67.594774 
L 267.669621 59.762793 
L 269.708908 49.426226 
L 271.748196 41.691174 
L 273.787483 60.229431 
L 275.82677 49.330283 
L 277.866058 66.113121 
L 279.905345 57.004435 
L 281.944632 78.382835 
L 283.98392 64.823341 
L 286.023207 60.14143 
L 288.062494 54.25756 
L 290.101782 68.498453 
L 292.141069 75.203319 
L 294.180356 52.78562 
L 296.219644 43.011987 
L 298.258931 81.473045 
L 300.298218 56.765092 
L 302.337506 63.05714 
L 304.376793 59.477333 
L 306.41608 44.90607 
L 308.455368 47.607737 
L 310.494655 50.641712 
L 312.533942 58.259408 
L 314.57323 72.385811 
L 316.612517 40.218944 
L 318.651804 55.707477 
L 320.691092 46.308102 
L 322.730379 42.31996 
L 324.769667 56.015558 
L 326.808954 63.650997 
L 328.848241 46.608098 
L 330.887529 44.798537 
L 332.926816 49.026633 
L 334.966103 44.928219 
L 337.005391 56.113146 
L 339.044678 47.935493 
L 341.083965 49.499849 
L 343.123253 52.548828 
L 345.16254 48.147139 
L 347.201827 53.923109 
L 349.241115 53.977919 
L 351.280402 41.952351 
L 353.319689 52.15317 
L 355.358977 54.823556 
L 357.398264 64.119048 
L 359.437551 83.050903 
L 361.476839 50.114529 
L 363.516126 56.656647 
L 365.555413 44.98776 
L 367.594701 69.198931 
L 369.633988 54.110695 
L 371.673275 60.354719 
L 373.712563 53.270895 
L 375.75185 68.851369 
L 377.791138 52.018491 
L 379.830425 91.79274 
L 381.869712 67.554977 
L 383.909 70.259986 
L 385.948287 100.784819 
L 387.987574 73.368774 
L 390.026862 78.351564 
L 392.066149 62.117003 
L 394.105436 64.839397 
L 396.144724 98.151963 
L 398.184011 83.866229 
L 400.223298 85.605202 
L 402.262586 56.084116 
L 404.301873 81.094039 
L 406.34116 73.321393 
L 408.380448 68.219563 
L 410.419735 50.366125 
L 412.459022 69.561553 
L 414.49831 106.846354 
L 416.537597 78.870823 
L 418.576884 114.925041 
L 420.616172 100.806974 
L 422.655459 83.820184 
L 424.694746 79.476903 
L 426.734034 66.255735 
L 428.773321 66.765646 
L 430.812608 63.595168 
L 432.851896 60.874532 
L 434.891183 68.945899 
L 436.930471 58.951027 
L 438.969758 61.321936 
L 441.009045 71.6345 
L 443.048333 47.258151 
L 445.08762 62.459223 
L 447.126907 69.879996 
L 449.166195 66.714735 
L 451.205482 56.596525 
L 453.244769 64.332176 
L 455.284057 62.942393 
L 457.323344 55.927825 
L 459.362631 52.405975 
L 461.401919 59.15105 
L 465.480493 62.743938 
L 467.519781 60.685563 
L 469.559068 53.569973 
L 471.598355 67.560719 
L 473.637643 68.41846 
L 475.67693 72.041957 
L 477.716217 50.601164 
L 479.755505 64.80663 
L 481.794792 60.861457 
L 483.834079 62.885175 
L 485.873367 68.148608 
L 487.912654 66.491311 
L 489.951942 46.69916 
L 491.991229 53.110979 
L 494.030516 43.605928 
L 496.069804 62.464857 
L 498.109091 57.893024 
L 498.109091 57.893024 
" clip-path="url(#p1fa9592055)" style="fill: none; stroke: #ff0000; stroke-opacity: 0.9; stroke-width: 1.5; stroke-linecap: square"/>
   </g>
   <g id="line2d_14">
    <path d="M 92.290909 62.020834 
L 94.330196 105.432412 
L 96.369484 130.778182 
L 98.408771 104.468468 
L 100.448058 89.516479 
L 102.487346 107.786878 
L 104.526633 98.745648 
L 106.565921 68.508392 
L 108.605208 115.871588 
L 110.644495 45.591246 
L 112.683783 82.281759 
L 114.72307 123.65459 
L 116.762357 122.523373 
L 118.801645 112.426423 
L 120.840932 68.600429 
L 122.880219 117.177901 
L 124.919507 69.584198 
L 126.958794 66.959165 
L 128.998081 88.267677 
L 131.037369 64.995498 
L 133.076656 52.527507 
L 135.115943 53.9009 
L 137.155231 108.352374 
L 139.194518 108.826685 
L 141.233805 126.544693 
L 143.273093 122.291029 
L 145.31238 121.422872 
L 147.351667 117.707504 
L 149.390955 118.291602 
L 151.430242 110.10587 
L 153.469529 107.724467 
L 155.508817 112.330719 
L 157.548104 128.703542 
L 159.587392 109.821512 
L 161.626679 122.565692 
L 163.665966 98.846873 
L 165.705254 94.235702 
L 167.744541 111.897178 
L 169.783828 48.368659 
L 171.823116 55.194544 
L 173.862403 75.639723 
L 175.90169 48.167989 
L 177.940978 42.399686 
L 179.980265 70.54051 
L 182.019552 67.619422 
L 184.05884 70.838109 
L 186.098127 64.786376 
L 188.137414 57.040107 
L 190.176702 67.343817 
L 192.215989 60.811244 
L 194.255276 48.757419 
L 196.294564 69.518561 
L 198.333851 75.293812 
L 200.373138 97.442745 
L 202.412426 71.19759 
L 204.451713 53.66771 
L 206.491 45.477634 
L 208.530288 76.565551 
L 210.569575 57.372674 
L 212.608862 111.106719 
L 214.64815 109.130622 
L 216.687437 93.787165 
L 218.726725 93.334503 
L 220.766012 110.21506 
L 222.805299 122.166468 
L 224.844587 121.070034 
L 226.883874 67.613674 
L 228.923161 59.488369 
L 230.962449 80.168646 
L 233.001736 73.219196 
L 235.041023 42.109787 
L 237.080311 60.700629 
L 239.119598 52.896885 
L 241.158885 75.295028 
L 243.198173 50.967727 
L 245.23746 85.28277 
L 247.276747 50.268441 
L 249.316035 99.867618 
L 251.355322 74.758652 
L 253.394609 112.153966 
L 257.473184 69.042885 
L 259.512471 65.097271 
L 261.551759 57.687778 
L 263.591046 69.178934 
L 265.630333 67.895713 
L 267.669621 59.884045 
L 269.708908 50.004927 
L 271.748196 41.885641 
L 273.787483 60.317658 
L 275.82677 49.61702 
L 277.866058 66.982309 
L 279.905345 56.600168 
L 281.944632 78.517818 
L 283.98392 65.036153 
L 288.062494 54.411991 
L 290.101782 68.826132 
L 292.141069 75.560522 
L 294.180356 52.882939 
L 296.219644 43.397265 
L 298.258931 80.5376 
L 300.298218 57.070585 
L 302.337506 62.699484 
L 304.376793 59.704913 
L 306.41608 44.733475 
L 308.455368 46.866395 
L 310.494655 50.859234 
L 312.533942 58.598289 
L 314.57323 72.455645 
L 316.612517 40.150931 
L 318.651804 56.034159 
L 320.691092 45.768342 
L 322.730379 42.840606 
L 324.769667 56.085696 
L 326.808954 63.526896 
L 328.848241 46.511541 
L 330.887529 44.746374 
L 332.926816 49.204381 
L 334.966103 44.642839 
L 337.005391 55.954816 
L 339.044678 46.937311 
L 343.123253 52.289589 
L 345.16254 47.982453 
L 347.201827 53.916855 
L 349.241115 53.747823 
L 351.280402 42.460148 
L 353.319689 52.795618 
L 355.358977 54.718534 
L 357.398264 64.373714 
L 359.437551 82.867848 
L 361.476839 49.943738 
L 363.516126 56.598969 
L 365.555413 44.820421 
L 367.594701 69.384431 
L 369.633988 54.007652 
L 371.673275 59.797564 
L 373.712563 52.412892 
L 375.75185 68.397407 
L 377.791138 51.182924 
L 379.830425 91.250872 
L 381.869712 67.439032 
L 383.909 70.087019 
L 385.948287 101.911731 
L 387.987574 73.040523 
L 390.026862 78.723285 
L 392.066149 62.409737 
L 394.105436 64.218436 
L 396.144724 98.820753 
L 398.184011 84.230169 
L 400.223298 85.2415 
L 402.262586 56.508798 
L 404.301873 80.869219 
L 406.34116 73.382177 
L 408.380448 68.640441 
L 410.419735 50.752154 
L 412.459022 69.046062 
L 414.49831 107.043151 
L 416.537597 78.631617 
L 418.576884 115.278333 
L 420.616172 100.872522 
L 422.655459 83.387942 
L 424.694746 79.776052 
L 426.734034 66.79108 
L 428.773321 66.912016 
L 430.812608 63.035098 
L 432.851896 61.607408 
L 434.891183 68.903466 
L 436.930471 59.280595 
L 438.969758 61.340973 
L 441.009045 71.454342 
L 443.048333 47.335423 
L 445.08762 62.292421 
L 447.126907 69.471084 
L 449.166195 67.003475 
L 451.205482 56.275143 
L 453.244769 63.644552 
L 455.284057 63.403271 
L 457.323344 55.689227 
L 459.362631 52.610798 
L 461.401919 58.593335 
L 463.441206 61.063949 
L 465.480493 62.801377 
L 467.519781 60.5613 
L 469.559068 54.033587 
L 471.598355 67.87187 
L 473.637643 68.625822 
L 475.67693 71.96414 
L 477.716217 50.568575 
L 479.755505 65.283743 
L 481.794792 60.130662 
L 483.834079 62.875653 
L 485.873367 68.322833 
L 487.912654 66.645932 
L 489.951942 46.948416 
L 491.991229 52.927268 
L 494.030516 43.695428 
L 496.069804 63.152695 
L 498.109091 57.758471 
L 498.109091 57.758471 
" clip-path="url(#p1fa9592055)" style="fill: none; stroke: #ff0000; stroke-opacity: 0.9; stroke-width: 1.5; stroke-linecap: square"/>
   </g>
   <g id="line2d_15">
    <path d="M 92.290909 62.021406 
L 94.330196 106.198104 
L 96.369484 130.467603 
L 98.408771 105.094348 
L 100.448058 89.321303 
L 102.487346 107.27546 
L 104.526633 98.692805 
L 106.565921 68.292235 
L 108.605208 115.699163 
L 110.644495 45.177158 
L 112.683783 81.822771 
L 114.72307 124.078926 
L 116.762357 122.297623 
L 118.801645 112.107605 
L 120.840932 68.506174 
L 122.880219 116.987578 
L 124.919507 70.457786 
L 126.958794 66.597419 
L 128.998081 87.661377 
L 131.037369 64.550288 
L 133.076656 52.636942 
L 135.115943 53.373771 
L 137.155231 108.853836 
L 139.194518 108.180116 
L 141.233805 126.581969 
L 143.273093 122.514251 
L 145.31238 121.947205 
L 147.351667 116.838215 
L 149.390955 117.956447 
L 151.430242 110.875735 
L 153.469529 108.066788 
L 155.508817 112.535149 
L 157.548104 128.208519 
L 159.587392 110.261708 
L 161.626679 121.869435 
L 163.665966 98.851666 
L 165.705254 94.646098 
L 167.744541 111.711744 
L 169.783828 48.142298 
L 171.823116 54.670384 
L 173.862403 74.684489 
L 175.90169 48.016118 
L 177.940978 42.99072 
L 179.980265 70.550324 
L 182.019552 66.887118 
L 184.05884 71.210343 
L 186.098127 65.008215 
L 188.137414 57.102709 
L 190.176702 67.03669 
L 192.215989 60.634199 
L 194.255276 49.097251 
L 196.294564 69.01339 
L 198.333851 75.821746 
L 200.373138 96.847546 
L 202.412426 71.151186 
L 204.451713 53.854211 
L 206.491 45.058754 
L 208.530288 76.644126 
L 210.569575 56.944164 
L 212.608862 111.578383 
L 214.64815 109.468936 
L 216.687437 93.124308 
L 218.726725 92.594639 
L 220.766012 109.622914 
L 222.805299 122.111653 
L 224.844587 121.452969 
L 226.883874 68.420242 
L 228.923161 60.088749 
L 230.962449 80.183838 
L 233.001736 73.301557 
L 235.041023 41.32747 
L 237.080311 60.053226 
L 239.119598 52.910788 
L 241.158885 75.077876 
L 243.198173 51.390692 
L 245.23746 84.788921 
L 247.276747 50.051748 
L 249.316035 99.379457 
L 251.355322 74.585745 
L 253.394609 112.013034 
L 257.473184 69.396558 
L 259.512471 65.322818 
L 261.551759 57.561798 
L 263.591046 69.026501 
L 265.630333 68.106378 
L 267.669621 59.501158 
L 269.708908 50.108329 
L 271.748196 41.905098 
L 273.787483 59.615219 
L 275.82677 49.121782 
L 277.866058 66.328706 
L 279.905345 56.759195 
L 281.944632 78.712767 
L 283.98392 64.577797 
L 286.023207 60.04563 
L 288.062494 54.347773 
L 290.101782 69.023913 
L 292.141069 75.184526 
L 294.180356 52.865858 
L 296.219644 43.400565 
L 298.258931 80.751217 
L 300.298218 57.132806 
L 302.337506 62.750115 
L 304.376793 59.285174 
L 306.41608 45.073283 
L 308.455368 47.613398 
L 310.494655 51.26814 
L 312.533942 58.669245 
L 314.57323 72.253201 
L 316.612517 40.576379 
L 318.651804 55.467776 
L 320.691092 45.237313 
L 322.730379 42.427344 
L 324.769667 56.055146 
L 326.808954 62.860211 
L 328.848241 46.81814 
L 330.887529 44.910452 
L 332.926816 49.705426 
L 334.966103 44.398753 
L 337.005391 55.37172 
L 339.044678 47.170069 
L 341.083965 49.301993 
L 343.123253 52.457178 
L 345.16254 47.800418 
L 347.201827 54.267785 
L 349.241115 54.237641 
L 351.280402 42.129873 
L 353.319689 52.936402 
L 355.358977 53.953826 
L 357.398264 64.187827 
L 359.437551 82.823842 
L 361.476839 49.930592 
L 363.516126 56.815561 
L 365.555413 44.950634 
L 367.594701 69.668711 
L 369.633988 53.866111 
L 371.673275 60.193443 
L 373.712563 53.11585 
L 375.75185 68.415031 
L 377.791138 51.789152 
L 379.830425 92.188839 
L 381.869712 67.077709 
L 383.909 69.396981 
L 385.948287 100.48744 
L 387.987574 72.944939 
L 390.026862 78.549793 
L 392.066149 62.597938 
L 394.105436 64.172504 
L 396.144724 98.505458 
L 398.184011 84.32632 
L 400.223298 85.928253 
L 402.262586 56.472411 
L 404.301873 81.143048 
L 406.34116 72.796005 
L 408.380448 68.233968 
L 410.419735 49.956628 
L 412.459022 69.16168 
L 414.49831 106.444936 
L 416.537597 78.606606 
L 418.576884 115.137877 
L 420.616172 100.459132 
L 422.655459 83.310118 
L 424.694746 79.998606 
L 426.734034 66.595159 
L 428.773321 67.236612 
L 430.812608 63.326849 
L 432.851896 60.829435 
L 434.891183 69.151604 
L 436.930471 59.2388 
L 438.969758 61.370289 
L 441.009045 71.761296 
L 443.048333 47.29974 
L 445.08762 62.131771 
L 447.126907 69.678411 
L 449.166195 66.792165 
L 451.205482 56.21545 
L 453.244769 64.029467 
L 455.284057 62.363423 
L 457.323344 55.68503 
L 459.362631 52.843536 
L 461.401919 58.844483 
L 463.441206 60.307278 
L 465.480493 63.37048 
L 467.519781 59.903166 
L 469.559068 54.120008 
L 471.598355 67.381807 
L 473.637643 67.987625 
L 475.67693 72.240866 
L 477.716217 50.583098 
L 479.755505 65.558889 
L 481.794792 60.224673 
L 483.834079 62.637282 
L 485.873367 67.968289 
L 487.912654 66.585333 
L 489.951942 46.756471 
L 491.991229 53.592277 
L 494.030516 44.030577 
L 496.069804 62.468679 
L 498.109091 58.146498 
L 498.109091 58.146498 
" clip-path="url(#p1fa9592055)" style="fill: none; stroke: #ff0000; stroke-opacity: 0.9; stroke-width: 1.5; stroke-linecap: square"/>
   </g>
   <g id="line2d_16">
    <path d="M 92.290909 61.552062 
L 94.330196 105.630415 
L 96.369484 130.421182 
L 98.408771 104.71728 
L 100.448058 89.166586 
L 102.487346 107.357272 
L 104.526633 98.468016 
L 106.565921 67.88606 
L 108.605208 115.387094 
L 110.644495 45.386205 
L 112.683783 81.623976 
L 114.72307 123.963202 
L 116.762357 122.886693 
L 118.801645 112.110741 
L 120.840932 68.572437 
L 122.880219 117.583528 
L 124.919507 69.932964 
L 126.958794 66.805533 
L 128.998081 88.184916 
L 131.037369 64.984414 
L 133.076656 52.82776 
L 135.115943 53.296037 
L 137.155231 109.064633 
L 139.194518 108.438825 
L 141.233805 126.230275 
L 143.273093 122.481447 
L 145.31238 122.036518 
L 147.351667 117.102564 
L 149.390955 117.491354 
L 151.430242 110.464527 
L 153.469529 107.904296 
L 155.508817 112.359791 
L 157.548104 129.270516 
L 159.587392 109.823027 
L 161.626679 122.968219 
L 163.665966 98.457176 
L 165.705254 94.322838 
L 167.744541 111.821423 
L 169.783828 48.017576 
L 171.823116 54.837138 
L 173.862403 75.448273 
L 175.90169 48.30205 
L 177.940978 42.439253 
L 179.980265 70.983311 
L 182.019552 67.096824 
L 184.05884 71.129395 
L 186.098127 64.883469 
L 188.137414 57.04899 
L 190.176702 66.567507 
L 192.215989 60.794014 
L 194.255276 48.630172 
L 196.294564 68.998234 
L 198.333851 75.237094 
L 200.373138 97.058337 
L 202.412426 71.063352 
L 204.451713 53.645644 
L 206.491 44.716978 
L 208.530288 76.440293 
L 210.569575 57.316278 
L 212.608862 111.678654 
L 214.64815 108.836188 
L 216.687437 93.769553 
L 218.726725 92.3464 
L 220.766012 110.076238 
L 222.805299 121.991874 
L 224.844587 121.21111 
L 226.883874 68.357741 
L 228.923161 59.808469 
L 230.962449 80.708254 
L 233.001736 73.535356 
L 235.041023 41.676436 
L 237.080311 61.280499 
L 239.119598 52.69146 
L 241.158885 75.050575 
L 243.198173 50.675368 
L 245.23746 84.443947 
L 247.276747 50.06059 
L 249.316035 98.786745 
L 251.355322 75.391036 
L 253.394609 112.485568 
L 257.473184 69.015602 
L 259.512471 65.152164 
L 261.551759 57.734467 
L 263.591046 69.426046 
L 265.630333 67.472485 
L 267.669621 59.746362 
L 269.708908 49.633088 
L 271.748196 41.832953 
L 273.787483 59.692726 
L 275.82677 49.389967 
L 277.866058 66.266557 
L 279.905345 57.239134 
L 281.944632 78.254435 
L 283.98392 65.055191 
L 286.023207 59.442103 
L 288.062494 54.333518 
L 290.101782 68.556113 
L 292.141069 75.320379 
L 294.180356 53.040268 
L 296.219644 43.180199 
L 298.258931 80.773605 
L 300.298218 57.386762 
L 302.337506 63.109637 
L 304.376793 59.644821 
L 306.41608 45.223132 
L 308.455368 47.340729 
L 310.494655 50.90578 
L 312.533942 58.047097 
L 314.57323 72.660146 
L 316.612517 40.695541 
L 318.651804 55.500389 
L 320.691092 45.160211 
L 322.730379 42.925649 
L 324.769667 55.937949 
L 326.808954 63.829593 
L 328.848241 46.725951 
L 330.887529 44.955534 
L 332.926816 49.2917 
L 334.966103 45.145043 
L 337.005391 55.985831 
L 339.044678 47.195128 
L 341.083965 49.972577 
L 343.123253 52.3867 
L 345.16254 48.523954 
L 347.201827 53.943064 
L 349.241115 54.471976 
L 351.280402 42.008526 
L 353.319689 52.482946 
L 355.358977 55.194299 
L 357.398264 64.015999 
L 359.437551 82.785839 
L 361.476839 49.356901 
L 363.516126 56.329601 
L 365.555413 45.176005 
L 367.594701 69.608618 
L 369.633988 53.395312 
L 371.673275 60.662329 
L 373.712563 52.745942 
L 375.75185 68.810958 
L 377.791138 51.553428 
L 379.830425 91.772934 
L 381.869712 66.897003 
L 383.909 69.513469 
L 385.948287 100.724983 
L 387.987574 72.985845 
L 390.026862 78.193031 
L 392.066149 62.013202 
L 394.105436 63.790445 
L 396.144724 98.491828 
L 398.184011 84.352005 
L 400.223298 84.585679 
L 402.262586 56.189759 
L 404.301873 81.030495 
L 406.34116 73.364225 
L 408.380448 68.276537 
L 410.419735 50.317265 
L 412.459022 69.099853 
L 414.49831 107.400688 
L 416.537597 79.105653 
L 418.576884 115.074488 
L 420.616172 100.662762 
L 422.655459 83.953604 
L 424.694746 80.554276 
L 426.734034 66.219641 
L 428.773321 67.294117 
L 430.812608 63.044357 
L 432.851896 60.646284 
L 434.891183 69.497985 
L 436.930471 59.670082 
L 438.969758 60.802862 
L 441.009045 72.17121 
L 443.048333 47.698397 
L 445.08762 62.052475 
L 447.126907 69.219495 
L 449.166195 67.112147 
L 451.205482 56.204366 
L 453.244769 64.043842 
L 455.284057 62.756148 
L 457.323344 55.944871 
L 459.362631 53.086212 
L 461.401919 59.361209 
L 463.441206 60.581852 
L 465.480493 62.731996 
L 467.519781 60.356865 
L 469.559068 54.01241 
L 471.598355 67.461247 
L 473.637643 68.556632 
L 475.67693 72.365707 
L 477.716217 50.482619 
L 479.755505 65.505873 
L 481.794792 60.543742 
L 483.834079 61.735391 
L 485.873367 68.908725 
L 487.912654 66.56694 
L 489.951942 46.594704 
L 491.991229 53.525757 
L 494.030516 43.637032 
L 496.069804 63.184121 
L 498.109091 57.950564 
L 498.109091 57.950564 
" clip-path="url(#p1fa9592055)" style="fill: none; stroke: #ff0000; stroke-opacity: 0.9; stroke-width: 1.5; stroke-linecap: square"/>
   </g>
   <g id="line2d_17">
    <path d="M 92.290909 62.137966 
L 94.330196 106.148952 
L 96.369484 130.62548 
L 98.408771 104.971695 
L 100.448058 89.444486 
L 102.487346 107.294479 
L 104.526633 98.327482 
L 106.565921 67.980697 
L 108.605208 116.076136 
L 110.644495 45.196586 
L 112.683783 82.628809 
L 114.72307 123.968532 
L 116.762357 122.56692 
L 118.801645 111.921324 
L 120.840932 68.61862 
L 122.880219 117.634576 
L 124.919507 69.282544 
L 126.958794 66.475082 
L 128.998081 88.429 
L 131.037369 64.930952 
L 133.076656 52.216946 
L 135.115943 53.83292 
L 137.155231 108.978373 
L 139.194518 108.673017 
L 141.233805 126.510244 
L 143.273093 122.331774 
L 145.31238 121.335539 
L 147.351667 117.578496 
L 149.390955 117.916047 
L 151.430242 110.08096 
L 153.469529 107.697995 
L 155.508817 112.658612 
L 157.548104 128.790219 
L 159.587392 110.309703 
L 161.626679 122.317203 
L 163.665966 97.986586 
L 165.705254 94.830113 
L 167.744541 112.526086 
L 169.783828 48.15252 
L 171.823116 55.0405 
L 173.862403 75.67695 
L 175.90169 48.549052 
L 177.940978 42.881375 
L 179.980265 70.355708 
L 182.019552 67.492828 
L 184.05884 71.438275 
L 186.098127 64.863896 
L 188.137414 56.901917 
L 190.176702 67.335267 
L 192.215989 60.709847 
L 194.255276 49.207037 
L 196.294564 68.745291 
L 198.333851 75.561386 
L 200.373138 96.745105 
L 202.412426 71.112761 
L 204.451713 54.388715 
L 206.491 44.612522 
L 208.530288 77.026965 
L 210.569575 56.618096 
L 212.608862 110.879479 
L 214.64815 108.895165 
L 216.687437 93.473289 
L 218.726725 92.495078 
L 220.766012 110.057398 
L 222.805299 122.030496 
L 224.844587 121.476794 
L 226.883874 68.126381 
L 228.923161 60.047049 
L 230.962449 80.061006 
L 233.001736 74.042315 
L 235.041023 41.406712 
L 237.080311 60.438391 
L 239.119598 52.749561 
L 241.158885 74.699514 
L 243.198173 50.677622 
L 245.23746 83.87528 
L 247.276747 50.015892 
L 249.316035 98.901438 
L 251.355322 75.182326 
L 253.394609 112.089003 
L 257.473184 68.925073 
L 259.512471 64.891638 
L 261.551759 58.210292 
L 263.591046 68.997352 
L 265.630333 67.859028 
L 267.669621 60.002339 
L 269.708908 50.059797 
L 271.748196 41.874301 
L 273.787483 59.872604 
L 275.82677 49.743244 
L 277.866058 66.320299 
L 279.905345 56.767143 
L 281.944632 78.568573 
L 283.98392 65.104968 
L 286.023207 59.93201 
L 288.062494 54.376481 
L 290.101782 69.170563 
L 292.141069 75.232289 
L 294.180356 54.015915 
L 296.219644 42.605254 
L 298.258931 80.892519 
L 300.298218 57.038181 
L 302.337506 62.553341 
L 304.376793 59.447045 
L 306.41608 44.962477 
L 308.455368 47.165279 
L 310.494655 51.018941 
L 312.533942 58.088468 
L 314.57323 72.722605 
L 316.612517 40.027852 
L 318.651804 55.783595 
L 320.691092 45.425409 
L 322.730379 42.488313 
L 324.769667 56.254698 
L 326.808954 62.943592 
L 328.848241 46.477819 
L 330.887529 45.03156 
L 332.926816 49.717935 
L 334.966103 45.069912 
L 337.005391 55.386482 
L 339.044678 47.515855 
L 341.083965 49.247332 
L 343.123253 52.764388 
L 345.16254 48.22817 
L 347.201827 53.890067 
L 349.241115 54.166632 
L 351.280402 41.898808 
L 353.319689 52.40402 
L 355.358977 55.312069 
L 357.398264 64.566279 
L 359.437551 82.296796 
L 361.476839 49.466938 
L 363.516126 57.127362 
L 365.555413 44.499018 
L 367.594701 69.308426 
L 369.633988 53.469505 
L 371.673275 59.861657 
L 373.712563 52.821929 
L 375.75185 68.655907 
L 377.791138 51.977132 
L 379.830425 91.764718 
L 381.869712 67.475055 
L 383.909 70.152722 
L 385.948287 100.98895 
L 387.987574 73.356629 
L 390.026862 78.499675 
L 392.066149 62.879976 
L 394.105436 64.244479 
L 396.144724 98.541427 
L 398.184011 84.020827 
L 400.223298 85.411278 
L 402.262586 56.316585 
L 404.301873 81.18452 
L 406.34116 72.968769 
L 408.380448 68.63805 
L 410.419735 50.211193 
L 412.459022 68.96118 
L 414.49831 106.884988 
L 416.537597 79.209382 
L 418.576884 115.757151 
L 420.616172 100.296688 
L 422.655459 83.562596 
L 424.694746 80.552637 
L 426.734034 66.47222 
L 428.773321 67.333437 
L 430.812608 63.032147 
L 432.851896 61.172734 
L 434.891183 69.033256 
L 436.930471 59.025744 
L 438.969758 61.554697 
L 441.009045 72.271803 
L 443.048333 47.088323 
L 445.08762 62.092672 
L 447.126907 69.726317 
L 449.166195 66.765568 
L 451.205482 55.98552 
L 453.244769 64.449093 
L 455.284057 62.361009 
L 457.323344 55.730693 
L 459.362631 52.765378 
L 461.401919 59.077233 
L 463.441206 60.327716 
L 465.480493 63.360249 
L 467.519781 60.515279 
L 469.559068 54.249064 
L 471.598355 68.288444 
L 473.637643 68.654524 
L 475.67693 71.678327 
L 477.716217 50.173053 
L 479.755505 65.273678 
L 481.794792 60.359721 
L 483.834079 62.863008 
L 485.873367 68.438737 
L 487.912654 66.830156 
L 489.951942 46.747778 
L 491.991229 53.377873 
L 494.030516 44.49344 
L 496.069804 62.814655 
L 498.109091 58.994639 
L 498.109091 58.994639 
" clip-path="url(#p1fa9592055)" style="fill: none; stroke: #ff0000; stroke-opacity: 0.9; stroke-width: 1.5; stroke-linecap: square"/>
   </g>
   <g id="line2d_18">
    <path d="M 92.290909 112.420163 
L 94.330196 100.882848 
L 96.369484 120.774694 
L 98.408771 101.055547 
L 100.448058 91.666265 
L 102.487346 104.960916 
L 104.526633 99.110446 
L 106.565921 66.52486 
L 108.605208 112.813067 
L 110.644495 46.191599 
L 112.683783 80.99347 
L 114.72307 119.422163 
L 116.762357 121.640883 
L 118.801645 112.80918 
L 120.840932 69.473159 
L 122.880219 112.720487 
L 124.919507 67.969327 
L 126.958794 63.507412 
L 128.998081 85.238787 
L 131.037369 63.379286 
L 133.076656 49.895171 
L 135.115943 52.205439 
L 137.155231 105.286209 
L 139.194518 109.476007 
L 141.233805 125.579807 
L 143.273093 121.60703 
L 145.31238 121.728562 
L 147.351667 113.611467 
L 149.390955 118.423901 
L 151.430242 109.513533 
L 153.469529 107.948345 
L 155.508817 114.854378 
L 157.548104 128.648357 
L 159.587392 109.845254 
L 161.626679 124.01475 
L 163.665966 95.946628 
L 165.705254 95.101855 
L 167.744541 113.146958 
L 169.783828 49.832169 
L 171.823116 54.399894 
L 173.862403 74.849914 
L 175.90169 50.606804 
L 177.940978 43.073003 
L 179.980265 68.726594 
L 182.019552 64.143153 
L 184.05884 70.589876 
L 186.098127 65.729256 
L 188.137414 59.334647 
L 190.176702 68.377637 
L 192.215989 61.336144 
L 194.255276 47.59265 
L 196.294564 68.658721 
L 198.333851 74.673906 
L 200.373138 92.812525 
L 202.412426 70.950573 
L 204.451713 52.271184 
L 206.491 42.315519 
L 208.530288 73.079623 
L 210.569575 57.871161 
L 212.608862 111.825871 
L 214.64815 106.043148 
L 216.687437 93.794993 
L 218.726725 92.400852 
L 220.766012 109.4047 
L 222.805299 121.196538 
L 224.844587 120.273113 
L 226.883874 69.829199 
L 228.923161 58.114499 
L 230.962449 79.023841 
L 233.001736 73.355258 
L 235.041023 43.789406 
L 237.080311 58.952201 
L 239.119598 51.547949 
L 241.158885 74.108972 
L 243.198173 52.067726 
L 245.23746 81.117697 
L 247.276747 50.134717 
L 249.316035 102.054667 
L 251.355322 76.924023 
L 253.394609 110.951561 
L 257.473184 71.888838 
L 259.512471 65.256174 
L 261.551759 56.861756 
L 263.591046 68.531484 
L 265.630333 63.820876 
L 267.669621 60.575699 
L 269.708908 48.400815 
L 271.748196 39.141818 
L 273.787483 61.828907 
L 275.82677 49.491064 
L 277.866058 65.351657 
L 279.905345 53.918166 
L 281.944632 81.774353 
L 283.98392 64.408515 
L 286.023207 62.788207 
L 288.062494 52.866806 
L 290.101782 67.066399 
L 292.141069 75.102667 
L 294.180356 54.07116 
L 296.219644 41.293035 
L 298.258931 78.783478 
L 300.298218 55.185356 
L 302.337506 60.468071 
L 304.376793 58.004563 
L 306.41608 44.610647 
L 308.455368 45.361773 
L 310.494655 56.309937 
L 312.533942 60.701905 
L 314.57323 72.453982 
L 316.612517 40.233846 
L 318.651804 56.540803 
L 320.691092 46.08208 
L 322.730379 42.021488 
L 326.808954 62.701547 
L 328.848241 45.915451 
L 332.926816 47.558555 
L 334.966103 45.812455 
L 337.005391 56.224363 
L 339.044678 40.664517 
L 341.083965 50.062426 
L 343.123253 56.259146 
L 345.16254 48.64982 
L 347.201827 52.526732 
L 349.241115 54.527668 
L 351.280402 41.04494 
L 353.319689 58.383802 
L 355.358977 57.665074 
L 357.398264 64.783008 
L 359.437551 83.242001 
L 361.476839 47.644711 
L 363.516126 55.88147 
L 365.555413 45.752849 
L 367.594701 69.966751 
L 369.633988 52.927196 
L 371.673275 62.300541 
L 373.712563 51.788353 
L 375.75185 68.309257 
L 377.791138 49.912288 
L 379.830425 94.191165 
L 381.869712 66.363167 
L 383.909 72.428315 
L 385.948287 100.243458 
L 387.987574 72.247812 
L 390.026862 80.195249 
L 392.066149 62.058556 
L 394.105436 66.746907 
L 396.144724 101.14641 
L 398.184011 83.550177 
L 400.223298 83.81991 
L 402.262586 58.952505 
L 404.301873 80.057321 
L 406.34116 68.346073 
L 408.380448 69.27533 
L 410.419735 46.924415 
L 412.459022 68.683923 
L 414.49831 105.413238 
L 416.537597 78.603357 
L 418.576884 113.180202 
L 420.616172 106.029913 
L 422.655459 86.266788 
L 424.694746 81.184842 
L 426.734034 61.491356 
L 428.773321 66.14735 
L 430.812608 64.524395 
L 432.851896 63.55428 
L 434.891183 71.05971 
L 436.930471 59.990069 
L 438.969758 59.963025 
L 441.009045 71.136388 
L 443.048333 47.782734 
L 445.08762 60.198493 
L 447.126907 69.584323 
L 449.166195 66.428393 
L 451.205482 56.331789 
L 453.244769 64.294293 
L 455.284057 62.285689 
L 457.323344 52.901058 
L 459.362631 49.749498 
L 461.401919 60.259277 
L 463.441206 60.201272 
L 465.480493 62.401253 
L 467.519781 54.673222 
L 469.559068 56.012833 
L 471.598355 67.869527 
L 473.637643 67.987899 
L 475.67693 70.362374 
L 477.716217 49.978211 
L 479.755505 65.02222 
L 481.794792 57.732339 
L 483.834079 61.516325 
L 485.873367 66.285689 
L 487.912654 66.892717 
L 489.951942 46.404801 
L 491.991229 49.608664 
L 494.030516 43.749695 
L 496.069804 64.38686 
L 498.109091 58.651096 
L 498.109091 58.651096 
" clip-path="url(#p1fa9592055)" style="fill: none; stroke: #008000; stroke-opacity: 0.9; stroke-width: 1.5; stroke-linecap: square"/>
   </g>
   <g id="line2d_19">
    <path d="M 153.469529 135.36 
L 153.469529 34.56 
" clip-path="url(#p1fa9592055)" style="fill: none; stroke-dasharray: 5.55,2.4; stroke-dashoffset: 0; stroke: #000000; stroke-width: 1.5"/>
   </g>
   <g id="line2d_20">
    <path d="M 438.969758 135.36 
L 438.969758 34.56 
" clip-path="url(#p1fa9592055)" style="fill: none; stroke-dasharray: 5.55,2.4; stroke-dashoffset: 0; stroke: #0000ff; stroke-width: 1.5"/>
   </g>
   <g id="patch_3">
    <path d="M 72 135.36 
L 72 34.56 
" style="fill: none; stroke: #000000; stroke-width: 0.8; stroke-linejoin: miter; stroke-linecap: square"/>
   </g>
   <g id="patch_4">
    <path d="M 518.4 135.36 
L 518.4 34.56 
" style="fill: none; stroke: #000000; stroke-width: 0.8; stroke-linejoin: miter; stroke-linecap: square"/>
   </g>
   <g id="patch_5">
    <path d="M 72 135.36 
L 518.4 135.36 
" style="fill: none; stroke: #000000; stroke-width: 0.8; stroke-linejoin: miter; stroke-linecap: square"/>
   </g>
   <g id="patch_6">
    <path d="M 72 34.56 
L 518.4 34.56 
" style="fill: none; stroke: #000000; stroke-width: 0.8; stroke-linejoin: miter; stroke-linecap: square"/>
   </g>
  </g>
  <g id="axes_2">
   <g id="patch_7">
    <path d="M 72 256.32 
L 518.4 256.32 
L 518.4 155.52 
L 72 155.52 
z
" style="fill: #ffffff"/>
   </g>
   <g id="matplotlib.axis_3">
    <g id="xtick_10">
     <g id="line2d_21">
      <g>
       <use xlink:href="#m82f1d90f0d" x="92.290909" y="256.32" style="stroke: #000000; stroke-width: 0.8"/>
      </g>
     </g>
     <g id="text_4">
      <!-- 0 -->
      <g transform="translate(89.109659 270.918437) scale(0.1 -0.1)">
       <use xlink:href="#DejaVuSans-30"/>
      </g>
     </g>
    </g>
    <g id="xtick_11">
     <g id="line2d_22">
      <g>
       <use xlink:href="#m82f1d90f0d" x="143.273093" y="256.32" style="stroke: #000000; stroke-width: 0.8"/>
      </g>
     </g>
     <g id="text_5">
      <!-- 25 -->
      <g transform="translate(136.910593 270.918437) scale(0.1 -0.1)">
       <defs>
        <path id="DejaVuSans-32" d="M 1228 531 
L 3431 531 
L 3431 0 
L 469 0 
L 469 531 
Q 828 903 1448 1529 
Q 2069 2156 2228 2338 
Q 2531 2678 2651 2914 
Q 2772 3150 2772 3378 
Q 2772 3750 2511 3984 
Q 2250 4219 1831 4219 
Q 1534 4219 1204 4116 
Q 875 4013 500 3803 
L 500 4441 
Q 881 4594 1212 4672 
Q 1544 4750 1819 4750 
Q 2544 4750 2975 4387 
Q 3406 4025 3406 3419 
Q 3406 3131 3298 2873 
Q 3191 2616 2906 2266 
Q 2828 2175 2409 1742 
Q 1991 1309 1228 531 
z
" transform="scale(0.015625)"/>
       </defs>
       <use xlink:href="#DejaVuSans-32"/>
       <use xlink:href="#DejaVuSans-35" transform="translate(63.623047 0)"/>
      </g>
     </g>
    </g>
    <g id="xtick_12">
     <g id="line2d_23">
      <g>
       <use xlink:href="#m82f1d90f0d" x="194.255276" y="256.32" style="stroke: #000000; stroke-width: 0.8"/>
      </g>
     </g>
     <g id="text_6">
      <!-- 50 -->
      <g transform="translate(187.892776 270.918437) scale(0.1 -0.1)">
       <use xlink:href="#DejaVuSans-35"/>
       <use xlink:href="#DejaVuSans-30" transform="translate(63.623047 0)"/>
      </g>
     </g>
    </g>
    <g id="xtick_13">
     <g id="line2d_24">
      <g>
       <use xlink:href="#m82f1d90f0d" x="245.23746" y="256.32" style="stroke: #000000; stroke-width: 0.8"/>
      </g>
     </g>
     <g id="text_7">
      <!-- 75 -->
      <g transform="translate(238.87496 270.918437) scale(0.1 -0.1)">
       <defs>
        <path id="DejaVuSans-37" d="M 525 4666 
L 3525 4666 
L 3525 4397 
L 1831 0 
L 1172 0 
L 2766 4134 
L 525 4134 
L 525 4666 
z
" transform="scale(0.015625)"/>
       </defs>
       <use xlink:href="#DejaVuSans-37"/>
       <use xlink:href="#DejaVuSans-35" transform="translate(63.623047 0)"/>
      </g>
     </g>
    </g>
    <g id="xtick_14">
     <g id="line2d_25">
      <g>
       <use xlink:href="#m82f1d90f0d" x="296.219644" y="256.32" style="stroke: #000000; stroke-width: 0.8"/>
      </g>
     </g>
     <g id="text_8">
      <!-- 100 -->
      <g transform="translate(286.675894 270.918437) scale(0.1 -0.1)">
       <use xlink:href="#DejaVuSans-31"/>
       <use xlink:href="#DejaVuSans-30" transform="translate(63.623047 0)"/>
       <use xlink:href="#DejaVuSans-30" transform="translate(127.246094 0)"/>
      </g>
     </g>
    </g>
    <g id="xtick_15">
     <g id="line2d_26">
      <g>
       <use xlink:href="#m82f1d90f0d" x="347.201827" y="256.32" style="stroke: #000000; stroke-width: 0.8"/>
      </g>
     </g>
     <g id="text_9">
      <!-- 125 -->
      <g transform="translate(337.658077 270.918437) scale(0.1 -0.1)">
       <use xlink:href="#DejaVuSans-31"/>
       <use xlink:href="#DejaVuSans-32" transform="translate(63.623047 0)"/>
       <use xlink:href="#DejaVuSans-35" transform="translate(127.246094 0)"/>
      </g>
     </g>
    </g>
    <g id="xtick_16">
     <g id="line2d_27">
      <g>
       <use xlink:href="#m82f1d90f0d" x="398.184011" y="256.32" style="stroke: #000000; stroke-width: 0.8"/>
      </g>
     </g>
     <g id="text_10">
      <!-- 150 -->
      <g transform="translate(388.640261 270.918437) scale(0.1 -0.1)">
       <use xlink:href="#DejaVuSans-31"/>
       <use xlink:href="#DejaVuSans-35" transform="translate(63.623047 0)"/>
       <use xlink:href="#DejaVuSans-30" transform="translate(127.246094 0)"/>
      </g>
     </g>
    </g>
    <g id="xtick_17">
     <g id="line2d_28">
      <g>
       <use xlink:href="#m82f1d90f0d" x="449.166195" y="256.32" style="stroke: #000000; stroke-width: 0.8"/>
      </g>
     </g>
     <g id="text_11">
      <!-- 175 -->
      <g transform="translate(439.622445 270.918437) scale(0.1 -0.1)">
       <use xlink:href="#DejaVuSans-31"/>
       <use xlink:href="#DejaVuSans-37" transform="translate(63.623047 0)"/>
       <use xlink:href="#DejaVuSans-35" transform="translate(127.246094 0)"/>
      </g>
     </g>
    </g>
    <g id="xtick_18">
     <g id="line2d_29">
      <g>
       <use xlink:href="#m82f1d90f0d" x="500.148378" y="256.32" style="stroke: #000000; stroke-width: 0.8"/>
      </g>
     </g>
     <g id="text_12">
      <!-- 200 -->
      <g transform="translate(490.604628 270.918437) scale(0.1 -0.1)">
       <use xlink:href="#DejaVuSans-32"/>
       <use xlink:href="#DejaVuSans-30" transform="translate(63.623047 0)"/>
       <use xlink:href="#DejaVuSans-30" transform="translate(127.246094 0)"/>
      </g>
     </g>
    </g>
   </g>
   <g id="matplotlib.axis_4">
    <g id="ytick_4">
     <g id="line2d_30">
      <g>
       <use xlink:href="#m4cf7a0fb36" x="72" y="254.449818" style="stroke: #000000; stroke-width: 0.8"/>
      </g>
     </g>
     <g id="text_13">
      <!-- −200 -->
      <g transform="translate(37.532812 258.249037) scale(0.1 -0.1)">
       <use xlink:href="#DejaVuSans-2212"/>
       <use xlink:href="#DejaVuSans-32" transform="translate(83.789062 0)"/>
       <use xlink:href="#DejaVuSans-30" transform="translate(147.412109 0)"/>
       <use xlink:href="#DejaVuSans-30" transform="translate(211.035156 0)"/>
      </g>
     </g>
    </g>
    <g id="ytick_5">
     <g id="line2d_31">
      <g>
       <use xlink:href="#m4cf7a0fb36" x="72" y="229.632787" style="stroke: #000000; stroke-width: 0.8"/>
      </g>
     </g>
     <g id="text_14">
      <!-- −100 -->
      <g transform="translate(37.532812 233.432006) scale(0.1 -0.1)">
       <use xlink:href="#DejaVuSans-2212"/>
       <use xlink:href="#DejaVuSans-31" transform="translate(83.789062 0)"/>
       <use xlink:href="#DejaVuSans-30" transform="translate(147.412109 0)"/>
       <use xlink:href="#DejaVuSans-30" transform="translate(211.035156 0)"/>
      </g>
     </g>
    </g>
    <g id="ytick_6">
     <g id="line2d_32">
      <g>
       <use xlink:href="#m4cf7a0fb36" x="72" y="204.815756" style="stroke: #000000; stroke-width: 0.8"/>
      </g>
     </g>
     <g id="text_15">
      <!-- 0 -->
      <g transform="translate(58.6375 208.614975) scale(0.1 -0.1)">
       <use xlink:href="#DejaVuSans-30"/>
      </g>
     </g>
    </g>
    <g id="ytick_7">
     <g id="line2d_33">
      <g>
       <use xlink:href="#m4cf7a0fb36" x="72" y="179.998726" style="stroke: #000000; stroke-width: 0.8"/>
      </g>
     </g>
     <g id="text_16">
      <!-- 100 -->
      <g transform="translate(45.9125 183.797944) scale(0.1 -0.1)">
       <use xlink:href="#DejaVuSans-31"/>
       <use xlink:href="#DejaVuSans-30" transform="translate(63.623047 0)"/>
       <use xlink:href="#DejaVuSans-30" transform="translate(127.246094 0)"/>
      </g>
     </g>
    </g>
   </g>
   <g id="line2d_34">
    <path d="M 92.290909 176.256529 
L 96.369484 163.440435 
L 98.408771 163.369274 
L 100.448058 169.454241 
L 102.487346 166.196676 
L 104.526633 168.469951 
L 106.565921 162.467297 
L 108.605208 164.584856 
L 110.644495 175.575591 
L 112.683783 249.286201 
L 114.72307 161.646313 
L 116.762357 163.541599 
L 118.801645 169.946685 
L 120.840932 161.150828 
L 122.880219 167.856213 
L 124.919507 166.054978 
L 126.958794 180.056911 
L 128.998081 163.287555 
L 131.037369 167.022284 
L 133.076656 173.819593 
L 135.115943 167.646879 
L 137.155231 165.671101 
L 139.194518 165.332609 
L 141.233805 167.453841 
L 143.273093 164.640291 
L 145.31238 161.187787 
L 147.351667 160.720063 
L 149.390955 163.838679 
L 151.430242 162.335639 
L 153.469529 163.933538 
L 155.508817 167.943157 
L 157.548104 163.564361 
L 159.587392 164.973331 
L 161.626679 168.05612 
L 163.665966 168.362217 
L 165.705254 250.404278 
L 167.744541 162.028955 
L 169.783828 168.122393 
L 171.823116 166.414442 
L 173.862403 166.741063 
L 175.90169 172.186401 
L 177.940978 170.684739 
L 179.980265 184.686422 
L 182.019552 169.415718 
L 184.05884 172.44823 
L 186.098127 187.72367 
L 188.137414 173.1008 
L 190.176702 173.953223 
L 192.215989 197.669524 
L 194.255276 193.117889 
L 196.294564 189.876838 
L 198.333851 188.041557 
L 200.373138 171.401637 
L 202.412426 164.416394 
L 204.451713 167.164853 
L 206.491 166.087219 
L 208.530288 174.458714 
L 210.569575 165.992213 
L 212.608862 163.540179 
L 214.64815 168.198204 
L 216.687437 161.183905 
L 218.726725 167.405116 
L 220.766012 166.488633 
L 222.805299 169.660722 
L 224.844587 162.282063 
L 226.883874 177.945868 
L 228.923161 186.606665 
L 230.962449 166.309764 
L 233.001736 170.906413 
L 235.041023 166.213713 
L 237.080311 166.236047 
L 239.119598 168.410998 
L 241.158885 164.815558 
L 243.198173 170.57106 
L 245.23746 162.098056 
L 247.276747 163.91685 
L 249.316035 164.457193 
L 251.355322 169.252492 
L 253.394609 165.442933 
L 255.433897 162.866655 
L 257.473184 169.188163 
L 259.512471 163.949708 
L 261.551759 162.070867 
L 263.591046 164.636508 
L 265.630333 167.643729 
L 267.669621 163.247207 
L 269.708908 164.811556 
L 271.748196 164.961978 
L 273.787483 166.174323 
L 275.82677 162.265371 
L 277.866058 250.898096 
L 279.905345 167.929665 
L 281.944632 164.243724 
L 283.98392 162.927376 
L 286.023207 169.641796 
L 288.062494 171.188483 
L 290.101782 169.372189 
L 292.141069 171.242229 
L 294.180356 166.78396 
L 296.219644 167.549105 
L 298.258931 174.162257 
L 302.337506 164.298777 
L 304.376793 170.012332 
L 306.41608 163.83184 
L 308.455368 167.192989 
L 310.494655 167.459457 
L 312.533942 163.542326 
L 314.57323 250.98999 
L 316.612517 160.128682 
L 318.651804 162.31959 
L 320.691092 162.024165 
L 322.730379 165.411124 
L 324.769667 164.924807 
L 326.808954 164.274106 
L 328.848241 166.718562 
L 330.887529 166.985625 
L 332.926816 163.359421 
L 334.966103 164.913806 
L 337.005391 160.845488 
L 339.044678 162.985098 
L 341.083965 162.502745 
L 343.123253 162.794047 
L 345.16254 164.893914 
L 347.201827 163.373269 
L 349.241115 251.738182 
L 351.280402 162.734663 
L 353.319689 163.434407 
L 355.358977 170.361765 
L 357.398264 167.502194 
L 359.437551 171.014105 
L 361.476839 166.260256 
L 363.516126 165.647896 
L 365.555413 169.982598 
L 367.594701 167.022512 
L 369.633988 170.117824 
L 371.673275 165.532645 
L 373.712563 171.713368 
L 375.75185 175.724324 
L 377.791138 173.748843 
L 379.830425 166.123936 
L 381.869712 178.05974 
L 383.909 171.363364 
L 385.948287 169.466692 
L 387.987574 168.087626 
L 390.026862 171.979689 
L 392.066149 171.685399 
L 394.105436 171.819292 
L 396.144724 249.280809 
L 398.184011 164.853888 
L 400.223298 170.952078 
L 402.262586 170.883083 
L 404.301873 170.169207 
L 406.34116 167.347705 
L 408.380448 172.45758 
L 410.419735 166.304944 
L 412.459022 171.479004 
L 414.49831 164.883183 
L 416.537597 166.742438 
L 418.576884 160.534056 
L 420.616172 168.296778 
L 422.655459 167.135956 
L 424.694746 171.487513 
L 426.734034 167.392226 
L 428.773321 171.973527 
L 430.812608 175.686244 
L 432.851896 171.782295 
L 434.891183 173.474608 
L 436.930471 178.076563 
L 438.969758 170.55639 
L 441.009045 178.227996 
L 443.048333 171.742629 
L 445.08762 173.997398 
L 447.126907 175.099149 
L 449.166195 163.599332 
L 451.205482 169.065429 
L 453.244769 172.877636 
L 455.284057 178.510811 
L 457.323344 179.97272 
L 459.362631 173.277196 
L 461.401919 172.838833 
L 463.441206 176.791985 
L 465.480493 174.741873 
L 469.559068 175.335505 
L 471.598355 170.205238 
L 473.637643 175.284934 
L 475.67693 177.906569 
L 477.716217 179.559582 
L 479.755505 173.312741 
L 481.794792 176.527545 
L 483.834079 170.687507 
L 485.873367 173.895656 
L 487.912654 177.731625 
L 489.951942 172.555457 
L 491.991229 169.047844 
L 494.030516 168.627576 
L 496.069804 173.672827 
L 498.109091 176.365808 
L 498.109091 176.365808 
" clip-path="url(#pd77a024e83)" style="fill: none; stroke: #ff0000; stroke-opacity: 0.9; stroke-width: 1.5; stroke-linecap: square"/>
   </g>
   <g id="line2d_35">
    <path d="M 92.290909 176.370776 
L 96.369484 163.652381 
L 98.408771 163.48485 
L 100.448058 169.488803 
L 102.487346 166.3416 
L 104.526633 168.225507 
L 106.565921 162.290428 
L 108.605208 164.385062 
L 110.644495 175.429415 
L 112.683783 249.197651 
L 114.72307 161.737646 
L 116.762357 163.50144 
L 118.801645 169.919643 
L 120.840932 161.113316 
L 122.880219 167.851581 
L 124.919507 166.044981 
L 126.958794 180.204439 
L 128.998081 163.325393 
L 131.037369 167.029188 
L 133.076656 173.72307 
L 135.115943 167.735168 
L 137.155231 165.61876 
L 139.194518 165.372555 
L 141.233805 167.402628 
L 143.273093 164.685899 
L 145.31238 161.088997 
L 147.351667 160.730325 
L 149.390955 163.694323 
L 151.430242 162.39116 
L 153.469529 163.951521 
L 155.508817 167.895364 
L 157.548104 163.548408 
L 159.587392 165.402948 
L 161.626679 168.15672 
L 163.665966 168.211079 
L 165.705254 250.47823 
L 167.744541 162.134671 
L 169.783828 168.018287 
L 171.823116 166.598415 
L 173.862403 166.836838 
L 175.90169 172.156043 
L 177.940978 170.767117 
L 179.980265 184.568784 
L 182.019552 169.502355 
L 184.05884 172.466123 
L 186.098127 187.782424 
L 188.137414 173.051737 
L 190.176702 173.97008 
L 192.215989 197.837386 
L 194.255276 193.280466 
L 196.294564 189.788744 
L 198.333851 187.999494 
L 200.373138 171.461252 
L 202.412426 164.076455 
L 204.451713 167.465648 
L 206.491 166.027839 
L 208.530288 174.278477 
L 210.569575 165.794107 
L 212.608862 163.365252 
L 214.64815 168.378114 
L 216.687437 161.244906 
L 218.726725 167.298943 
L 220.766012 166.496024 
L 222.805299 169.822849 
L 224.844587 162.279091 
L 226.883874 177.828301 
L 228.923161 186.755427 
L 230.962449 166.223145 
L 233.001736 170.991631 
L 235.041023 166.046386 
L 237.080311 166.390661 
L 239.119598 168.496845 
L 241.158885 164.789036 
L 243.198173 170.570984 
L 245.23746 162.151037 
L 247.276747 163.973693 
L 249.316035 164.746056 
L 251.355322 169.345897 
L 253.394609 165.606484 
L 255.433897 162.814276 
L 257.473184 169.223686 
L 259.512471 163.899075 
L 261.551759 162.23783 
L 263.591046 164.541933 
L 265.630333 167.564638 
L 267.669621 163.214137 
L 269.708908 164.904271 
L 271.748196 164.897818 
L 273.787483 166.345443 
L 275.82677 162.256859 
L 277.866058 250.756588 
L 279.905345 167.816054 
L 281.944632 164.181386 
L 283.98392 162.95711 
L 286.023207 169.73208 
L 288.062494 171.1344 
L 290.101782 169.420167 
L 292.141069 171.335709 
L 294.180356 166.746615 
L 296.219644 167.394434 
L 298.258931 174.002279 
L 302.337506 164.231345 
L 304.376793 169.994667 
L 306.41608 163.661485 
L 308.455368 167.118931 
L 310.494655 167.687939 
L 312.533942 163.26889 
L 314.57323 251.04906 
L 316.612517 160.101818 
L 318.651804 162.211959 
L 320.691092 161.723926 
L 322.730379 165.303727 
L 324.769667 164.888461 
L 326.808954 164.310728 
L 328.848241 166.482384 
L 330.887529 166.835596 
L 332.926816 163.468681 
L 334.966103 164.659638 
L 337.005391 160.785317 
L 339.044678 163.153276 
L 341.083965 162.484914 
L 343.123253 162.561259 
L 345.16254 164.772537 
L 347.201827 163.314873 
L 349.241115 251.583768 
L 351.280402 162.903326 
L 353.319689 163.573961 
L 355.358977 170.496642 
L 357.398264 167.602911 
L 359.437551 170.979669 
L 361.476839 166.488042 
L 363.516126 165.832808 
L 365.555413 169.792752 
L 367.594701 166.999958 
L 369.633988 170.179083 
L 371.673275 165.478207 
L 373.712563 171.555566 
L 375.75185 175.589145 
L 377.791138 173.786251 
L 379.830425 166.190079 
L 381.869712 178.1338 
L 383.909 171.303404 
L 385.948287 169.5537 
L 387.987574 168.259925 
L 390.026862 172.00509 
L 392.066149 171.501278 
L 394.105436 171.802096 
L 396.144724 249.12702 
L 398.184011 164.719897 
L 400.223298 171.092833 
L 402.262586 170.965657 
L 404.301873 169.971753 
L 406.34116 167.290263 
L 408.380448 172.273221 
L 410.419735 166.328384 
L 412.459022 171.410528 
L 414.49831 164.872462 
L 416.537597 166.532484 
L 418.576884 160.860685 
L 420.616172 168.422787 
L 422.655459 167.12786 
L 424.694746 171.334846 
L 426.734034 167.322398 
L 428.773321 172.184682 
L 430.812608 175.533366 
L 432.851896 171.910444 
L 434.891183 173.399494 
L 436.930471 178.070246 
L 438.969758 170.590978 
L 441.009045 178.146308 
L 443.048333 171.79575 
L 445.08762 174.148929 
L 447.126907 175.252883 
L 449.166195 163.325196 
L 451.205482 168.969363 
L 453.244769 173.010166 
L 455.284057 178.502002 
L 457.323344 180.087774 
L 459.362631 173.336639 
L 461.401919 172.862799 
L 463.441206 176.795098 
L 465.480493 174.597053 
L 469.559068 175.09861 
L 471.598355 170.430351 
L 473.637643 175.277223 
L 475.67693 177.732988 
L 477.716217 179.38729 
L 479.755505 173.128271 
L 481.794792 176.298161 
L 483.834079 170.719119 
L 485.873367 173.893275 
L 487.912654 177.894398 
L 489.951942 172.6452 
L 491.991229 168.872542 
L 494.030516 168.693378 
L 496.069804 173.684419 
L 498.109091 176.082388 
L 498.109091 176.082388 
" clip-path="url(#pd77a024e83)" style="fill: none; stroke: #ff0000; stroke-opacity: 0.9; stroke-width: 1.5; stroke-linecap: square"/>
   </g>
   <g id="line2d_36">
    <path d="M 92.290909 176.371496 
L 96.369484 163.638885 
L 98.408771 163.406036 
L 100.448058 169.49162 
L 102.487346 166.004478 
L 104.526633 168.187351 
L 106.565921 162.474114 
L 108.605208 164.417628 
L 110.644495 175.475377 
L 112.683783 249.279979 
L 114.72307 161.977777 
L 116.762357 163.601404 
L 118.801645 169.790923 
L 120.840932 161.112206 
L 122.880219 167.821889 
L 124.919507 166.310707 
L 126.958794 180.049285 
L 128.998081 163.136652 
L 131.037369 167.105393 
L 133.076656 173.826724 
L 135.115943 167.607088 
L 137.155231 165.554556 
L 139.194518 165.254647 
L 141.233805 167.649489 
L 143.273093 164.730693 
L 145.31238 161.139933 
L 147.351667 160.738099 
L 149.390955 163.668327 
L 151.430242 162.237463 
L 153.469529 164.029283 
L 155.508817 168.068287 
L 157.548104 163.669198 
L 159.587392 165.147534 
L 161.626679 168.20079 
L 163.665966 168.12162 
L 165.705254 250.454869 
L 167.744541 162.123999 
L 169.783828 168.02419 
L 171.823116 166.303365 
L 173.862403 166.608889 
L 175.90169 172.241859 
L 177.940978 170.65844 
L 179.980265 184.804227 
L 182.019552 169.510948 
L 184.05884 172.509421 
L 186.098127 187.711501 
L 188.137414 173.000566 
L 190.176702 174.080285 
L 192.215989 197.801713 
L 194.255276 193.087202 
L 196.294564 189.858735 
L 198.333851 188.206223 
L 200.373138 171.497253 
L 202.412426 164.146741 
L 204.451713 167.429371 
L 206.491 166.101987 
L 208.530288 174.455221 
L 210.569575 165.833346 
L 212.608862 163.420857 
L 214.64815 168.235591 
L 216.687437 161.149502 
L 218.726725 167.128822 
L 220.766012 166.410216 
L 222.805299 169.812807 
L 224.844587 162.170092 
L 226.883874 177.689709 
L 228.923161 186.766914 
L 230.962449 166.187682 
L 233.001736 170.90636 
L 235.041023 166.013146 
L 237.080311 166.199232 
L 239.119598 168.601371 
L 241.158885 164.652787 
L 243.198173 170.687598 
L 245.23746 162.310521 
L 247.276747 164.007441 
L 249.316035 164.670154 
L 251.355322 169.390066 
L 253.394609 165.497803 
L 255.433897 162.903046 
L 257.473184 169.256442 
L 259.512471 163.902074 
L 261.551759 162.00987 
L 263.591046 164.479398 
L 265.630333 167.71801 
L 267.669621 163.443252 
L 269.708908 164.805932 
L 271.748196 164.875541 
L 273.787483 166.330576 
L 275.82677 162.232396 
L 277.866058 250.887736 
L 279.905345 168.003976 
L 281.944632 164.119386 
L 283.98392 162.96719 
L 286.023207 169.566715 
L 288.062494 171.147074 
L 290.101782 169.49368 
L 292.141069 171.186336 
L 294.180356 166.774633 
L 296.219644 167.420192 
L 298.258931 173.993395 
L 300.298218 169.321612 
L 302.337506 164.039231 
L 304.376793 170.334765 
L 306.41608 163.784411 
L 308.455368 167.340544 
L 310.494655 167.731692 
L 312.533942 163.33372 
L 314.57323 250.687669 
L 316.612517 160.114296 
L 318.651804 162.32958 
L 320.691092 161.663368 
L 322.730379 165.483739 
L 326.808954 164.244489 
L 328.848241 166.67214 
L 330.887529 167.072342 
L 332.926816 163.495268 
L 334.966103 164.804933 
L 337.005391 160.723615 
L 339.044678 163.028896 
L 341.083965 162.555972 
L 343.123253 162.609949 
L 345.16254 164.850378 
L 347.201827 163.256277 
L 349.241115 251.285753 
L 351.280402 162.822573 
L 353.319689 163.506151 
L 355.358977 170.390919 
L 357.398264 167.489895 
L 359.437551 170.914801 
L 361.476839 166.292091 
L 363.516126 165.787325 
L 365.555413 170.026904 
L 367.594701 166.978585 
L 369.633988 170.169957 
L 371.673275 165.439612 
L 373.712563 171.493455 
L 375.75185 175.654535 
L 377.791138 173.901764 
L 379.830425 166.103464 
L 381.869712 178.072452 
L 383.909 171.348391 
L 385.948287 169.495426 
L 387.987574 168.158397 
L 390.026862 171.912083 
L 392.066149 171.479118 
L 394.105436 171.583058 
L 396.144724 249.38059 
L 398.184011 164.601033 
L 400.223298 171.000606 
L 402.262586 170.852686 
L 404.301873 169.829052 
L 406.34116 167.343392 
L 408.380448 172.210496 
L 410.419735 166.316804 
L 412.459022 171.36389 
L 414.49831 164.697399 
L 416.537597 166.671807 
L 418.576884 160.493148 
L 420.616172 168.193671 
L 422.655459 167.28475 
L 424.694746 171.532951 
L 426.734034 167.306793 
L 428.773321 171.980556 
L 430.812608 175.612703 
L 432.851896 171.810442 
L 434.891183 173.589372 
L 436.930471 178.295336 
L 438.969758 170.540005 
L 441.009045 178.168455 
L 443.048333 171.688883 
L 445.08762 174.208836 
L 447.126907 175.168688 
L 449.166195 163.442711 
L 451.205482 169.218676 
L 453.244769 172.919752 
L 455.284057 178.417342 
L 457.323344 179.997404 
L 459.362631 173.503609 
L 461.401919 172.929076 
L 463.441206 176.590334 
L 465.480493 174.732711 
L 467.519781 174.790555 
L 469.559068 175.079653 
L 471.598355 170.27796 
L 473.637643 175.416256 
L 475.67693 177.985496 
L 477.716217 179.489306 
L 479.755505 173.058913 
L 481.794792 176.495566 
L 483.834079 170.639173 
L 485.873367 173.745993 
L 487.912654 177.67523 
L 489.951942 172.713479 
L 491.991229 168.8826 
L 494.030516 168.660615 
L 496.069804 173.486834 
L 498.109091 175.979246 
L 498.109091 175.979246 
" clip-path="url(#pd77a024e83)" style="fill: none; stroke: #ff0000; stroke-opacity: 0.9; stroke-width: 1.5; stroke-linecap: square"/>
   </g>
   <g id="line2d_37">
    <path d="M 92.290909 176.340649 
L 94.330196 169.798315 
L 96.369484 163.698269 
L 98.408771 163.351272 
L 100.448058 169.616849 
L 102.487346 166.355577 
L 104.526633 168.36035 
L 106.565921 162.291617 
L 108.605208 164.407646 
L 110.644495 175.339705 
L 112.683783 249.198734 
L 114.72307 161.914564 
L 116.762357 163.312124 
L 118.801645 169.917746 
L 120.840932 161.018904 
L 122.880219 167.873617 
L 124.919507 166.075692 
L 126.958794 180.184124 
L 128.998081 163.366354 
L 131.037369 167.035557 
L 133.076656 173.87002 
L 135.115943 167.516512 
L 137.155231 165.719883 
L 139.194518 165.580575 
L 141.233805 167.363769 
L 143.273093 164.796287 
L 145.31238 161.062448 
L 147.351667 160.606316 
L 149.390955 163.698644 
L 151.430242 162.373495 
L 153.469529 163.796426 
L 155.508817 168.202116 
L 157.548104 163.42091 
L 159.587392 164.914454 
L 161.626679 168.04863 
L 163.665966 168.157602 
L 165.705254 250.599876 
L 167.744541 162.136583 
L 169.783828 167.90496 
L 171.823116 166.442654 
L 173.862403 166.665278 
L 175.90169 172.259963 
L 177.940978 170.346443 
L 179.980265 184.719878 
L 182.019552 169.242707 
L 184.05884 172.51331 
L 186.098127 187.832237 
L 188.137414 173.115207 
L 190.176702 174.040527 
L 192.215989 197.729345 
L 194.255276 193.086957 
L 196.294564 189.771196 
L 198.333851 188.000524 
L 200.373138 171.386565 
L 202.412426 164.24221 
L 204.451713 167.274821 
L 206.491 166.144146 
L 208.530288 174.255788 
L 210.569575 166.029395 
L 212.608862 163.525255 
L 214.64815 168.318836 
L 216.687437 161.175567 
L 218.726725 167.314711 
L 220.766012 166.256602 
L 222.805299 169.77122 
L 224.844587 162.198663 
L 226.883874 177.680388 
L 228.923161 186.800306 
L 230.962449 166.42851 
L 233.001736 170.91504 
L 235.041023 165.908017 
L 237.080311 166.387352 
L 239.119598 168.258683 
L 241.158885 164.520277 
L 243.198173 170.352256 
L 245.23746 162.140302 
L 247.276747 163.978904 
L 249.316035 164.710263 
L 251.355322 169.501761 
L 253.394609 165.550928 
L 255.433897 162.906098 
L 257.473184 169.30258 
L 259.512471 163.945099 
L 261.551759 162.032382 
L 263.591046 164.58951 
L 265.630333 167.624064 
L 267.669621 163.297011 
L 269.708908 164.834685 
L 271.748196 165.033499 
L 273.787483 166.260245 
L 275.82677 162.158221 
L 277.866058 250.875857 
L 279.905345 167.81421 
L 281.944632 164.180334 
L 283.98392 162.995909 
L 286.023207 169.589429 
L 288.062494 171.025284 
L 290.101782 169.449159 
L 292.141069 171.620145 
L 294.180356 166.789019 
L 296.219644 167.611231 
L 298.258931 174.111948 
L 302.337506 164.256963 
L 304.376793 170.075242 
L 306.41608 163.644031 
L 308.455368 167.147309 
L 310.494655 167.623841 
L 312.533942 163.369581 
L 314.57323 250.937858 
L 316.612517 160.22977 
L 318.651804 162.438469 
L 320.691092 161.695431 
L 322.730379 165.430266 
L 324.769667 164.676633 
L 326.808954 164.303139 
L 328.848241 166.636518 
L 330.887529 166.850584 
L 332.926816 163.584973 
L 334.966103 164.927268 
L 337.005391 160.985773 
L 339.044678 163.036208 
L 341.083965 162.455661 
L 343.123253 162.719989 
L 345.16254 164.710793 
L 347.201827 163.34118 
L 349.241115 251.602017 
L 351.280402 162.821096 
L 353.319689 163.779 
L 355.358977 170.346565 
L 357.398264 167.498335 
L 359.437551 170.972894 
L 361.476839 166.19863 
L 363.516126 166.082717 
L 365.555413 169.949032 
L 367.594701 167.110728 
L 369.633988 170.073083 
L 371.673275 165.365838 
L 373.712563 171.747127 
L 375.75185 175.614759 
L 377.791138 173.986497 
L 379.830425 166.029243 
L 381.869712 178.103117 
L 383.909 171.104674 
L 387.987574 168.199711 
L 390.026862 171.952412 
L 392.066149 171.646259 
L 394.105436 171.786445 
L 396.144724 249.164263 
L 398.184011 164.65618 
L 400.223298 170.752477 
L 402.262586 171.049455 
L 404.301873 170.134319 
L 406.34116 167.347175 
L 408.380448 172.290401 
L 410.419735 166.144683 
L 412.459022 171.444806 
L 414.49831 164.704916 
L 416.537597 166.82076 
L 418.576884 160.519174 
L 420.616172 168.299152 
L 422.655459 167.306793 
L 424.694746 171.423498 
L 426.734034 167.304131 
L 428.773321 171.997733 
L 430.812608 175.544043 
L 432.851896 171.927522 
L 434.891183 173.56664 
L 436.930471 178.232061 
L 438.969758 170.612491 
L 441.009045 178.210607 
L 443.048333 171.754239 
L 445.08762 173.968999 
L 447.126907 175.26754 
L 449.166195 163.405131 
L 451.205482 169.037828 
L 453.244769 172.967591 
L 455.284057 178.510698 
L 457.323344 180.079594 
L 459.362631 173.404487 
L 461.401919 173.029637 
L 463.441206 176.649405 
L 465.480493 174.832829 
L 467.519781 174.68995 
L 469.559068 175.208002 
L 471.598355 170.311878 
L 473.637643 175.237551 
L 475.67693 177.888579 
L 477.716217 179.473482 
L 479.755505 173.135313 
L 481.794792 176.675101 
L 483.834079 170.631065 
L 485.873367 173.869844 
L 487.912654 177.64171 
L 489.951942 172.641436 
L 491.991229 168.953557 
L 494.030516 168.715561 
L 496.069804 173.579519 
L 498.109091 176.078145 
L 498.109091 176.078145 
" clip-path="url(#pd77a024e83)" style="fill: none; stroke: #ff0000; stroke-opacity: 0.9; stroke-width: 1.5; stroke-linecap: square"/>
   </g>
   <g id="line2d_38">
    <path d="M 92.290909 176.235208 
L 96.369484 163.708736 
L 98.408771 163.212342 
L 100.448058 169.545756 
L 102.487346 166.017425 
L 104.526633 168.368927 
L 106.565921 162.31115 
L 108.605208 164.382415 
L 110.644495 175.477182 
L 112.683783 249.271365 
L 114.72307 161.768504 
L 116.762357 163.481866 
L 118.801645 169.792707 
L 120.840932 161.188911 
L 122.880219 167.670331 
L 124.919507 165.976539 
L 126.958794 180.078 
L 128.998081 163.427091 
L 131.037369 167.104427 
L 133.076656 173.719984 
L 135.115943 167.647042 
L 137.155231 165.559509 
L 139.194518 165.344227 
L 141.233805 167.461149 
L 143.273093 164.771136 
L 145.31238 161.03499 
L 147.351667 160.684172 
L 149.390955 163.829909 
L 151.430242 162.155078 
L 153.469529 163.959288 
L 155.508817 167.983551 
L 157.548104 163.467992 
L 159.587392 165.053728 
L 161.626679 168.174904 
L 163.665966 168.329302 
L 165.705254 250.59584 
L 167.744541 162.274213 
L 169.783828 167.956729 
L 171.823116 166.406778 
L 173.862403 166.691002 
L 175.90169 172.2083 
L 177.940978 170.470267 
L 179.980265 184.603111 
L 182.019552 169.287179 
L 184.05884 172.556237 
L 186.098127 187.855596 
L 188.137414 173.18683 
L 190.176702 174.118016 
L 192.215989 197.924122 
L 194.255276 193.116281 
L 196.294564 189.895123 
L 198.333851 188.260829 
L 200.373138 171.548431 
L 202.412426 164.332971 
L 204.451713 167.205618 
L 206.491 166.244276 
L 208.530288 174.379732 
L 210.569575 165.804097 
L 212.608862 163.337552 
L 214.64815 168.228994 
L 216.687437 161.064932 
L 218.726725 167.200683 
L 220.766012 166.342933 
L 222.805299 169.614141 
L 224.844587 162.232775 
L 226.883874 177.919074 
L 228.923161 186.635182 
L 230.962449 166.193521 
L 233.001736 170.915873 
L 235.041023 165.895059 
L 237.080311 166.301683 
L 239.119598 168.474972 
L 241.158885 164.540733 
L 243.198173 170.502421 
L 245.23746 162.049779 
L 247.276747 163.916543 
L 249.316035 164.697789 
L 251.355322 169.402846 
L 253.394609 165.423749 
L 255.433897 162.747924 
L 257.473184 169.475405 
L 259.512471 163.910128 
L 261.551759 162.024578 
L 263.591046 164.487192 
L 265.630333 167.722869 
L 267.669621 163.311719 
L 269.708908 164.684752 
L 271.748196 164.944828 
L 273.787483 166.139446 
L 275.82677 162.058128 
L 277.866058 250.950907 
L 279.905345 167.85096 
L 281.944632 163.997554 
L 283.98392 162.877826 
L 286.023207 169.653758 
L 288.062494 171.238536 
L 290.101782 169.594011 
L 292.141069 171.515926 
L 294.180356 166.943838 
L 296.219644 167.455064 
L 298.258931 174.186428 
L 302.337506 164.269615 
L 304.376793 170.177178 
L 306.41608 163.616619 
L 308.455368 167.157033 
L 310.494655 167.669858 
L 312.533942 163.316573 
L 314.57323 250.895608 
L 316.612517 160.25143 
L 318.651804 162.396322 
L 320.691092 161.845164 
L 322.730379 165.532358 
L 324.769667 164.811771 
L 326.808954 164.209102 
L 328.848241 166.685106 
L 330.887529 167.076522 
L 332.926816 163.415242 
L 334.966103 164.865233 
L 337.005391 160.958005 
L 339.044678 163.05123 
L 341.083965 162.399158 
L 343.123253 162.637301 
L 345.16254 164.955559 
L 347.201827 163.339241 
L 349.241115 251.563479 
L 351.280402 162.827965 
L 353.319689 163.655475 
L 355.358977 170.347693 
L 357.398264 167.449494 
L 359.437551 171.183704 
L 361.476839 166.350192 
L 363.516126 166.064601 
L 365.555413 170.003229 
L 367.594701 166.903296 
L 369.633988 170.106869 
L 371.673275 165.301917 
L 373.712563 171.491081 
L 375.75185 175.601199 
L 377.791138 173.754216 
L 379.830425 165.989259 
L 381.869712 178.259233 
L 383.909 171.185624 
L 385.948287 169.483368 
L 387.987574 168.187007 
L 390.026862 171.868664 
L 392.066149 171.620157 
L 394.105436 171.584258 
L 396.144724 249.21206 
L 398.184011 164.639996 
L 400.223298 170.993808 
L 402.262586 171.006771 
L 404.301873 170.133786 
L 406.34116 167.157222 
L 408.380448 172.327387 
L 410.419735 166.236562 
L 412.459022 171.386717 
L 414.49831 164.84327 
L 416.537597 166.460448 
L 418.576884 160.521295 
L 420.616172 168.313432 
L 422.655459 167.115818 
L 424.694746 171.574564 
L 426.734034 167.408846 
L 428.773321 171.977439 
L 430.812608 175.586021 
L 432.851896 171.670305 
L 434.891183 173.591347 
L 436.930471 178.191613 
L 438.969758 170.471066 
L 441.009045 178.172035 
L 443.048333 171.643968 
L 445.08762 174.118448 
L 447.126907 175.119445 
L 449.166195 163.342096 
L 451.205482 169.169517 
L 453.244769 173.092269 
L 455.284057 178.573532 
L 457.323344 180.004845 
L 459.362631 173.349213 
L 461.401919 172.821895 
L 463.441206 176.725717 
L 465.480493 174.672071 
L 469.559068 175.065945 
L 471.598355 170.347962 
L 473.637643 175.571493 
L 475.67693 177.795991 
L 477.716217 179.443436 
L 479.755505 173.227237 
L 481.794792 176.516332 
L 483.834079 170.619849 
L 485.873367 173.781027 
L 487.912654 177.694365 
L 489.951942 172.715316 
L 491.991229 168.956847 
L 494.030516 168.427013 
L 496.069804 173.71129 
L 498.109091 176.219066 
L 498.109091 176.219066 
" clip-path="url(#pd77a024e83)" style="fill: none; stroke: #ff0000; stroke-opacity: 0.9; stroke-width: 1.5; stroke-linecap: square"/>
   </g>
   <g id="line2d_39">
    <path d="M 92.290909 170.31638 
L 94.330196 168.556221 
L 96.369484 165.167354 
L 98.408771 163.081702 
L 100.448058 166.394065 
L 102.487346 164.494155 
L 104.526633 167.125777 
L 106.565921 162.937816 
L 108.605208 164.002363 
L 110.644495 174.098594 
L 112.683783 248.149702 
L 114.72307 161.314731 
L 116.762357 162.540886 
L 118.801645 169.024559 
L 120.840932 160.492417 
L 122.880219 167.231057 
L 124.919507 165.139816 
L 126.958794 179.804078 
L 128.998081 162.614228 
L 131.037369 165.535326 
L 133.076656 172.978936 
L 135.115943 166.556605 
L 139.194518 165.153271 
L 141.233805 166.783895 
L 143.273093 164.116739 
L 145.31238 161.039841 
L 147.351667 161.117027 
L 149.390955 163.736008 
L 151.430242 162.10644 
L 153.469529 162.97387 
L 155.508817 167.120623 
L 157.548104 163.420316 
L 159.587392 164.774472 
L 161.626679 167.905804 
L 163.665966 167.289355 
L 165.705254 248.327874 
L 167.744541 163.108361 
L 169.783828 167.245822 
L 171.823116 165.700502 
L 173.862403 166.118842 
L 175.90169 171.410498 
L 177.940978 170.505848 
L 179.980265 183.237536 
L 182.019552 168.4116 
L 184.05884 172.373241 
L 186.098127 188.286522 
L 188.137414 171.674762 
L 190.176702 173.815163 
L 192.215989 195.673371 
L 198.333851 186.72202 
L 200.373138 172.085048 
L 202.412426 164.142186 
L 204.451713 166.210437 
L 206.491 166.405066 
L 208.530288 172.947089 
L 210.569575 165.536921 
L 212.608862 162.923748 
L 214.64815 166.733501 
L 216.687437 160.454606 
L 218.726725 165.222671 
L 220.766012 165.98891 
L 222.805299 169.408697 
L 224.844587 162.005985 
L 226.883874 176.941891 
L 228.923161 186.03379 
L 230.962449 165.173746 
L 233.001736 169.878193 
L 235.041023 166.533586 
L 237.080311 165.56386 
L 239.119598 167.783226 
L 241.158885 164.922398 
L 243.198173 170.0789 
L 245.23746 161.321422 
L 247.276747 163.309647 
L 249.316035 164.501384 
L 251.355322 168.623395 
L 253.394609 164.898208 
L 255.433897 162.329686 
L 257.473184 168.599167 
L 259.512471 162.993754 
L 261.551759 161.722627 
L 263.591046 163.804269 
L 265.630333 167.199615 
L 267.669621 163.133225 
L 269.708908 164.230285 
L 271.748196 164.185196 
L 273.787483 165.94281 
L 275.82677 161.800291 
L 277.866058 248.89903 
L 279.905345 168.460276 
L 281.944632 163.785755 
L 283.98392 162.114858 
L 286.023207 169.468555 
L 288.062494 170.305906 
L 290.101782 168.516952 
L 292.141069 170.621829 
L 294.180356 165.908487 
L 296.219644 167.289283 
L 298.258931 174.148799 
L 300.298218 167.891115 
L 302.337506 165.424317 
L 304.376793 170.094089 
L 306.41608 162.985696 
L 308.455368 166.498914 
L 310.494655 166.16999 
L 312.533942 162.515579 
L 314.57323 248.699694 
L 316.612517 160.805208 
L 318.651804 161.548705 
L 320.691092 161.995533 
L 322.730379 164.0672 
L 324.769667 163.724004 
L 326.808954 163.86844 
L 328.848241 165.108912 
L 330.887529 165.835391 
L 332.926816 163.512107 
L 334.966103 165.19093 
L 337.005391 160.76597 
L 339.044678 162.238057 
L 341.083965 161.533345 
L 343.123253 162.435064 
L 345.16254 163.888695 
L 347.201827 163.089136 
L 349.241115 249.382132 
L 351.280402 163.564918 
L 353.319689 161.802635 
L 355.358977 169.903262 
L 357.398264 167.017661 
L 359.437551 171.74356 
L 361.476839 167.481802 
L 363.516126 166.625014 
L 365.555413 169.566193 
L 367.594701 166.652199 
L 369.633988 169.446455 
L 371.673275 164.597137 
L 373.712563 170.726875 
L 375.75185 175.847002 
L 377.791138 173.690477 
L 379.830425 165.261107 
L 381.869712 177.451248 
L 383.909 171.138838 
L 385.948287 169.172678 
L 387.987574 167.374061 
L 390.026862 170.75584 
L 394.105436 172.276792 
L 396.144724 248.945047 
L 398.184011 165.477154 
L 400.223298 169.864364 
L 402.262586 170.698864 
L 404.301873 170.323605 
L 406.34116 167.343869 
L 408.380448 172.202147 
L 410.419735 166.147595 
L 412.459022 170.445759 
L 414.49831 164.68705 
L 416.537597 165.612577 
L 418.576884 160.60145 
L 420.616172 168.043556 
L 422.655459 166.773955 
L 424.694746 170.788955 
L 426.734034 167.091965 
L 428.773321 171.331862 
L 430.812608 174.581215 
L 432.851896 171.511139 
L 434.891183 173.128054 
L 436.930471 177.630067 
L 438.969758 170.730552 
L 441.009045 177.548305 
L 443.048333 171.578388 
L 445.08762 173.737848 
L 447.126907 175.062268 
L 449.166195 163.160649 
L 451.205482 168.597081 
L 453.244769 172.042026 
L 455.284057 177.79548 
L 457.323344 179.001317 
L 459.362631 174.049297 
L 461.401919 172.694379 
L 463.441206 175.525687 
L 465.480493 174.692501 
L 467.519781 175.299184 
L 469.559068 175.334447 
L 471.598355 168.896028 
L 473.637643 174.386546 
L 475.67693 177.67683 
L 477.716217 177.94537 
L 479.755505 172.975456 
L 481.794792 176.060597 
L 483.834079 169.816529 
L 487.912654 177.020589 
L 489.951942 171.841388 
L 491.991229 168.541684 
L 494.030516 167.763096 
L 496.069804 173.830236 
L 498.109091 175.341736 
L 498.109091 175.341736 
" clip-path="url(#pd77a024e83)" style="fill: none; stroke: #008000; stroke-opacity: 0.9; stroke-width: 1.5; stroke-linecap: square"/>
   </g>
   <g id="line2d_40">
    <path d="M 438.969758 256.32 
L 438.969758 155.52 
" clip-path="url(#pd77a024e83)" style="fill: none; stroke-dasharray: 5.55,2.4; stroke-dashoffset: 0; stroke: #0000ff; stroke-width: 1.5"/>
   </g>
   <g id="line2d_41">
    <path d="M 153.469529 256.32 
L 153.469529 155.52 
" clip-path="url(#pd77a024e83)" style="fill: none; stroke-dasharray: 5.55,2.4; stroke-dashoffset: 0; stroke: #000000; stroke-width: 1.5"/>
   </g>
   <g id="patch_8">
    <path d="M 72 256.32 
L 72 155.52 
" style="fill: none; stroke: #000000; stroke-width: 0.8; stroke-linejoin: miter; stroke-linecap: square"/>
   </g>
   <g id="patch_9">
    <path d="M 518.4 256.32 
L 518.4 155.52 
" style="fill: none; stroke: #000000; stroke-width: 0.8; stroke-linejoin: miter; stroke-linecap: square"/>
   </g>
   <g id="patch_10">
    <path d="M 72 256.32 
L 518.4 256.32 
" style="fill: none; stroke: #000000; stroke-width: 0.8; stroke-linejoin: miter; stroke-linecap: square"/>
   </g>
   <g id="patch_11">
    <path d="M 72 155.52 
L 518.4 155.52 
" style="fill: none; stroke: #000000; stroke-width: 0.8; stroke-linejoin: miter; stroke-linecap: square"/>
   </g>
  </g>
 </g>
 <defs>
  <clipPath id="p1fa9592055">
   <rect x="72" y="34.56" width="446.4" height="100.8"/>
  </clipPath>
  <clipPath id="pd77a024e83">
   <rect x="72" y="155.52" width="446.4" height="100.8"/>
  </clipPath>
 </defs>
</svg>
