<?xml version="1.0" encoding="utf-8" standalone="no"?>
<!DOCTYPE svg PUBLIC "-//W3C//DTD SVG 1.1//EN"
  "http://www.w3.org/Graphics/SVG/1.1/DTD/svg11.dtd">
<svg xmlns:xlink="http://www.w3.org/1999/xlink" width="576pt" height="288pt" viewBox="0 0 576 288" xmlns="http://www.w3.org/2000/svg" version="1.1">
 <metadata>
  <rdf:RDF xmlns:dc="http://purl.org/dc/elements/1.1/" xmlns:cc="http://creativecommons.org/ns#" xmlns:rdf="http://www.w3.org/1999/02/22-rdf-syntax-ns#">
   <cc:Work>
    <dc:type rdf:resource="http://purl.org/dc/dcmitype/StillImage"/>
    <dc:date>2025-05-07T09:54:53.785628</dc:date>
    <dc:format>image/svg+xml</dc:format>
    <dc:creator>
     <cc:Agent>
      <dc:title>Matplotlib v3.10.0, https://matplotlib.org/</dc:title>
     </cc:Agent>
    </dc:creator>
   </cc:Work>
  </rdf:RDF>
 </metadata>
 <defs>
  <style type="text/css">*{stroke-linejoin: round; stroke-linecap: butt}</style>
 </defs>
 <g id="figure_1">
  <g id="patch_1">
   <path d="M 0 288 
L 576 288 
L 576 0 
L 0 0 
z
" style="fill: #ffffff"/>
  </g>
  <g id="axes_1">
   <g id="patch_2">
    <path d="M 72 135.36 
L 518.4 135.36 
L 518.4 34.56 
L 72 34.56 
z
" style="fill: #ffffff"/>
   </g>
   <g id="matplotlib.axis_1">
    <g id="xtick_1">
     <g id="line2d_1">
      <defs>
       <path id="m389209f834" d="M 0 0 
L 0 3.5 
" style="stroke: #000000; stroke-width: 0.8"/>
      </defs>
      <g>
       <use xlink:href="#m389209f834" x="92.290909" y="135.36" style="stroke: #000000; stroke-width: 0.8"/>
      </g>
     </g>
    </g>
    <g id="xtick_2">
     <g id="line2d_2">
      <g>
       <use xlink:href="#m389209f834" x="143.273093" y="135.36" style="stroke: #000000; stroke-width: 0.8"/>
      </g>
     </g>
    </g>
    <g id="xtick_3">
     <g id="line2d_3">
      <g>
       <use xlink:href="#m389209f834" x="194.255276" y="135.36" style="stroke: #000000; stroke-width: 0.8"/>
      </g>
     </g>
    </g>
    <g id="xtick_4">
     <g id="line2d_4">
      <g>
       <use xlink:href="#m389209f834" x="245.23746" y="135.36" style="stroke: #000000; stroke-width: 0.8"/>
      </g>
     </g>
    </g>
    <g id="xtick_5">
     <g id="line2d_5">
      <g>
       <use xlink:href="#m389209f834" x="296.219644" y="135.36" style="stroke: #000000; stroke-width: 0.8"/>
      </g>
     </g>
    </g>
    <g id="xtick_6">
     <g id="line2d_6">
      <g>
       <use xlink:href="#m389209f834" x="347.201827" y="135.36" style="stroke: #000000; stroke-width: 0.8"/>
      </g>
     </g>
    </g>
    <g id="xtick_7">
     <g id="line2d_7">
      <g>
       <use xlink:href="#m389209f834" x="398.184011" y="135.36" style="stroke: #000000; stroke-width: 0.8"/>
      </g>
     </g>
    </g>
    <g id="xtick_8">
     <g id="line2d_8">
      <g>
       <use xlink:href="#m389209f834" x="449.166195" y="135.36" style="stroke: #000000; stroke-width: 0.8"/>
      </g>
     </g>
    </g>
    <g id="xtick_9">
     <g id="line2d_9">
      <g>
       <use xlink:href="#m389209f834" x="500.148378" y="135.36" style="stroke: #000000; stroke-width: 0.8"/>
      </g>
     </g>
    </g>
   </g>
   <g id="matplotlib.axis_2">
    <g id="ytick_1">
     <g id="line2d_10">
      <defs>
       <path id="m271d90fa9e" d="M 0 0 
L -3.5 0 
" style="stroke: #000000; stroke-width: 0.8"/>
      </defs>
      <g>
       <use xlink:href="#m271d90fa9e" x="72" y="117.082163" style="stroke: #000000; stroke-width: 0.8"/>
      </g>
     </g>
     <g id="text_1">
      <!-- −150 -->
      <g transform="translate(37.532812 120.881382) scale(0.1 -0.1)">
       <defs>
        <path id="DejaVuSans-2212" d="M 678 2272 
L 4684 2272 
L 4684 1741 
L 678 1741 
L 678 2272 
z
" transform="scale(0.015625)"/>
        <path id="DejaVuSans-31" d="M 794 531 
L 1825 531 
L 1825 4091 
L 703 3866 
L 703 4441 
L 1819 4666 
L 2450 4666 
L 2450 531 
L 3481 531 
L 3481 0 
L 794 0 
L 794 531 
z
" transform="scale(0.015625)"/>
        <path id="DejaVuSans-35" d="M 691 4666 
L 3169 4666 
L 3169 4134 
L 1269 4134 
L 1269 2991 
Q 1406 3038 1543 3061 
Q 1681 3084 1819 3084 
Q 2600 3084 3056 2656 
Q 3513 2228 3513 1497 
Q 3513 744 3044 326 
Q 2575 -91 1722 -91 
Q 1428 -91 1123 -41 
Q 819 9 494 109 
L 494 744 
Q 775 591 1075 516 
Q 1375 441 1709 441 
Q 2250 441 2565 725 
Q 2881 1009 2881 1497 
Q 2881 1984 2565 2268 
Q 2250 2553 1709 2553 
Q 1456 2553 1204 2497 
Q 953 2441 691 2322 
L 691 4666 
z
" transform="scale(0.015625)"/>
        <path id="DejaVuSans-30" d="M 2034 4250 
Q 1547 4250 1301 3770 
Q 1056 3291 1056 2328 
Q 1056 1369 1301 889 
Q 1547 409 2034 409 
Q 2525 409 2770 889 
Q 3016 1369 3016 2328 
Q 3016 3291 2770 3770 
Q 2525 4250 2034 4250 
z
M 2034 4750 
Q 2819 4750 3233 4129 
Q 3647 3509 3647 2328 
Q 3647 1150 3233 529 
Q 2819 -91 2034 -91 
Q 1250 -91 836 529 
Q 422 1150 422 2328 
Q 422 3509 836 4129 
Q 1250 4750 2034 4750 
z
" transform="scale(0.015625)"/>
       </defs>
       <use xlink:href="#DejaVuSans-2212"/>
       <use xlink:href="#DejaVuSans-31" transform="translate(83.789062 0)"/>
       <use xlink:href="#DejaVuSans-35" transform="translate(147.412109 0)"/>
       <use xlink:href="#DejaVuSans-30" transform="translate(211.035156 0)"/>
      </g>
     </g>
    </g>
    <g id="ytick_2">
     <g id="line2d_11">
      <g>
       <use xlink:href="#m271d90fa9e" x="72" y="77.878897" style="stroke: #000000; stroke-width: 0.8"/>
      </g>
     </g>
     <g id="text_2">
      <!-- −100 -->
      <g transform="translate(37.532812 81.678115) scale(0.1 -0.1)">
       <use xlink:href="#DejaVuSans-2212"/>
       <use xlink:href="#DejaVuSans-31" transform="translate(83.789062 0)"/>
       <use xlink:href="#DejaVuSans-30" transform="translate(147.412109 0)"/>
       <use xlink:href="#DejaVuSans-30" transform="translate(211.035156 0)"/>
      </g>
     </g>
    </g>
    <g id="ytick_3">
     <g id="line2d_12">
      <g>
       <use xlink:href="#m271d90fa9e" x="72" y="38.67563" style="stroke: #000000; stroke-width: 0.8"/>
      </g>
     </g>
     <g id="text_3">
      <!-- −50 -->
      <g transform="translate(43.895313 42.474849) scale(0.1 -0.1)">
       <use xlink:href="#DejaVuSans-2212"/>
       <use xlink:href="#DejaVuSans-35" transform="translate(83.789062 0)"/>
       <use xlink:href="#DejaVuSans-30" transform="translate(147.412109 0)"/>
      </g>
     </g>
    </g>
   </g>
   <g id="line2d_13">
    <path d="M 92.290909 62.331556 
L 94.330196 106.429613 
L 96.369484 130.343067 
L 98.408771 105.21419 
L 100.448058 89.038883 
L 102.487346 107.88447 
L 104.526633 98.425132 
L 106.565921 68.355086 
L 108.605208 116.179882 
L 110.644495 45.18409 
L 112.683783 82.409687 
L 114.72307 123.809313 
L 116.762357 123.132241 
L 118.801645 111.860859 
L 120.840932 68.808756 
L 122.880219 117.474064 
L 124.919507 69.719113 
L 126.958794 66.298015 
L 128.998081 88.883669 
L 131.037369 64.925805 
L 133.076656 52.570112 
L 135.115943 53.792116 
L 137.155231 109.532447 
L 139.194518 108.143201 
L 141.233805 126.497862 
L 143.273093 122.480448 
L 145.31238 121.254413 
L 147.351667 117.689151 
L 149.390955 118.396767 
L 151.430242 110.450281 
L 153.469529 107.84195 
L 155.508817 113.083281 
L 157.548104 129.105798 
L 159.587392 109.476444 
L 161.626679 122.489134 
L 163.665966 98.815388 
L 165.705254 94.685108 
L 167.744541 112.189387 
L 169.783828 48.075214 
L 171.823116 54.991962 
L 173.862403 75.189929 
L 175.90169 48.77249 
L 177.940978 42.505079 
L 179.980265 71.011757 
L 182.019552 67.611782 
L 184.05884 70.786489 
L 186.098127 65.072578 
L 188.137414 57.946869 
L 190.176702 67.63151 
L 192.215989 61.144768 
L 194.255276 48.68295 
L 196.294564 69.096033 
L 198.333851 75.523656 
L 200.373138 96.819746 
L 202.412426 71.49103 
L 204.451713 54.037501 
L 206.491 45.013996 
L 208.530288 76.261361 
L 210.569575 57.379691 
L 212.608862 111.286533 
L 214.64815 109.454586 
L 216.687437 93.511408 
L 218.726725 92.826799 
L 220.766012 110.303903 
L 222.805299 122.621072 
L 224.844587 122.159361 
L 226.883874 67.922884 
L 228.923161 60.060726 
L 230.962449 79.832647 
L 233.001736 73.912365 
L 235.041023 41.854788 
L 237.080311 60.973038 
L 239.119598 53.064197 
L 241.158885 75.111279 
L 243.198173 51.278886 
L 245.23746 84.46327 
L 247.276747 50.360903 
L 249.316035 99.505454 
L 251.355322 75.245483 
L 253.394609 112.214452 
L 257.473184 69.699384 
L 259.512471 65.060124 
L 261.551759 58.284101 
L 263.591046 69.271813 
L 265.630333 67.205201 
L 267.669621 59.658159 
L 269.708908 50.084381 
L 271.748196 41.962029 
L 273.787483 60.052764 
L 275.82677 49.598106 
L 277.866058 66.777253 
L 279.905345 57.074307 
L 281.944632 78.358242 
L 283.98392 65.18246 
L 288.062494 54.598015 
L 290.101782 68.931446 
L 292.141069 75.083229 
L 294.180356 52.852687 
L 296.219644 42.901341 
L 298.258931 81.017144 
L 300.298218 57.414847 
L 302.337506 63.338293 
L 304.376793 59.546758 
L 306.41608 44.748108 
L 308.455368 47.159986 
L 310.494655 50.791471 
L 312.533942 57.617102 
L 314.57323 72.972118 
L 316.612517 40.439738 
L 318.651804 56.366296 
L 320.691092 45.946982 
L 322.730379 42.928263 
L 324.769667 55.90687 
L 326.808954 63.333196 
L 328.848241 46.814316 
L 330.887529 45.474708 
L 332.926816 49.778955 
L 334.966103 44.497192 
L 337.005391 55.987166 
L 339.044678 47.005589 
L 341.083965 49.767458 
L 343.123253 51.986556 
L 345.16254 48.321541 
L 347.201827 54.547851 
L 349.241115 53.895597 
L 351.280402 42.253227 
L 353.319689 52.239287 
L 355.358977 55.553344 
L 357.398264 64.391031 
L 359.437551 83.098071 
L 361.476839 49.57754 
L 363.516126 56.746903 
L 365.555413 45.553011 
L 367.594701 69.850404 
L 369.633988 53.355374 
L 371.673275 59.82676 
L 373.712563 52.99373 
L 375.75185 69.450434 
L 377.791138 51.799877 
L 379.830425 91.495631 
L 381.869712 66.896826 
L 383.909 70.582289 
L 385.948287 100.641449 
L 387.987574 73.176497 
L 390.026862 78.354318 
L 392.066149 62.180996 
L 394.105436 64.111106 
L 396.144724 99.130105 
L 398.184011 83.791438 
L 400.223298 85.200963 
L 402.262586 56.190857 
L 404.301873 81.526046 
L 406.34116 72.784368 
L 408.380448 67.884558 
L 410.419735 49.934312 
L 412.459022 69.170909 
L 414.49831 107.526773 
L 416.537597 79.256131 
L 418.576884 115.997242 
L 420.616172 100.531752 
L 422.655459 83.921808 
L 424.694746 79.979468 
L 426.734034 66.00551 
L 428.773321 67.347595 
L 430.812608 63.755803 
L 432.851896 61.255536 
L 434.891183 68.869306 
L 436.930471 59.29496 
L 438.969758 61.329544 
L 441.009045 71.913487 
L 443.048333 47.291367 
L 445.08762 61.839607 
L 447.126907 70.220364 
L 449.166195 66.69667 
L 451.205482 56.230057 
L 453.244769 64.063155 
L 455.284057 62.602322 
L 457.323344 55.965206 
L 459.362631 52.538396 
L 461.401919 59.161257 
L 463.441206 60.519996 
L 465.480493 62.744071 
L 467.519781 60.906041 
L 469.559068 53.757235 
L 471.598355 67.57976 
L 473.637643 68.186694 
L 475.67693 72.114247 
L 477.716217 50.316606 
L 479.755505 65.565909 
L 481.794792 60.614941 
L 483.834079 62.6621 
L 485.873367 68.092861 
L 487.912654 66.949335 
L 489.951942 46.423549 
L 491.991229 52.606644 
L 494.030516 43.565666 
L 496.069804 62.826239 
L 498.109091 58.500701 
L 498.109091 58.500701 
" clip-path="url(#pf2750f7249)" style="fill: none; stroke: #ff0000; stroke-opacity: 0.9; stroke-width: 1.5; stroke-linecap: square"/>
   </g>
   <g id="line2d_14">
    <path d="M 92.290909 62.037268 
L 94.330196 105.391004 
L 96.369484 130.673342 
L 98.408771 105.068494 
L 100.448058 88.958019 
L 102.487346 107.740448 
L 104.526633 98.957376 
L 106.565921 68.932062 
L 108.605208 115.856654 
L 110.644495 45.454435 
L 112.683783 82.031382 
L 114.72307 124.634929 
L 116.762357 122.592466 
L 118.801645 112.211652 
L 120.840932 68.538726 
L 122.880219 116.773758 
L 124.919507 70.161232 
L 126.958794 67.074621 
L 128.998081 88.362576 
L 131.037369 64.407547 
L 133.076656 53.119315 
L 135.115943 53.340527 
L 137.155231 108.828432 
L 139.194518 108.951577 
L 141.233805 126.809294 
L 143.273093 122.557819 
L 145.31238 121.905978 
L 147.351667 117.48391 
L 149.390955 118.521383 
L 151.430242 110.53477 
L 153.469529 107.761792 
L 155.508817 113.027817 
L 157.548104 128.787642 
L 159.587392 109.842779 
L 161.626679 122.664118 
L 163.665966 98.543078 
L 165.705254 94.85256 
L 167.744541 112.034168 
L 169.783828 48.382644 
L 171.823116 55.44202 
L 173.862403 75.705298 
L 175.90169 48.060564 
L 177.940978 42.459162 
L 179.980265 70.195527 
L 182.019552 66.910022 
L 184.05884 70.907958 
L 186.098127 64.778595 
L 188.137414 57.041071 
L 190.176702 67.335559 
L 192.215989 60.511454 
L 194.255276 48.810416 
L 196.294564 69.88172 
L 198.333851 75.809874 
L 200.373138 97.075074 
L 202.412426 71.408162 
L 204.451713 53.691344 
L 206.491 44.950875 
L 208.530288 77.09126 
L 210.569575 57.507674 
L 212.608862 111.218303 
L 214.64815 109.442012 
L 216.687437 94.348647 
L 218.726725 93.248083 
L 220.766012 109.819365 
L 222.805299 122.373874 
L 224.844587 121.642198 
L 226.883874 68.259943 
L 228.923161 59.859541 
L 230.962449 80.475299 
L 233.001736 73.322988 
L 235.041023 41.187945 
L 237.080311 61.086893 
L 239.119598 53.022347 
L 241.158885 75.919451 
L 243.198173 50.941905 
L 245.23746 85.042747 
L 247.276747 50.566281 
L 249.316035 99.455235 
L 251.355322 75.489714 
L 253.394609 113.074033 
L 255.433897 90.583331 
L 257.473184 69.624825 
L 259.512471 64.638552 
L 261.551759 58.239344 
L 263.591046 69.021439 
L 265.630333 67.694811 
L 267.669621 59.910717 
L 269.708908 50.058043 
L 271.748196 41.7345 
L 273.787483 60.263795 
L 275.82677 49.77944 
L 277.866058 66.408376 
L 279.905345 56.333048 
L 281.944632 79.055862 
L 283.98392 65.466483 
L 286.023207 59.698161 
L 288.062494 54.375959 
L 290.101782 68.866285 
L 292.141069 74.998902 
L 294.180356 52.962546 
L 296.219644 42.916188 
L 298.258931 81.069444 
L 300.298218 56.899562 
L 302.337506 62.711391 
L 304.376793 59.310698 
L 306.41608 44.673019 
L 308.455368 47.065752 
L 310.494655 51.176918 
L 312.533942 58.368991 
L 314.57323 72.640927 
L 316.612517 39.952823 
L 318.651804 56.81222 
L 320.691092 45.455706 
L 322.730379 42.804239 
L 324.769667 55.750784 
L 326.808954 62.598769 
L 328.848241 46.644219 
L 330.887529 45.290667 
L 332.926816 49.300271 
L 334.966103 44.595541 
L 337.005391 55.961677 
L 339.044678 46.744878 
L 343.123253 52.317423 
L 345.16254 48.479037 
L 347.201827 53.638069 
L 349.241115 53.833266 
L 351.280402 42.192912 
L 353.319689 52.832205 
L 355.358977 54.671019 
L 357.398264 63.969789 
L 359.437551 83.062418 
L 361.476839 49.633316 
L 363.516126 56.516622 
L 365.555413 45.371564 
L 367.594701 69.964432 
L 369.633988 53.525997 
L 371.673275 59.90845 
L 373.712563 53.443141 
L 375.75185 68.838116 
L 377.791138 51.675854 
L 379.830425 91.982621 
L 381.869712 67.183367 
L 383.909 70.205822 
L 385.948287 101.454658 
L 387.987574 73.705779 
L 390.026862 78.384532 
L 392.066149 62.724988 
L 394.105436 63.992544 
L 396.144724 98.629296 
L 398.184011 84.487425 
L 400.223298 84.919381 
L 402.262586 56.291707 
L 404.301873 81.351032 
L 406.34116 73.309236 
L 408.380448 68.734844 
L 410.419735 50.538297 
L 412.459022 69.060883 
L 414.49831 107.685486 
L 416.537597 78.72594 
L 418.576884 115.724453 
L 420.616172 100.66412 
L 422.655459 84.330525 
L 424.694746 79.973378 
L 426.734034 66.294845 
L 428.773321 67.252344 
L 430.812608 63.160737 
L 432.851896 61.68221 
L 434.891183 69.536316 
L 436.930471 59.263967 
L 438.969758 61.512849 
L 441.009045 71.976136 
L 443.048333 46.515895 
L 445.08762 62.093917 
L 447.126907 69.724526 
L 449.166195 66.988331 
L 451.205482 56.670842 
L 453.244769 63.515215 
L 455.284057 62.982475 
L 457.323344 55.87114 
L 459.362631 53.08161 
L 461.401919 58.130317 
L 465.480493 63.388948 
L 467.519781 60.794788 
L 469.559068 53.915828 
L 471.598355 67.799537 
L 473.637643 68.170017 
L 475.67693 72.0312 
L 477.716217 50.804883 
L 479.755505 65.939559 
L 481.794792 61.154519 
L 483.834079 62.73886 
L 485.873367 68.55633 
L 487.912654 66.979239 
L 489.951942 46.529477 
L 491.991229 53.466548 
L 494.030516 44.058832 
L 496.069804 63.010297 
L 498.109091 58.275696 
L 498.109091 58.275696 
" clip-path="url(#pf2750f7249)" style="fill: none; stroke: #ff0000; stroke-opacity: 0.9; stroke-width: 1.5; stroke-linecap: square"/>
   </g>
   <g id="line2d_15">
    <path d="M 92.290909 61.722755 
L 94.330196 105.944442 
L 96.369484 130.778182 
L 98.408771 104.800515 
L 100.448058 89.729289 
L 102.487346 108.029281 
L 104.526633 99.241345 
L 106.565921 68.112913 
L 108.605208 116.548549 
L 110.644495 45.389309 
L 112.683783 82.231269 
L 114.72307 124.293492 
L 116.762357 123.24049 
L 118.801645 112.718837 
L 120.840932 68.655972 
L 122.880219 117.29652 
L 124.919507 70.093241 
L 126.958794 67.435045 
L 128.998081 88.305448 
L 131.037369 64.585929 
L 133.076656 52.521611 
L 135.115943 53.483759 
L 137.155231 109.117791 
L 139.194518 108.732985 
L 141.233805 126.671745 
L 143.273093 122.330158 
L 145.31238 121.943042 
L 147.351667 117.570517 
L 149.390955 118.428519 
L 151.430242 110.582231 
L 153.469529 107.495751 
L 155.508817 113.446409 
L 157.548104 128.915082 
L 159.587392 110.158183 
L 161.626679 122.402252 
L 163.665966 98.352201 
L 165.705254 94.639884 
L 167.744541 112.027085 
L 169.783828 47.672034 
L 171.823116 54.803286 
L 173.862403 75.091532 
L 175.90169 48.190504 
L 177.940978 42.863347 
L 179.980265 70.615758 
L 182.019552 67.777637 
L 184.05884 71.507379 
L 186.098127 65.220105 
L 188.137414 56.764029 
L 190.176702 67.341332 
L 192.215989 60.486455 
L 194.255276 48.52971 
L 196.294564 69.420793 
L 198.333851 75.726521 
L 200.373138 97.231914 
L 202.412426 71.305841 
L 204.451713 53.465274 
L 206.491 44.996107 
L 208.530288 76.873398 
L 210.569575 57.079517 
L 212.608862 111.497707 
L 214.64815 108.896543 
L 216.687437 94.065324 
L 218.726725 92.885308 
L 220.766012 109.986477 
L 222.805299 122.84238 
L 224.844587 122.28302 
L 226.883874 68.056916 
L 228.923161 59.895726 
L 230.962449 80.558652 
L 233.001736 73.396542 
L 235.041023 41.675306 
L 237.080311 60.593574 
L 239.119598 52.723346 
L 241.158885 75.336911 
L 243.198173 50.781601 
L 245.23746 84.731183 
L 247.276747 50.512934 
L 249.316035 99.320306 
L 251.355322 74.626992 
L 253.394609 112.934953 
L 257.473184 69.113584 
L 259.512471 65.222168 
L 261.551759 58.09741 
L 263.591046 69.029747 
L 265.630333 68.355421 
L 267.669621 60.485929 
L 269.708908 49.712628 
L 271.748196 41.986487 
L 273.787483 60.629501 
L 275.82677 49.311487 
L 277.866058 66.598955 
L 279.905345 57.097977 
L 281.944632 78.928572 
L 283.98392 65.231554 
L 286.023207 60.253769 
L 288.062494 54.246438 
L 290.101782 68.618531 
L 292.141069 75.399267 
L 294.180356 53.411682 
L 296.219644 43.324256 
L 298.258931 80.881892 
L 300.298218 56.678362 
L 302.337506 62.313407 
L 304.376793 59.8857 
L 306.41608 45.165103 
L 308.455368 46.673827 
L 310.494655 51.201007 
L 312.533942 58.280524 
L 314.57323 72.886713 
L 316.612517 40.467339 
L 318.651804 55.906147 
L 320.691092 45.234556 
L 322.730379 42.689847 
L 324.769667 55.849193 
L 326.808954 63.226855 
L 328.848241 46.74605 
L 330.887529 45.39702 
L 332.926816 49.789884 
L 334.966103 44.918333 
L 337.005391 55.939831 
L 339.044678 47.179176 
L 341.083965 49.466366 
L 343.123253 52.023883 
L 345.16254 48.747202 
L 347.201827 53.710396 
L 349.241115 53.900299 
L 351.280402 42.023054 
L 353.319689 52.902134 
L 355.358977 55.032579 
L 357.398264 64.166397 
L 359.437551 83.28902 
L 361.476839 49.911784 
L 363.516126 56.774151 
L 365.555413 44.989859 
L 367.594701 70.208232 
L 369.633988 53.709948 
L 371.673275 60.137929 
L 373.712563 53.28861 
L 375.75185 69.198043 
L 377.791138 51.552901 
L 379.830425 91.901649 
L 381.869712 67.074154 
L 383.909 70.03673 
L 385.948287 101.387206 
L 387.987574 73.530239 
L 390.026862 78.539824 
L 392.066149 62.569613 
L 394.105436 64.940509 
L 396.144724 98.878313 
L 398.184011 84.523909 
L 400.223298 85.759425 
L 402.262586 56.803253 
L 404.301873 81.21377 
L 406.34116 72.888083 
L 408.380448 68.393729 
L 410.419735 50.51626 
L 412.459022 69.430879 
L 414.49831 107.422006 
L 416.537597 79.054384 
L 418.576884 115.837344 
L 420.616172 100.863044 
L 422.655459 83.489092 
L 424.694746 79.928556 
L 426.734034 66.733937 
L 428.773321 67.26959 
L 430.812608 63.071761 
L 432.851896 61.171268 
L 434.891183 69.051456 
L 436.930471 58.930653 
L 438.969758 61.161021 
L 441.009045 71.939144 
L 443.048333 47.742059 
L 445.08762 61.788916 
L 447.126907 70.275732 
L 449.166195 67.211057 
L 451.205482 56.408062 
L 453.244769 64.611711 
L 455.284057 62.824444 
L 457.323344 56.205752 
L 459.362631 52.233963 
L 461.401919 58.865546 
L 463.441206 60.594477 
L 465.480493 62.70063 
L 467.519781 60.764352 
L 469.559068 53.734881 
L 471.598355 68.027138 
L 473.637643 68.317585 
L 475.67693 72.467624 
L 477.716217 50.368308 
L 479.755505 65.256176 
L 481.794792 59.905118 
L 483.834079 62.406336 
L 485.873367 68.204598 
L 487.912654 66.555131 
L 489.951942 46.755292 
L 491.991229 53.258161 
L 494.030516 44.289427 
L 496.069804 63.094762 
L 498.109091 58.76012 
L 498.109091 58.76012 
" clip-path="url(#pf2750f7249)" style="fill: none; stroke: #ff0000; stroke-opacity: 0.9; stroke-width: 1.5; stroke-linecap: square"/>
   </g>
   <g id="line2d_16">
    <path d="M 92.290909 61.922672 
L 94.330196 105.765761 
L 96.369484 130.671117 
L 98.408771 104.907077 
L 100.448058 89.078932 
L 102.487346 107.557628 
L 104.526633 98.557339 
L 106.565921 67.753667 
L 108.605208 116.374116 
L 110.644495 45.469034 
L 112.683783 82.344932 
L 114.72307 124.183077 
L 116.762357 122.702965 
L 118.801645 112.679345 
L 120.840932 68.614589 
L 122.880219 117.404913 
L 124.919507 69.917217 
L 126.958794 66.91111 
L 128.998081 88.76872 
L 131.037369 64.772458 
L 133.076656 53.162857 
L 135.115943 53.466746 
L 137.155231 108.53521 
L 139.194518 108.822714 
L 141.233805 127.308164 
L 143.273093 123.03708 
L 145.31238 121.758571 
L 147.351667 117.903783 
L 149.390955 117.895169 
L 151.430242 110.697826 
L 153.469529 107.656797 
L 155.508817 112.955627 
L 157.548104 128.526207 
L 159.587392 109.863991 
L 161.626679 122.220222 
L 163.665966 98.752865 
L 165.705254 94.896169 
L 167.744541 112.440797 
L 169.783828 47.760812 
L 171.823116 54.772407 
L 173.862403 75.502683 
L 175.90169 48.329228 
L 177.940978 42.538354 
L 179.980265 70.453803 
L 182.019552 67.392244 
L 184.05884 70.733578 
L 186.098127 65.303391 
L 188.137414 56.922993 
L 190.176702 67.153888 
L 192.215989 60.638235 
L 194.255276 49.000079 
L 196.294564 69.307986 
L 198.333851 75.554074 
L 200.373138 97.45641 
L 202.412426 71.120515 
L 204.451713 54.057648 
L 206.491 45.071584 
L 208.530288 77.20402 
L 210.569575 57.015426 
L 212.608862 111.039323 
L 214.64815 109.558373 
L 216.687437 93.838902 
L 218.726725 92.706933 
L 220.766012 109.943251 
L 222.805299 122.188984 
L 224.844587 122.289911 
L 226.883874 68.219194 
L 228.923161 59.622136 
L 230.962449 80.369706 
L 233.001736 73.309296 
L 235.041023 42.17688 
L 237.080311 61.088382 
L 239.119598 52.779779 
L 241.158885 74.930654 
L 243.198173 51.514604 
L 245.23746 84.772136 
L 247.276747 50.191608 
L 249.316035 99.699358 
L 251.355322 75.151782 
L 253.394609 111.875204 
L 257.473184 69.649483 
L 259.512471 65.047059 
L 261.551759 58.278262 
L 263.591046 69.276239 
L 265.630333 67.574831 
L 267.669621 60.272206 
L 269.708908 49.813633 
L 271.748196 41.8509 
L 273.787483 60.397803 
L 275.82677 49.89543 
L 277.866058 66.039541 
L 279.905345 56.887664 
L 281.944632 78.551955 
L 283.98392 65.01819 
L 286.023207 59.498358 
L 288.062494 54.49978 
L 290.101782 68.935185 
L 292.141069 75.320904 
L 294.180356 53.153268 
L 296.219644 43.176959 
L 298.258931 81.290961 
L 300.298218 57.25328 
L 302.337506 63.174029 
L 304.376793 59.727143 
L 306.41608 44.816867 
L 308.455368 47.053905 
L 310.494655 51.223098 
L 312.533942 57.86223 
L 314.57323 73.013686 
L 316.612517 40.280421 
L 318.651804 56.158668 
L 320.691092 45.58858 
L 322.730379 43.113512 
L 324.769667 55.373149 
L 326.808954 63.277534 
L 328.848241 47.19055 
L 330.887529 45.105424 
L 332.926816 49.983909 
L 334.966103 44.554068 
L 337.005391 56.046698 
L 339.044678 47.521145 
L 341.083965 49.838069 
L 343.123253 52.81256 
L 345.16254 48.551272 
L 347.201827 54.043806 
L 349.241115 53.903972 
L 351.280402 42.366756 
L 353.319689 52.736374 
L 355.358977 54.418449 
L 357.398264 64.22371 
L 359.437551 82.931324 
L 361.476839 49.728151 
L 363.516126 56.987395 
L 365.555413 44.914167 
L 367.594701 70.017648 
L 369.633988 54.083598 
L 371.673275 59.757376 
L 373.712563 52.825888 
L 375.75185 69.229251 
L 377.791138 51.752087 
L 379.830425 92.108768 
L 381.869712 66.981261 
L 383.909 69.670976 
L 385.948287 100.840899 
L 387.987574 73.54974 
L 390.026862 79.07586 
L 392.066149 62.237077 
L 394.105436 64.786432 
L 396.144724 99.118332 
L 398.184011 83.818997 
L 400.223298 85.774554 
L 402.262586 56.501637 
L 404.301873 81.35035 
L 406.34116 73.655495 
L 408.380448 68.369359 
L 410.419735 50.327655 
L 412.459022 69.43777 
L 414.49831 107.404514 
L 416.537597 79.460295 
L 418.576884 115.107595 
L 420.616172 101.333524 
L 422.655459 83.152363 
L 424.694746 79.832641 
L 426.734034 66.750782 
L 428.773321 66.794116 
L 430.812608 63.601157 
L 432.851896 61.099341 
L 434.891183 69.229646 
L 436.930471 59.335104 
L 438.969758 60.853376 
L 441.009045 72.107422 
L 443.048333 47.076382 
L 445.08762 62.365348 
L 447.126907 69.580702 
L 449.166195 66.454251 
L 451.205482 55.865266 
L 453.244769 63.731947 
L 455.284057 62.954527 
L 457.323344 55.766008 
L 459.362631 51.971912 
L 461.401919 58.640637 
L 463.441206 60.984637 
L 465.480493 63.054683 
L 467.519781 60.101541 
L 469.559068 53.840558 
L 471.598355 67.736649 
L 473.637643 68.346663 
L 475.67693 71.865691 
L 477.716217 49.856816 
L 479.755505 65.489023 
L 481.794792 60.197001 
L 483.834079 62.457033 
L 485.873367 68.720319 
L 487.912654 66.864104 
L 489.951942 46.259679 
L 491.991229 53.044797 
L 494.030516 44.176007 
L 496.069804 62.312258 
L 498.109091 58.318485 
L 498.109091 58.318485 
" clip-path="url(#pf2750f7249)" style="fill: none; stroke: #ff0000; stroke-opacity: 0.9; stroke-width: 1.5; stroke-linecap: square"/>
   </g>
   <g id="line2d_17">
    <path d="M 92.290909 62.18169 
L 94.330196 105.815112 
L 96.369484 130.225474 
L 98.408771 105.147898 
L 100.448058 89.585824 
L 102.487346 108.218442 
L 104.526633 98.939693 
L 106.565921 68.253943 
L 108.605208 116.093898 
L 110.644495 45.763973 
L 112.683783 82.470744 
L 114.72307 124.232607 
L 116.762357 122.656521 
L 118.801645 112.819513 
L 120.840932 68.597612 
L 122.880219 117.026758 
L 124.919507 70.082133 
L 126.958794 66.114226 
L 128.998081 88.238205 
L 131.037369 64.086347 
L 133.076656 52.331714 
L 135.115943 53.357492 
L 137.155231 109.476528 
L 139.194518 109.306761 
L 141.233805 126.942476 
L 143.273093 122.586556 
L 145.31238 121.938329 
L 147.351667 118.087919 
L 149.390955 117.91479 
L 151.430242 110.766786 
L 153.469529 108.140868 
L 155.508817 112.366991 
L 157.548104 129.164361 
L 159.587392 109.759725 
L 161.626679 121.937108 
L 163.665966 98.858632 
L 165.705254 94.272216 
L 167.744541 112.099311 
L 169.783828 47.864001 
L 171.823116 55.159121 
L 173.862403 75.186125 
L 175.90169 48.308561 
L 177.940978 42.346749 
L 179.980265 71.368993 
L 182.019552 67.564823 
L 184.05884 71.534333 
L 186.098127 65.271286 
L 188.137414 57.096954 
L 190.176702 66.726956 
L 192.215989 61.147107 
L 194.255276 48.398439 
L 196.294564 69.242747 
L 198.333851 75.893388 
L 200.373138 96.632565 
L 202.412426 71.543659 
L 204.451713 53.3774 
L 206.491 45.339692 
L 208.530288 77.41648 
L 210.569575 56.854638 
L 212.608862 111.822658 
L 214.64815 109.293995 
L 216.687437 94.549467 
L 218.726725 92.877986 
L 220.766012 109.957668 
L 222.805299 122.608139 
L 224.844587 121.999799 
L 226.883874 68.367098 
L 228.923161 59.660313 
L 230.962449 80.498569 
L 233.001736 73.454633 
L 235.041023 42.067028 
L 237.080311 60.574587 
L 239.119598 52.683255 
L 241.158885 74.916154 
L 243.198173 50.974842 
L 245.23746 84.973165 
L 247.276747 50.004594 
L 249.316035 99.508014 
L 251.355322 75.185748 
L 253.394609 111.845079 
L 257.473184 69.461399 
L 259.512471 66.123743 
L 261.551759 57.92927 
L 263.591046 69.5873 
L 265.630333 67.606272 
L 267.669621 59.945203 
L 269.708908 49.876539 
L 271.748196 42.082174 
L 273.787483 60.746879 
L 275.82677 49.378955 
L 277.866058 66.343227 
L 279.905345 56.95267 
L 281.944632 79.223907 
L 283.98392 65.066901 
L 286.023207 59.659236 
L 288.062494 54.628984 
L 290.101782 69.271167 
L 292.141069 75.359463 
L 294.180356 53.203516 
L 296.219644 42.776028 
L 298.258931 80.818603 
L 300.298218 57.239468 
L 302.337506 62.709411 
L 304.376793 60.057723 
L 306.41608 44.327858 
L 308.455368 47.715532 
L 310.494655 50.755496 
L 312.533942 58.188485 
L 314.57323 72.79184 
L 316.612517 40.194954 
L 318.651804 56.429788 
L 320.691092 45.958814 
L 322.730379 42.657398 
L 324.769667 56.05225 
L 326.808954 63.371457 
L 328.848241 47.219018 
L 330.887529 44.847908 
L 332.926816 49.340407 
L 334.966103 44.844363 
L 337.005391 56.556175 
L 339.044678 47.008885 
L 341.083965 50.046211 
L 343.123253 52.521922 
L 345.16254 47.964608 
L 347.201827 53.397379 
L 349.241115 54.249405 
L 351.280402 42.380266 
L 353.319689 53.192085 
L 355.358977 55.082642 
L 357.398264 63.767198 
L 359.437551 83.343767 
L 361.476839 49.498133 
L 363.516126 56.567032 
L 365.555413 45.102015 
L 367.594701 70.060388 
L 369.633988 53.618938 
L 371.673275 59.744856 
L 373.712563 53.138971 
L 375.75185 69.352366 
L 377.791138 52.157711 
L 379.830425 92.257162 
L 381.869712 67.461096 
L 383.909 70.136993 
L 385.948287 100.905157 
L 387.987574 73.533577 
L 390.026862 78.627256 
L 392.066149 62.690861 
L 394.105436 64.279665 
L 396.144724 98.775106 
L 398.184011 84.364998 
L 400.223298 85.03183 
L 402.262586 55.960798 
L 404.301873 80.657497 
L 406.34116 72.792402 
L 408.380448 68.24092 
L 410.419735 50.448748 
L 412.459022 68.827982 
L 414.49831 107.063077 
L 416.537597 79.293913 
L 418.576884 115.285713 
L 420.616172 100.918807 
L 422.655459 82.958326 
L 424.694746 80.046873 
L 426.734034 66.761412 
L 428.773321 67.348702 
L 430.812608 63.694679 
L 432.851896 61.275479 
L 434.891183 69.139109 
L 436.930471 59.601893 
L 438.969758 60.84006 
L 441.009045 72.515582 
L 443.048333 46.823211 
L 445.08762 62.45333 
L 447.126907 70.290221 
L 449.166195 66.844711 
L 451.205482 56.390678 
L 453.244769 64.118213 
L 455.284057 63.084766 
L 457.323344 56.523992 
L 459.362631 52.483721 
L 461.401919 58.715279 
L 463.441206 60.458501 
L 465.480493 63.265212 
L 467.519781 60.428125 
L 469.559068 53.854645 
L 471.598355 68.331427 
L 473.637643 67.946489 
L 475.67693 71.962365 
L 477.716217 50.078519 
L 479.755505 65.369187 
L 481.794792 60.311268 
L 483.834079 62.633716 
L 485.873367 68.067199 
L 487.912654 66.758236 
L 489.951942 46.468817 
L 491.991229 53.094011 
L 494.030516 43.898645 
L 496.069804 62.539542 
L 498.109091 57.926153 
L 498.109091 57.926153 
" clip-path="url(#pf2750f7249)" style="fill: none; stroke: #ff0000; stroke-opacity: 0.9; stroke-width: 1.5; stroke-linecap: square"/>
   </g>
   <g id="line2d_18">
    <path d="M 92.290909 112.66378 
L 94.330196 101.088108 
L 96.369484 121.046086 
L 98.408771 101.261381 
L 100.448058 91.840885 
L 102.487346 105.179734 
L 104.526633 99.309814 
L 106.565921 66.615896 
L 108.605208 113.05799 
L 110.644495 46.215036 
L 112.683783 81.132607 
L 114.72307 119.689058 
L 116.762357 121.915155 
L 118.801645 113.054089 
L 120.840932 69.573997 
L 122.880219 112.965102 
L 124.919507 68.065165 
L 126.958794 63.588416 
L 128.998081 85.392038 
L 131.037369 63.459864 
L 133.076656 49.930921 
L 135.115943 52.24887 
L 137.155231 105.506109 
L 139.194518 109.709836 
L 141.233805 125.867174 
L 143.273093 121.881189 
L 145.31238 122.003125 
L 147.351667 113.859044 
L 149.390955 118.687477 
L 151.430242 109.747486 
L 153.469529 108.177094 
L 155.508817 115.106088 
L 157.548104 128.945924 
L 159.587392 110.08031 
L 161.626679 124.296913 
L 163.665966 96.135478 
L 165.705254 95.287896 
L 167.744541 113.39299 
L 169.783828 49.867709 
L 171.823116 54.45062 
L 173.862403 74.968627 
L 175.90169 50.644919 
L 177.940978 43.086073 
L 179.980265 68.82495 
L 182.019552 64.226271 
L 184.05884 70.694427 
L 186.098127 65.817647 
L 188.137414 59.401779 
L 190.176702 68.474832 
L 192.215989 61.40993 
L 194.255276 47.620745 
L 196.294564 68.756851 
L 198.333851 74.792034 
L 200.373138 92.990955 
L 202.412426 71.056322 
L 204.451713 52.314833 
L 206.491 42.32607 
L 208.530288 73.19245 
L 210.569575 57.933427 
L 212.608862 112.067511 
L 214.64815 106.265564 
L 216.687437 93.97669 
L 218.726725 92.577914 
L 220.766012 109.638292 
L 222.805299 121.469332 
L 224.844587 120.542837 
L 226.883874 69.93122 
L 228.923161 58.177574 
L 230.962449 79.15643 
L 233.001736 73.469002 
L 235.041023 43.804857 
L 237.080311 59.018061 
L 239.119598 51.589193 
L 241.158885 74.225221 
L 243.198173 52.110699 
L 245.23746 81.257247 
L 247.276747 50.171263 
L 249.316035 102.263823 
L 251.355322 77.049632 
L 253.394609 111.190295 
L 257.473184 71.997707 
L 259.512471 65.342992 
L 261.551759 56.920666 
L 263.591046 68.629191 
L 265.630333 63.902923 
L 267.669621 60.646957 
L 269.708908 48.431597 
L 271.748196 39.141818 
L 273.787483 61.904331 
L 275.82677 49.52547 
L 277.866058 65.438793 
L 279.905345 53.967291 
L 281.944632 81.916086 
L 283.98392 64.492515 
L 286.023207 62.86682 
L 288.062494 52.912435 
L 290.101782 67.159236 
L 292.141069 75.22222 
L 294.180356 54.120794 
L 296.219644 41.300187 
L 298.258931 78.915268 
L 300.298218 55.238693 
L 302.337506 60.538971 
L 304.376793 58.067273 
L 306.41608 44.628828 
L 308.455368 45.382451 
L 310.494655 56.367013 
L 312.533942 60.773582 
L 314.57323 72.564729 
L 316.612517 40.237477 
L 318.651804 56.598646 
L 320.691092 46.105154 
L 322.730379 42.031061 
L 326.808954 62.779872 
L 328.848241 45.93797 
L 332.926816 47.586537 
L 334.966103 45.834632 
L 337.005391 56.281155 
L 339.044678 40.66958 
L 341.083965 50.098732 
L 343.123253 56.316053 
L 345.16254 48.68143 
L 347.201827 52.571231 
L 349.241115 54.578819 
L 351.280402 41.051267 
L 353.319689 58.447773 
L 355.358977 57.726655 
L 357.398264 64.868253 
L 359.437551 83.388614 
L 361.476839 47.672979 
L 363.516126 55.937121 
L 365.555413 45.774828 
L 367.594701 70.06923 
L 369.633988 52.973026 
L 371.673275 62.377533 
L 373.712563 51.830397 
L 375.75185 68.406226 
L 377.791138 49.948095 
L 379.830425 94.374178 
L 381.869712 66.453665 
L 383.909 72.538977 
L 385.948287 100.446593 
L 387.987574 72.357874 
L 390.026862 80.331733 
L 392.066149 62.134744 
L 394.105436 66.838681 
L 396.144724 101.352546 
L 398.184011 83.697814 
L 400.223298 83.968443 
L 402.262586 59.018366 
L 404.301873 80.193346 
L 406.34116 68.443164 
L 408.380448 69.37551 
L 410.419735 46.950289 
L 412.459022 68.782137 
L 414.49831 105.63356 
L 416.537597 78.734548 
L 418.576884 113.426346 
L 420.616172 106.252284 
L 422.655459 86.423457 
L 424.694746 81.324616 
L 426.734034 61.565658 
L 428.773321 66.237131 
L 430.812608 64.60878 
L 432.851896 63.63544 
L 434.891183 71.165822 
L 436.930471 60.05938 
L 438.969758 60.032246 
L 441.009045 71.242756 
L 443.048333 47.811461 
L 445.08762 60.268497 
L 447.126907 69.68553 
L 449.166195 66.519108 
L 451.205482 56.388937 
L 453.244769 64.377913 
L 455.284057 62.362632 
L 457.323344 52.946801 
L 459.362631 49.784764 
L 461.401919 60.329483 
L 463.441206 60.271285 
L 465.480493 62.47858 
L 467.519781 54.724856 
L 469.559068 56.068921 
L 471.598355 67.965033 
L 473.637643 68.083799 
L 475.67693 70.466168 
L 477.716217 50.014237 
L 479.755505 65.10826 
L 481.794792 57.794144 
L 483.834079 61.59071 
L 485.873367 66.37593 
L 487.912654 66.984976 
L 489.951942 46.428947 
L 491.991229 49.643461 
L 494.030516 43.765014 
L 496.069804 64.470789 
L 498.109091 58.715955 
L 498.109091 58.715955 
" clip-path="url(#pf2750f7249)" style="fill: none; stroke: #008000; stroke-opacity: 0.9; stroke-width: 1.5; stroke-linecap: square"/>
   </g>
   <g id="line2d_19">
    <path d="M 153.469529 135.36 
L 153.469529 34.56 
" clip-path="url(#pf2750f7249)" style="fill: none; stroke-dasharray: 5.55,2.4; stroke-dashoffset: 0; stroke: #000000; stroke-width: 1.5"/>
   </g>
   <g id="line2d_20">
    <path d="M 438.969758 135.36 
L 438.969758 34.56 
" clip-path="url(#pf2750f7249)" style="fill: none; stroke-dasharray: 5.55,2.4; stroke-dashoffset: 0; stroke: #0000ff; stroke-width: 1.5"/>
   </g>
   <g id="patch_3">
    <path d="M 72 135.36 
L 72 34.56 
" style="fill: none; stroke: #000000; stroke-width: 0.8; stroke-linejoin: miter; stroke-linecap: square"/>
   </g>
   <g id="patch_4">
    <path d="M 518.4 135.36 
L 518.4 34.56 
" style="fill: none; stroke: #000000; stroke-width: 0.8; stroke-linejoin: miter; stroke-linecap: square"/>
   </g>
   <g id="patch_5">
    <path d="M 72 135.36 
L 518.4 135.36 
" style="fill: none; stroke: #000000; stroke-width: 0.8; stroke-linejoin: miter; stroke-linecap: square"/>
   </g>
   <g id="patch_6">
    <path d="M 72 34.56 
L 518.4 34.56 
" style="fill: none; stroke: #000000; stroke-width: 0.8; stroke-linejoin: miter; stroke-linecap: square"/>
   </g>
  </g>
  <g id="axes_2">
   <g id="patch_7">
    <path d="M 72 256.32 
L 518.4 256.32 
L 518.4 155.52 
L 72 155.52 
z
" style="fill: #ffffff"/>
   </g>
   <g id="matplotlib.axis_3">
    <g id="xtick_10">
     <g id="line2d_21">
      <g>
       <use xlink:href="#m389209f834" x="92.290909" y="256.32" style="stroke: #000000; stroke-width: 0.8"/>
      </g>
     </g>
     <g id="text_4">
      <!-- 0 -->
      <g transform="translate(89.109659 270.918437) scale(0.1 -0.1)">
       <use xlink:href="#DejaVuSans-30"/>
      </g>
     </g>
    </g>
    <g id="xtick_11">
     <g id="line2d_22">
      <g>
       <use xlink:href="#m389209f834" x="143.273093" y="256.32" style="stroke: #000000; stroke-width: 0.8"/>
      </g>
     </g>
     <g id="text_5">
      <!-- 25 -->
      <g transform="translate(136.910593 270.918437) scale(0.1 -0.1)">
       <defs>
        <path id="DejaVuSans-32" d="M 1228 531 
L 3431 531 
L 3431 0 
L 469 0 
L 469 531 
Q 828 903 1448 1529 
Q 2069 2156 2228 2338 
Q 2531 2678 2651 2914 
Q 2772 3150 2772 3378 
Q 2772 3750 2511 3984 
Q 2250 4219 1831 4219 
Q 1534 4219 1204 4116 
Q 875 4013 500 3803 
L 500 4441 
Q 881 4594 1212 4672 
Q 1544 4750 1819 4750 
Q 2544 4750 2975 4387 
Q 3406 4025 3406 3419 
Q 3406 3131 3298 2873 
Q 3191 2616 2906 2266 
Q 2828 2175 2409 1742 
Q 1991 1309 1228 531 
z
" transform="scale(0.015625)"/>
       </defs>
       <use xlink:href="#DejaVuSans-32"/>
       <use xlink:href="#DejaVuSans-35" transform="translate(63.623047 0)"/>
      </g>
     </g>
    </g>
    <g id="xtick_12">
     <g id="line2d_23">
      <g>
       <use xlink:href="#m389209f834" x="194.255276" y="256.32" style="stroke: #000000; stroke-width: 0.8"/>
      </g>
     </g>
     <g id="text_6">
      <!-- 50 -->
      <g transform="translate(187.892776 270.918437) scale(0.1 -0.1)">
       <use xlink:href="#DejaVuSans-35"/>
       <use xlink:href="#DejaVuSans-30" transform="translate(63.623047 0)"/>
      </g>
     </g>
    </g>
    <g id="xtick_13">
     <g id="line2d_24">
      <g>
       <use xlink:href="#m389209f834" x="245.23746" y="256.32" style="stroke: #000000; stroke-width: 0.8"/>
      </g>
     </g>
     <g id="text_7">
      <!-- 75 -->
      <g transform="translate(238.87496 270.918437) scale(0.1 -0.1)">
       <defs>
        <path id="DejaVuSans-37" d="M 525 4666 
L 3525 4666 
L 3525 4397 
L 1831 0 
L 1172 0 
L 2766 4134 
L 525 4134 
L 525 4666 
z
" transform="scale(0.015625)"/>
       </defs>
       <use xlink:href="#DejaVuSans-37"/>
       <use xlink:href="#DejaVuSans-35" transform="translate(63.623047 0)"/>
      </g>
     </g>
    </g>
    <g id="xtick_14">
     <g id="line2d_25">
      <g>
       <use xlink:href="#m389209f834" x="296.219644" y="256.32" style="stroke: #000000; stroke-width: 0.8"/>
      </g>
     </g>
     <g id="text_8">
      <!-- 100 -->
      <g transform="translate(286.675894 270.918437) scale(0.1 -0.1)">
       <use xlink:href="#DejaVuSans-31"/>
       <use xlink:href="#DejaVuSans-30" transform="translate(63.623047 0)"/>
       <use xlink:href="#DejaVuSans-30" transform="translate(127.246094 0)"/>
      </g>
     </g>
    </g>
    <g id="xtick_15">
     <g id="line2d_26">
      <g>
       <use xlink:href="#m389209f834" x="347.201827" y="256.32" style="stroke: #000000; stroke-width: 0.8"/>
      </g>
     </g>
     <g id="text_9">
      <!-- 125 -->
      <g transform="translate(337.658077 270.918437) scale(0.1 -0.1)">
       <use xlink:href="#DejaVuSans-31"/>
       <use xlink:href="#DejaVuSans-32" transform="translate(63.623047 0)"/>
       <use xlink:href="#DejaVuSans-35" transform="translate(127.246094 0)"/>
      </g>
     </g>
    </g>
    <g id="xtick_16">
     <g id="line2d_27">
      <g>
       <use xlink:href="#m389209f834" x="398.184011" y="256.32" style="stroke: #000000; stroke-width: 0.8"/>
      </g>
     </g>
     <g id="text_10">
      <!-- 150 -->
      <g transform="translate(388.640261 270.918437) scale(0.1 -0.1)">
       <use xlink:href="#DejaVuSans-31"/>
       <use xlink:href="#DejaVuSans-35" transform="translate(63.623047 0)"/>
       <use xlink:href="#DejaVuSans-30" transform="translate(127.246094 0)"/>
      </g>
     </g>
    </g>
    <g id="xtick_17">
     <g id="line2d_28">
      <g>
       <use xlink:href="#m389209f834" x="449.166195" y="256.32" style="stroke: #000000; stroke-width: 0.8"/>
      </g>
     </g>
     <g id="text_11">
      <!-- 175 -->
      <g transform="translate(439.622445 270.918437) scale(0.1 -0.1)">
       <use xlink:href="#DejaVuSans-31"/>
       <use xlink:href="#DejaVuSans-37" transform="translate(63.623047 0)"/>
       <use xlink:href="#DejaVuSans-35" transform="translate(127.246094 0)"/>
      </g>
     </g>
    </g>
    <g id="xtick_18">
     <g id="line2d_29">
      <g>
       <use xlink:href="#m389209f834" x="500.148378" y="256.32" style="stroke: #000000; stroke-width: 0.8"/>
      </g>
     </g>
     <g id="text_12">
      <!-- 200 -->
      <g transform="translate(490.604628 270.918437) scale(0.1 -0.1)">
       <use xlink:href="#DejaVuSans-32"/>
       <use xlink:href="#DejaVuSans-30" transform="translate(63.623047 0)"/>
       <use xlink:href="#DejaVuSans-30" transform="translate(127.246094 0)"/>
      </g>
     </g>
    </g>
   </g>
   <g id="matplotlib.axis_4">
    <g id="ytick_4">
     <g id="line2d_30">
      <g>
       <use xlink:href="#m271d90fa9e" x="72" y="254.425868" style="stroke: #000000; stroke-width: 0.8"/>
      </g>
     </g>
     <g id="text_13">
      <!-- −200 -->
      <g transform="translate(37.532812 258.225087) scale(0.1 -0.1)">
       <use xlink:href="#DejaVuSans-2212"/>
       <use xlink:href="#DejaVuSans-32" transform="translate(83.789062 0)"/>
       <use xlink:href="#DejaVuSans-30" transform="translate(147.412109 0)"/>
       <use xlink:href="#DejaVuSans-30" transform="translate(211.035156 0)"/>
      </g>
     </g>
    </g>
    <g id="ytick_5">
     <g id="line2d_31">
      <g>
       <use xlink:href="#m271d90fa9e" x="72" y="229.615048" style="stroke: #000000; stroke-width: 0.8"/>
      </g>
     </g>
     <g id="text_14">
      <!-- −100 -->
      <g transform="translate(37.532812 233.414267) scale(0.1 -0.1)">
       <use xlink:href="#DejaVuSans-2212"/>
       <use xlink:href="#DejaVuSans-31" transform="translate(83.789062 0)"/>
       <use xlink:href="#DejaVuSans-30" transform="translate(147.412109 0)"/>
       <use xlink:href="#DejaVuSans-30" transform="translate(211.035156 0)"/>
      </g>
     </g>
    </g>
    <g id="ytick_6">
     <g id="line2d_32">
      <g>
       <use xlink:href="#m271d90fa9e" x="72" y="204.804229" style="stroke: #000000; stroke-width: 0.8"/>
      </g>
     </g>
     <g id="text_15">
      <!-- 0 -->
      <g transform="translate(58.6375 208.603447) scale(0.1 -0.1)">
       <use xlink:href="#DejaVuSans-30"/>
      </g>
     </g>
    </g>
    <g id="ytick_7">
     <g id="line2d_33">
      <g>
       <use xlink:href="#m271d90fa9e" x="72" y="179.993409" style="stroke: #000000; stroke-width: 0.8"/>
      </g>
     </g>
     <g id="text_16">
      <!-- 100 -->
      <g transform="translate(45.9125 183.792628) scale(0.1 -0.1)">
       <use xlink:href="#DejaVuSans-31"/>
       <use xlink:href="#DejaVuSans-30" transform="translate(63.623047 0)"/>
       <use xlink:href="#DejaVuSans-30" transform="translate(127.246094 0)"/>
      </g>
     </g>
    </g>
   </g>
   <g id="line2d_34">
    <path d="M 92.290909 176.505883 
L 94.330196 169.886608 
L 96.369484 163.649475 
L 98.408771 163.287239 
L 100.448058 169.660234 
L 102.487346 166.048609 
L 104.526633 168.195356 
L 106.565921 162.580436 
L 108.605208 164.668832 
L 110.644495 175.429007 
L 112.683783 249.003408 
L 114.72307 161.695513 
L 116.762357 163.390376 
L 118.801645 169.943202 
L 120.840932 161.063037 
L 122.880219 167.959226 
L 124.919507 166.03476 
L 126.958794 180.154148 
L 128.998081 163.226662 
L 131.037369 167.010652 
L 133.076656 173.854236 
L 135.115943 167.73428 
L 137.155231 165.548144 
L 139.194518 165.429228 
L 141.233805 167.453038 
L 143.273093 164.69118 
L 145.31238 160.895449 
L 147.351667 160.632209 
L 149.390955 163.902027 
L 151.430242 162.195981 
L 153.469529 163.813106 
L 155.508817 167.984849 
L 157.548104 163.281352 
L 159.587392 165.116571 
L 161.626679 168.125103 
L 163.665966 168.179198 
L 165.705254 250.339647 
L 167.744541 162.041587 
L 169.783828 168.066642 
L 171.823116 166.465213 
L 173.862403 166.697856 
L 175.90169 172.279859 
L 177.940978 170.660814 
L 179.980265 184.737589 
L 182.019552 169.246503 
L 184.05884 172.344021 
L 186.098127 187.83772 
L 188.137414 173.071491 
L 190.176702 173.96192 
L 192.215989 197.778785 
L 194.255276 193.089795 
L 196.294564 190.003351 
L 198.333851 188.051568 
L 200.373138 171.609078 
L 202.412426 164.193605 
L 204.451713 167.231787 
L 206.491 166.20321 
L 208.530288 174.391727 
L 210.569575 165.85973 
L 212.608862 163.279005 
L 214.64815 168.138959 
L 216.687437 161.125745 
L 218.726725 167.184975 
L 220.766012 166.388398 
L 222.805299 169.792273 
L 224.844587 162.28452 
L 226.883874 177.66199 
L 228.923161 186.625705 
L 230.962449 166.214099 
L 233.001736 171.00386 
L 235.041023 165.831696 
L 237.080311 166.215473 
L 239.119598 168.373226 
L 241.158885 164.532614 
L 243.198173 170.431147 
L 245.23746 162.0987 
L 247.276747 163.991434 
L 249.316035 164.520231 
L 251.355322 169.312169 
L 253.394609 165.534682 
L 255.433897 162.726535 
L 257.473184 169.270108 
L 259.512471 164.006698 
L 261.551759 162.153754 
L 265.630333 167.653312 
L 267.669621 163.413008 
L 269.708908 164.935934 
L 271.748196 164.93398 
L 273.787483 166.242757 
L 275.82677 162.203617 
L 277.866058 250.835769 
L 279.905345 167.911063 
L 281.944632 164.227102 
L 283.98392 163.036409 
L 286.023207 169.780483 
L 288.062494 171.041335 
L 290.101782 169.411668 
L 292.141069 171.341972 
L 294.180356 166.897361 
L 296.219644 167.598323 
L 298.258931 174.013616 
L 300.298218 169.385292 
L 302.337506 164.079901 
L 304.376793 170.082551 
L 306.41608 163.706361 
L 308.455368 167.09725 
L 310.494655 167.756722 
L 312.533942 163.512306 
L 314.57323 250.798296 
L 316.612517 160.296512 
L 318.651804 162.288586 
L 320.691092 161.755511 
L 322.730379 165.264737 
L 324.769667 164.921321 
L 326.808954 164.037117 
L 328.848241 166.420392 
L 330.887529 166.931752 
L 332.926816 163.551781 
L 334.966103 164.839763 
L 337.005391 160.80571 
L 339.044678 163.063178 
L 341.083965 162.370984 
L 343.123253 162.623219 
L 345.16254 164.82192 
L 347.201827 163.090535 
L 349.241115 251.39684 
L 351.280402 162.69638 
L 353.319689 163.486124 
L 355.358977 170.634086 
L 357.398264 167.497313 
L 359.437551 171.115102 
L 361.476839 166.26749 
L 363.516126 165.884118 
L 365.555413 169.921797 
L 367.594701 166.98707 
L 369.633988 170.075036 
L 371.673275 165.60333 
L 373.712563 171.714229 
L 375.75185 175.748143 
L 377.791138 173.83246 
L 379.830425 165.926057 
L 381.869712 178.150548 
L 383.909 171.118248 
L 385.948287 169.557915 
L 387.987574 168.34275 
L 390.026862 171.996156 
L 394.105436 171.52323 
L 396.144724 249.252625 
L 398.184011 164.663994 
L 400.223298 171.02288 
L 402.262586 171.056713 
L 404.301873 169.865998 
L 406.34116 167.375273 
L 408.380448 172.328692 
L 410.419735 166.290905 
L 412.459022 171.655957 
L 414.49831 164.672758 
L 416.537597 166.949629 
L 418.576884 160.522909 
L 420.616172 168.385742 
L 422.655459 167.293874 
L 424.694746 171.517529 
L 426.734034 167.391605 
L 428.773321 172.003841 
L 430.812608 175.52891 
L 432.851896 171.737391 
L 434.891183 173.671893 
L 436.930471 178.247138 
L 438.969758 170.520454 
L 441.009045 178.256245 
L 443.048333 171.721509 
L 445.08762 173.970355 
L 447.126907 175.087968 
L 449.166195 163.405296 
L 451.205482 168.982446 
L 453.244769 172.9693 
L 455.284057 178.610392 
L 457.323344 180.185252 
L 459.362631 173.308781 
L 461.401919 172.973116 
L 463.441206 176.697913 
L 465.480493 174.862874 
L 467.519781 174.66443 
L 469.559068 175.188026 
L 471.598355 170.250415 
L 473.637643 175.306492 
L 475.67693 177.906053 
L 477.716217 179.320016 
L 479.755505 173.025554 
L 481.794792 176.629115 
L 483.834079 170.835477 
L 485.873367 173.748753 
L 487.912654 177.598228 
L 489.951942 172.526998 
L 491.991229 168.996056 
L 494.030516 168.503947 
L 496.069804 173.454123 
L 498.109091 176.081737 
L 498.109091 176.081737 
" clip-path="url(#p903c3b9164)" style="fill: none; stroke: #ff0000; stroke-opacity: 0.9; stroke-width: 1.5; stroke-linecap: square"/>
   </g>
   <g id="line2d_35">
    <path d="M 92.290909 176.345364 
L 96.369484 163.52369 
L 98.408771 163.186653 
L 100.448058 169.751352 
L 102.487346 166.183975 
L 104.526633 168.222497 
L 106.565921 162.461144 
L 108.605208 164.549923 
L 110.644495 175.591412 
L 112.683783 249.339544 
L 114.72307 161.775776 
L 116.762357 163.475538 
L 118.801645 169.850078 
L 120.840932 161.2102 
L 122.880219 167.737093 
L 124.919507 166.333201 
L 126.958794 180.108428 
L 128.998081 163.295829 
L 131.037369 166.959953 
L 133.076656 173.715582 
L 135.115943 167.498324 
L 137.155231 165.786409 
L 139.194518 165.292014 
L 141.233805 167.365267 
L 143.273093 164.735917 
L 145.31238 161.077548 
L 147.351667 160.672608 
L 149.390955 163.657516 
L 151.430242 162.137853 
L 153.469529 164.03201 
L 155.508817 167.918457 
L 157.548104 163.586312 
L 159.587392 165.176898 
L 161.626679 168.135294 
L 163.665966 168.241505 
L 165.705254 250.408106 
L 167.744541 162.139053 
L 169.783828 167.941467 
L 171.823116 166.429304 
L 173.862403 166.57312 
L 175.90169 172.216071 
L 177.940978 170.716083 
L 179.980265 184.694549 
L 182.019552 169.450548 
L 184.05884 172.448737 
L 186.098127 187.784117 
L 188.137414 172.945801 
L 190.176702 174.07053 
L 192.215989 197.924953 
L 194.255276 193.161711 
L 196.294564 189.968981 
L 198.333851 188.049613 
L 200.373138 171.323895 
L 202.412426 164.399213 
L 204.451713 167.52579 
L 206.491 166.008854 
L 208.530288 174.401379 
L 210.569575 166.189899 
L 212.608862 163.425823 
L 214.64815 168.213013 
L 216.687437 161.155926 
L 218.726725 167.44463 
L 220.766012 166.49553 
L 222.805299 169.614494 
L 224.844587 162.422725 
L 226.883874 177.821071 
L 228.923161 186.647731 
L 230.962449 166.184944 
L 233.001736 170.934692 
L 235.041023 165.91718 
L 237.080311 166.158632 
L 239.119598 168.479922 
L 241.158885 164.684207 
L 243.198173 170.394098 
L 245.23746 162.071726 
L 247.276747 163.927597 
L 249.316035 164.727509 
L 251.355322 169.468505 
L 253.394609 165.301066 
L 255.433897 162.738066 
L 257.473184 169.503285 
L 259.512471 163.897621 
L 261.551759 162.078552 
L 263.591046 164.62408 
L 265.630333 167.652601 
L 267.669621 163.200751 
L 269.708908 164.864567 
L 271.748196 164.92215 
L 273.787483 166.244082 
L 275.82677 162.349523 
L 277.866058 250.740453 
L 279.905345 167.954623 
L 281.944632 164.199764 
L 283.98392 162.954328 
L 286.023207 169.564956 
L 288.062494 171.112214 
L 290.101782 169.464052 
L 292.141069 171.514553 
L 294.180356 166.829747 
L 296.219644 167.378052 
L 298.258931 174.014038 
L 300.298218 169.385553 
L 302.337506 164.219041 
L 304.376793 170.113678 
L 306.41608 163.725649 
L 308.455368 167.228357 
L 310.494655 167.506468 
L 312.533942 163.357829 
L 314.57323 250.774938 
L 316.612517 160.101818 
L 318.651804 162.329817 
L 320.691092 161.883093 
L 322.730379 165.26342 
L 324.769667 164.888607 
L 326.808954 164.186071 
L 328.848241 166.649893 
L 330.887529 166.921833 
L 332.926816 163.421977 
L 334.966103 164.831759 
L 337.005391 160.837708 
L 339.044678 162.864282 
L 341.083965 162.439966 
L 343.123253 162.581969 
L 345.16254 164.880025 
L 347.201827 163.339956 
L 349.241115 251.596645 
L 351.280402 162.842548 
L 353.319689 163.589159 
L 355.358977 170.423439 
L 357.398264 167.58042 
L 359.437551 171.138389 
L 361.476839 166.477554 
L 363.516126 165.963121 
L 365.555413 170.060552 
L 367.594701 166.892879 
L 369.633988 170.035766 
L 371.673275 165.512724 
L 373.712563 171.570523 
L 375.75185 175.637192 
L 377.791138 173.886868 
L 379.830425 165.796094 
L 381.869712 178.192003 
L 383.909 171.270605 
L 385.948287 169.489792 
L 387.987574 168.278573 
L 390.026862 171.964268 
L 392.066149 171.545146 
L 394.105436 171.795064 
L 396.144724 249.331124 
L 398.184011 164.65615 
L 400.223298 170.944501 
L 402.262586 171.141092 
L 404.301873 170.090959 
L 406.34116 167.266234 
L 408.380448 172.464789 
L 410.419735 166.021025 
L 412.459022 171.529677 
L 414.49831 164.665209 
L 416.537597 166.689928 
L 418.576884 160.59925 
L 420.616172 168.283248 
L 422.655459 167.195897 
L 424.694746 171.563152 
L 426.734034 167.203703 
L 428.773321 171.97809 
L 430.812608 175.668228 
L 432.851896 171.773455 
L 434.891183 173.362231 
L 436.930471 178.218407 
L 438.969758 170.437984 
L 441.009045 178.35744 
L 443.048333 171.810279 
L 445.08762 174.224273 
L 447.126907 175.193421 
L 449.166195 163.458256 
L 451.205482 168.920373 
L 453.244769 173.036317 
L 455.284057 178.561515 
L 457.323344 180.034447 
L 459.362631 173.439487 
L 461.401919 172.767299 
L 463.441206 176.918862 
L 465.480493 174.604603 
L 469.559068 175.173636 
L 471.598355 170.296386 
L 473.637643 175.327787 
L 475.67693 177.897632 
L 477.716217 179.374323 
L 479.755505 173.320733 
L 481.794792 176.434397 
L 483.834079 170.779606 
L 485.873367 173.851073 
L 487.912654 177.823655 
L 489.951942 172.547206 
L 491.991229 168.903776 
L 494.030516 168.446663 
L 496.069804 173.502884 
L 498.109091 176.224929 
L 498.109091 176.224929 
" clip-path="url(#p903c3b9164)" style="fill: none; stroke: #ff0000; stroke-opacity: 0.9; stroke-width: 1.5; stroke-linecap: square"/>
   </g>
   <g id="line2d_36">
    <path d="M 92.290909 176.409685 
L 94.330196 169.760237 
L 96.369484 163.531694 
L 98.408771 163.297343 
L 100.448058 169.472938 
L 102.487346 166.027472 
L 104.526633 168.172126 
L 106.565921 162.469976 
L 108.605208 164.453267 
L 110.644495 175.420461 
L 112.683783 249.180827 
L 114.72307 161.683701 
L 116.762357 163.33962 
L 118.801645 169.764481 
L 120.840932 161.148805 
L 122.880219 167.832011 
L 124.919507 165.948863 
L 126.958794 180.077373 
L 128.998081 163.324298 
L 131.037369 166.984178 
L 133.076656 173.786761 
L 135.115943 167.498169 
L 137.155231 165.700138 
L 139.194518 165.297723 
L 141.233805 167.575044 
L 143.273093 164.821958 
L 145.31238 161.169945 
L 147.351667 160.738095 
L 149.390955 163.926563 
L 151.430242 162.052581 
L 153.469529 163.901013 
L 155.508817 167.909969 
L 157.548104 163.413424 
L 159.587392 165.19928 
L 161.626679 168.090451 
L 163.665966 168.141563 
L 165.705254 250.355763 
L 167.744541 162.250716 
L 169.783828 167.974472 
L 171.823116 166.386112 
L 173.862403 166.700309 
L 175.90169 172.258726 
L 177.940978 170.558968 
L 179.980265 184.719061 
L 182.019552 169.304082 
L 184.05884 172.651646 
L 186.098127 187.741526 
L 188.137414 172.993931 
L 190.176702 173.896802 
L 192.215989 197.824848 
L 194.255276 193.160421 
L 196.294564 189.994858 
L 198.333851 188.326363 
L 200.373138 171.530453 
L 202.412426 164.186048 
L 204.451713 167.287548 
L 206.491 166.031144 
L 208.530288 174.354819 
L 210.569575 165.896539 
L 212.608862 163.527976 
L 214.64815 168.175643 
L 216.687437 161.170074 
L 218.726725 167.289415 
L 220.766012 166.499168 
L 222.805299 169.661048 
L 224.844587 162.406462 
L 226.883874 177.542038 
L 228.923161 186.653571 
L 230.962449 166.200943 
L 233.001736 171.005813 
L 235.041023 166.179943 
L 237.080311 166.234807 
L 239.119598 168.463416 
L 241.158885 164.717794 
L 243.198173 170.590757 
L 245.23746 162.125644 
L 247.276747 164.165623 
L 249.316035 164.722754 
L 251.355322 169.507779 
L 253.394609 165.543246 
L 255.433897 162.879592 
L 257.473184 169.309977 
L 259.512471 163.933215 
L 261.551759 161.895916 
L 265.630333 167.695615 
L 267.669621 163.227112 
L 269.708908 164.869428 
L 271.748196 165.034339 
L 273.787483 166.325035 
L 275.82677 162.310173 
L 277.866058 250.737784 
L 279.905345 167.988033 
L 281.944632 164.389904 
L 283.98392 162.907721 
L 286.023207 169.652984 
L 288.062494 171.172598 
L 290.101782 169.422276 
L 292.141069 171.390654 
L 294.180356 166.707161 
L 296.219644 167.553681 
L 298.258931 174.033567 
L 302.337506 164.173975 
L 304.376793 170.01212 
L 306.41608 163.661347 
L 308.455368 167.247059 
L 310.494655 167.669391 
L 312.533942 163.319581 
L 314.57323 250.898261 
L 316.612517 160.260126 
L 318.651804 162.275608 
L 320.691092 161.579227 
L 322.730379 165.257468 
L 324.769667 164.801669 
L 326.808954 164.102843 
L 328.848241 166.486913 
L 330.887529 166.902397 
L 332.926816 163.460565 
L 334.966103 164.775922 
L 337.005391 160.796264 
L 339.044678 162.83066 
L 341.083965 162.459751 
L 343.123253 162.560579 
L 345.16254 164.837923 
L 347.201827 163.133966 
L 349.241115 251.735165 
L 351.280402 162.703952 
L 353.319689 163.419114 
L 355.358977 170.375832 
L 357.398264 167.34426 
L 359.437551 170.781397 
L 361.476839 166.216976 
L 363.516126 165.977715 
L 365.555413 169.848954 
L 367.594701 166.940141 
L 369.633988 169.997548 
L 371.673275 165.446998 
L 373.712563 171.697939 
L 375.75185 175.488479 
L 377.791138 173.763512 
L 379.830425 165.94142 
L 381.869712 178.159996 
L 383.909 171.340424 
L 385.948287 169.367514 
L 387.987574 168.310665 
L 390.026862 171.817442 
L 392.066149 171.555871 
L 394.105436 171.759466 
L 396.144724 249.305801 
L 398.184011 164.725642 
L 400.223298 170.754915 
L 402.262586 170.82599 
L 404.301873 170.167217 
L 406.34116 167.270826 
L 408.380448 172.244912 
L 410.419735 166.37388 
L 412.459022 171.42983 
L 414.49831 164.921396 
L 416.537597 166.772876 
L 418.576884 160.54264 
L 420.616172 168.382963 
L 422.655459 167.252143 
L 424.694746 171.227579 
L 426.734034 167.229985 
L 428.773321 171.890573 
L 430.812608 175.623879 
L 432.851896 171.822708 
L 434.891183 173.417425 
L 436.930471 178.15426 
L 438.969758 170.52 
L 441.009045 178.084502 
L 443.048333 171.802643 
L 445.08762 174.066244 
L 447.126907 175.112972 
L 449.166195 163.498583 
L 451.205482 169.041891 
L 453.244769 172.991932 
L 455.284057 178.551727 
L 457.323344 180.002868 
L 459.362631 173.462758 
L 461.401919 172.829584 
L 463.441206 176.571124 
L 465.480493 174.711829 
L 467.519781 174.701512 
L 469.559068 175.145242 
L 471.598355 170.399486 
L 473.637643 175.336145 
L 475.67693 178.034531 
L 477.716217 179.373739 
L 479.755505 173.010603 
L 481.794792 176.438035 
L 483.834079 170.872983 
L 485.873367 173.704588 
L 487.912654 177.662055 
L 489.951942 172.664976 
L 491.991229 168.810728 
L 494.030516 168.695415 
L 496.069804 173.525685 
L 498.109091 176.085199 
L 498.109091 176.085199 
" clip-path="url(#p903c3b9164)" style="fill: none; stroke: #ff0000; stroke-opacity: 0.9; stroke-width: 1.5; stroke-linecap: square"/>
   </g>
   <g id="line2d_37">
    <path d="M 92.290909 176.308028 
L 96.369484 163.641036 
L 98.408771 163.254874 
L 100.448058 169.625696 
L 102.487346 165.983057 
L 104.526633 168.243512 
L 106.565921 162.334762 
L 108.605208 164.415405 
L 110.644495 175.206188 
L 112.683783 249.194535 
L 114.72307 161.751437 
L 116.762357 163.452752 
L 118.801645 169.668502 
L 120.840932 161.316438 
L 122.880219 167.880167 
L 124.919507 166.13156 
L 126.958794 180.062523 
L 128.998081 163.195591 
L 131.037369 166.867972 
L 133.076656 173.817362 
L 135.115943 167.519332 
L 137.155231 165.622956 
L 139.194518 165.40094 
L 141.233805 167.376977 
L 143.273093 164.778481 
L 145.31238 161.034363 
L 147.351667 160.78019 
L 149.390955 163.702499 
L 151.430242 162.170627 
L 153.469529 163.775149 
L 155.508817 167.901371 
L 157.548104 163.507468 
L 159.587392 165.111816 
L 161.626679 168.311316 
L 163.665966 168.18945 
L 165.705254 250.535537 
L 167.744541 162.000938 
L 169.783828 167.990141 
L 171.823116 166.562474 
L 173.862403 166.77517 
L 175.90169 172.185894 
L 177.940978 170.520307 
L 179.980265 184.638746 
L 182.019552 169.312373 
L 184.05884 172.426893 
L 186.098127 187.79957 
L 188.137414 173.046455 
L 190.176702 173.960169 
L 192.215989 197.828264 
L 194.255276 193.277523 
L 196.294564 189.85513 
L 198.333851 187.985339 
L 200.373138 171.375904 
L 202.412426 164.380999 
L 204.451713 167.402698 
L 206.491 166.247914 
L 208.530288 174.519974 
L 210.569575 165.788689 
L 212.608862 163.409006 
L 214.64815 168.230205 
L 216.687437 161.180787 
L 218.726725 167.468181 
L 220.766012 166.596539 
L 222.805299 169.720243 
L 224.844587 162.291603 
L 226.883874 177.708901 
L 228.923161 186.852819 
L 230.962449 166.268066 
L 233.001736 170.671547 
L 235.041023 165.835061 
L 237.080311 166.2456 
L 239.119598 168.378855 
L 241.158885 164.586138 
L 243.198173 170.581459 
L 245.23746 161.951075 
L 247.276747 163.986815 
L 249.316035 164.627139 
L 251.355322 169.442818 
L 253.394609 165.517631 
L 255.433897 162.698243 
L 257.473184 169.209819 
L 259.512471 163.99475 
L 261.551759 161.984281 
L 265.630333 167.590214 
L 267.669621 163.346805 
L 269.708908 164.701568 
L 271.748196 164.87109 
L 273.787483 166.362231 
L 275.82677 162.262486 
L 277.866058 250.907919 
L 279.905345 168.04181 
L 281.944632 164.26212 
L 283.98392 162.93588 
L 286.023207 169.441822 
L 288.062494 171.126066 
L 290.101782 169.227601 
L 292.141069 171.362264 
L 294.180356 166.908166 
L 296.219644 167.450206 
L 298.258931 173.99639 
L 300.298218 169.198291 
L 302.337506 164.104009 
L 304.376793 170.035221 
L 306.41608 163.609701 
L 308.455368 167.228765 
L 310.494655 167.532075 
L 312.533942 163.255192 
L 314.57323 250.980372 
L 316.612517 160.147032 
L 318.651804 162.227085 
L 320.691092 161.791745 
L 322.730379 165.518649 
L 324.769667 164.925705 
L 326.808954 164.120542 
L 328.848241 166.485861 
L 330.887529 166.946358 
L 332.926816 163.38288 
L 334.966103 164.800466 
L 337.005391 160.830227 
L 339.044678 162.852618 
L 341.083965 162.419284 
L 343.123253 162.737654 
L 345.16254 164.632367 
L 347.201827 163.227646 
L 349.241115 251.458992 
L 351.280402 162.821657 
L 353.319689 163.524156 
L 355.358977 170.272267 
L 357.398264 167.535085 
L 359.437551 171.107508 
L 361.476839 166.233312 
L 363.516126 165.926796 
L 365.555413 169.821321 
L 367.594701 167.204593 
L 369.633988 169.908986 
L 371.673275 165.506655 
L 373.712563 171.58054 
L 375.75185 175.651082 
L 377.791138 173.698521 
L 379.830425 166.075776 
L 381.869712 178.072458 
L 383.909 171.133801 
L 385.948287 169.556112 
L 387.987574 168.337908 
L 390.026862 171.887067 
L 394.105436 171.608453 
L 396.144724 249.31787 
L 398.184011 164.686009 
L 400.223298 170.810589 
L 402.262586 171.139388 
L 404.301873 170.087352 
L 406.34116 167.274396 
L 408.380448 172.393975 
L 410.419735 166.31317 
L 412.459022 171.384884 
L 414.49831 164.769993 
L 416.537597 166.623048 
L 418.576884 160.709906 
L 420.616172 168.214066 
L 422.655459 167.097318 
L 424.694746 171.520606 
L 426.734034 167.280279 
L 428.773321 171.872318 
L 430.812608 175.545686 
L 432.851896 171.988596 
L 434.891183 173.450044 
L 436.930471 178.129347 
L 438.969758 170.519194 
L 441.009045 178.278632 
L 443.048333 171.673755 
L 445.08762 173.991497 
L 447.126907 175.168941 
L 449.166195 163.43026 
L 451.205482 168.933048 
L 453.244769 172.980003 
L 455.284057 178.448843 
L 457.323344 180.056441 
L 459.362631 173.407671 
L 461.401919 172.896646 
L 463.441206 176.621973 
L 465.480493 174.59503 
L 467.519781 174.741599 
L 469.559068 175.158873 
L 471.598355 170.248295 
L 473.637643 175.23758 
L 475.67693 177.905673 
L 477.716217 179.341099 
L 479.755505 173.038073 
L 481.794792 176.643339 
L 483.834079 170.709829 
L 485.873367 173.943737 
L 487.912654 177.776402 
L 489.951942 172.627633 
L 491.991229 168.924893 
L 494.030516 168.631931 
L 496.069804 173.585398 
L 498.109091 176.033088 
L 498.109091 176.033088 
" clip-path="url(#p903c3b9164)" style="fill: none; stroke: #ff0000; stroke-opacity: 0.9; stroke-width: 1.5; stroke-linecap: square"/>
   </g>
   <g id="line2d_38">
    <path d="M 92.290909 176.107769 
L 96.369484 163.607724 
L 98.408771 163.339256 
L 100.448058 169.584518 
L 102.487346 165.847134 
L 104.526633 168.517625 
L 106.565921 162.370719 
L 108.605208 164.49811 
L 110.644495 175.439484 
L 112.683783 249.461588 
L 114.72307 161.91388 
L 116.762357 163.247079 
L 118.801645 169.769599 
L 120.840932 161.123996 
L 122.880219 167.952348 
L 124.919507 165.859211 
L 126.958794 180.056797 
L 128.998081 163.306706 
L 131.037369 167.020019 
L 133.076656 173.797371 
L 135.115943 167.369076 
L 137.155231 165.740866 
L 139.194518 165.194328 
L 141.233805 167.43738 
L 143.273093 164.830271 
L 145.31238 160.974634 
L 147.351667 160.755896 
L 149.390955 163.749489 
L 151.430242 162.065619 
L 153.469529 163.664588 
L 155.508817 168.067024 
L 157.548104 163.683411 
L 159.587392 165.284329 
L 161.626679 168.28407 
L 163.665966 168.235327 
L 165.705254 250.324011 
L 167.744541 162.077208 
L 169.783828 168.152156 
L 171.823116 166.482181 
L 173.862403 166.74781 
L 175.90169 172.032629 
L 177.940978 170.631016 
L 179.980265 184.731107 
L 182.019552 169.459562 
L 184.05884 172.52314 
L 186.098127 187.849023 
L 188.137414 172.963663 
L 190.176702 174.120948 
L 192.215989 197.962754 
L 194.255276 193.073435 
L 196.294564 190.021614 
L 198.333851 187.996695 
L 200.373138 171.531612 
L 202.412426 164.35507 
L 204.451713 167.536781 
L 206.491 166.198402 
L 208.530288 174.460382 
L 210.569575 165.913803 
L 212.608862 163.362149 
L 214.64815 168.388797 
L 216.687437 161.235334 
L 218.726725 167.288839 
L 220.766012 166.320768 
L 222.805299 169.721137 
L 224.844587 162.428279 
L 226.883874 177.687639 
L 228.923161 186.70217 
L 230.962449 166.386729 
L 233.001736 170.828886 
L 235.041023 166.09977 
L 237.080311 166.27591 
L 239.119598 168.512885 
L 241.158885 164.517861 
L 243.198173 170.447744 
L 245.23746 162.074463 
L 247.276747 164.086325 
L 249.316035 164.584139 
L 251.355322 169.39891 
L 253.394609 165.332795 
L 255.433897 162.820234 
L 257.473184 169.223164 
L 259.512471 164.027327 
L 261.551759 161.94679 
L 263.591046 164.652353 
L 265.630333 167.831424 
L 267.669621 163.245981 
L 269.708908 164.770955 
L 271.748196 164.907616 
L 273.787483 166.302312 
L 275.82677 162.288143 
L 277.866058 250.814787 
L 279.905345 168.073922 
L 281.944632 164.078705 
L 283.98392 162.970448 
L 286.023207 169.504735 
L 288.062494 171.108061 
L 290.101782 169.38751 
L 292.141069 171.455411 
L 294.180356 166.854888 
L 296.219644 167.528115 
L 298.258931 173.850802 
L 300.298218 169.21753 
L 302.337506 164.295913 
L 304.376793 170.166301 
L 306.41608 163.792015 
L 308.455368 167.518181 
L 310.494655 167.809879 
L 312.533942 163.273943 
L 314.57323 250.75471 
L 316.612517 160.125075 
L 318.651804 162.303835 
L 320.691092 161.79834 
L 322.730379 165.468559 
L 324.769667 164.968454 
L 326.808954 164.171518 
L 328.848241 166.51171 
L 330.887529 166.81912 
L 332.926816 163.431483 
L 334.966103 164.711892 
L 337.005391 160.831874 
L 339.044678 162.860341 
L 341.083965 162.399223 
L 343.123253 162.633683 
L 345.16254 164.758651 
L 347.201827 163.374294 
L 349.241115 251.738182 
L 351.280402 162.611426 
L 353.319689 163.425463 
L 355.358977 170.3689 
L 357.398264 167.485929 
L 359.437551 170.884182 
L 361.476839 166.298216 
L 363.516126 165.829186 
L 365.555413 169.876625 
L 367.594701 166.939278 
L 369.633988 170.003246 
L 371.673275 165.493261 
L 373.712563 171.573915 
L 375.75185 175.780872 
L 377.791138 173.780571 
L 379.830425 166.102329 
L 381.869712 178.182381 
L 383.909 171.181695 
L 385.948287 169.452104 
L 387.987574 168.32072 
L 390.026862 171.819498 
L 392.066149 171.629404 
L 394.105436 171.879537 
L 396.144724 249.323235 
L 398.184011 164.552214 
L 400.223298 170.747608 
L 402.262586 171.194124 
L 404.301873 170.012858 
L 406.34116 167.169476 
L 408.380448 172.412226 
L 410.419735 166.200046 
L 412.459022 171.497562 
L 414.49831 164.843136 
L 416.537597 166.63832 
L 418.576884 160.623956 
L 420.616172 168.256232 
L 422.655459 167.045073 
L 424.694746 171.324716 
L 426.734034 167.33327 
L 428.773321 171.930631 
L 430.812608 175.491004 
L 432.851896 171.763672 
L 434.891183 173.385989 
L 436.930471 178.055707 
L 438.969758 170.427876 
L 441.009045 178.118897 
L 443.048333 171.742195 
L 445.08762 174.147867 
L 447.126907 175.267782 
L 449.166195 163.405421 
L 451.205482 169.139391 
L 453.244769 173.032372 
L 455.284057 178.351971 
L 457.323344 180.049229 
L 459.362631 173.354423 
L 461.401919 172.791832 
L 463.441206 176.707425 
L 465.480493 174.872077 
L 467.519781 174.824503 
L 469.559068 175.307656 
L 471.598355 170.251293 
L 473.637643 175.227809 
L 475.67693 177.760153 
L 477.716217 179.37526 
L 479.755505 173.149278 
L 481.794792 176.334137 
L 483.834079 170.483285 
L 485.873367 173.662728 
L 487.912654 177.793133 
L 489.951942 172.482329 
L 491.991229 168.9293 
L 494.030516 168.446035 
L 496.069804 173.644673 
L 498.109091 176.145139 
L 498.109091 176.145139 
" clip-path="url(#p903c3b9164)" style="fill: none; stroke: #ff0000; stroke-opacity: 0.9; stroke-width: 1.5; stroke-linecap: square"/>
   </g>
   <g id="line2d_39">
    <path d="M 92.290909 170.313487 
L 94.330196 168.553768 
L 96.369484 165.165749 
L 98.408771 163.08062 
L 100.448058 166.392154 
L 102.487346 164.492719 
L 104.526633 167.123682 
L 106.565921 162.936769 
L 108.605208 164.00105 
L 110.644495 174.094754 
L 112.683783 248.127328 
L 114.72307 161.31409 
L 116.762357 162.539939 
L 118.801645 169.021989 
L 120.840932 160.491982 
L 122.880219 167.228936 
L 124.919507 165.138218 
L 126.958794 179.79881 
L 128.998081 162.613263 
L 131.037369 165.53363 
L 133.076656 172.975376 
L 135.115943 166.554653 
L 139.194518 165.15167 
L 141.233805 166.781886 
L 143.273093 164.115397 
L 145.31238 161.039269 
L 147.351667 161.116436 
L 149.390955 163.734762 
L 151.430242 162.105602 
L 153.469529 162.972814 
L 155.508817 167.11853 
L 157.548104 163.419148 
L 159.587392 164.772965 
L 161.626679 167.903514 
L 163.665966 167.287219 
L 165.705254 248.305456 
L 167.744541 163.107272 
L 169.783828 167.243697 
L 171.823116 165.698764 
L 173.862403 166.117 
L 175.90169 171.407331 
L 177.940978 170.502907 
L 179.980265 183.231409 
L 182.019552 168.409184 
L 184.05884 172.369833 
L 186.098127 188.279131 
L 188.137414 171.671529 
L 190.176702 173.811394 
L 192.215989 195.664131 
L 198.333851 186.715021 
L 200.373138 172.081712 
L 202.412426 164.140838 
L 204.451713 166.208571 
L 206.491 166.403152 
L 208.530288 172.943537 
L 210.569575 165.535223 
L 212.608862 162.922705 
L 214.64815 166.731504 
L 216.687437 160.454181 
L 218.726725 165.221052 
L 220.766012 165.9871 
L 222.805299 169.406031 
L 224.844587 162.005171 
L 226.883874 176.937339 
L 228.923161 186.026963 
L 230.962449 165.17214 
L 233.001736 169.875409 
L 235.041023 166.531639 
L 237.080311 165.562156 
L 239.119598 167.780967 
L 241.158885 164.920855 
L 243.198173 170.076066 
L 245.23746 161.32078 
L 247.276747 163.308508 
L 249.316035 164.499946 
L 251.355322 168.620925 
L 253.394609 164.896671 
L 255.433897 162.328791 
L 257.473184 168.596703 
L 259.512471 162.992694 
L 261.551759 161.721885 
L 263.591046 163.803005 
L 265.630333 167.197502 
L 267.669621 163.13213 
L 269.708908 164.228915 
L 271.748196 164.183837 
L 273.787483 165.941011 
L 275.82677 161.799528 
L 277.866058 248.876469 
L 279.905345 168.457847 
L 281.944632 163.784496 
L 283.98392 162.114017 
L 286.023207 169.465873 
L 288.062494 170.303015 
L 290.101782 168.514509 
L 292.141069 170.618859 
L 294.180356 165.906697 
L 296.219644 167.287147 
L 298.258931 174.144946 
L 300.298218 167.888829 
L 302.337506 165.422648 
L 304.376793 170.091251 
L 306.41608 162.984637 
L 308.455368 166.496976 
L 310.494655 166.168135 
L 312.533942 162.514638 
L 314.57323 248.677183 
L 316.612517 160.804695 
L 318.651804 161.548005 
L 320.691092 161.994722 
L 322.730379 164.065871 
L 324.769667 163.722761 
L 326.808954 163.86716 
L 328.848241 165.107322 
L 330.887529 165.833619 
L 332.926816 163.510917 
L 334.966103 165.18932 
L 337.005391 160.765467 
L 339.044678 162.237186 
L 341.083965 161.53265 
L 343.123253 162.434144 
L 345.16254 163.88741 
L 347.201827 163.088051 
L 349.241115 249.35945 
L 351.280402 163.563714 
L 353.319689 161.801872 
L 355.358977 169.900472 
L 357.398264 167.015593 
L 359.437551 171.74031 
L 361.476839 167.479618 
L 363.516126 166.623044 
L 365.555413 169.563487 
L 367.594701 166.650222 
L 369.633988 169.443779 
L 371.673275 164.595675 
L 373.712563 170.723878 
L 375.75185 175.842725 
L 377.791138 173.68674 
L 379.830425 165.259479 
L 381.869712 177.446569 
L 383.909 171.135739 
L 385.948287 169.170071 
L 387.987574 167.371904 
L 390.026862 170.752836 
L 394.105436 172.273408 
L 396.144724 248.922474 
L 398.184011 165.475472 
L 400.223298 169.861584 
L 402.262586 170.695875 
L 404.301873 170.32071 
L 406.34116 167.34172 
L 408.380448 172.198781 
L 410.419735 166.145745 
L 412.459022 170.442833 
L 414.49831 164.685566 
L 416.537597 165.61086 
L 418.576884 160.600988 
L 420.616172 168.041231 
L 422.655459 166.771948 
L 424.694746 170.785943 
L 426.734034 167.089879 
L 428.773321 171.328714 
L 430.812608 174.577254 
L 432.851896 171.507947 
L 434.891183 173.124457 
L 436.930471 177.625344 
L 438.969758 170.727554 
L 441.009045 177.543602 
L 443.048333 171.575179 
L 445.08762 173.734098 
L 447.126907 175.058187 
L 449.166195 163.159547 
L 451.205482 168.594617 
L 453.244769 172.038701 
L 455.284057 177.790714 
L 457.323344 178.99625 
L 459.362631 174.04547 
L 461.401919 172.69089 
L 463.441206 175.521489 
L 465.480493 174.688512 
L 467.519781 175.295044 
L 469.559068 175.330297 
L 471.598355 168.89349 
L 473.637643 174.382634 
L 475.67693 177.672095 
L 477.716217 177.940567 
L 479.755505 172.971897 
L 481.794792 176.056266 
L 483.834079 169.813761 
L 487.912654 177.016018 
L 489.951942 171.838113 
L 491.991229 168.539235 
L 494.030516 167.760841 
L 496.069804 173.826463 
L 498.109091 175.337585 
L 498.109091 175.337585 
" clip-path="url(#p903c3b9164)" style="fill: none; stroke: #008000; stroke-opacity: 0.9; stroke-width: 1.5; stroke-linecap: square"/>
   </g>
   <g id="line2d_40">
    <path d="M 438.969758 256.32 
L 438.969758 155.52 
" clip-path="url(#p903c3b9164)" style="fill: none; stroke-dasharray: 5.55,2.4; stroke-dashoffset: 0; stroke: #0000ff; stroke-width: 1.5"/>
   </g>
   <g id="line2d_41">
    <path d="M 153.469529 256.32 
L 153.469529 155.52 
" clip-path="url(#p903c3b9164)" style="fill: none; stroke-dasharray: 5.55,2.4; stroke-dashoffset: 0; stroke: #000000; stroke-width: 1.5"/>
   </g>
   <g id="patch_8">
    <path d="M 72 256.32 
L 72 155.52 
" style="fill: none; stroke: #000000; stroke-width: 0.8; stroke-linejoin: miter; stroke-linecap: square"/>
   </g>
   <g id="patch_9">
    <path d="M 518.4 256.32 
L 518.4 155.52 
" style="fill: none; stroke: #000000; stroke-width: 0.8; stroke-linejoin: miter; stroke-linecap: square"/>
   </g>
   <g id="patch_10">
    <path d="M 72 256.32 
L 518.4 256.32 
" style="fill: none; stroke: #000000; stroke-width: 0.8; stroke-linejoin: miter; stroke-linecap: square"/>
   </g>
   <g id="patch_11">
    <path d="M 72 155.52 
L 518.4 155.52 
" style="fill: none; stroke: #000000; stroke-width: 0.8; stroke-linejoin: miter; stroke-linecap: square"/>
   </g>
  </g>
 </g>
 <defs>
  <clipPath id="pf2750f7249">
   <rect x="72" y="34.56" width="446.4" height="100.8"/>
  </clipPath>
  <clipPath id="p903c3b9164">
   <rect x="72" y="155.52" width="446.4" height="100.8"/>
  </clipPath>
 </defs>
</svg>
