<?xml version="1.0" encoding="utf-8" standalone="no"?>
<!DOCTYPE svg PUBLIC "-//W3C//DTD SVG 1.1//EN"
  "http://www.w3.org/Graphics/SVG/1.1/DTD/svg11.dtd">
<svg xmlns:xlink="http://www.w3.org/1999/xlink" width="576pt" height="288pt" viewBox="0 0 576 288" xmlns="http://www.w3.org/2000/svg" version="1.1">
 <metadata>
  <rdf:RDF xmlns:dc="http://purl.org/dc/elements/1.1/" xmlns:cc="http://creativecommons.org/ns#" xmlns:rdf="http://www.w3.org/1999/02/22-rdf-syntax-ns#">
   <cc:Work>
    <dc:type rdf:resource="http://purl.org/dc/dcmitype/StillImage"/>
    <dc:date>2025-05-07T09:54:44.001061</dc:date>
    <dc:format>image/svg+xml</dc:format>
    <dc:creator>
     <cc:Agent>
      <dc:title>Matplotlib v3.10.0, https://matplotlib.org/</dc:title>
     </cc:Agent>
    </dc:creator>
   </cc:Work>
  </rdf:RDF>
 </metadata>
 <defs>
  <style type="text/css">*{stroke-linejoin: round; stroke-linecap: butt}</style>
 </defs>
 <g id="figure_1">
  <g id="patch_1">
   <path d="M 0 288 
L 576 288 
L 576 0 
L 0 0 
z
" style="fill: #ffffff"/>
  </g>
  <g id="axes_1">
   <g id="patch_2">
    <path d="M 72 135.36 
L 518.4 135.36 
L 518.4 34.56 
L 72 34.56 
z
" style="fill: #ffffff"/>
   </g>
   <g id="matplotlib.axis_1">
    <g id="xtick_1">
     <g id="line2d_1">
      <defs>
       <path id="m746207c060" d="M 0 0 
L 0 3.5 
" style="stroke: #000000; stroke-width: 0.8"/>
      </defs>
      <g>
       <use xlink:href="#m746207c060" x="92.290909" y="135.36" style="stroke: #000000; stroke-width: 0.8"/>
      </g>
     </g>
    </g>
    <g id="xtick_2">
     <g id="line2d_2">
      <g>
       <use xlink:href="#m746207c060" x="143.273093" y="135.36" style="stroke: #000000; stroke-width: 0.8"/>
      </g>
     </g>
    </g>
    <g id="xtick_3">
     <g id="line2d_3">
      <g>
       <use xlink:href="#m746207c060" x="194.255276" y="135.36" style="stroke: #000000; stroke-width: 0.8"/>
      </g>
     </g>
    </g>
    <g id="xtick_4">
     <g id="line2d_4">
      <g>
       <use xlink:href="#m746207c060" x="245.23746" y="135.36" style="stroke: #000000; stroke-width: 0.8"/>
      </g>
     </g>
    </g>
    <g id="xtick_5">
     <g id="line2d_5">
      <g>
       <use xlink:href="#m746207c060" x="296.219644" y="135.36" style="stroke: #000000; stroke-width: 0.8"/>
      </g>
     </g>
    </g>
    <g id="xtick_6">
     <g id="line2d_6">
      <g>
       <use xlink:href="#m746207c060" x="347.201827" y="135.36" style="stroke: #000000; stroke-width: 0.8"/>
      </g>
     </g>
    </g>
    <g id="xtick_7">
     <g id="line2d_7">
      <g>
       <use xlink:href="#m746207c060" x="398.184011" y="135.36" style="stroke: #000000; stroke-width: 0.8"/>
      </g>
     </g>
    </g>
    <g id="xtick_8">
     <g id="line2d_8">
      <g>
       <use xlink:href="#m746207c060" x="449.166195" y="135.36" style="stroke: #000000; stroke-width: 0.8"/>
      </g>
     </g>
    </g>
    <g id="xtick_9">
     <g id="line2d_9">
      <g>
       <use xlink:href="#m746207c060" x="500.148378" y="135.36" style="stroke: #000000; stroke-width: 0.8"/>
      </g>
     </g>
    </g>
   </g>
   <g id="matplotlib.axis_2">
    <g id="ytick_1">
     <g id="line2d_10">
      <defs>
       <path id="me0d9089f48" d="M 0 0 
L -3.5 0 
" style="stroke: #000000; stroke-width: 0.8"/>
      </defs>
      <g>
       <use xlink:href="#me0d9089f48" x="72" y="116.784594" style="stroke: #000000; stroke-width: 0.8"/>
      </g>
     </g>
     <g id="text_1">
      <!-- −150 -->
      <g transform="translate(37.532812 120.583813) scale(0.1 -0.1)">
       <defs>
        <path id="DejaVuSans-2212" d="M 678 2272 
L 4684 2272 
L 4684 1741 
L 678 1741 
L 678 2272 
z
" transform="scale(0.015625)"/>
        <path id="DejaVuSans-31" d="M 794 531 
L 1825 531 
L 1825 4091 
L 703 3866 
L 703 4441 
L 1819 4666 
L 2450 4666 
L 2450 531 
L 3481 531 
L 3481 0 
L 794 0 
L 794 531 
z
" transform="scale(0.015625)"/>
        <path id="DejaVuSans-35" d="M 691 4666 
L 3169 4666 
L 3169 4134 
L 1269 4134 
L 1269 2991 
Q 1406 3038 1543 3061 
Q 1681 3084 1819 3084 
Q 2600 3084 3056 2656 
Q 3513 2228 3513 1497 
Q 3513 744 3044 326 
Q 2575 -91 1722 -91 
Q 1428 -91 1123 -41 
Q 819 9 494 109 
L 494 744 
Q 775 591 1075 516 
Q 1375 441 1709 441 
Q 2250 441 2565 725 
Q 2881 1009 2881 1497 
Q 2881 1984 2565 2268 
Q 2250 2553 1709 2553 
Q 1456 2553 1204 2497 
Q 953 2441 691 2322 
L 691 4666 
z
" transform="scale(0.015625)"/>
        <path id="DejaVuSans-30" d="M 2034 4250 
Q 1547 4250 1301 3770 
Q 1056 3291 1056 2328 
Q 1056 1369 1301 889 
Q 1547 409 2034 409 
Q 2525 409 2770 889 
Q 3016 1369 3016 2328 
Q 3016 3291 2770 3770 
Q 2525 4250 2034 4250 
z
M 2034 4750 
Q 2819 4750 3233 4129 
Q 3647 3509 3647 2328 
Q 3647 1150 3233 529 
Q 2819 -91 2034 -91 
Q 1250 -91 836 529 
Q 422 1150 422 2328 
Q 422 3509 836 4129 
Q 1250 4750 2034 4750 
z
" transform="scale(0.015625)"/>
       </defs>
       <use xlink:href="#DejaVuSans-2212"/>
       <use xlink:href="#DejaVuSans-31" transform="translate(83.789062 0)"/>
       <use xlink:href="#DejaVuSans-35" transform="translate(147.412109 0)"/>
       <use xlink:href="#DejaVuSans-30" transform="translate(211.035156 0)"/>
      </g>
     </g>
    </g>
    <g id="ytick_2">
     <g id="line2d_11">
      <g>
       <use xlink:href="#me0d9089f48" x="72" y="77.731002" style="stroke: #000000; stroke-width: 0.8"/>
      </g>
     </g>
     <g id="text_2">
      <!-- −100 -->
      <g transform="translate(37.532812 81.530221) scale(0.1 -0.1)">
       <use xlink:href="#DejaVuSans-2212"/>
       <use xlink:href="#DejaVuSans-31" transform="translate(83.789062 0)"/>
       <use xlink:href="#DejaVuSans-30" transform="translate(147.412109 0)"/>
       <use xlink:href="#DejaVuSans-30" transform="translate(211.035156 0)"/>
      </g>
     </g>
    </g>
    <g id="ytick_3">
     <g id="line2d_12">
      <g>
       <use xlink:href="#me0d9089f48" x="72" y="38.67741" style="stroke: #000000; stroke-width: 0.8"/>
      </g>
     </g>
     <g id="text_3">
      <!-- −50 -->
      <g transform="translate(43.895313 42.476629) scale(0.1 -0.1)">
       <use xlink:href="#DejaVuSans-2212"/>
       <use xlink:href="#DejaVuSans-35" transform="translate(83.789062 0)"/>
       <use xlink:href="#DejaVuSans-30" transform="translate(147.412109 0)"/>
      </g>
     </g>
    </g>
   </g>
   <g id="line2d_13">
    <path d="M 92.290909 62.207539 
L 94.330196 105.878704 
L 96.369484 130.251194 
L 98.408771 105.04785 
L 100.448058 89.589925 
L 102.487346 107.756359 
L 104.526633 98.298997 
L 106.565921 67.734591 
L 108.605208 115.557507 
L 110.644495 46.184286 
L 112.683783 81.893157 
L 114.72307 123.695213 
L 116.762357 122.41944 
L 118.801645 111.964715 
L 120.840932 68.486624 
L 122.880219 117.189408 
L 124.919507 69.452935 
L 126.958794 66.335864 
L 128.998081 88.629365 
L 131.037369 64.698028 
L 133.076656 52.682183 
L 135.115943 53.821296 
L 137.155231 109.22237 
L 139.194518 108.346858 
L 141.233805 127.099936 
L 143.273093 122.439022 
L 145.31238 120.871229 
L 147.351667 116.760197 
L 149.390955 118.06772 
L 151.430242 110.773108 
L 153.469529 107.608919 
L 155.508817 112.436223 
L 157.548104 129.018327 
L 159.587392 110.478859 
L 161.626679 122.238629 
L 163.665966 98.611665 
L 165.705254 93.865035 
L 167.744541 111.750473 
L 169.783828 48.046682 
L 171.823116 54.88921 
L 173.862403 75.124358 
L 175.90169 48.14173 
L 177.940978 43.273108 
L 179.980265 70.627814 
L 182.019552 67.515838 
L 184.05884 71.007749 
L 186.098127 64.910589 
L 188.137414 57.445785 
L 190.176702 67.438197 
L 192.215989 60.516476 
L 194.255276 48.886716 
L 196.294564 68.884132 
L 198.333851 75.269087 
L 200.373138 96.775236 
L 202.412426 71.282738 
L 204.451713 53.586913 
L 206.491 44.875982 
L 208.530288 76.380436 
L 210.569575 57.299358 
L 212.608862 111.217324 
L 214.64815 109.211167 
L 216.687437 94.222587 
L 218.726725 92.574484 
L 220.766012 109.724318 
L 222.805299 121.719234 
L 224.844587 121.407894 
L 226.883874 67.955442 
L 228.923161 60.098963 
L 230.962449 81.029492 
L 233.001736 74.214272 
L 235.041023 41.933012 
L 237.080311 60.518943 
L 239.119598 52.940147 
L 241.158885 75.435596 
L 243.198173 50.949049 
L 245.23746 84.1458 
L 247.276747 50.15075 
L 249.316035 99.444527 
L 251.355322 75.106582 
L 253.394609 112.148934 
L 257.473184 69.302181 
L 259.512471 64.7269 
L 261.551759 57.951576 
L 263.591046 68.986909 
L 265.630333 67.503479 
L 267.669621 59.773715 
L 269.708908 49.798668 
L 271.748196 41.923731 
L 273.787483 60.125845 
L 275.82677 49.186534 
L 277.866058 66.36147 
L 279.905345 56.550876 
L 281.944632 78.357137 
L 283.98392 64.44911 
L 286.023207 60.29966 
L 288.062494 54.1413 
L 290.101782 68.821151 
L 292.141069 75.573597 
L 294.180356 53.303462 
L 296.219644 42.287165 
L 298.258931 80.833193 
L 300.298218 56.320813 
L 302.337506 63.002394 
L 304.376793 59.312832 
L 306.41608 44.749878 
L 308.455368 47.56965 
L 310.494655 51.059751 
L 312.533942 57.82007 
L 314.57323 72.359411 
L 316.612517 40.223223 
L 318.651804 56.03126 
L 320.691092 46.075833 
L 322.730379 43.130143 
L 324.769667 55.453239 
L 326.808954 62.943542 
L 328.848241 46.910993 
L 330.887529 45.349373 
L 332.926816 50.009841 
L 334.966103 45.067061 
L 337.005391 56.283217 
L 339.044678 47.46648 
L 343.123253 52.447681 
L 345.16254 48.417886 
L 347.201827 53.70799 
L 349.241115 54.219621 
L 351.280402 42.063621 
L 353.319689 52.301409 
L 355.358977 54.830399 
L 357.398264 63.602786 
L 359.437551 82.739213 
L 361.476839 49.894848 
L 363.516126 56.372264 
L 365.555413 44.985805 
L 367.594701 69.311412 
L 369.633988 53.501543 
L 371.673275 60.001323 
L 373.712563 52.747471 
L 375.75185 68.770039 
L 377.791138 51.177611 
L 379.830425 92.00754 
L 381.869712 67.036309 
L 383.909 70.273301 
L 385.948287 102.299999 
L 387.987574 72.809472 
L 390.026862 78.737185 
L 392.066149 61.805037 
L 394.105436 64.047258 
L 396.144724 98.944898 
L 398.184011 84.473122 
L 400.223298 85.386134 
L 402.262586 57.1953 
L 404.301873 81.217502 
L 406.34116 73.327766 
L 408.380448 68.278544 
L 410.419735 50.644354 
L 412.459022 68.940875 
L 414.49831 106.358531 
L 416.537597 79.110088 
L 418.576884 115.017993 
L 420.616172 100.694128 
L 422.655459 83.235684 
L 424.694746 80.088645 
L 426.734034 65.959719 
L 428.773321 67.248179 
L 430.812608 63.109902 
L 432.851896 61.200891 
L 434.891183 68.860451 
L 436.930471 59.507743 
L 438.969758 61.084742 
L 441.009045 71.641738 
L 443.048333 47.480492 
L 445.08762 62.489583 
L 447.126907 70.011184 
L 449.166195 66.865861 
L 451.205482 56.339566 
L 453.244769 64.164926 
L 455.284057 62.57347 
L 457.323344 55.950282 
L 459.362631 52.459521 
L 461.401919 59.020615 
L 463.441206 60.691709 
L 465.480493 63.361162 
L 467.519781 60.623359 
L 469.559068 53.958618 
L 471.598355 67.763809 
L 473.637643 68.815579 
L 475.67693 72.336921 
L 477.716217 50.24749 
L 479.755505 65.25111 
L 481.794792 60.802036 
L 483.834079 63.076782 
L 485.873367 68.510693 
L 487.912654 67.848041 
L 489.951942 46.338606 
L 491.991229 53.4466 
L 494.030516 43.699604 
L 496.069804 62.423854 
L 498.109091 58.330313 
L 498.109091 58.330313 
" clip-path="url(#p1a1ad76fee)" style="fill: none; stroke: #ff0000; stroke-opacity: 0.9; stroke-width: 1.5; stroke-linecap: square"/>
   </g>
   <g id="line2d_14">
    <path d="M 92.290909 61.628052 
L 94.330196 105.383372 
L 96.369484 130.472504 
L 98.408771 105.1106 
L 100.448058 89.591052 
L 102.487346 107.352248 
L 104.526633 98.94876 
L 106.565921 68.124126 
L 108.605208 115.304185 
L 110.644495 45.80958 
L 112.683783 82.098549 
L 114.72307 123.984123 
L 116.762357 122.392493 
L 118.801645 112.102394 
L 120.840932 68.589449 
L 122.880219 116.788837 
L 124.919507 70.012572 
L 126.958794 66.145053 
L 128.998081 88.224384 
L 131.037369 64.450558 
L 133.076656 52.975181 
L 135.115943 54.004032 
L 137.155231 108.569026 
L 139.194518 108.227128 
L 141.233805 126.536681 
L 143.273093 122.021038 
L 145.31238 121.576847 
L 147.351667 117.226223 
L 149.390955 117.846554 
L 151.430242 110.180535 
L 153.469529 107.476007 
L 155.508817 112.557503 
L 157.548104 129.135304 
L 159.587392 109.52284 
L 161.626679 122.103262 
L 163.665966 98.888877 
L 165.705254 94.29853 
L 167.744541 111.843149 
L 169.783828 48.475583 
L 171.823116 55.006085 
L 173.862403 74.888032 
L 175.90169 47.862888 
L 177.940978 43.105383 
L 179.980265 70.676005 
L 182.019552 66.917026 
L 184.05884 71.166476 
L 186.098127 64.699571 
L 188.137414 57.334463 
L 190.176702 67.326506 
L 192.215989 60.553303 
L 194.255276 48.733105 
L 196.294564 69.339712 
L 198.333851 75.586672 
L 200.373138 96.727932 
L 202.412426 71.462339 
L 204.451713 53.656062 
L 206.491 44.956275 
L 208.530288 76.887509 
L 210.569575 57.226996 
L 212.608862 111.059443 
L 214.64815 109.189011 
L 216.687437 94.016611 
L 218.726725 92.500704 
L 220.766012 109.910563 
L 222.805299 122.082656 
L 224.844587 121.499438 
L 226.883874 67.856234 
L 228.923161 59.782952 
L 230.962449 80.368335 
L 233.001736 73.440047 
L 235.041023 41.182809 
L 237.080311 61.053052 
L 239.119598 52.999178 
L 241.158885 75.084778 
L 243.198173 51.387502 
L 245.23746 84.342033 
L 247.276747 50.070474 
L 249.316035 99.040971 
L 251.355322 75.309108 
L 253.394609 112.166943 
L 257.473184 69.797812 
L 259.512471 65.086949 
L 261.551759 57.760479 
L 263.591046 68.690885 
L 265.630333 67.696471 
L 267.669621 59.947924 
L 269.708908 50.345809 
L 271.748196 41.833251 
L 273.787483 59.866183 
L 275.82677 49.745572 
L 277.866058 66.597731 
L 279.905345 57.118576 
L 281.944632 78.334916 
L 283.98392 65.096436 
L 286.023207 60.093922 
L 288.062494 54.299091 
L 290.101782 68.645423 
L 292.141069 75.067228 
L 294.180356 53.538167 
L 296.219644 42.87021 
L 298.258931 80.291183 
L 300.298218 57.551672 
L 302.337506 62.888444 
L 304.376793 59.763817 
L 306.41608 45.062246 
L 308.455368 47.583892 
L 310.494655 50.928043 
L 312.533942 57.786497 
L 314.57323 72.205338 
L 316.612517 40.179942 
L 318.651804 55.963511 
L 320.691092 45.808999 
L 322.730379 42.820663 
L 324.769667 55.671271 
L 326.808954 63.42216 
L 328.848241 46.772801 
L 330.887529 45.373031 
L 332.926816 49.781142 
L 334.966103 44.538929 
L 337.005391 56.380857 
L 339.044678 46.898255 
L 341.083965 49.888352 
L 343.123253 52.166107 
L 345.16254 48.056059 
L 347.201827 53.977717 
L 349.241115 54.022303 
L 351.280402 42.155856 
L 353.319689 52.819642 
L 355.358977 55.638305 
L 357.398264 64.110978 
L 359.437551 82.335561 
L 361.476839 49.545531 
L 363.516126 56.437486 
L 365.555413 45.316622 
L 367.594701 69.831141 
L 369.633988 53.541129 
L 371.673275 59.873685 
L 373.712563 53.174835 
L 375.75185 69.136399 
L 377.791138 51.48842 
L 379.830425 91.562097 
L 381.869712 67.866281 
L 383.909 69.829985 
L 385.948287 100.735019 
L 387.987574 73.26206 
L 390.026862 78.685984 
L 392.066149 62.128724 
L 394.105436 64.059081 
L 396.144724 98.709502 
L 398.184011 84.003485 
L 400.223298 85.561606 
L 402.262586 56.606421 
L 404.301873 80.977683 
L 406.34116 72.588652 
L 408.380448 68.288556 
L 410.419735 50.216794 
L 412.459022 69.283029 
L 414.49831 106.899273 
L 416.537597 78.930534 
L 418.576884 115.540309 
L 420.616172 100.589891 
L 422.655459 83.655068 
L 424.694746 80.192947 
L 426.734034 65.677305 
L 428.773321 67.140474 
L 430.812608 62.74275 
L 432.851896 60.873051 
L 434.891183 69.168852 
L 436.930471 58.999991 
L 438.969758 61.595515 
L 441.009045 72.017853 
L 443.048333 46.99546 
L 445.08762 62.311031 
L 447.126907 69.892341 
L 449.166195 66.915989 
L 451.205482 56.049167 
L 453.244769 64.178388 
L 455.284057 62.61131 
L 457.323344 55.667856 
L 459.362631 52.823414 
L 461.401919 59.108888 
L 463.441206 60.81026 
L 465.480493 63.571596 
L 467.519781 60.859542 
L 469.559068 53.640664 
L 471.598355 67.462904 
L 473.637643 68.104532 
L 475.67693 71.858191 
L 477.716217 50.15066 
L 479.755505 65.341516 
L 481.794792 60.482032 
L 483.834079 62.677122 
L 485.873367 67.991262 
L 487.912654 66.869299 
L 489.951942 46.263819 
L 491.991229 53.917482 
L 494.030516 43.325158 
L 496.069804 62.142275 
L 498.109091 58.707411 
L 498.109091 58.707411 
" clip-path="url(#p1a1ad76fee)" style="fill: none; stroke: #ff0000; stroke-opacity: 0.9; stroke-width: 1.5; stroke-linecap: square"/>
   </g>
   <g id="line2d_15">
    <path d="M 92.290909 61.248439 
L 94.330196 106.071815 
L 96.369484 130.778182 
L 98.408771 104.805684 
L 100.448058 89.09405 
L 102.487346 107.411791 
L 104.526633 98.357759 
L 106.565921 67.900934 
L 108.605208 116.014213 
L 110.644495 45.097393 
L 112.683783 81.888813 
L 114.72307 123.753064 
L 116.762357 121.988919 
L 118.801645 112.475767 
L 120.840932 68.074624 
L 122.880219 117.232075 
L 124.919507 70.12598 
L 126.958794 67.215505 
L 128.998081 88.045862 
L 131.037369 64.869829 
L 133.076656 52.084241 
L 135.115943 53.429145 
L 137.155231 109.088409 
L 139.194518 108.782636 
L 141.233805 126.120664 
L 143.273093 122.384317 
L 145.31238 121.409587 
L 147.351667 117.275219 
L 149.390955 118.412609 
L 151.430242 110.454892 
L 153.469529 107.670309 
L 155.508817 112.513322 
L 157.548104 129.515614 
L 159.587392 109.796792 
L 161.626679 122.061548 
L 163.665966 98.398061 
L 165.705254 94.027665 
L 167.744541 112.113382 
L 169.783828 48.126975 
L 171.823116 54.990818 
L 173.862403 75.278073 
L 175.90169 48.339372 
L 177.940978 42.697715 
L 179.980265 70.696707 
L 182.019552 67.286276 
L 184.05884 71.210567 
L 186.098127 64.963023 
L 188.137414 56.932527 
L 190.176702 67.215887 
L 192.215989 60.430105 
L 194.255276 48.552273 
L 196.294564 69.570979 
L 198.333851 74.907268 
L 200.373138 96.893077 
L 202.412426 71.221293 
L 204.451713 53.806011 
L 206.491 45.667953 
L 208.530288 76.840652 
L 210.569575 57.26346 
L 212.608862 111.216168 
L 214.64815 109.667682 
L 216.687437 93.419431 
L 218.726725 92.288828 
L 220.766012 110.132767 
L 222.805299 121.451825 
L 224.844587 120.961974 
L 226.883874 67.795517 
L 228.923161 59.67766 
L 230.962449 79.78557 
L 233.001736 73.577381 
L 235.041023 42.227494 
L 237.080311 60.683569 
L 239.119598 52.4967 
L 241.158885 74.723853 
L 243.198173 51.345282 
L 245.23746 85.316287 
L 247.276747 50.063711 
L 249.316035 99.366088 
L 251.355322 74.580507 
L 253.394609 111.577933 
L 257.473184 69.278625 
L 259.512471 65.21787 
L 261.551759 58.164387 
L 263.591046 69.197105 
L 265.630333 67.113295 
L 267.669621 59.959341 
L 269.708908 49.417151 
L 271.748196 42.04589 
L 273.787483 60.382497 
L 275.82677 49.73981 
L 277.866058 66.315204 
L 279.905345 56.367479 
L 281.944632 78.500787 
L 283.98392 65.076276 
L 286.023207 60.108438 
L 288.062494 54.608905 
L 290.101782 69.390817 
L 292.141069 75.119925 
L 294.180356 53.459882 
L 296.219644 42.636747 
L 298.258931 80.952137 
L 300.298218 56.922575 
L 302.337506 62.420482 
L 304.376793 59.43124 
L 306.41608 44.923199 
L 308.455368 46.924419 
L 310.494655 50.593702 
L 312.533942 58.112859 
L 314.57323 72.784265 
L 316.612517 40.322144 
L 318.651804 55.829616 
L 320.691092 45.32506 
L 322.730379 42.935557 
L 324.769667 55.767605 
L 326.808954 63.720687 
L 328.848241 46.72986 
L 330.887529 45.5003 
L 332.926816 49.111863 
L 334.966103 44.925118 
L 337.005391 55.790524 
L 339.044678 47.189777 
L 341.083965 49.413221 
L 343.123253 52.116307 
L 345.16254 47.872867 
L 347.201827 53.566479 
L 349.241115 54.544577 
L 351.280402 41.38201 
L 353.319689 52.329553 
L 355.358977 55.518324 
L 357.398264 64.783952 
L 359.437551 83.276587 
L 361.476839 49.991868 
L 363.516126 56.687745 
L 365.555413 44.55099 
L 367.594701 69.946468 
L 369.633988 53.596471 
L 371.673275 59.70661 
L 373.712563 53.343549 
L 375.75185 69.260688 
L 377.791138 51.925413 
L 379.830425 91.756793 
L 381.869712 67.008587 
L 383.909 69.759882 
L 385.948287 101.021855 
L 387.987574 73.153903 
L 390.026862 78.543377 
L 392.066149 62.287457 
L 394.105436 63.847395 
L 396.144724 98.379778 
L 398.184011 84.116571 
L 400.223298 85.003023 
L 402.262586 56.220509 
L 404.301873 80.962357 
L 406.34116 73.416151 
L 408.380448 68.345334 
L 410.419735 50.280152 
L 412.459022 69.160641 
L 414.49831 106.744157 
L 416.537597 79.003182 
L 418.576884 115.087715 
L 420.616172 100.493819 
L 422.655459 83.283345 
L 424.694746 80.113154 
L 426.734034 65.620015 
L 428.773321 66.64743 
L 430.812608 63.805819 
L 432.851896 61.472448 
L 434.891183 68.660249 
L 436.930471 59.628843 
L 438.969758 61.961011 
L 441.009045 71.884011 
L 443.048333 46.872828 
L 445.08762 61.404991 
L 447.126907 69.674959 
L 449.166195 67.065223 
L 451.205482 56.633475 
L 453.244769 63.807237 
L 455.284057 62.559901 
L 457.323344 55.894457 
L 459.362631 52.611812 
L 461.401919 58.586131 
L 463.441206 60.409033 
L 465.480493 62.681192 
L 467.519781 60.897316 
L 469.559068 53.56627 
L 471.598355 68.156859 
L 473.637643 68.147396 
L 475.67693 71.760074 
L 477.716217 50.468567 
L 479.755505 65.140968 
L 481.794792 60.541314 
L 483.834079 62.544497 
L 485.873367 68.469236 
L 487.912654 66.923652 
L 489.951942 47.164019 
L 491.991229 53.463851 
L 494.030516 43.785677 
L 496.069804 62.934532 
L 498.109091 58.728429 
L 498.109091 58.728429 
" clip-path="url(#p1a1ad76fee)" style="fill: none; stroke: #ff0000; stroke-opacity: 0.9; stroke-width: 1.5; stroke-linecap: square"/>
   </g>
   <g id="line2d_16">
    <path d="M 92.290909 61.875831 
L 94.330196 105.380893 
L 96.369484 129.842042 
L 98.408771 104.901065 
L 100.448058 88.990678 
L 102.487346 108.022206 
L 104.526633 98.102841 
L 106.565921 67.861711 
L 108.605208 116.021185 
L 110.644495 45.025618 
L 112.683783 82.144154 
L 114.72307 123.549454 
L 116.762357 122.977403 
L 118.801645 111.473243 
L 120.840932 68.179838 
L 122.880219 117.215306 
L 124.919507 69.920772 
L 126.958794 66.39822 
L 128.998081 88.756121 
L 131.037369 64.596371 
L 133.076656 52.812199 
L 135.115943 53.881334 
L 137.155231 108.888398 
L 139.194518 109.065348 
L 141.233805 126.246616 
L 143.273093 122.319184 
L 145.31238 121.383807 
L 147.351667 117.475314 
L 149.390955 118.135308 
L 151.430242 110.780223 
L 153.469529 107.540627 
L 155.508817 112.534346 
L 157.548104 129.139011 
L 159.587392 109.624228 
L 161.626679 122.472917 
L 163.665966 98.009545 
L 165.705254 94.251703 
L 167.744541 111.934752 
L 169.783828 47.73014 
L 171.823116 55.251112 
L 173.862403 75.457949 
L 175.90169 47.93221 
L 177.940978 42.671235 
L 179.980265 70.493204 
L 182.019552 67.353298 
L 184.05884 70.821098 
L 186.098127 65.124747 
L 188.137414 57.196527 
L 190.176702 67.23846 
L 192.215989 60.819485 
L 194.255276 48.683889 
L 196.294564 69.574441 
L 198.333851 75.828367 
L 200.373138 96.833009 
L 202.412426 70.90673 
L 204.451713 53.696197 
L 206.491 44.899232 
L 208.530288 77.032946 
L 210.569575 57.274413 
L 212.608862 111.451767 
L 214.64815 109.5042 
L 216.687437 93.11684 
L 218.726725 92.873672 
L 220.766012 109.903651 
L 222.805299 121.857401 
L 224.844587 121.035796 
L 226.883874 67.854965 
L 228.923161 60.03768 
L 230.962449 80.064653 
L 233.001736 73.618177 
L 235.041023 41.450915 
L 237.080311 60.933578 
L 239.119598 52.46063 
L 241.158885 75.221235 
L 243.198173 50.944925 
L 245.23746 84.7418 
L 247.276747 50.499506 
L 249.316035 99.474865 
L 251.355322 75.093395 
L 253.394609 111.98811 
L 257.473184 69.620374 
L 259.512471 65.142595 
L 261.551759 58.249185 
L 263.591046 69.03134 
L 265.630333 67.439907 
L 267.669621 59.788124 
L 269.708908 49.569209 
L 271.748196 42.172497 
L 273.787483 59.947554 
L 275.82677 49.026707 
L 277.866058 66.689537 
L 279.905345 56.829548 
L 281.944632 78.332264 
L 283.98392 65.389409 
L 288.062494 54.382179 
L 290.101782 68.528231 
L 292.141069 74.873659 
L 294.180356 52.992498 
L 296.219644 43.100246 
L 298.258931 80.837501 
L 300.298218 57.064241 
L 302.337506 62.566539 
L 304.376793 59.077459 
L 306.41608 44.688491 
L 308.455368 47.083726 
L 310.494655 50.834706 
L 312.533942 57.692504 
L 314.57323 72.762586 
L 316.612517 40.102903 
L 318.651804 56.078409 
L 320.691092 45.713948 
L 322.730379 42.325476 
L 324.769667 55.845986 
L 326.808954 63.092806 
L 328.848241 46.75577 
L 330.887529 44.80107 
L 332.926816 49.838767 
L 334.966103 44.447808 
L 337.005391 56.166764 
L 339.044678 46.946935 
L 341.083965 49.556707 
L 343.123253 52.378811 
L 345.16254 48.301386 
L 347.201827 53.881614 
L 349.241115 53.869553 
L 351.280402 42.113618 
L 353.319689 51.916415 
L 355.358977 55.040952 
L 357.398264 64.18713 
L 359.437551 82.867512 
L 361.476839 49.515998 
L 363.516126 57.3967 
L 365.555413 45.281681 
L 367.594701 69.96419 
L 369.633988 54.014949 
L 371.673275 60.509301 
L 373.712563 52.988821 
L 375.75185 68.703577 
L 377.791138 51.586328 
L 379.830425 91.454702 
L 381.869712 67.284363 
L 383.909 69.930003 
L 385.948287 101.147485 
L 387.987574 73.178418 
L 390.026862 78.76816 
L 392.066149 62.160814 
L 394.105436 63.97815 
L 396.144724 98.546478 
L 398.184011 83.927923 
L 400.223298 85.117182 
L 402.262586 56.372556 
L 404.301873 80.732067 
L 406.34116 72.641312 
L 408.380448 68.604597 
L 410.419735 50.582308 
L 412.459022 68.819917 
L 414.49831 107.024199 
L 416.537597 78.623312 
L 418.576884 115.049886 
L 420.616172 100.540478 
L 422.655459 83.864524 
L 424.694746 79.889241 
L 426.734034 65.793728 
L 428.773321 66.984495 
L 430.812608 63.098294 
L 432.851896 61.101046 
L 434.891183 68.935708 
L 436.930471 59.249141 
L 438.969758 61.051824 
L 441.009045 71.729694 
L 443.048333 47.363935 
L 445.08762 62.03712 
L 447.126907 69.804921 
L 449.166195 66.426323 
L 451.205482 56.590844 
L 453.244769 63.960708 
L 455.284057 62.908044 
L 457.323344 56.040467 
L 459.362631 52.697528 
L 461.401919 59.333558 
L 463.441206 60.805648 
L 465.480493 62.422883 
L 467.519781 60.12271 
L 469.559068 54.117488 
L 471.598355 67.579482 
L 473.637643 68.23549 
L 475.67693 71.519296 
L 477.716217 49.943605 
L 479.755505 65.441587 
L 481.794792 60.609498 
L 483.834079 62.61274 
L 485.873367 68.121564 
L 487.912654 67.06561 
L 489.951942 46.940079 
L 491.991229 53.571002 
L 494.030516 43.887182 
L 496.069804 62.455056 
L 498.109091 58.221523 
L 498.109091 58.221523 
" clip-path="url(#p1a1ad76fee)" style="fill: none; stroke: #ff0000; stroke-opacity: 0.9; stroke-width: 1.5; stroke-linecap: square"/>
   </g>
   <g id="line2d_17">
    <path d="M 92.290909 61.869372 
L 94.330196 105.592882 
L 96.369484 130.39873 
L 98.408771 104.467588 
L 100.448058 89.164386 
L 102.487346 107.020981 
L 104.526633 98.195505 
L 106.565921 68.351919 
L 108.605208 115.593071 
L 110.644495 45.177143 
L 112.683783 82.287971 
L 114.72307 123.868337 
L 116.762357 122.673715 
L 118.801645 112.539852 
L 120.840932 68.928397 
L 122.880219 117.35544 
L 124.919507 69.737423 
L 126.958794 66.287005 
L 128.998081 88.502299 
L 131.037369 64.795471 
L 133.076656 52.816907 
L 135.115943 53.544573 
L 137.155231 109.175377 
L 139.194518 108.076208 
L 141.233805 126.665779 
L 143.273093 122.422134 
L 145.31238 121.592567 
L 147.351667 117.345179 
L 149.390955 117.85877 
L 151.430242 110.254249 
L 153.469529 107.304885 
L 155.508817 113.114381 
L 157.548104 128.828386 
L 159.587392 110.173026 
L 161.626679 122.309876 
L 163.665966 98.709871 
L 165.705254 94.425161 
L 167.744541 111.935861 
L 169.783828 47.405884 
L 171.823116 54.953073 
L 173.862403 75.7551 
L 175.90169 48.038068 
L 177.940978 43.117983 
L 179.980265 70.236611 
L 182.019552 67.795303 
L 184.05884 70.927724 
L 186.098127 64.813271 
L 188.137414 57.279937 
L 190.176702 67.560436 
L 192.215989 60.451099 
L 194.255276 48.757243 
L 196.294564 69.337579 
L 198.333851 75.76877 
L 200.373138 96.663347 
L 202.412426 71.139129 
L 204.451713 53.625647 
L 206.491 44.793988 
L 208.530288 76.49904 
L 210.569575 57.243539 
L 212.608862 111.590733 
L 214.64815 109.211918 
L 216.687437 93.986064 
L 218.726725 92.746273 
L 220.766012 110.196553 
L 222.805299 121.881309 
L 224.844587 121.837069 
L 226.883874 68.231086 
L 228.923161 60.189089 
L 230.962449 79.984438 
L 233.001736 73.48505 
L 235.041023 41.409556 
L 237.080311 60.629753 
L 239.119598 52.920691 
L 241.158885 75.186029 
L 243.198173 50.906471 
L 245.23746 85.005657 
L 247.276747 50.8059 
L 249.316035 99.295508 
L 251.355322 74.891 
L 253.394609 112.636878 
L 255.433897 90.218486 
L 257.473184 69.193195 
L 259.512471 65.232071 
L 261.551759 57.571999 
L 263.591046 69.118027 
L 265.630333 68.205801 
L 267.669621 60.329444 
L 269.708908 49.920817 
L 271.748196 41.758548 
L 273.787483 60.382813 
L 275.82677 49.674009 
L 277.866058 66.27613 
L 279.905345 57.013851 
L 281.944632 78.571379 
L 283.98392 64.937435 
L 288.062494 54.56765 
L 290.101782 69.000675 
L 292.141069 74.671365 
L 294.180356 53.04284 
L 296.219644 43.366797 
L 298.258931 80.833819 
L 300.298218 57.344248 
L 302.337506 63.03269 
L 304.376793 59.297773 
L 306.41608 45.169191 
L 308.455368 47.65653 
L 310.494655 50.458633 
L 312.533942 58.57379 
L 314.57323 72.278254 
L 316.612517 40.48703 
L 318.651804 56.237046 
L 320.691092 45.927559 
L 322.730379 42.659773 
L 324.769667 55.71106 
L 326.808954 63.264231 
L 328.848241 46.466077 
L 330.887529 45.454373 
L 332.926816 49.075793 
L 334.966103 44.977001 
L 337.005391 56.32157 
L 339.044678 46.931054 
L 341.083965 49.853849 
L 343.123253 52.540965 
L 345.16254 48.150787 
L 347.201827 53.829013 
L 349.241115 54.232147 
L 351.280402 42.584551 
L 353.319689 52.30207 
L 355.358977 54.862531 
L 357.398264 63.963705 
L 359.437551 82.730358 
L 361.476839 50.250374 
L 363.516126 56.318066 
L 365.555413 44.847346 
L 367.594701 70.035199 
L 369.633988 53.436261 
L 371.673275 60.7823 
L 373.712563 52.848919 
L 375.75185 69.164967 
L 377.791138 51.544346 
L 379.830425 92.090211 
L 381.869712 67.075991 
L 383.909 69.795518 
L 385.948287 101.18175 
L 387.987574 72.859481 
L 390.026862 78.630446 
L 392.066149 61.961541 
L 394.105436 64.109566 
L 396.144724 99.129446 
L 398.184011 84.565029 
L 400.223298 85.127193 
L 402.262586 56.396118 
L 404.301873 81.081294 
L 406.34116 72.741002 
L 408.380448 68.32198 
L 410.419735 50.440207 
L 412.459022 68.823004 
L 414.49831 107.162975 
L 416.537597 78.957869 
L 418.576884 114.63232 
L 420.616172 100.672318 
L 422.655459 84.166335 
L 424.694746 79.996141 
L 426.734034 66.704321 
L 428.773321 67.179727 
L 430.812608 62.766944 
L 432.851896 60.755776 
L 434.891183 69.034719 
L 436.930471 59.302279 
L 438.969758 61.066293 
L 441.009045 71.915118 
L 443.048333 47.696051 
L 445.08762 62.170175 
L 447.126907 69.928901 
L 449.166195 66.405592 
L 451.205482 55.828841 
L 453.244769 64.424398 
L 455.284057 62.743 
L 457.323344 55.669101 
L 459.362631 52.547228 
L 461.401919 59.023088 
L 463.441206 60.444764 
L 465.480493 62.703259 
L 467.519781 60.523692 
L 469.559068 54.146937 
L 471.598355 67.383862 
L 473.637643 68.520979 
L 475.67693 71.738347 
L 477.716217 50.152454 
L 479.755505 65.762771 
L 481.794792 60.441802 
L 483.834079 62.843274 
L 485.873367 69.077934 
L 487.912654 67.015196 
L 489.951942 47.11025 
L 491.991229 52.892063 
L 494.030516 44.15019 
L 496.069804 62.434104 
L 498.109091 58.116709 
L 498.109091 58.116709 
" clip-path="url(#p1a1ad76fee)" style="fill: none; stroke: #ff0000; stroke-opacity: 0.9; stroke-width: 1.5; stroke-linecap: square"/>
   </g>
   <g id="line2d_18">
    <path d="M 92.290909 112.38308 
L 94.330196 100.851603 
L 96.369484 120.733383 
L 98.408771 101.024215 
L 100.448058 91.639685 
L 102.487346 104.927607 
L 104.526633 99.080098 
L 106.565921 66.511002 
L 108.605208 112.775785 
L 110.644495 46.188031 
L 112.683783 80.97229 
L 114.72307 119.381536 
L 116.762357 121.599134 
L 118.801645 112.771899 
L 120.840932 69.457809 
L 122.880219 112.683252 
L 124.919507 67.954738 
L 126.958794 63.495081 
L 128.998081 85.215459 
L 131.037369 63.36702 
L 133.076656 49.889729 
L 135.115943 52.198828 
L 137.155231 105.252736 
L 139.194518 109.440414 
L 141.233805 125.536064 
L 143.273093 121.565298 
L 145.31238 121.686768 
L 147.351667 113.57378 
L 149.390955 118.383779 
L 151.430242 109.47792 
L 153.469529 107.913524 
L 155.508817 114.816063 
L 157.548104 128.603061 
L 159.587392 109.809473 
L 161.626679 123.971799 
L 163.665966 95.917881 
L 165.705254 95.073536 
L 167.744541 113.109506 
L 169.783828 49.826759 
L 171.823116 54.392172 
L 173.862403 74.831844 
L 175.90169 50.601002 
L 177.940978 43.071014 
L 179.980265 68.711622 
L 182.019552 64.1305 
L 184.05884 70.573962 
L 186.098127 65.715801 
L 188.137414 59.324429 
L 190.176702 68.362842 
L 192.215989 61.324912 
L 194.255276 47.588373 
L 196.294564 68.643784 
L 198.333851 74.655925 
L 200.373138 92.785364 
L 202.412426 70.934476 
L 204.451713 52.26454 
L 206.491 42.313912 
L 208.530288 73.062448 
L 210.569575 57.861683 
L 212.608862 111.789088 
L 214.64815 106.009292 
L 216.687437 93.767336 
L 218.726725 92.3739 
L 220.766012 109.369143 
L 222.805299 121.155014 
L 224.844587 120.232055 
L 226.883874 69.813669 
L 228.923161 58.104898 
L 230.962449 79.003658 
L 233.001736 73.337944 
L 235.041023 43.787054 
L 237.080311 58.942176 
L 239.119598 51.54167 
L 241.158885 74.091276 
L 243.198173 52.061185 
L 245.23746 81.096454 
L 247.276747 50.129154 
L 249.316035 102.02283 
L 251.355322 76.904903 
L 253.394609 110.915221 
L 257.473184 71.872266 
L 259.512471 65.242958 
L 261.551759 56.852788 
L 263.591046 68.51661 
L 265.630333 63.808387 
L 267.669621 60.564852 
L 269.708908 48.39613 
L 271.748196 39.141818 
L 273.787483 61.817426 
L 275.82677 49.485827 
L 277.866058 65.338393 
L 279.905345 53.910689 
L 281.944632 81.752778 
L 283.98392 64.395728 
L 286.023207 62.77624 
L 288.062494 52.85986 
L 290.101782 67.052268 
L 292.141069 75.084468 
L 294.180356 54.063605 
L 296.219644 41.291947 
L 298.258931 78.763417 
L 300.298218 55.177237 
L 302.337506 60.457278 
L 304.376793 57.995018 
L 306.41608 44.607879 
L 308.455368 45.358625 
L 310.494655 56.301249 
L 312.533942 60.690994 
L 314.57323 72.437124 
L 316.612517 40.233294 
L 318.651804 56.531998 
L 320.691092 46.078568 
L 322.730379 42.02003 
L 326.808954 62.689625 
L 328.848241 45.912023 
L 332.926816 47.554296 
L 334.966103 45.80908 
L 337.005391 56.215718 
L 339.044678 40.663747 
L 341.083965 50.0569 
L 343.123253 56.250484 
L 345.16254 48.645009 
L 347.201827 52.519959 
L 349.241115 54.519882 
L 351.280402 41.043976 
L 353.319689 58.374064 
L 355.358977 57.6557 
L 357.398264 64.770032 
L 359.437551 83.219684 
L 361.476839 47.640408 
L 363.516126 55.872998 
L 365.555413 45.749503 
L 367.594701 69.951152 
L 369.633988 52.92022 
L 371.673275 62.288821 
L 373.712563 51.781953 
L 375.75185 68.294497 
L 377.791138 49.906837 
L 379.830425 94.163306 
L 381.869712 66.349391 
L 383.909 72.41147 
L 385.948287 100.212537 
L 387.987574 72.231058 
L 390.026862 80.174474 
L 392.066149 62.046959 
L 394.105436 66.732937 
L 396.144724 101.115031 
L 398.184011 83.527704 
L 400.223298 83.7973 
L 402.262586 58.94248 
L 404.301873 80.036616 
L 406.34116 68.331294 
L 408.380448 69.26008 
L 410.419735 46.920477 
L 412.459022 68.668973 
L 414.49831 105.379701 
L 416.537597 78.583386 
L 418.576884 113.142734 
L 420.616172 105.996063 
L 422.655459 86.24294 
L 424.694746 81.163566 
L 426.734034 61.480045 
L 428.773321 66.133683 
L 430.812608 64.51155 
L 432.851896 63.541926 
L 434.891183 71.043557 
L 436.930471 59.979519 
L 438.969758 59.952488 
L 441.009045 71.120197 
L 443.048333 47.778361 
L 445.08762 60.187837 
L 447.126907 69.568917 
L 449.166195 66.414584 
L 451.205482 56.323089 
L 453.244769 64.281564 
L 455.284057 62.273977 
L 457.323344 52.894095 
L 459.362631 49.74413 
L 461.401919 60.24859 
L 463.441206 60.190614 
L 465.480493 62.389482 
L 467.519781 54.665362 
L 469.559068 56.004295 
L 471.598355 67.854989 
L 473.637643 67.973301 
L 475.67693 70.346574 
L 477.716217 49.972727 
L 479.755505 65.009123 
L 481.794792 57.722931 
L 483.834079 61.505002 
L 485.873367 66.271953 
L 487.912654 66.878673 
L 489.951942 46.401126 
L 491.991229 49.603367 
L 494.030516 43.747363 
L 496.069804 64.374085 
L 498.109091 58.641223 
L 498.109091 58.641223 
" clip-path="url(#p1a1ad76fee)" style="fill: none; stroke: #008000; stroke-opacity: 0.9; stroke-width: 1.5; stroke-linecap: square"/>
   </g>
   <g id="line2d_19">
    <path d="M 153.469529 135.36 
L 153.469529 34.56 
" clip-path="url(#p1a1ad76fee)" style="fill: none; stroke-dasharray: 5.55,2.4; stroke-dashoffset: 0; stroke: #000000; stroke-width: 1.5"/>
   </g>
   <g id="line2d_20">
    <path d="M 438.969758 135.36 
L 438.969758 34.56 
" clip-path="url(#p1a1ad76fee)" style="fill: none; stroke-dasharray: 5.55,2.4; stroke-dashoffset: 0; stroke: #0000ff; stroke-width: 1.5"/>
   </g>
   <g id="patch_3">
    <path d="M 72 135.36 
L 72 34.56 
" style="fill: none; stroke: #000000; stroke-width: 0.8; stroke-linejoin: miter; stroke-linecap: square"/>
   </g>
   <g id="patch_4">
    <path d="M 518.4 135.36 
L 518.4 34.56 
" style="fill: none; stroke: #000000; stroke-width: 0.8; stroke-linejoin: miter; stroke-linecap: square"/>
   </g>
   <g id="patch_5">
    <path d="M 72 135.36 
L 518.4 135.36 
" style="fill: none; stroke: #000000; stroke-width: 0.8; stroke-linejoin: miter; stroke-linecap: square"/>
   </g>
   <g id="patch_6">
    <path d="M 72 34.56 
L 518.4 34.56 
" style="fill: none; stroke: #000000; stroke-width: 0.8; stroke-linejoin: miter; stroke-linecap: square"/>
   </g>
  </g>
  <g id="axes_2">
   <g id="patch_7">
    <path d="M 72 256.32 
L 518.4 256.32 
L 518.4 155.52 
L 72 155.52 
z
" style="fill: #ffffff"/>
   </g>
   <g id="matplotlib.axis_3">
    <g id="xtick_10">
     <g id="line2d_21">
      <g>
       <use xlink:href="#m746207c060" x="92.290909" y="256.32" style="stroke: #000000; stroke-width: 0.8"/>
      </g>
     </g>
     <g id="text_4">
      <!-- 0 -->
      <g transform="translate(89.109659 270.918437) scale(0.1 -0.1)">
       <use xlink:href="#DejaVuSans-30"/>
      </g>
     </g>
    </g>
    <g id="xtick_11">
     <g id="line2d_22">
      <g>
       <use xlink:href="#m746207c060" x="143.273093" y="256.32" style="stroke: #000000; stroke-width: 0.8"/>
      </g>
     </g>
     <g id="text_5">
      <!-- 25 -->
      <g transform="translate(136.910593 270.918437) scale(0.1 -0.1)">
       <defs>
        <path id="DejaVuSans-32" d="M 1228 531 
L 3431 531 
L 3431 0 
L 469 0 
L 469 531 
Q 828 903 1448 1529 
Q 2069 2156 2228 2338 
Q 2531 2678 2651 2914 
Q 2772 3150 2772 3378 
Q 2772 3750 2511 3984 
Q 2250 4219 1831 4219 
Q 1534 4219 1204 4116 
Q 875 4013 500 3803 
L 500 4441 
Q 881 4594 1212 4672 
Q 1544 4750 1819 4750 
Q 2544 4750 2975 4387 
Q 3406 4025 3406 3419 
Q 3406 3131 3298 2873 
Q 3191 2616 2906 2266 
Q 2828 2175 2409 1742 
Q 1991 1309 1228 531 
z
" transform="scale(0.015625)"/>
       </defs>
       <use xlink:href="#DejaVuSans-32"/>
       <use xlink:href="#DejaVuSans-35" transform="translate(63.623047 0)"/>
      </g>
     </g>
    </g>
    <g id="xtick_12">
     <g id="line2d_23">
      <g>
       <use xlink:href="#m746207c060" x="194.255276" y="256.32" style="stroke: #000000; stroke-width: 0.8"/>
      </g>
     </g>
     <g id="text_6">
      <!-- 50 -->
      <g transform="translate(187.892776 270.918437) scale(0.1 -0.1)">
       <use xlink:href="#DejaVuSans-35"/>
       <use xlink:href="#DejaVuSans-30" transform="translate(63.623047 0)"/>
      </g>
     </g>
    </g>
    <g id="xtick_13">
     <g id="line2d_24">
      <g>
       <use xlink:href="#m746207c060" x="245.23746" y="256.32" style="stroke: #000000; stroke-width: 0.8"/>
      </g>
     </g>
     <g id="text_7">
      <!-- 75 -->
      <g transform="translate(238.87496 270.918437) scale(0.1 -0.1)">
       <defs>
        <path id="DejaVuSans-37" d="M 525 4666 
L 3525 4666 
L 3525 4397 
L 1831 0 
L 1172 0 
L 2766 4134 
L 525 4134 
L 525 4666 
z
" transform="scale(0.015625)"/>
       </defs>
       <use xlink:href="#DejaVuSans-37"/>
       <use xlink:href="#DejaVuSans-35" transform="translate(63.623047 0)"/>
      </g>
     </g>
    </g>
    <g id="xtick_14">
     <g id="line2d_25">
      <g>
       <use xlink:href="#m746207c060" x="296.219644" y="256.32" style="stroke: #000000; stroke-width: 0.8"/>
      </g>
     </g>
     <g id="text_8">
      <!-- 100 -->
      <g transform="translate(286.675894 270.918437) scale(0.1 -0.1)">
       <use xlink:href="#DejaVuSans-31"/>
       <use xlink:href="#DejaVuSans-30" transform="translate(63.623047 0)"/>
       <use xlink:href="#DejaVuSans-30" transform="translate(127.246094 0)"/>
      </g>
     </g>
    </g>
    <g id="xtick_15">
     <g id="line2d_26">
      <g>
       <use xlink:href="#m746207c060" x="347.201827" y="256.32" style="stroke: #000000; stroke-width: 0.8"/>
      </g>
     </g>
     <g id="text_9">
      <!-- 125 -->
      <g transform="translate(337.658077 270.918437) scale(0.1 -0.1)">
       <use xlink:href="#DejaVuSans-31"/>
       <use xlink:href="#DejaVuSans-32" transform="translate(63.623047 0)"/>
       <use xlink:href="#DejaVuSans-35" transform="translate(127.246094 0)"/>
      </g>
     </g>
    </g>
    <g id="xtick_16">
     <g id="line2d_27">
      <g>
       <use xlink:href="#m746207c060" x="398.184011" y="256.32" style="stroke: #000000; stroke-width: 0.8"/>
      </g>
     </g>
     <g id="text_10">
      <!-- 150 -->
      <g transform="translate(388.640261 270.918437) scale(0.1 -0.1)">
       <use xlink:href="#DejaVuSans-31"/>
       <use xlink:href="#DejaVuSans-35" transform="translate(63.623047 0)"/>
       <use xlink:href="#DejaVuSans-30" transform="translate(127.246094 0)"/>
      </g>
     </g>
    </g>
    <g id="xtick_17">
     <g id="line2d_28">
      <g>
       <use xlink:href="#m746207c060" x="449.166195" y="256.32" style="stroke: #000000; stroke-width: 0.8"/>
      </g>
     </g>
     <g id="text_11">
      <!-- 175 -->
      <g transform="translate(439.622445 270.918437) scale(0.1 -0.1)">
       <use xlink:href="#DejaVuSans-31"/>
       <use xlink:href="#DejaVuSans-37" transform="translate(63.623047 0)"/>
       <use xlink:href="#DejaVuSans-35" transform="translate(127.246094 0)"/>
      </g>
     </g>
    </g>
    <g id="xtick_18">
     <g id="line2d_29">
      <g>
       <use xlink:href="#m746207c060" x="500.148378" y="256.32" style="stroke: #000000; stroke-width: 0.8"/>
      </g>
     </g>
     <g id="text_12">
      <!-- 200 -->
      <g transform="translate(490.604628 270.918437) scale(0.1 -0.1)">
       <use xlink:href="#DejaVuSans-32"/>
       <use xlink:href="#DejaVuSans-30" transform="translate(63.623047 0)"/>
       <use xlink:href="#DejaVuSans-30" transform="translate(127.246094 0)"/>
      </g>
     </g>
    </g>
   </g>
   <g id="matplotlib.axis_4">
    <g id="ytick_4">
     <g id="line2d_30">
      <g>
       <use xlink:href="#me0d9089f48" x="72" y="254.42457" style="stroke: #000000; stroke-width: 0.8"/>
      </g>
     </g>
     <g id="text_13">
      <!-- −200 -->
      <g transform="translate(37.532812 258.223789) scale(0.1 -0.1)">
       <use xlink:href="#DejaVuSans-2212"/>
       <use xlink:href="#DejaVuSans-32" transform="translate(83.789062 0)"/>
       <use xlink:href="#DejaVuSans-30" transform="translate(147.412109 0)"/>
       <use xlink:href="#DejaVuSans-30" transform="translate(211.035156 0)"/>
      </g>
     </g>
    </g>
    <g id="ytick_5">
     <g id="line2d_31">
      <g>
       <use xlink:href="#me0d9089f48" x="72" y="229.600346" style="stroke: #000000; stroke-width: 0.8"/>
      </g>
     </g>
     <g id="text_14">
      <!-- −100 -->
      <g transform="translate(37.532812 233.399565) scale(0.1 -0.1)">
       <use xlink:href="#DejaVuSans-2212"/>
       <use xlink:href="#DejaVuSans-31" transform="translate(83.789062 0)"/>
       <use xlink:href="#DejaVuSans-30" transform="translate(147.412109 0)"/>
       <use xlink:href="#DejaVuSans-30" transform="translate(211.035156 0)"/>
      </g>
     </g>
    </g>
    <g id="ytick_6">
     <g id="line2d_32">
      <g>
       <use xlink:href="#me0d9089f48" x="72" y="204.776122" style="stroke: #000000; stroke-width: 0.8"/>
      </g>
     </g>
     <g id="text_15">
      <!-- 0 -->
      <g transform="translate(58.6375 208.575341) scale(0.1 -0.1)">
       <use xlink:href="#DejaVuSans-30"/>
      </g>
     </g>
    </g>
    <g id="ytick_7">
     <g id="line2d_33">
      <g>
       <use xlink:href="#me0d9089f48" x="72" y="179.951898" style="stroke: #000000; stroke-width: 0.8"/>
      </g>
     </g>
     <g id="text_16">
      <!-- 100 -->
      <g transform="translate(45.9125 183.751117) scale(0.1 -0.1)">
       <use xlink:href="#DejaVuSans-31"/>
       <use xlink:href="#DejaVuSans-30" transform="translate(63.623047 0)"/>
       <use xlink:href="#DejaVuSans-30" transform="translate(127.246094 0)"/>
      </g>
     </g>
    </g>
   </g>
   <g id="line2d_34">
    <path d="M 92.290909 176.512531 
L 96.369484 163.479164 
L 98.408771 163.174448 
L 100.448058 169.508516 
L 102.487346 165.848742 
L 104.526633 168.147267 
L 106.565921 162.206854 
L 108.605208 164.363959 
L 110.644495 175.321288 
L 112.683783 249.091824 
L 114.72307 161.76937 
L 116.762357 163.38927 
L 118.801645 169.817072 
L 120.840932 161.05806 
L 122.880219 167.666619 
L 124.919507 166.089386 
L 126.958794 179.939597 
L 128.998081 163.171725 
L 131.037369 166.950859 
L 133.076656 173.640181 
L 135.115943 167.561616 
L 137.155231 165.619295 
L 139.194518 165.16717 
L 141.233805 167.371521 
L 143.273093 164.60061 
L 145.31238 161.082314 
L 147.351667 160.64003 
L 149.390955 163.815531 
L 151.430242 161.969987 
L 153.469529 163.786785 
L 155.508817 167.977006 
L 157.548104 163.476304 
L 159.587392 165.229356 
L 161.626679 168.178824 
L 163.665966 168.077437 
L 165.705254 250.430319 
L 167.744541 162.014434 
L 169.783828 167.939687 
L 171.823116 166.488552 
L 173.862403 166.689938 
L 175.90169 172.304673 
L 177.940978 170.768253 
L 179.980265 184.654561 
L 182.019552 169.354228 
L 184.05884 172.528048 
L 186.098127 187.767432 
L 188.137414 173.154725 
L 190.176702 173.913175 
L 192.215989 197.66248 
L 194.255276 193.08662 
L 196.294564 189.865454 
L 198.333851 188.079127 
L 200.373138 171.43406 
L 202.412426 164.091372 
L 204.451713 167.190142 
L 206.491 166.148249 
L 208.530288 174.321696 
L 210.569575 165.827821 
L 212.608862 163.214445 
L 214.64815 168.094581 
L 216.687437 161.303723 
L 218.726725 167.326434 
L 220.766012 166.395188 
L 222.805299 169.563735 
L 224.844587 162.026658 
L 226.883874 177.619512 
L 228.923161 186.74073 
L 230.962449 166.371507 
L 233.001736 171.03564 
L 235.041023 165.7427 
L 237.080311 166.119867 
L 239.119598 168.493081 
L 241.158885 164.733163 
L 243.198173 170.418803 
L 245.23746 162.022033 
L 247.276747 163.914645 
L 249.316035 164.509315 
L 251.355322 169.499141 
L 253.394609 165.472678 
L 255.433897 162.664941 
L 257.473184 169.194243 
L 259.512471 164.035758 
L 261.551759 162.103472 
L 263.591046 164.560228 
L 265.630333 167.644919 
L 267.669621 163.327301 
L 269.708908 164.750951 
L 271.748196 164.962599 
L 273.787483 166.147567 
L 275.82677 162.162855 
L 277.866058 250.863985 
L 279.905345 167.865078 
L 281.944632 164.191042 
L 283.98392 162.970585 
L 286.023207 169.667542 
L 288.062494 170.882314 
L 290.101782 169.436732 
L 292.141069 171.318666 
L 294.180356 166.877537 
L 296.219644 167.597635 
L 298.258931 174.072759 
L 300.298218 169.242095 
L 302.337506 163.981277 
L 304.376793 170.151868 
L 306.41608 163.581194 
L 308.455368 167.047612 
L 310.494655 167.424536 
L 312.533942 163.318994 
L 314.57323 250.810611 
L 316.612517 160.130004 
L 318.651804 161.992434 
L 320.691092 161.914082 
L 322.730379 165.270216 
L 326.808954 164.114936 
L 328.848241 166.40012 
L 330.887529 167.058249 
L 332.926816 163.443293 
L 334.966103 164.853561 
L 337.005391 160.673083 
L 339.044678 162.875903 
L 341.083965 162.375392 
L 343.123253 162.484968 
L 345.16254 164.812394 
L 347.201827 163.017358 
L 349.241115 251.56911 
L 351.280402 162.774055 
L 353.319689 163.412638 
L 355.358977 170.148689 
L 357.398264 167.378593 
L 359.437551 171.101177 
L 361.476839 166.36426 
L 363.516126 165.971052 
L 365.555413 169.753375 
L 367.594701 166.867181 
L 369.633988 170.028049 
L 371.673275 165.299352 
L 373.712563 171.733162 
L 375.75185 175.687674 
L 377.791138 173.594304 
L 379.830425 165.945973 
L 381.869712 178.156676 
L 383.909 171.203549 
L 387.987574 167.995801 
L 390.026862 171.962336 
L 392.066149 171.536772 
L 394.105436 171.764696 
L 396.144724 249.251119 
L 398.184011 164.823148 
L 400.223298 170.761697 
L 402.262586 170.998962 
L 404.301873 169.862818 
L 406.34116 167.232317 
L 408.380448 172.199673 
L 410.419735 166.333609 
L 412.459022 171.604507 
L 414.49831 164.717391 
L 416.537597 166.522901 
L 418.576884 160.511511 
L 420.616172 168.331517 
L 422.655459 167.013991 
L 424.694746 171.348257 
L 426.734034 167.25915 
L 428.773321 172.06015 
L 430.812608 175.687691 
L 432.851896 171.701529 
L 434.891183 173.513365 
L 436.930471 177.967843 
L 438.969758 170.446663 
L 441.009045 178.284761 
L 443.048333 171.847791 
L 445.08762 173.929692 
L 447.126907 175.195434 
L 449.166195 163.488395 
L 451.205482 169.072656 
L 453.244769 173.157632 
L 455.284057 178.51964 
L 457.323344 180.039923 
L 459.362631 173.49946 
L 461.401919 172.717392 
L 463.441206 176.624865 
L 465.480493 174.71272 
L 467.519781 174.726336 
L 469.559068 175.300519 
L 471.598355 170.292455 
L 473.637643 175.419744 
L 475.67693 177.783233 
L 477.716217 179.468794 
L 479.755505 173.028206 
L 481.794792 176.49337 
L 483.834079 170.625526 
L 485.873367 173.561335 
L 487.912654 177.740686 
L 489.951942 172.484055 
L 491.991229 168.66213 
L 494.030516 168.590653 
L 496.069804 173.453774 
L 498.109091 176.070183 
L 498.109091 176.070183 
" clip-path="url(#p3612327d83)" style="fill: none; stroke: #ff0000; stroke-opacity: 0.9; stroke-width: 1.5; stroke-linecap: square"/>
   </g>
   <g id="line2d_35">
    <path d="M 92.290909 176.474327 
L 94.330196 169.672607 
L 96.369484 163.553653 
L 98.408771 163.406732 
L 100.448058 169.347648 
L 102.487346 165.875401 
L 104.526633 168.08932 
L 106.565921 162.516267 
L 108.605208 164.394353 
L 110.644495 175.429326 
L 112.683783 249.246934 
L 114.72307 161.851771 
L 116.762357 163.476122 
L 118.801645 169.714894 
L 120.840932 161.117155 
L 122.880219 167.863172 
L 124.919507 165.982185 
L 126.958794 180.205655 
L 128.998081 163.22585 
L 131.037369 167.021677 
L 133.076656 173.722354 
L 135.115943 167.583945 
L 137.155231 165.537731 
L 139.194518 165.387197 
L 141.233805 167.365995 
L 143.273093 164.716534 
L 145.31238 160.932367 
L 147.351667 160.72831 
L 149.390955 163.814993 
L 151.430242 162.061351 
L 153.469529 163.712012 
L 155.508817 167.915513 
L 157.548104 163.471501 
L 159.587392 165.111807 
L 161.626679 168.096532 
L 163.665966 168.181668 
L 165.705254 250.2783 
L 167.744541 162.15865 
L 169.783828 168.027153 
L 171.823116 166.31912 
L 173.862403 166.679503 
L 175.90169 172.011461 
L 177.940978 170.635227 
L 179.980265 184.581279 
L 182.019552 169.170948 
L 184.05884 172.443108 
L 186.098127 187.819256 
L 188.137414 172.89924 
L 190.176702 174.013768 
L 192.215989 197.923333 
L 194.255276 193.098785 
L 196.294564 189.913748 
L 198.333851 188.079699 
L 200.373138 171.348537 
L 202.412426 164.205936 
L 204.451713 167.276498 
L 206.491 166.124268 
L 208.530288 174.337131 
L 210.569575 165.78045 
L 212.608862 163.455566 
L 214.64815 168.229058 
L 216.687437 161.254689 
L 218.726725 167.24923 
L 220.766012 166.315079 
L 222.805299 169.54733 
L 224.844587 162.230635 
L 226.883874 177.557192 
L 228.923161 186.838041 
L 230.962449 166.347954 
L 233.001736 170.965272 
L 235.041023 166.026526 
L 237.080311 166.117424 
L 239.119598 168.310096 
L 241.158885 164.600209 
L 243.198173 170.393803 
L 245.23746 162.089211 
L 247.276747 164.098838 
L 249.316035 164.60094 
L 251.355322 169.346652 
L 253.394609 165.495273 
L 255.433897 162.926983 
L 257.473184 169.105372 
L 259.512471 163.944933 
L 261.551759 162.025559 
L 263.591046 164.554777 
L 265.630333 167.491544 
L 267.669621 163.1851 
L 269.708908 164.651345 
L 271.748196 164.905345 
L 273.787483 166.412446 
L 275.82677 162.012275 
L 277.866058 250.919925 
L 279.905345 167.869892 
L 281.944632 164.073444 
L 283.98392 162.89571 
L 286.023207 169.551557 
L 288.062494 171.196151 
L 290.101782 169.309054 
L 292.141069 171.406397 
L 294.180356 166.781719 
L 296.219644 167.467949 
L 298.258931 174.048147 
L 300.298218 169.394467 
L 302.337506 164.390857 
L 304.376793 170.167534 
L 306.41608 163.621289 
L 308.455368 167.168154 
L 310.494655 167.719396 
L 312.533942 163.363857 
L 314.57323 251.172694 
L 316.612517 160.188042 
L 318.651804 162.441843 
L 320.691092 161.464882 
L 322.730379 165.305519 
L 324.769667 164.980618 
L 326.808954 164.120777 
L 328.848241 166.487071 
L 330.887529 167.057942 
L 332.926816 163.436838 
L 334.966103 164.59925 
L 337.005391 160.754405 
L 339.044678 162.917854 
L 341.083965 162.47104 
L 343.123253 162.555464 
L 345.16254 164.904845 
L 347.201827 163.27624 
L 349.241115 251.727348 
L 351.280402 162.74185 
L 353.319689 163.564797 
L 355.358977 170.379436 
L 357.398264 167.314908 
L 359.437551 171.044677 
L 361.476839 166.209673 
L 363.516126 165.918302 
L 365.555413 169.881231 
L 367.594701 167.014983 
L 369.633988 169.917962 
L 371.673275 165.558227 
L 373.712563 171.454647 
L 375.75185 175.624604 
L 377.791138 173.679789 
L 379.830425 166.084193 
L 381.869712 178.077316 
L 383.909 171.218071 
L 385.948287 169.598542 
L 387.987574 168.38388 
L 390.026862 171.998669 
L 392.066149 171.68345 
L 394.105436 171.541802 
L 396.144724 249.151653 
L 398.184011 164.73433 
L 400.223298 170.909659 
L 402.262586 171.006943 
L 404.301873 169.907394 
L 406.34116 167.219483 
L 408.380448 172.08234 
L 410.419735 166.310033 
L 412.459022 171.664764 
L 414.49831 164.773883 
L 416.537597 166.808018 
L 418.576884 160.459575 
L 420.616172 168.126884 
L 422.655459 167.011957 
L 424.694746 171.444654 
L 426.734034 167.457282 
L 428.773321 171.924624 
L 430.812608 175.532598 
L 432.851896 171.719438 
L 434.891183 173.691318 
L 436.930471 178.209094 
L 438.969758 170.559947 
L 441.009045 178.168882 
L 443.048333 171.573132 
L 445.08762 174.078427 
L 447.126907 175.108858 
L 449.166195 163.421255 
L 451.205482 168.99244 
L 453.244769 172.990752 
L 455.284057 178.53181 
L 457.323344 180.080875 
L 459.362631 173.233221 
L 461.401919 173.051593 
L 463.441206 176.637823 
L 465.480493 174.70169 
L 469.559068 175.165881 
L 471.598355 170.193375 
L 473.637643 175.073765 
L 475.67693 177.716231 
L 477.716217 179.36437 
L 479.755505 173.122019 
L 481.794792 176.306331 
L 483.834079 170.533916 
L 485.873367 173.676272 
L 487.912654 177.795246 
L 489.951942 172.612347 
L 491.991229 168.756933 
L 494.030516 168.515895 
L 496.069804 173.466511 
L 498.109091 176.114698 
L 498.109091 176.114698 
" clip-path="url(#p3612327d83)" style="fill: none; stroke: #ff0000; stroke-opacity: 0.9; stroke-width: 1.5; stroke-linecap: square"/>
   </g>
   <g id="line2d_36">
    <path d="M 92.290909 176.185766 
L 96.369484 163.556891 
L 98.408771 163.419001 
L 100.448058 169.515398 
L 102.487346 166.003412 
L 104.526633 168.335653 
L 106.565921 162.214476 
L 108.605208 164.341531 
L 110.644495 175.141055 
L 112.683783 249.095888 
L 114.72307 161.811976 
L 116.762357 163.345524 
L 118.801645 169.7933 
L 120.840932 161.037723 
L 122.880219 167.78735 
L 124.919507 166.025321 
L 126.958794 180.326741 
L 128.998081 163.311301 
L 131.037369 167.109018 
L 133.076656 173.646499 
L 135.115943 167.813365 
L 137.155231 165.399087 
L 139.194518 165.331905 
L 141.233805 167.337896 
L 143.273093 164.822341 
L 145.31238 160.927647 
L 147.351667 160.614689 
L 149.390955 163.832838 
L 151.430242 162.028718 
L 153.469529 163.785312 
L 155.508817 167.781884 
L 157.548104 163.613634 
L 159.587392 165.227617 
L 161.626679 168.073123 
L 163.665966 168.167952 
L 165.705254 250.367293 
L 167.744541 162.154146 
L 169.783828 168.157361 
L 171.823116 166.405992 
L 173.862403 166.711639 
L 175.90169 172.122874 
L 177.940978 170.445799 
L 179.980265 184.777838 
L 182.019552 169.268467 
L 184.05884 172.346737 
L 186.098127 187.98929 
L 188.137414 172.883843 
L 190.176702 174.070759 
L 192.215989 197.814474 
L 194.255276 193.153378 
L 196.294564 189.895277 
L 198.333851 188.158816 
L 200.373138 171.505037 
L 202.412426 164.219671 
L 204.451713 167.262533 
L 206.491 166.11831 
L 208.530288 174.181734 
L 210.569575 165.870333 
L 212.608862 163.235706 
L 214.64815 168.245486 
L 216.687437 161.328037 
L 218.726725 167.181802 
L 220.766012 166.200257 
L 222.805299 169.70766 
L 224.844587 162.263229 
L 226.883874 177.527701 
L 228.923161 186.806781 
L 230.962449 166.088977 
L 233.001736 170.896518 
L 235.041023 165.896791 
L 237.080311 166.112768 
L 239.119598 168.310479 
L 241.158885 164.552364 
L 243.198173 170.616735 
L 245.23746 161.894127 
L 247.276747 163.889543 
L 249.316035 164.390732 
L 251.355322 169.44169 
L 253.394609 165.455947 
L 255.433897 162.756153 
L 257.473184 169.069698 
L 259.512471 163.936853 
L 261.551759 162.011612 
L 263.591046 164.476084 
L 265.630333 167.494707 
L 267.669621 163.28549 
L 269.708908 164.920004 
L 271.748196 164.852561 
L 273.787483 166.155003 
L 275.82677 162.173798 
L 277.866058 250.906217 
L 279.905345 167.847627 
L 281.944632 164.052141 
L 283.98392 163.094399 
L 286.023207 169.582387 
L 288.062494 171.079257 
L 290.101782 169.385629 
L 292.141069 171.321208 
L 294.180356 166.991234 
L 296.219644 167.660131 
L 298.258931 173.977086 
L 300.298218 169.297531 
L 302.337506 163.967728 
L 304.376793 169.982712 
L 306.41608 163.544175 
L 308.455368 167.092169 
L 310.494655 167.531218 
L 312.533942 163.425081 
L 314.57323 250.718679 
L 316.612517 160.297629 
L 318.651804 162.057938 
L 320.691092 161.613177 
L 322.730379 165.387792 
L 326.808954 164.234433 
L 328.848241 166.551923 
L 330.887529 166.818404 
L 332.926816 163.435929 
L 334.966103 164.794591 
L 337.005391 160.663477 
L 339.044678 163.049081 
L 341.083965 162.5166 
L 343.123253 162.608017 
L 345.16254 164.888985 
L 347.201827 163.071414 
L 349.241115 251.572008 
L 351.280402 162.640097 
L 353.319689 163.547747 
L 355.358977 170.410352 
L 357.398264 167.249964 
L 359.437551 171.0782 
L 361.476839 166.370473 
L 363.516126 165.759109 
L 365.555413 169.771754 
L 367.594701 166.753275 
L 369.633988 170.001701 
L 371.673275 165.609803 
L 373.712563 171.58859 
L 375.75185 175.588337 
L 377.791138 173.716607 
L 379.830425 165.866249 
L 381.869712 178.226379 
L 383.909 171.327272 
L 385.948287 169.667535 
L 387.987574 168.215043 
L 390.026862 171.713048 
L 394.105436 171.516957 
L 396.144724 249.462809 
L 398.184011 164.864065 
L 400.223298 170.780382 
L 402.262586 171.071526 
L 404.301873 169.997296 
L 406.34116 167.268415 
L 408.380448 172.242964 
L 410.419735 166.232685 
L 412.459022 171.381617 
L 414.49831 164.735845 
L 416.537597 166.586033 
L 418.576884 160.675068 
L 420.616172 168.296388 
L 422.655459 167.09504 
L 424.694746 171.385992 
L 426.734034 167.480483 
L 428.773321 171.963984 
L 430.812608 175.382403 
L 432.851896 171.616662 
L 434.891183 173.438111 
L 436.930471 177.932659 
L 438.969758 170.388417 
L 441.009045 178.369047 
L 443.048333 171.600374 
L 445.08762 174.041461 
L 447.126907 175.200924 
L 449.166195 163.328922 
L 451.205482 168.844452 
L 453.244769 173.019396 
L 455.284057 178.626558 
L 457.323344 180.020277 
L 459.362631 173.264844 
L 461.401919 172.835373 
L 463.441206 176.703113 
L 465.480493 174.628008 
L 467.519781 174.649703 
L 469.559068 175.023769 
L 471.598355 170.12458 
L 473.637643 175.268739 
L 475.67693 177.872724 
L 477.716217 179.40044 
L 479.755505 172.969615 
L 481.794792 176.546361 
L 483.834079 170.615174 
L 485.873367 173.604246 
L 487.912654 177.593544 
L 489.951942 172.510915 
L 491.991229 168.821281 
L 494.030516 168.509967 
L 496.069804 173.652344 
L 498.109091 176.272081 
L 498.109091 176.272081 
" clip-path="url(#p3612327d83)" style="fill: none; stroke: #ff0000; stroke-opacity: 0.9; stroke-width: 1.5; stroke-linecap: square"/>
   </g>
   <g id="line2d_37">
    <path d="M 92.290909 176.23492 
L 94.330196 169.722402 
L 96.369484 163.665138 
L 98.408771 163.232426 
L 100.448058 169.518762 
L 102.487346 165.92214 
L 104.526633 168.401922 
L 106.565921 162.419593 
L 108.605208 164.355254 
L 110.644495 175.414722 
L 112.683783 249.266911 
L 114.72307 161.847847 
L 116.762357 163.38088 
L 118.801645 169.789353 
L 120.840932 161.001658 
L 122.880219 167.951096 
L 124.919507 166.204708 
L 126.958794 180.097385 
L 128.998081 163.262892 
L 131.037369 166.885359 
L 133.076656 173.840961 
L 135.115943 167.588858 
L 137.155231 165.401765 
L 139.194518 165.342761 
L 141.233805 167.262089 
L 143.273093 164.744561 
L 145.31238 160.996276 
L 147.351667 160.799352 
L 149.390955 163.697804 
L 151.430242 161.928192 
L 153.469529 163.825948 
L 155.508817 167.792229 
L 157.548104 163.669164 
L 159.587392 164.959349 
L 161.626679 168.251236 
L 163.665966 168.261236 
L 165.705254 250.394974 
L 167.744541 162.190945 
L 169.783828 168.038869 
L 171.823116 166.408461 
L 173.862403 166.719037 
L 175.90169 172.045071 
L 177.940978 170.526871 
L 179.980265 184.553395 
L 182.019552 169.376891 
L 184.05884 172.418445 
L 186.098127 187.775031 
L 188.137414 173.106157 
L 190.176702 173.992228 
L 192.215989 197.861251 
L 194.255276 193.045147 
L 196.294564 189.750052 
L 198.333851 188.112104 
L 200.373138 171.386439 
L 202.412426 164.066308 
L 204.451713 167.149389 
L 206.491 166.059052 
L 208.530288 174.303883 
L 210.569575 165.964462 
L 212.608862 163.421005 
L 214.64815 168.188778 
L 216.687437 161.167306 
L 218.726725 167.261476 
L 220.766012 166.331882 
L 222.805299 169.54644 
L 224.844587 162.241358 
L 226.883874 177.572292 
L 228.923161 186.706367 
L 230.962449 166.321787 
L 233.001736 170.855022 
L 235.041023 166.021022 
L 237.080311 166.264325 
L 239.119598 168.317505 
L 241.158885 164.585315 
L 243.198173 170.377712 
L 245.23746 162.008646 
L 247.276747 164.061319 
L 249.316035 164.443235 
L 251.355322 169.475766 
L 253.394609 165.542697 
L 255.433897 162.934922 
L 257.473184 169.281561 
L 259.512471 163.896804 
L 261.551759 161.941934 
L 263.591046 164.595447 
L 265.630333 167.791044 
L 267.669621 163.205221 
L 269.708908 164.620322 
L 271.748196 164.946466 
L 273.787483 166.288048 
L 275.82677 162.280082 
L 277.866058 250.666967 
L 279.905345 167.825059 
L 281.944632 163.939126 
L 283.98392 162.825373 
L 286.023207 169.71 
L 288.062494 170.884443 
L 290.101782 169.277345 
L 292.141069 171.408692 
L 294.180356 166.989537 
L 296.219644 167.539722 
L 298.258931 173.834319 
L 300.298218 169.352895 
L 302.337506 164.165357 
L 304.376793 170.048303 
L 306.41608 163.694092 
L 308.455368 167.079934 
L 310.494655 167.5304 
L 312.533942 163.478285 
L 314.57323 250.744357 
L 316.612517 160.101818 
L 318.651804 162.071222 
L 320.691092 161.693279 
L 322.730379 165.040572 
L 324.769667 164.755735 
L 326.808954 164.204751 
L 328.848241 166.511976 
L 330.887529 166.837169 
L 332.926816 163.481585 
L 334.966103 164.764618 
L 337.005391 160.805598 
L 339.044678 162.842506 
L 341.083965 162.629581 
L 343.123253 162.61029 
L 345.16254 164.69075 
L 347.201827 163.165187 
L 349.241115 251.567898 
L 351.280402 162.957187 
L 353.319689 163.445944 
L 355.358977 170.292761 
L 357.398264 167.690294 
L 359.437551 171.032981 
L 361.476839 166.083935 
L 363.516126 165.860325 
L 365.555413 169.761163 
L 367.594701 166.911881 
L 369.633988 170.012133 
L 371.673275 165.336239 
L 373.712563 171.533526 
L 375.75185 175.52685 
L 377.791138 173.669516 
L 379.830425 165.954727 
L 381.869712 178.236081 
L 383.909 171.468685 
L 385.948287 169.484656 
L 387.987574 168.119767 
L 390.026862 171.903362 
L 392.066149 171.516306 
L 394.105436 171.703484 
L 396.144724 249.238873 
L 398.184011 164.743811 
L 400.223298 170.819344 
L 402.262586 170.981314 
L 404.301873 169.959068 
L 406.34116 167.258131 
L 408.380448 172.292241 
L 410.419735 166.139958 
L 412.459022 171.182677 
L 414.49831 164.682209 
L 416.537597 166.655256 
L 418.576884 160.480235 
L 420.616172 168.320346 
L 422.655459 167.19698 
L 424.694746 171.23173 
L 426.734034 167.342506 
L 428.773321 171.987468 
L 430.812608 175.451695 
L 432.851896 171.794559 
L 434.891183 173.626912 
L 436.930471 177.971879 
L 438.969758 170.571909 
L 441.009045 178.177803 
L 443.048333 171.739116 
L 445.08762 174.035073 
L 447.126907 175.100642 
L 449.166195 163.430456 
L 451.205482 169.07752 
L 453.244769 173.116367 
L 455.284057 178.441344 
L 457.323344 180.147258 
L 459.362631 173.42995 
L 461.401919 172.890282 
L 463.441206 176.64774 
L 465.480493 174.769932 
L 467.519781 174.757949 
L 469.559068 175.124667 
L 471.598355 170.095205 
L 473.637643 175.33322 
L 475.67693 177.784635 
L 477.716217 179.398732 
L 479.755505 173.094723 
L 481.794792 176.439776 
L 483.834079 170.747897 
L 485.873367 173.615405 
L 487.912654 177.804629 
L 489.951942 172.619532 
L 491.991229 168.825774 
L 494.030516 168.451107 
L 496.069804 173.614956 
L 498.109091 176.097204 
L 498.109091 176.097204 
" clip-path="url(#p3612327d83)" style="fill: none; stroke: #ff0000; stroke-opacity: 0.9; stroke-width: 1.5; stroke-linecap: square"/>
   </g>
   <g id="line2d_38">
    <path d="M 92.290909 176.311994 
L 96.369484 163.638804 
L 98.408771 163.405952 
L 100.448058 169.619156 
L 102.487346 166.03231 
L 104.526633 168.264335 
L 106.565921 162.295192 
L 108.605208 164.3573 
L 110.644495 175.351869 
L 112.683783 249.32021 
L 114.72307 161.857082 
L 116.762357 163.383884 
L 118.801645 169.776849 
L 120.840932 161.065223 
L 122.880219 167.982543 
L 124.919507 165.977893 
L 126.958794 180.076353 
L 128.998081 163.138736 
L 131.037369 167.019514 
L 133.076656 173.610761 
L 135.115943 167.695199 
L 137.155231 165.698818 
L 139.194518 165.268246 
L 141.233805 167.571453 
L 143.273093 164.742337 
L 145.31238 161.061306 
L 147.351667 160.671723 
L 149.390955 163.856357 
L 151.430242 161.977112 
L 153.469529 163.674706 
L 155.508817 167.956566 
L 157.548104 163.403664 
L 159.587392 165.071133 
L 161.626679 168.328967 
L 163.665966 168.353611 
L 165.705254 250.293187 
L 167.744541 162.097779 
L 169.783828 167.853964 
L 171.823116 166.359215 
L 173.862403 166.853044 
L 175.90169 171.990033 
L 177.940978 170.662765 
L 179.980265 184.589775 
L 182.019552 169.420739 
L 184.05884 172.438502 
L 186.098127 187.721008 
L 188.137414 173.146452 
L 190.176702 173.931014 
L 192.215989 197.762241 
L 194.255276 193.094556 
L 196.294564 189.771688 
L 198.333851 187.99476 
L 200.373138 171.531128 
L 202.412426 164.180046 
L 204.451713 167.310445 
L 206.491 166.109549 
L 208.530288 174.227035 
L 210.569575 166.06081 
L 212.608862 163.32052 
L 214.64815 168.193244 
L 216.687437 161.016753 
L 218.726725 167.417036 
L 220.766012 166.382601 
L 222.805299 169.753966 
L 224.844587 162.163646 
L 226.883874 177.572733 
L 228.923161 186.522549 
L 230.962449 166.368067 
L 233.001736 170.883147 
L 235.041023 166.139624 
L 237.080311 166.146511 
L 239.119598 168.300725 
L 241.158885 164.522538 
L 243.198173 170.531644 
L 245.23746 162.032692 
L 247.276747 163.869747 
L 249.316035 164.42672 
L 251.355322 169.359853 
L 253.394609 165.373935 
L 255.433897 162.939608 
L 257.473184 169.128069 
L 259.512471 163.963804 
L 261.551759 161.970881 
L 265.630333 167.772036 
L 267.669621 163.2166 
L 269.708908 164.891428 
L 271.748196 164.81747 
L 273.787483 166.209064 
L 275.82677 162.242074 
L 277.866058 250.84797 
L 279.905345 167.944835 
L 281.944632 164.264713 
L 283.98392 162.985259 
L 286.023207 169.715038 
L 288.062494 171.261283 
L 290.101782 169.268243 
L 292.141069 171.507041 
L 294.180356 166.712404 
L 296.219644 167.478779 
L 298.258931 174.05112 
L 300.298218 169.251986 
L 302.337506 164.15858 
L 304.376793 170.026053 
L 306.41608 163.689012 
L 308.455368 167.142627 
L 310.494655 167.597154 
L 312.533942 163.293024 
L 314.57323 250.636137 
L 316.612517 160.147133 
L 318.651804 162.229991 
L 320.691092 161.653344 
L 322.730379 165.454375 
L 324.769667 164.922375 
L 326.808954 164.131012 
L 328.848241 166.493711 
L 330.887529 166.914082 
L 332.926816 163.446797 
L 334.966103 164.769728 
L 337.005391 160.831204 
L 339.044678 162.925752 
L 341.083965 162.293748 
L 343.123253 162.468207 
L 345.16254 164.830652 
L 347.201827 163.177134 
L 349.241115 251.738182 
L 351.280402 162.791975 
L 353.319689 163.580657 
L 355.358977 170.590791 
L 357.398264 167.474472 
L 359.437551 170.980988 
L 361.476839 166.061916 
L 363.516126 165.968026 
L 365.555413 169.903265 
L 367.594701 166.711192 
L 369.633988 170.073902 
L 371.673275 165.447814 
L 373.712563 171.529643 
L 375.75185 175.761187 
L 377.791138 173.896696 
L 379.830425 165.966605 
L 381.869712 178.014498 
L 383.909 171.217181 
L 385.948287 169.822553 
L 387.987574 168.212634 
L 390.026862 171.847025 
L 392.066149 171.609211 
L 394.105436 171.640715 
L 396.144724 249.020256 
L 398.184011 164.537031 
L 400.223298 170.746515 
L 402.262586 171.204348 
L 404.301873 170.078371 
L 406.34116 167.321616 
L 408.380448 172.35504 
L 410.419735 166.328234 
L 412.459022 171.589056 
L 414.49831 164.678917 
L 416.537597 166.4257 
L 418.576884 160.618515 
L 420.616172 167.996952 
L 422.655459 167.065063 
L 424.694746 171.408507 
L 426.734034 167.285411 
L 428.773321 172.068718 
L 430.812608 175.628985 
L 432.851896 171.657215 
L 434.891183 173.365899 
L 436.930471 178.037597 
L 438.969758 170.390136 
L 441.009045 178.208604 
L 443.048333 171.753984 
L 445.08762 173.973529 
L 447.126907 175.102705 
L 449.166195 163.34599 
L 451.205482 168.891725 
L 453.244769 172.865718 
L 455.284057 178.520399 
L 457.323344 180.146877 
L 459.362631 173.227447 
L 461.401919 172.772813 
L 463.441206 176.59105 
L 465.480493 174.766243 
L 469.559068 175.039165 
L 471.598355 170.151655 
L 473.637643 175.276483 
L 475.67693 177.76896 
L 477.716217 179.475158 
L 479.755505 173.011204 
L 481.794792 176.479711 
L 483.834079 170.481917 
L 485.873367 173.772869 
L 487.912654 177.60189 
L 489.951942 172.773919 
L 491.991229 168.820797 
L 494.030516 168.511626 
L 496.069804 173.443979 
L 498.109091 176.137776 
L 498.109091 176.137776 
" clip-path="url(#p3612327d83)" style="fill: none; stroke: #ff0000; stroke-opacity: 0.9; stroke-width: 1.5; stroke-linecap: square"/>
   </g>
   <g id="line2d_39">
    <path d="M 92.290909 170.266746 
L 94.330196 168.506077 
L 96.369484 165.116227 
L 98.408771 163.029971 
L 100.448058 166.343295 
L 102.487346 164.442834 
L 104.526633 167.075218 
L 106.565921 162.886043 
L 108.605208 163.950899 
L 110.644495 174.050056 
L 112.683783 248.122628 
L 114.72307 161.262488 
L 116.762357 162.488998 
L 118.801645 168.97455 
L 120.840932 160.439935 
L 122.880219 167.180529 
L 124.919507 165.088682 
L 126.958794 179.757194 
L 128.998081 162.562362 
L 131.037369 165.484307 
L 133.076656 172.930074 
L 135.115943 166.505882 
L 139.194518 165.10214 
L 141.233805 166.733237 
L 143.273093 164.065308 
L 145.31238 160.987518 
L 147.351667 161.064727 
L 149.390955 163.684467 
L 151.430242 162.054427 
L 153.469529 162.922108 
L 155.508817 167.070063 
L 157.548104 163.368683 
L 159.587392 164.723231 
L 161.626679 167.855472 
L 163.665966 167.238843 
L 165.705254 248.300851 
L 167.744541 163.056638 
L 169.783828 167.195298 
L 171.823116 165.64953 
L 173.862403 166.067992 
L 175.90169 171.361181 
L 177.940978 170.456269 
L 179.980265 183.191648 
L 182.019552 168.361414 
L 184.05884 172.324203 
L 186.098127 188.242096 
L 188.137414 171.625522 
L 190.176702 173.766543 
L 192.215989 195.631086 
L 198.333851 186.677141 
L 200.373138 172.035927 
L 202.412426 164.090762 
L 204.451713 166.159613 
L 206.491 166.354298 
L 208.530288 172.898218 
L 210.569575 165.485901 
L 212.608862 162.871971 
L 214.64815 166.682828 
L 216.687437 160.402113 
L 218.726725 165.171561 
L 220.766012 165.938022 
L 222.805299 169.3588 
L 224.844587 161.953942 
L 226.883874 176.894177 
L 228.923161 185.988712 
L 230.962449 165.122621 
L 233.001736 169.828432 
L 235.041023 166.482855 
L 237.080311 165.512848 
L 239.119598 167.732858 
L 241.158885 164.871201 
L 243.198173 170.029197 
L 245.23746 161.269181 
L 247.276747 163.257983 
L 249.316035 164.450065 
L 251.355322 168.57327 
L 253.394609 164.847004 
L 255.433897 162.277737 
L 257.473184 168.549035 
L 259.512471 162.941998 
L 261.551759 161.670503 
L 263.591046 163.752747 
L 265.630333 167.149078 
L 267.669621 163.081509 
L 269.708908 164.178887 
L 271.748196 164.133785 
L 273.787483 165.891909 
L 275.82677 161.748188 
L 277.866058 248.872173 
L 279.905345 168.410104 
L 281.944632 163.734228 
L 283.98392 162.062847 
L 286.023207 169.418675 
L 288.062494 170.256269 
L 290.101782 168.466797 
L 292.141069 170.572284 
L 294.180356 165.857575 
L 296.219644 167.238771 
L 298.258931 174.100276 
L 300.298218 167.840778 
L 302.337506 165.373265 
L 304.376793 170.04439 
L 306.41608 162.933937 
L 308.455368 166.448173 
L 310.494655 166.119155 
L 312.533942 162.463684 
L 314.57323 248.672779 
L 316.612517 160.752818 
L 318.651804 161.496529 
L 320.691092 161.943487 
L 322.730379 164.015755 
L 324.769667 163.672459 
L 326.808954 163.816937 
L 328.848241 165.057769 
L 330.887529 165.784458 
L 332.926816 163.460501 
L 334.966103 165.139811 
L 337.005391 160.713568 
L 339.044678 162.186082 
L 341.083965 161.481166 
L 343.123253 162.383146 
L 345.16254 163.837198 
L 347.201827 163.037407 
L 349.241115 249.355415 
L 351.280402 163.513327 
L 353.319689 161.750533 
L 355.358977 169.853508 
L 357.398264 166.967071 
L 359.437551 171.69434 
L 361.476839 167.431347 
L 363.516126 166.57431 
L 365.555413 169.516341 
L 367.594701 166.601503 
L 369.633988 169.396569 
L 371.673275 164.545845 
L 373.712563 170.67736 
L 375.75185 175.798971 
L 377.791138 173.641821 
L 379.830425 165.210008 
L 381.869712 177.403682 
L 383.909 171.089443 
L 385.948287 169.122713 
L 387.987574 167.323574 
L 390.026862 170.706333 
L 394.105436 172.227726 
L 396.144724 248.918203 
L 398.184011 165.426117 
L 400.223298 169.814599 
L 402.262586 170.649341 
L 404.301873 170.273973 
L 406.34116 167.293373 
L 408.380448 172.153059 
L 410.419735 166.096753 
L 412.459022 170.396163 
L 414.49831 164.635785 
L 416.537597 165.561579 
L 418.576884 160.549 
L 420.616172 167.993263 
L 422.655459 166.723294 
L 424.694746 170.739458 
L 426.734034 167.041396 
L 428.773321 171.282522 
L 430.812608 174.532817 
L 432.851896 171.461851 
L 434.891183 173.079235 
L 436.930471 177.582553 
L 438.969758 170.681038 
L 441.009045 177.500767 
L 443.048333 171.52912 
L 445.08762 173.689206 
L 447.126907 175.01401 
L 449.166195 163.108941 
L 451.205482 168.546948 
L 453.244769 171.992893 
L 455.284057 177.748013 
L 457.323344 178.9542 
L 459.362631 174.000745 
L 461.401919 172.645434 
L 463.441206 175.477562 
L 465.480493 174.644135 
L 467.519781 175.250994 
L 469.559068 175.286267 
L 471.598355 168.845982 
L 473.637643 174.338092 
L 475.67693 177.62933 
L 477.716217 177.897947 
L 479.755505 172.926593 
L 481.794792 176.012628 
L 483.834079 169.76675 
L 487.912654 176.972898 
L 489.951942 171.792196 
L 491.991229 168.491535 
L 494.030516 167.712722 
L 496.069804 173.781621 
L 498.109091 175.293559 
L 498.109091 175.293559 
" clip-path="url(#p3612327d83)" style="fill: none; stroke: #008000; stroke-opacity: 0.9; stroke-width: 1.5; stroke-linecap: square"/>
   </g>
   <g id="line2d_40">
    <path d="M 438.969758 256.32 
L 438.969758 155.52 
" clip-path="url(#p3612327d83)" style="fill: none; stroke-dasharray: 5.55,2.4; stroke-dashoffset: 0; stroke: #0000ff; stroke-width: 1.5"/>
   </g>
   <g id="line2d_41">
    <path d="M 153.469529 256.32 
L 153.469529 155.52 
" clip-path="url(#p3612327d83)" style="fill: none; stroke-dasharray: 5.55,2.4; stroke-dashoffset: 0; stroke: #000000; stroke-width: 1.5"/>
   </g>
   <g id="patch_8">
    <path d="M 72 256.32 
L 72 155.52 
" style="fill: none; stroke: #000000; stroke-width: 0.8; stroke-linejoin: miter; stroke-linecap: square"/>
   </g>
   <g id="patch_9">
    <path d="M 518.4 256.32 
L 518.4 155.52 
" style="fill: none; stroke: #000000; stroke-width: 0.8; stroke-linejoin: miter; stroke-linecap: square"/>
   </g>
   <g id="patch_10">
    <path d="M 72 256.32 
L 518.4 256.32 
" style="fill: none; stroke: #000000; stroke-width: 0.8; stroke-linejoin: miter; stroke-linecap: square"/>
   </g>
   <g id="patch_11">
    <path d="M 72 155.52 
L 518.4 155.52 
" style="fill: none; stroke: #000000; stroke-width: 0.8; stroke-linejoin: miter; stroke-linecap: square"/>
   </g>
  </g>
 </g>
 <defs>
  <clipPath id="p1a1ad76fee">
   <rect x="72" y="34.56" width="446.4" height="100.8"/>
  </clipPath>
  <clipPath id="p3612327d83">
   <rect x="72" y="155.52" width="446.4" height="100.8"/>
  </clipPath>
 </defs>
</svg>
