<?xml version="1.0" encoding="utf-8" standalone="no"?>
<!DOCTYPE svg PUBLIC "-//W3C//DTD SVG 1.1//EN"
  "http://www.w3.org/Graphics/SVG/1.1/DTD/svg11.dtd">
<svg xmlns:xlink="http://www.w3.org/1999/xlink" width="576pt" height="288pt" viewBox="0 0 576 288" xmlns="http://www.w3.org/2000/svg" version="1.1">
 <metadata>
  <rdf:RDF xmlns:dc="http://purl.org/dc/elements/1.1/" xmlns:cc="http://creativecommons.org/ns#" xmlns:rdf="http://www.w3.org/1999/02/22-rdf-syntax-ns#">
   <cc:Work>
    <dc:type rdf:resource="http://purl.org/dc/dcmitype/StillImage"/>
    <dc:date>2025-01-01T00:43:51.542655</dc:date>
    <dc:format>image/svg+xml</dc:format>
    <dc:creator>
     <cc:Agent>
      <dc:title>Matplotlib v3.10.0, https://matplotlib.org/</dc:title>
     </cc:Agent>
    </dc:creator>
   </cc:Work>
  </rdf:RDF>
 </metadata>
 <defs>
  <style type="text/css">*{stroke-linejoin: round; stroke-linecap: butt}</style>
 </defs>
 <g id="figure_1">
  <g id="patch_1">
   <path d="M 0 288 
L 576 288 
L 576 0 
L 0 0 
z
" style="fill: #ffffff"/>
  </g>
  <g id="axes_1">
   <g id="patch_2">
    <path d="M 72 135.36 
L 518.4 135.36 
L 518.4 34.56 
L 72 34.56 
z
" style="fill: #ffffff"/>
   </g>
   <g id="matplotlib.axis_1">
    <g id="xtick_1">
     <g id="line2d_1">
      <defs>
       <path id="ma803776986" d="M 0 0 
L 0 3.5 
" style="stroke: #000000; stroke-width: 0.8"/>
      </defs>
      <g>
       <use xlink:href="#ma803776986" x="92.290909" y="135.36" style="stroke: #000000; stroke-width: 0.8"/>
      </g>
     </g>
    </g>
    <g id="xtick_2">
     <g id="line2d_2">
      <g>
       <use xlink:href="#ma803776986" x="143.273093" y="135.36" style="stroke: #000000; stroke-width: 0.8"/>
      </g>
     </g>
    </g>
    <g id="xtick_3">
     <g id="line2d_3">
      <g>
       <use xlink:href="#ma803776986" x="194.255276" y="135.36" style="stroke: #000000; stroke-width: 0.8"/>
      </g>
     </g>
    </g>
    <g id="xtick_4">
     <g id="line2d_4">
      <g>
       <use xlink:href="#ma803776986" x="245.23746" y="135.36" style="stroke: #000000; stroke-width: 0.8"/>
      </g>
     </g>
    </g>
    <g id="xtick_5">
     <g id="line2d_5">
      <g>
       <use xlink:href="#ma803776986" x="296.219644" y="135.36" style="stroke: #000000; stroke-width: 0.8"/>
      </g>
     </g>
    </g>
    <g id="xtick_6">
     <g id="line2d_6">
      <g>
       <use xlink:href="#ma803776986" x="347.201827" y="135.36" style="stroke: #000000; stroke-width: 0.8"/>
      </g>
     </g>
    </g>
    <g id="xtick_7">
     <g id="line2d_7">
      <g>
       <use xlink:href="#ma803776986" x="398.184011" y="135.36" style="stroke: #000000; stroke-width: 0.8"/>
      </g>
     </g>
    </g>
    <g id="xtick_8">
     <g id="line2d_8">
      <g>
       <use xlink:href="#ma803776986" x="449.166195" y="135.36" style="stroke: #000000; stroke-width: 0.8"/>
      </g>
     </g>
    </g>
    <g id="xtick_9">
     <g id="line2d_9">
      <g>
       <use xlink:href="#ma803776986" x="500.148378" y="135.36" style="stroke: #000000; stroke-width: 0.8"/>
      </g>
     </g>
    </g>
   </g>
   <g id="matplotlib.axis_2">
    <g id="ytick_1">
     <g id="line2d_10">
      <defs>
       <path id="madc3c2c828" d="M 0 0 
L -3.5 0 
" style="stroke: #000000; stroke-width: 0.8"/>
      </defs>
      <g>
       <use xlink:href="#madc3c2c828" x="72" y="116.581617" style="stroke: #000000; stroke-width: 0.8"/>
      </g>
     </g>
     <g id="text_1">
      <!-- −150 -->
      <g transform="translate(37.532812 120.380835) scale(0.1 -0.1)">
       <defs>
        <path id="DejaVuSans-2212" d="M 678 2272 
L 4684 2272 
L 4684 1741 
L 678 1741 
L 678 2272 
z
" transform="scale(0.015625)"/>
        <path id="DejaVuSans-31" d="M 794 531 
L 1825 531 
L 1825 4091 
L 703 3866 
L 703 4441 
L 1819 4666 
L 2450 4666 
L 2450 531 
L 3481 531 
L 3481 0 
L 794 0 
L 794 531 
z
" transform="scale(0.015625)"/>
        <path id="DejaVuSans-35" d="M 691 4666 
L 3169 4666 
L 3169 4134 
L 1269 4134 
L 1269 2991 
Q 1406 3038 1543 3061 
Q 1681 3084 1819 3084 
Q 2600 3084 3056 2656 
Q 3513 2228 3513 1497 
Q 3513 744 3044 326 
Q 2575 -91 1722 -91 
Q 1428 -91 1123 -41 
Q 819 9 494 109 
L 494 744 
Q 775 591 1075 516 
Q 1375 441 1709 441 
Q 2250 441 2565 725 
Q 2881 1009 2881 1497 
Q 2881 1984 2565 2268 
Q 2250 2553 1709 2553 
Q 1456 2553 1204 2497 
Q 953 2441 691 2322 
L 691 4666 
z
" transform="scale(0.015625)"/>
        <path id="DejaVuSans-30" d="M 2034 4250 
Q 1547 4250 1301 3770 
Q 1056 3291 1056 2328 
Q 1056 1369 1301 889 
Q 1547 409 2034 409 
Q 2525 409 2770 889 
Q 3016 1369 3016 2328 
Q 3016 3291 2770 3770 
Q 2525 4250 2034 4250 
z
M 2034 4750 
Q 2819 4750 3233 4129 
Q 3647 3509 3647 2328 
Q 3647 1150 3233 529 
Q 2819 -91 2034 -91 
Q 1250 -91 836 529 
Q 422 1150 422 2328 
Q 422 3509 836 4129 
Q 1250 4750 2034 4750 
z
" transform="scale(0.015625)"/>
       </defs>
       <use xlink:href="#DejaVuSans-2212"/>
       <use xlink:href="#DejaVuSans-31" transform="translate(83.789062 0)"/>
       <use xlink:href="#DejaVuSans-35" transform="translate(147.412109 0)"/>
       <use xlink:href="#DejaVuSans-30" transform="translate(211.035156 0)"/>
      </g>
     </g>
    </g>
    <g id="ytick_2">
     <g id="line2d_11">
      <g>
       <use xlink:href="#madc3c2c828" x="72" y="77.630121" style="stroke: #000000; stroke-width: 0.8"/>
      </g>
     </g>
     <g id="text_2">
      <!-- −100 -->
      <g transform="translate(37.532812 81.429339) scale(0.1 -0.1)">
       <use xlink:href="#DejaVuSans-2212"/>
       <use xlink:href="#DejaVuSans-31" transform="translate(83.789062 0)"/>
       <use xlink:href="#DejaVuSans-30" transform="translate(147.412109 0)"/>
       <use xlink:href="#DejaVuSans-30" transform="translate(211.035156 0)"/>
      </g>
     </g>
    </g>
    <g id="ytick_3">
     <g id="line2d_12">
      <g>
       <use xlink:href="#madc3c2c828" x="72" y="38.678624" style="stroke: #000000; stroke-width: 0.8"/>
      </g>
     </g>
     <g id="text_3">
      <!-- −50 -->
      <g transform="translate(43.895313 42.477843) scale(0.1 -0.1)">
       <use xlink:href="#DejaVuSans-2212"/>
       <use xlink:href="#DejaVuSans-35" transform="translate(83.789062 0)"/>
       <use xlink:href="#DejaVuSans-30" transform="translate(147.412109 0)"/>
      </g>
     </g>
    </g>
   </g>
   <g id="line2d_13">
    <path d="M 92.290909 61.719062 
L 94.330196 105.899388 
L 96.369484 130.778182 
L 98.408771 104.166481 
L 100.448058 89.302428 
L 102.487346 107.417768 
L 104.526633 98.399721 
L 106.565921 67.584675 
L 108.605208 115.385363 
L 110.644495 44.962442 
L 112.683783 81.595546 
L 114.72307 123.615971 
L 116.762357 122.609268 
L 118.801645 111.106048 
L 120.840932 67.921162 
L 122.880219 116.352767 
L 124.919507 69.724493 
L 126.958794 66.281349 
L 128.998081 88.007435 
L 131.037369 64.529298 
L 133.076656 52.487666 
L 135.115943 52.622471 
L 137.155231 108.347467 
L 139.194518 108.166784 
L 141.233805 125.667212 
L 143.273093 122.021691 
L 145.31238 120.226092 
L 147.351667 116.3817 
L 149.390955 117.308237 
L 151.430242 109.693735 
L 153.469529 107.481733 
L 155.508817 111.939639 
L 157.548104 127.872404 
L 159.587392 109.459905 
L 161.626679 121.627635 
L 163.665966 98.295513 
L 165.705254 93.784299 
L 167.744541 111.277744 
L 169.783828 47.401718 
L 171.823116 54.731983 
L 173.862403 74.766714 
L 175.90169 47.728407 
L 177.940978 42.092452 
L 179.980265 70.371434 
L 182.019552 67.177567 
L 184.05884 70.912652 
L 186.098127 64.603628 
L 188.137414 56.532277 
L 190.176702 66.689633 
L 192.215989 60.634279 
L 194.255276 48.533996 
L 196.294564 69.064334 
L 198.333851 75.233423 
L 200.373138 96.699153 
L 202.412426 70.925395 
L 204.451713 53.116372 
L 206.491 44.364579 
L 208.530288 76.532523 
L 210.569575 56.817376 
L 212.608862 110.189485 
L 214.64815 108.47177 
L 216.687437 93.254083 
L 218.726725 92.09711 
L 220.766012 109.454472 
L 222.805299 121.710381 
L 224.844587 121.115101 
L 226.883874 67.694791 
L 228.923161 59.538311 
L 230.962449 79.806646 
L 233.001736 73.154074 
L 235.041023 41.375214 
L 237.080311 60.277436 
L 239.119598 52.306453 
L 241.158885 74.661139 
L 243.198173 50.459918 
L 245.23746 84.433664 
L 247.276747 49.747117 
L 249.316035 98.974299 
L 251.355322 74.620729 
L 253.394609 112.245588 
L 255.433897 89.802588 
L 257.473184 68.976583 
L 259.512471 64.517714 
L 261.551759 57.676537 
L 263.591046 69.375311 
L 265.630333 66.794869 
L 267.669621 60.145038 
L 269.708908 49.546354 
L 271.748196 41.811924 
L 273.787483 59.49065 
L 275.82677 49.677245 
L 277.866058 66.005694 
L 279.905345 56.199873 
L 281.944632 77.982316 
L 283.98392 64.662843 
L 286.023207 59.667256 
L 288.062494 54.035431 
L 290.101782 68.493969 
L 292.141069 74.711106 
L 294.180356 53.195962 
L 296.219644 43.373686 
L 298.258931 80.761206 
L 300.298218 56.87321 
L 302.337506 62.780195 
L 304.376793 59.443244 
L 306.41608 44.650288 
L 308.455368 46.977416 
L 310.494655 51.095246 
L 312.533942 57.941558 
L 314.57323 72.582949 
L 316.612517 39.825808 
L 318.651804 55.415417 
L 320.691092 45.567891 
L 322.730379 42.090637 
L 324.769667 55.873467 
L 326.808954 62.749759 
L 328.848241 46.022122 
L 330.887529 44.789851 
L 332.926816 49.217629 
L 334.966103 45.425796 
L 337.005391 55.57802 
L 339.044678 46.711491 
L 343.123253 51.91421 
L 345.16254 47.84973 
L 347.201827 53.511307 
L 349.241115 53.493411 
L 351.280402 41.644189 
L 353.319689 52.285693 
L 355.358977 54.437844 
L 357.398264 64.597714 
L 359.437551 82.18896 
L 361.476839 49.530693 
L 363.516126 56.822868 
L 365.555413 45.08752 
L 367.594701 69.281159 
L 369.633988 53.248092 
L 371.673275 59.494929 
L 373.712563 52.311006 
L 375.75185 68.330059 
L 377.791138 51.706026 
L 379.830425 91.328053 
L 381.869712 66.607868 
L 383.909 69.584475 
L 385.948287 101.077202 
L 387.987574 72.413202 
L 390.026862 78.49652 
L 392.066149 62.288993 
L 394.105436 63.562982 
L 396.144724 99.089051 
L 398.184011 83.548464 
L 400.223298 84.384124 
L 402.262586 57.112252 
L 404.301873 81.134382 
L 406.34116 73.020095 
L 408.380448 67.891028 
L 410.419735 50.069738 
L 412.459022 69.016655 
L 414.49831 106.687071 
L 416.537597 78.558868 
L 418.576884 115.457422 
L 420.616172 100.39214 
L 422.655459 84.120582 
L 424.694746 79.046457 
L 426.734034 65.501386 
L 428.773321 66.189735 
L 430.812608 62.379079 
L 432.851896 60.365281 
L 434.891183 68.731621 
L 436.930471 59.021824 
L 438.969758 60.245103 
L 441.009045 71.389204 
L 443.048333 46.872554 
L 445.08762 61.690503 
L 447.126907 69.669587 
L 449.166195 65.744785 
L 451.205482 56.012094 
L 453.244769 63.053146 
L 455.284057 62.517224 
L 457.323344 55.731809 
L 459.362631 52.073657 
L 461.401919 58.191448 
L 463.441206 60.453756 
L 465.480493 62.509961 
L 467.519781 59.599868 
L 469.559068 53.284205 
L 471.598355 67.211172 
L 473.637643 67.974814 
L 475.67693 71.666701 
L 477.716217 49.729893 
L 479.755505 64.694368 
L 481.794792 59.835974 
L 483.834079 62.059834 
L 485.873367 67.90745 
L 487.912654 66.574151 
L 489.951942 45.800776 
L 491.991229 52.668628 
L 494.030516 43.172287 
L 496.069804 61.731841 
L 498.109091 58.188726 
L 498.109091 58.188726 
" clip-path="url(#p6bce10844b)" style="fill: none; stroke: #ff0000; stroke-opacity: 0.9; stroke-width: 1.5; stroke-linecap: square"/>
   </g>
   <g id="line2d_14">
    <path d="M 92.290909 61.641743 
L 94.330196 105.802163 
L 96.369484 130.548013 
L 98.408771 104.266095 
L 100.448058 89.45258 
L 102.487346 107.325882 
L 104.526633 98.308957 
L 106.565921 67.543659 
L 108.605208 115.42396 
L 110.644495 45.051862 
L 112.683783 81.6911 
L 114.72307 123.651679 
L 116.762357 122.812465 
L 118.801645 110.96641 
L 120.840932 67.828984 
L 122.880219 116.543875 
L 124.919507 69.609848 
L 126.958794 66.321539 
L 128.998081 87.851655 
L 131.037369 64.530582 
L 133.076656 52.64656 
L 135.115943 52.801638 
L 137.155231 108.267526 
L 139.194518 107.899575 
L 141.233805 125.707735 
L 143.273093 121.87441 
L 145.31238 120.237516 
L 147.351667 116.42529 
L 149.390955 117.528302 
L 151.430242 109.611928 
L 153.469529 107.220836 
L 155.508817 111.913785 
L 157.548104 127.827078 
L 159.587392 109.629949 
L 161.626679 121.678476 
L 163.665966 98.343858 
L 165.705254 93.866112 
L 167.744541 111.204996 
L 169.783828 47.475011 
L 171.823116 54.82551 
L 173.862403 74.889703 
L 175.90169 47.889287 
L 177.940978 42.333132 
L 179.980265 70.456088 
L 182.019552 67.144979 
L 184.05884 70.982227 
L 186.098127 64.767104 
L 188.137414 56.513608 
L 190.176702 66.806008 
L 192.215989 60.503468 
L 194.255276 48.454338 
L 196.294564 69.226943 
L 198.333851 75.300181 
L 200.373138 96.785833 
L 202.412426 70.864111 
L 204.451713 53.0785 
L 206.491 44.404627 
L 208.530288 76.470533 
L 210.569575 56.731308 
L 212.608862 110.356878 
L 214.64815 108.489398 
L 216.687437 93.156859 
L 218.726725 92.042965 
L 220.766012 109.205415 
L 222.805299 121.803468 
L 224.844587 121.027196 
L 226.883874 67.529786 
L 228.923161 59.345913 
L 230.962449 79.847234 
L 233.001736 73.088874 
L 235.041023 41.321776 
L 237.080311 60.162238 
L 239.119598 52.279987 
L 241.158885 74.731558 
L 243.198173 50.549155 
L 245.23746 84.512469 
L 247.276747 49.749168 
L 249.316035 98.824184 
L 251.355322 74.732384 
L 253.394609 112.265 
L 255.433897 89.830879 
L 257.473184 69.082973 
L 259.512471 64.618106 
L 261.551759 57.883288 
L 263.591046 69.307905 
L 265.630333 66.731945 
L 267.669621 60.188301 
L 269.708908 49.584755 
L 271.748196 41.694685 
L 273.787483 59.644783 
L 275.82677 49.698862 
L 277.866058 66.097153 
L 279.905345 56.12489 
L 281.944632 77.965537 
L 283.98392 64.838213 
L 286.023207 59.720052 
L 288.062494 54.043592 
L 290.101782 68.586789 
L 292.141069 74.520396 
L 294.180356 53.078577 
L 296.219644 43.360236 
L 298.258931 80.677818 
L 300.298218 56.920157 
L 302.337506 62.718692 
L 304.376793 59.245717 
L 306.41608 44.639738 
L 308.455368 46.79933 
L 310.494655 51.08447 
L 312.533942 57.946824 
L 314.57323 72.602117 
L 316.612517 39.809148 
L 318.651804 55.56262 
L 320.691092 45.640675 
L 322.730379 42.322119 
L 324.769667 55.669015 
L 326.808954 62.826412 
L 328.848241 45.892122 
L 330.887529 44.70912 
L 332.926816 49.075707 
L 334.966103 45.194391 
L 337.005391 55.508219 
L 339.044678 46.790596 
L 343.123253 51.900724 
L 345.16254 47.702791 
L 347.201827 53.661857 
L 349.241115 53.473952 
L 351.280402 41.669374 
L 353.319689 52.30593 
L 355.358977 54.473315 
L 357.398264 64.5541 
L 359.437551 82.327795 
L 361.476839 49.620799 
L 363.516126 56.867985 
L 365.555413 45.11711 
L 367.594701 69.149617 
L 369.633988 53.224841 
L 371.673275 59.51421 
L 373.712563 52.457116 
L 375.75185 68.157785 
L 377.791138 51.748321 
L 379.830425 91.332582 
L 381.869712 66.493699 
L 383.909 69.490045 
L 385.948287 100.91744 
L 387.987574 72.435431 
L 390.026862 78.382012 
L 392.066149 62.189403 
L 394.105436 63.651659 
L 396.144724 98.929176 
L 398.184011 83.658194 
L 400.223298 84.252231 
L 402.262586 57.08509 
L 404.301873 81.161057 
L 406.34116 72.780767 
L 408.380448 67.85192 
L 410.419735 50.07246 
L 412.459022 68.989481 
L 414.49831 106.777223 
L 416.537597 78.527742 
L 418.576884 115.550795 
L 420.616172 100.314244 
L 422.655459 83.994395 
L 424.694746 79.068389 
L 426.734034 65.433944 
L 428.773321 66.11238 
L 430.812608 62.273135 
L 432.851896 60.095469 
L 434.891183 68.722426 
L 436.930471 58.759257 
L 438.969758 60.283457 
L 441.009045 71.327213 
L 443.048333 46.76547 
L 445.08762 61.708786 
L 447.126907 69.822811 
L 449.166195 65.843471 
L 451.205482 55.824617 
L 453.244769 63.139969 
L 455.284057 62.547108 
L 457.323344 55.890305 
L 459.362631 52.013663 
L 461.401919 58.080227 
L 465.480493 62.590252 
L 467.519781 59.631119 
L 469.559068 53.155985 
L 471.598355 67.211332 
L 473.637643 67.889691 
L 475.67693 71.853946 
L 477.716217 49.671004 
L 479.755505 64.697286 
L 481.794792 59.823279 
L 483.834079 62.182996 
L 485.873367 67.779296 
L 487.912654 66.424766 
L 489.951942 45.797769 
L 491.991229 52.635523 
L 494.030516 43.310522 
L 496.069804 61.791145 
L 498.109091 58.040013 
L 498.109091 58.040013 
" clip-path="url(#p6bce10844b)" style="fill: none; stroke: #ff0000; stroke-opacity: 0.9; stroke-width: 1.5; stroke-linecap: square"/>
   </g>
   <g id="line2d_15">
    <path d="M 92.290909 61.808114 
L 94.330196 106.007084 
L 96.369484 130.604536 
L 98.408771 104.305583 
L 100.448058 89.342262 
L 102.487346 107.184426 
L 104.526633 98.363228 
L 106.565921 67.634077 
L 108.605208 115.545173 
L 110.644495 44.799443 
L 112.683783 81.705044 
L 114.72307 123.47877 
L 116.762357 122.766724 
L 118.801645 111.044378 
L 120.840932 67.906368 
L 122.880219 116.512541 
L 124.919507 69.714882 
L 126.958794 66.239887 
L 128.998081 87.931994 
L 131.037369 64.572341 
L 133.076656 52.42722 
L 135.115943 52.681876 
L 137.155231 108.322872 
L 139.194518 108.053821 
L 141.233805 125.7203 
L 143.273093 121.910666 
L 145.31238 120.278467 
L 147.351667 116.548309 
L 149.390955 117.437009 
L 151.430242 109.750864 
L 153.469529 107.474101 
L 155.508817 112.065749 
L 157.548104 127.915649 
L 159.587392 109.670793 
L 161.626679 121.470643 
L 163.665966 98.284939 
L 165.705254 93.862563 
L 167.744541 111.287492 
L 169.783828 47.523222 
L 171.823116 55.050847 
L 173.862403 74.804075 
L 175.90169 47.851896 
L 177.940978 41.986307 
L 179.980265 70.411927 
L 182.019552 67.124218 
L 184.05884 70.728301 
L 186.098127 64.663122 
L 188.137414 56.590214 
L 190.176702 66.697294 
L 192.215989 60.634469 
L 194.255276 48.639499 
L 196.294564 69.117695 
L 198.333851 75.403242 
L 200.373138 96.757215 
L 202.412426 70.734994 
L 204.451713 53.024402 
L 206.491 44.39994 
L 208.530288 76.465974 
L 210.569575 56.73 
L 212.608862 110.383909 
L 214.64815 108.482052 
L 216.687437 93.211331 
L 218.726725 92.080046 
L 220.766012 109.234871 
L 222.805299 121.666981 
L 224.844587 121.06659 
L 226.883874 67.756205 
L 228.923161 59.511363 
L 230.962449 79.747347 
L 233.001736 73.197736 
L 235.041023 41.374418 
L 237.080311 60.266375 
L 239.119598 52.474209 
L 241.158885 74.559968 
L 243.198173 50.400204 
L 245.23746 84.397384 
L 247.276747 49.762743 
L 249.316035 98.797949 
L 251.355322 74.777079 
L 253.394609 112.253707 
L 257.473184 68.841862 
L 259.512471 64.578338 
L 261.551759 57.710736 
L 263.591046 69.222669 
L 265.630333 66.787339 
L 267.669621 60.127736 
L 269.708908 49.542782 
L 271.748196 41.696729 
L 273.787483 59.483969 
L 275.82677 49.80893 
L 277.866058 66.07203 
L 279.905345 56.119784 
L 281.944632 78.045947 
L 283.98392 64.750409 
L 286.023207 59.777359 
L 288.062494 53.913173 
L 290.101782 68.536994 
L 292.141069 74.669371 
L 294.180356 53.050363 
L 296.219644 43.339401 
L 298.258931 80.670425 
L 300.298218 56.948098 
L 302.337506 62.696065 
L 304.376793 59.354965 
L 306.41608 44.498499 
L 308.455368 46.956747 
L 310.494655 51.034265 
L 312.533942 57.859871 
L 314.57323 72.709005 
L 316.612517 39.753933 
L 318.651804 55.333188 
L 320.691092 45.584435 
L 322.730379 42.117118 
L 324.769667 55.800849 
L 326.808954 62.833883 
L 328.848241 45.871884 
L 330.887529 44.873633 
L 332.926816 49.086566 
L 334.966103 45.235131 
L 337.005391 55.434216 
L 339.044678 46.729425 
L 343.123253 51.891334 
L 345.16254 47.7354 
L 347.201827 53.592977 
L 349.241115 53.486487 
L 351.280402 41.723912 
L 353.319689 52.351 
L 355.358977 54.446592 
L 357.398264 64.536882 
L 359.437551 82.106565 
L 361.476839 49.588948 
L 363.516126 56.765364 
L 365.555413 45.043384 
L 367.594701 69.086479 
L 369.633988 53.185334 
L 371.673275 59.541473 
L 373.712563 52.330192 
L 375.75185 68.205494 
L 377.791138 51.62318 
L 379.830425 91.343019 
L 381.869712 66.665128 
L 383.909 69.748267 
L 385.948287 101.030819 
L 387.987574 72.351942 
L 390.026862 78.442375 
L 392.066149 62.153278 
L 394.105436 63.538417 
L 396.144724 99.113051 
L 398.184011 83.774616 
L 400.223298 84.255227 
L 402.262586 56.921126 
L 404.301873 81.230037 
L 406.34116 72.990098 
L 408.380448 68.036882 
L 410.419735 49.902707 
L 412.459022 68.835021 
L 414.49831 106.669407 
L 416.537597 78.625632 
L 418.576884 115.501904 
L 420.616172 100.331361 
L 422.655459 84.071156 
L 424.694746 78.961126 
L 426.734034 65.502675 
L 428.773321 66.133165 
L 430.812608 62.552065 
L 432.851896 60.129032 
L 434.891183 68.786373 
L 436.930471 58.858532 
L 438.969758 60.132057 
L 441.009045 71.280978 
L 443.048333 46.72615 
L 445.08762 61.782854 
L 447.126907 69.579869 
L 449.166195 66.012814 
L 451.205482 55.790733 
L 453.244769 63.105342 
L 455.284057 62.536422 
L 457.323344 55.768046 
L 459.362631 51.895803 
L 461.401919 58.104239 
L 463.441206 60.623973 
L 465.480493 62.55726 
L 467.519781 59.580224 
L 469.559068 53.163551 
L 471.598355 67.214619 
L 473.637643 68.129251 
L 475.67693 71.784935 
L 477.716217 49.86978 
L 479.755505 64.773208 
L 481.794792 59.733865 
L 483.834079 62.018711 
L 485.873367 67.766321 
L 487.912654 66.521901 
L 489.951942 45.85992 
L 491.991229 52.660878 
L 494.030516 43.12591 
L 496.069804 61.762135 
L 498.109091 58.050396 
L 498.109091 58.050396 
" clip-path="url(#p6bce10844b)" style="fill: none; stroke: #ff0000; stroke-opacity: 0.9; stroke-width: 1.5; stroke-linecap: square"/>
   </g>
   <g id="line2d_16">
    <path d="M 92.290909 61.795603 
L 94.330196 105.936951 
L 96.369484 130.568696 
L 98.408771 104.385298 
L 100.448058 89.439973 
L 102.487346 107.277382 
L 104.526633 98.230782 
L 106.565921 67.518874 
L 108.605208 115.560697 
L 110.644495 44.94744 
L 112.683783 81.751558 
L 114.72307 123.605997 
L 116.762357 122.712876 
L 118.801645 111.056431 
L 120.840932 67.800068 
L 122.880219 116.620345 
L 124.919507 69.709884 
L 126.958794 66.316368 
L 128.998081 87.803019 
L 131.037369 64.508407 
L 133.076656 52.626304 
L 135.115943 52.661288 
L 137.155231 108.281933 
L 139.194518 108.064698 
L 141.233805 125.746178 
L 143.273093 121.858779 
L 145.31238 120.386235 
L 147.351667 116.515251 
L 149.390955 117.325057 
L 151.430242 109.551078 
L 153.469529 107.332087 
L 155.508817 111.992192 
L 157.548104 127.976534 
L 159.587392 109.504505 
L 161.626679 121.661585 
L 163.665966 98.12957 
L 165.705254 93.938433 
L 167.744541 111.187522 
L 169.783828 47.59858 
L 171.823116 54.812155 
L 173.862403 74.988692 
L 175.90169 47.787281 
L 177.940978 42.206408 
L 179.980265 70.42933 
L 182.019552 67.022025 
L 184.05884 70.918464 
L 186.098127 64.637274 
L 188.137414 56.480337 
L 190.176702 66.68769 
L 192.215989 60.590184 
L 194.255276 48.638596 
L 196.294564 69.075959 
L 198.333851 75.404056 
L 200.373138 96.677828 
L 202.412426 70.855005 
L 204.451713 53.08304 
L 206.491 44.434977 
L 208.530288 76.447281 
L 210.569575 56.773014 
L 212.608862 110.336801 
L 214.64815 108.536554 
L 216.687437 93.193566 
L 218.726725 92.268801 
L 220.766012 109.270936 
L 222.805299 121.831641 
L 224.844587 121.247083 
L 226.883874 67.818018 
L 228.923161 59.400011 
L 230.962449 79.727127 
L 233.001736 73.210972 
L 235.041023 41.301794 
L 237.080311 60.154506 
L 239.119598 52.328022 
L 241.158885 74.775902 
L 243.198173 50.494635 
L 245.23746 84.388867 
L 247.276747 49.759004 
L 249.316035 99.049955 
L 251.355322 74.638429 
L 253.394609 112.295716 
L 257.473184 68.809832 
L 259.512471 64.671021 
L 261.551759 57.815591 
L 263.591046 69.194806 
L 265.630333 66.837265 
L 267.669621 60.220271 
L 269.708908 49.630541 
L 271.748196 41.674613 
L 273.787483 59.606418 
L 275.82677 49.928888 
L 277.866058 65.924161 
L 279.905345 56.18776 
L 281.944632 78.060467 
L 283.98392 64.823336 
L 286.023207 59.625051 
L 288.062494 53.945601 
L 290.101782 68.461131 
L 292.141069 74.79148 
L 294.180356 53.11636 
L 296.219644 43.492575 
L 298.258931 80.676606 
L 300.298218 56.803421 
L 302.337506 62.741301 
L 304.376793 59.254109 
L 306.41608 44.416038 
L 308.455368 46.935446 
L 310.494655 50.996298 
L 312.533942 58.034943 
L 314.57323 72.679448 
L 316.612517 39.86442 
L 318.651804 55.453842 
L 320.691092 45.567374 
L 322.730379 42.144836 
L 324.769667 55.733853 
L 326.808954 62.845818 
L 328.848241 45.872003 
L 330.887529 44.667292 
L 332.926816 49.138369 
L 334.966103 45.337175 
L 337.005391 55.410841 
L 339.044678 46.874337 
L 341.083965 49.245534 
L 343.123253 52.022751 
L 345.16254 47.715929 
L 347.201827 53.598433 
L 349.241115 53.431593 
L 351.280402 41.612007 
L 353.319689 52.246335 
L 355.358977 54.410581 
L 357.398264 64.658391 
L 359.437551 82.187177 
L 361.476839 49.713203 
L 363.516126 56.925412 
L 365.555413 45.086447 
L 367.594701 69.240322 
L 369.633988 53.244532 
L 371.673275 59.58486 
L 373.712563 52.370542 
L 375.75185 68.318225 
L 377.791138 51.641575 
L 379.830425 91.289201 
L 381.869712 66.643529 
L 383.909 69.629177 
L 385.948287 100.954076 
L 387.987574 72.461107 
L 390.026862 78.54206 
L 392.066149 62.239222 
L 394.105436 63.300028 
L 396.144724 99.007102 
L 398.184011 83.644232 
L 400.223298 84.249093 
L 402.262586 57.043093 
L 404.301873 81.130073 
L 406.34116 72.984268 
L 408.380448 67.928972 
L 410.419735 50.055057 
L 412.459022 68.93067 
L 414.49831 106.837443 
L 416.537597 78.440223 
L 418.576884 115.578658 
L 420.616172 100.471842 
L 422.655459 84.058788 
L 424.694746 79.092038 
L 426.734034 65.440328 
L 428.773321 66.088986 
L 430.812608 62.383982 
L 432.851896 60.156247 
L 434.891183 68.931044 
L 436.930471 58.896333 
L 438.969758 60.265852 
L 441.009045 71.372407 
L 443.048333 46.971407 
L 445.08762 61.729202 
L 447.126907 69.650258 
L 449.166195 65.871638 
L 451.205482 55.87081 
L 453.244769 63.158727 
L 455.284057 62.71723 
L 457.323344 55.694787 
L 459.362631 52.046091 
L 461.401919 58.172138 
L 463.441206 60.675943 
L 465.480493 62.542294 
L 467.519781 59.605181 
L 469.559068 53.084853 
L 471.598355 67.186815 
L 473.637643 67.907153 
L 475.67693 71.810291 
L 477.716217 49.640645 
L 479.755505 64.705209 
L 481.794792 59.709003 
L 483.834079 62.170508 
L 485.873367 67.924888 
L 487.912654 66.557901 
L 489.951942 45.908303 
L 491.991229 52.811142 
L 494.030516 43.171797 
L 496.069804 61.769826 
L 498.109091 58.324958 
L 498.109091 58.324958 
" clip-path="url(#p6bce10844b)" style="fill: none; stroke: #ff0000; stroke-opacity: 0.9; stroke-width: 1.5; stroke-linecap: square"/>
   </g>
   <g id="line2d_17">
    <path d="M 92.290909 61.695003 
L 94.330196 105.959286 
L 96.369484 130.569671 
L 98.408771 104.244924 
L 100.448058 89.481798 
L 102.487346 107.304877 
L 104.526633 98.252102 
L 106.565921 67.668954 
L 108.605208 115.431758 
L 110.644495 45.027811 
L 112.683783 81.864224 
L 114.72307 123.606081 
L 116.762357 122.789927 
L 118.801645 111.006315 
L 120.840932 67.941584 
L 122.880219 116.637212 
L 124.919507 69.858246 
L 126.958794 66.412778 
L 128.998081 88.017652 
L 131.037369 64.506968 
L 133.076656 52.47396 
L 135.115943 52.756045 
L 137.155231 108.328757 
L 139.194518 107.994219 
L 141.233805 125.669935 
L 143.273093 121.989537 
L 145.31238 120.401295 
L 147.351667 116.363965 
L 149.390955 117.220486 
L 151.430242 109.657515 
L 153.469529 107.419861 
L 155.508817 111.885565 
L 157.548104 127.985533 
L 159.587392 109.481076 
L 161.626679 121.657781 
L 163.665966 98.180613 
L 165.705254 93.78761 
L 167.744541 111.176609 
L 169.783828 47.569879 
L 171.823116 54.637588 
L 173.862403 74.799468 
L 175.90169 47.809037 
L 177.940978 42.274621 
L 179.980265 70.358721 
L 182.019552 67.156854 
L 184.05884 70.868135 
L 186.098127 64.774896 
L 188.137414 56.619516 
L 190.176702 66.776563 
L 192.215989 60.540187 
L 194.255276 48.594052 
L 196.294564 69.128904 
L 198.333851 75.260977 
L 200.373138 96.733221 
L 202.412426 70.768598 
L 204.451713 53.193733 
L 206.491 44.47564 
L 208.530288 76.452482 
L 210.569575 56.864265 
L 212.608862 110.348521 
L 214.64815 108.522409 
L 216.687437 93.272496 
L 218.726725 92.16297 
L 220.766012 109.230544 
L 222.805299 121.995563 
L 224.844587 121.097496 
L 226.883874 67.815308 
L 228.923161 59.48791 
L 230.962449 79.968429 
L 233.001736 73.245914 
L 235.041023 41.331714 
L 237.080311 60.232003 
L 239.119598 52.276005 
L 241.158885 74.626536 
L 243.198173 50.663871 
L 245.23746 84.52325 
L 247.276747 49.743408 
L 249.316035 98.8721 
L 251.355322 74.578654 
L 253.394609 112.408263 
L 255.433897 89.857738 
L 257.473184 69.017653 
L 259.512471 64.471479 
L 261.551759 57.746201 
L 263.591046 69.31272 
L 265.630333 66.916284 
L 267.669621 60.104152 
L 269.708908 49.545361 
L 271.748196 41.616512 
L 273.787483 59.532819 
L 275.82677 49.686101 
L 277.866058 66.140909 
L 279.905345 56.206655 
L 281.944632 78.004129 
L 283.98392 64.73974 
L 286.023207 59.592355 
L 288.062494 54.028679 
L 290.101782 68.385304 
L 292.141069 74.626221 
L 294.180356 53.22455 
L 296.219644 43.321951 
L 298.258931 80.786418 
L 300.298218 56.781346 
L 302.337506 62.700166 
L 304.376793 59.277235 
L 306.41608 44.432038 
L 308.455368 47.035193 
L 310.494655 51.112862 
L 312.533942 58.033404 
L 314.57323 72.790984 
L 316.612517 39.725285 
L 318.651804 55.475524 
L 320.691092 45.677573 
L 322.730379 42.227198 
L 324.769667 55.806251 
L 326.808954 62.904986 
L 328.848241 46.024559 
L 330.887529 44.780908 
L 332.926816 49.081071 
L 334.966103 45.227425 
L 337.005391 55.490995 
L 339.044678 46.756483 
L 341.083965 49.170084 
L 343.123253 51.819054 
L 345.16254 47.828268 
L 347.201827 53.537512 
L 349.241115 53.384496 
L 351.280402 41.689567 
L 353.319689 52.448932 
L 355.358977 54.443442 
L 357.398264 64.435943 
L 359.437551 82.117846 
L 361.476839 49.708104 
L 363.516126 56.926018 
L 365.555413 45.213609 
L 367.594701 69.116345 
L 369.633988 53.28222 
L 371.673275 59.521586 
L 373.712563 52.481217 
L 375.75185 68.333339 
L 377.791138 51.737551 
L 379.830425 91.293331 
L 381.869712 66.697503 
L 383.909 69.435079 
L 385.948287 101.008602 
L 387.987574 72.403544 
L 390.026862 78.358191 
L 392.066149 62.267192 
L 394.105436 63.561121 
L 396.144724 99.012611 
L 398.184011 83.680874 
L 400.223298 84.291512 
L 402.262586 56.947266 
L 404.301873 81.042359 
L 406.34116 72.873368 
L 408.380448 68.083372 
L 410.419735 49.986439 
L 412.459022 69.013837 
L 414.49831 106.815463 
L 416.537597 78.475141 
L 418.576884 115.535675 
L 420.616172 100.238571 
L 422.655459 83.996238 
L 424.694746 79.000121 
L 426.734034 65.462034 
L 428.773321 66.353967 
L 430.812608 62.313831 
L 432.851896 60.306636 
L 434.891183 68.670141 
L 436.930471 58.926175 
L 438.969758 60.4883 
L 441.009045 71.147647 
L 443.048333 46.719179 
L 445.08762 61.81269 
L 447.126907 69.629224 
L 449.166195 65.817718 
L 451.205482 55.800361 
L 453.244769 63.012736 
L 455.284057 62.608968 
L 457.323344 55.699761 
L 459.362631 52.04848 
L 461.401919 58.070402 
L 463.441206 60.485073 
L 465.480493 62.541301 
L 467.519781 59.709033 
L 469.559068 53.066767 
L 471.598355 67.394143 
L 473.637643 67.870232 
L 475.67693 71.676252 
L 477.716217 49.639034 
L 479.755505 64.66103 
L 481.794792 59.712397 
L 483.834079 62.05061 
L 485.873367 67.757887 
L 487.912654 66.495773 
L 489.951942 45.866874 
L 491.991229 52.771748 
L 494.030516 43.27448 
L 496.069804 61.793023 
L 498.109091 58.141136 
L 498.109091 58.141136 
" clip-path="url(#p6bce10844b)" style="fill: none; stroke: #ff0000; stroke-opacity: 0.9; stroke-width: 1.5; stroke-linecap: square"/>
   </g>
   <g id="line2d_18">
    <path d="M 92.290909 112.191609 
L 94.330196 100.690279 
L 96.369484 120.520083 
L 98.408771 100.862439 
L 100.448058 91.502442 
L 102.487346 104.755627 
L 104.526633 98.923405 
L 106.565921 66.439452 
L 108.605208 112.583287 
L 110.644495 46.169611 
L 112.683783 80.862935 
L 114.72307 119.17177 
L 116.762357 121.38357 
L 118.801645 112.579412 
L 120.840932 69.378556 
L 122.880219 112.490996 
L 124.919507 67.879414 
L 126.958794 63.431416 
L 128.998081 85.095012 
L 131.037369 63.303689 
L 133.076656 49.861631 
L 135.115943 52.164694 
L 137.155231 105.079906 
L 139.194518 109.256636 
L 141.233805 125.310209 
L 143.273093 121.349823 
L 145.31238 121.470976 
L 147.351667 113.379197 
L 149.390955 118.176622 
L 151.430242 109.294045 
L 153.469529 107.733738 
L 155.508817 114.618232 
L 157.548104 128.369187 
L 159.587392 109.624731 
L 161.626679 123.750033 
L 163.665966 95.769455 
L 165.705254 94.927316 
L 167.744541 112.916137 
L 169.783828 49.798826 
L 171.823116 54.352304 
L 173.862403 74.738541 
L 175.90169 50.571045 
L 177.940978 43.060742 
L 179.980265 68.63432 
L 182.019552 64.065174 
L 184.05884 70.49179 
L 186.098127 65.64633 
L 188.137414 59.271666 
L 190.176702 68.286451 
L 192.215989 61.26692 
L 194.255276 47.566292 
L 196.294564 68.566658 
L 198.333851 74.563082 
L 200.373138 92.645127 
L 202.412426 70.851362 
L 204.451713 52.230234 
L 206.491 42.30562 
L 208.530288 72.973772 
L 210.569575 57.812744 
L 212.608862 111.59917 
L 214.64815 105.834484 
L 216.687437 93.624531 
L 218.726725 92.234738 
L 220.766012 109.185552 
L 222.805299 120.940611 
L 224.844587 120.020066 
L 226.883874 69.733486 
L 228.923161 58.055324 
L 230.962449 78.89945 
L 233.001736 73.248547 
L 235.041023 43.77491 
L 237.080311 58.890413 
L 239.119598 51.509254 
L 241.158885 73.99991 
L 243.198173 52.027411 
L 245.23746 80.986775 
L 247.276747 50.10043 
L 249.316035 101.858443 
L 251.355322 76.806181 
L 253.394609 110.727588 
L 257.473184 71.786701 
L 259.512471 65.174723 
L 261.551759 56.806488 
L 263.591046 68.439818 
L 265.630333 63.743903 
L 267.669621 60.508847 
L 269.708908 48.371937 
L 271.748196 39.141818 
L 273.787483 61.758147 
L 275.82677 49.458785 
L 277.866058 65.269909 
L 279.905345 53.872079 
L 281.944632 81.641383 
L 283.98392 64.329708 
L 286.023207 62.714454 
L 288.062494 52.823998 
L 290.101782 66.979303 
L 292.141069 74.990505 
L 294.180356 54.024596 
L 296.219644 41.286326 
L 298.258931 78.659836 
L 300.298218 55.135316 
L 302.337506 60.401554 
L 304.376793 57.945731 
L 306.41608 44.593589 
L 308.455368 45.342373 
L 310.494655 56.25639 
L 312.533942 60.63466 
L 314.57323 72.350082 
L 316.612517 40.23044 
L 318.651804 56.486536 
L 320.691092 46.060434 
L 322.730379 42.012506 
L 326.808954 62.628065 
L 328.848241 45.894324 
L 332.926816 47.532304 
L 334.966103 45.79165 
L 337.005391 56.171083 
L 339.044678 40.659768 
L 341.083965 50.028365 
L 343.123253 56.205757 
L 345.16254 48.620165 
L 347.201827 52.484985 
L 349.241115 54.47968 
L 351.280402 41.039004 
L 353.319689 58.323787 
L 355.358977 57.6073 
L 357.398264 64.703033 
L 359.437551 83.104453 
L 361.476839 47.618191 
L 363.516126 55.829259 
L 365.555413 45.732229 
L 367.594701 69.870609 
L 369.633988 52.8842 
L 371.673275 62.228309 
L 373.712563 51.748909 
L 375.75185 68.218285 
L 377.791138 49.878695 
L 379.830425 94.019467 
L 381.869712 66.278264 
L 383.909 72.324495 
L 385.948287 100.052883 
L 387.987574 72.144554 
L 390.026862 80.067204 
L 392.066149 61.987079 
L 394.105436 66.660807 
L 396.144724 100.953018 
L 398.184011 83.411668 
L 400.223298 83.680559 
L 402.262586 58.890716 
L 404.301873 79.929707 
L 406.34116 68.254986 
L 408.380448 69.181344 
L 410.419735 46.900141 
L 412.459022 68.591782 
L 414.49831 105.206539 
L 416.537597 78.480277 
L 418.576884 112.949278 
L 420.616172 105.82129 
L 422.655459 86.119806 
L 424.694746 81.053711 
L 426.734034 61.421648 
L 428.773321 66.06312 
L 430.812608 64.445227 
L 432.851896 63.478138 
L 434.891183 70.960158 
L 436.930471 59.925044 
L 438.969758 59.898084 
L 441.009045 71.036598 
L 443.048333 47.755783 
L 445.08762 60.132818 
L 447.126907 69.489373 
L 449.166195 66.343286 
L 451.205482 56.278173 
L 453.244769 64.215842 
L 455.284057 62.213504 
L 457.323344 52.858143 
L 459.362631 49.716413 
L 461.401919 60.193412 
L 463.441206 60.135588 
L 465.480493 62.328707 
L 467.519781 54.624779 
L 469.559068 55.960213 
L 471.598355 67.779926 
L 473.637643 67.897928 
L 475.67693 70.264997 
L 477.716217 49.944413 
L 479.755505 64.941499 
L 481.794792 57.674355 
L 483.834079 61.446539 
L 485.873367 66.201028 
L 487.912654 66.806162 
L 489.951942 46.382148 
L 491.991229 49.576018 
L 494.030516 43.735323 
L 496.069804 64.308122 
L 498.109091 58.590247 
L 498.109091 58.590247 
" clip-path="url(#p6bce10844b)" style="fill: none; stroke: #008000; stroke-opacity: 0.9; stroke-width: 1.5; stroke-linecap: square"/>
   </g>
   <g id="line2d_19">
    <path d="M 153.469529 135.36 
L 153.469529 34.56 
" clip-path="url(#p6bce10844b)" style="fill: none; stroke-dasharray: 5.55,2.4; stroke-dashoffset: 0; stroke: #000000; stroke-width: 1.5"/>
   </g>
   <g id="line2d_20">
    <path d="M 438.969758 135.36 
L 438.969758 34.56 
" clip-path="url(#p6bce10844b)" style="fill: none; stroke-dasharray: 5.55,2.4; stroke-dashoffset: 0; stroke: #0000ff; stroke-width: 1.5"/>
   </g>
   <g id="patch_3">
    <path d="M 72 135.36 
L 72 34.56 
" style="fill: none; stroke: #000000; stroke-width: 0.8; stroke-linejoin: miter; stroke-linecap: square"/>
   </g>
   <g id="patch_4">
    <path d="M 518.4 135.36 
L 518.4 34.56 
" style="fill: none; stroke: #000000; stroke-width: 0.8; stroke-linejoin: miter; stroke-linecap: square"/>
   </g>
   <g id="patch_5">
    <path d="M 72 135.36 
L 518.4 135.36 
" style="fill: none; stroke: #000000; stroke-width: 0.8; stroke-linejoin: miter; stroke-linecap: square"/>
   </g>
   <g id="patch_6">
    <path d="M 72 34.56 
L 518.4 34.56 
" style="fill: none; stroke: #000000; stroke-width: 0.8; stroke-linejoin: miter; stroke-linecap: square"/>
   </g>
  </g>
  <g id="axes_2">
   <g id="patch_7">
    <path d="M 72 256.32 
L 518.4 256.32 
L 518.4 155.52 
L 72 155.52 
z
" style="fill: #ffffff"/>
   </g>
   <g id="matplotlib.axis_3">
    <g id="xtick_10">
     <g id="line2d_21">
      <g>
       <use xlink:href="#ma803776986" x="92.290909" y="256.32" style="stroke: #000000; stroke-width: 0.8"/>
      </g>
     </g>
     <g id="text_4">
      <!-- 0 -->
      <g transform="translate(89.109659 270.918437) scale(0.1 -0.1)">
       <use xlink:href="#DejaVuSans-30"/>
      </g>
     </g>
    </g>
    <g id="xtick_11">
     <g id="line2d_22">
      <g>
       <use xlink:href="#ma803776986" x="143.273093" y="256.32" style="stroke: #000000; stroke-width: 0.8"/>
      </g>
     </g>
     <g id="text_5">
      <!-- 25 -->
      <g transform="translate(136.910593 270.918437) scale(0.1 -0.1)">
       <defs>
        <path id="DejaVuSans-32" d="M 1228 531 
L 3431 531 
L 3431 0 
L 469 0 
L 469 531 
Q 828 903 1448 1529 
Q 2069 2156 2228 2338 
Q 2531 2678 2651 2914 
Q 2772 3150 2772 3378 
Q 2772 3750 2511 3984 
Q 2250 4219 1831 4219 
Q 1534 4219 1204 4116 
Q 875 4013 500 3803 
L 500 4441 
Q 881 4594 1212 4672 
Q 1544 4750 1819 4750 
Q 2544 4750 2975 4387 
Q 3406 4025 3406 3419 
Q 3406 3131 3298 2873 
Q 3191 2616 2906 2266 
Q 2828 2175 2409 1742 
Q 1991 1309 1228 531 
z
" transform="scale(0.015625)"/>
       </defs>
       <use xlink:href="#DejaVuSans-32"/>
       <use xlink:href="#DejaVuSans-35" transform="translate(63.623047 0)"/>
      </g>
     </g>
    </g>
    <g id="xtick_12">
     <g id="line2d_23">
      <g>
       <use xlink:href="#ma803776986" x="194.255276" y="256.32" style="stroke: #000000; stroke-width: 0.8"/>
      </g>
     </g>
     <g id="text_6">
      <!-- 50 -->
      <g transform="translate(187.892776 270.918437) scale(0.1 -0.1)">
       <use xlink:href="#DejaVuSans-35"/>
       <use xlink:href="#DejaVuSans-30" transform="translate(63.623047 0)"/>
      </g>
     </g>
    </g>
    <g id="xtick_13">
     <g id="line2d_24">
      <g>
       <use xlink:href="#ma803776986" x="245.23746" y="256.32" style="stroke: #000000; stroke-width: 0.8"/>
      </g>
     </g>
     <g id="text_7">
      <!-- 75 -->
      <g transform="translate(238.87496 270.918437) scale(0.1 -0.1)">
       <defs>
        <path id="DejaVuSans-37" d="M 525 4666 
L 3525 4666 
L 3525 4397 
L 1831 0 
L 1172 0 
L 2766 4134 
L 525 4134 
L 525 4666 
z
" transform="scale(0.015625)"/>
       </defs>
       <use xlink:href="#DejaVuSans-37"/>
       <use xlink:href="#DejaVuSans-35" transform="translate(63.623047 0)"/>
      </g>
     </g>
    </g>
    <g id="xtick_14">
     <g id="line2d_25">
      <g>
       <use xlink:href="#ma803776986" x="296.219644" y="256.32" style="stroke: #000000; stroke-width: 0.8"/>
      </g>
     </g>
     <g id="text_8">
      <!-- 100 -->
      <g transform="translate(286.675894 270.918437) scale(0.1 -0.1)">
       <use xlink:href="#DejaVuSans-31"/>
       <use xlink:href="#DejaVuSans-30" transform="translate(63.623047 0)"/>
       <use xlink:href="#DejaVuSans-30" transform="translate(127.246094 0)"/>
      </g>
     </g>
    </g>
    <g id="xtick_15">
     <g id="line2d_26">
      <g>
       <use xlink:href="#ma803776986" x="347.201827" y="256.32" style="stroke: #000000; stroke-width: 0.8"/>
      </g>
     </g>
     <g id="text_9">
      <!-- 125 -->
      <g transform="translate(337.658077 270.918437) scale(0.1 -0.1)">
       <use xlink:href="#DejaVuSans-31"/>
       <use xlink:href="#DejaVuSans-32" transform="translate(63.623047 0)"/>
       <use xlink:href="#DejaVuSans-35" transform="translate(127.246094 0)"/>
      </g>
     </g>
    </g>
    <g id="xtick_16">
     <g id="line2d_27">
      <g>
       <use xlink:href="#ma803776986" x="398.184011" y="256.32" style="stroke: #000000; stroke-width: 0.8"/>
      </g>
     </g>
     <g id="text_10">
      <!-- 150 -->
      <g transform="translate(388.640261 270.918437) scale(0.1 -0.1)">
       <use xlink:href="#DejaVuSans-31"/>
       <use xlink:href="#DejaVuSans-35" transform="translate(63.623047 0)"/>
       <use xlink:href="#DejaVuSans-30" transform="translate(127.246094 0)"/>
      </g>
     </g>
    </g>
    <g id="xtick_17">
     <g id="line2d_28">
      <g>
       <use xlink:href="#ma803776986" x="449.166195" y="256.32" style="stroke: #000000; stroke-width: 0.8"/>
      </g>
     </g>
     <g id="text_11">
      <!-- 175 -->
      <g transform="translate(439.622445 270.918437) scale(0.1 -0.1)">
       <use xlink:href="#DejaVuSans-31"/>
       <use xlink:href="#DejaVuSans-37" transform="translate(63.623047 0)"/>
       <use xlink:href="#DejaVuSans-35" transform="translate(127.246094 0)"/>
      </g>
     </g>
    </g>
    <g id="xtick_18">
     <g id="line2d_29">
      <g>
       <use xlink:href="#ma803776986" x="500.148378" y="256.32" style="stroke: #000000; stroke-width: 0.8"/>
      </g>
     </g>
     <g id="text_12">
      <!-- 200 -->
      <g transform="translate(490.604628 270.918437) scale(0.1 -0.1)">
       <use xlink:href="#DejaVuSans-32"/>
       <use xlink:href="#DejaVuSans-30" transform="translate(63.623047 0)"/>
       <use xlink:href="#DejaVuSans-30" transform="translate(127.246094 0)"/>
      </g>
     </g>
    </g>
   </g>
   <g id="matplotlib.axis_4">
    <g id="ytick_4">
     <g id="line2d_30">
      <g>
       <use xlink:href="#madc3c2c828" x="72" y="253.823061" style="stroke: #000000; stroke-width: 0.8"/>
      </g>
     </g>
     <g id="text_13">
      <!-- −200 -->
      <g transform="translate(37.532812 257.62228) scale(0.1 -0.1)">
       <use xlink:href="#DejaVuSans-2212"/>
       <use xlink:href="#DejaVuSans-32" transform="translate(83.789062 0)"/>
       <use xlink:href="#DejaVuSans-30" transform="translate(147.412109 0)"/>
       <use xlink:href="#DejaVuSans-30" transform="translate(211.035156 0)"/>
      </g>
     </g>
    </g>
    <g id="ytick_5">
     <g id="line2d_31">
      <g>
       <use xlink:href="#madc3c2c828" x="72" y="229.223797" style="stroke: #000000; stroke-width: 0.8"/>
      </g>
     </g>
     <g id="text_14">
      <!-- −100 -->
      <g transform="translate(37.532812 233.023016) scale(0.1 -0.1)">
       <use xlink:href="#DejaVuSans-2212"/>
       <use xlink:href="#DejaVuSans-31" transform="translate(83.789062 0)"/>
       <use xlink:href="#DejaVuSans-30" transform="translate(147.412109 0)"/>
       <use xlink:href="#DejaVuSans-30" transform="translate(211.035156 0)"/>
      </g>
     </g>
    </g>
    <g id="ytick_6">
     <g id="line2d_32">
      <g>
       <use xlink:href="#madc3c2c828" x="72" y="204.624534" style="stroke: #000000; stroke-width: 0.8"/>
      </g>
     </g>
     <g id="text_15">
      <!-- 0 -->
      <g transform="translate(58.6375 208.423752) scale(0.1 -0.1)">
       <use xlink:href="#DejaVuSans-30"/>
      </g>
     </g>
    </g>
    <g id="ytick_7">
     <g id="line2d_33">
      <g>
       <use xlink:href="#madc3c2c828" x="72" y="180.02527" style="stroke: #000000; stroke-width: 0.8"/>
      </g>
     </g>
     <g id="text_16">
      <!-- 100 -->
      <g transform="translate(45.9125 183.824489) scale(0.1 -0.1)">
       <use xlink:href="#DejaVuSans-31"/>
       <use xlink:href="#DejaVuSans-30" transform="translate(63.623047 0)"/>
       <use xlink:href="#DejaVuSans-30" transform="translate(127.246094 0)"/>
      </g>
     </g>
    </g>
   </g>
   <g id="line2d_34">
    <path d="M 92.290909 176.391408 
L 94.330196 169.825077 
L 96.369484 163.777726 
L 98.408771 163.769303 
L 100.448058 169.501555 
L 102.487346 165.99202 
L 104.526633 168.382141 
L 106.565921 162.522689 
L 108.605208 164.670372 
L 110.644495 175.404339 
L 112.683783 249.079888 
L 114.72307 161.576573 
L 116.762357 163.543609 
L 118.801645 170.003727 
L 120.840932 161.153529 
L 122.880219 167.858322 
L 124.919507 166.173673 
L 126.958794 180.236111 
L 128.998081 163.55195 
L 131.037369 167.35603 
L 133.076656 173.864439 
L 135.115943 167.882735 
L 137.155231 165.879057 
L 139.194518 165.176381 
L 141.233805 167.562565 
L 143.273093 164.962098 
L 145.31238 161.417816 
L 147.351667 161.075834 
L 149.390955 164.094518 
L 151.430242 162.46196 
L 153.469529 164.175486 
L 155.508817 167.98779 
L 157.548104 163.739928 
L 159.587392 165.31593 
L 161.626679 168.275496 
L 163.665966 168.410496 
L 165.705254 250.25452 
L 167.744541 162.116799 
L 169.783828 168.158434 
L 171.823116 166.73529 
L 173.862403 166.923324 
L 175.90169 172.307525 
L 177.940978 170.850453 
L 179.980265 184.847504 
L 182.019552 169.593078 
L 184.05884 172.675977 
L 186.098127 187.825745 
L 188.137414 173.030515 
L 190.176702 174.196707 
L 192.215989 197.70461 
L 194.255276 192.989764 
L 196.294564 189.831976 
L 198.333851 188.11142 
L 200.373138 171.497881 
L 202.412426 164.640246 
L 204.451713 167.433732 
L 206.491 166.363441 
L 208.530288 174.565334 
L 210.569575 166.02742 
L 212.608862 163.466677 
L 214.64815 168.438024 
L 216.687437 161.385694 
L 218.726725 167.500571 
L 220.766012 166.634207 
L 222.805299 169.85791 
L 224.844587 162.448515 
L 226.883874 177.712638 
L 228.923161 186.787693 
L 230.962449 166.379041 
L 233.001736 171.014243 
L 235.041023 166.162078 
L 237.080311 166.492882 
L 239.119598 168.605264 
L 241.158885 164.827019 
L 243.198173 170.61562 
L 245.23746 162.189723 
L 247.276747 164.314423 
L 249.316035 164.699316 
L 251.355322 169.661835 
L 253.394609 165.54793 
L 255.433897 163.116718 
L 257.473184 169.565733 
L 259.512471 164.054103 
L 261.551759 162.02704 
L 263.591046 164.862235 
L 265.630333 168.028512 
L 267.669621 163.548057 
L 269.708908 165.063103 
L 271.748196 165.065238 
L 273.787483 166.586815 
L 275.82677 162.450152 
L 277.866058 250.938683 
L 279.905345 167.879173 
L 281.944632 164.43665 
L 283.98392 163.185648 
L 286.023207 169.828988 
L 288.062494 171.333122 
L 290.101782 169.562059 
L 292.141069 171.473295 
L 294.180356 167.104606 
L 296.219644 167.712336 
L 298.258931 174.298704 
L 300.298218 169.58187 
L 302.337506 164.310685 
L 304.376793 170.382945 
L 306.41608 163.985759 
L 308.455368 167.606219 
L 310.494655 167.811538 
L 312.533942 163.655754 
L 314.57323 250.843486 
L 316.612517 160.101818 
L 318.651804 162.346719 
L 320.691092 162.094307 
L 322.730379 165.761075 
L 326.808954 164.464453 
L 328.848241 166.82938 
L 330.887529 167.24703 
L 332.926816 163.77214 
L 334.966103 165.165361 
L 337.005391 160.996338 
L 339.044678 163.22068 
L 341.083965 162.811896 
L 343.123253 162.898581 
L 345.16254 165.092084 
L 347.201827 163.53817 
L 349.241115 251.692175 
L 351.280402 162.858256 
L 353.319689 163.925511 
L 355.358977 170.766396 
L 357.398264 167.613444 
L 359.437551 170.862562 
L 361.476839 166.403431 
L 363.516126 166.018291 
L 365.555413 170.013164 
L 367.594701 167.295688 
L 369.633988 170.339103 
L 371.673275 165.693095 
L 373.712563 171.899604 
L 375.75185 175.842076 
L 377.791138 173.954337 
L 379.830425 166.113657 
L 381.869712 178.557902 
L 383.909 171.08145 
L 387.987574 168.369575 
L 390.026862 172.174863 
L 394.105436 171.823981 
L 396.144724 248.928556 
L 398.184011 164.5888 
L 400.223298 171.046907 
L 402.262586 170.774466 
L 404.301873 170.215214 
L 406.34116 167.417002 
L 408.380448 172.577709 
L 410.419735 166.527749 
L 412.459022 171.761079 
L 414.49831 165.046178 
L 416.537597 166.963367 
L 418.576884 160.911189 
L 420.616172 168.510517 
L 422.655459 167.430508 
L 424.694746 171.51997 
L 426.734034 167.681725 
L 428.773321 172.336566 
L 430.812608 175.702275 
L 432.851896 171.950101 
L 434.891183 173.799007 
L 436.930471 178.314971 
L 438.969758 170.672047 
L 441.009045 178.412191 
L 443.048333 171.827033 
L 445.08762 174.337428 
L 447.126907 175.215496 
L 449.166195 163.629119 
L 451.205482 169.373064 
L 453.244769 173.223629 
L 455.284057 178.529751 
L 457.323344 180.227909 
L 459.362631 173.581226 
L 461.401919 172.972121 
L 463.441206 176.874983 
L 465.480493 174.886341 
L 467.519781 174.914232 
L 469.559068 175.197205 
L 471.598355 170.566144 
L 473.637643 175.58897 
L 475.67693 178.137553 
L 477.716217 179.583231 
L 479.755505 173.523579 
L 481.794792 176.710075 
L 483.834079 170.979313 
L 485.873367 174.008973 
L 487.912654 177.915448 
L 489.951942 172.604596 
L 491.991229 169.093296 
L 494.030516 168.890023 
L 496.069804 173.692485 
L 498.109091 176.159476 
L 498.109091 176.159476 
" clip-path="url(#p752b8784ee)" style="fill: none; stroke: #ff0000; stroke-opacity: 0.9; stroke-width: 1.5; stroke-linecap: square"/>
   </g>
   <g id="line2d_35">
    <path d="M 92.290909 176.402346 
L 94.330196 169.890611 
L 96.369484 163.760921 
L 98.408771 163.824968 
L 100.448058 169.505275 
L 102.487346 165.998769 
L 104.526633 168.3489 
L 106.565921 162.506721 
L 108.605208 164.701527 
L 110.644495 175.412741 
L 112.683783 249.012714 
L 114.72307 161.600873 
L 116.762357 163.527341 
L 118.801645 169.964424 
L 120.840932 161.108565 
L 122.880219 167.932263 
L 124.919507 166.109059 
L 126.958794 180.218874 
L 128.998081 163.541609 
L 131.037369 167.336241 
L 133.076656 173.910644 
L 135.115943 167.91845 
L 137.155231 165.853157 
L 139.194518 165.21648 
L 141.233805 167.544034 
L 143.273093 164.970409 
L 145.31238 161.417989 
L 147.351667 160.997903 
L 149.390955 164.135702 
L 151.430242 162.430674 
L 153.469529 164.180722 
L 155.508817 168.006775 
L 157.548104 163.750374 
L 159.587392 165.302512 
L 161.626679 168.281235 
L 163.665966 168.450771 
L 165.705254 250.252467 
L 167.744541 162.159199 
L 169.783828 168.205653 
L 171.823116 166.757999 
L 173.862403 166.928433 
L 175.90169 172.300874 
L 177.940978 170.852536 
L 179.980265 184.838163 
L 182.019552 169.630399 
L 184.05884 172.685872 
L 186.098127 187.84858 
L 188.137414 173.047714 
L 190.176702 174.191625 
L 192.215989 197.696456 
L 194.255276 192.94632 
L 196.294564 189.794058 
L 198.333851 188.073175 
L 200.373138 171.547806 
L 202.412426 164.661859 
L 204.451713 167.44842 
L 206.491 166.338994 
L 208.530288 174.544096 
L 210.569575 166.025937 
L 212.608862 163.580443 
L 214.64815 168.469584 
L 216.687437 161.356157 
L 218.726725 167.558297 
L 220.766012 166.601401 
L 222.805299 169.918912 
L 224.844587 162.475233 
L 226.883874 177.763227 
L 228.923161 186.760974 
L 230.962449 166.377693 
L 233.001736 170.961915 
L 235.041023 166.189899 
L 237.080311 166.530298 
L 239.119598 168.647645 
L 241.158885 164.85909 
L 243.198173 170.648948 
L 245.23746 162.158947 
L 247.276747 164.327313 
L 249.316035 164.725373 
L 251.355322 169.667383 
L 253.394609 165.566187 
L 255.433897 163.140955 
L 257.473184 169.567531 
L 259.512471 164.061104 
L 261.551759 161.9947 
L 263.591046 164.857783 
L 265.630333 168.058668 
L 267.669621 163.581239 
L 269.708908 165.083481 
L 271.748196 165.119053 
L 273.787483 166.603162 
L 275.82677 162.492826 
L 277.866058 250.882027 
L 279.905345 167.862406 
L 281.944632 164.457659 
L 283.98392 163.163829 
L 286.023207 169.809553 
L 288.062494 171.369168 
L 290.101782 169.607514 
L 292.141069 171.531377 
L 294.180356 167.132878 
L 296.219644 167.737679 
L 298.258931 174.292593 
L 300.298218 169.536298 
L 302.337506 164.336367 
L 304.376793 170.393173 
L 306.41608 163.964585 
L 308.455368 167.583416 
L 310.494655 167.795965 
L 312.533942 163.687175 
L 314.57323 250.892391 
L 316.612517 160.155321 
L 318.651804 162.349598 
L 320.691092 162.095205 
L 322.730379 165.753395 
L 326.808954 164.464899 
L 328.848241 166.854514 
L 330.887529 167.223346 
L 332.926816 163.757862 
L 334.966103 165.172245 
L 337.005391 161.001563 
L 339.044678 163.229884 
L 341.083965 162.793601 
L 343.123253 162.927307 
L 345.16254 165.139093 
L 347.201827 163.519162 
L 349.241115 251.699565 
L 351.280402 162.834827 
L 353.319689 163.917035 
L 355.358977 170.752996 
L 357.398264 167.534534 
L 359.437551 170.868714 
L 361.476839 166.390925 
L 363.516126 165.984629 
L 365.555413 170.039645 
L 367.594701 167.291799 
L 369.633988 170.416952 
L 371.673275 165.669406 
L 373.712563 171.878569 
L 375.75185 175.835719 
L 377.791138 173.932881 
L 379.830425 166.123916 
L 381.869712 178.614545 
L 383.909 170.994169 
L 387.987574 168.375599 
L 390.026862 172.163415 
L 394.105436 171.779247 
L 396.144724 248.937354 
L 398.184011 164.629598 
L 400.223298 171.061669 
L 402.262586 170.774564 
L 404.301873 170.252764 
L 406.34116 167.374846 
L 408.380448 172.584957 
L 410.419735 166.559643 
L 412.459022 171.788638 
L 414.49831 165.039136 
L 416.537597 166.901133 
L 418.576884 160.856391 
L 420.616172 168.450565 
L 422.655459 167.417749 
L 424.694746 171.54135 
L 426.734034 167.663337 
L 428.773321 172.324983 
L 430.812608 175.676873 
L 432.851896 171.975737 
L 434.891183 173.76251 
L 436.930471 178.297427 
L 438.969758 170.653411 
L 441.009045 178.451224 
L 443.048333 171.820269 
L 445.08762 174.329157 
L 447.126907 175.27992 
L 449.166195 163.653067 
L 451.205482 169.380015 
L 453.244769 173.175466 
L 455.284057 178.496547 
L 457.323344 180.271296 
L 459.362631 173.538305 
L 461.401919 172.975473 
L 463.441206 176.884256 
L 465.480493 174.842438 
L 467.519781 174.887135 
L 469.559068 175.199689 
L 471.598355 170.571366 
L 473.637643 175.547202 
L 475.67693 178.102484 
L 477.716217 179.570479 
L 479.755505 173.5063 
L 481.794792 176.663518 
L 483.834079 171.005715 
L 485.873367 174.009979 
L 487.912654 177.88118 
L 489.951942 172.6523 
L 491.991229 169.098262 
L 494.030516 168.928989 
L 496.069804 173.650855 
L 498.109091 176.169841 
L 498.109091 176.169841 
" clip-path="url(#p752b8784ee)" style="fill: none; stroke: #ff0000; stroke-opacity: 0.9; stroke-width: 1.5; stroke-linecap: square"/>
   </g>
   <g id="line2d_36">
    <path d="M 92.290909 176.385539 
L 94.330196 169.854216 
L 96.369484 163.77193 
L 98.408771 163.731482 
L 100.448058 169.536489 
L 102.487346 166.005923 
L 104.526633 168.409993 
L 106.565921 162.51252 
L 108.605208 164.609839 
L 110.644495 175.444965 
L 112.683783 249.025341 
L 114.72307 161.598415 
L 116.762357 163.51435 
L 118.801645 169.967885 
L 120.840932 161.118306 
L 122.880219 167.947266 
L 124.919507 166.145292 
L 126.958794 180.248293 
L 128.998081 163.551319 
L 131.037369 167.345148 
L 133.076656 173.91097 
L 135.115943 167.836011 
L 137.155231 165.910992 
L 139.194518 165.201785 
L 141.233805 167.54293 
L 143.273093 164.94928 
L 145.31238 161.41073 
L 147.351667 161.009678 
L 149.390955 164.085314 
L 151.430242 162.488839 
L 153.469529 164.140277 
L 155.508817 167.996945 
L 157.548104 163.745565 
L 159.587392 165.371877 
L 161.626679 168.342568 
L 163.665966 168.398931 
L 165.705254 250.2237 
L 167.744541 162.152176 
L 169.783828 168.191371 
L 171.823116 166.739975 
L 173.862403 166.919109 
L 175.90169 172.303216 
L 177.940978 170.88493 
L 179.980265 184.807347 
L 182.019552 169.6394 
L 184.05884 172.663208 
L 186.098127 187.818923 
L 188.137414 173.037504 
L 190.176702 174.16922 
L 192.215989 197.681759 
L 194.255276 192.97284 
L 196.294564 189.86195 
L 198.333851 188.102412 
L 200.373138 171.496116 
L 202.412426 164.629301 
L 204.451713 167.382128 
L 206.491 166.370002 
L 208.530288 174.552962 
L 210.569575 166.041128 
L 212.608862 163.530753 
L 214.64815 168.394979 
L 216.687437 161.372079 
L 218.726725 167.466365 
L 220.766012 166.640825 
L 222.805299 169.832277 
L 224.844587 162.465725 
L 226.883874 177.710786 
L 228.923161 186.745271 
L 230.962449 166.385332 
L 233.001736 170.99099 
L 235.041023 166.18496 
L 237.080311 166.495652 
L 239.119598 168.682099 
L 241.158885 164.826377 
L 243.198173 170.631584 
L 245.23746 162.193773 
L 247.276747 164.3043 
L 249.316035 164.683833 
L 251.355322 169.665416 
L 253.394609 165.531242 
L 255.433897 163.141293 
L 257.473184 169.602732 
L 259.512471 163.983612 
L 261.551759 162.039975 
L 263.591046 164.845078 
L 265.630333 168.0329 
L 267.669621 163.591264 
L 269.708908 165.06323 
L 271.748196 165.12239 
L 273.787483 166.625371 
L 275.82677 162.461472 
L 277.866058 250.944813 
L 279.905345 167.844798 
L 281.944632 164.469805 
L 283.98392 163.207637 
L 286.023207 169.805705 
L 288.062494 171.342123 
L 290.101782 169.612116 
L 292.141069 171.493815 
L 294.180356 167.119661 
L 296.219644 167.730518 
L 298.258931 174.29155 
L 300.298218 169.513424 
L 302.337506 164.388894 
L 304.376793 170.451916 
L 306.41608 163.976161 
L 308.455368 167.52584 
L 310.494655 167.72756 
L 312.533942 163.64637 
L 314.57323 250.873762 
L 316.612517 160.122849 
L 318.651804 162.336336 
L 320.691092 162.061959 
L 322.730379 165.745186 
L 326.808954 164.480484 
L 328.848241 166.796207 
L 330.887529 167.256959 
L 332.926816 163.72795 
L 334.966103 165.184515 
L 337.005391 160.987581 
L 339.044678 163.207577 
L 341.083965 162.805549 
L 343.123253 162.877771 
L 345.16254 165.162117 
L 347.201827 163.519575 
L 349.241115 251.717226 
L 351.280402 162.87702 
L 353.319689 163.928915 
L 355.358977 170.765769 
L 357.398264 167.579171 
L 359.437551 170.780859 
L 361.476839 166.383455 
L 363.516126 165.989321 
L 365.555413 170.062925 
L 367.594701 167.322319 
L 369.633988 170.420056 
L 371.673275 165.705463 
L 373.712563 171.868258 
L 375.75185 175.826232 
L 377.791138 173.89589 
L 379.830425 166.133897 
L 381.869712 178.555085 
L 383.909 171.13031 
L 387.987574 168.349639 
L 390.026862 172.14125 
L 394.105436 171.774037 
L 396.144724 248.946093 
L 398.184011 164.626527 
L 400.223298 171.102489 
L 402.262586 170.818056 
L 404.301873 170.259198 
L 406.34116 167.430962 
L 408.380448 172.58736 
L 410.419735 166.60315 
L 412.459022 171.811171 
L 414.49831 165.043873 
L 416.537597 166.951168 
L 418.576884 160.84224 
L 420.616172 168.501632 
L 422.655459 167.501525 
L 424.694746 171.601039 
L 426.734034 167.708807 
L 428.773321 172.333128 
L 430.812608 175.749757 
L 432.851896 171.978519 
L 434.891183 173.745581 
L 436.930471 178.302237 
L 438.969758 170.645295 
L 441.009045 178.380294 
L 443.048333 171.853379 
L 445.08762 174.326803 
L 447.126907 175.199179 
L 449.166195 163.588551 
L 451.205482 169.39852 
L 453.244769 173.221948 
L 455.284057 178.538162 
L 457.323344 180.257827 
L 459.362631 173.515695 
L 461.401919 172.977819 
L 463.441206 176.888111 
L 465.480493 174.848988 
L 467.519781 174.901607 
L 469.559068 175.165527 
L 471.598355 170.556092 
L 473.637643 175.541921 
L 475.67693 178.128331 
L 477.716217 179.5834 
L 479.755505 173.528915 
L 481.794792 176.670469 
L 483.834079 170.995633 
L 485.873367 174.026459 
L 487.912654 177.904405 
L 489.951942 172.606034 
L 491.991229 169.139642 
L 494.030516 168.916737 
L 496.069804 173.671509 
L 498.109091 176.177671 
L 498.109091 176.177671 
" clip-path="url(#p752b8784ee)" style="fill: none; stroke: #ff0000; stroke-opacity: 0.9; stroke-width: 1.5; stroke-linecap: square"/>
   </g>
   <g id="line2d_37">
    <path d="M 92.290909 176.390967 
L 94.330196 169.838515 
L 96.369484 163.76222 
L 98.408771 163.771705 
L 100.448058 169.537052 
L 102.487346 166.019695 
L 104.526633 168.382277 
L 106.565921 162.489203 
L 108.605208 164.683176 
L 110.644495 175.410265 
L 112.683783 249.016584 
L 114.72307 161.574276 
L 116.762357 163.50747 
L 118.801645 169.980827 
L 120.840932 161.130388 
L 122.880219 167.923803 
L 124.919507 166.166504 
L 126.958794 180.26351 
L 128.998081 163.581595 
L 131.037369 167.394492 
L 133.076656 173.909358 
L 135.115943 167.876981 
L 137.155231 165.894807 
L 139.194518 165.134473 
L 141.233805 167.529793 
L 143.273093 164.965064 
L 145.31238 161.413474 
L 147.351667 161.014884 
L 149.390955 164.132061 
L 151.430242 162.451041 
L 153.469529 164.168812 
L 155.508817 167.988525 
L 157.548104 163.718285 
L 159.587392 165.300552 
L 161.626679 168.276884 
L 163.665966 168.437341 
L 165.705254 250.232096 
L 167.744541 162.140266 
L 169.783828 168.160896 
L 171.823116 166.738481 
L 173.862403 166.91078 
L 175.90169 172.313223 
L 177.940978 170.87791 
L 179.980265 184.773737 
L 182.019552 169.577133 
L 184.05884 172.670673 
L 186.098127 187.840369 
L 188.137414 173.050495 
L 190.176702 174.139717 
L 192.215989 197.715603 
L 194.255276 192.983732 
L 196.294564 189.855391 
L 198.333851 188.0633 
L 200.373138 171.51345 
L 202.412426 164.631722 
L 204.451713 167.367542 
L 206.491 166.391356 
L 208.530288 174.558135 
L 210.569575 166.051454 
L 212.608862 163.512455 
L 214.64815 168.433452 
L 216.687437 161.446678 
L 218.726725 167.456099 
L 220.766012 166.628903 
L 222.805299 169.868221 
L 224.844587 162.483738 
L 226.883874 177.762542 
L 228.923161 186.758249 
L 230.962449 166.393995 
L 233.001736 170.978487 
L 235.041023 166.1311 
L 237.080311 166.526146 
L 239.119598 168.638366 
L 241.158885 164.806424 
L 243.198173 170.615721 
L 245.23746 162.160877 
L 247.276747 164.322111 
L 249.316035 164.681806 
L 251.355322 169.66914 
L 253.394609 165.60543 
L 255.433897 163.160503 
L 257.473184 169.586622 
L 259.512471 164.076704 
L 261.551759 161.991648 
L 263.591046 164.886956 
L 265.630333 168.042655 
L 267.669621 163.587023 
L 269.708908 165.060408 
L 271.748196 165.120194 
L 273.787483 166.624613 
L 275.82677 162.431703 
L 277.866058 250.93267 
L 279.905345 167.871422 
L 281.944632 164.435453 
L 283.98392 163.222482 
L 286.023207 169.810337 
L 288.062494 171.307868 
L 290.101782 169.580631 
L 292.141069 171.480145 
L 294.180356 167.087249 
L 296.219644 167.711123 
L 298.258931 174.331758 
L 300.298218 169.556721 
L 302.337506 164.378444 
L 304.376793 170.396919 
L 306.41608 163.98848 
L 308.455368 167.588889 
L 310.494655 167.757277 
L 312.533942 163.615801 
L 314.57323 250.917468 
L 316.612517 160.143028 
L 318.651804 162.308417 
L 320.691092 162.098493 
L 322.730379 165.726843 
L 326.808954 164.467876 
L 328.848241 166.806488 
L 330.887529 167.252503 
L 332.926816 163.764378 
L 334.966103 165.155327 
L 337.005391 161.026625 
L 339.044678 163.240743 
L 341.083965 162.757894 
L 343.123253 162.873552 
L 345.16254 165.102905 
L 347.201827 163.522601 
L 349.241115 251.738182 
L 351.280402 162.832882 
L 353.319689 163.881117 
L 355.358977 170.745954 
L 357.398264 167.57157 
L 359.437551 170.804679 
L 361.476839 166.393605 
L 363.516126 166.019485 
L 365.555413 170.083712 
L 367.594701 167.342453 
L 369.633988 170.340853 
L 371.673275 165.667233 
L 373.712563 171.896902 
L 375.75185 175.859044 
L 377.791138 173.922981 
L 379.830425 166.134204 
L 381.869712 178.539392 
L 383.909 171.005377 
L 385.948287 169.753557 
L 387.987574 168.336371 
L 390.026862 172.171643 
L 392.066149 172.020675 
L 394.105436 171.751354 
L 396.144724 248.950116 
L 398.184011 164.615631 
L 400.223298 171.073677 
L 402.262586 170.789075 
L 404.301873 170.237461 
L 406.34116 167.431037 
L 408.380448 172.55461 
L 410.419735 166.558716 
L 412.459022 171.771105 
L 414.49831 165.073943 
L 416.537597 166.952197 
L 418.576884 160.907623 
L 420.616172 168.438437 
L 422.655459 167.438203 
L 424.694746 171.57711 
L 426.734034 167.71422 
L 428.773321 172.369012 
L 430.812608 175.691658 
L 432.851896 171.942335 
L 434.891183 173.753199 
L 436.930471 178.285533 
L 438.969758 170.63539 
L 441.009045 178.36713 
L 443.048333 171.800878 
L 445.08762 174.328579 
L 447.126907 175.254919 
L 449.166195 163.631364 
L 451.205482 169.375984 
L 453.244769 173.2076 
L 455.284057 178.537021 
L 457.323344 180.22424 
L 459.362631 173.526259 
L 461.401919 172.979572 
L 463.441206 176.844949 
L 465.480493 174.825091 
L 467.519781 174.916433 
L 469.559068 175.184619 
L 471.598355 170.566828 
L 473.637643 175.563692 
L 475.67693 178.115017 
L 477.716217 179.568684 
L 479.755505 173.502719 
L 481.794792 176.673904 
L 483.834079 170.985296 
L 485.873367 174.009253 
L 487.912654 177.903651 
L 489.951942 172.586068 
L 491.991229 169.107474 
L 494.030516 168.883935 
L 496.069804 173.672316 
L 498.109091 176.212303 
L 498.109091 176.212303 
" clip-path="url(#p752b8784ee)" style="fill: none; stroke: #ff0000; stroke-opacity: 0.9; stroke-width: 1.5; stroke-linecap: square"/>
   </g>
   <g id="line2d_38">
    <path d="M 92.290909 176.362907 
L 94.330196 169.829127 
L 96.369484 163.756912 
L 98.408771 163.768646 
L 100.448058 169.525383 
L 102.487346 166.044382 
L 104.526633 168.401221 
L 106.565921 162.535879 
L 108.605208 164.6741 
L 110.644495 175.495845 
L 112.683783 249.017504 
L 114.72307 161.572598 
L 116.762357 163.519159 
L 118.801645 170.027364 
L 120.840932 161.110329 
L 122.880219 167.873727 
L 124.919507 166.168699 
L 126.958794 180.22936 
L 128.998081 163.574167 
L 131.037369 167.33239 
L 133.076656 173.935927 
L 135.115943 167.870476 
L 137.155231 165.910714 
L 139.194518 165.222963 
L 141.233805 167.584058 
L 143.273093 164.968945 
L 145.31238 161.478662 
L 147.351667 161.016453 
L 149.390955 164.096023 
L 151.430242 162.464468 
L 153.469529 164.23275 
L 155.508817 167.947811 
L 157.548104 163.755764 
L 159.587392 165.30247 
L 161.626679 168.293712 
L 163.665966 168.386237 
L 165.705254 250.262804 
L 167.744541 162.097982 
L 169.783828 168.204925 
L 171.823116 166.809727 
L 173.862403 166.928816 
L 175.90169 172.253752 
L 177.940978 170.840987 
L 179.980265 184.867886 
L 182.019552 169.621545 
L 184.05884 172.704872 
L 186.098127 187.800962 
L 188.137414 173.048566 
L 190.176702 174.198357 
L 192.215989 197.670682 
L 194.255276 192.965762 
L 196.294564 189.834862 
L 198.333851 188.100469 
L 200.373138 171.51351 
L 202.412426 164.678687 
L 204.451713 167.412874 
L 206.491 166.36974 
L 208.530288 174.522519 
L 210.569575 165.980433 
L 212.608862 163.52554 
L 214.64815 168.406453 
L 216.687437 161.379605 
L 218.726725 167.487975 
L 220.766012 166.636043 
L 222.805299 169.90954 
L 224.844587 162.463191 
L 226.883874 177.766725 
L 228.923161 186.765377 
L 230.962449 166.387621 
L 233.001736 171.002693 
L 235.041023 166.157649 
L 237.080311 166.467024 
L 239.119598 168.606934 
L 241.158885 164.801409 
L 243.198173 170.683709 
L 245.23746 162.182103 
L 247.276747 164.328071 
L 249.316035 164.661901 
L 251.355322 169.633804 
L 253.394609 165.585747 
L 255.433897 163.176355 
L 257.473184 169.569157 
L 259.512471 164.055252 
L 261.551759 161.9716 
L 263.591046 164.832503 
L 265.630333 168.01807 
L 267.669621 163.602214 
L 269.708908 165.056256 
L 271.748196 165.114459 
L 273.787483 166.59916 
L 275.82677 162.457599 
L 277.866058 250.902762 
L 279.905345 167.855991 
L 281.944632 164.475113 
L 283.98392 163.188471 
L 286.023207 169.82287 
L 288.062494 171.321636 
L 290.101782 169.55079 
L 292.141069 171.474169 
L 294.180356 167.088417 
L 296.219644 167.744886 
L 298.258931 174.299059 
L 300.298218 169.571277 
L 302.337506 164.316728 
L 304.376793 170.399393 
L 306.41608 164.008974 
L 308.455368 167.538201 
L 310.494655 167.777373 
L 312.533942 163.680704 
L 314.57323 250.886723 
L 316.612517 160.115545 
L 318.651804 162.303579 
L 320.691092 162.052523 
L 322.730379 165.736531 
L 326.808954 164.467707 
L 328.848241 166.858666 
L 330.887529 167.255945 
L 332.926816 163.740971 
L 334.966103 165.195348 
L 337.005391 161.022282 
L 339.044678 163.191072 
L 341.083965 162.778583 
L 343.123253 162.881333 
L 345.16254 165.089096 
L 347.201827 163.512669 
L 349.241115 251.698488 
L 351.280402 162.792355 
L 353.319689 163.902351 
L 355.358977 170.789721 
L 357.398264 167.574805 
L 359.437551 170.848648 
L 361.476839 166.368595 
L 363.516126 166.058037 
L 365.555413 170.033054 
L 367.594701 167.303491 
L 369.633988 170.397486 
L 371.673275 165.678595 
L 373.712563 171.84728 
L 375.75185 175.909989 
L 377.791138 173.954066 
L 379.830425 166.1054 
L 381.869712 178.587582 
L 383.909 171.047616 
L 387.987574 168.306609 
L 390.026862 172.185688 
L 394.105436 171.760715 
L 396.144724 248.979169 
L 398.184011 164.630224 
L 400.223298 171.117368 
L 402.262586 170.807062 
L 404.301873 170.198266 
L 406.34116 167.415831 
L 408.380448 172.584158 
L 410.419735 166.573561 
L 412.459022 171.766 
L 414.49831 165.074585 
L 416.537597 166.926474 
L 418.576884 160.865425 
L 420.616172 168.520689 
L 422.655459 167.457402 
L 424.694746 171.520721 
L 426.734034 167.66331 
L 428.773321 172.337538 
L 430.812608 175.712231 
L 432.851896 171.922932 
L 434.891183 173.726746 
L 436.930471 178.27181 
L 438.969758 170.683649 
L 441.009045 178.389968 
L 443.048333 171.858067 
L 445.08762 174.391064 
L 447.126907 175.260067 
L 449.166195 163.620246 
L 451.205482 169.369588 
L 453.244769 173.235113 
L 455.284057 178.495683 
L 457.323344 180.230899 
L 459.362631 173.535107 
L 461.401919 173.010467 
L 463.441206 176.863328 
L 465.480493 174.875347 
L 467.519781 174.873891 
L 469.559068 175.158922 
L 471.598355 170.593988 
L 473.637643 175.54562 
L 475.67693 178.083232 
L 477.716217 179.59724 
L 479.755505 173.485952 
L 481.794792 176.655999 
L 483.834079 171.011308 
L 485.873367 173.988909 
L 487.912654 177.882552 
L 489.951942 172.64769 
L 491.991229 169.08639 
L 494.030516 168.908569 
L 496.069804 173.693165 
L 498.109091 176.223892 
L 498.109091 176.223892 
" clip-path="url(#p752b8784ee)" style="fill: none; stroke: #ff0000; stroke-opacity: 0.9; stroke-width: 1.5; stroke-linecap: square"/>
   </g>
   <g id="line2d_39">
    <path d="M 92.290909 170.427886 
L 94.330196 168.683172 
L 96.369484 165.324042 
L 98.408771 163.256692 
L 100.448058 166.539989 
L 102.487346 164.656751 
L 104.526633 167.26528 
L 106.565921 163.114068 
L 108.605208 164.169274 
L 110.644495 174.176911 
L 112.683783 247.578228 
L 114.72307 161.505225 
L 116.762357 162.720621 
L 118.801645 169.1474 
L 120.840932 160.690127 
L 122.880219 167.369636 
L 124.919507 165.296746 
L 126.958794 179.83233 
L 128.998081 162.79332 
L 131.037369 165.688786 
L 133.076656 173.067078 
L 135.115943 166.701103 
L 139.194518 165.310082 
L 141.233805 166.926398 
L 143.273093 164.282646 
L 145.31238 161.232748 
L 147.351667 161.309256 
L 149.390955 163.905256 
L 151.430242 162.289988 
L 153.469529 163.149806 
L 155.508817 167.260172 
L 157.548104 163.592334 
L 159.587392 164.934607 
L 161.626679 168.038463 
L 163.665966 167.427422 
L 165.705254 247.754836 
L 167.744541 163.283117 
L 169.783828 167.384271 
L 171.823116 165.852512 
L 173.862403 166.267181 
L 175.90169 171.512403 
L 177.940978 170.615691 
L 179.980265 183.23566 
L 182.019552 168.539821 
L 184.05884 172.466698 
L 186.098127 188.240341 
L 188.137414 171.774348 
L 190.176702 173.895967 
L 192.215989 195.562371 
L 198.333851 186.689568 
L 200.373138 172.181034 
L 202.412426 164.30787 
L 204.451713 166.357972 
L 206.491 166.550893 
L 208.530288 173.035511 
L 210.569575 165.690366 
L 212.608862 163.100124 
L 214.64815 166.876446 
L 216.687437 160.652648 
L 218.726725 165.378874 
L 220.766012 166.13839 
L 222.805299 169.528168 
L 224.844587 162.190413 
L 226.883874 176.995258 
L 228.923161 186.007377 
L 230.962449 165.330378 
L 233.001736 169.993544 
L 235.041023 166.678285 
L 237.080311 165.717069 
L 239.119598 167.91696 
L 241.158885 165.081236 
L 243.198173 170.19249 
L 245.23746 161.511858 
L 247.276747 163.482637 
L 249.316035 164.663916 
L 251.355322 168.749757 
L 253.394609 165.057258 
L 255.433897 162.511274 
L 257.473184 168.725741 
L 259.512471 163.169516 
L 261.551759 161.909543 
L 263.591046 163.972918 
L 265.630333 167.338471 
L 267.669621 163.307763 
L 269.708908 164.395196 
L 271.748196 164.350502 
L 273.787483 166.092694 
L 275.82677 161.986524 
L 277.866058 248.32098 
L 279.905345 168.588069 
L 281.944632 163.954567 
L 283.98392 162.298332 
L 286.023207 169.5875 
L 288.062494 170.417504 
L 290.101782 168.644248 
L 292.141069 170.730655 
L 294.180356 166.058672 
L 296.219644 167.427351 
L 298.258931 174.226676 
L 300.298218 168.023903 
L 302.337506 165.57875 
L 304.376793 170.207545 
L 306.41608 163.161528 
L 308.455368 166.643918 
L 310.494655 166.317881 
L 312.533942 162.695536 
L 314.57323 248.123393 
L 316.612517 161.000174 
L 318.651804 161.737146 
L 320.691092 162.180054 
L 322.730379 164.233542 
L 324.769667 163.893358 
L 326.808954 164.036526 
L 328.848241 165.266113 
L 330.887529 165.986217 
L 332.926816 163.68332 
L 334.966103 165.347411 
L 337.005391 160.96128 
L 339.044678 162.42045 
L 341.083965 161.721922 
L 343.123253 162.615728 
L 345.16254 164.056603 
L 347.201827 163.26406 
L 349.241115 248.799843 
L 351.280402 163.735667 
L 353.319689 161.988848 
L 355.358977 170.018393 
L 357.398264 167.158113 
L 359.437551 171.842543 
L 361.476839 167.618181 
L 363.516126 166.768911 
L 365.555413 169.684282 
L 367.594701 166.795858 
L 369.633988 169.565594 
L 371.673275 164.758829 
L 373.712563 170.834778 
L 375.75185 175.909977 
L 377.791138 173.772376 
L 379.830425 165.416972 
L 381.869712 177.500146 
L 383.909 171.243127 
L 385.948287 169.29422 
L 387.987574 167.511385 
L 390.026862 170.863489 
L 394.105436 172.371095 
L 396.144724 248.366593 
L 398.184011 165.631124 
L 400.223298 169.979836 
L 402.262586 170.807013 
L 404.301873 170.435048 
L 406.34116 167.481458 
L 408.380448 172.297105 
L 410.419735 166.295682 
L 412.459022 170.55613 
L 414.49831 164.847953 
L 416.537597 165.765358 
L 418.576884 160.798203 
L 420.616172 168.175006 
L 422.655459 166.916545 
L 424.694746 170.896314 
L 426.734034 167.231765 
L 428.773321 171.434457 
L 430.812608 174.655297 
L 432.851896 171.612161 
L 434.891183 173.214887 
L 436.930471 177.677396 
L 438.969758 170.838423 
L 441.009045 177.596352 
L 443.048333 171.67882 
L 445.08762 173.819331 
L 447.126907 175.132129 
L 449.166195 163.334946 
L 451.205482 168.723673 
L 453.244769 172.13839 
L 455.284057 177.841357 
L 457.323344 179.036613 
L 459.362631 174.128047 
L 461.401919 172.785018 
L 463.441206 175.591481 
L 465.480493 174.765606 
L 467.519781 175.366966 
L 469.559068 175.401919 
L 471.598355 169.019997 
L 473.637643 174.462337 
L 475.67693 177.723749 
L 477.716217 177.989932 
L 479.755505 173.063629 
L 481.794792 176.121698 
L 483.834079 169.932421 
L 487.912654 177.073266 
L 489.951942 171.939512 
L 491.991229 168.668762 
L 494.030516 167.897006 
L 496.069804 173.910908 
L 498.109091 175.409145 
L 498.109091 175.409145 
" clip-path="url(#p752b8784ee)" style="fill: none; stroke: #008000; stroke-opacity: 0.9; stroke-width: 1.5; stroke-linecap: square"/>
   </g>
   <g id="line2d_40">
    <path d="M 438.969758 256.32 
L 438.969758 155.52 
" clip-path="url(#p752b8784ee)" style="fill: none; stroke-dasharray: 5.55,2.4; stroke-dashoffset: 0; stroke: #0000ff; stroke-width: 1.5"/>
   </g>
   <g id="line2d_41">
    <path d="M 153.469529 256.32 
L 153.469529 155.52 
" clip-path="url(#p752b8784ee)" style="fill: none; stroke-dasharray: 5.55,2.4; stroke-dashoffset: 0; stroke: #000000; stroke-width: 1.5"/>
   </g>
   <g id="patch_8">
    <path d="M 72 256.32 
L 72 155.52 
" style="fill: none; stroke: #000000; stroke-width: 0.8; stroke-linejoin: miter; stroke-linecap: square"/>
   </g>
   <g id="patch_9">
    <path d="M 518.4 256.32 
L 518.4 155.52 
" style="fill: none; stroke: #000000; stroke-width: 0.8; stroke-linejoin: miter; stroke-linecap: square"/>
   </g>
   <g id="patch_10">
    <path d="M 72 256.32 
L 518.4 256.32 
" style="fill: none; stroke: #000000; stroke-width: 0.8; stroke-linejoin: miter; stroke-linecap: square"/>
   </g>
   <g id="patch_11">
    <path d="M 72 155.52 
L 518.4 155.52 
" style="fill: none; stroke: #000000; stroke-width: 0.8; stroke-linejoin: miter; stroke-linecap: square"/>
   </g>
  </g>
 </g>
 <defs>
  <clipPath id="p6bce10844b">
   <rect x="72" y="34.56" width="446.4" height="100.8"/>
  </clipPath>
  <clipPath id="p752b8784ee">
   <rect x="72" y="155.52" width="446.4" height="100.8"/>
  </clipPath>
 </defs>
</svg>
