<?xml version="1.0" encoding="utf-8" standalone="no"?>
<!DOCTYPE svg PUBLIC "-//W3C//DTD SVG 1.1//EN"
  "http://www.w3.org/Graphics/SVG/1.1/DTD/svg11.dtd">
<svg xmlns:xlink="http://www.w3.org/1999/xlink" width="576pt" height="288pt" viewBox="0 0 576 288" xmlns="http://www.w3.org/2000/svg" version="1.1">
 <metadata>
  <rdf:RDF xmlns:dc="http://purl.org/dc/elements/1.1/" xmlns:cc="http://creativecommons.org/ns#" xmlns:rdf="http://www.w3.org/1999/02/22-rdf-syntax-ns#">
   <cc:Work>
    <dc:type rdf:resource="http://purl.org/dc/dcmitype/StillImage"/>
    <dc:date>2025-05-07T09:55:12.831560</dc:date>
    <dc:format>image/svg+xml</dc:format>
    <dc:creator>
     <cc:Agent>
      <dc:title>Matplotlib v3.10.0, https://matplotlib.org/</dc:title>
     </cc:Agent>
    </dc:creator>
   </cc:Work>
  </rdf:RDF>
 </metadata>
 <defs>
  <style type="text/css">*{stroke-linejoin: round; stroke-linecap: butt}</style>
 </defs>
 <g id="figure_1">
  <g id="patch_1">
   <path d="M 0 288 
L 576 288 
L 576 0 
L 0 0 
z
" style="fill: #ffffff"/>
  </g>
  <g id="axes_1">
   <g id="patch_2">
    <path d="M 72 135.36 
L 518.4 135.36 
L 518.4 34.56 
L 72 34.56 
z
" style="fill: #ffffff"/>
   </g>
   <g id="matplotlib.axis_1">
    <g id="xtick_1">
     <g id="line2d_1">
      <defs>
       <path id="m87e185cf77" d="M 0 0 
L 0 3.5 
" style="stroke: #000000; stroke-width: 0.8"/>
      </defs>
      <g>
       <use xlink:href="#m87e185cf77" x="92.290909" y="135.36" style="stroke: #000000; stroke-width: 0.8"/>
      </g>
     </g>
    </g>
    <g id="xtick_2">
     <g id="line2d_2">
      <g>
       <use xlink:href="#m87e185cf77" x="143.273093" y="135.36" style="stroke: #000000; stroke-width: 0.8"/>
      </g>
     </g>
    </g>
    <g id="xtick_3">
     <g id="line2d_3">
      <g>
       <use xlink:href="#m87e185cf77" x="194.255276" y="135.36" style="stroke: #000000; stroke-width: 0.8"/>
      </g>
     </g>
    </g>
    <g id="xtick_4">
     <g id="line2d_4">
      <g>
       <use xlink:href="#m87e185cf77" x="245.23746" y="135.36" style="stroke: #000000; stroke-width: 0.8"/>
      </g>
     </g>
    </g>
    <g id="xtick_5">
     <g id="line2d_5">
      <g>
       <use xlink:href="#m87e185cf77" x="296.219644" y="135.36" style="stroke: #000000; stroke-width: 0.8"/>
      </g>
     </g>
    </g>
    <g id="xtick_6">
     <g id="line2d_6">
      <g>
       <use xlink:href="#m87e185cf77" x="347.201827" y="135.36" style="stroke: #000000; stroke-width: 0.8"/>
      </g>
     </g>
    </g>
    <g id="xtick_7">
     <g id="line2d_7">
      <g>
       <use xlink:href="#m87e185cf77" x="398.184011" y="135.36" style="stroke: #000000; stroke-width: 0.8"/>
      </g>
     </g>
    </g>
    <g id="xtick_8">
     <g id="line2d_8">
      <g>
       <use xlink:href="#m87e185cf77" x="449.166195" y="135.36" style="stroke: #000000; stroke-width: 0.8"/>
      </g>
     </g>
    </g>
    <g id="xtick_9">
     <g id="line2d_9">
      <g>
       <use xlink:href="#m87e185cf77" x="500.148378" y="135.36" style="stroke: #000000; stroke-width: 0.8"/>
      </g>
     </g>
    </g>
   </g>
   <g id="matplotlib.axis_2">
    <g id="ytick_1">
     <g id="line2d_10">
      <defs>
       <path id="m8f21056689" d="M 0 0 
L -3.5 0 
" style="stroke: #000000; stroke-width: 0.8"/>
      </defs>
      <g>
       <use xlink:href="#m8f21056689" x="72" y="116.004753" style="stroke: #000000; stroke-width: 0.8"/>
      </g>
     </g>
     <g id="text_1">
      <!-- −150 -->
      <g transform="translate(37.532812 119.803971) scale(0.1 -0.1)">
       <defs>
        <path id="DejaVuSans-2212" d="M 678 2272 
L 4684 2272 
L 4684 1741 
L 678 1741 
L 678 2272 
z
" transform="scale(0.015625)"/>
        <path id="DejaVuSans-31" d="M 794 531 
L 1825 531 
L 1825 4091 
L 703 3866 
L 703 4441 
L 1819 4666 
L 2450 4666 
L 2450 531 
L 3481 531 
L 3481 0 
L 794 0 
L 794 531 
z
" transform="scale(0.015625)"/>
        <path id="DejaVuSans-35" d="M 691 4666 
L 3169 4666 
L 3169 4134 
L 1269 4134 
L 1269 2991 
Q 1406 3038 1543 3061 
Q 1681 3084 1819 3084 
Q 2600 3084 3056 2656 
Q 3513 2228 3513 1497 
Q 3513 744 3044 326 
Q 2575 -91 1722 -91 
Q 1428 -91 1123 -41 
Q 819 9 494 109 
L 494 744 
Q 775 591 1075 516 
Q 1375 441 1709 441 
Q 2250 441 2565 725 
Q 2881 1009 2881 1497 
Q 2881 1984 2565 2268 
Q 2250 2553 1709 2553 
Q 1456 2553 1204 2497 
Q 953 2441 691 2322 
L 691 4666 
z
" transform="scale(0.015625)"/>
        <path id="DejaVuSans-30" d="M 2034 4250 
Q 1547 4250 1301 3770 
Q 1056 3291 1056 2328 
Q 1056 1369 1301 889 
Q 1547 409 2034 409 
Q 2525 409 2770 889 
Q 3016 1369 3016 2328 
Q 3016 3291 2770 3770 
Q 2525 4250 2034 4250 
z
M 2034 4750 
Q 2819 4750 3233 4129 
Q 3647 3509 3647 2328 
Q 3647 1150 3233 529 
Q 2819 -91 2034 -91 
Q 1250 -91 836 529 
Q 422 1150 422 2328 
Q 422 3509 836 4129 
Q 1250 4750 2034 4750 
z
" transform="scale(0.015625)"/>
       </defs>
       <use xlink:href="#DejaVuSans-2212"/>
       <use xlink:href="#DejaVuSans-31" transform="translate(83.789062 0)"/>
       <use xlink:href="#DejaVuSans-35" transform="translate(147.412109 0)"/>
       <use xlink:href="#DejaVuSans-30" transform="translate(211.035156 0)"/>
      </g>
     </g>
    </g>
    <g id="ytick_2">
     <g id="line2d_11">
      <g>
       <use xlink:href="#m8f21056689" x="72" y="77.772342" style="stroke: #000000; stroke-width: 0.8"/>
      </g>
     </g>
     <g id="text_2">
      <!-- −100 -->
      <g transform="translate(37.532812 81.571561) scale(0.1 -0.1)">
       <use xlink:href="#DejaVuSans-2212"/>
       <use xlink:href="#DejaVuSans-31" transform="translate(83.789062 0)"/>
       <use xlink:href="#DejaVuSans-30" transform="translate(147.412109 0)"/>
       <use xlink:href="#DejaVuSans-30" transform="translate(211.035156 0)"/>
      </g>
     </g>
    </g>
    <g id="ytick_3">
     <g id="line2d_12">
      <g>
       <use xlink:href="#m8f21056689" x="72" y="39.539931" style="stroke: #000000; stroke-width: 0.8"/>
      </g>
     </g>
     <g id="text_3">
      <!-- −50 -->
      <g transform="translate(43.895313 43.33915) scale(0.1 -0.1)">
       <use xlink:href="#DejaVuSans-2212"/>
       <use xlink:href="#DejaVuSans-35" transform="translate(83.789062 0)"/>
       <use xlink:href="#DejaVuSans-30" transform="translate(147.412109 0)"/>
      </g>
     </g>
    </g>
   </g>
   <g id="line2d_13">
    <path d="M 92.290909 59.934393 
L 94.330196 104.232524 
L 96.369484 130.63012 
L 98.408771 105.320469 
L 100.448058 88.378307 
L 102.487346 103.029045 
L 104.526633 98.107433 
L 106.565921 67.347138 
L 108.605208 117.058128 
L 110.644495 47.670645 
L 112.683783 80.553485 
L 114.72307 124.693164 
L 116.762357 123.36063 
L 118.801645 109.555764 
L 120.840932 69.031689 
L 122.880219 120.400383 
L 124.919507 71.702224 
L 126.958794 66.115085 
L 128.998081 89.283958 
L 131.037369 66.093594 
L 133.076656 53.192658 
L 135.115943 52.289556 
L 137.155231 106.546186 
L 139.194518 107.77692 
L 141.233805 125.780701 
L 143.273093 119.829382 
L 145.31238 123.396379 
L 147.351667 114.326286 
L 149.390955 116.544601 
L 151.430242 107.780864 
L 153.469529 108.373088 
L 155.508817 112.092359 
L 157.548104 128.486477 
L 159.587392 110.189396 
L 161.626679 120.807443 
L 163.665966 98.82009 
L 165.705254 92.658019 
L 167.744541 112.874906 
L 169.783828 46.687419 
L 171.823116 55.50145 
L 173.862403 76.978951 
L 175.90169 50.550529 
L 177.940978 44.469591 
L 179.980265 68.936913 
L 182.019552 66.697888 
L 184.05884 72.32441 
L 186.098127 63.817081 
L 188.137414 57.036084 
L 190.176702 66.138094 
L 192.215989 62.484004 
L 194.255276 49.42536 
L 196.294564 69.512115 
L 198.333851 75.761098 
L 200.373138 96.916153 
L 202.412426 70.106632 
L 204.451713 56.419463 
L 206.491 40.837713 
L 208.530288 79.393848 
L 210.569575 57.593329 
L 212.608862 110.662098 
L 214.64815 107.936055 
L 216.687437 95.025528 
L 218.726725 92.271623 
L 220.766012 111.289056 
L 222.805299 124.373075 
L 224.844587 120.699576 
L 226.883874 70.482854 
L 228.923161 63.189988 
L 230.962449 77.534101 
L 233.001736 74.126699 
L 235.041023 39.518699 
L 237.080311 61.493413 
L 239.119598 55.268587 
L 241.158885 76.441313 
L 243.198173 49.806135 
L 245.23746 85.401527 
L 247.276747 53.503535 
L 249.316035 97.760293 
L 251.355322 74.991835 
L 253.394609 111.630276 
L 255.433897 88.547627 
L 257.473184 68.890943 
L 259.512471 67.183004 
L 261.551759 55.100644 
L 263.591046 69.889171 
L 265.630333 70.062371 
L 267.669621 63.172422 
L 269.708908 50.685739 
L 271.748196 45.532656 
L 273.787483 62.887009 
L 275.82677 51.631287 
L 277.866058 66.65148 
L 279.905345 57.227689 
L 281.944632 77.978777 
L 283.98392 64.970733 
L 286.023207 62.443587 
L 288.062494 56.830226 
L 290.101782 70.366948 
L 292.141069 75.180599 
L 294.180356 53.555666 
L 296.219644 44.773976 
L 298.258931 79.783972 
L 300.298218 58.66865 
L 302.337506 62.000154 
L 304.376793 62.811835 
L 306.41608 47.735164 
L 308.455368 53.563145 
L 310.494655 49.613486 
L 312.533942 60.929809 
L 314.57323 74.446911 
L 316.612517 40.74124 
L 318.651804 59.805956 
L 320.691092 46.782566 
L 322.730379 42.317213 
L 324.769667 56.155979 
L 326.808954 67.141596 
L 328.848241 48.198648 
L 330.887529 45.475365 
L 332.926816 50.979896 
L 334.966103 43.439887 
L 337.005391 56.606168 
L 339.044678 48.34155 
L 341.083965 48.566963 
L 343.123253 51.202573 
L 345.16254 48.662704 
L 347.201827 54.392298 
L 349.241115 56.781771 
L 351.280402 44.523189 
L 353.319689 51.050853 
L 355.358977 56.389529 
L 357.398264 63.240077 
L 359.437551 80.492458 
L 361.476839 49.793397 
L 363.516126 56.744458 
L 365.555413 46.24529 
L 367.594701 68.911636 
L 369.633988 52.824685 
L 371.673275 60.741733 
L 373.712563 55.98422 
L 375.75185 67.351723 
L 377.791138 53.366814 
L 379.830425 90.300463 
L 381.869712 69.066237 
L 383.909 68.317515 
L 385.948287 103.04398 
L 387.987574 71.944624 
L 390.026862 80.702714 
L 392.066149 64.433445 
L 394.105436 63.151088 
L 396.144724 98.651237 
L 398.184011 81.033269 
L 400.223298 84.249736 
L 402.262586 56.365768 
L 404.301873 78.99362 
L 408.380448 67.77895 
L 410.419735 49.312639 
L 412.459022 68.739253 
L 414.49831 106.230134 
L 416.537597 79.550981 
L 418.576884 114.468969 
L 420.616172 95.806651 
L 422.655459 84.59508 
L 424.694746 80.51871 
L 426.734034 64.818628 
L 428.773321 67.835316 
L 430.812608 61.689522 
L 432.851896 60.201394 
L 434.891183 67.353479 
L 436.930471 59.01995 
L 438.969758 57.947901 
L 441.009045 71.061987 
L 443.048333 49.54117 
L 445.08762 64.257766 
L 447.126907 72.63464 
L 449.166195 65.90669 
L 451.205482 57.446095 
L 453.244769 67.090532 
L 455.284057 59.606947 
L 457.323344 59.185181 
L 459.362631 55.669918 
L 461.401919 59.973094 
L 463.441206 63.524772 
L 465.480493 64.201633 
L 467.519781 58.146951 
L 469.559068 56.714822 
L 471.598355 68.222086 
L 473.637643 68.83586 
L 475.67693 72.303076 
L 477.716217 50.919762 
L 479.755505 66.933731 
L 481.794792 60.110469 
L 483.834079 65.332755 
L 485.873367 69.320008 
L 487.912654 66.302222 
L 489.951942 46.960141 
L 491.991229 52.469762 
L 494.030516 43.904514 
L 496.069804 62.067103 
L 498.109091 55.289583 
L 498.109091 55.289583 
" clip-path="url(#pf736281c66)" style="fill: none; stroke: #ff0000; stroke-opacity: 0.9; stroke-width: 1.5; stroke-linecap: square"/>
   </g>
   <g id="line2d_14">
    <path d="M 92.290909 63.06074 
L 94.330196 107.561618 
L 96.369484 126.440574 
L 98.408771 101.394635 
L 100.448058 90.699402 
L 102.487346 104.904484 
L 104.526633 96.548857 
L 106.565921 68.210984 
L 108.605208 114.600393 
L 110.644495 45.285664 
L 112.683783 83.555251 
L 114.72307 124.62576 
L 116.762357 122.675706 
L 118.801645 112.30632 
L 120.840932 71.457035 
L 122.880219 119.22332 
L 124.919507 73.696089 
L 126.958794 65.657564 
L 128.998081 89.304749 
L 131.037369 67.184567 
L 133.076656 56.737323 
L 135.115943 57.182816 
L 137.155231 110.389647 
L 139.194518 110.228494 
L 141.233805 125.529451 
L 143.273093 122.796419 
L 145.31238 124.517846 
L 147.351667 118.005315 
L 149.390955 113.904887 
L 151.430242 110.245097 
L 153.469529 105.119133 
L 155.508817 112.664446 
L 157.548104 128.002972 
L 159.587392 109.406885 
L 161.626679 122.385393 
L 163.665966 96.885625 
L 165.705254 95.275495 
L 167.744541 108.874831 
L 169.783828 51.466348 
L 171.823116 53.534105 
L 173.862403 76.199251 
L 175.90169 48.788834 
L 177.940978 42.611799 
L 179.980265 68.638602 
L 182.019552 66.072633 
L 184.05884 73.556334 
L 186.098127 66.175477 
L 188.137414 58.273947 
L 190.176702 68.458273 
L 192.215989 60.52457 
L 194.255276 48.14447 
L 196.294564 69.839479 
L 198.333851 74.799891 
L 200.373138 97.285415 
L 202.412426 72.247742 
L 204.451713 56.406407 
L 206.491 45.744502 
L 208.530288 76.093519 
L 210.569575 55.743202 
L 212.608862 110.888648 
L 214.64815 108.850889 
L 216.687437 93.148957 
L 218.726725 95.145798 
L 220.766012 110.045605 
L 222.805299 120.61467 
L 224.844587 118.244676 
L 226.883874 68.720695 
L 228.923161 60.141096 
L 230.962449 79.528107 
L 233.001736 75.118504 
L 235.041023 40.435362 
L 237.080311 61.902094 
L 239.119598 53.444171 
L 241.158885 77.962565 
L 243.198173 53.289464 
L 245.23746 84.066105 
L 247.276747 52.995545 
L 249.316035 99.513222 
L 251.355322 76.706518 
L 253.394609 109.613577 
L 257.473184 71.815119 
L 259.512471 66.986609 
L 261.551759 58.347575 
L 263.591046 67.275913 
L 265.630333 68.618866 
L 267.669621 61.79341 
L 269.708908 49.02599 
L 271.748196 42.605157 
L 273.787483 63.896432 
L 275.82677 50.160603 
L 277.866058 67.752628 
L 279.905345 57.67443 
L 281.944632 72.655549 
L 283.98392 67.800588 
L 286.023207 58.373524 
L 288.062494 55.647464 
L 290.101782 68.380847 
L 292.141069 75.890451 
L 294.180356 53.859042 
L 296.219644 42.328641 
L 298.258931 81.110526 
L 300.298218 58.770386 
L 302.337506 63.367685 
L 304.376793 58.75366 
L 306.41608 44.851947 
L 308.455368 46.278995 
L 310.494655 49.336517 
L 312.533942 56.827181 
L 314.57323 74.035885 
L 316.612517 41.664547 
L 318.651804 58.411858 
L 320.691092 46.354895 
L 322.730379 43.806346 
L 324.769667 55.666604 
L 326.808954 62.816723 
L 328.848241 47.184888 
L 330.887529 43.636892 
L 332.926816 48.163083 
L 334.966103 45.119176 
L 337.005391 55.129889 
L 339.044678 47.899091 
L 341.083965 51.980201 
L 343.123253 51.157763 
L 345.16254 49.210323 
L 347.201827 55.010237 
L 349.241115 51.419678 
L 351.280402 44.643824 
L 353.319689 54.705871 
L 355.358977 53.024971 
L 357.398264 64.549019 
L 359.437551 83.86922 
L 361.476839 50.47851 
L 363.516126 58.720828 
L 365.555413 46.037154 
L 367.594701 71.012055 
L 369.633988 53.004156 
L 371.673275 57.206705 
L 373.712563 52.849811 
L 375.75185 70.833104 
L 377.791138 53.336782 
L 379.830425 89.944963 
L 381.869712 65.665649 
L 383.909 69.987593 
L 385.948287 102.239241 
L 387.987574 73.072543 
L 390.026862 81.880279 
L 392.066149 63.219979 
L 394.105436 61.622958 
L 396.144724 97.414546 
L 398.184011 83.256455 
L 400.223298 84.806905 
L 402.262586 56.467002 
L 404.301873 79.757387 
L 406.34116 76.018625 
L 408.380448 66.116707 
L 410.419735 53.233582 
L 412.459022 69.708201 
L 414.49831 107.400827 
L 416.537597 80.044719 
L 418.576884 111.470943 
L 420.616172 98.516569 
L 422.655459 81.538511 
L 424.694746 77.448385 
L 426.734034 68.645416 
L 428.773321 68.473441 
L 430.812608 62.097351 
L 432.851896 64.238141 
L 434.891183 70.372706 
L 436.930471 58.489926 
L 438.969758 62.707935 
L 441.009045 71.400167 
L 443.048333 46.038409 
L 445.08762 59.03408 
L 447.126907 73.162255 
L 449.166195 65.605456 
L 451.205482 55.742321 
L 453.244769 63.734281 
L 457.323344 55.932515 
L 459.362631 52.767309 
L 461.401919 60.349439 
L 463.441206 59.414449 
L 465.480493 58.873475 
L 467.519781 60.230628 
L 469.559068 56.713615 
L 471.598355 65.926175 
L 475.67693 71.958432 
L 477.716217 53.304819 
L 479.755505 65.409499 
L 481.794792 60.805123 
L 483.834079 63.172031 
L 485.873367 69.337556 
L 487.912654 64.754602 
L 489.951942 44.023638 
L 491.991229 58.486595 
L 494.030516 47.473868 
L 496.069804 61.041007 
L 498.109091 57.926491 
L 498.109091 57.926491 
" clip-path="url(#pf736281c66)" style="fill: none; stroke: #ff0000; stroke-opacity: 0.9; stroke-width: 1.5; stroke-linecap: square"/>
   </g>
   <g id="line2d_15">
    <path d="M 92.290909 62.219027 
L 94.330196 106.204722 
L 96.369484 130.778182 
L 98.408771 105.412118 
L 100.448058 87.28077 
L 102.487346 104.537281 
L 104.526633 99.053588 
L 106.565921 66.731701 
L 108.605208 116.157797 
L 110.644495 48.57616 
L 112.683783 82.373742 
L 114.72307 119.533632 
L 116.762357 121.618738 
L 118.801645 108.915282 
L 120.840932 68.258279 
L 122.880219 114.875083 
L 124.919507 70.433856 
L 126.958794 66.589035 
L 128.998081 86.170731 
L 131.037369 67.653413 
L 133.076656 51.64712 
L 135.115943 51.614976 
L 137.155231 110.381643 
L 139.194518 107.13316 
L 141.233805 126.105947 
L 143.273093 122.744662 
L 145.31238 121.553271 
L 147.351667 118.317039 
L 149.390955 117.981292 
L 151.430242 110.443867 
L 153.469529 109.744779 
L 155.508817 110.892265 
L 157.548104 127.365687 
L 159.587392 110.015117 
L 161.626679 123.423682 
L 163.665966 97.284698 
L 165.705254 90.079444 
L 167.744541 109.849181 
L 169.783828 47.144317 
L 171.823116 52.988801 
L 173.862403 75.884926 
L 175.90169 49.278704 
L 177.940978 42.417361 
L 179.980265 69.051711 
L 182.019552 65.195089 
L 184.05884 69.087834 
L 186.098127 68.245514 
L 188.137414 57.759003 
L 190.176702 69.363569 
L 192.215989 62.546735 
L 194.255276 50.382042 
L 196.294564 69.888833 
L 198.333851 73.631841 
L 200.373138 95.227506 
L 202.412426 70.745258 
L 204.451713 56.603717 
L 206.491 49.355025 
L 208.530288 73.810198 
L 210.569575 54.780269 
L 212.608862 113.501491 
L 214.64815 105.752953 
L 216.687437 97.011798 
L 218.726725 93.12071 
L 220.766012 111.965579 
L 222.805299 119.479331 
L 224.844587 121.000938 
L 226.883874 70.517296 
L 228.923161 60.679422 
L 230.962449 81.288708 
L 233.001736 74.108352 
L 235.041023 40.85207 
L 237.080311 62.843273 
L 239.119598 56.519151 
L 241.158885 72.260472 
L 243.198173 51.610694 
L 245.23746 83.550841 
L 247.276747 52.578557 
L 249.316035 100.309198 
L 251.355322 73.561941 
L 253.394609 110.616512 
L 255.433897 93.656107 
L 257.473184 71.973536 
L 259.512471 64.948173 
L 261.551759 54.185134 
L 263.591046 66.792781 
L 265.630333 66.91154 
L 267.669621 59.831811 
L 269.708908 46.945927 
L 271.748196 40.437068 
L 273.787483 60.185445 
L 275.82677 51.65247 
L 277.866058 66.24861 
L 279.905345 54.10024 
L 281.944632 79.552265 
L 283.98392 65.976083 
L 286.023207 60.59821 
L 288.062494 53.619581 
L 290.101782 66.507432 
L 292.141069 77.149846 
L 294.180356 54.391802 
L 296.219644 41.773878 
L 298.258931 80.859416 
L 300.298218 54.780403 
L 302.337506 63.885097 
L 304.376793 59.7378 
L 306.41608 44.228148 
L 308.455368 45.318188 
L 310.494655 53.382805 
L 312.533942 54.697732 
L 314.57323 76.264257 
L 316.612517 39.141818 
L 318.651804 56.396851 
L 320.691092 48.497978 
L 322.730379 42.378847 
L 324.769667 60.928531 
L 326.808954 62.475096 
L 328.848241 47.677564 
L 330.887529 44.698256 
L 332.926816 50.208011 
L 334.966103 43.655464 
L 337.005391 55.264638 
L 339.044678 47.183304 
L 341.083965 50.543499 
L 343.123253 54.205575 
L 345.16254 53.258364 
L 347.201827 53.777701 
L 349.241115 54.637977 
L 351.280402 46.659531 
L 353.319689 53.441954 
L 355.358977 53.925378 
L 357.398264 64.448765 
L 359.437551 86.808891 
L 361.476839 48.852128 
L 363.516126 58.595477 
L 365.555413 46.248691 
L 367.594701 70.699696 
L 369.633988 54.024179 
L 371.673275 60.255328 
L 373.712563 55.449984 
L 375.75185 67.00005 
L 377.791138 48.927343 
L 379.830425 88.851171 
L 381.869712 67.577847 
L 383.909 70.516754 
L 385.948287 103.755237 
L 387.987574 71.977667 
L 390.026862 76.750271 
L 392.066149 62.263218 
L 394.105436 63.99696 
L 396.144724 96.885876 
L 398.184011 84.123516 
L 400.223298 84.588639 
L 402.262586 58.382829 
L 404.301873 76.242427 
L 406.34116 73.82802 
L 408.380448 67.306383 
L 410.419735 49.839674 
L 412.459022 67.9999 
L 414.49831 105.707181 
L 416.537597 78.813734 
L 418.576884 116.2634 
L 420.616172 98.019599 
L 422.655459 81.919423 
L 424.694746 78.18268 
L 426.734034 66.253242 
L 428.773321 65.397189 
L 430.812608 62.613182 
L 432.851896 62.810434 
L 434.891183 68.015861 
L 436.930471 58.911792 
L 438.969758 63.791762 
L 441.009045 72.346882 
L 443.048333 47.028962 
L 445.08762 61.789426 
L 447.126907 69.517511 
L 449.166195 64.160639 
L 451.205482 54.776442 
L 453.244769 64.109103 
L 455.284057 64.903504 
L 457.323344 57.375051 
L 459.362631 53.245635 
L 461.401919 59.749012 
L 463.441206 64.516437 
L 465.480493 61.366527 
L 467.519781 62.941059 
L 469.559068 53.793417 
L 471.598355 67.206602 
L 473.637643 70.576947 
L 475.67693 71.653459 
L 477.716217 51.341913 
L 479.755505 64.856968 
L 481.794792 57.362246 
L 485.873367 66.027736 
L 487.912654 64.43806 
L 489.951942 46.97978 
L 491.991229 55.007513 
L 494.030516 43.520373 
L 496.069804 63.460653 
L 498.109091 58.710887 
L 498.109091 58.710887 
" clip-path="url(#pf736281c66)" style="fill: none; stroke: #ff0000; stroke-opacity: 0.9; stroke-width: 1.5; stroke-linecap: square"/>
   </g>
   <g id="line2d_16">
    <path d="M 92.290909 59.186039 
L 94.330196 105.308825 
L 96.369484 128.262074 
L 98.408771 103.769635 
L 100.448058 86.987855 
L 102.487346 108.219158 
L 104.526633 94.917807 
L 106.565921 66.804128 
L 108.605208 116.883767 
L 110.644495 45.707095 
L 112.683783 80.801433 
L 114.72307 122.746552 
L 116.762357 121.120134 
L 118.801645 110.750935 
L 120.840932 68.779949 
L 122.880219 118.865591 
L 124.919507 71.357498 
L 126.958794 65.260422 
L 128.998081 85.573828 
L 131.037369 66.549173 
L 133.076656 55.172341 
L 135.115943 57.810562 
L 137.155231 107.162574 
L 139.194518 104.312808 
L 141.233805 126.600374 
L 143.273093 121.115117 
L 145.31238 121.458635 
L 147.351667 118.724017 
L 149.390955 119.771569 
L 151.430242 110.352964 
L 153.469529 107.769208 
L 155.508817 114.012276 
L 157.548104 125.927456 
L 159.587392 112.064964 
L 161.626679 119.468036 
L 163.665966 98.563876 
L 165.705254 92.289568 
L 167.744541 110.127733 
L 169.783828 47.779326 
L 171.823116 58.319019 
L 173.862403 75.278193 
L 175.90169 48.058745 
L 177.940978 46.46584 
L 179.980265 71.500922 
L 182.019552 66.517396 
L 184.05884 71.238238 
L 186.098127 64.477747 
L 188.137414 55.036443 
L 190.176702 66.350322 
L 192.215989 60.909385 
L 194.255276 50.459241 
L 196.294564 70.060241 
L 198.333851 76.017587 
L 200.373138 98.365538 
L 202.412426 72.23737 
L 204.451713 52.655738 
L 206.491 48.081999 
L 208.530288 76.853681 
L 210.569575 57.740399 
L 212.608862 110.053562 
L 214.64815 106.504066 
L 216.687437 91.938758 
L 218.726725 92.699189 
L 220.766012 111.889413 
L 222.805299 122.563406 
L 224.844587 118.72558 
L 226.883874 69.885274 
L 228.923161 59.276912 
L 230.962449 79.506201 
L 233.001736 71.967807 
L 235.041023 42.766062 
L 237.080311 60.151778 
L 239.119598 55.062001 
L 241.158885 75.387763 
L 243.198173 50.98104 
L 245.23746 82.04422 
L 247.276747 50.576769 
L 249.316035 98.953288 
L 251.355322 77.347904 
L 253.394609 114.086913 
L 255.433897 90.757559 
L 257.473184 69.892169 
L 259.512471 66.232543 
L 261.551759 57.439421 
L 263.591046 67.696157 
L 265.630333 64.787738 
L 267.669621 57.922495 
L 269.708908 51.88773 
L 271.748196 42.269778 
L 273.787483 57.875638 
L 275.82677 48.630825 
L 277.866058 68.306921 
L 279.905345 59.30478 
L 281.944632 78.032751 
L 283.98392 67.739362 
L 286.023207 58.489663 
L 288.062494 51.913958 
L 290.101782 68.599708 
L 292.141069 76.955236 
L 294.180356 54.374901 
L 296.219644 42.736783 
L 298.258931 77.716553 
L 300.298218 57.769795 
L 302.337506 63.109417 
L 304.376793 62.42692 
L 306.41608 47.214422 
L 308.455368 50.976058 
L 310.494655 53.310518 
L 312.533942 58.730961 
L 314.57323 69.059756 
L 316.612517 40.774813 
L 318.651804 57.154697 
L 320.691092 43.356802 
L 322.730379 40.785933 
L 324.769667 56.076406 
L 326.808954 61.847945 
L 328.848241 48.988163 
L 330.887529 45.026728 
L 332.926816 49.025657 
L 334.966103 47.112633 
L 337.005391 54.472973 
L 339.044678 47.567498 
L 341.083965 47.801961 
L 343.123253 52.289684 
L 345.16254 50.470191 
L 347.201827 56.297565 
L 349.241115 53.493618 
L 351.280402 41.105777 
L 353.319689 54.696741 
L 355.358977 56.800754 
L 357.398264 64.439926 
L 359.437551 86.475203 
L 361.476839 54.938715 
L 363.516126 56.21385 
L 365.555413 45.679064 
L 367.594701 72.681013 
L 369.633988 55.808996 
L 371.673275 58.995431 
L 373.712563 54.774219 
L 375.75185 68.993501 
L 377.791138 51.24107 
L 379.830425 93.33694 
L 381.869712 64.622758 
L 383.909 75.765957 
L 385.948287 100.612404 
L 387.987574 74.577343 
L 390.026862 76.869824 
L 392.066149 60.702606 
L 394.105436 63.11098 
L 396.144724 95.342158 
L 398.184011 85.561653 
L 400.223298 82.756825 
L 402.262586 59.418352 
L 404.301873 84.039124 
L 406.34116 71.270195 
L 408.380448 68.744223 
L 410.419735 48.453218 
L 412.459022 67.958369 
L 414.49831 107.116627 
L 416.537597 81.22782 
L 418.576884 114.451059 
L 422.655459 82.717552 
L 424.694746 80.80589 
L 426.734034 67.852701 
L 428.773321 66.217393 
L 430.812608 60.129796 
L 432.851896 62.329274 
L 434.891183 68.990328 
L 436.930471 60.997574 
L 438.969758 58.402891 
L 441.009045 70.171054 
L 443.048333 47.759354 
L 445.08762 58.957319 
L 447.126907 68.700854 
L 449.166195 66.510471 
L 451.205482 55.64789 
L 453.244769 62.746706 
L 455.284057 62.115168 
L 457.323344 53.287195 
L 459.362631 54.906139 
L 461.401919 59.928378 
L 465.480493 63.764465 
L 467.519781 58.868896 
L 469.559068 59.863862 
L 471.598355 66.703757 
L 473.637643 69.811622 
L 475.67693 70.917956 
L 477.716217 49.999123 
L 479.755505 65.019381 
L 481.794792 57.096773 
L 483.834079 62.843121 
L 485.873367 69.241899 
L 487.912654 66.770496 
L 489.951942 46.790153 
L 491.991229 54.558054 
L 494.030516 41.309391 
L 496.069804 58.582275 
L 498.109091 61.646346 
L 498.109091 61.646346 
" clip-path="url(#pf736281c66)" style="fill: none; stroke: #ff0000; stroke-opacity: 0.9; stroke-width: 1.5; stroke-linecap: square"/>
   </g>
   <g id="line2d_17">
    <path d="M 92.290909 65.138192 
L 94.330196 105.180948 
L 96.369484 130.062736 
L 100.448058 87.474376 
L 102.487346 105.655971 
L 104.526633 98.565632 
L 106.565921 71.303827 
L 108.605208 116.584854 
L 110.644495 47.945622 
L 114.72307 123.028313 
L 116.762357 123.023868 
L 118.801645 109.610205 
L 120.840932 68.889228 
L 122.880219 116.478703 
L 124.919507 67.653063 
L 126.958794 66.913161 
L 128.998081 86.768935 
L 131.037369 64.860147 
L 133.076656 53.703127 
L 135.115943 58.290159 
L 137.155231 104.630051 
L 139.194518 106.890731 
L 141.233805 124.804053 
L 143.273093 123.502508 
L 145.31238 117.56652 
L 147.351667 118.027554 
L 149.390955 116.081036 
L 151.430242 112.649254 
L 153.469529 105.899311 
L 155.508817 111.554518 
L 157.548104 130.100504 
L 159.587392 107.561326 
L 161.626679 120.416718 
L 163.665966 98.94316 
L 165.705254 93.817704 
L 167.744541 112.651459 
L 169.783828 46.791979 
L 171.823116 56.30872 
L 173.862403 76.660215 
L 175.90169 47.604213 
L 177.940978 43.672717 
L 179.980265 72.072693 
L 182.019552 66.421967 
L 184.05884 69.827461 
L 186.098127 66.320657 
L 188.137414 56.436876 
L 190.176702 67.148585 
L 192.215989 60.138244 
L 194.255276 50.537753 
L 196.294564 72.690732 
L 198.333851 76.392047 
L 200.373138 97.309958 
L 202.412426 71.522712 
L 204.451713 50.633911 
L 206.491 42.659388 
L 208.530288 76.439429 
L 210.569575 56.097203 
L 212.608862 110.556319 
L 214.64815 107.366979 
L 216.687437 92.618198 
L 218.726725 92.967631 
L 220.766012 108.188005 
L 222.805299 120.355498 
L 224.844587 117.900027 
L 226.883874 69.518345 
L 228.923161 59.601411 
L 230.962449 81.106932 
L 233.001736 75.021961 
L 235.041023 41.099663 
L 237.080311 61.39324 
L 239.119598 53.434101 
L 241.158885 76.699809 
L 243.198173 51.126617 
L 245.23746 87.21605 
L 247.276747 50.721465 
L 249.316035 97.630228 
L 251.355322 77.053145 
L 253.394609 111.067745 
L 255.433897 90.552693 
L 257.473184 67.48065 
L 259.512471 68.557384 
L 261.551759 59.208295 
L 263.591046 67.324304 
L 265.630333 69.403892 
L 267.669621 59.964437 
L 269.708908 47.811961 
L 271.748196 43.392881 
L 273.787483 60.814941 
L 275.82677 47.532183 
L 277.866058 62.527606 
L 279.905345 56.260585 
L 281.944632 75.162322 
L 283.98392 62.900112 
L 288.062494 56.07157 
L 290.101782 68.139176 
L 292.141069 71.206549 
L 294.180356 54.771355 
L 296.219644 44.597311 
L 298.258931 79.472231 
L 300.298218 57.63063 
L 302.337506 63.879117 
L 304.376793 59.684403 
L 306.41608 42.618718 
L 308.455368 48.613875 
L 310.494655 51.92835 
L 312.533942 56.58677 
L 314.57323 72.889624 
L 316.612517 45.031319 
L 318.651804 57.966202 
L 320.691092 47.590614 
L 322.730379 41.203674 
L 324.769667 56.166573 
L 326.808954 63.644587 
L 328.848241 45.819977 
L 330.887529 44.941009 
L 332.926816 51.016428 
L 334.966103 48.725505 
L 337.005391 55.481486 
L 339.044678 49.124695 
L 341.083965 54.306955 
L 343.123253 53.146011 
L 345.16254 46.944445 
L 347.201827 55.959088 
L 349.241115 52.725738 
L 351.280402 43.609336 
L 353.319689 50.200559 
L 355.358977 54.056685 
L 357.398264 65.230039 
L 359.437551 82.515364 
L 361.476839 48.081199 
L 363.516126 57.398643 
L 365.555413 46.277186 
L 367.594701 69.13647 
L 369.633988 57.100273 
L 371.673275 60.677725 
L 373.712563 53.015824 
L 375.75185 68.015849 
L 377.791138 49.32706 
L 379.830425 90.313321 
L 381.869712 65.698091 
L 383.909 69.818419 
L 385.948287 99.203867 
L 387.987574 75.471274 
L 390.026862 77.538062 
L 392.066149 65.23886 
L 394.105436 65.21549 
L 396.144724 98.814706 
L 398.184011 82.933811 
L 400.223298 83.517664 
L 402.262586 54.65675 
L 404.301873 81.885179 
L 406.34116 72.099867 
L 408.380448 67.903636 
L 410.419735 50.397415 
L 412.459022 68.621515 
L 414.49831 108.568731 
L 416.537597 76.091734 
L 418.576884 113.096007 
L 420.616172 99.744182 
L 422.655459 84.269349 
L 424.694746 78.884405 
L 426.734034 64.626976 
L 428.773321 65.058228 
L 430.812608 63.030859 
L 432.851896 60.390672 
L 434.891183 70.424597 
L 436.930471 60.604195 
L 438.969758 59.935571 
L 441.009045 72.911927 
L 443.048333 44.142714 
L 445.08762 63.098788 
L 447.126907 72.013772 
L 449.166195 66.031662 
L 451.205482 61.663316 
L 453.244769 65.23113 
L 455.284057 66.68062 
L 457.323344 58.684822 
L 459.362631 56.041012 
L 461.401919 58.849469 
L 463.441206 59.765662 
L 465.480493 60.199662 
L 467.519781 63.328424 
L 469.559068 54.708245 
L 471.598355 65.731723 
L 473.637643 70.678689 
L 475.67693 73.080022 
L 477.716217 53.733568 
L 479.755505 65.813939 
L 481.794792 59.12427 
L 483.834079 60.537124 
L 485.873367 67.141607 
L 487.912654 66.76951 
L 489.951942 45.508431 
L 491.991229 56.383684 
L 494.030516 44.559791 
L 496.069804 59.356485 
L 498.109091 59.538779 
L 498.109091 59.538779 
" clip-path="url(#pf736281c66)" style="fill: none; stroke: #ff0000; stroke-opacity: 0.9; stroke-width: 1.5; stroke-linecap: square"/>
   </g>
   <g id="line2d_18">
    <path d="M 92.290909 111.695789 
L 94.330196 100.406786 
L 96.369484 119.870511 
L 98.408771 100.575768 
L 100.448058 91.388566 
L 102.487346 104.397083 
L 104.526633 98.67253 
L 106.565921 66.788266 
L 108.605208 112.080237 
L 110.644495 46.892626 
L 112.683783 80.945476 
L 114.72307 118.547089 
L 116.762357 120.718057 
L 118.801645 112.076433 
L 120.840932 69.67311 
L 122.880219 111.98965 
L 124.919507 68.201644 
L 126.958794 63.83576 
L 128.998081 85.099424 
L 131.037369 63.710392 
L 133.076656 50.516488 
L 135.115943 52.777034 
L 137.155231 104.715376 
L 139.194518 108.814999 
L 141.233805 124.572206 
L 143.273093 120.684933 
L 145.31238 120.803849 
L 147.351667 112.861453 
L 149.390955 117.570312 
L 151.430242 108.851717 
L 153.469529 107.320215 
L 155.508817 114.077614 
L 157.548104 127.574712 
L 159.587392 109.176298 
L 161.626679 123.040832 
L 163.665966 95.576805 
L 165.705254 94.750214 
L 167.744541 112.406941 
L 169.783828 50.454843 
L 171.823116 54.924259 
L 173.862403 74.934144 
L 175.90169 51.212805 
L 177.940978 43.841151 
L 179.980265 68.942613 
L 182.019552 64.457819 
L 184.05884 70.765793 
L 186.098127 66.009785 
L 188.137414 59.752804 
L 190.176702 68.601166 
L 192.215989 61.711224 
L 194.255276 48.263523 
L 196.294564 68.876201 
L 198.333851 74.761925 
L 200.373138 92.510156 
L 202.412426 71.118727 
L 204.451713 52.841364 
L 206.491 43.099969 
L 208.530288 73.201954 
L 210.569575 58.320816 
L 212.608862 111.114287 
L 214.64815 105.456024 
L 216.687437 93.471479 
L 218.726725 92.107343 
L 220.766012 108.745227 
L 222.805299 120.283275 
L 224.844587 119.379724 
L 226.883874 70.021487 
L 228.923161 58.558916 
L 230.962449 79.018238 
L 233.001736 73.471657 
L 235.041023 44.542135 
L 237.080311 59.378589 
L 239.119598 52.133694 
L 241.158885 74.209149 
L 243.198173 52.642285 
L 245.23746 81.067029 
L 247.276747 50.750879 
L 249.316035 101.553385 
L 251.355322 76.963614 
L 253.394609 110.258795 
L 257.473184 72.036798 
L 259.512471 65.546885 
L 261.551759 57.333135 
L 263.591046 68.751702 
L 265.630333 64.142478 
L 267.669621 60.967145 
L 269.708908 49.054295 
L 271.748196 39.994574 
L 273.787483 62.193381 
L 275.82677 50.121079 
L 277.866058 65.640313 
L 279.905345 54.452899 
L 281.944632 81.709552 
L 283.98392 64.71747 
L 286.023207 63.132035 
L 288.062494 53.424167 
L 290.101782 67.31815 
L 292.141069 75.181457 
L 294.180356 54.602601 
L 296.219644 42.099492 
L 298.258931 78.783048 
L 300.298218 55.692816 
L 302.337506 60.861833 
L 304.376793 58.451347 
L 306.41608 45.3457 
L 308.455368 46.08066 
L 310.494655 56.793194 
L 312.533942 61.090635 
L 314.57323 72.589778 
L 316.612517 41.063099 
L 318.651804 57.01909 
L 320.691092 46.785465 
L 322.730379 42.812266 
L 326.808954 63.04724 
L 328.848241 46.622422 
L 332.926816 48.230163 
L 334.966103 46.521643 
L 337.005391 56.709461 
L 339.044678 41.484501 
L 341.083965 50.680144 
L 343.123253 56.743495 
L 345.16254 49.297941 
L 347.201827 53.091412 
L 349.241115 55.049283 
L 351.280402 41.856736 
L 353.319689 58.822424 
L 355.358977 58.119164 
L 357.398264 65.083902 
L 359.437551 83.145613 
L 361.476839 48.314464 
L 363.516126 56.373947 
L 365.555413 46.46332 
L 367.594701 70.156079 
L 369.633988 53.483257 
L 371.673275 62.654864 
L 373.712563 52.368925 
L 375.75185 68.534259 
L 377.791138 50.533237 
L 379.830425 93.859124 
L 381.869712 66.630053 
L 383.909 72.564664 
L 385.948287 99.781157 
L 387.987574 72.388045 
L 390.026862 80.164435 
L 392.066149 62.418088 
L 394.105436 67.005534 
L 396.144724 100.664675 
L 398.184011 83.447156 
L 400.223298 83.711083 
L 402.262586 59.378887 
L 404.301873 80.029475 
L 406.34116 68.570282 
L 408.380448 69.479539 
L 410.419735 47.609671 
L 412.459022 68.900861 
L 414.49831 104.839671 
L 416.537597 78.606803 
L 418.576884 112.439471 
L 420.616172 105.443073 
L 422.655459 86.105299 
L 424.694746 81.132729 
L 426.734034 61.863095 
L 428.773321 66.418881 
L 430.812608 64.830855 
L 432.851896 63.88162 
L 434.891183 71.225514 
L 436.930471 60.39412 
L 438.969758 60.367658 
L 441.009045 71.300543 
L 443.048333 48.449517 
L 445.08762 60.598058 
L 447.126907 69.781881 
L 449.166195 66.693875 
L 451.205482 56.814574 
L 453.244769 64.605706 
L 455.284057 62.640332 
L 457.323344 53.457682 
L 459.362631 50.373951 
L 461.401919 60.657534 
L 463.441206 60.600777 
L 465.480493 62.753409 
L 467.519781 55.191704 
L 469.559068 56.502483 
L 471.598355 68.103992 
L 473.637643 68.219817 
L 475.67693 70.543187 
L 477.716217 50.597742 
L 479.755505 65.317966 
L 481.794792 58.184981 
L 483.834079 61.887527 
L 485.873367 66.554242 
L 487.912654 67.148205 
L 489.951942 47.10124 
L 491.991229 50.236148 
L 494.030516 44.503278 
L 496.069804 64.696281 
L 498.109091 59.083965 
L 498.109091 59.083965 
" clip-path="url(#pf736281c66)" style="fill: none; stroke: #008000; stroke-opacity: 0.9; stroke-width: 1.5; stroke-linecap: square"/>
   </g>
   <g id="line2d_19">
    <path d="M 153.469529 135.36 
L 153.469529 34.56 
" clip-path="url(#pf736281c66)" style="fill: none; stroke-dasharray: 5.55,2.4; stroke-dashoffset: 0; stroke: #000000; stroke-width: 1.5"/>
   </g>
   <g id="line2d_20">
    <path d="M 438.969758 135.36 
L 438.969758 34.56 
" clip-path="url(#pf736281c66)" style="fill: none; stroke-dasharray: 5.55,2.4; stroke-dashoffset: 0; stroke: #0000ff; stroke-width: 1.5"/>
   </g>
   <g id="patch_3">
    <path d="M 72 135.36 
L 72 34.56 
" style="fill: none; stroke: #000000; stroke-width: 0.8; stroke-linejoin: miter; stroke-linecap: square"/>
   </g>
   <g id="patch_4">
    <path d="M 518.4 135.36 
L 518.4 34.56 
" style="fill: none; stroke: #000000; stroke-width: 0.8; stroke-linejoin: miter; stroke-linecap: square"/>
   </g>
   <g id="patch_5">
    <path d="M 72 135.36 
L 518.4 135.36 
" style="fill: none; stroke: #000000; stroke-width: 0.8; stroke-linejoin: miter; stroke-linecap: square"/>
   </g>
   <g id="patch_6">
    <path d="M 72 34.56 
L 518.4 34.56 
" style="fill: none; stroke: #000000; stroke-width: 0.8; stroke-linejoin: miter; stroke-linecap: square"/>
   </g>
  </g>
  <g id="axes_2">
   <g id="patch_7">
    <path d="M 72 256.32 
L 518.4 256.32 
L 518.4 155.52 
L 72 155.52 
z
" style="fill: #ffffff"/>
   </g>
   <g id="matplotlib.axis_3">
    <g id="xtick_10">
     <g id="line2d_21">
      <g>
       <use xlink:href="#m87e185cf77" x="92.290909" y="256.32" style="stroke: #000000; stroke-width: 0.8"/>
      </g>
     </g>
     <g id="text_4">
      <!-- 0 -->
      <g transform="translate(89.109659 270.918437) scale(0.1 -0.1)">
       <use xlink:href="#DejaVuSans-30"/>
      </g>
     </g>
    </g>
    <g id="xtick_11">
     <g id="line2d_22">
      <g>
       <use xlink:href="#m87e185cf77" x="143.273093" y="256.32" style="stroke: #000000; stroke-width: 0.8"/>
      </g>
     </g>
     <g id="text_5">
      <!-- 25 -->
      <g transform="translate(136.910593 270.918437) scale(0.1 -0.1)">
       <defs>
        <path id="DejaVuSans-32" d="M 1228 531 
L 3431 531 
L 3431 0 
L 469 0 
L 469 531 
Q 828 903 1448 1529 
Q 2069 2156 2228 2338 
Q 2531 2678 2651 2914 
Q 2772 3150 2772 3378 
Q 2772 3750 2511 3984 
Q 2250 4219 1831 4219 
Q 1534 4219 1204 4116 
Q 875 4013 500 3803 
L 500 4441 
Q 881 4594 1212 4672 
Q 1544 4750 1819 4750 
Q 2544 4750 2975 4387 
Q 3406 4025 3406 3419 
Q 3406 3131 3298 2873 
Q 3191 2616 2906 2266 
Q 2828 2175 2409 1742 
Q 1991 1309 1228 531 
z
" transform="scale(0.015625)"/>
       </defs>
       <use xlink:href="#DejaVuSans-32"/>
       <use xlink:href="#DejaVuSans-35" transform="translate(63.623047 0)"/>
      </g>
     </g>
    </g>
    <g id="xtick_12">
     <g id="line2d_23">
      <g>
       <use xlink:href="#m87e185cf77" x="194.255276" y="256.32" style="stroke: #000000; stroke-width: 0.8"/>
      </g>
     </g>
     <g id="text_6">
      <!-- 50 -->
      <g transform="translate(187.892776 270.918437) scale(0.1 -0.1)">
       <use xlink:href="#DejaVuSans-35"/>
       <use xlink:href="#DejaVuSans-30" transform="translate(63.623047 0)"/>
      </g>
     </g>
    </g>
    <g id="xtick_13">
     <g id="line2d_24">
      <g>
       <use xlink:href="#m87e185cf77" x="245.23746" y="256.32" style="stroke: #000000; stroke-width: 0.8"/>
      </g>
     </g>
     <g id="text_7">
      <!-- 75 -->
      <g transform="translate(238.87496 270.918437) scale(0.1 -0.1)">
       <defs>
        <path id="DejaVuSans-37" d="M 525 4666 
L 3525 4666 
L 3525 4397 
L 1831 0 
L 1172 0 
L 2766 4134 
L 525 4134 
L 525 4666 
z
" transform="scale(0.015625)"/>
       </defs>
       <use xlink:href="#DejaVuSans-37"/>
       <use xlink:href="#DejaVuSans-35" transform="translate(63.623047 0)"/>
      </g>
     </g>
    </g>
    <g id="xtick_14">
     <g id="line2d_25">
      <g>
       <use xlink:href="#m87e185cf77" x="296.219644" y="256.32" style="stroke: #000000; stroke-width: 0.8"/>
      </g>
     </g>
     <g id="text_8">
      <!-- 100 -->
      <g transform="translate(286.675894 270.918437) scale(0.1 -0.1)">
       <use xlink:href="#DejaVuSans-31"/>
       <use xlink:href="#DejaVuSans-30" transform="translate(63.623047 0)"/>
       <use xlink:href="#DejaVuSans-30" transform="translate(127.246094 0)"/>
      </g>
     </g>
    </g>
    <g id="xtick_15">
     <g id="line2d_26">
      <g>
       <use xlink:href="#m87e185cf77" x="347.201827" y="256.32" style="stroke: #000000; stroke-width: 0.8"/>
      </g>
     </g>
     <g id="text_9">
      <!-- 125 -->
      <g transform="translate(337.658077 270.918437) scale(0.1 -0.1)">
       <use xlink:href="#DejaVuSans-31"/>
       <use xlink:href="#DejaVuSans-32" transform="translate(63.623047 0)"/>
       <use xlink:href="#DejaVuSans-35" transform="translate(127.246094 0)"/>
      </g>
     </g>
    </g>
    <g id="xtick_16">
     <g id="line2d_27">
      <g>
       <use xlink:href="#m87e185cf77" x="398.184011" y="256.32" style="stroke: #000000; stroke-width: 0.8"/>
      </g>
     </g>
     <g id="text_10">
      <!-- 150 -->
      <g transform="translate(388.640261 270.918437) scale(0.1 -0.1)">
       <use xlink:href="#DejaVuSans-31"/>
       <use xlink:href="#DejaVuSans-35" transform="translate(63.623047 0)"/>
       <use xlink:href="#DejaVuSans-30" transform="translate(127.246094 0)"/>
      </g>
     </g>
    </g>
    <g id="xtick_17">
     <g id="line2d_28">
      <g>
       <use xlink:href="#m87e185cf77" x="449.166195" y="256.32" style="stroke: #000000; stroke-width: 0.8"/>
      </g>
     </g>
     <g id="text_11">
      <!-- 175 -->
      <g transform="translate(439.622445 270.918437) scale(0.1 -0.1)">
       <use xlink:href="#DejaVuSans-31"/>
       <use xlink:href="#DejaVuSans-37" transform="translate(63.623047 0)"/>
       <use xlink:href="#DejaVuSans-35" transform="translate(127.246094 0)"/>
      </g>
     </g>
    </g>
    <g id="xtick_18">
     <g id="line2d_29">
      <g>
       <use xlink:href="#m87e185cf77" x="500.148378" y="256.32" style="stroke: #000000; stroke-width: 0.8"/>
      </g>
     </g>
     <g id="text_12">
      <!-- 200 -->
      <g transform="translate(490.604628 270.918437) scale(0.1 -0.1)">
       <use xlink:href="#DejaVuSans-32"/>
       <use xlink:href="#DejaVuSans-30" transform="translate(63.623047 0)"/>
       <use xlink:href="#DejaVuSans-30" transform="translate(127.246094 0)"/>
      </g>
     </g>
    </g>
   </g>
   <g id="matplotlib.axis_4">
    <g id="ytick_4">
     <g id="line2d_30">
      <g>
       <use xlink:href="#m8f21056689" x="72" y="254.043436" style="stroke: #000000; stroke-width: 0.8"/>
      </g>
     </g>
     <g id="text_13">
      <!-- −200 -->
      <g transform="translate(37.532812 257.842655) scale(0.1 -0.1)">
       <use xlink:href="#DejaVuSans-2212"/>
       <use xlink:href="#DejaVuSans-32" transform="translate(83.789062 0)"/>
       <use xlink:href="#DejaVuSans-30" transform="translate(147.412109 0)"/>
       <use xlink:href="#DejaVuSans-30" transform="translate(211.035156 0)"/>
      </g>
     </g>
    </g>
    <g id="ytick_5">
     <g id="line2d_31">
      <g>
       <use xlink:href="#m8f21056689" x="72" y="229.626176" style="stroke: #000000; stroke-width: 0.8"/>
      </g>
     </g>
     <g id="text_14">
      <!-- −100 -->
      <g transform="translate(37.532812 233.425394) scale(0.1 -0.1)">
       <use xlink:href="#DejaVuSans-2212"/>
       <use xlink:href="#DejaVuSans-31" transform="translate(83.789062 0)"/>
       <use xlink:href="#DejaVuSans-30" transform="translate(147.412109 0)"/>
       <use xlink:href="#DejaVuSans-30" transform="translate(211.035156 0)"/>
      </g>
     </g>
    </g>
    <g id="ytick_6">
     <g id="line2d_32">
      <g>
       <use xlink:href="#m8f21056689" x="72" y="205.208915" style="stroke: #000000; stroke-width: 0.8"/>
      </g>
     </g>
     <g id="text_15">
      <!-- 0 -->
      <g transform="translate(58.6375 209.008133) scale(0.1 -0.1)">
       <use xlink:href="#DejaVuSans-30"/>
      </g>
     </g>
    </g>
    <g id="ytick_7">
     <g id="line2d_33">
      <g>
       <use xlink:href="#m8f21056689" x="72" y="180.791654" style="stroke: #000000; stroke-width: 0.8"/>
      </g>
     </g>
     <g id="text_16">
      <!-- 100 -->
      <g transform="translate(45.9125 184.590873) scale(0.1 -0.1)">
       <use xlink:href="#DejaVuSans-31"/>
       <use xlink:href="#DejaVuSans-30" transform="translate(63.623047 0)"/>
       <use xlink:href="#DejaVuSans-30" transform="translate(127.246094 0)"/>
      </g>
     </g>
    </g>
    <g id="ytick_8">
     <g id="line2d_34">
      <g>
       <use xlink:href="#m8f21056689" x="72" y="156.374393" style="stroke: #000000; stroke-width: 0.8"/>
      </g>
     </g>
     <g id="text_17">
      <!-- 200 -->
      <g transform="translate(45.9125 160.173612) scale(0.1 -0.1)">
       <use xlink:href="#DejaVuSans-32"/>
       <use xlink:href="#DejaVuSans-30" transform="translate(63.623047 0)"/>
       <use xlink:href="#DejaVuSans-30" transform="translate(127.246094 0)"/>
      </g>
     </g>
    </g>
   </g>
   <g id="line2d_35">
    <path d="M 92.290909 178.45321 
L 94.330196 170.794616 
L 96.369484 163.866237 
L 98.408771 165.022998 
L 100.448058 170.733487 
L 102.487346 167.535301 
L 104.526633 169.004562 
L 106.565921 163.474709 
L 108.605208 165.10903 
L 110.644495 177.305736 
L 112.683783 248.92966 
L 114.72307 162.155292 
L 116.762357 164.48843 
L 118.801645 170.561386 
L 120.840932 162.735549 
L 122.880219 169.045422 
L 124.919507 167.46102 
L 126.958794 182.450411 
L 128.998081 163.42225 
L 131.037369 167.776281 
L 133.076656 174.241156 
L 135.115943 168.060524 
L 137.155231 165.3184 
L 139.194518 166.249144 
L 141.233805 167.39333 
L 143.273093 166.630723 
L 145.31238 161.848683 
L 147.351667 162.450873 
L 149.390955 164.197052 
L 151.430242 162.64442 
L 153.469529 164.47343 
L 155.508817 169.094461 
L 157.548104 164.282946 
L 159.587392 166.047184 
L 161.626679 168.279503 
L 163.665966 169.248965 
L 165.705254 251.415526 
L 167.744541 163.116368 
L 169.783828 168.139112 
L 171.823116 167.024944 
L 173.862403 167.801191 
L 175.90169 173.514017 
L 177.940978 171.650073 
L 179.980265 185.844756 
L 182.019552 170.251066 
L 184.05884 173.650659 
L 186.098127 188.327137 
L 188.137414 174.812637 
L 190.176702 174.873441 
L 192.215989 198.481824 
L 194.255276 192.771566 
L 196.294564 191.104944 
L 198.333851 188.169973 
L 200.373138 172.519379 
L 202.412426 165.804748 
L 204.451713 167.762402 
L 206.491 167.07791 
L 208.530288 176.161409 
L 210.569575 166.989098 
L 212.608862 164.403289 
L 214.64815 168.40467 
L 216.687437 163.43025 
L 218.726725 168.662964 
L 220.766012 167.912558 
L 222.805299 170.616792 
L 224.844587 163.369348 
L 226.883874 179.209644 
L 228.923161 186.788652 
L 230.962449 168.974532 
L 233.001736 171.859328 
L 235.041023 166.744549 
L 237.080311 167.905986 
L 239.119598 168.808053 
L 241.158885 166.186566 
L 243.198173 170.91523 
L 245.23746 161.651578 
L 247.276747 165.200296 
L 249.316035 164.950457 
L 251.355322 170.386598 
L 253.394609 165.881979 
L 255.433897 164.287682 
L 257.473184 170.087098 
L 259.512471 165.886842 
L 261.551759 163.336353 
L 263.591046 166.02341 
L 265.630333 168.346504 
L 267.669621 164.241117 
L 269.708908 165.153389 
L 271.748196 166.343656 
L 273.787483 168.375088 
L 275.82677 162.667262 
L 277.866058 251.031946 
L 279.905345 168.122763 
L 281.944632 166.783405 
L 283.98392 163.640749 
L 286.023207 171.880881 
L 288.062494 171.743415 
L 290.101782 169.827758 
L 292.141069 171.642409 
L 294.180356 168.361619 
L 296.219644 167.686534 
L 298.258931 174.422684 
L 300.298218 170.585376 
L 302.337506 164.702137 
L 304.376793 172.003448 
L 306.41608 164.419138 
L 308.455368 167.823665 
L 310.494655 168.638485 
L 312.533942 163.875745 
L 314.57323 251.237769 
L 316.612517 160.89763 
L 318.651804 163.526043 
L 320.691092 162.684669 
L 322.730379 166.955559 
L 324.769667 164.9952 
L 326.808954 165.882255 
L 328.848241 168.415993 
L 330.887529 167.840308 
L 332.926816 164.353464 
L 334.966103 166.383197 
L 337.005391 161.566615 
L 339.044678 163.919713 
L 341.083965 163.596248 
L 343.123253 164.356761 
L 345.16254 166.116458 
L 347.201827 164.800993 
L 349.241115 249.98112 
L 351.280402 163.98285 
L 353.319689 163.811922 
L 355.358977 171.127138 
L 357.398264 167.551411 
L 359.437551 171.896284 
L 361.476839 167.190831 
L 363.516126 167.244664 
L 365.555413 171.180144 
L 367.594701 167.639712 
L 369.633988 171.315785 
L 371.673275 167.46735 
L 373.712563 172.747512 
L 375.75185 176.804473 
L 377.791138 174.257742 
L 379.830425 166.745816 
L 381.869712 178.837084 
L 383.909 172.655105 
L 385.948287 171.98299 
L 387.987574 169.119837 
L 390.026862 173.54889 
L 392.066149 171.909588 
L 394.105436 172.279927 
L 396.144724 248.554236 
L 398.184011 165.389886 
L 400.223298 171.236463 
L 402.262586 172.928548 
L 404.301873 171.756224 
L 406.34116 167.868937 
L 408.380448 173.67329 
L 410.419735 166.597362 
L 412.459022 171.955945 
L 414.49831 165.88075 
L 416.537597 167.347108 
L 418.576884 161.615676 
L 420.616172 168.608221 
L 422.655459 167.746709 
L 424.694746 171.877483 
L 426.734034 167.407492 
L 428.773321 173.011048 
L 430.812608 175.737878 
L 432.851896 172.463347 
L 434.891183 173.340701 
L 436.930471 179.070763 
L 438.969758 170.241203 
L 441.009045 178.692416 
L 443.048333 172.473958 
L 445.08762 175.104881 
L 447.126907 175.997766 
L 449.166195 163.609717 
L 451.205482 169.079513 
L 453.244769 173.856855 
L 455.284057 180.184182 
L 457.323344 182.552621 
L 459.362631 174.251389 
L 461.401919 173.906311 
L 463.441206 177.748658 
L 465.480493 175.595385 
L 467.519781 176.905982 
L 469.559068 176.885492 
L 471.598355 171.270826 
L 473.637643 175.652634 
L 475.67693 179.130946 
L 477.716217 180.054762 
L 479.755505 173.754948 
L 481.794792 176.746982 
L 483.834079 171.4934 
L 485.873367 174.261514 
L 487.912654 178.542731 
L 489.951942 172.874941 
L 491.991229 170.536229 
L 494.030516 168.963444 
L 496.069804 174.993659 
L 498.109091 176.643927 
L 498.109091 176.643927 
" clip-path="url(#p0f467567a7)" style="fill: none; stroke: #ff0000; stroke-opacity: 0.9; stroke-width: 1.5; stroke-linecap: square"/>
   </g>
   <g id="line2d_36">
    <path d="M 92.290909 176.354991 
L 96.369484 164.284485 
L 98.408771 163.85035 
L 100.448058 170.298644 
L 102.487346 165.734569 
L 104.526633 170.206937 
L 106.565921 163.583707 
L 108.605208 166.254118 
L 110.644495 176.285513 
L 112.683783 248.609046 
L 114.72307 163.446926 
L 116.762357 164.489079 
L 118.801645 170.483819 
L 120.840932 163.302262 
L 122.880219 168.660784 
L 124.919507 167.707589 
L 126.958794 181.607791 
L 128.998081 164.630967 
L 131.037369 168.17267 
L 133.076656 175.576069 
L 135.115943 168.732457 
L 137.155231 166.31528 
L 139.194518 166.203142 
L 141.233805 168.356418 
L 143.273093 165.795109 
L 145.31238 161.635691 
L 147.351667 162.439185 
L 149.390955 165.856119 
L 151.430242 162.929896 
L 153.469529 165.641205 
L 155.508817 168.675173 
L 157.548104 164.777614 
L 159.587392 165.973578 
L 161.626679 169.221972 
L 163.665966 169.938301 
L 165.705254 250.818477 
L 167.744541 162.337896 
L 169.783828 168.61818 
L 171.823116 168.334339 
L 173.862403 168.66552 
L 175.90169 173.537999 
L 177.940978 172.088523 
L 179.980265 185.79793 
L 182.019552 170.298435 
L 184.05884 173.134278 
L 186.098127 188.82886 
L 188.137414 174.384787 
L 190.176702 174.420944 
L 192.215989 198.302024 
L 194.255276 195.137125 
L 196.294564 191.304618 
L 198.333851 189.174381 
L 200.373138 172.683228 
L 202.412426 164.488781 
L 204.451713 168.538746 
L 206.491 166.514952 
L 208.530288 175.749567 
L 210.569575 167.19244 
L 212.608862 163.990529 
L 214.64815 168.63084 
L 216.687437 162.452576 
L 218.726725 168.077894 
L 220.766012 166.848461 
L 222.805299 169.856044 
L 224.844587 164.21953 
L 226.883874 179.207934 
L 228.923161 187.202744 
L 230.962449 167.220782 
L 233.001736 171.538005 
L 235.041023 165.222524 
L 237.080311 166.382407 
L 239.119598 168.254261 
L 241.158885 164.973389 
L 243.198173 171.924044 
L 245.23746 163.470134 
L 247.276747 164.24918 
L 249.316035 165.641298 
L 251.355322 170.259732 
L 253.394609 166.270642 
L 255.433897 163.579821 
L 257.473184 170.976881 
L 259.512471 165.575702 
L 261.551759 161.764551 
L 263.591046 165.004659 
L 265.630333 168.81087 
L 267.669621 164.554891 
L 269.708908 166.076908 
L 271.748196 166.159956 
L 273.787483 167.066095 
L 275.82677 163.659922 
L 277.866058 250.327576 
L 279.905345 168.658146 
L 281.944632 165.702382 
L 283.98392 163.871199 
L 286.023207 170.715734 
L 288.062494 172.276123 
L 290.101782 170.82915 
L 292.141069 172.846409 
L 294.180356 168.161634 
L 296.219644 168.433694 
L 298.258931 174.955436 
L 300.298218 170.380041 
L 302.337506 165.05039 
L 304.376793 171.667137 
L 306.41608 163.540022 
L 308.455368 169.572598 
L 310.494655 168.337334 
L 312.533942 163.880707 
L 314.57323 250.815452 
L 316.612517 161.548422 
L 318.651804 163.223342 
L 320.691092 162.547058 
L 322.730379 165.730862 
L 324.769667 165.982918 
L 326.808954 165.344722 
L 328.848241 169.129349 
L 330.887529 168.752379 
L 332.926816 164.721597 
L 334.966103 166.845905 
L 337.005391 161.688083 
L 339.044678 163.981706 
L 341.083965 164.473252 
L 343.123253 164.079858 
L 345.16254 166.003924 
L 347.201827 163.66076 
L 349.241115 251.005377 
L 351.280402 163.149419 
L 353.319689 163.913524 
L 355.358977 171.394999 
L 357.398264 168.368743 
L 359.437551 173.770868 
L 361.476839 167.333122 
L 363.516126 166.946099 
L 365.555413 171.021132 
L 367.594701 168.533866 
L 369.633988 170.784802 
L 371.673275 167.194929 
L 373.712563 173.059684 
L 375.75185 177.401818 
L 377.791138 173.467891 
L 379.830425 166.803163 
L 381.869712 178.779812 
L 383.909 171.988672 
L 385.948287 169.693253 
L 387.987574 169.180992 
L 390.026862 172.253783 
L 392.066149 172.225944 
L 394.105436 172.408284 
L 396.144724 249.205722 
L 398.184011 165.427375 
L 400.223298 172.32746 
L 402.262586 171.832685 
L 404.301873 170.005559 
L 406.34116 168.800411 
L 408.380448 172.59094 
L 410.419735 167.85542 
L 412.459022 172.582989 
L 414.49831 166.518603 
L 416.537597 167.368889 
L 418.576884 160.130414 
L 420.616172 170.626479 
L 422.655459 167.803389 
L 424.694746 173.125984 
L 426.734034 168.247882 
L 428.773321 172.201101 
L 430.812608 177.364163 
L 432.851896 173.740782 
L 434.891183 173.837764 
L 436.930471 179.486741 
L 438.969758 171.368687 
L 441.009045 178.476722 
L 443.048333 172.572538 
L 445.08762 174.058068 
L 447.126907 177.628051 
L 449.166195 164.123543 
L 451.205482 170.122083 
L 453.244769 173.8582 
L 455.284057 178.584462 
L 457.323344 180.808014 
L 459.362631 174.263544 
L 461.401919 173.306338 
L 463.441206 176.908091 
L 465.480493 174.923655 
L 467.519781 175.62546 
L 469.559068 175.302236 
L 471.598355 170.700644 
L 473.637643 176.13619 
L 475.67693 178.523543 
L 477.716217 180.095207 
L 479.755505 173.546122 
L 481.794792 176.179388 
L 483.834079 171.755054 
L 485.873367 174.170368 
L 487.912654 178.565505 
L 489.951942 174.900744 
L 491.991229 170.442105 
L 494.030516 168.764927 
L 496.069804 174.077187 
L 498.109091 176.477745 
L 498.109091 176.477745 
" clip-path="url(#p0f467567a7)" style="fill: none; stroke: #ff0000; stroke-opacity: 0.9; stroke-width: 1.5; stroke-linecap: square"/>
   </g>
   <g id="line2d_37">
    <path d="M 92.290909 176.505116 
L 94.330196 170.473521 
L 96.369484 163.680521 
L 98.408771 163.955722 
L 100.448058 170.05655 
L 102.487346 166.15942 
L 104.526633 169.806808 
L 106.565921 164.026568 
L 108.605208 166.554851 
L 110.644495 176.915803 
L 112.683783 249.589987 
L 114.72307 163.284754 
L 116.762357 164.523795 
L 118.801645 170.057195 
L 120.840932 161.646518 
L 122.880219 168.569313 
L 124.919507 166.817202 
L 126.958794 180.743137 
L 128.998081 164.359358 
L 131.037369 167.542719 
L 133.076656 175.847075 
L 135.115943 169.673413 
L 137.155231 168.117994 
L 139.194518 166.143421 
L 141.233805 167.949142 
L 143.273093 165.769129 
L 145.31238 162.487844 
L 147.351667 160.377518 
L 149.390955 165.770366 
L 151.430242 163.064557 
L 153.469529 164.684693 
L 155.508817 169.45515 
L 157.548104 165.219994 
L 159.587392 166.548164 
L 161.626679 169.775939 
L 163.665966 168.159082 
L 165.705254 248.927164 
L 167.744541 163.702746 
L 169.783828 169.370668 
L 171.823116 167.567913 
L 173.862403 167.837003 
L 175.90169 173.273249 
L 177.940978 173.237385 
L 179.980265 184.980034 
L 182.019552 170.979552 
L 184.05884 174.241253 
L 186.098127 189.525199 
L 188.137414 173.807761 
L 190.176702 175.524217 
L 192.215989 197.55279 
L 194.255276 194.137463 
L 196.294564 191.053831 
L 198.333851 189.043387 
L 200.373138 171.626269 
L 202.412426 166.306435 
L 204.451713 168.374171 
L 206.491 167.370007 
L 208.530288 175.003251 
L 210.569575 167.150525 
L 212.608862 164.768158 
L 214.64815 168.862896 
L 216.687437 161.884119 
L 218.726725 168.913586 
L 220.766012 166.899687 
L 222.805299 171.208348 
L 224.844587 162.394927 
L 226.883874 178.992798 
L 228.923161 187.759374 
L 230.962449 168.337316 
L 233.001736 172.455691 
L 235.041023 166.81332 
L 237.080311 168.762695 
L 239.119598 170.034155 
L 241.158885 165.077822 
L 243.198173 171.88198 
L 245.23746 162.475709 
L 247.276747 165.58429 
L 249.316035 164.651687 
L 251.355322 171.17023 
L 253.394609 165.869319 
L 255.433897 163.666572 
L 257.473184 169.064465 
L 259.512471 165.616093 
L 261.551759 163.596125 
L 263.591046 165.805627 
L 265.630333 168.997427 
L 267.669621 164.327432 
L 269.708908 166.356558 
L 271.748196 165.694342 
L 273.787483 167.822313 
L 275.82677 163.435533 
L 277.866058 251.738182 
L 279.905345 169.883074 
L 281.944632 165.40309 
L 283.98392 163.734992 
L 286.023207 169.781282 
L 288.062494 172.453928 
L 290.101782 170.50899 
L 292.141069 172.786197 
L 294.180356 168.657953 
L 296.219644 169.180471 
L 298.258931 174.717909 
L 300.298218 169.48822 
L 302.337506 164.600759 
L 304.376793 170.899351 
L 306.41608 163.568249 
L 308.455368 168.23416 
L 310.494655 167.972927 
L 312.533942 164.967733 
L 314.57323 250.180117 
L 316.612517 160.101818 
L 318.651804 163.06784 
L 320.691092 162.47496 
L 322.730379 166.853383 
L 324.769667 165.915485 
L 326.808954 164.500465 
L 330.887529 168.702614 
L 332.926816 165.322736 
L 334.966103 167.156699 
L 337.005391 161.739182 
L 339.044678 163.681054 
L 341.083965 163.028689 
L 343.123253 163.610071 
L 345.16254 166.110359 
L 347.201827 164.818661 
L 349.241115 250.319782 
L 351.280402 162.755895 
L 353.319689 165.042245 
L 355.358977 170.893122 
L 357.398264 168.271861 
L 359.437551 171.875758 
L 361.476839 166.358458 
L 363.516126 167.960688 
L 365.555413 171.828765 
L 367.594701 167.449582 
L 369.633988 170.648435 
L 371.673275 167.161378 
L 373.712563 173.860507 
L 375.75185 176.155212 
L 377.791138 175.048152 
L 379.830425 165.748563 
L 381.869712 179.29999 
L 383.909 171.819011 
L 385.948287 171.480714 
L 387.987574 168.830478 
L 390.026862 173.354225 
L 392.066149 172.545109 
L 394.105436 172.438589 
L 396.144724 248.156338 
L 398.184011 165.072539 
L 400.223298 171.368069 
L 402.262586 171.407622 
L 404.301873 170.789936 
L 406.34116 167.677719 
L 408.380448 174.438917 
L 410.419735 166.916569 
L 412.459022 173.403063 
L 414.49831 165.477647 
L 416.537597 166.636315 
L 418.576884 162.419308 
L 420.616172 169.448574 
L 422.655459 167.583077 
L 424.694746 173.546662 
L 426.734034 168.392357 
L 430.812608 176.343531 
L 432.851896 173.278372 
L 434.891183 173.976695 
L 436.930471 178.198158 
L 438.969758 172.04328 
L 441.009045 178.727908 
L 443.048333 173.851859 
L 445.08762 174.669898 
L 447.126907 175.633448 
L 449.166195 164.548587 
L 451.205482 169.587177 
L 453.244769 174.929075 
L 455.284057 179.066095 
L 457.323344 180.696745 
L 459.362631 173.701505 
L 461.401919 174.959404 
L 463.441206 177.760942 
L 465.480493 175.045449 
L 467.519781 174.928777 
L 469.559068 175.880433 
L 471.598355 171.764168 
L 473.637643 176.218235 
L 475.67693 177.977421 
L 477.716217 180.268825 
L 479.755505 173.539397 
L 481.794792 178.115865 
L 483.834079 171.064761 
L 487.912654 178.20134 
L 489.951942 172.823045 
L 491.991229 170.405216 
L 494.030516 170.104162 
L 496.069804 174.046214 
L 498.109091 176.202024 
L 498.109091 176.202024 
" clip-path="url(#p0f467567a7)" style="fill: none; stroke: #ff0000; stroke-opacity: 0.9; stroke-width: 1.5; stroke-linecap: square"/>
   </g>
   <g id="line2d_38">
    <path d="M 92.290909 177.093159 
L 94.330196 171.793936 
L 96.369484 164.790662 
L 98.408771 164.350524 
L 100.448058 170.175272 
L 102.487346 167.788267 
L 104.526633 169.120053 
L 106.565921 163.214482 
L 108.605208 166.755365 
L 110.644495 176.661632 
L 112.683783 248.946881 
L 114.72307 162.761286 
L 116.762357 164.482495 
L 118.801645 171.160748 
L 120.840932 160.377027 
L 122.880219 168.831511 
L 124.919507 167.318893 
L 126.958794 180.312618 
L 128.998081 164.470506 
L 131.037369 168.940959 
L 133.076656 173.879016 
L 135.115943 167.957361 
L 137.155231 165.39185 
L 139.194518 165.425549 
L 141.233805 168.034362 
L 143.273093 165.539268 
L 145.31238 162.536335 
L 147.351667 161.584443 
L 149.390955 164.926679 
L 151.430242 163.09645 
L 153.469529 164.158874 
L 155.508817 168.744048 
L 157.548104 164.542178 
L 159.587392 165.994841 
L 161.626679 168.285732 
L 163.665966 167.905051 
L 165.705254 249.857215 
L 167.744541 163.198696 
L 169.783828 169.857277 
L 171.823116 166.684348 
L 173.862403 167.621057 
L 175.90169 172.954423 
L 177.940978 171.04738 
L 179.980265 185.015975 
L 182.019552 170.310115 
L 184.05884 174.136874 
L 186.098127 188.514602 
L 188.137414 173.774948 
L 190.176702 174.684028 
L 192.215989 199.69498 
L 194.255276 194.475351 
L 196.294564 190.95058 
L 198.333851 188.995291 
L 200.373138 172.118429 
L 202.412426 164.719112 
L 204.451713 168.996495 
L 206.491 166.351584 
L 208.530288 174.714421 
L 210.569575 167.330681 
L 212.608862 164.831012 
L 214.64815 169.351976 
L 216.687437 161.316441 
L 218.726725 168.569607 
L 220.766012 166.986751 
L 222.805299 170.583323 
L 224.844587 164.154075 
L 226.883874 179.202213 
L 228.923161 187.053797 
L 230.962449 166.528313 
L 233.001736 172.770001 
L 235.041023 167.580461 
L 237.080311 167.880979 
L 239.119598 169.409766 
L 241.158885 165.896961 
L 243.198173 170.584221 
L 245.23746 162.475001 
L 247.276747 165.131701 
L 249.316035 165.659551 
L 251.355322 170.549247 
L 253.394609 165.662162 
L 255.433897 164.634183 
L 257.473184 169.922497 
L 259.512471 164.608512 
L 261.551759 164.1402 
L 263.591046 165.722114 
L 265.630333 168.690274 
L 267.669621 164.254098 
L 269.708908 166.329714 
L 271.748196 166.513905 
L 273.787483 166.996263 
L 275.82677 163.632083 
L 277.866058 251.538003 
L 279.905345 168.982397 
L 281.944632 164.812931 
L 283.98392 165.086422 
L 286.023207 171.209977 
L 288.062494 172.502308 
L 290.101782 169.962974 
L 292.141069 172.08584 
L 294.180356 166.604065 
L 298.258931 174.482831 
L 300.298218 170.709366 
L 302.337506 165.170624 
L 304.376793 171.314198 
L 306.41608 164.631284 
L 310.494655 170.253245 
L 312.533942 164.092995 
L 314.57323 250.326227 
L 316.612517 161.40682 
L 318.651804 162.896197 
L 320.691092 162.838387 
L 322.730379 166.012303 
L 324.769667 165.870918 
L 326.808954 165.074242 
L 328.848241 167.037787 
L 330.887529 167.96514 
L 332.926816 164.26662 
L 334.966103 166.532914 
L 337.005391 161.708523 
L 339.044678 164.141363 
L 341.083965 163.461759 
L 343.123253 163.647667 
L 345.16254 165.754331 
L 347.201827 164.422495 
L 349.241115 250.474174 
L 351.280402 162.758402 
L 353.319689 164.307402 
L 355.358977 171.648098 
L 357.398264 169.068097 
L 359.437551 170.774783 
L 361.476839 167.22877 
L 363.516126 165.896514 
L 365.555413 170.413767 
L 367.594701 167.461628 
L 369.633988 171.155666 
L 371.673275 166.01838 
L 373.712563 173.180746 
L 375.75185 176.168635 
L 377.791138 174.858156 
L 379.830425 167.515711 
L 381.869712 178.573109 
L 383.909 171.491135 
L 385.948287 169.863037 
L 387.987574 168.648742 
L 390.026862 172.877441 
L 392.066149 171.328769 
L 394.105436 172.505128 
L 396.144724 248.938356 
L 398.184011 165.233228 
L 400.223298 172.63958 
L 402.262586 171.187287 
L 404.301873 170.614575 
L 406.34116 168.562137 
L 408.380448 172.560813 
L 410.419735 168.538269 
L 412.459022 171.774793 
L 414.49831 165.226514 
L 416.537597 167.258789 
L 418.576884 160.51013 
L 420.616172 169.447542 
L 422.655459 168.705516 
L 424.694746 172.961465 
L 426.734034 167.229951 
L 428.773321 172.357934 
L 430.812608 176.734969 
L 432.851896 173.633756 
L 434.891183 175.093342 
L 436.930471 177.414232 
L 438.969758 171.747759 
L 441.009045 178.879184 
L 443.048333 172.950798 
L 445.08762 174.911206 
L 447.126907 175.259395 
L 449.166195 164.011415 
L 451.205482 170.083305 
L 453.244769 172.623604 
L 455.284057 179.079616 
L 457.323344 180.975895 
L 459.362631 173.378953 
L 461.401919 173.692854 
L 463.441206 178.127907 
L 465.480493 175.932017 
L 467.519781 175.836671 
L 469.559068 176.100506 
L 471.598355 171.744194 
L 473.637643 175.802419 
L 475.67693 177.722388 
L 477.716217 181.206545 
L 479.755505 174.148207 
L 481.794792 177.61953 
L 483.834079 171.51352 
L 485.873367 174.594477 
L 487.912654 178.051981 
L 489.951942 172.914353 
L 491.991229 170.359691 
L 494.030516 168.904484 
L 496.069804 173.744348 
L 498.109091 177.029128 
L 498.109091 177.029128 
" clip-path="url(#p0f467567a7)" style="fill: none; stroke: #ff0000; stroke-opacity: 0.9; stroke-width: 1.5; stroke-linecap: square"/>
   </g>
   <g id="line2d_39">
    <path d="M 92.290909 177.337317 
L 94.330196 171.395278 
L 96.369484 164.52045 
L 98.408771 164.66596 
L 100.448058 169.975634 
L 102.487346 167.566132 
L 104.526633 170.158048 
L 106.565921 162.674856 
L 108.605208 164.967342 
L 110.644495 176.080715 
L 112.683783 249.762323 
L 114.72307 164.015782 
L 116.762357 164.602998 
L 118.801645 170.886538 
L 120.840932 161.550889 
L 122.880219 167.948389 
L 124.919507 166.053704 
L 126.958794 180.775503 
L 128.998081 165.048664 
L 131.037369 168.258493 
L 133.076656 176.349012 
L 135.115943 168.300613 
L 137.155231 166.951896 
L 139.194518 167.378882 
L 143.273093 167.246959 
L 145.31238 160.535167 
L 147.351667 161.768333 
L 149.390955 166.172478 
L 151.430242 162.990492 
L 153.469529 163.709262 
L 155.508817 168.053963 
L 157.548104 164.769376 
L 159.587392 167.316427 
L 161.626679 169.168261 
L 163.665966 169.217147 
L 165.705254 249.517882 
L 167.744541 163.084911 
L 169.783828 168.825315 
L 171.823116 166.841364 
L 173.862403 168.129768 
L 175.90169 172.541417 
L 177.940978 170.841456 
L 179.980265 185.471595 
L 182.019552 170.324247 
L 184.05884 174.283977 
L 186.098127 188.316217 
L 188.137414 174.302006 
L 190.176702 175.305384 
L 192.215989 196.930009 
L 194.255276 194.114449 
L 196.294564 190.678999 
L 198.333851 188.498516 
L 200.373138 172.000561 
L 202.412426 166.142274 
L 204.451713 167.690126 
L 206.491 167.16086 
L 208.530288 175.380216 
L 210.569575 167.062518 
L 212.608862 164.51131 
L 214.64815 169.671521 
L 216.687437 162.348925 
L 218.726725 167.562749 
L 220.766012 168.139272 
L 222.805299 171.765915 
L 224.844587 163.485395 
L 226.883874 179.294985 
L 228.923161 187.116772 
L 230.962449 168.145066 
L 233.001736 172.144346 
L 235.041023 166.168902 
L 237.080311 166.9187 
L 239.119598 168.697111 
L 241.158885 166.049662 
L 243.198173 172.279271 
L 245.23746 163.729005 
L 247.276747 164.599462 
L 249.316035 165.642106 
L 251.355322 169.671148 
L 253.394609 166.154271 
L 255.433897 164.386627 
L 257.473184 170.530961 
L 259.512471 164.706191 
L 261.551759 163.599095 
L 263.591046 165.561548 
L 265.630333 168.537684 
L 267.669621 163.756792 
L 269.708908 166.457944 
L 271.748196 165.480873 
L 273.787483 167.498308 
L 275.82677 163.887127 
L 277.866058 250.58059 
L 279.905345 169.392732 
L 281.944632 165.097539 
L 283.98392 164.469034 
L 286.023207 170.563789 
L 288.062494 171.708639 
L 290.101782 169.599475 
L 292.141069 172.312177 
L 294.180356 168.088274 
L 296.219644 169.33588 
L 298.258931 175.16183 
L 300.298218 169.937176 
L 302.337506 165.932821 
L 304.376793 170.940696 
L 306.41608 164.7559 
L 308.455368 168.061709 
L 310.494655 168.875914 
L 312.533942 163.886237 
L 314.57323 250.975165 
L 316.612517 161.323274 
L 318.651804 163.596572 
L 320.691092 162.466518 
L 322.730379 167.338174 
L 324.769667 166.682202 
L 326.808954 165.540128 
L 328.848241 167.200145 
L 330.887529 167.079586 
L 332.926816 164.103166 
L 334.966103 166.202151 
L 337.005391 162.020516 
L 339.044678 163.539288 
L 341.083965 163.033529 
L 343.123253 163.539542 
L 345.16254 166.059904 
L 347.201827 165.077688 
L 349.241115 251.368354 
L 351.280402 163.136506 
L 353.319689 164.743322 
L 355.358977 171.944734 
L 357.398264 168.823154 
L 359.437551 171.699712 
L 361.476839 166.009185 
L 363.516126 166.41854 
L 365.555413 171.644611 
L 367.594701 168.343829 
L 369.633988 170.668718 
L 371.673275 165.876242 
L 373.712563 172.960876 
L 375.75185 175.641158 
L 377.791138 173.943297 
L 379.830425 167.22598 
L 381.869712 180.271939 
L 383.909 171.240666 
L 385.948287 170.54551 
L 387.987574 168.599443 
L 390.026862 172.912821 
L 392.066149 172.477852 
L 394.105436 172.355717 
L 396.144724 250.150184 
L 398.184011 165.527464 
L 400.223298 171.391437 
L 402.262586 172.072673 
L 404.301873 171.259097 
L 406.34116 166.94636 
L 408.380448 173.082165 
L 410.419735 166.619084 
L 412.459022 173.562936 
L 414.49831 166.573477 
L 416.537597 168.378106 
L 418.576884 160.400756 
L 420.616172 170.224475 
L 422.655459 168.524596 
L 424.694746 172.731216 
L 426.734034 168.09223 
L 428.773321 173.375574 
L 430.812608 175.878122 
L 432.851896 172.719804 
L 434.891183 174.415074 
L 436.930471 178.275787 
L 438.969758 170.303506 
L 441.009045 178.36289 
L 443.048333 172.213534 
L 445.08762 174.99552 
L 447.126907 176.64493 
L 449.166195 165.398817 
L 453.244769 173.037866 
L 455.284057 179.183153 
L 457.323344 180.530227 
L 459.362631 174.241002 
L 461.401919 173.862131 
L 463.441206 177.99798 
L 465.480493 176.324218 
L 467.519781 176.175308 
L 469.559068 175.367323 
L 471.598355 172.885161 
L 475.67693 178.748895 
L 477.716217 180.693146 
L 479.755505 173.87658 
L 481.794792 176.573356 
L 483.834079 172.096622 
L 485.873367 174.934347 
L 487.912654 178.78636 
L 489.951942 174.186562 
L 491.991229 169.257043 
L 494.030516 169.050624 
L 496.069804 173.997569 
L 498.109091 177.857896 
L 498.109091 177.857896 
" clip-path="url(#p0f467567a7)" style="fill: none; stroke: #ff0000; stroke-opacity: 0.9; stroke-width: 1.5; stroke-linecap: square"/>
   </g>
   <g id="line2d_40">
    <path d="M 92.290909 171.265278 
L 94.330196 169.533473 
L 96.369484 166.199196 
L 98.408771 164.147142 
L 100.448058 167.406147 
L 102.487346 165.536842 
L 104.526633 168.126072 
L 106.565921 164.005573 
L 108.605208 165.052971 
L 110.644495 174.986565 
L 112.683783 247.844807 
L 114.72307 162.408634 
L 116.762357 163.615037 
L 118.801645 169.994266 
L 120.840932 161.599566 
L 122.880219 168.229656 
L 124.919507 166.172102 
L 126.958794 180.600141 
L 128.998081 163.687198 
L 131.037369 166.561241 
L 133.076656 173.884944 
L 135.115943 167.566069 
L 139.194518 166.18534 
L 141.233805 167.789697 
L 143.273093 165.165505 
L 145.31238 162.138172 
L 147.351667 162.214115 
L 149.390955 164.790908 
L 151.430242 163.18759 
L 153.469529 164.041046 
L 155.508817 168.121001 
L 157.548104 164.480301 
L 159.587392 165.812643 
L 161.626679 168.893534 
L 163.665966 168.287014 
L 165.705254 248.020108 
L 167.744541 164.173371 
L 169.783828 168.244183 
L 171.823116 166.723756 
L 173.862403 167.135357 
L 175.90169 172.341771 
L 177.940978 171.451694 
L 179.980265 183.978292 
L 182.019552 169.391182 
L 184.05884 173.289006 
L 186.098127 188.945944 
L 188.137414 172.601778 
L 190.176702 174.7077 
L 192.215989 196.213801 
L 198.333851 187.406645 
L 200.373138 173.005455 
L 202.412426 165.190542 
L 204.451713 167.225477 
L 206.491 167.41697 
L 208.530288 173.85361 
L 210.569575 166.56281 
L 212.608862 163.991732 
L 214.64815 167.740115 
L 216.687437 161.562364 
L 218.726725 166.253622 
L 220.766012 167.007518 
L 222.805299 170.372217 
L 224.844587 163.088752 
L 226.883874 177.78406 
L 228.923161 186.729501 
L 230.962449 166.205485 
L 233.001736 170.83415 
L 235.041023 167.54342 
L 237.080311 166.589315 
L 239.119598 168.77293 
L 241.158885 165.958187 
L 243.198173 171.031624 
L 245.23746 162.415217 
L 247.276747 164.371415 
L 249.316035 165.543955 
L 251.355322 169.599565 
L 253.394609 165.934386 
L 255.433897 163.407239 
L 257.473184 169.575727 
L 259.512471 164.06061 
L 261.551759 162.80996 
L 263.591046 164.858069 
L 265.630333 168.198721 
L 267.669621 164.197835 
L 269.708908 165.277222 
L 271.748196 165.232859 
L 273.787483 166.962161 
L 275.82677 162.886372 
L 277.866058 248.582064 
L 279.905345 169.439073 
L 281.944632 164.839853 
L 283.98392 163.195872 
L 286.023207 170.43111 
L 288.062494 171.254973 
L 290.101782 169.494837 
L 292.141069 171.565807 
L 294.180356 166.92839 
L 296.219644 168.286943 
L 298.258931 175.035962 
L 300.298218 168.879081 
L 302.337506 166.45202 
L 304.376793 171.046568 
L 306.41608 164.052682 
L 308.455368 167.509306 
L 310.494655 167.185681 
L 312.533942 163.590138 
L 314.57323 248.385939 
L 316.612517 161.907319 
L 318.651804 162.638838 
L 320.691092 163.078469 
L 322.730379 165.116764 
L 324.769667 164.779097 
L 326.808954 164.921206 
L 328.848241 166.141696 
L 330.887529 166.856472 
L 332.926816 164.570614 
L 334.966103 166.222393 
L 337.005391 161.868713 
L 339.044678 163.317087 
L 341.083965 162.623727 
L 343.123253 163.51092 
L 345.16254 164.941135 
L 347.201827 164.154455 
L 349.241115 249.057384 
L 351.280402 164.622573 
L 353.319689 162.888678 
L 355.358977 170.858815 
L 357.398264 168.019697 
L 359.437551 172.669468 
L 361.476839 168.476362 
L 363.516126 167.633375 
L 365.555413 170.527176 
L 367.594701 167.660122 
L 369.633988 170.409366 
L 371.673275 165.638165 
L 373.712563 171.66916 
L 375.75185 176.706809 
L 377.791138 174.585023 
L 379.830425 166.291439 
L 381.869712 178.285213 
L 383.909 172.074488 
L 385.948287 170.14 
L 387.987574 168.370356 
L 390.026862 171.697659 
L 394.105436 173.19411 
L 396.144724 248.627339 
L 398.184011 166.504006 
L 400.223298 170.820543 
L 402.262586 171.641601 
L 404.301873 171.272387 
L 406.34116 168.34065 
L 408.380448 173.120668 
L 410.419735 167.163647 
L 412.459022 171.392573 
L 414.49831 165.726629 
L 416.537597 166.637247 
L 418.576884 161.706843 
L 420.616172 169.029066 
L 422.655459 167.779917 
L 424.694746 171.730241 
L 426.734034 168.092804 
L 428.773321 172.264402 
L 430.812608 175.461412 
L 432.851896 172.440791 
L 434.891183 174.031659 
L 436.930471 178.461152 
L 438.969758 171.672778 
L 441.009045 178.380706 
L 443.048333 172.506957 
L 445.08762 174.631631 
L 447.126907 175.934716 
L 449.166195 164.224817 
L 451.205482 169.573674 
L 453.244769 172.963127 
L 455.284057 178.623899 
L 457.323344 179.810312 
L 459.362631 174.938063 
L 461.401919 173.60497 
L 463.441206 176.39067 
L 465.480493 175.570905 
L 467.519781 176.167816 
L 469.559068 176.20251 
L 471.598355 169.867806 
L 473.637643 175.269879 
L 475.67693 178.507161 
L 477.716217 178.771375 
L 479.755505 173.88152 
L 481.794792 176.916964 
L 483.834079 170.773479 
L 487.912654 177.861491 
L 489.951942 172.76572 
L 491.991229 169.51917 
L 494.030516 168.753124 
L 496.069804 174.722531 
L 498.109091 176.209682 
L 498.109091 176.209682 
" clip-path="url(#p0f467567a7)" style="fill: none; stroke: #008000; stroke-opacity: 0.9; stroke-width: 1.5; stroke-linecap: square"/>
   </g>
   <g id="line2d_41">
    <path d="M 438.969758 256.32 
L 438.969758 155.52 
" clip-path="url(#p0f467567a7)" style="fill: none; stroke-dasharray: 5.55,2.4; stroke-dashoffset: 0; stroke: #0000ff; stroke-width: 1.5"/>
   </g>
   <g id="line2d_42">
    <path d="M 153.469529 256.32 
L 153.469529 155.52 
" clip-path="url(#p0f467567a7)" style="fill: none; stroke-dasharray: 5.55,2.4; stroke-dashoffset: 0; stroke: #000000; stroke-width: 1.5"/>
   </g>
   <g id="patch_8">
    <path d="M 72 256.32 
L 72 155.52 
" style="fill: none; stroke: #000000; stroke-width: 0.8; stroke-linejoin: miter; stroke-linecap: square"/>
   </g>
   <g id="patch_9">
    <path d="M 518.4 256.32 
L 518.4 155.52 
" style="fill: none; stroke: #000000; stroke-width: 0.8; stroke-linejoin: miter; stroke-linecap: square"/>
   </g>
   <g id="patch_10">
    <path d="M 72 256.32 
L 518.4 256.32 
" style="fill: none; stroke: #000000; stroke-width: 0.8; stroke-linejoin: miter; stroke-linecap: square"/>
   </g>
   <g id="patch_11">
    <path d="M 72 155.52 
L 518.4 155.52 
" style="fill: none; stroke: #000000; stroke-width: 0.8; stroke-linejoin: miter; stroke-linecap: square"/>
   </g>
  </g>
 </g>
 <defs>
  <clipPath id="pf736281c66">
   <rect x="72" y="34.56" width="446.4" height="100.8"/>
  </clipPath>
  <clipPath id="p0f467567a7">
   <rect x="72" y="155.52" width="446.4" height="100.8"/>
  </clipPath>
 </defs>
</svg>
