<?xml version="1.0" encoding="utf-8" standalone="no"?>
<!DOCTYPE svg PUBLIC "-//W3C//DTD SVG 1.1//EN"
  "http://www.w3.org/Graphics/SVG/1.1/DTD/svg11.dtd">
<svg xmlns:xlink="http://www.w3.org/1999/xlink" width="576pt" height="288pt" viewBox="0 0 576 288" xmlns="http://www.w3.org/2000/svg" version="1.1">
 <metadata>
  <rdf:RDF xmlns:dc="http://purl.org/dc/elements/1.1/" xmlns:cc="http://creativecommons.org/ns#" xmlns:rdf="http://www.w3.org/1999/02/22-rdf-syntax-ns#">
   <cc:Work>
    <dc:type rdf:resource="http://purl.org/dc/dcmitype/StillImage"/>
    <dc:date>2025-01-01T00:43:56.055854</dc:date>
    <dc:format>image/svg+xml</dc:format>
    <dc:creator>
     <cc:Agent>
      <dc:title>Matplotlib v3.10.0, https://matplotlib.org/</dc:title>
     </cc:Agent>
    </dc:creator>
   </cc:Work>
  </rdf:RDF>
 </metadata>
 <defs>
  <style type="text/css">*{stroke-linejoin: round; stroke-linecap: butt}</style>
 </defs>
 <g id="figure_1">
  <g id="patch_1">
   <path d="M 0 288 
L 576 288 
L 576 0 
L 0 0 
z
" style="fill: #ffffff"/>
  </g>
  <g id="axes_1">
   <g id="patch_2">
    <path d="M 72 135.36 
L 518.4 135.36 
L 518.4 34.56 
L 72 34.56 
z
" style="fill: #ffffff"/>
   </g>
   <g id="matplotlib.axis_1">
    <g id="xtick_1">
     <g id="line2d_1">
      <defs>
       <path id="mc06e2d13c9" d="M 0 0 
L 0 3.5 
" style="stroke: #000000; stroke-width: 0.8"/>
      </defs>
      <g>
       <use xlink:href="#mc06e2d13c9" x="92.290909" y="135.36" style="stroke: #000000; stroke-width: 0.8"/>
      </g>
     </g>
    </g>
    <g id="xtick_2">
     <g id="line2d_2">
      <g>
       <use xlink:href="#mc06e2d13c9" x="143.273093" y="135.36" style="stroke: #000000; stroke-width: 0.8"/>
      </g>
     </g>
    </g>
    <g id="xtick_3">
     <g id="line2d_3">
      <g>
       <use xlink:href="#mc06e2d13c9" x="194.255276" y="135.36" style="stroke: #000000; stroke-width: 0.8"/>
      </g>
     </g>
    </g>
    <g id="xtick_4">
     <g id="line2d_4">
      <g>
       <use xlink:href="#mc06e2d13c9" x="245.23746" y="135.36" style="stroke: #000000; stroke-width: 0.8"/>
      </g>
     </g>
    </g>
    <g id="xtick_5">
     <g id="line2d_5">
      <g>
       <use xlink:href="#mc06e2d13c9" x="296.219644" y="135.36" style="stroke: #000000; stroke-width: 0.8"/>
      </g>
     </g>
    </g>
    <g id="xtick_6">
     <g id="line2d_6">
      <g>
       <use xlink:href="#mc06e2d13c9" x="347.201827" y="135.36" style="stroke: #000000; stroke-width: 0.8"/>
      </g>
     </g>
    </g>
    <g id="xtick_7">
     <g id="line2d_7">
      <g>
       <use xlink:href="#mc06e2d13c9" x="398.184011" y="135.36" style="stroke: #000000; stroke-width: 0.8"/>
      </g>
     </g>
    </g>
    <g id="xtick_8">
     <g id="line2d_8">
      <g>
       <use xlink:href="#mc06e2d13c9" x="449.166195" y="135.36" style="stroke: #000000; stroke-width: 0.8"/>
      </g>
     </g>
    </g>
    <g id="xtick_9">
     <g id="line2d_9">
      <g>
       <use xlink:href="#mc06e2d13c9" x="500.148378" y="135.36" style="stroke: #000000; stroke-width: 0.8"/>
      </g>
     </g>
    </g>
   </g>
   <g id="matplotlib.axis_2">
    <g id="ytick_1">
     <g id="line2d_10">
      <defs>
       <path id="m6f45f5c51e" d="M 0 0 
L -3.5 0 
" style="stroke: #000000; stroke-width: 0.8"/>
      </defs>
      <g>
       <use xlink:href="#m6f45f5c51e" x="72" y="116.821379" style="stroke: #000000; stroke-width: 0.8"/>
      </g>
     </g>
     <g id="text_1">
      <!-- −150 -->
      <g transform="translate(37.532812 120.620598) scale(0.1 -0.1)">
       <defs>
        <path id="DejaVuSans-2212" d="M 678 2272 
L 4684 2272 
L 4684 1741 
L 678 1741 
L 678 2272 
z
" transform="scale(0.015625)"/>
        <path id="DejaVuSans-31" d="M 794 531 
L 1825 531 
L 1825 4091 
L 703 3866 
L 703 4441 
L 1819 4666 
L 2450 4666 
L 2450 531 
L 3481 531 
L 3481 0 
L 794 0 
L 794 531 
z
" transform="scale(0.015625)"/>
        <path id="DejaVuSans-35" d="M 691 4666 
L 3169 4666 
L 3169 4134 
L 1269 4134 
L 1269 2991 
Q 1406 3038 1543 3061 
Q 1681 3084 1819 3084 
Q 2600 3084 3056 2656 
Q 3513 2228 3513 1497 
Q 3513 744 3044 326 
Q 2575 -91 1722 -91 
Q 1428 -91 1123 -41 
Q 819 9 494 109 
L 494 744 
Q 775 591 1075 516 
Q 1375 441 1709 441 
Q 2250 441 2565 725 
Q 2881 1009 2881 1497 
Q 2881 1984 2565 2268 
Q 2250 2553 1709 2553 
Q 1456 2553 1204 2497 
Q 953 2441 691 2322 
L 691 4666 
z
" transform="scale(0.015625)"/>
        <path id="DejaVuSans-30" d="M 2034 4250 
Q 1547 4250 1301 3770 
Q 1056 3291 1056 2328 
Q 1056 1369 1301 889 
Q 1547 409 2034 409 
Q 2525 409 2770 889 
Q 3016 1369 3016 2328 
Q 3016 3291 2770 3770 
Q 2525 4250 2034 4250 
z
M 2034 4750 
Q 2819 4750 3233 4129 
Q 3647 3509 3647 2328 
Q 3647 1150 3233 529 
Q 2819 -91 2034 -91 
Q 1250 -91 836 529 
Q 422 1150 422 2328 
Q 422 3509 836 4129 
Q 1250 4750 2034 4750 
z
" transform="scale(0.015625)"/>
       </defs>
       <use xlink:href="#DejaVuSans-2212"/>
       <use xlink:href="#DejaVuSans-31" transform="translate(83.789062 0)"/>
       <use xlink:href="#DejaVuSans-35" transform="translate(147.412109 0)"/>
       <use xlink:href="#DejaVuSans-30" transform="translate(211.035156 0)"/>
      </g>
     </g>
    </g>
    <g id="ytick_2">
     <g id="line2d_11">
      <g>
       <use xlink:href="#m6f45f5c51e" x="72" y="77.749285" style="stroke: #000000; stroke-width: 0.8"/>
      </g>
     </g>
     <g id="text_2">
      <!-- −100 -->
      <g transform="translate(37.532812 81.548503) scale(0.1 -0.1)">
       <use xlink:href="#DejaVuSans-2212"/>
       <use xlink:href="#DejaVuSans-31" transform="translate(83.789062 0)"/>
       <use xlink:href="#DejaVuSans-30" transform="translate(147.412109 0)"/>
       <use xlink:href="#DejaVuSans-30" transform="translate(211.035156 0)"/>
      </g>
     </g>
    </g>
    <g id="ytick_3">
     <g id="line2d_12">
      <g>
       <use xlink:href="#m6f45f5c51e" x="72" y="38.67719" style="stroke: #000000; stroke-width: 0.8"/>
      </g>
     </g>
     <g id="text_3">
      <!-- −50 -->
      <g transform="translate(43.895313 42.476409) scale(0.1 -0.1)">
       <use xlink:href="#DejaVuSans-2212"/>
       <use xlink:href="#DejaVuSans-35" transform="translate(83.789062 0)"/>
       <use xlink:href="#DejaVuSans-30" transform="translate(147.412109 0)"/>
      </g>
     </g>
    </g>
   </g>
   <g id="line2d_13">
    <path d="M 92.290909 61.893369 
L 94.330196 105.92506 
L 96.369484 130.775249 
L 98.408771 104.591878 
L 100.448058 89.445968 
L 102.487346 107.556804 
L 104.526633 98.491793 
L 106.565921 67.957288 
L 108.605208 115.625511 
L 110.644495 45.065638 
L 112.683783 81.87442 
L 114.72307 123.885966 
L 116.762357 122.913587 
L 118.801645 111.703147 
L 120.840932 68.29177 
L 122.880219 116.912358 
L 124.919507 69.774418 
L 126.958794 66.463151 
L 128.998081 88.213924 
L 131.037369 64.60449 
L 133.076656 52.619386 
L 135.115943 53.109988 
L 137.155231 108.75204 
L 139.194518 108.19857 
L 141.233805 126.03945 
L 143.273093 122.321878 
L 145.31238 120.902772 
L 147.351667 116.932915 
L 149.390955 117.726805 
L 151.430242 110.016577 
L 153.469529 107.609007 
L 155.508817 112.385621 
L 157.548104 128.353597 
L 159.587392 109.827894 
L 161.626679 122.201173 
L 163.665966 98.490076 
L 165.705254 94.156756 
L 167.744541 111.746144 
L 169.783828 47.778795 
L 171.823116 54.953654 
L 173.862403 75.135152 
L 175.90169 47.937886 
L 177.940978 42.413093 
L 179.980265 70.630229 
L 182.019552 67.272578 
L 184.05884 70.84397 
L 186.098127 64.785226 
L 188.137414 56.914145 
L 190.176702 66.940284 
L 192.215989 60.804774 
L 194.255276 48.743105 
L 196.294564 69.216119 
L 198.333851 75.447593 
L 200.373138 96.863591 
L 202.412426 70.969588 
L 204.451713 53.254785 
L 206.491 44.735776 
L 208.530288 76.572281 
L 210.569575 56.831781 
L 212.608862 110.843663 
L 214.64815 108.923398 
L 216.687437 93.530658 
L 218.726725 92.511329 
L 220.766012 109.777802 
L 222.805299 122.025165 
L 224.844587 121.423737 
L 226.883874 67.926584 
L 228.923161 59.749567 
L 230.962449 79.998744 
L 233.001736 73.400791 
L 235.041023 41.444726 
L 237.080311 60.278414 
L 239.119598 52.580747 
L 241.158885 74.947631 
L 243.198173 50.511958 
L 245.23746 84.527121 
L 247.276747 49.936531 
L 249.316035 99.282196 
L 251.355322 74.792418 
L 253.394609 112.37564 
L 257.473184 69.159082 
L 259.512471 64.853341 
L 261.551759 57.783454 
L 263.591046 69.338756 
L 265.630333 67.227953 
L 267.669621 60.115897 
L 269.708908 49.521014 
L 271.748196 41.684658 
L 273.787483 60.034535 
L 275.82677 49.746417 
L 277.866058 66.289415 
L 279.905345 56.58516 
L 281.944632 78.211513 
L 283.98392 64.975173 
L 286.023207 59.756644 
L 288.062494 54.196895 
L 290.101782 68.621185 
L 292.141069 74.918674 
L 294.180356 53.253742 
L 296.219644 43.384666 
L 298.258931 80.944944 
L 300.298218 56.889534 
L 302.337506 62.881558 
L 304.376793 59.509396 
L 306.41608 44.54199 
L 308.455368 47.079092 
L 310.494655 51.007967 
L 312.533942 57.94445 
L 314.57323 72.553565 
L 316.612517 40.02802 
L 318.651804 55.695867 
L 320.691092 45.586442 
L 322.730379 42.336971 
L 324.769667 55.954292 
L 326.808954 63.223594 
L 328.848241 46.495988 
L 330.887529 44.79361 
L 332.926816 49.213611 
L 334.966103 45.039161 
L 337.005391 55.718069 
L 339.044678 46.872499 
L 343.123253 52.179575 
L 345.16254 48.007403 
L 347.201827 53.599271 
L 349.241115 53.629743 
L 351.280402 41.906686 
L 353.319689 52.585815 
L 355.358977 54.661186 
L 357.398264 64.429347 
L 359.437551 82.439891 
L 361.476839 49.584249 
L 363.516126 56.764471 
L 365.555413 45.188674 
L 367.594701 69.31876 
L 369.633988 53.437566 
L 371.673275 59.690466 
L 373.712563 52.640104 
L 375.75185 68.443322 
L 377.791138 51.803401 
L 379.830425 91.736326 
L 381.869712 66.825309 
L 383.909 69.850314 
L 385.948287 101.071609 
L 387.987574 72.723295 
L 390.026862 78.504327 
L 392.066149 62.356891 
L 394.105436 63.844166 
L 396.144724 98.980171 
L 398.184011 83.853226 
L 400.223298 84.691592 
L 402.262586 56.770946 
L 404.301873 81.190688 
L 406.34116 72.914626 
L 408.380448 68.185254 
L 410.419735 50.188458 
L 412.459022 69.101889 
L 414.49831 106.946327 
L 416.537597 78.759432 
L 418.576884 115.53712 
L 420.616172 100.625908 
L 422.655459 83.715708 
L 424.694746 79.530411 
L 426.734034 65.839772 
L 428.773321 66.542189 
L 430.812608 62.817366 
L 432.851896 60.643033 
L 434.891183 68.89287 
L 436.930471 59.151204 
L 438.969758 60.607035 
L 441.009045 71.655633 
L 443.048333 46.839649 
L 445.08762 61.830798 
L 447.126907 69.74759 
L 449.166195 66.272298 
L 451.205482 56.079249 
L 453.244769 63.536524 
L 455.284057 62.769015 
L 457.323344 55.660107 
L 459.362631 52.358969 
L 461.401919 58.52733 
L 465.480493 62.646664 
L 467.519781 60.225943 
L 469.559068 53.541768 
L 471.598355 67.426754 
L 473.637643 68.195163 
L 475.67693 71.756903 
L 477.716217 49.751532 
L 479.755505 65.000011 
L 481.794792 60.083137 
L 483.834079 62.252098 
L 485.873367 68.068925 
L 487.912654 66.763048 
L 489.951942 46.184576 
L 491.991229 53.109684 
L 494.030516 43.42237 
L 496.069804 62.164023 
L 498.109091 58.388983 
L 498.109091 58.388983 
" clip-path="url(#p78a661ab33)" style="fill: none; stroke: #ff0000; stroke-opacity: 0.9; stroke-width: 1.5; stroke-linecap: square"/>
   </g>
   <g id="line2d_14">
    <path d="M 92.290909 61.7882 
L 94.330196 106.106291 
L 96.369484 130.654567 
L 98.408771 104.644343 
L 100.448058 89.597037 
L 102.487346 107.46951 
L 104.526633 98.438011 
L 106.565921 67.970804 
L 108.605208 115.76849 
L 110.644495 45.174175 
L 112.683783 81.942428 
L 114.72307 123.827801 
L 116.762357 122.791499 
L 118.801645 111.655594 
L 120.840932 68.127567 
L 122.880219 116.909556 
L 124.919507 69.952453 
L 126.958794 66.602338 
L 128.998081 88.139817 
L 131.037369 64.778889 
L 133.076656 52.678296 
L 135.115943 53.062632 
L 137.155231 108.581159 
L 139.194518 108.315126 
L 141.233805 126.007292 
L 143.273093 122.271619 
L 145.31238 120.791308 
L 147.351667 116.749478 
L 149.390955 117.730036 
L 151.430242 110.088537 
L 153.469529 107.743639 
L 155.508817 112.524498 
L 157.548104 128.412977 
L 159.587392 109.677283 
L 161.626679 121.973189 
L 163.665966 98.350114 
L 165.705254 94.347073 
L 167.744541 111.722571 
L 169.783828 47.748619 
L 171.823116 54.7931 
L 173.862403 75.172807 
L 175.90169 48.286716 
L 177.940978 42.476235 
L 179.980265 70.644836 
L 182.019552 67.259695 
L 184.05884 70.761451 
L 186.098127 64.734729 
L 188.137414 56.784264 
L 190.176702 66.962033 
L 192.215989 60.654087 
L 194.255276 48.756742 
L 196.294564 69.189327 
L 198.333851 75.485057 
L 200.373138 96.871234 
L 202.412426 71.183049 
L 204.451713 53.605006 
L 206.491 44.72571 
L 208.530288 76.568906 
L 210.569575 56.948355 
L 212.608862 110.768102 
L 214.64815 108.721097 
L 216.687437 93.409399 
L 218.726725 92.404205 
L 220.766012 109.75889 
L 222.805299 121.926888 
L 224.844587 121.445749 
L 226.883874 67.934597 
L 228.923161 59.718046 
L 230.962449 80.106249 
L 233.001736 73.505351 
L 235.041023 41.510802 
L 237.080311 60.343536 
L 239.119598 52.689934 
L 241.158885 74.865315 
L 243.198173 50.664232 
L 245.23746 84.539408 
L 247.276747 49.975271 
L 249.316035 99.174393 
L 251.355322 74.947864 
L 253.394609 112.48621 
L 257.473184 69.142931 
L 259.512471 64.827299 
L 261.551759 57.878582 
L 263.591046 69.361233 
L 265.630333 67.291788 
L 267.669621 60.095412 
L 269.708908 49.7165 
L 271.748196 41.708413 
L 273.787483 59.776127 
L 275.82677 49.602326 
L 277.866058 66.277473 
L 279.905345 56.493656 
L 281.944632 78.229762 
L 283.98392 65.128615 
L 286.023207 59.826225 
L 288.062494 54.139535 
L 290.101782 68.777017 
L 292.141069 74.983307 
L 294.180356 53.037932 
L 296.219644 43.17043 
L 298.258931 80.815635 
L 300.298218 56.964565 
L 302.337506 62.932831 
L 304.376793 59.405826 
L 306.41608 44.563489 
L 308.455368 47.0707 
L 310.494655 50.971533 
L 312.533942 58.046798 
L 314.57323 72.677299 
L 316.612517 40.103075 
L 318.651804 55.593494 
L 320.691092 45.643641 
L 322.730379 42.365627 
L 324.769667 55.822051 
L 326.808954 63.107438 
L 328.848241 46.48074 
L 330.887529 44.955491 
L 332.926816 49.23265 
L 334.966103 45.106161 
L 337.005391 55.716113 
L 339.044678 46.964095 
L 341.083965 49.50418 
L 343.123253 52.255882 
L 345.16254 47.97908 
L 347.201827 53.574469 
L 349.241115 53.65709 
L 351.280402 41.858806 
L 353.319689 52.365349 
L 355.358977 54.680479 
L 357.398264 64.636959 
L 359.437551 82.602598 
L 361.476839 49.643448 
L 363.516126 56.944163 
L 365.555413 45.033864 
L 367.594701 69.470873 
L 369.633988 53.34419 
L 371.673275 59.845303 
L 373.712563 52.64922 
L 375.75185 68.622347 
L 377.791138 51.713388 
L 379.830425 91.692918 
L 381.869712 66.885441 
L 383.909 69.793186 
L 385.948287 101.186627 
L 387.987574 72.787356 
L 390.026862 78.66292 
L 392.066149 62.317632 
L 394.105436 63.852637 
L 396.144724 98.917261 
L 398.184011 83.995645 
L 400.223298 84.761669 
L 402.262586 56.862342 
L 404.301873 81.057749 
L 406.34116 72.92838 
L 408.380448 68.224847 
L 410.419735 50.096704 
L 412.459022 69.033696 
L 414.49831 106.900503 
L 416.537597 78.709876 
L 418.576884 115.523729 
L 420.616172 100.5332 
L 422.655459 83.811648 
L 424.694746 79.384176 
L 426.734034 65.926011 
L 428.773321 66.487905 
L 430.812608 62.754206 
L 432.851896 60.52677 
L 434.891183 68.895791 
L 436.930471 59.144115 
L 438.969758 60.692726 
L 441.009045 71.70969 
L 443.048333 47.028907 
L 445.08762 61.841327 
L 447.126907 69.705945 
L 449.166195 66.291275 
L 451.205482 56.136429 
L 453.244769 63.602481 
L 455.284057 62.705401 
L 457.323344 55.835763 
L 459.362631 52.219216 
L 461.401919 58.5282 
L 463.441206 60.508681 
L 465.480493 62.798962 
L 467.519781 60.030827 
L 469.559068 53.632652 
L 471.598355 67.540096 
L 473.637643 68.331894 
L 475.67693 71.741807 
L 477.716217 49.839166 
L 479.755505 65.006861 
L 481.794792 60.184495 
L 483.834079 62.147377 
L 485.873367 68.091324 
L 487.912654 66.645562 
L 489.951942 46.216836 
L 491.991229 52.961059 
L 494.030516 43.429747 
L 496.069804 62.07259 
L 498.109091 58.163771 
L 498.109091 58.163771 
" clip-path="url(#p78a661ab33)" style="fill: none; stroke: #ff0000; stroke-opacity: 0.9; stroke-width: 1.5; stroke-linecap: square"/>
   </g>
   <g id="line2d_15">
    <path d="M 92.290909 61.759029 
L 94.330196 105.879845 
L 96.369484 130.705673 
L 98.408771 104.59053 
L 100.448058 89.455752 
L 102.487346 107.575465 
L 104.526633 98.503139 
L 106.565921 67.878102 
L 108.605208 115.820705 
L 110.644495 45.235019 
L 112.683783 82.0831 
L 114.72307 123.801211 
L 116.762357 122.742981 
L 118.801645 111.497723 
L 120.840932 68.205024 
L 122.880219 116.946353 
L 124.919507 69.827116 
L 126.958794 66.418312 
L 128.998081 88.297003 
L 131.037369 64.793471 
L 133.076656 52.663564 
L 135.115943 53.046111 
L 137.155231 108.70308 
L 139.194518 108.187731 
L 141.233805 126.182262 
L 143.273093 122.315236 
L 145.31238 120.898408 
L 147.351667 116.922279 
L 149.390955 117.612718 
L 151.430242 110.011283 
L 153.469529 107.579352 
L 155.508817 112.405724 
L 157.548104 128.473598 
L 159.587392 109.79614 
L 161.626679 122.050014 
L 163.665966 98.399652 
L 165.705254 94.232484 
L 167.744541 111.688194 
L 169.783828 47.688985 
L 171.823116 54.919826 
L 173.862403 75.182287 
L 175.90169 48.069538 
L 177.940978 42.288676 
L 179.980265 70.655353 
L 182.019552 67.287591 
L 184.05884 70.897371 
L 186.098127 64.782007 
L 188.137414 56.760482 
L 190.176702 66.882692 
L 192.215989 60.662129 
L 194.255276 48.607754 
L 196.294564 69.145155 
L 198.333851 75.597404 
L 200.373138 96.827265 
L 202.412426 71.152625 
L 204.451713 53.289841 
L 206.491 44.567513 
L 208.530288 76.496415 
L 210.569575 56.975911 
L 212.608862 110.725724 
L 214.64815 108.946446 
L 216.687437 93.47061 
L 218.726725 92.385175 
L 220.766012 109.721557 
L 222.805299 122.03592 
L 224.844587 121.308076 
L 226.883874 68.07283 
L 228.923161 59.732051 
L 230.962449 80.253557 
L 233.001736 73.354067 
L 235.041023 41.543688 
L 237.080311 60.524933 
L 239.119598 52.574803 
L 241.158885 75.016444 
L 243.198173 50.71799 
L 245.23746 84.634275 
L 247.276747 50.108431 
L 249.316035 99.083414 
L 251.355322 74.958017 
L 253.394609 112.303251 
L 257.473184 69.138668 
L 259.512471 64.810063 
L 261.551759 57.798132 
L 263.591046 69.248409 
L 265.630333 67.172424 
L 267.669621 59.974981 
L 269.708908 49.752957 
L 271.748196 41.824799 
L 273.787483 59.861025 
L 275.82677 49.785348 
L 277.866058 66.346941 
L 279.905345 56.557252 
L 281.944632 78.23694 
L 283.98392 64.954032 
L 288.062494 54.14542 
L 290.101782 68.780118 
L 292.141069 74.902744 
L 294.180356 53.174573 
L 296.219644 43.25551 
L 298.258931 80.820029 
L 300.298218 57.083452 
L 302.337506 62.726411 
L 304.376793 59.530359 
L 306.41608 44.627645 
L 308.455368 47.140571 
L 310.494655 50.95828 
L 312.533942 58.095632 
L 314.57323 72.613554 
L 316.612517 39.915471 
L 318.651804 55.619071 
L 320.691092 45.532171 
L 322.730379 42.251411 
L 324.769667 55.732539 
L 326.808954 63.098704 
L 328.848241 46.253373 
L 330.887529 44.863862 
L 332.926816 49.312132 
L 334.966103 44.917949 
L 337.005391 55.713144 
L 339.044678 46.893094 
L 343.123253 52.201038 
L 345.16254 48.070092 
L 347.201827 53.659266 
L 349.241115 53.611195 
L 351.280402 41.860976 
L 353.319689 52.525468 
L 355.358977 54.628437 
L 357.398264 64.624123 
L 359.437551 82.517569 
L 361.476839 49.613507 
L 363.516126 56.917764 
L 365.555413 45.107178 
L 367.594701 69.305679 
L 369.633988 53.383944 
L 371.673275 59.73065 
L 373.712563 52.618647 
L 375.75185 68.567801 
L 377.791138 51.717615 
L 379.830425 91.626114 
L 381.869712 66.864419 
L 383.909 69.842384 
L 385.948287 101.120342 
L 387.987574 72.708253 
L 390.026862 78.697017 
L 392.066149 62.347298 
L 394.105436 63.884194 
L 396.144724 98.890891 
L 398.184011 84.123075 
L 400.223298 84.745691 
L 402.262586 56.830773 
L 404.301873 81.187696 
L 406.34116 73.041716 
L 408.380448 68.167768 
L 410.419735 50.172796 
L 412.459022 69.104083 
L 414.49831 106.979594 
L 416.537597 78.73162 
L 418.576884 115.690258 
L 420.616172 100.466605 
L 422.655459 83.896414 
L 424.694746 79.360412 
L 426.734034 65.784356 
L 428.773321 66.524589 
L 430.812608 62.745203 
L 432.851896 60.600376 
L 434.891183 69.045662 
L 436.930471 59.006043 
L 438.969758 60.570095 
L 441.009045 71.595919 
L 443.048333 47.018146 
L 445.08762 61.954652 
L 447.126907 69.751554 
L 449.166195 66.316929 
L 451.205482 56.044485 
L 453.244769 63.646951 
L 455.284057 62.591087 
L 457.323344 55.868816 
L 459.362631 52.313218 
L 461.401919 58.433984 
L 465.480493 62.663113 
L 467.519781 60.074891 
L 469.559068 53.496231 
L 471.598355 67.354686 
L 473.637643 68.326916 
L 475.67693 71.907811 
L 477.716217 49.798792 
L 479.755505 65.051194 
L 481.794792 60.07947 
L 483.834079 62.288645 
L 485.873367 68.047546 
L 487.912654 66.878239 
L 489.951942 46.315497 
L 491.991229 52.812177 
L 494.030516 43.389063 
L 496.069804 62.284531 
L 498.109091 58.381644 
L 498.109091 58.381644 
" clip-path="url(#p78a661ab33)" style="fill: none; stroke: #ff0000; stroke-opacity: 0.9; stroke-width: 1.5; stroke-linecap: square"/>
   </g>
   <g id="line2d_16">
    <path d="M 92.290909 61.828354 
L 94.330196 106.018603 
L 96.369484 130.769465 
L 98.408771 104.711188 
L 100.448058 89.428267 
L 102.487346 107.472801 
L 104.526633 98.420173 
L 106.565921 67.793627 
L 108.605208 115.847856 
L 110.644495 45.193041 
L 112.683783 81.996413 
L 114.72307 123.889674 
L 116.762357 122.800299 
L 118.801645 111.450361 
L 120.840932 68.257137 
L 122.880219 116.978798 
L 124.919507 69.802326 
L 126.958794 66.426819 
L 128.998081 88.064738 
L 131.037369 64.658189 
L 133.076656 52.698418 
L 135.115943 53.053254 
L 137.155231 108.580646 
L 139.194518 108.305313 
L 141.233805 126.138907 
L 143.273093 122.283507 
L 145.31238 120.924151 
L 147.351667 116.804805 
L 149.390955 117.794115 
L 151.430242 110.077889 
L 153.469529 107.575489 
L 155.508817 112.428058 
L 157.548104 128.428645 
L 159.587392 109.786673 
L 161.626679 122.071286 
L 163.665966 98.538618 
L 165.705254 94.090394 
L 167.744541 111.818415 
L 169.783828 47.897423 
L 171.823116 54.813328 
L 173.862403 75.117153 
L 175.90169 48.163793 
L 177.940978 42.370414 
L 179.980265 70.579231 
L 182.019552 67.350429 
L 184.05884 70.911859 
L 186.098127 64.709217 
L 188.137414 56.932883 
L 190.176702 66.908996 
L 192.215989 60.73375 
L 194.255276 48.794809 
L 196.294564 69.26016 
L 198.333851 75.52998 
L 200.373138 96.884165 
L 202.412426 71.117438 
L 204.451713 53.461282 
L 206.491 44.909054 
L 208.530288 76.662884 
L 210.569575 56.778708 
L 212.608862 110.688248 
L 214.64815 108.868751 
L 216.687437 93.468392 
L 218.726725 92.477722 
L 220.766012 109.675185 
L 222.805299 121.95287 
L 224.844587 121.341248 
L 226.883874 67.999946 
L 228.923161 59.839634 
L 230.962449 80.208497 
L 233.001736 73.354842 
L 235.041023 41.501219 
L 237.080311 60.500931 
L 239.119598 52.402867 
L 241.158885 74.917792 
L 243.198173 50.648641 
L 245.23746 84.492792 
L 247.276747 49.977191 
L 249.316035 99.197006 
L 251.355322 74.908056 
L 253.394609 112.470817 
L 257.473184 69.179704 
L 259.512471 64.751893 
L 261.551759 57.813037 
L 263.591046 69.275053 
L 265.630333 67.161472 
L 267.669621 60.046411 
L 269.708908 49.56851 
L 271.748196 41.839546 
L 273.787483 59.902389 
L 275.82677 49.686779 
L 277.866058 66.272107 
L 279.905345 56.497484 
L 281.944632 78.378506 
L 283.98392 64.943515 
L 286.023207 59.740385 
L 288.062494 54.132756 
L 290.101782 68.73399 
L 292.141069 74.841032 
L 294.180356 53.180511 
L 296.219644 43.191163 
L 298.258931 80.896014 
L 300.298218 56.989128 
L 302.337506 62.768008 
L 304.376793 59.415836 
L 306.41608 44.744335 
L 308.455368 47.080111 
L 310.494655 50.951913 
L 312.533942 58.085724 
L 314.57323 72.763467 
L 316.612517 39.944672 
L 318.651804 55.730476 
L 320.691092 45.700667 
L 322.730379 42.38167 
L 324.769667 55.807862 
L 326.808954 63.125932 
L 328.848241 46.230342 
L 330.887529 45.036591 
L 332.926816 49.22682 
L 334.966103 44.924063 
L 337.005391 55.677629 
L 339.044678 46.880431 
L 341.083965 49.427895 
L 343.123253 52.185984 
L 345.16254 48.001408 
L 347.201827 53.674856 
L 349.241115 53.677599 
L 351.280402 41.881691 
L 353.319689 52.439795 
L 355.358977 54.549543 
L 357.398264 64.449844 
L 359.437551 82.451827 
L 361.476839 49.733432 
L 363.516126 56.672562 
L 365.555413 45.025183 
L 367.594701 69.400176 
L 369.633988 53.351177 
L 371.673275 59.752208 
L 373.712563 52.580378 
L 375.75185 68.494118 
L 377.791138 51.734225 
L 379.830425 91.616897 
L 381.869712 66.828439 
L 383.909 69.617614 
L 385.948287 101.114213 
L 387.987574 72.834324 
L 390.026862 78.487371 
L 392.066149 62.331398 
L 394.105436 63.651023 
L 396.144724 99.048202 
L 398.184011 84.051866 
L 400.223298 84.690323 
L 402.262586 56.811976 
L 404.301873 81.135529 
L 406.34116 73.030311 
L 408.380448 68.115327 
L 410.419735 50.233953 
L 412.459022 69.106974 
L 414.49831 106.967945 
L 416.537597 78.714467 
L 418.576884 115.553122 
L 420.616172 100.594321 
L 422.655459 84.002239 
L 424.694746 79.3886 
L 426.734034 65.985505 
L 428.773321 66.511807 
L 430.812608 62.821271 
L 432.851896 60.608621 
L 434.891183 69.070726 
L 436.930471 58.992139 
L 438.969758 60.751582 
L 441.009045 71.633264 
L 443.048333 46.916626 
L 445.08762 61.927334 
L 447.126907 69.825864 
L 449.166195 66.28771 
L 451.205482 56.026515 
L 453.244769 63.60353 
L 455.284057 62.614202 
L 457.323344 55.769371 
L 459.362631 52.245108 
L 461.401919 58.474948 
L 463.441206 60.497008 
L 465.480493 62.677172 
L 467.519781 60.023947 
L 469.559068 53.703569 
L 471.598355 67.545098 
L 473.637643 68.310985 
L 475.67693 71.795685 
L 477.716217 49.853511 
L 479.755505 64.909198 
L 481.794792 60.119129 
L 483.834079 62.432446 
L 485.873367 68.027418 
L 487.912654 66.791272 
L 489.951942 46.327364 
L 491.991229 53.04471 
L 494.030516 43.366888 
L 496.069804 62.243179 
L 498.109091 58.339553 
L 498.109091 58.339553 
" clip-path="url(#p78a661ab33)" style="fill: none; stroke: #ff0000; stroke-opacity: 0.9; stroke-width: 1.5; stroke-linecap: square"/>
   </g>
   <g id="line2d_17">
    <path d="M 92.290909 61.816001 
L 94.330196 106.100281 
L 96.369484 130.778182 
L 98.408771 104.593595 
L 100.448058 89.495017 
L 102.487346 107.436934 
L 104.526633 98.575231 
L 106.565921 67.860544 
L 108.605208 115.769719 
L 110.644495 45.089396 
L 112.683783 81.947102 
L 114.72307 123.834157 
L 116.762357 122.899458 
L 118.801645 111.562088 
L 120.840932 68.418509 
L 122.880219 116.96586 
L 124.919507 69.827002 
L 126.958794 66.474366 
L 128.998081 88.139155 
L 131.037369 64.832427 
L 133.076656 52.58126 
L 135.115943 52.982003 
L 137.155231 108.69093 
L 139.194518 108.419209 
L 141.233805 126.086263 
L 143.273093 122.29307 
L 145.31238 120.867632 
L 147.351667 116.962319 
L 149.390955 117.713653 
L 151.430242 109.977383 
L 153.469529 107.656321 
L 155.508817 112.534848 
L 157.548104 128.482112 
L 159.587392 109.846376 
L 161.626679 122.068329 
L 163.665966 98.532835 
L 165.705254 94.154801 
L 167.744541 111.809114 
L 169.783828 47.652316 
L 171.823116 54.887453 
L 173.862403 74.950773 
L 175.90169 48.004368 
L 177.940978 42.340712 
L 179.980265 70.47817 
L 182.019552 67.303968 
L 184.05884 70.944387 
L 186.098127 64.932903 
L 188.137414 56.874409 
L 190.176702 66.986567 
L 192.215989 60.619144 
L 194.255276 48.622417 
L 196.294564 69.26673 
L 198.333851 75.496725 
L 200.373138 96.734306 
L 202.412426 71.049573 
L 204.451713 53.406874 
L 206.491 44.574408 
L 208.530288 76.62753 
L 210.569575 56.84287 
L 212.608862 110.828186 
L 214.64815 108.892336 
L 216.687437 93.526205 
L 218.726725 92.399132 
L 220.766012 109.687896 
L 222.805299 122.172913 
L 224.844587 121.408582 
L 226.883874 67.863328 
L 228.923161 59.818057 
L 230.962449 80.231814 
L 233.001736 73.369801 
L 235.041023 41.544055 
L 237.080311 60.457963 
L 239.119598 52.550645 
L 241.158885 74.724238 
L 243.198173 50.684329 
L 245.23746 84.598855 
L 247.276747 49.903424 
L 249.316035 99.136755 
L 251.355322 74.970555 
L 253.394609 112.346272 
L 257.473184 69.11265 
L 259.512471 64.798313 
L 261.551759 57.802478 
L 263.591046 69.304135 
L 265.630333 67.281372 
L 267.669621 60.132018 
L 269.708908 49.627035 
L 271.748196 41.730872 
L 273.787483 59.836521 
L 275.82677 49.646524 
L 277.866058 66.287531 
L 279.905345 56.60242 
L 281.944632 78.20037 
L 283.98392 64.870583 
L 286.023207 59.911558 
L 288.062494 54.09361 
L 290.101782 68.723891 
L 292.141069 74.824976 
L 294.180356 53.163412 
L 296.219644 43.172186 
L 298.258931 80.917239 
L 300.298218 56.936675 
L 302.337506 62.710749 
L 304.376793 59.428207 
L 306.41608 44.565334 
L 308.455368 47.193435 
L 310.494655 51.058083 
L 312.533942 58.124291 
L 314.57323 72.619284 
L 316.612517 39.899049 
L 318.651804 55.763541 
L 320.691092 45.60383 
L 322.730379 42.154545 
L 324.769667 55.763582 
L 326.808954 62.951987 
L 328.848241 46.29392 
L 330.887529 44.964306 
L 332.926816 49.348404 
L 334.966103 45.0661 
L 337.005391 55.678923 
L 339.044678 46.818937 
L 341.083965 49.594516 
L 343.123253 52.106977 
L 345.16254 48.137972 
L 347.201827 53.655248 
L 349.241115 53.819034 
L 351.280402 41.800779 
L 353.319689 52.281983 
L 355.358977 54.682363 
L 357.398264 64.458161 
L 359.437551 82.433226 
L 361.476839 49.592757 
L 363.516126 56.901863 
L 365.555413 45.061241 
L 367.594701 69.272698 
L 369.633988 53.543956 
L 371.673275 59.855957 
L 373.712563 52.726963 
L 375.75185 68.523379 
L 377.791138 51.775958 
L 379.830425 91.569255 
L 381.869712 66.974041 
L 383.909 69.697104 
L 385.948287 101.14202 
L 387.987574 72.725597 
L 390.026862 78.570069 
L 392.066149 62.3254 
L 394.105436 63.761575 
L 396.144724 98.910899 
L 398.184011 83.891013 
L 400.223298 84.735908 
L 402.262586 56.788652 
L 404.301873 81.226186 
L 406.34116 73.046778 
L 408.380448 68.187502 
L 410.419735 50.105796 
L 412.459022 69.245106 
L 414.49831 107.0338 
L 416.537597 78.658723 
L 418.576884 115.640869 
L 420.616172 100.4887 
L 422.655459 83.974897 
L 424.694746 79.441447 
L 426.734034 65.870249 
L 428.773321 66.587696 
L 430.812608 62.819781 
L 432.851896 60.63703 
L 434.891183 69.036349 
L 436.930471 58.791753 
L 438.969758 60.783604 
L 441.009045 71.53398 
L 443.048333 46.881343 
L 445.08762 61.829147 
L 447.126907 69.671772 
L 449.166195 66.352432 
L 451.205482 55.994589 
L 453.244769 63.597371 
L 455.284057 62.624814 
L 457.323344 55.798758 
L 459.362631 52.150946 
L 461.401919 58.413016 
L 463.441206 60.730238 
L 465.480493 62.711703 
L 467.519781 60.090583 
L 469.559068 53.587741 
L 471.598355 67.494136 
L 473.637643 68.134012 
L 475.67693 71.972373 
L 477.716217 49.911234 
L 479.755505 64.951892 
L 481.794792 60.101786 
L 483.834079 62.292931 
L 485.873367 68.120311 
L 487.912654 66.681722 
L 489.951942 46.303003 
L 491.991229 52.868553 
L 494.030516 43.333051 
L 496.069804 62.173252 
L 498.109091 58.216302 
L 498.109091 58.216302 
" clip-path="url(#p78a661ab33)" style="fill: none; stroke: #ff0000; stroke-opacity: 0.9; stroke-width: 1.5; stroke-linecap: square"/>
   </g>
   <g id="line2d_18">
    <path d="M 92.290909 112.417779 
L 94.330196 100.88084 
L 96.369484 120.772039 
L 98.408771 101.053533 
L 100.448058 91.664557 
L 102.487346 104.958775 
L 104.526633 99.108495 
L 106.565921 66.523969 
L 108.605208 112.81067 
L 110.644495 46.191369 
L 112.683783 80.992109 
L 114.72307 119.419551 
L 116.762357 121.6382 
L 118.801645 112.806783 
L 120.840932 69.472172 
L 122.880219 112.718094 
L 124.919507 67.968389 
L 126.958794 63.506619 
L 128.998081 85.237288 
L 131.037369 63.378497 
L 133.076656 49.894821 
L 135.115943 52.205015 
L 137.155231 105.284058 
L 139.194518 109.473719 
L 141.233805 125.576995 
L 143.273093 121.604348 
L 145.31238 121.725876 
L 147.351667 113.609044 
L 149.390955 118.421322 
L 151.430242 109.511244 
L 153.469529 107.946106 
L 155.508817 114.851915 
L 157.548104 128.645445 
L 159.587392 109.842954 
L 161.626679 124.011989 
L 163.665966 95.94478 
L 165.705254 95.100035 
L 167.744541 113.14455 
L 169.783828 49.831821 
L 171.823116 54.399398 
L 173.862403 74.848753 
L 175.90169 50.606431 
L 177.940978 43.072875 
L 179.980265 68.725632 
L 182.019552 64.142339 
L 184.05884 70.588853 
L 186.098127 65.728391 
L 188.137414 59.33399 
L 190.176702 68.376686 
L 192.215989 61.335422 
L 194.255276 47.592375 
L 196.294564 68.657761 
L 198.333851 74.672751 
L 200.373138 92.810779 
L 202.412426 70.949538 
L 204.451713 52.270757 
L 206.491 42.315415 
L 208.530288 73.078519 
L 210.569575 57.870552 
L 212.608862 111.823506 
L 214.64815 106.040972 
L 216.687437 93.793216 
L 218.726725 92.39912 
L 220.766012 109.402415 
L 222.805299 121.193869 
L 224.844587 120.270474 
L 226.883874 69.828201 
L 228.923161 58.113882 
L 230.962449 79.022544 
L 233.001736 73.354145 
L 235.041023 43.789255 
L 237.080311 58.951557 
L 239.119598 51.547545 
L 241.158885 74.107834 
L 243.198173 52.067306 
L 245.23746 81.116331 
L 247.276747 50.134359 
L 249.316035 102.052621 
L 251.355322 76.922794 
L 253.394609 110.949225 
L 257.473184 71.887773 
L 259.512471 65.255324 
L 261.551759 56.861179 
L 263.591046 68.530527 
L 265.630333 63.820073 
L 267.669621 60.575002 
L 269.708908 48.400514 
L 271.748196 39.141818 
L 273.787483 61.828169 
L 275.82677 49.490727 
L 277.866058 65.350804 
L 279.905345 53.917686 
L 281.944632 81.772966 
L 283.98392 64.407693 
L 286.023207 62.787438 
L 288.062494 52.866359 
L 290.101782 67.065491 
L 292.141069 75.101497 
L 294.180356 54.070675 
L 296.219644 41.292965 
L 298.258931 78.782189 
L 300.298218 55.184834 
L 302.337506 60.467377 
L 304.376793 58.00395 
L 306.41608 44.610469 
L 308.455368 45.36157 
L 310.494655 56.309379 
L 312.533942 60.701204 
L 314.57323 72.452898 
L 316.612517 40.233811 
L 318.651804 56.540237 
L 320.691092 46.081855 
L 322.730379 42.021394 
L 326.808954 62.700781 
L 328.848241 45.915231 
L 332.926816 47.558282 
L 334.966103 45.812238 
L 337.005391 56.223807 
L 339.044678 40.664468 
L 341.083965 50.062071 
L 343.123253 56.258589 
L 345.16254 48.649511 
L 347.201827 52.526297 
L 349.241115 54.527168 
L 351.280402 41.044878 
L 353.319689 58.383176 
L 355.358977 57.664472 
L 357.398264 64.782174 
L 359.437551 83.240566 
L 361.476839 47.644434 
L 363.516126 55.880925 
L 365.555413 45.752634 
L 367.594701 69.965748 
L 369.633988 52.926748 
L 371.673275 62.299788 
L 373.712563 51.787942 
L 375.75185 68.308308 
L 377.791138 49.911938 
L 379.830425 94.189374 
L 381.869712 66.362281 
L 383.909 72.427232 
L 385.948287 100.24147 
L 387.987574 72.246735 
L 390.026862 80.193914 
L 392.066149 62.057811 
L 394.105436 66.746009 
L 396.144724 101.144393 
L 398.184011 83.548733 
L 400.223298 83.818456 
L 402.262586 58.951861 
L 404.301873 80.05599 
L 406.34116 68.345123 
L 408.380448 69.27435 
L 410.419735 46.924162 
L 412.459022 68.682962 
L 414.49831 105.411082 
L 416.537597 78.602073 
L 418.576884 113.177794 
L 420.616172 106.027737 
L 422.655459 86.265255 
L 424.694746 81.183475 
L 426.734034 61.490629 
L 428.773321 66.146471 
L 430.812608 64.523569 
L 432.851896 63.553486 
L 434.891183 71.058671 
L 436.930471 59.989391 
L 438.969758 59.962348 
L 441.009045 71.135348 
L 443.048333 47.782453 
L 445.08762 60.197808 
L 447.126907 69.583332 
L 449.166195 66.427505 
L 451.205482 56.331229 
L 453.244769 64.293474 
L 455.284057 62.284936 
L 457.323344 52.900611 
L 459.362631 49.749153 
L 461.401919 60.25859 
L 463.441206 60.200587 
L 465.480493 62.400496 
L 467.519781 54.672716 
L 469.559068 56.012284 
L 471.598355 67.868592 
L 473.637643 67.986961 
L 475.67693 70.361358 
L 477.716217 49.977859 
L 479.755505 65.021378 
L 481.794792 57.731734 
L 483.834079 61.515597 
L 485.873367 66.284806 
L 487.912654 66.891814 
L 489.951942 46.404565 
L 491.991229 49.608323 
L 494.030516 43.749545 
L 496.069804 64.386039 
L 498.109091 58.650461 
L 498.109091 58.650461 
" clip-path="url(#p78a661ab33)" style="fill: none; stroke: #008000; stroke-opacity: 0.9; stroke-width: 1.5; stroke-linecap: square"/>
   </g>
   <g id="line2d_19">
    <path d="M 153.469529 135.36 
L 153.469529 34.56 
" clip-path="url(#p78a661ab33)" style="fill: none; stroke-dasharray: 5.55,2.4; stroke-dashoffset: 0; stroke: #000000; stroke-width: 1.5"/>
   </g>
   <g id="line2d_20">
    <path d="M 438.969758 135.36 
L 438.969758 34.56 
" clip-path="url(#p78a661ab33)" style="fill: none; stroke-dasharray: 5.55,2.4; stroke-dashoffset: 0; stroke: #0000ff; stroke-width: 1.5"/>
   </g>
   <g id="patch_3">
    <path d="M 72 135.36 
L 72 34.56 
" style="fill: none; stroke: #000000; stroke-width: 0.8; stroke-linejoin: miter; stroke-linecap: square"/>
   </g>
   <g id="patch_4">
    <path d="M 518.4 135.36 
L 518.4 34.56 
" style="fill: none; stroke: #000000; stroke-width: 0.8; stroke-linejoin: miter; stroke-linecap: square"/>
   </g>
   <g id="patch_5">
    <path d="M 72 135.36 
L 518.4 135.36 
" style="fill: none; stroke: #000000; stroke-width: 0.8; stroke-linejoin: miter; stroke-linecap: square"/>
   </g>
   <g id="patch_6">
    <path d="M 72 34.56 
L 518.4 34.56 
" style="fill: none; stroke: #000000; stroke-width: 0.8; stroke-linejoin: miter; stroke-linecap: square"/>
   </g>
  </g>
  <g id="axes_2">
   <g id="patch_7">
    <path d="M 72 256.32 
L 518.4 256.32 
L 518.4 155.52 
L 72 155.52 
z
" style="fill: #ffffff"/>
   </g>
   <g id="matplotlib.axis_3">
    <g id="xtick_10">
     <g id="line2d_21">
      <g>
       <use xlink:href="#mc06e2d13c9" x="92.290909" y="256.32" style="stroke: #000000; stroke-width: 0.8"/>
      </g>
     </g>
     <g id="text_4">
      <!-- 0 -->
      <g transform="translate(89.109659 270.918437) scale(0.1 -0.1)">
       <use xlink:href="#DejaVuSans-30"/>
      </g>
     </g>
    </g>
    <g id="xtick_11">
     <g id="line2d_22">
      <g>
       <use xlink:href="#mc06e2d13c9" x="143.273093" y="256.32" style="stroke: #000000; stroke-width: 0.8"/>
      </g>
     </g>
     <g id="text_5">
      <!-- 25 -->
      <g transform="translate(136.910593 270.918437) scale(0.1 -0.1)">
       <defs>
        <path id="DejaVuSans-32" d="M 1228 531 
L 3431 531 
L 3431 0 
L 469 0 
L 469 531 
Q 828 903 1448 1529 
Q 2069 2156 2228 2338 
Q 2531 2678 2651 2914 
Q 2772 3150 2772 3378 
Q 2772 3750 2511 3984 
Q 2250 4219 1831 4219 
Q 1534 4219 1204 4116 
Q 875 4013 500 3803 
L 500 4441 
Q 881 4594 1212 4672 
Q 1544 4750 1819 4750 
Q 2544 4750 2975 4387 
Q 3406 4025 3406 3419 
Q 3406 3131 3298 2873 
Q 3191 2616 2906 2266 
Q 2828 2175 2409 1742 
Q 1991 1309 1228 531 
z
" transform="scale(0.015625)"/>
       </defs>
       <use xlink:href="#DejaVuSans-32"/>
       <use xlink:href="#DejaVuSans-35" transform="translate(63.623047 0)"/>
      </g>
     </g>
    </g>
    <g id="xtick_12">
     <g id="line2d_23">
      <g>
       <use xlink:href="#mc06e2d13c9" x="194.255276" y="256.32" style="stroke: #000000; stroke-width: 0.8"/>
      </g>
     </g>
     <g id="text_6">
      <!-- 50 -->
      <g transform="translate(187.892776 270.918437) scale(0.1 -0.1)">
       <use xlink:href="#DejaVuSans-35"/>
       <use xlink:href="#DejaVuSans-30" transform="translate(63.623047 0)"/>
      </g>
     </g>
    </g>
    <g id="xtick_13">
     <g id="line2d_24">
      <g>
       <use xlink:href="#mc06e2d13c9" x="245.23746" y="256.32" style="stroke: #000000; stroke-width: 0.8"/>
      </g>
     </g>
     <g id="text_7">
      <!-- 75 -->
      <g transform="translate(238.87496 270.918437) scale(0.1 -0.1)">
       <defs>
        <path id="DejaVuSans-37" d="M 525 4666 
L 3525 4666 
L 3525 4397 
L 1831 0 
L 1172 0 
L 2766 4134 
L 525 4134 
L 525 4666 
z
" transform="scale(0.015625)"/>
       </defs>
       <use xlink:href="#DejaVuSans-37"/>
       <use xlink:href="#DejaVuSans-35" transform="translate(63.623047 0)"/>
      </g>
     </g>
    </g>
    <g id="xtick_14">
     <g id="line2d_25">
      <g>
       <use xlink:href="#mc06e2d13c9" x="296.219644" y="256.32" style="stroke: #000000; stroke-width: 0.8"/>
      </g>
     </g>
     <g id="text_8">
      <!-- 100 -->
      <g transform="translate(286.675894 270.918437) scale(0.1 -0.1)">
       <use xlink:href="#DejaVuSans-31"/>
       <use xlink:href="#DejaVuSans-30" transform="translate(63.623047 0)"/>
       <use xlink:href="#DejaVuSans-30" transform="translate(127.246094 0)"/>
      </g>
     </g>
    </g>
    <g id="xtick_15">
     <g id="line2d_26">
      <g>
       <use xlink:href="#mc06e2d13c9" x="347.201827" y="256.32" style="stroke: #000000; stroke-width: 0.8"/>
      </g>
     </g>
     <g id="text_9">
      <!-- 125 -->
      <g transform="translate(337.658077 270.918437) scale(0.1 -0.1)">
       <use xlink:href="#DejaVuSans-31"/>
       <use xlink:href="#DejaVuSans-32" transform="translate(63.623047 0)"/>
       <use xlink:href="#DejaVuSans-35" transform="translate(127.246094 0)"/>
      </g>
     </g>
    </g>
    <g id="xtick_16">
     <g id="line2d_27">
      <g>
       <use xlink:href="#mc06e2d13c9" x="398.184011" y="256.32" style="stroke: #000000; stroke-width: 0.8"/>
      </g>
     </g>
     <g id="text_10">
      <!-- 150 -->
      <g transform="translate(388.640261 270.918437) scale(0.1 -0.1)">
       <use xlink:href="#DejaVuSans-31"/>
       <use xlink:href="#DejaVuSans-35" transform="translate(63.623047 0)"/>
       <use xlink:href="#DejaVuSans-30" transform="translate(127.246094 0)"/>
      </g>
     </g>
    </g>
    <g id="xtick_17">
     <g id="line2d_28">
      <g>
       <use xlink:href="#mc06e2d13c9" x="449.166195" y="256.32" style="stroke: #000000; stroke-width: 0.8"/>
      </g>
     </g>
     <g id="text_11">
      <!-- 175 -->
      <g transform="translate(439.622445 270.918437) scale(0.1 -0.1)">
       <use xlink:href="#DejaVuSans-31"/>
       <use xlink:href="#DejaVuSans-37" transform="translate(63.623047 0)"/>
       <use xlink:href="#DejaVuSans-35" transform="translate(127.246094 0)"/>
      </g>
     </g>
    </g>
    <g id="xtick_18">
     <g id="line2d_29">
      <g>
       <use xlink:href="#mc06e2d13c9" x="500.148378" y="256.32" style="stroke: #000000; stroke-width: 0.8"/>
      </g>
     </g>
     <g id="text_12">
      <!-- 200 -->
      <g transform="translate(490.604628 270.918437) scale(0.1 -0.1)">
       <use xlink:href="#DejaVuSans-32"/>
       <use xlink:href="#DejaVuSans-30" transform="translate(63.623047 0)"/>
       <use xlink:href="#DejaVuSans-30" transform="translate(127.246094 0)"/>
      </g>
     </g>
    </g>
   </g>
   <g id="matplotlib.axis_4">
    <g id="ytick_4">
     <g id="line2d_30">
      <g>
       <use xlink:href="#m6f45f5c51e" x="72" y="254.086775" style="stroke: #000000; stroke-width: 0.8"/>
      </g>
     </g>
     <g id="text_13">
      <!-- −200 -->
      <g transform="translate(37.532812 257.885994) scale(0.1 -0.1)">
       <use xlink:href="#DejaVuSans-2212"/>
       <use xlink:href="#DejaVuSans-32" transform="translate(83.789062 0)"/>
       <use xlink:href="#DejaVuSans-30" transform="translate(147.412109 0)"/>
       <use xlink:href="#DejaVuSans-30" transform="translate(211.035156 0)"/>
      </g>
     </g>
    </g>
    <g id="ytick_5">
     <g id="line2d_31">
      <g>
       <use xlink:href="#m6f45f5c51e" x="72" y="229.399993" style="stroke: #000000; stroke-width: 0.8"/>
      </g>
     </g>
     <g id="text_14">
      <!-- −100 -->
      <g transform="translate(37.532812 233.199211) scale(0.1 -0.1)">
       <use xlink:href="#DejaVuSans-2212"/>
       <use xlink:href="#DejaVuSans-31" transform="translate(83.789062 0)"/>
       <use xlink:href="#DejaVuSans-30" transform="translate(147.412109 0)"/>
       <use xlink:href="#DejaVuSans-30" transform="translate(211.035156 0)"/>
      </g>
     </g>
    </g>
    <g id="ytick_6">
     <g id="line2d_32">
      <g>
       <use xlink:href="#m6f45f5c51e" x="72" y="204.71321" style="stroke: #000000; stroke-width: 0.8"/>
      </g>
     </g>
     <g id="text_15">
      <!-- 0 -->
      <g transform="translate(58.6375 208.512429) scale(0.1 -0.1)">
       <use xlink:href="#DejaVuSans-30"/>
      </g>
     </g>
    </g>
    <g id="ytick_7">
     <g id="line2d_33">
      <g>
       <use xlink:href="#m6f45f5c51e" x="72" y="180.026428" style="stroke: #000000; stroke-width: 0.8"/>
      </g>
     </g>
     <g id="text_16">
      <!-- 100 -->
      <g transform="translate(45.9125 183.825646) scale(0.1 -0.1)">
       <use xlink:href="#DejaVuSans-31"/>
       <use xlink:href="#DejaVuSans-30" transform="translate(63.623047 0)"/>
       <use xlink:href="#DejaVuSans-30" transform="translate(127.246094 0)"/>
      </g>
     </g>
    </g>
   </g>
   <g id="line2d_34">
    <path d="M 92.290909 176.386787 
L 94.330196 169.865957 
L 96.369484 163.747435 
L 98.408771 163.583383 
L 100.448058 169.533272 
L 102.487346 166.048566 
L 104.526633 168.371363 
L 106.565921 162.477612 
L 108.605208 164.553022 
L 110.644495 175.409857 
L 112.683783 249.172472 
L 114.72307 161.715014 
L 116.762357 163.498564 
L 118.801645 169.968884 
L 120.840932 161.183262 
L 122.880219 167.860235 
L 124.919507 166.160593 
L 126.958794 180.212822 
L 128.998081 163.441035 
L 131.037369 167.21686 
L 133.076656 173.868583 
L 135.115943 167.789 
L 137.155231 165.78321 
L 139.194518 165.289937 
L 141.233805 167.477902 
L 143.273093 164.869931 
L 145.31238 161.316212 
L 147.351667 160.930665 
L 149.390955 164.023681 
L 151.430242 162.357708 
L 153.469529 164.086272 
L 155.508817 167.989832 
L 157.548104 163.652995 
L 159.587392 165.237879 
L 161.626679 168.28382 
L 163.665966 168.350777 
L 165.705254 250.298543 
L 167.744541 162.13398 
L 169.783828 168.136033 
L 171.823116 166.673631 
L 173.862403 166.882762 
L 175.90169 172.256499 
L 177.940978 170.752871 
L 179.980265 184.850478 
L 182.019552 169.470011 
L 184.05884 172.6667 
L 186.098127 187.869962 
L 188.137414 173.090943 
L 190.176702 174.114948 
L 192.215989 197.747855 
L 194.255276 193.056437 
L 196.294564 189.856739 
L 198.333851 188.140138 
L 200.373138 171.48874 
L 202.412426 164.527347 
L 204.451713 167.356487 
L 206.491 166.33525 
L 208.530288 174.47687 
L 210.569575 165.978991 
L 212.608862 163.495674 
L 214.64815 168.318167 
L 216.687437 161.329931 
L 218.726725 167.392062 
L 220.766012 166.578806 
L 222.805299 169.821726 
L 224.844587 162.443119 
L 226.883874 177.778904 
L 228.923161 186.769327 
L 230.962449 166.33247 
L 233.001736 170.988043 
L 235.041023 166.118476 
L 237.080311 166.39465 
L 239.119598 168.597566 
L 241.158885 164.767023 
L 243.198173 170.602809 
L 245.23746 162.144674 
L 247.276747 164.208998 
L 249.316035 164.714012 
L 251.355322 169.596718 
L 253.394609 165.588363 
L 255.433897 163.019651 
L 257.473184 169.49372 
L 259.512471 164.017485 
L 261.551759 161.996887 
L 263.591046 164.807574 
L 265.630333 167.919964 
L 267.669621 163.51368 
L 269.708908 164.979111 
L 271.748196 165.049402 
L 273.787483 166.531697 
L 275.82677 162.342056 
L 277.866058 250.887837 
L 279.905345 167.85011 
L 281.944632 164.370108 
L 283.98392 163.091663 
L 286.023207 169.74403 
L 288.062494 171.316683 
L 290.101782 169.543239 
L 292.141069 171.440026 
L 294.180356 167.027516 
L 296.219644 167.606685 
L 298.258931 174.217425 
L 300.298218 169.426533 
L 302.337506 164.232345 
L 304.376793 170.293324 
L 306.41608 163.883198 
L 308.455368 167.397999 
L 310.494655 167.708768 
L 312.533942 163.52387 
L 314.57323 250.858128 
L 316.612517 160.156107 
L 318.651804 162.281496 
L 320.691092 161.991022 
L 322.730379 165.591113 
L 326.808954 164.367894 
L 328.848241 166.766941 
L 330.887529 167.159863 
L 332.926816 163.649699 
L 334.966103 164.997562 
L 337.005391 160.92752 
L 339.044678 163.059147 
L 341.083965 162.687715 
L 343.123253 162.755885 
L 345.16254 164.997742 
L 347.201827 163.427595 
L 349.241115 251.724406 
L 351.280402 162.847435 
L 353.319689 163.759373 
L 355.358977 170.668854 
L 357.398264 167.587534 
L 359.437551 170.949605 
L 361.476839 166.392103 
L 363.516126 165.977119 
L 365.555413 169.966549 
L 367.594701 167.171257 
L 369.633988 170.28874 
L 371.673275 165.671476 
L 373.712563 171.839209 
L 375.75185 175.813017 
L 377.791138 173.931176 
L 379.830425 166.058514 
L 381.869712 178.44413 
L 383.909 171.164906 
L 387.987574 168.289949 
L 390.026862 172.182611 
L 392.066149 171.81976 
L 394.105436 171.775687 
L 396.144724 249.105696 
L 398.184011 164.631675 
L 400.223298 170.96088 
L 402.262586 170.828627 
L 404.301873 170.185203 
L 406.34116 167.4155 
L 408.380448 172.521064 
L 410.419735 166.439333 
L 412.459022 171.644155 
L 414.49831 164.951327 
L 416.537597 166.84325 
L 418.576884 160.800319 
L 420.616172 168.347688 
L 422.655459 167.314999 
L 424.694746 171.521708 
L 426.734034 167.540192 
L 428.773321 172.163091 
L 430.812608 175.68072 
L 432.851896 171.877544 
L 434.891183 173.664569 
L 436.930471 178.246869 
L 438.969758 170.634319 
L 441.009045 178.352691 
L 443.048333 171.848129 
L 445.08762 174.222009 
L 447.126907 175.241571 
L 449.166195 163.58588 
L 451.205482 169.227912 
L 453.244769 173.11825 
L 455.284057 178.547018 
L 457.323344 180.208586 
L 459.362631 173.504395 
L 461.401919 172.9475 
L 463.441206 176.852357 
L 465.480493 174.792283 
L 467.519781 174.899087 
L 469.559068 175.204273 
L 471.598355 170.499773 
L 473.637643 175.475865 
L 475.67693 178.018464 
L 477.716217 179.508252 
L 479.755505 173.39436 
L 481.794792 176.658454 
L 483.834079 170.896492 
L 485.873367 173.904602 
L 487.912654 177.828358 
L 489.951942 172.595339 
L 491.991229 168.988404 
L 494.030516 168.793505 
L 496.069804 173.629827 
L 498.109091 176.203743 
L 498.109091 176.203743 
" clip-path="url(#p67b4a6c190)" style="fill: none; stroke: #ff0000; stroke-opacity: 0.9; stroke-width: 1.5; stroke-linecap: square"/>
   </g>
   <g id="line2d_35">
    <path d="M 92.290909 176.341256 
L 96.369484 163.712904 
L 98.408771 163.601739 
L 100.448058 169.562861 
L 102.487346 166.024785 
L 104.526633 168.334199 
L 106.565921 162.485632 
L 108.605208 164.571295 
L 110.644495 175.393015 
L 112.683783 249.174755 
L 114.72307 161.72509 
L 116.762357 163.52836 
L 118.801645 169.932707 
L 120.840932 161.151816 
L 122.880219 167.898364 
L 124.919507 166.172557 
L 126.958794 180.192271 
L 128.998081 163.447771 
L 131.037369 167.185071 
L 133.076656 173.872393 
L 135.115943 167.840041 
L 137.155231 165.826612 
L 139.194518 165.240896 
L 141.233805 167.521497 
L 143.273093 164.876648 
L 145.31238 161.326529 
L 147.351667 160.90511 
L 149.390955 163.942595 
L 151.430242 162.377857 
L 153.469529 164.034967 
L 155.508817 167.95463 
L 157.548104 163.648656 
L 159.587392 165.256103 
L 161.626679 168.2685 
L 163.665966 168.387308 
L 165.705254 250.32571 
L 167.744541 162.109992 
L 169.783828 168.15613 
L 171.823116 166.638361 
L 173.862403 166.860981 
L 175.90169 172.272128 
L 177.940978 170.786819 
L 179.980265 184.770062 
L 182.019552 169.521467 
L 184.05884 172.609917 
L 186.098127 187.875573 
L 188.137414 173.048027 
L 190.176702 174.150677 
L 192.215989 197.786234 
L 194.255276 193.077402 
L 196.294564 189.863516 
L 198.333851 188.120542 
L 200.373138 171.473182 
L 202.412426 164.534044 
L 204.451713 167.381703 
L 206.491 166.33601 
L 208.530288 174.47648 
L 210.569575 165.980825 
L 212.608862 163.476923 
L 214.64815 168.373371 
L 216.687437 161.340926 
L 218.726725 167.390205 
L 220.766012 166.562477 
L 222.805299 169.793825 
L 224.844587 162.372798 
L 226.883874 177.761115 
L 228.923161 186.781926 
L 230.962449 166.376456 
L 233.001736 170.94154 
L 235.041023 166.113903 
L 237.080311 166.414743 
L 239.119598 168.554333 
L 241.158885 164.741231 
L 243.198173 170.604229 
L 245.23746 162.163825 
L 247.276747 164.256702 
L 249.316035 164.682487 
L 251.355322 169.627995 
L 253.394609 165.526273 
L 255.433897 163.019636 
L 257.473184 169.428401 
L 259.512471 164.001897 
L 261.551759 162.039408 
L 263.591046 164.828179 
L 265.630333 167.905849 
L 267.669621 163.483402 
L 269.708908 164.973604 
L 271.748196 165.02943 
L 273.787483 166.504056 
L 275.82677 162.376723 
L 277.866058 250.948096 
L 279.905345 167.874523 
L 281.944632 164.383036 
L 283.98392 163.110056 
L 286.023207 169.723712 
L 288.062494 171.272772 
L 290.101782 169.507766 
L 292.141069 171.450588 
L 294.180356 167.071939 
L 296.219644 167.695064 
L 298.258931 174.242045 
L 300.298218 169.431287 
L 302.337506 164.276497 
L 304.376793 170.27325 
L 306.41608 163.840452 
L 308.455368 167.396552 
L 310.494655 167.742252 
L 312.533942 163.523922 
L 314.57323 250.84636 
L 316.612517 160.15408 
L 318.651804 162.357335 
L 320.691092 162.016558 
L 322.730379 165.649251 
L 326.808954 164.381315 
L 328.848241 166.722465 
L 330.887529 167.161332 
L 332.926816 163.633852 
L 334.966103 165.012712 
L 337.005391 160.980852 
L 339.044678 163.119346 
L 341.083965 162.679247 
L 343.123253 162.836828 
L 345.16254 165.042817 
L 347.201827 163.419534 
L 349.241115 251.717483 
L 351.280402 162.873156 
L 353.319689 163.768824 
L 355.358977 170.656729 
L 357.398264 167.567807 
L 359.437551 170.960624 
L 361.476839 166.366858 
L 363.516126 165.984573 
L 365.555413 170.015262 
L 367.594701 167.194277 
L 369.633988 170.288186 
L 371.673275 165.585892 
L 373.712563 171.784607 
L 375.75185 175.809092 
L 377.791138 173.929812 
L 379.830425 166.091139 
L 381.869712 178.41156 
L 383.909 171.153839 
L 387.987574 168.260284 
L 390.026862 172.13166 
L 392.066149 171.85631 
L 394.105436 171.793448 
L 396.144724 249.128384 
L 398.184011 164.715048 
L 400.223298 170.984788 
L 402.262586 170.918253 
L 404.301873 170.105819 
L 406.34116 167.356657 
L 408.380448 172.496029 
L 410.419735 166.463524 
L 412.459022 171.698247 
L 414.49831 164.947014 
L 416.537597 166.86184 
L 418.576884 160.779334 
L 420.616172 168.395968 
L 422.655459 167.350532 
L 424.694746 171.518532 
L 426.734034 167.54035 
L 428.773321 172.204531 
L 430.812608 175.656887 
L 432.851896 171.914087 
L 434.891183 173.64032 
L 436.930471 178.239262 
L 438.969758 170.578294 
L 441.009045 178.4061 
L 443.048333 171.853708 
L 445.08762 174.265764 
L 447.126907 175.168395 
L 449.166195 163.55289 
L 451.205482 169.230507 
L 453.244769 173.12251 
L 455.284057 178.520934 
L 457.323344 180.196831 
L 459.362631 173.509482 
L 461.401919 173.005902 
L 463.441206 176.82613 
L 465.480493 174.800378 
L 467.519781 174.832123 
L 469.559068 175.225993 
L 471.598355 170.494842 
L 473.637643 175.499927 
L 475.67693 178.055461 
L 477.716217 179.540277 
L 479.755505 173.406005 
L 481.794792 176.609516 
L 483.834079 170.881341 
L 485.873367 173.885713 
L 487.912654 177.829351 
L 489.951942 172.674983 
L 491.991229 169.001882 
L 494.030516 168.790646 
L 496.069804 173.646336 
L 498.109091 176.14284 
L 498.109091 176.14284 
" clip-path="url(#p67b4a6c190)" style="fill: none; stroke: #ff0000; stroke-opacity: 0.9; stroke-width: 1.5; stroke-linecap: square"/>
   </g>
   <g id="line2d_36">
    <path d="M 92.290909 176.365562 
L 96.369484 163.751417 
L 98.408771 163.60522 
L 100.448058 169.534594 
L 102.487346 165.98973 
L 104.526633 168.349549 
L 106.565921 162.506685 
L 108.605208 164.574301 
L 110.644495 175.418549 
L 112.683783 249.164546 
L 114.72307 161.696755 
L 116.762357 163.517409 
L 118.801645 169.919677 
L 120.840932 161.137152 
L 122.880219 167.952091 
L 124.919507 166.182999 
L 126.958794 180.210882 
L 128.998081 163.476535 
L 131.037369 167.205634 
L 133.076656 173.899588 
L 135.115943 167.763547 
L 137.155231 165.821353 
L 139.194518 165.197068 
L 141.233805 167.492552 
L 143.273093 164.937178 
L 145.31238 161.307295 
L 147.351667 160.89436 
L 149.390955 164.000364 
L 151.430242 162.322721 
L 153.469529 164.032688 
L 155.508817 167.948456 
L 157.548104 163.670127 
L 159.587392 165.281104 
L 161.626679 168.263388 
L 163.665966 168.351297 
L 165.705254 250.376484 
L 167.744541 162.136135 
L 169.783828 168.088269 
L 171.823116 166.667818 
L 173.862403 166.91657 
L 175.90169 172.258714 
L 177.940978 170.757776 
L 179.980265 184.816035 
L 182.019552 169.540218 
L 184.05884 172.607876 
L 186.098127 187.872232 
L 188.137414 173.046268 
L 190.176702 174.149743 
L 192.215989 197.765987 
L 194.255276 193.061497 
L 196.294564 189.842169 
L 198.333851 188.102668 
L 200.373138 171.492529 
L 202.412426 164.500899 
L 204.451713 167.405359 
L 206.491 166.316818 
L 208.530288 174.45949 
L 210.569575 165.951903 
L 212.608862 163.496401 
L 214.64815 168.390397 
L 216.687437 161.354385 
L 218.726725 167.441653 
L 220.766012 166.567359 
L 222.805299 169.837627 
L 224.844587 162.421184 
L 226.883874 177.713031 
L 228.923161 186.815197 
L 230.962449 166.349326 
L 233.001736 170.947044 
L 235.041023 166.108328 
L 237.080311 166.425098 
L 239.119598 168.593083 
L 241.158885 164.797083 
L 243.198173 170.597483 
L 245.23746 162.135566 
L 247.276747 164.215797 
L 249.316035 164.679658 
L 251.355322 169.569171 
L 253.394609 165.5387 
L 255.433897 163.01588 
L 257.473184 169.460375 
L 259.512471 163.998466 
L 261.551759 161.993618 
L 263.591046 164.807322 
L 265.630333 167.887572 
L 267.669621 163.508535 
L 269.708908 165.016392 
L 271.748196 165.082566 
L 273.787483 166.469091 
L 275.82677 162.41837 
L 277.866058 250.896591 
L 279.905345 167.90716 
L 281.944632 164.382076 
L 283.98392 163.1005 
L 286.023207 169.733717 
L 288.062494 171.286792 
L 290.101782 169.532711 
L 292.141069 171.467931 
L 294.180356 166.991192 
L 296.219644 167.644139 
L 298.258931 174.201468 
L 300.298218 169.504828 
L 302.337506 164.306734 
L 304.376793 170.267818 
L 306.41608 163.881759 
L 308.455368 167.467061 
L 310.494655 167.716182 
L 312.533942 163.524356 
L 314.57323 250.922255 
L 316.612517 160.123689 
L 318.651804 162.306662 
L 320.691092 161.981793 
L 322.730379 165.602982 
L 326.808954 164.343736 
L 328.848241 166.754834 
L 330.887529 167.14157 
L 332.926816 163.6619 
L 334.966103 165.061237 
L 337.005391 160.924706 
L 339.044678 163.120785 
L 341.083965 162.721632 
L 343.123253 162.825101 
L 345.16254 165.01142 
L 347.201827 163.445767 
L 349.241115 251.713889 
L 351.280402 162.820144 
L 353.319689 163.799419 
L 355.358977 170.669246 
L 357.398264 167.523406 
L 359.437551 170.909424 
L 361.476839 166.381846 
L 363.516126 165.991926 
L 365.555413 170.050927 
L 367.594701 167.189516 
L 369.633988 170.249485 
L 371.673275 165.567916 
L 373.712563 171.796865 
L 375.75185 175.806361 
L 377.791138 173.925994 
L 379.830425 166.140079 
L 381.869712 178.428381 
L 383.909 171.150238 
L 387.987574 168.31559 
L 390.026862 172.109266 
L 392.066149 171.87869 
L 394.105436 171.760179 
L 396.144724 249.177719 
L 398.184011 164.659742 
L 400.223298 171.032553 
L 402.262586 170.845032 
L 404.301873 170.15028 
L 406.34116 167.388612 
L 408.380448 172.478965 
L 410.419735 166.448419 
L 412.459022 171.669909 
L 414.49831 164.962993 
L 416.537597 166.801054 
L 418.576884 160.825749 
L 420.616172 168.425723 
L 422.655459 167.335758 
L 424.694746 171.497389 
L 426.734034 167.550253 
L 428.773321 172.229479 
L 430.812608 175.64209 
L 432.851896 171.905077 
L 434.891183 173.697846 
L 436.930471 178.281357 
L 438.969758 170.653738 
L 441.009045 178.34495 
L 443.048333 171.812626 
L 445.08762 174.260629 
L 447.126907 175.25842 
L 449.166195 163.555357 
L 451.205482 169.272817 
L 453.244769 173.14387 
L 455.284057 178.54536 
L 457.323344 180.223441 
L 459.362631 173.51702 
L 461.401919 172.940591 
L 463.441206 176.772342 
L 465.480493 174.82538 
L 467.519781 174.861914 
L 469.559068 175.219971 
L 471.598355 170.507156 
L 473.637643 175.452764 
L 475.67693 178.035453 
L 477.716217 179.553595 
L 479.755505 173.346319 
L 481.794792 176.643759 
L 483.834079 170.911654 
L 485.873367 173.924906 
L 487.912654 177.813809 
L 489.951942 172.661663 
L 491.991229 169.093482 
L 494.030516 168.804595 
L 496.069804 173.641439 
L 498.109091 176.1687 
L 498.109091 176.1687 
" clip-path="url(#p67b4a6c190)" style="fill: none; stroke: #ff0000; stroke-opacity: 0.9; stroke-width: 1.5; stroke-linecap: square"/>
   </g>
   <g id="line2d_37">
    <path d="M 92.290909 176.329952 
L 96.369484 163.705359 
L 98.408771 163.640847 
L 100.448058 169.563969 
L 102.487346 166.04594 
L 104.526633 168.308719 
L 106.565921 162.477175 
L 108.605208 164.57464 
L 110.644495 175.470331 
L 112.683783 249.131578 
L 114.72307 161.678866 
L 116.762357 163.472463 
L 118.801645 169.982464 
L 120.840932 161.142934 
L 122.880219 167.928198 
L 124.919507 166.115616 
L 126.958794 180.190369 
L 128.998081 163.472022 
L 131.037369 167.243541 
L 133.076656 173.886819 
L 135.115943 167.76395 
L 137.155231 165.767634 
L 139.194518 165.287873 
L 141.233805 167.498447 
L 143.273093 164.898782 
L 145.31238 161.332014 
L 147.351667 160.904545 
L 149.390955 164.006214 
L 151.430242 162.372576 
L 153.469529 164.065878 
L 155.508817 167.985123 
L 157.548104 163.653282 
L 159.587392 165.228183 
L 161.626679 168.261618 
L 163.665966 168.403276 
L 165.705254 250.338133 
L 167.744541 162.143593 
L 169.783828 168.167547 
L 171.823116 166.632741 
L 173.862403 166.853738 
L 175.90169 172.308893 
L 177.940978 170.757648 
L 179.980265 184.851617 
L 182.019552 169.481428 
L 184.05884 172.629351 
L 186.098127 187.860936 
L 188.137414 173.08611 
L 190.176702 174.130682 
L 192.215989 197.724574 
L 194.255276 193.062662 
L 196.294564 189.817882 
L 198.333851 188.114413 
L 200.373138 171.503732 
L 202.412426 164.505299 
L 204.451713 167.39358 
L 206.491 166.27684 
L 208.530288 174.461965 
L 210.569575 165.952095 
L 212.608862 163.51046 
L 214.64815 168.342648 
L 216.687437 161.312795 
L 218.726725 167.447353 
L 220.766012 166.560913 
L 222.805299 169.836817 
L 224.844587 162.349658 
L 226.883874 177.778183 
L 228.923161 186.745031 
L 230.962449 166.329354 
L 233.001736 170.932187 
L 235.041023 166.121805 
L 237.080311 166.382942 
L 239.119598 168.54768 
L 241.158885 164.732089 
L 243.198173 170.552257 
L 245.23746 162.114995 
L 247.276747 164.205804 
L 249.316035 164.676957 
L 251.355322 169.559094 
L 253.394609 165.517078 
L 255.433897 163.039435 
L 257.473184 169.467973 
L 259.512471 163.981232 
L 261.551759 162.018528 
L 263.591046 164.816155 
L 265.630333 167.890405 
L 267.669621 163.46311 
L 269.708908 164.962089 
L 271.748196 165.053312 
L 273.787483 166.478384 
L 275.82677 162.366711 
L 277.866058 250.905018 
L 279.905345 167.938907 
L 281.944632 164.318995 
L 283.98392 163.069769 
L 286.023207 169.736267 
L 288.062494 171.251673 
L 290.101782 169.553203 
L 292.141069 171.43997 
L 294.180356 167.019504 
L 296.219644 167.669031 
L 298.258931 174.260092 
L 300.298218 169.439179 
L 302.337506 164.289097 
L 304.376793 170.300752 
L 306.41608 163.851191 
L 308.455368 167.434643 
L 310.494655 167.687029 
L 312.533942 163.541796 
L 314.57323 250.929812 
L 316.612517 160.101818 
L 318.651804 162.322909 
L 320.691092 162.014328 
L 322.730379 165.632929 
L 326.808954 164.378693 
L 328.848241 166.748822 
L 330.887529 167.127995 
L 332.926816 163.670101 
L 334.966103 165.026126 
L 337.005391 160.944181 
L 339.044678 163.099517 
L 341.083965 162.672022 
L 343.123253 162.841141 
L 345.16254 164.995531 
L 347.201827 163.418178 
L 349.241115 251.738182 
L 351.280402 162.835193 
L 353.319689 163.770029 
L 355.358977 170.639536 
L 357.398264 167.564243 
L 359.437551 170.930213 
L 361.476839 166.377428 
L 363.516126 165.957188 
L 365.555413 170.020939 
L 367.594701 167.179876 
L 369.633988 170.279741 
L 371.673275 165.584155 
L 373.712563 171.788566 
L 375.75185 175.777825 
L 377.791138 173.897223 
L 379.830425 166.094737 
L 381.869712 178.414686 
L 383.909 171.164632 
L 387.987574 168.304817 
L 390.026862 172.087399 
L 394.105436 171.737935 
L 396.144724 249.089947 
L 398.184011 164.653982 
L 400.223298 170.992175 
L 402.262586 170.883726 
L 404.301873 170.149801 
L 406.34116 167.377951 
L 408.380448 172.477043 
L 410.419735 166.469781 
L 412.459022 171.641333 
L 414.49831 164.968376 
L 416.537597 166.887109 
L 418.576884 160.823542 
L 420.616172 168.36734 
L 422.655459 167.335325 
L 424.694746 171.469012 
L 426.734034 167.544592 
L 428.773321 172.208746 
L 430.812608 175.645095 
L 432.851896 171.923727 
L 434.891183 173.682813 
L 436.930471 178.283187 
L 438.969758 170.652732 
L 441.009045 178.323501 
L 443.048333 171.779424 
L 445.08762 174.326721 
L 447.126907 175.228901 
L 449.166195 163.598345 
L 451.205482 169.219282 
L 453.244769 173.163023 
L 455.284057 178.559138 
L 457.323344 180.203165 
L 459.362631 173.506132 
L 461.401919 172.907823 
L 463.441206 176.818768 
L 465.480493 174.779353 
L 467.519781 174.874228 
L 469.559068 175.230396 
L 471.598355 170.497027 
L 473.637643 175.506414 
L 475.67693 178.015018 
L 477.716217 179.524196 
L 479.755505 173.385007 
L 481.794792 176.638005 
L 483.834079 170.879074 
L 485.873367 173.92138 
L 487.912654 177.806416 
L 489.951942 172.653681 
L 491.991229 169.044072 
L 494.030516 168.761279 
L 496.069804 173.714409 
L 498.109091 176.176607 
L 498.109091 176.176607 
" clip-path="url(#p67b4a6c190)" style="fill: none; stroke: #ff0000; stroke-opacity: 0.9; stroke-width: 1.5; stroke-linecap: square"/>
   </g>
   <g id="line2d_38">
    <path d="M 92.290909 176.426998 
L 96.369484 163.668877 
L 98.408771 163.634677 
L 100.448058 169.579586 
L 102.487346 166.038896 
L 104.526633 168.313371 
L 106.565921 162.49685 
L 108.605208 164.565068 
L 110.644495 175.438045 
L 112.683783 249.133398 
L 114.72307 161.698225 
L 116.762357 163.492344 
L 118.801645 169.919289 
L 120.840932 161.116547 
L 122.880219 167.929573 
L 124.919507 166.122382 
L 126.958794 180.254644 
L 128.998081 163.472711 
L 131.037369 167.228462 
L 133.076656 173.88748 
L 135.115943 167.802112 
L 137.155231 165.806847 
L 139.194518 165.227332 
L 141.233805 167.506794 
L 143.273093 164.915643 
L 145.31238 161.337947 
L 147.351667 160.904926 
L 149.390955 163.990544 
L 151.430242 162.359245 
L 153.469529 164.077273 
L 155.508817 167.950144 
L 157.548104 163.684973 
L 159.587392 165.242949 
L 161.626679 168.278023 
L 163.665966 168.398134 
L 165.705254 250.310047 
L 167.744541 162.17612 
L 169.783828 168.155968 
L 171.823116 166.658638 
L 173.862403 166.863479 
L 175.90169 172.299046 
L 177.940978 170.75616 
L 179.980265 184.834515 
L 182.019552 169.493211 
L 184.05884 172.598858 
L 186.098127 187.846752 
L 188.137414 173.021919 
L 190.176702 174.150641 
L 192.215989 197.761282 
L 194.255276 193.067186 
L 196.294564 189.869929 
L 198.333851 188.121339 
L 200.373138 171.496221 
L 202.412426 164.510411 
L 204.451713 167.38136 
L 206.491 166.304832 
L 208.530288 174.486434 
L 210.569575 165.947963 
L 212.608862 163.518415 
L 214.64815 168.370112 
L 216.687437 161.348162 
L 218.726725 167.417963 
L 220.766012 166.545221 
L 222.805299 169.797792 
L 224.844587 162.390683 
L 226.883874 177.758832 
L 228.923161 186.758204 
L 230.962449 166.323376 
L 233.001736 170.943567 
L 235.041023 166.132914 
L 237.080311 166.386679 
L 239.119598 168.580731 
L 241.158885 164.801216 
L 243.198173 170.575375 
L 245.23746 162.134594 
L 247.276747 164.201837 
L 249.316035 164.642968 
L 251.355322 169.592164 
L 253.394609 165.538497 
L 255.433897 163.042531 
L 257.473184 169.438109 
L 259.512471 164.058145 
L 261.551759 162.083537 
L 263.591046 164.759862 
L 265.630333 167.904764 
L 267.669621 163.461441 
L 269.708908 164.999321 
L 271.748196 165.01623 
L 273.787483 166.504598 
L 275.82677 162.367008 
L 277.866058 250.939154 
L 279.905345 167.957953 
L 281.944632 164.321361 
L 283.98392 163.112004 
L 286.023207 169.742475 
L 288.062494 171.234869 
L 290.101782 169.520593 
L 292.141069 171.455086 
L 294.180356 167.046377 
L 296.219644 167.646667 
L 298.258931 174.203316 
L 300.298218 169.484973 
L 302.337506 164.335185 
L 304.376793 170.306941 
L 306.41608 163.857858 
L 308.455368 167.410241 
L 310.494655 167.708403 
L 312.533942 163.597087 
L 314.57323 250.873259 
L 316.612517 160.124544 
L 318.651804 162.356423 
L 320.691092 161.985504 
L 322.730379 165.648724 
L 326.808954 164.343183 
L 328.848241 166.770342 
L 330.887529 167.1555 
L 332.926816 163.681503 
L 334.966103 165.043492 
L 337.005391 160.951413 
L 339.044678 163.089629 
L 341.083965 162.693309 
L 343.123253 162.833856 
L 345.16254 164.97519 
L 347.201827 163.415149 
L 349.241115 251.714529 
L 351.280402 162.813066 
L 353.319689 163.778091 
L 355.358977 170.586773 
L 357.398264 167.54817 
L 359.437551 170.920239 
L 361.476839 166.361972 
L 363.516126 165.990789 
L 365.555413 169.995916 
L 367.594701 167.166006 
L 369.633988 170.281876 
L 371.673275 165.59199 
L 373.712563 171.805043 
L 375.75185 175.793929 
L 377.791138 173.885979 
L 379.830425 166.094138 
L 381.869712 178.438721 
L 383.909 171.117455 
L 387.987574 168.282219 
L 390.026862 172.080743 
L 392.066149 171.842682 
L 394.105436 171.767826 
L 396.144724 249.152289 
L 398.184011 164.685865 
L 400.223298 171.016377 
L 402.262586 170.862175 
L 404.301873 170.190811 
L 406.34116 167.392608 
L 408.380448 172.459731 
L 410.419735 166.407133 
L 412.459022 171.650039 
L 414.49831 164.947763 
L 416.537597 166.824506 
L 418.576884 160.747801 
L 420.616172 168.376422 
L 422.655459 167.361309 
L 424.694746 171.54776 
L 426.734034 167.513447 
L 428.773321 172.252803 
L 430.812608 175.664788 
L 432.851896 171.900018 
L 434.891183 173.672047 
L 436.930471 178.243109 
L 438.969758 170.620755 
L 441.009045 178.323554 
L 443.048333 171.831422 
L 445.08762 174.284783 
L 447.126907 175.236802 
L 449.166195 163.542606 
L 451.205482 169.214648 
L 453.244769 173.09485 
L 455.284057 178.563571 
L 457.323344 180.181069 
L 459.362631 173.472356 
L 461.401919 172.940727 
L 463.441206 176.823416 
L 465.480493 174.79907 
L 467.519781 174.942141 
L 469.559068 175.253095 
L 471.598355 170.494782 
L 473.637643 175.496358 
L 475.67693 178.036802 
L 477.716217 179.510008 
L 479.755505 173.383863 
L 481.794792 176.633014 
L 483.834079 170.900172 
L 485.873367 173.948942 
L 487.912654 177.855826 
L 489.951942 172.639642 
L 491.991229 169.058269 
L 494.030516 168.801295 
L 496.069804 173.63654 
L 498.109091 176.159989 
L 498.109091 176.159989 
" clip-path="url(#p67b4a6c190)" style="fill: none; stroke: #ff0000; stroke-opacity: 0.9; stroke-width: 1.5; stroke-linecap: square"/>
   </g>
   <g id="line2d_39">
    <path d="M 92.290909 170.394899 
L 94.330196 168.643978 
L 96.369484 165.272896 
L 98.408771 163.198191 
L 100.448058 166.493169 
L 102.487346 164.603231 
L 104.526633 167.221041 
L 106.565921 163.05506 
L 108.605208 164.114019 
L 110.644495 174.157262 
L 112.683783 247.819724 
L 114.72307 161.440493 
L 116.762357 162.660213 
L 118.801645 169.109857 
L 120.840932 160.622495 
L 122.880219 167.325768 
L 124.919507 165.245503 
L 126.958794 179.832801 
L 128.998081 162.73317 
L 131.037369 165.638937 
L 133.076656 173.04348 
L 135.115943 166.654856 
L 139.194518 165.258887 
L 141.233805 166.880953 
L 143.273093 164.227795 
L 145.31238 161.167046 
L 147.351667 161.243827 
L 149.390955 163.849063 
L 151.430242 162.228047 
L 153.469529 163.090924 
L 155.508817 167.215914 
L 157.548104 163.535027 
L 159.587392 164.882076 
L 161.626679 167.996974 
L 163.665966 167.38376 
L 165.705254 247.996961 
L 167.744541 163.22471 
L 169.783828 167.340455 
L 171.823116 165.803246 
L 173.862403 166.219391 
L 175.90169 171.483274 
L 177.940978 170.583372 
L 179.980265 183.24824 
L 182.019552 168.500116 
L 184.05884 172.440964 
L 186.098127 188.270727 
L 188.137414 171.746151 
L 190.176702 173.875318 
L 192.215989 195.618807 
L 198.333851 186.714436 
L 200.373138 172.154284 
L 202.412426 164.253108 
L 204.451713 166.310505 
L 206.491 166.504112 
L 208.530288 173.011801 
L 210.569575 165.640523 
L 212.608862 163.041066 
L 214.64815 166.830823 
L 216.687437 160.584882 
L 218.726725 165.327923 
L 220.766012 166.090141 
L 222.805299 169.491979 
L 224.844587 162.128119 
L 226.883874 176.985636 
L 228.923161 186.029818 
L 230.962449 165.279255 
L 233.001736 169.959011 
L 235.041023 166.631957 
L 237.080311 165.667321 
L 239.119598 167.875039 
L 241.158885 165.029226 
L 243.198173 170.158665 
L 245.23746 161.447149 
L 247.276747 163.42494 
L 249.316035 164.610422 
L 251.355322 168.710799 
L 253.394609 165.005163 
L 255.433897 162.450121 
L 257.473184 168.686698 
L 259.512471 163.110704 
L 261.551759 161.846249 
L 263.591046 163.916965 
L 265.630333 167.294492 
L 267.669621 163.249443 
L 269.708908 164.340745 
L 271.748196 164.295893 
L 273.787483 166.044283 
L 275.82677 161.923504 
L 277.866058 248.565119 
L 279.905345 168.548535 
L 281.944632 163.898549 
L 283.98392 162.236421 
L 286.023207 169.551523 
L 288.062494 170.384479 
L 290.101782 168.604915 
L 292.141069 170.698745 
L 294.180356 166.010139 
L 296.219644 167.383688 
L 298.258931 174.207203 
L 300.298218 167.982362 
L 302.337506 165.528511 
L 304.376793 170.173774 
L 306.41608 163.102688 
L 308.455368 166.597468 
L 310.494655 166.27027 
L 312.533942 162.635039 
L 314.57323 248.366829 
L 316.612517 160.933645 
L 318.651804 161.673239 
L 320.691092 162.117722 
L 322.730379 164.178516 
L 324.769667 163.837122 
L 326.808954 163.980799 
L 328.848241 165.214761 
L 330.887529 165.937427 
L 332.926816 163.626337 
L 334.966103 165.296349 
L 337.005391 160.894612 
L 339.044678 162.358973 
L 341.083965 161.65796 
L 343.123253 162.554947 
L 345.16254 164.000948 
L 347.201827 163.205585 
L 349.241115 249.045685 
L 351.280402 163.67887 
L 353.319689 161.925836 
L 355.358977 169.983948 
L 357.398264 167.113492 
L 359.437551 171.814588 
L 361.476839 167.575198 
L 363.516126 166.722905 
L 365.555413 169.648649 
L 367.594701 166.749948 
L 369.633988 169.529539 
L 371.673275 164.705672 
L 373.712563 170.803239 
L 375.75185 175.896494 
L 377.791138 173.751287 
L 379.830425 165.366157 
L 381.869712 177.49232 
L 383.909 171.21304 
L 385.948287 169.257199 
L 387.987574 167.468022 
L 390.026862 170.832052 
L 394.105436 172.345021 
L 396.144724 248.610894 
L 398.184011 165.58107 
L 400.223298 169.945255 
L 402.262586 170.775375 
L 404.301873 170.402086 
L 406.34116 167.437988 
L 408.380448 172.270768 
L 410.419735 166.247993 
L 412.459022 170.523599 
L 414.49831 164.795113 
L 416.537597 165.715782 
L 418.576884 160.730955 
L 420.616172 168.134003 
L 422.655459 166.871065 
L 424.694746 170.864993 
L 426.734034 167.187406 
L 428.773321 171.40505 
L 430.812608 174.63735 
L 432.851896 171.583387 
L 434.891183 173.191815 
L 436.930471 177.670201 
L 438.969758 170.806896 
L 441.009045 177.588868 
L 443.048333 171.650283 
L 445.08762 173.798409 
L 447.126907 175.115878 
L 449.166195 163.276723 
L 451.205482 168.684622 
L 453.244769 172.111488 
L 455.284057 177.834745 
L 457.323344 179.034253 
L 459.362631 174.108224 
L 461.401919 172.760416 
L 463.441206 175.576865 
L 465.480493 174.748052 
L 467.519781 175.351551 
L 469.559068 175.386628 
L 471.598355 168.982001 
L 473.637643 174.443703 
L 475.67693 177.716718 
L 477.716217 177.983849 
L 479.755505 173.040019 
L 481.794792 176.108968 
L 483.834079 169.897671 
L 487.912654 177.063922 
L 489.951942 171.911902 
L 491.991229 168.629516 
L 494.030516 167.855015 
L 496.069804 173.890312 
L 498.109091 175.39388 
L 498.109091 175.39388 
" clip-path="url(#p67b4a6c190)" style="fill: none; stroke: #008000; stroke-opacity: 0.9; stroke-width: 1.5; stroke-linecap: square"/>
   </g>
   <g id="line2d_40">
    <path d="M 438.969758 256.32 
L 438.969758 155.52 
" clip-path="url(#p67b4a6c190)" style="fill: none; stroke-dasharray: 5.55,2.4; stroke-dashoffset: 0; stroke: #0000ff; stroke-width: 1.5"/>
   </g>
   <g id="line2d_41">
    <path d="M 153.469529 256.32 
L 153.469529 155.52 
" clip-path="url(#p67b4a6c190)" style="fill: none; stroke-dasharray: 5.55,2.4; stroke-dashoffset: 0; stroke: #000000; stroke-width: 1.5"/>
   </g>
   <g id="patch_8">
    <path d="M 72 256.32 
L 72 155.52 
" style="fill: none; stroke: #000000; stroke-width: 0.8; stroke-linejoin: miter; stroke-linecap: square"/>
   </g>
   <g id="patch_9">
    <path d="M 518.4 256.32 
L 518.4 155.52 
" style="fill: none; stroke: #000000; stroke-width: 0.8; stroke-linejoin: miter; stroke-linecap: square"/>
   </g>
   <g id="patch_10">
    <path d="M 72 256.32 
L 518.4 256.32 
" style="fill: none; stroke: #000000; stroke-width: 0.8; stroke-linejoin: miter; stroke-linecap: square"/>
   </g>
   <g id="patch_11">
    <path d="M 72 155.52 
L 518.4 155.52 
" style="fill: none; stroke: #000000; stroke-width: 0.8; stroke-linejoin: miter; stroke-linecap: square"/>
   </g>
  </g>
 </g>
 <defs>
  <clipPath id="p78a661ab33">
   <rect x="72" y="34.56" width="446.4" height="100.8"/>
  </clipPath>
  <clipPath id="p67b4a6c190">
   <rect x="72" y="155.52" width="446.4" height="100.8"/>
  </clipPath>
 </defs>
</svg>
