<?xml version="1.0" encoding="utf-8" standalone="no"?>
<!DOCTYPE svg PUBLIC "-//W3C//DTD SVG 1.1//EN"
  "http://www.w3.org/Graphics/SVG/1.1/DTD/svg11.dtd">
<svg xmlns:xlink="http://www.w3.org/1999/xlink" width="576pt" height="288pt" viewBox="0 0 576 288" xmlns="http://www.w3.org/2000/svg" version="1.1">
 <metadata>
  <rdf:RDF xmlns:dc="http://purl.org/dc/elements/1.1/" xmlns:cc="http://creativecommons.org/ns#" xmlns:rdf="http://www.w3.org/1999/02/22-rdf-syntax-ns#">
   <cc:Work>
    <dc:type rdf:resource="http://purl.org/dc/dcmitype/StillImage"/>
    <dc:date>2025-05-07T09:54:48.956426</dc:date>
    <dc:format>image/svg+xml</dc:format>
    <dc:creator>
     <cc:Agent>
      <dc:title>Matplotlib v3.10.0, https://matplotlib.org/</dc:title>
     </cc:Agent>
    </dc:creator>
   </cc:Work>
  </rdf:RDF>
 </metadata>
 <defs>
  <style type="text/css">*{stroke-linejoin: round; stroke-linecap: butt}</style>
 </defs>
 <g id="figure_1">
  <g id="patch_1">
   <path d="M 0 288 
L 576 288 
L 576 0 
L 0 0 
z
" style="fill: #ffffff"/>
  </g>
  <g id="axes_1">
   <g id="patch_2">
    <path d="M 72 135.36 
L 518.4 135.36 
L 518.4 34.56 
L 72 34.56 
z
" style="fill: #ffffff"/>
   </g>
   <g id="matplotlib.axis_1">
    <g id="xtick_1">
     <g id="line2d_1">
      <defs>
       <path id="mda4bc82a23" d="M 0 0 
L 0 3.5 
" style="stroke: #000000; stroke-width: 0.8"/>
      </defs>
      <g>
       <use xlink:href="#mda4bc82a23" x="92.290909" y="135.36" style="stroke: #000000; stroke-width: 0.8"/>
      </g>
     </g>
    </g>
    <g id="xtick_2">
     <g id="line2d_2">
      <g>
       <use xlink:href="#mda4bc82a23" x="143.273093" y="135.36" style="stroke: #000000; stroke-width: 0.8"/>
      </g>
     </g>
    </g>
    <g id="xtick_3">
     <g id="line2d_3">
      <g>
       <use xlink:href="#mda4bc82a23" x="194.255276" y="135.36" style="stroke: #000000; stroke-width: 0.8"/>
      </g>
     </g>
    </g>
    <g id="xtick_4">
     <g id="line2d_4">
      <g>
       <use xlink:href="#mda4bc82a23" x="245.23746" y="135.36" style="stroke: #000000; stroke-width: 0.8"/>
      </g>
     </g>
    </g>
    <g id="xtick_5">
     <g id="line2d_5">
      <g>
       <use xlink:href="#mda4bc82a23" x="296.219644" y="135.36" style="stroke: #000000; stroke-width: 0.8"/>
      </g>
     </g>
    </g>
    <g id="xtick_6">
     <g id="line2d_6">
      <g>
       <use xlink:href="#mda4bc82a23" x="347.201827" y="135.36" style="stroke: #000000; stroke-width: 0.8"/>
      </g>
     </g>
    </g>
    <g id="xtick_7">
     <g id="line2d_7">
      <g>
       <use xlink:href="#mda4bc82a23" x="398.184011" y="135.36" style="stroke: #000000; stroke-width: 0.8"/>
      </g>
     </g>
    </g>
    <g id="xtick_8">
     <g id="line2d_8">
      <g>
       <use xlink:href="#mda4bc82a23" x="449.166195" y="135.36" style="stroke: #000000; stroke-width: 0.8"/>
      </g>
     </g>
    </g>
    <g id="xtick_9">
     <g id="line2d_9">
      <g>
       <use xlink:href="#mda4bc82a23" x="500.148378" y="135.36" style="stroke: #000000; stroke-width: 0.8"/>
      </g>
     </g>
    </g>
   </g>
   <g id="matplotlib.axis_2">
    <g id="ytick_1">
     <g id="line2d_10">
      <defs>
       <path id="m0ca7d541fb" d="M 0 0 
L -3.5 0 
" style="stroke: #000000; stroke-width: 0.8"/>
      </defs>
      <g>
       <use xlink:href="#m0ca7d541fb" x="72" y="116.845898" style="stroke: #000000; stroke-width: 0.8"/>
      </g>
     </g>
     <g id="text_1">
      <!-- −150 -->
      <g transform="translate(37.532812 120.645117) scale(0.1 -0.1)">
       <defs>
        <path id="DejaVuSans-2212" d="M 678 2272 
L 4684 2272 
L 4684 1741 
L 678 1741 
L 678 2272 
z
" transform="scale(0.015625)"/>
        <path id="DejaVuSans-31" d="M 794 531 
L 1825 531 
L 1825 4091 
L 703 3866 
L 703 4441 
L 1819 4666 
L 2450 4666 
L 2450 531 
L 3481 531 
L 3481 0 
L 794 0 
L 794 531 
z
" transform="scale(0.015625)"/>
        <path id="DejaVuSans-35" d="M 691 4666 
L 3169 4666 
L 3169 4134 
L 1269 4134 
L 1269 2991 
Q 1406 3038 1543 3061 
Q 1681 3084 1819 3084 
Q 2600 3084 3056 2656 
Q 3513 2228 3513 1497 
Q 3513 744 3044 326 
Q 2575 -91 1722 -91 
Q 1428 -91 1123 -41 
Q 819 9 494 109 
L 494 744 
Q 775 591 1075 516 
Q 1375 441 1709 441 
Q 2250 441 2565 725 
Q 2881 1009 2881 1497 
Q 2881 1984 2565 2268 
Q 2250 2553 1709 2553 
Q 1456 2553 1204 2497 
Q 953 2441 691 2322 
L 691 4666 
z
" transform="scale(0.015625)"/>
        <path id="DejaVuSans-30" d="M 2034 4250 
Q 1547 4250 1301 3770 
Q 1056 3291 1056 2328 
Q 1056 1369 1301 889 
Q 1547 409 2034 409 
Q 2525 409 2770 889 
Q 3016 1369 3016 2328 
Q 3016 3291 2770 3770 
Q 2525 4250 2034 4250 
z
M 2034 4750 
Q 2819 4750 3233 4129 
Q 3647 3509 3647 2328 
Q 3647 1150 3233 529 
Q 2819 -91 2034 -91 
Q 1250 -91 836 529 
Q 422 1150 422 2328 
Q 422 3509 836 4129 
Q 1250 4750 2034 4750 
z
" transform="scale(0.015625)"/>
       </defs>
       <use xlink:href="#DejaVuSans-2212"/>
       <use xlink:href="#DejaVuSans-31" transform="translate(83.789062 0)"/>
       <use xlink:href="#DejaVuSans-35" transform="translate(147.412109 0)"/>
       <use xlink:href="#DejaVuSans-30" transform="translate(211.035156 0)"/>
      </g>
     </g>
    </g>
    <g id="ytick_2">
     <g id="line2d_11">
      <g>
       <use xlink:href="#m0ca7d541fb" x="72" y="77.761471" style="stroke: #000000; stroke-width: 0.8"/>
      </g>
     </g>
     <g id="text_2">
      <!-- −100 -->
      <g transform="translate(37.532812 81.560689) scale(0.1 -0.1)">
       <use xlink:href="#DejaVuSans-2212"/>
       <use xlink:href="#DejaVuSans-31" transform="translate(83.789062 0)"/>
       <use xlink:href="#DejaVuSans-30" transform="translate(147.412109 0)"/>
       <use xlink:href="#DejaVuSans-30" transform="translate(211.035156 0)"/>
      </g>
     </g>
    </g>
    <g id="ytick_3">
     <g id="line2d_12">
      <g>
       <use xlink:href="#m0ca7d541fb" x="72" y="38.677044" style="stroke: #000000; stroke-width: 0.8"/>
      </g>
     </g>
     <g id="text_3">
      <!-- −50 -->
      <g transform="translate(43.895313 42.476262) scale(0.1 -0.1)">
       <use xlink:href="#DejaVuSans-2212"/>
       <use xlink:href="#DejaVuSans-35" transform="translate(83.789062 0)"/>
       <use xlink:href="#DejaVuSans-30" transform="translate(147.412109 0)"/>
      </g>
     </g>
    </g>
   </g>
   <g id="line2d_13">
    <path d="M 92.290909 61.566517 
L 94.330196 105.972512 
L 96.369484 130.634716 
L 98.408771 105.132676 
L 100.448058 89.74397 
L 102.487346 107.272802 
L 104.526633 98.280187 
L 106.565921 67.470308 
L 108.605208 115.433787 
L 110.644495 45.3167 
L 112.683783 82.426232 
L 114.72307 124.475675 
L 116.762357 123.000562 
L 118.801645 111.96774 
L 120.840932 68.731266 
L 122.880219 117.158748 
L 124.919507 69.862708 
L 126.958794 67.141899 
L 128.998081 88.438659 
L 131.037369 64.583991 
L 133.076656 52.852776 
L 135.115943 53.988154 
L 137.155231 109.574606 
L 139.194518 108.054681 
L 141.233805 126.266667 
L 143.273093 122.722983 
L 145.31238 121.693414 
L 147.351667 117.393245 
L 149.390955 118.176245 
L 151.430242 110.643607 
L 153.469529 107.832589 
L 155.508817 112.831979 
L 157.548104 128.666993 
L 159.587392 109.633612 
L 161.626679 122.368017 
L 163.665966 98.135636 
L 165.705254 94.513647 
L 167.744541 112.210741 
L 169.783828 47.985004 
L 171.823116 54.524635 
L 173.862403 75.201398 
L 175.90169 48.918963 
L 177.940978 42.556627 
L 179.980265 70.644015 
L 182.019552 67.301365 
L 184.05884 71.285512 
L 186.098127 64.999841 
L 188.137414 56.976071 
L 190.176702 66.744011 
L 192.215989 61.344562 
L 194.255276 48.721689 
L 196.294564 69.487286 
L 198.333851 75.799049 
L 200.373138 96.752664 
L 202.412426 71.524739 
L 204.451713 53.837121 
L 206.491 44.844512 
L 208.530288 76.555278 
L 210.569575 57.068695 
L 212.608862 111.939447 
L 214.64815 108.903188 
L 216.687437 94.282466 
L 218.726725 92.792056 
L 220.766012 110.134584 
L 222.805299 122.756296 
L 224.844587 121.937262 
L 226.883874 67.899422 
L 228.923161 60.070519 
L 230.962449 80.099565 
L 233.001736 73.338023 
L 235.041023 41.622769 
L 237.080311 60.737732 
L 239.119598 52.55229 
L 241.158885 75.132086 
L 243.198173 50.723624 
L 245.23746 84.404004 
L 247.276747 50.189923 
L 249.316035 99.571 
L 251.355322 75.460603 
L 253.394609 112.317016 
L 257.473184 69.233443 
L 259.512471 64.855201 
L 261.551759 57.658748 
L 263.591046 68.735125 
L 265.630333 67.011846 
L 267.669621 59.945023 
L 269.708908 50.236357 
L 271.748196 41.787269 
L 273.787483 60.118093 
L 275.82677 50.193811 
L 277.866058 66.389993 
L 279.905345 57.1901 
L 281.944632 78.330806 
L 283.98392 64.868154 
L 286.023207 60.160239 
L 288.062494 54.48058 
L 290.101782 69.379508 
L 292.141069 75.155017 
L 294.180356 53.205076 
L 296.219644 42.663064 
L 298.258931 80.91808 
L 300.298218 56.876434 
L 302.337506 62.910694 
L 304.376793 58.875813 
L 306.41608 45.215959 
L 308.455368 46.980463 
L 310.494655 50.962994 
L 312.533942 58.055133 
L 314.57323 72.856428 
L 316.612517 39.756973 
L 318.651804 56.241246 
L 320.691092 45.489236 
L 322.730379 42.565579 
L 324.769667 55.514079 
L 326.808954 63.013093 
L 328.848241 47.293083 
L 330.887529 44.749428 
L 332.926816 49.807995 
L 334.966103 44.496154 
L 337.005391 55.4971 
L 339.044678 47.377339 
L 341.083965 49.856671 
L 343.123253 52.817172 
L 345.16254 47.987819 
L 347.201827 53.41304 
L 349.241115 54.361107 
L 351.280402 42.267991 
L 353.319689 52.479072 
L 355.358977 54.857535 
L 357.398264 64.124228 
L 359.437551 82.516691 
L 361.476839 50.389383 
L 363.516126 56.537486 
L 365.555413 44.905405 
L 367.594701 69.3246 
L 369.633988 53.758703 
L 371.673275 59.274691 
L 373.712563 53.229904 
L 375.75185 69.167268 
L 377.791138 51.559148 
L 379.830425 91.486942 
L 381.869712 67.323288 
L 383.909 69.792192 
L 385.948287 101.217721 
L 387.987574 72.515298 
L 390.026862 78.803587 
L 392.066149 62.119464 
L 394.105436 63.481664 
L 396.144724 98.45334 
L 398.184011 84.485554 
L 400.223298 85.741204 
L 402.262586 56.247961 
L 404.301873 80.730083 
L 406.34116 73.132069 
L 408.380448 68.002113 
L 410.419735 50.221865 
L 412.459022 69.17724 
L 414.49831 106.826231 
L 416.537597 78.544656 
L 418.576884 115.083866 
L 420.616172 100.543083 
L 422.655459 83.510703 
L 424.694746 79.767589 
L 426.734034 66.174801 
L 428.773321 66.792783 
L 430.812608 63.250673 
L 432.851896 61.191632 
L 434.891183 68.707572 
L 436.930471 59.16761 
L 438.969758 60.610584 
L 441.009045 72.189125 
L 443.048333 47.049702 
L 445.08762 62.151233 
L 447.126907 69.588969 
L 449.166195 66.824236 
L 451.205482 55.936317 
L 453.244769 63.655324 
L 455.284057 62.999555 
L 457.323344 55.551782 
L 459.362631 52.800438 
L 461.401919 58.967429 
L 465.480493 62.631678 
L 467.519781 60.998607 
L 469.559068 53.944344 
L 471.598355 67.974178 
L 473.637643 68.853393 
L 475.67693 72.382996 
L 477.716217 49.777048 
L 479.755505 64.868411 
L 481.794792 59.827261 
L 483.834079 62.869151 
L 485.873367 68.173334 
L 487.912654 66.855308 
L 489.951942 46.875482 
L 491.991229 54.304857 
L 494.030516 43.761007 
L 496.069804 62.411285 
L 498.109091 58.514734 
L 498.109091 58.514734 
" clip-path="url(#p88fd117a22)" style="fill: none; stroke: #ff0000; stroke-opacity: 0.9; stroke-width: 1.5; stroke-linecap: square"/>
   </g>
   <g id="line2d_14">
    <path d="M 92.290909 61.758069 
L 94.330196 105.870042 
L 96.369484 130.458033 
L 98.408771 104.560962 
L 100.448058 89.068092 
L 102.487346 108.040809 
L 104.526633 98.354072 
L 106.565921 68.640181 
L 108.605208 116.316264 
L 110.644495 45.967035 
L 112.683783 82.390521 
L 114.72307 123.986678 
L 116.762357 122.280575 
L 118.801645 111.831502 
L 120.840932 68.505106 
L 122.880219 117.245342 
L 124.919507 69.793337 
L 126.958794 66.782537 
L 128.998081 88.572696 
L 131.037369 64.588827 
L 133.076656 53.255196 
L 135.115943 53.595956 
L 137.155231 108.315812 
L 139.194518 108.601658 
L 141.233805 126.090424 
L 143.273093 122.611722 
L 145.31238 121.473946 
L 147.351667 117.067298 
L 149.390955 118.016761 
L 151.430242 110.900814 
L 153.469529 107.692928 
L 155.508817 112.298528 
L 157.548104 128.516741 
L 159.587392 109.837157 
L 161.626679 122.336373 
L 163.665966 98.4633 
L 165.705254 94.294936 
L 167.744541 112.128607 
L 169.783828 48.208533 
L 171.823116 54.750109 
L 173.862403 75.24943 
L 175.90169 48.194763 
L 177.940978 42.864813 
L 179.980265 70.463192 
L 182.019552 67.735727 
L 184.05884 70.916746 
L 186.098127 64.845575 
L 188.137414 56.882928 
L 190.176702 66.707745 
L 192.215989 61.29941 
L 194.255276 48.309706 
L 196.294564 69.28791 
L 198.333851 75.49675 
L 200.373138 96.625689 
L 202.412426 71.547604 
L 204.451713 53.711177 
L 206.491 44.948029 
L 208.530288 76.811489 
L 210.569575 57.456563 
L 212.608862 110.873237 
L 214.64815 109.790054 
L 216.687437 93.651751 
L 218.726725 92.70214 
L 220.766012 110.395954 
L 222.805299 122.414582 
L 224.844587 122.046317 
L 226.883874 68.507337 
L 228.923161 60.243667 
L 230.962449 80.205852 
L 233.001736 73.180811 
L 235.041023 41.011589 
L 237.080311 60.835205 
L 239.119598 52.754147 
L 241.158885 74.519985 
L 243.198173 50.797748 
L 245.23746 84.653614 
L 247.276747 49.759807 
L 249.316035 99.078598 
L 251.355322 74.894423 
L 253.394609 112.467519 
L 257.473184 69.630656 
L 259.512471 64.963199 
L 261.551759 57.602223 
L 263.591046 69.424213 
L 265.630333 67.756374 
L 267.669621 60.105217 
L 269.708908 49.819195 
L 271.748196 41.927123 
L 273.787483 60.412287 
L 275.82677 50.05161 
L 277.866058 66.421637 
L 279.905345 56.738425 
L 281.944632 78.149661 
L 283.98392 65.003873 
L 286.023207 59.929821 
L 288.062494 53.975702 
L 290.101782 68.916693 
L 292.141069 74.7188 
L 294.180356 53.823219 
L 296.219644 42.410305 
L 298.258931 81.247783 
L 300.298218 57.249726 
L 302.337506 62.81621 
L 304.376793 59.811338 
L 306.41608 44.496849 
L 308.455368 47.52837 
L 310.494655 50.970043 
L 312.533942 57.979673 
L 314.57323 72.628622 
L 316.612517 40.489025 
L 318.651804 56.253371 
L 320.691092 45.68792 
L 322.730379 43.052047 
L 324.769667 55.79337 
L 326.808954 63.527561 
L 328.848241 47.173505 
L 330.887529 45.304173 
L 332.926816 49.226875 
L 334.966103 44.591211 
L 337.005391 55.699702 
L 339.044678 47.089857 
L 341.083965 50.244641 
L 343.123253 52.639307 
L 345.16254 47.916131 
L 347.201827 53.993748 
L 349.241115 53.841838 
L 351.280402 41.619564 
L 353.319689 52.243859 
L 355.358977 55.115279 
L 357.398264 64.420749 
L 359.437551 83.519583 
L 361.476839 50.009386 
L 363.516126 56.557316 
L 365.555413 44.568036 
L 367.594701 69.712444 
L 369.633988 53.605594 
L 371.673275 59.53646 
L 373.712563 52.601616 
L 375.75185 68.993131 
L 377.791138 51.554311 
L 379.830425 91.800644 
L 381.869712 67.595267 
L 383.909 69.874779 
L 385.948287 101.107629 
L 387.987574 73.219862 
L 390.026862 78.588824 
L 392.066149 62.195121 
L 394.105436 63.777528 
L 396.144724 98.539803 
L 398.184011 83.947785 
L 400.223298 84.846131 
L 402.262586 56.359013 
L 404.301873 81.248493 
L 406.34116 72.787671 
L 408.380448 67.832621 
L 410.419735 50.46916 
L 412.459022 68.98629 
L 414.49831 107.332368 
L 416.537597 78.355448 
L 418.576884 115.331114 
L 420.616172 100.76743 
L 422.655459 83.951208 
L 424.694746 79.61819 
L 426.734034 66.087425 
L 428.773321 67.434704 
L 430.812608 63.437102 
L 432.851896 60.69468 
L 434.891183 69.357281 
L 436.930471 59.440121 
L 438.969758 61.07894 
L 441.009045 72.317556 
L 443.048333 46.867493 
L 445.08762 62.300621 
L 447.126907 69.569515 
L 449.166195 66.655735 
L 451.205482 56.149153 
L 453.244769 64.05073 
L 455.284057 62.817844 
L 457.323344 55.854779 
L 459.362631 53.075351 
L 461.401919 58.995268 
L 463.441206 60.472784 
L 465.480493 62.627211 
L 467.519781 59.846352 
L 469.559068 53.922898 
L 471.598355 67.728213 
L 473.637643 68.662104 
L 475.67693 72.484351 
L 477.716217 50.04508 
L 479.755505 64.796111 
L 481.794792 60.393752 
L 483.834079 63.066123 
L 485.873367 68.906232 
L 487.912654 67.161287 
L 489.951942 47.491406 
L 491.991229 53.85444 
L 494.030516 43.993566 
L 496.069804 62.546681 
L 498.109091 58.366647 
L 498.109091 58.366647 
" clip-path="url(#p88fd117a22)" style="fill: none; stroke: #ff0000; stroke-opacity: 0.9; stroke-width: 1.5; stroke-linecap: square"/>
   </g>
   <g id="line2d_15">
    <path d="M 92.290909 61.668809 
L 94.330196 105.771329 
L 96.369484 130.301769 
L 98.408771 105.567068 
L 100.448058 89.135119 
L 102.487346 107.743692 
L 104.526633 98.686919 
L 106.565921 68.606998 
L 108.605208 116.093492 
L 110.644495 45.59699 
L 112.683783 82.231633 
L 114.72307 123.591647 
L 116.762357 122.214663 
L 118.801645 112.492364 
L 120.840932 68.615437 
L 122.880219 117.254777 
L 124.919507 70.421147 
L 126.958794 66.768934 
L 128.998081 88.483471 
L 131.037369 64.772542 
L 133.076656 53.09372 
L 135.115943 53.631137 
L 137.155231 108.429137 
L 139.194518 108.391088 
L 141.233805 126.684157 
L 143.273093 123.066701 
L 145.31238 121.627216 
L 147.351667 116.967142 
L 149.390955 118.112063 
L 151.430242 110.418604 
L 153.469529 107.590434 
L 155.508817 112.897844 
L 157.548104 128.769392 
L 159.587392 109.732647 
L 161.626679 122.233008 
L 163.665966 98.212611 
L 165.705254 95.107833 
L 167.744541 111.76627 
L 169.783828 47.73487 
L 171.823116 55.259239 
L 173.862403 74.961259 
L 175.90169 48.506083 
L 177.940978 42.717286 
L 179.980265 70.685207 
L 182.019552 67.741375 
L 184.05884 71.179535 
L 186.098127 64.863335 
L 188.137414 56.701485 
L 190.176702 66.886874 
L 192.215989 60.907176 
L 194.255276 48.478285 
L 196.294564 69.789687 
L 198.333851 75.333049 
L 200.373138 96.624621 
L 202.412426 71.135123 
L 204.451713 53.963798 
L 206.491 45.028898 
L 208.530288 76.518517 
L 210.569575 56.740238 
L 212.608862 111.712214 
L 214.64815 109.645193 
L 216.687437 93.528348 
L 218.726725 92.463027 
L 220.766012 109.304147 
L 222.805299 122.156707 
L 224.844587 121.927005 
L 226.883874 67.964618 
L 228.923161 60.094219 
L 230.962449 80.186696 
L 233.001736 73.390648 
L 235.041023 41.796722 
L 237.080311 60.992733 
L 239.119598 52.920608 
L 241.158885 74.734056 
L 243.198173 50.7382 
L 245.23746 84.322521 
L 247.276747 49.864221 
L 249.316035 99.33754 
L 251.355322 74.508999 
L 253.394609 112.373971 
L 255.433897 90.197262 
L 257.473184 69.804698 
L 259.512471 65.575259 
L 261.551759 57.99986 
L 263.591046 69.101303 
L 265.630333 67.545124 
L 267.669621 60.07377 
L 269.708908 49.650979 
L 271.748196 42.078237 
L 273.787483 60.825955 
L 275.82677 49.995682 
L 277.866058 66.164412 
L 279.905345 56.669239 
L 281.944632 78.057228 
L 283.98392 65.251597 
L 286.023207 60.045847 
L 288.062494 54.237012 
L 290.101782 69.231242 
L 292.141069 74.879823 
L 294.180356 53.384074 
L 296.219644 43.284388 
L 298.258931 80.895095 
L 300.298218 56.954041 
L 302.337506 62.901015 
L 304.376793 58.970834 
L 306.41608 44.759581 
L 308.455368 47.320704 
L 310.494655 50.645057 
L 312.533942 58.535667 
L 314.57323 72.285888 
L 316.612517 40.445734 
L 318.651804 56.094691 
L 320.691092 45.361225 
L 322.730379 42.469872 
L 324.769667 56.179592 
L 326.808954 63.319722 
L 328.848241 47.20995 
L 330.887529 44.850145 
L 332.926816 49.286376 
L 334.966103 44.557557 
L 337.005391 56.745492 
L 339.044678 46.975599 
L 341.083965 49.848101 
L 343.123253 51.996719 
L 345.16254 48.329148 
L 347.201827 53.770338 
L 349.241115 54.060919 
L 351.280402 41.985706 
L 353.319689 53.312365 
L 355.358977 54.804952 
L 357.398264 64.140885 
L 359.437551 82.87421 
L 361.476839 50.249585 
L 363.516126 56.753991 
L 365.555413 44.616137 
L 367.594701 69.384148 
L 369.633988 53.599654 
L 371.673275 60.165553 
L 373.712563 52.734317 
L 375.75185 69.03353 
L 377.791138 51.632312 
L 379.830425 92.240415 
L 381.869712 67.370098 
L 383.909 70.640681 
L 385.948287 100.845412 
L 387.987574 73.086166 
L 390.026862 79.37427 
L 392.066149 62.135763 
L 394.105436 63.748276 
L 396.144724 98.654058 
L 398.184011 83.913183 
L 400.223298 84.831532 
L 402.262586 56.513566 
L 404.301873 81.160449 
L 406.34116 73.481029 
L 408.380448 68.485038 
L 410.419735 50.289417 
L 412.459022 69.344936 
L 414.49831 106.771424 
L 416.537597 78.86137 
L 418.576884 115.44884 
L 420.616172 100.947739 
L 422.655459 83.698044 
L 424.694746 80.45923 
L 426.734034 66.462173 
L 428.773321 66.656886 
L 430.812608 63.260072 
L 432.851896 61.441796 
L 434.891183 69.454831 
L 436.930471 59.391581 
L 438.969758 60.845224 
L 441.009045 71.988473 
L 443.048333 47.895565 
L 445.08762 61.875013 
L 447.126907 70.055065 
L 449.166195 67.186526 
L 451.205482 56.097822 
L 453.244769 64.402393 
L 455.284057 62.631946 
L 457.323344 55.965808 
L 459.362631 52.441536 
L 461.401919 58.690303 
L 465.480493 63.228482 
L 467.519781 60.542895 
L 469.559068 54.103924 
L 471.598355 67.812982 
L 473.637643 68.794954 
L 475.67693 71.899421 
L 477.716217 49.758119 
L 479.755505 64.98415 
L 481.794792 60.300323 
L 483.834079 62.7767 
L 485.873367 68.472126 
L 487.912654 66.954939 
L 489.951942 47.217056 
L 491.991229 53.488298 
L 494.030516 43.893105 
L 496.069804 61.943692 
L 498.109091 58.312949 
L 498.109091 58.312949 
" clip-path="url(#p88fd117a22)" style="fill: none; stroke: #ff0000; stroke-opacity: 0.9; stroke-width: 1.5; stroke-linecap: square"/>
   </g>
   <g id="line2d_16">
    <path d="M 92.290909 61.610244 
L 94.330196 105.674214 
L 96.369484 130.532699 
L 98.408771 105.070903 
L 100.448058 89.643009 
L 102.487346 108.112745 
L 104.526633 98.683227 
L 106.565921 67.963461 
L 108.605208 115.056838 
L 110.644495 45.905853 
L 112.683783 82.511085 
L 114.72307 123.757382 
L 116.762357 122.582594 
L 118.801645 111.611307 
L 120.840932 68.647439 
L 122.880219 116.846506 
L 124.919507 70.182601 
L 126.958794 67.050784 
L 128.998081 88.376206 
L 131.037369 64.546562 
L 133.076656 52.614713 
L 135.115943 53.990623 
L 137.155231 108.85005 
L 139.194518 108.401858 
L 141.233805 126.933898 
L 143.273093 122.720084 
L 145.31238 121.071496 
L 147.351667 117.135107 
L 149.390955 118.108043 
L 151.430242 110.337639 
L 153.469529 107.888935 
L 155.508817 112.864709 
L 157.548104 128.967283 
L 159.587392 110.288677 
L 161.626679 122.204322 
L 163.665966 98.388048 
L 165.705254 94.382908 
L 167.744541 112.009045 
L 169.783828 48.012601 
L 171.823116 54.426381 
L 173.862403 75.041144 
L 175.90169 48.157901 
L 177.940978 42.882621 
L 179.980265 70.311861 
L 182.019552 66.803065 
L 184.05884 71.018179 
L 186.098127 64.985713 
L 188.137414 57.230618 
L 190.176702 66.963491 
L 192.215989 60.557661 
L 194.255276 48.737637 
L 196.294564 69.420527 
L 198.333851 75.320113 
L 200.373138 96.909512 
L 202.412426 71.828994 
L 204.451713 53.811411 
L 206.491 45.512906 
L 208.530288 76.583177 
L 210.569575 57.035602 
L 212.608862 111.067514 
L 214.64815 108.895387 
L 216.687437 93.811235 
L 218.726725 92.532946 
L 220.766012 109.656107 
L 222.805299 122.108161 
L 224.844587 121.738214 
L 226.883874 68.35359 
L 228.923161 59.738502 
L 230.962449 80.669091 
L 233.001736 73.573975 
L 235.041023 41.975195 
L 237.080311 60.620329 
L 239.119598 53.064605 
L 241.158885 75.60111 
L 243.198173 50.956565 
L 245.23746 85.136265 
L 247.276747 49.832655 
L 249.316035 99.046041 
L 251.355322 75.170869 
L 253.394609 111.675763 
L 257.473184 69.186627 
L 259.512471 65.460158 
L 261.551759 58.248706 
L 263.591046 69.013068 
L 265.630333 67.529797 
L 267.669621 59.784221 
L 269.708908 49.838482 
L 271.748196 42.049444 
L 273.787483 59.94841 
L 275.82677 49.314731 
L 277.866058 66.671253 
L 279.905345 56.643267 
L 281.944632 78.797325 
L 283.98392 65.107231 
L 288.062494 54.314482 
L 290.101782 68.612437 
L 292.141069 75.194766 
L 294.180356 53.543701 
L 296.219644 43.118478 
L 298.258931 81.109482 
L 300.298218 57.209131 
L 302.337506 62.64487 
L 304.376793 59.711587 
L 306.41608 45.293307 
L 308.455368 47.264808 
L 310.494655 50.520557 
L 312.533942 58.462157 
L 314.57323 72.512817 
L 316.612517 40.086089 
L 318.651804 55.798302 
L 320.691092 46.115194 
L 322.730379 42.56792 
L 324.769667 56.077373 
L 326.808954 62.986703 
L 328.848241 47.270176 
L 330.887529 45.11693 
L 332.926816 48.868325 
L 334.966103 44.912508 
L 337.005391 55.885958 
L 339.044678 47.427787 
L 341.083965 49.471227 
L 343.123253 52.211189 
L 345.16254 48.501798 
L 347.201827 53.932435 
L 349.241115 53.508748 
L 351.280402 42.240763 
L 353.319689 52.434791 
L 355.358977 55.501799 
L 357.398264 63.957659 
L 359.437551 83.403694 
L 361.476839 50.033599 
L 363.516126 57.019523 
L 365.555413 45.024354 
L 367.594701 69.511738 
L 369.633988 53.408138 
L 371.673275 59.951344 
L 373.712563 52.69229 
L 375.75185 68.534472 
L 377.791138 52.20247 
L 379.830425 91.606433 
L 381.869712 67.439278 
L 383.909 69.981925 
L 385.948287 101.157916 
L 387.987574 73.445473 
L 390.026862 78.416989 
L 392.066149 62.318756 
L 394.105436 63.885348 
L 396.144724 98.028824 
L 398.184011 83.611653 
L 400.223298 85.241222 
L 402.262586 56.355417 
L 404.301873 81.523395 
L 406.34116 73.084615 
L 408.380448 68.620625 
L 410.419735 49.82464 
L 412.459022 68.839867 
L 414.49831 107.151044 
L 416.537597 78.846276 
L 418.576884 115.555997 
L 420.616172 100.675694 
L 422.655459 83.585191 
L 424.694746 80.21441 
L 426.734034 65.873175 
L 428.773321 67.239001 
L 430.812608 63.215779 
L 432.851896 60.631034 
L 434.891183 69.154971 
L 436.930471 59.126764 
L 438.969758 61.137194 
L 441.009045 72.268706 
L 443.048333 46.738684 
L 445.08762 62.161515 
L 447.126907 69.854532 
L 449.166195 66.993292 
L 451.205482 56.253615 
L 453.244769 64.30826 
L 455.284057 62.745419 
L 457.323344 56.029346 
L 459.362631 52.598563 
L 461.401919 58.81831 
L 463.441206 61.133091 
L 465.480493 62.766048 
L 467.519781 60.738866 
L 469.559068 53.85382 
L 471.598355 67.993966 
L 473.637643 68.649568 
L 475.67693 71.446613 
L 477.716217 50.129247 
L 479.755505 65.522981 
L 481.794792 60.126108 
L 483.834079 62.782777 
L 485.873367 68.257745 
L 487.912654 66.807239 
L 489.951942 46.939223 
L 491.991229 53.216115 
L 494.030516 44.228722 
L 496.069804 63.010016 
L 498.109091 57.952854 
L 498.109091 57.952854 
" clip-path="url(#p88fd117a22)" style="fill: none; stroke: #ff0000; stroke-opacity: 0.9; stroke-width: 1.5; stroke-linecap: square"/>
   </g>
   <g id="line2d_17">
    <path d="M 92.290909 62.021228 
L 94.330196 105.553065 
L 96.369484 130.778182 
L 98.408771 104.561474 
L 100.448058 89.095012 
L 102.487346 107.326953 
L 104.526633 98.702168 
L 106.565921 68.081563 
L 108.605208 115.750632 
L 110.644495 45.893248 
L 112.683783 82.576753 
L 114.72307 123.779782 
L 116.762357 122.649103 
L 118.801645 111.782194 
L 120.840932 69.037537 
L 122.880219 117.020089 
L 124.919507 70.181498 
L 126.958794 67.218152 
L 128.998081 88.286827 
L 131.037369 64.828733 
L 133.076656 53.076997 
L 135.115943 53.178442 
L 137.155231 108.996748 
L 139.194518 107.754928 
L 141.233805 126.571894 
L 143.273093 122.677968 
L 145.31238 121.632524 
L 147.351667 117.676621 
L 149.390955 117.608049 
L 151.430242 110.545586 
L 153.469529 108.20411 
L 155.508817 112.981969 
L 157.548104 128.702418 
L 159.587392 110.270034 
L 161.626679 122.091498 
L 163.665966 98.621382 
L 165.705254 94.898074 
L 167.744541 112.110346 
L 169.783828 47.776211 
L 171.823116 54.73236 
L 173.862403 74.988174 
L 175.90169 48.495053 
L 177.940978 42.215891 
L 179.980265 70.493518 
L 182.019552 67.592089 
L 184.05884 70.689107 
L 186.098127 64.858308 
L 188.137414 56.859461 
L 190.176702 67.539565 
L 192.215989 60.581964 
L 194.255276 48.980707 
L 196.294564 69.427595 
L 198.333851 75.962529 
L 200.373138 97.345282 
L 202.412426 71.836032 
L 204.451713 53.731066 
L 206.491 45.465535 
L 208.530288 76.404644 
L 210.569575 56.89346 
L 212.608862 111.41208 
L 214.64815 109.059273 
L 216.687437 93.51951 
L 218.726725 92.999096 
L 220.766012 109.860165 
L 222.805299 121.605687 
L 224.844587 121.566779 
L 226.883874 68.116481 
L 228.923161 60.137624 
L 230.962449 80.655183 
L 233.001736 73.638027 
L 235.041023 41.54213 
L 237.080311 61.274583 
L 239.119598 52.930061 
L 241.158885 74.958277 
L 243.198173 50.713575 
L 245.23746 84.163335 
L 247.276747 50.299681 
L 249.316035 99.168311 
L 251.355322 75.639195 
L 253.394609 111.702422 
L 257.473184 69.161805 
L 259.512471 64.749122 
L 261.551759 57.522505 
L 263.591046 69.081127 
L 265.630333 67.950144 
L 267.669621 59.817761 
L 269.708908 49.89865 
L 271.748196 42.047464 
L 273.787483 60.118689 
L 275.82677 49.561993 
L 277.866058 66.357622 
L 279.905345 56.444212 
L 281.944632 78.306742 
L 283.98392 65.098972 
L 286.023207 60.060971 
L 288.062494 54.491822 
L 290.101782 69.370616 
L 292.141069 75.082957 
L 294.180356 53.480718 
L 296.219644 42.932034 
L 298.258931 80.636659 
L 300.298218 56.98646 
L 302.337506 62.536078 
L 304.376793 59.588178 
L 306.41608 44.758454 
L 308.455368 46.888199 
L 310.494655 50.652983 
L 312.533942 58.015581 
L 314.57323 73.160421 
L 316.612517 40.317789 
L 318.651804 56.30166 
L 320.691092 45.383378 
L 322.730379 42.762522 
L 324.769667 55.7818 
L 326.808954 63.202074 
L 328.848241 46.93515 
L 330.887529 45.524774 
L 332.926816 49.385685 
L 334.966103 44.5071 
L 337.005391 56.704455 
L 339.044678 47.52967 
L 341.083965 49.717011 
L 343.123253 52.781401 
L 345.16254 47.68944 
L 347.201827 54.200055 
L 349.241115 53.916935 
L 351.280402 41.491649 
L 353.319689 52.196685 
L 355.358977 54.982244 
L 357.398264 64.093479 
L 359.437551 82.8761 
L 361.476839 49.560711 
L 363.516126 56.506355 
L 365.555413 45.129564 
L 367.594701 69.79085 
L 369.633988 53.6121 
L 371.673275 59.849995 
L 373.712563 52.924419 
L 375.75185 68.367348 
L 377.791138 51.817608 
L 379.830425 92.471364 
L 381.869712 67.153117 
L 383.909 69.908552 
L 385.948287 101.4802 
L 387.987574 73.050901 
L 390.026862 78.444446 
L 392.066149 62.189813 
L 394.105436 63.83193 
L 396.144724 98.946631 
L 398.184011 84.034212 
L 400.223298 84.790412 
L 402.262586 56.190405 
L 404.301873 80.986717 
L 406.34116 73.514779 
L 408.380448 68.511607 
L 410.419735 50.320715 
L 412.459022 69.32544 
L 414.49831 107.205768 
L 416.537597 78.558063 
L 418.576884 115.457547 
L 420.616172 100.41906 
L 422.655459 83.727959 
L 424.694746 79.393587 
L 426.734034 66.361761 
L 428.773321 66.809893 
L 430.812608 63.492178 
L 432.851896 61.22528 
L 434.891183 69.113844 
L 436.930471 59.253811 
L 438.969758 60.735788 
L 441.009045 71.78129 
L 443.048333 47.015056 
L 445.08762 61.752051 
L 447.126907 69.585278 
L 449.166195 67.354568 
L 451.205482 56.450009 
L 453.244769 64.369425 
L 455.284057 62.870439 
L 457.323344 55.70043 
L 459.362631 52.52807 
L 461.401919 59.427221 
L 463.441206 61.109636 
L 465.480493 62.416891 
L 467.519781 60.645794 
L 469.559068 53.804827 
L 471.598355 67.979677 
L 473.637643 68.158675 
L 475.67693 71.679392 
L 477.716217 50.223917 
L 479.755505 65.56728 
L 481.794792 60.489739 
L 483.834079 62.494373 
L 485.873367 68.150242 
L 487.912654 66.868631 
L 489.951942 46.572663 
L 491.991229 53.813785 
L 494.030516 43.826788 
L 496.069804 62.971185 
L 498.109091 58.793459 
L 498.109091 58.793459 
" clip-path="url(#p88fd117a22)" style="fill: none; stroke: #ff0000; stroke-opacity: 0.9; stroke-width: 1.5; stroke-linecap: square"/>
   </g>
   <g id="line2d_18">
    <path d="M 92.290909 112.440908 
L 94.330196 100.900327 
L 96.369484 120.797805 
L 98.408771 101.073075 
L 100.448058 91.681135 
L 102.487346 104.97955 
L 104.526633 99.127423 
L 106.565921 66.532612 
L 108.605208 112.833923 
L 110.644495 46.193594 
L 112.683783 81.005318 
L 114.72307 119.444891 
L 116.762357 121.664239 
L 118.801645 112.830035 
L 120.840932 69.481746 
L 122.880219 112.741317 
L 124.919507 67.977488 
L 126.958794 63.51431 
L 128.998081 85.251838 
L 131.037369 63.386147 
L 133.076656 49.898215 
L 135.115943 52.209138 
L 137.155231 105.304935 
L 139.194518 109.495919 
L 141.233805 125.604278 
L 143.273093 121.630377 
L 145.31238 121.751943 
L 147.351667 113.632549 
L 149.390955 118.446346 
L 151.430242 109.533455 
L 153.469529 107.967824 
L 155.508817 114.875813 
L 157.548104 128.673696 
L 159.587392 109.86527 
L 161.626679 124.038778 
L 163.665966 95.96271 
L 165.705254 95.117697 
L 167.744541 113.167909 
L 169.783828 49.835195 
L 171.823116 54.404214 
L 173.862403 74.860023 
L 175.90169 50.610049 
L 177.940978 43.074116 
L 179.980265 68.73497 
L 182.019552 64.150231 
L 184.05884 70.59878 
L 186.098127 65.736783 
L 188.137414 59.340364 
L 190.176702 68.385914 
L 192.215989 61.342427 
L 194.255276 47.595042 
L 196.294564 68.667077 
L 198.333851 74.683966 
L 200.373138 92.827719 
L 202.412426 70.959578 
L 204.451713 52.274901 
L 206.491 42.316417 
L 208.530288 73.089231 
L 210.569575 57.876463 
L 212.608862 111.846448 
L 214.64815 106.062088 
L 216.687437 93.810466 
L 218.726725 92.41593 
L 220.766012 109.424592 
L 222.805299 121.219768 
L 224.844587 120.296081 
L 226.883874 69.837887 
L 228.923161 58.11987 
L 230.962449 79.035132 
L 233.001736 73.364944 
L 235.041023 43.790722 
L 237.080311 58.957809 
L 239.119598 51.551461 
L 241.158885 74.118871 
L 243.198173 52.071386 
L 245.23746 81.12958 
L 247.276747 50.137829 
L 249.316035 102.072478 
L 251.355322 76.93472 
L 253.394609 110.971891 
L 257.473184 71.898109 
L 259.512471 65.263567 
L 261.551759 56.866772 
L 263.591046 68.539804 
L 265.630333 63.827863 
L 267.669621 60.581767 
L 269.708908 48.403437 
L 271.748196 39.141818 
L 273.787483 61.83533 
L 275.82677 49.493994 
L 277.866058 65.359077 
L 279.905345 53.92235 
L 281.944632 81.786422 
L 283.98392 64.415668 
L 286.023207 62.794901 
L 288.062494 52.870691 
L 290.101782 67.074305 
L 292.141069 75.112847 
L 294.180356 54.075387 
L 296.219644 41.293644 
L 298.258931 78.794701 
L 300.298218 55.189898 
L 302.337506 60.474108 
L 304.376793 58.009904 
L 306.41608 44.612195 
L 308.455368 45.363533 
L 310.494655 56.314798 
L 312.533942 60.708009 
L 314.57323 72.463413 
L 316.612517 40.234156 
L 318.651804 56.545728 
L 320.691092 46.084045 
L 322.730379 42.022303 
L 326.808954 62.708217 
L 328.848241 45.917369 
L 332.926816 47.560938 
L 334.966103 45.814344 
L 337.005391 56.229199 
L 339.044678 40.664948 
L 341.083965 50.065518 
L 343.123253 56.263992 
L 345.16254 48.652512 
L 347.201827 52.530522 
L 349.241115 54.532024 
L 351.280402 41.045478 
L 353.319689 58.38925 
L 355.358977 57.670318 
L 357.398264 64.790267 
L 359.437551 83.254486 
L 361.476839 47.647118 
L 363.516126 55.886209 
L 365.555413 45.754721 
L 367.594701 69.975478 
L 369.633988 52.931099 
L 371.673275 62.307097 
L 373.712563 51.791934 
L 375.75185 68.317515 
L 377.791138 49.915337 
L 379.830425 94.206749 
L 381.869712 66.370873 
L 383.909 72.437738 
L 385.948287 100.260756 
L 387.987574 72.257184 
L 390.026862 80.206872 
L 392.066149 62.065044 
L 394.105436 66.754722 
L 396.144724 101.163963 
L 398.184011 83.562749 
L 400.223298 83.832558 
L 402.262586 58.958114 
L 404.301873 80.068905 
L 406.34116 68.354341 
L 408.380448 69.283861 
L 410.419735 46.926618 
L 412.459022 68.692287 
L 414.49831 105.432 
L 416.537597 78.614528 
L 418.576884 113.201163 
L 420.616172 106.048849 
L 422.655459 86.28013 
L 424.694746 81.196745 
L 426.734034 61.497683 
L 428.773321 66.154995 
L 430.812608 64.531581 
L 432.851896 63.561191 
L 434.891183 71.068746 
L 436.930471 59.995972 
L 438.969758 59.96892 
L 441.009045 71.145446 
L 443.048333 47.78518 
L 445.08762 60.204455 
L 447.126907 69.592941 
L 449.166195 66.436117 
L 451.205482 56.336655 
L 453.244769 64.301413 
L 455.284057 62.292241 
L 457.323344 52.904953 
L 459.362631 49.752501 
L 461.401919 60.265256 
L 463.441206 60.207234 
L 465.480493 62.407838 
L 467.519781 54.677619 
L 469.559068 56.017609 
L 471.598355 67.87766 
L 473.637643 67.996065 
L 475.67693 70.371212 
L 477.716217 49.981279 
L 479.755505 65.029547 
L 481.794792 57.737602 
L 483.834079 61.522659 
L 485.873367 66.293374 
L 487.912654 66.900573 
L 489.951942 46.406857 
L 491.991229 49.611627 
L 494.030516 43.751 
L 496.069804 64.394007 
L 498.109091 58.656619 
L 498.109091 58.656619 
" clip-path="url(#p88fd117a22)" style="fill: none; stroke: #008000; stroke-opacity: 0.9; stroke-width: 1.5; stroke-linecap: square"/>
   </g>
   <g id="line2d_19">
    <path d="M 153.469529 135.36 
L 153.469529 34.56 
" clip-path="url(#p88fd117a22)" style="fill: none; stroke-dasharray: 5.55,2.4; stroke-dashoffset: 0; stroke: #000000; stroke-width: 1.5"/>
   </g>
   <g id="line2d_20">
    <path d="M 438.969758 135.36 
L 438.969758 34.56 
" clip-path="url(#p88fd117a22)" style="fill: none; stroke-dasharray: 5.55,2.4; stroke-dashoffset: 0; stroke: #0000ff; stroke-width: 1.5"/>
   </g>
   <g id="patch_3">
    <path d="M 72 135.36 
L 72 34.56 
" style="fill: none; stroke: #000000; stroke-width: 0.8; stroke-linejoin: miter; stroke-linecap: square"/>
   </g>
   <g id="patch_4">
    <path d="M 518.4 135.36 
L 518.4 34.56 
" style="fill: none; stroke: #000000; stroke-width: 0.8; stroke-linejoin: miter; stroke-linecap: square"/>
   </g>
   <g id="patch_5">
    <path d="M 72 135.36 
L 518.4 135.36 
" style="fill: none; stroke: #000000; stroke-width: 0.8; stroke-linejoin: miter; stroke-linecap: square"/>
   </g>
   <g id="patch_6">
    <path d="M 72 34.56 
L 518.4 34.56 
" style="fill: none; stroke: #000000; stroke-width: 0.8; stroke-linejoin: miter; stroke-linecap: square"/>
   </g>
  </g>
  <g id="axes_2">
   <g id="patch_7">
    <path d="M 72 256.32 
L 518.4 256.32 
L 518.4 155.52 
L 72 155.52 
z
" style="fill: #ffffff"/>
   </g>
   <g id="matplotlib.axis_3">
    <g id="xtick_10">
     <g id="line2d_21">
      <g>
       <use xlink:href="#mda4bc82a23" x="92.290909" y="256.32" style="stroke: #000000; stroke-width: 0.8"/>
      </g>
     </g>
     <g id="text_4">
      <!-- 0 -->
      <g transform="translate(89.109659 270.918437) scale(0.1 -0.1)">
       <use xlink:href="#DejaVuSans-30"/>
      </g>
     </g>
    </g>
    <g id="xtick_11">
     <g id="line2d_22">
      <g>
       <use xlink:href="#mda4bc82a23" x="143.273093" y="256.32" style="stroke: #000000; stroke-width: 0.8"/>
      </g>
     </g>
     <g id="text_5">
      <!-- 25 -->
      <g transform="translate(136.910593 270.918437) scale(0.1 -0.1)">
       <defs>
        <path id="DejaVuSans-32" d="M 1228 531 
L 3431 531 
L 3431 0 
L 469 0 
L 469 531 
Q 828 903 1448 1529 
Q 2069 2156 2228 2338 
Q 2531 2678 2651 2914 
Q 2772 3150 2772 3378 
Q 2772 3750 2511 3984 
Q 2250 4219 1831 4219 
Q 1534 4219 1204 4116 
Q 875 4013 500 3803 
L 500 4441 
Q 881 4594 1212 4672 
Q 1544 4750 1819 4750 
Q 2544 4750 2975 4387 
Q 3406 4025 3406 3419 
Q 3406 3131 3298 2873 
Q 3191 2616 2906 2266 
Q 2828 2175 2409 1742 
Q 1991 1309 1228 531 
z
" transform="scale(0.015625)"/>
       </defs>
       <use xlink:href="#DejaVuSans-32"/>
       <use xlink:href="#DejaVuSans-35" transform="translate(63.623047 0)"/>
      </g>
     </g>
    </g>
    <g id="xtick_12">
     <g id="line2d_23">
      <g>
       <use xlink:href="#mda4bc82a23" x="194.255276" y="256.32" style="stroke: #000000; stroke-width: 0.8"/>
      </g>
     </g>
     <g id="text_6">
      <!-- 50 -->
      <g transform="translate(187.892776 270.918437) scale(0.1 -0.1)">
       <use xlink:href="#DejaVuSans-35"/>
       <use xlink:href="#DejaVuSans-30" transform="translate(63.623047 0)"/>
      </g>
     </g>
    </g>
    <g id="xtick_13">
     <g id="line2d_24">
      <g>
       <use xlink:href="#mda4bc82a23" x="245.23746" y="256.32" style="stroke: #000000; stroke-width: 0.8"/>
      </g>
     </g>
     <g id="text_7">
      <!-- 75 -->
      <g transform="translate(238.87496 270.918437) scale(0.1 -0.1)">
       <defs>
        <path id="DejaVuSans-37" d="M 525 4666 
L 3525 4666 
L 3525 4397 
L 1831 0 
L 1172 0 
L 2766 4134 
L 525 4134 
L 525 4666 
z
" transform="scale(0.015625)"/>
       </defs>
       <use xlink:href="#DejaVuSans-37"/>
       <use xlink:href="#DejaVuSans-35" transform="translate(63.623047 0)"/>
      </g>
     </g>
    </g>
    <g id="xtick_14">
     <g id="line2d_25">
      <g>
       <use xlink:href="#mda4bc82a23" x="296.219644" y="256.32" style="stroke: #000000; stroke-width: 0.8"/>
      </g>
     </g>
     <g id="text_8">
      <!-- 100 -->
      <g transform="translate(286.675894 270.918437) scale(0.1 -0.1)">
       <use xlink:href="#DejaVuSans-31"/>
       <use xlink:href="#DejaVuSans-30" transform="translate(63.623047 0)"/>
       <use xlink:href="#DejaVuSans-30" transform="translate(127.246094 0)"/>
      </g>
     </g>
    </g>
    <g id="xtick_15">
     <g id="line2d_26">
      <g>
       <use xlink:href="#mda4bc82a23" x="347.201827" y="256.32" style="stroke: #000000; stroke-width: 0.8"/>
      </g>
     </g>
     <g id="text_9">
      <!-- 125 -->
      <g transform="translate(337.658077 270.918437) scale(0.1 -0.1)">
       <use xlink:href="#DejaVuSans-31"/>
       <use xlink:href="#DejaVuSans-32" transform="translate(63.623047 0)"/>
       <use xlink:href="#DejaVuSans-35" transform="translate(127.246094 0)"/>
      </g>
     </g>
    </g>
    <g id="xtick_16">
     <g id="line2d_27">
      <g>
       <use xlink:href="#mda4bc82a23" x="398.184011" y="256.32" style="stroke: #000000; stroke-width: 0.8"/>
      </g>
     </g>
     <g id="text_10">
      <!-- 150 -->
      <g transform="translate(388.640261 270.918437) scale(0.1 -0.1)">
       <use xlink:href="#DejaVuSans-31"/>
       <use xlink:href="#DejaVuSans-35" transform="translate(63.623047 0)"/>
       <use xlink:href="#DejaVuSans-30" transform="translate(127.246094 0)"/>
      </g>
     </g>
    </g>
    <g id="xtick_17">
     <g id="line2d_28">
      <g>
       <use xlink:href="#mda4bc82a23" x="449.166195" y="256.32" style="stroke: #000000; stroke-width: 0.8"/>
      </g>
     </g>
     <g id="text_11">
      <!-- 175 -->
      <g transform="translate(439.622445 270.918437) scale(0.1 -0.1)">
       <use xlink:href="#DejaVuSans-31"/>
       <use xlink:href="#DejaVuSans-37" transform="translate(63.623047 0)"/>
       <use xlink:href="#DejaVuSans-35" transform="translate(127.246094 0)"/>
      </g>
     </g>
    </g>
    <g id="xtick_18">
     <g id="line2d_29">
      <g>
       <use xlink:href="#mda4bc82a23" x="500.148378" y="256.32" style="stroke: #000000; stroke-width: 0.8"/>
      </g>
     </g>
     <g id="text_12">
      <!-- 200 -->
      <g transform="translate(490.604628 270.918437) scale(0.1 -0.1)">
       <use xlink:href="#DejaVuSans-32"/>
       <use xlink:href="#DejaVuSans-30" transform="translate(63.623047 0)"/>
       <use xlink:href="#DejaVuSans-30" transform="translate(127.246094 0)"/>
      </g>
     </g>
    </g>
   </g>
   <g id="matplotlib.axis_4">
    <g id="ytick_4">
     <g id="line2d_30">
      <g>
       <use xlink:href="#m0ca7d541fb" x="72" y="254.372525" style="stroke: #000000; stroke-width: 0.8"/>
      </g>
     </g>
     <g id="text_13">
      <!-- −200 -->
      <g transform="translate(37.532812 258.171743) scale(0.1 -0.1)">
       <use xlink:href="#DejaVuSans-2212"/>
       <use xlink:href="#DejaVuSans-32" transform="translate(83.789062 0)"/>
       <use xlink:href="#DejaVuSans-30" transform="translate(147.412109 0)"/>
       <use xlink:href="#DejaVuSans-30" transform="translate(211.035156 0)"/>
      </g>
     </g>
    </g>
    <g id="ytick_5">
     <g id="line2d_31">
      <g>
       <use xlink:href="#m0ca7d541fb" x="72" y="229.571516" style="stroke: #000000; stroke-width: 0.8"/>
      </g>
     </g>
     <g id="text_14">
      <!-- −100 -->
      <g transform="translate(37.532812 233.370734) scale(0.1 -0.1)">
       <use xlink:href="#DejaVuSans-2212"/>
       <use xlink:href="#DejaVuSans-31" transform="translate(83.789062 0)"/>
       <use xlink:href="#DejaVuSans-30" transform="translate(147.412109 0)"/>
       <use xlink:href="#DejaVuSans-30" transform="translate(211.035156 0)"/>
      </g>
     </g>
    </g>
    <g id="ytick_6">
     <g id="line2d_32">
      <g>
       <use xlink:href="#m0ca7d541fb" x="72" y="204.770507" style="stroke: #000000; stroke-width: 0.8"/>
      </g>
     </g>
     <g id="text_15">
      <!-- 0 -->
      <g transform="translate(58.6375 208.569726) scale(0.1 -0.1)">
       <use xlink:href="#DejaVuSans-30"/>
      </g>
     </g>
    </g>
    <g id="ytick_7">
     <g id="line2d_33">
      <g>
       <use xlink:href="#m0ca7d541fb" x="72" y="179.969498" style="stroke: #000000; stroke-width: 0.8"/>
      </g>
     </g>
     <g id="text_16">
      <!-- 100 -->
      <g transform="translate(45.9125 183.768717) scale(0.1 -0.1)">
       <use xlink:href="#DejaVuSans-31"/>
       <use xlink:href="#DejaVuSans-30" transform="translate(63.623047 0)"/>
       <use xlink:href="#DejaVuSans-30" transform="translate(127.246094 0)"/>
      </g>
     </g>
    </g>
   </g>
   <g id="line2d_34">
    <path d="M 92.290909 176.380451 
L 96.369484 163.540899 
L 98.408771 163.386726 
L 100.448058 169.70223 
L 102.487346 166.188752 
L 104.526633 168.315934 
L 106.565921 162.226506 
L 108.605208 164.704862 
L 110.644495 175.458184 
L 112.683783 249.040258 
L 114.72307 161.931782 
L 116.762357 163.208173 
L 118.801645 169.907481 
L 120.840932 161.195199 
L 122.880219 167.897069 
L 124.919507 165.951191 
L 126.958794 180.191288 
L 128.998081 163.317597 
L 131.037369 166.833099 
L 133.076656 173.676796 
L 135.115943 167.624396 
L 137.155231 165.605658 
L 139.194518 165.298575 
L 141.233805 167.475623 
L 143.273093 164.69192 
L 145.31238 161.032844 
L 147.351667 160.643935 
L 149.390955 163.748463 
L 151.430242 162.201541 
L 153.469529 163.882125 
L 155.508817 167.767342 
L 157.548104 163.421424 
L 159.587392 165.137911 
L 161.626679 168.137911 
L 163.665966 168.132859 
L 165.705254 250.544558 
L 167.744541 162.038228 
L 169.783828 167.858014 
L 171.823116 166.355728 
L 173.862403 166.753076 
L 175.90169 172.225676 
L 177.940978 170.568698 
L 179.980265 184.695451 
L 182.019552 169.503556 
L 184.05884 172.549089 
L 186.098127 187.844225 
L 188.137414 173.035955 
L 190.176702 173.959026 
L 192.215989 197.718126 
L 194.255276 193.121585 
L 196.294564 189.903174 
L 198.333851 188.058865 
L 200.373138 171.534226 
L 202.412426 164.180898 
L 204.451713 167.580997 
L 206.491 166.231205 
L 208.530288 174.32637 
L 210.569575 165.903414 
L 212.608862 163.473955 
L 214.64815 168.382841 
L 216.687437 161.3623 
L 218.726725 167.192456 
L 220.766012 166.264102 
L 222.805299 169.670419 
L 224.844587 162.074145 
L 226.883874 177.678564 
L 228.923161 186.743442 
L 230.962449 166.374336 
L 233.001736 170.936044 
L 235.041023 166.063627 
L 237.080311 166.242074 
L 239.119598 168.383223 
L 241.158885 164.557712 
L 243.198173 170.377162 
L 245.23746 162.047844 
L 247.276747 163.891745 
L 249.316035 164.572426 
L 251.355322 169.32967 
L 253.394609 165.350647 
L 255.433897 162.910838 
L 257.473184 169.300178 
L 259.512471 163.866231 
L 261.551759 162.221836 
L 263.591046 164.72621 
L 265.630333 167.678402 
L 267.669621 163.221956 
L 269.708908 164.891933 
L 271.748196 164.980842 
L 273.787483 166.393716 
L 275.82677 162.11472 
L 277.866058 250.653887 
L 279.905345 168.103561 
L 281.944632 164.186257 
L 283.98392 162.814273 
L 286.023207 169.56244 
L 288.062494 171.030069 
L 290.101782 169.279705 
L 292.141069 171.181197 
L 294.180356 166.920752 
L 296.219644 167.399308 
L 298.258931 174.131153 
L 300.298218 169.418401 
L 302.337506 164.403538 
L 304.376793 170.092031 
L 306.41608 163.640458 
L 308.455368 167.203972 
L 310.494655 167.678796 
L 312.533942 163.300114 
L 314.57323 250.817529 
L 316.612517 160.139567 
L 318.651804 162.19043 
L 320.691092 161.832216 
L 322.730379 165.396135 
L 326.808954 164.13535 
L 328.848241 166.627084 
L 330.887529 166.82323 
L 332.926816 163.425636 
L 334.966103 164.762009 
L 337.005391 160.746555 
L 339.044678 162.968421 
L 341.083965 162.675888 
L 343.123253 162.717077 
L 345.16254 164.8537 
L 347.201827 163.271561 
L 349.241115 251.738182 
L 351.280402 162.882142 
L 353.319689 163.569392 
L 355.358977 170.288631 
L 357.398264 167.395883 
L 359.437551 170.986917 
L 361.476839 166.242403 
L 363.516126 165.755677 
L 365.555413 169.805951 
L 367.594701 166.992609 
L 369.633988 169.983323 
L 371.673275 165.436238 
L 373.712563 171.654125 
L 375.75185 175.626479 
L 377.791138 173.761119 
L 379.830425 165.798886 
L 381.869712 178.363285 
L 383.909 171.208981 
L 385.948287 169.574717 
L 387.987574 168.09695 
L 390.026862 172.030545 
L 392.066149 171.456972 
L 394.105436 171.668929 
L 396.144724 249.512188 
L 398.184011 164.549606 
L 400.223298 170.805643 
L 402.262586 171.008979 
L 404.301873 170.051229 
L 406.34116 167.090442 
L 408.380448 172.214115 
L 410.419735 166.350328 
L 412.459022 171.414474 
L 414.49831 164.81426 
L 416.537597 166.59656 
L 418.576884 160.529073 
L 420.616172 168.103932 
L 422.655459 167.237963 
L 424.694746 171.158177 
L 426.734034 167.488913 
L 428.773321 172.12152 
L 430.812608 175.461637 
L 432.851896 171.858997 
L 434.891183 173.31203 
L 436.930471 178.29184 
L 438.969758 170.352757 
L 441.009045 178.290412 
L 443.048333 171.531062 
L 445.08762 174.129164 
L 447.126907 175.04934 
L 449.166195 163.376693 
L 451.205482 169.149861 
L 453.244769 173.0264 
L 455.284057 178.607083 
L 457.323344 180.033936 
L 459.362631 173.291089 
L 461.401919 172.97387 
L 463.441206 176.858085 
L 465.480493 174.616698 
L 467.519781 174.758366 
L 469.559068 175.282572 
L 471.598355 170.194133 
L 473.637643 175.457785 
L 475.67693 177.89444 
L 477.716217 179.381322 
L 479.755505 172.996159 
L 481.794792 176.528046 
L 483.834079 170.54712 
L 485.873367 173.789713 
L 487.912654 177.657435 
L 489.951942 172.578883 
L 491.991229 168.749248 
L 494.030516 168.701364 
L 496.069804 173.449767 
L 498.109091 175.92944 
L 498.109091 175.92944 
" clip-path="url(#pcfeb10d0aa)" style="fill: none; stroke: #ff0000; stroke-opacity: 0.9; stroke-width: 1.5; stroke-linecap: square"/>
   </g>
   <g id="line2d_35">
    <path d="M 92.290909 176.339128 
L 96.369484 163.498685 
L 98.408771 163.364587 
L 100.448058 169.588416 
L 102.487346 166.08659 
L 104.526633 168.108537 
L 106.565921 162.561215 
L 108.605208 164.504781 
L 110.644495 175.335695 
L 112.683783 249.140929 
L 114.72307 161.761146 
L 116.762357 163.184885 
L 118.801645 169.856317 
L 120.840932 160.944529 
L 122.880219 167.701082 
L 124.919507 165.920432 
L 126.958794 180.26035 
L 128.998081 163.217566 
L 131.037369 166.81425 
L 133.076656 173.744163 
L 135.115943 167.622723 
L 137.155231 165.522975 
L 139.194518 165.163819 
L 141.233805 167.352749 
L 143.273093 164.783943 
L 145.31238 161.192773 
L 147.351667 160.666437 
L 149.390955 163.655561 
L 151.430242 162.171992 
L 153.469529 163.953854 
L 155.508817 168.082115 
L 157.548104 163.755937 
L 159.587392 165.176912 
L 161.626679 168.269163 
L 163.665966 168.43911 
L 165.705254 250.680612 
L 167.744541 162.084714 
L 169.783828 167.961289 
L 171.823116 166.388126 
L 173.862403 166.595474 
L 175.90169 172.21762 
L 177.940978 170.493943 
L 179.980265 184.678942 
L 182.019552 169.207822 
L 184.05884 172.596564 
L 186.098127 187.915931 
L 188.137414 172.989347 
L 190.176702 174.122648 
L 192.215989 197.898336 
L 194.255276 193.18517 
L 196.294564 189.851319 
L 198.333851 188.149331 
L 200.373138 171.497075 
L 202.412426 164.336124 
L 204.451713 167.15744 
L 206.491 166.262441 
L 208.530288 174.274683 
L 210.569575 165.974832 
L 212.608862 163.376349 
L 214.64815 168.199751 
L 216.687437 161.113605 
L 218.726725 167.141761 
L 220.766012 166.397345 
L 222.805299 169.558906 
L 224.844587 162.157196 
L 226.883874 177.683236 
L 228.923161 186.683023 
L 230.962449 166.183999 
L 233.001736 170.905451 
L 235.041023 166.119541 
L 237.080311 166.29854 
L 239.119598 168.498456 
L 241.158885 164.552478 
L 243.198173 170.371871 
L 245.23746 162.160231 
L 247.276747 164.187627 
L 249.316035 164.596687 
L 251.355322 169.435094 
L 253.394609 165.585268 
L 255.433897 163.010892 
L 257.473184 169.42018 
L 259.512471 163.934546 
L 261.551759 161.945735 
L 263.591046 164.632491 
L 265.630333 167.75698 
L 267.669621 163.153486 
L 269.708908 164.685331 
L 271.748196 164.941531 
L 273.787483 166.277616 
L 275.82677 162.245745 
L 277.866058 250.53666 
L 279.905345 167.937758 
L 281.944632 164.187101 
L 283.98392 162.973064 
L 286.023207 169.665143 
L 288.062494 171.004729 
L 290.101782 169.18982 
L 292.141069 171.358682 
L 294.180356 166.841853 
L 296.219644 167.666523 
L 298.258931 174.083762 
L 300.298218 169.327653 
L 302.337506 164.152766 
L 304.376793 170.151843 
L 306.41608 163.560464 
L 308.455368 167.142862 
L 310.494655 167.492769 
L 312.533942 163.416111 
L 314.57323 250.946711 
L 316.612517 160.236817 
L 318.651804 162.361239 
L 320.691092 161.590325 
L 322.730379 165.45584 
L 326.808954 163.973593 
L 328.848241 166.618982 
L 330.887529 166.895965 
L 332.926816 163.42209 
L 334.966103 164.601644 
L 337.005391 160.914644 
L 339.044678 163.04872 
L 341.083965 162.483859 
L 343.123253 162.757255 
L 345.16254 164.812458 
L 347.201827 163.29295 
L 349.241115 251.485309 
L 351.280402 162.718961 
L 353.319689 163.597339 
L 355.358977 170.365885 
L 357.398264 167.230848 
L 359.437551 171.039182 
L 361.476839 166.164271 
L 363.516126 165.99412 
L 365.555413 169.779964 
L 367.594701 167.004443 
L 369.633988 170.212895 
L 371.673275 165.256883 
L 373.712563 171.691355 
L 375.75185 175.771544 
L 377.791138 173.863004 
L 379.830425 166.136665 
L 381.869712 178.151621 
L 383.909 171.121287 
L 387.987574 168.20097 
L 390.026862 171.712237 
L 392.066149 171.420223 
L 394.105436 171.585553 
L 396.144724 249.180722 
L 398.184011 164.725661 
L 400.223298 170.89213 
L 402.262586 170.823884 
L 404.301873 170.013688 
L 406.34116 167.357302 
L 408.380448 172.236363 
L 410.419735 166.353053 
L 412.459022 171.480696 
L 414.49831 164.892845 
L 416.537597 166.614747 
L 418.576884 160.620435 
L 420.616172 168.163418 
L 422.655459 167.007799 
L 424.694746 171.427561 
L 426.734034 167.336026 
L 428.773321 171.994378 
L 430.812608 175.586948 
L 432.851896 171.942082 
L 434.891183 173.356297 
L 436.930471 178.315038 
L 438.969758 170.412583 
L 441.009045 178.212568 
L 443.048333 171.773994 
L 445.08762 174.045703 
L 447.126907 175.050564 
L 449.166195 163.494049 
L 451.205482 169.102019 
L 453.244769 173.025558 
L 455.284057 178.482552 
L 457.323344 179.951204 
L 459.362631 173.479396 
L 461.401919 172.661253 
L 463.441206 176.921081 
L 465.480493 174.766366 
L 469.559068 175.211029 
L 471.598355 170.395717 
L 473.637643 175.512703 
L 475.67693 177.844644 
L 477.716217 179.421468 
L 479.755505 173.061004 
L 481.794792 176.545052 
L 483.834079 170.784337 
L 485.873367 173.587066 
L 487.912654 177.571617 
L 489.951942 172.700046 
L 491.991229 168.775783 
L 494.030516 168.576364 
L 496.069804 173.46412 
L 498.109091 176.150095 
L 498.109091 176.150095 
" clip-path="url(#pcfeb10d0aa)" style="fill: none; stroke: #ff0000; stroke-opacity: 0.9; stroke-width: 1.5; stroke-linecap: square"/>
   </g>
   <g id="line2d_36">
    <path d="M 92.290909 176.387136 
L 96.369484 163.518515 
L 98.408771 163.369742 
L 100.448058 169.601218 
L 102.487346 165.986298 
L 104.526633 168.355351 
L 106.565921 162.234468 
L 108.605208 164.407671 
L 110.644495 175.541669 
L 112.683783 249.41188 
L 114.72307 161.679813 
L 116.762357 163.526765 
L 118.801645 169.951515 
L 120.840932 161.224698 
L 122.880219 167.719742 
L 124.919507 166.149202 
L 126.958794 180.163203 
L 128.998081 163.225873 
L 131.037369 167.041435 
L 133.076656 173.880961 
L 135.115943 167.512683 
L 137.155231 165.601363 
L 139.194518 165.332986 
L 141.233805 167.32392 
L 143.273093 164.711769 
L 145.31238 161.043145 
L 147.351667 160.716799 
L 149.390955 163.890394 
L 151.430242 162.129793 
L 153.469529 163.919995 
L 155.508817 167.947192 
L 157.548104 163.513145 
L 159.587392 164.924978 
L 161.626679 168.133453 
L 163.665966 168.157654 
L 165.705254 250.375852 
L 167.744541 161.993538 
L 169.783828 167.806195 
L 171.823116 166.367403 
L 173.862403 166.826613 
L 175.90169 172.074383 
L 177.940978 170.709222 
L 179.980265 184.774756 
L 182.019552 169.357598 
L 184.05884 172.509263 
L 186.098127 187.931312 
L 188.137414 172.909975 
L 190.176702 173.875546 
L 192.215989 197.934785 
L 194.255276 193.170822 
L 196.294564 189.888742 
L 198.333851 188.080299 
L 200.373138 171.634908 
L 202.412426 164.151865 
L 204.451713 167.449794 
L 206.491 166.013307 
L 208.530288 174.365918 
L 210.569575 165.932061 
L 212.608862 163.528063 
L 214.64815 168.326564 
L 216.687437 161.281126 
L 218.726725 167.288094 
L 220.766012 166.307717 
L 222.805299 169.69504 
L 224.844587 162.233257 
L 226.883874 177.588106 
L 228.923161 186.591049 
L 230.962449 166.219462 
L 233.001736 170.833363 
L 235.041023 166.092426 
L 237.080311 166.238471 
L 239.119598 168.422834 
L 241.158885 164.505719 
L 243.198173 170.475218 
L 245.23746 162.01649 
L 247.276747 164.155108 
L 249.316035 164.652589 
L 251.355322 169.466341 
L 253.394609 165.473169 
L 255.433897 162.869653 
L 257.473184 169.237302 
L 259.512471 163.903147 
L 261.551759 162.039556 
L 265.630333 167.573115 
L 267.669621 163.218474 
L 269.708908 164.779917 
L 271.748196 164.83745 
L 273.787483 166.352731 
L 275.82677 162.259956 
L 277.866058 250.987941 
L 279.905345 167.857261 
L 281.944632 164.04022 
L 283.98392 163.114568 
L 286.023207 169.558807 
L 288.062494 171.00907 
L 290.101782 169.573967 
L 292.141069 171.30905 
L 294.180356 166.940385 
L 296.219644 167.413552 
L 298.258931 173.84893 
L 302.337506 164.176581 
L 304.376793 170.238652 
L 306.41608 163.728625 
L 308.455368 167.36923 
L 310.494655 167.518635 
L 312.533942 163.402877 
L 314.57323 250.980838 
L 316.612517 160.101818 
L 318.651804 162.194172 
L 320.691092 161.885564 
L 322.730379 165.251528 
L 324.769667 164.72767 
L 326.808954 163.92669 
L 328.848241 166.604881 
L 330.887529 166.841917 
L 332.926816 163.456664 
L 334.966103 164.910999 
L 337.005391 160.965214 
L 339.044678 162.928382 
L 341.083965 162.481861 
L 343.123253 162.539504 
L 345.16254 164.912024 
L 347.201827 163.161864 
L 349.241115 251.647869 
L 351.280402 162.636947 
L 353.319689 163.552714 
L 355.358977 170.324476 
L 357.398264 167.488633 
L 359.437551 171.004748 
L 361.476839 166.144309 
L 363.516126 165.818323 
L 365.555413 169.985082 
L 367.594701 166.941763 
L 369.633988 169.945483 
L 371.673275 165.576629 
L 373.712563 171.707631 
L 375.75185 175.758844 
L 377.791138 173.634641 
L 379.830425 166.034639 
L 381.869712 178.104262 
L 383.909 171.192659 
L 385.948287 169.546713 
L 387.987574 168.147754 
L 390.026862 172.03389 
L 392.066149 171.733024 
L 394.105436 171.723242 
L 396.144724 248.955539 
L 398.184011 164.574375 
L 400.223298 170.75074 
L 402.262586 171.022239 
L 404.301873 169.978952 
L 406.34116 167.276941 
L 408.380448 172.387525 
L 410.419735 166.32559 
L 412.459022 171.484765 
L 414.49831 164.754581 
L 416.537597 166.784826 
L 418.576884 160.617706 
L 420.616172 168.195607 
L 422.655459 167.014195 
L 424.694746 171.612463 
L 426.734034 167.307715 
L 428.773321 171.949379 
L 430.812608 175.553148 
L 432.851896 171.884428 
L 434.891183 173.366146 
L 436.930471 178.155767 
L 438.969758 170.58239 
L 441.009045 178.154499 
L 443.048333 171.864526 
L 445.08762 173.944948 
L 447.126907 175.239703 
L 449.166195 163.636583 
L 451.205482 168.95739 
L 453.244769 172.950157 
L 455.284057 178.509105 
L 457.323344 180.056167 
L 459.362631 173.281526 
L 461.401919 172.900722 
L 463.441206 176.643767 
L 465.480493 174.705554 
L 467.519781 175.064748 
L 469.559068 175.041864 
L 471.598355 170.405881 
L 473.637643 175.365025 
L 475.67693 178.015802 
L 477.716217 179.29681 
L 479.755505 172.990861 
L 481.794792 176.450319 
L 483.834079 170.43423 
L 485.873367 173.677812 
L 487.912654 177.692109 
L 489.951942 172.715191 
L 491.991229 168.790565 
L 494.030516 168.634427 
L 496.069804 173.470393 
L 498.109091 176.161315 
L 498.109091 176.161315 
" clip-path="url(#pcfeb10d0aa)" style="fill: none; stroke: #ff0000; stroke-opacity: 0.9; stroke-width: 1.5; stroke-linecap: square"/>
   </g>
   <g id="line2d_37">
    <path d="M 92.290909 176.320117 
L 96.369484 163.432963 
L 98.408771 163.529297 
L 100.448058 169.434568 
L 102.487346 166.145369 
L 104.526633 168.423295 
L 106.565921 162.357217 
L 108.605208 164.405896 
L 110.644495 175.25766 
L 112.683783 249.197744 
L 114.72307 161.918688 
L 116.762357 163.270656 
L 118.801645 169.738919 
L 120.840932 161.090169 
L 122.880219 167.860584 
L 124.919507 166.180234 
L 126.958794 179.9277 
L 128.998081 163.249547 
L 131.037369 167.20617 
L 133.076656 173.89993 
L 135.115943 167.537368 
L 137.155231 165.542831 
L 139.194518 165.36309 
L 141.233805 167.30406 
L 143.273093 164.763818 
L 145.31238 160.916733 
L 147.351667 160.635069 
L 149.390955 163.929066 
L 151.430242 162.160598 
L 153.469529 164.018043 
L 155.508817 167.807531 
L 157.548104 163.674975 
L 159.587392 165.207081 
L 161.626679 168.217991 
L 163.665966 167.972286 
L 165.705254 250.208569 
L 167.744541 162.126387 
L 169.783828 168.051556 
L 171.823116 166.376504 
L 173.862403 166.888298 
L 175.90169 172.254233 
L 177.940978 170.616956 
L 179.980265 184.648527 
L 182.019552 169.360709 
L 184.05884 172.36234 
L 186.098127 187.97942 
L 188.137414 173.121442 
L 190.176702 174.065309 
L 192.215989 197.885052 
L 194.255276 193.053141 
L 196.294564 189.739781 
L 198.333851 188.330729 
L 200.373138 171.300267 
L 202.412426 164.131831 
L 204.451713 167.330652 
L 206.491 166.099953 
L 208.530288 174.47299 
L 210.569575 165.787904 
L 212.608862 163.272197 
L 214.64815 168.071701 
L 216.687437 161.240944 
L 218.726725 167.365487 
L 220.766012 166.389822 
L 222.805299 169.566539 
L 224.844587 162.28883 
L 226.883874 177.772425 
L 228.923161 186.642014 
L 230.962449 166.195008 
L 233.001736 170.899014 
L 235.041023 165.976652 
L 237.080311 166.330237 
L 239.119598 168.485449 
L 241.158885 164.573621 
L 243.198173 170.482007 
L 245.23746 162.130202 
L 247.276747 163.926353 
L 249.316035 164.778396 
L 251.355322 169.39311 
L 253.394609 165.614169 
L 255.433897 162.762065 
L 257.473184 169.188499 
L 259.512471 164.006172 
L 261.551759 162.014617 
L 263.591046 164.565705 
L 265.630333 167.849325 
L 267.669621 163.235239 
L 269.708908 164.874563 
L 271.748196 165.049903 
L 273.787483 166.367051 
L 275.82677 162.085816 
L 277.866058 250.670913 
L 279.905345 167.947994 
L 281.944632 164.16866 
L 283.98392 163.098734 
L 286.023207 169.54616 
L 288.062494 170.987802 
L 290.101782 169.30223 
L 292.141069 171.391988 
L 294.180356 166.940204 
L 296.219644 167.668423 
L 298.258931 174.127378 
L 300.298218 169.454178 
L 302.337506 164.113961 
L 304.376793 169.933256 
L 306.41608 163.740606 
L 308.455368 167.116081 
L 310.494655 167.642667 
L 312.533942 163.2635 
L 314.57323 250.885886 
L 316.612517 160.149467 
L 318.651804 162.282294 
L 320.691092 161.863993 
L 322.730379 165.425066 
L 324.769667 164.626825 
L 326.808954 164.111884 
L 328.848241 166.712141 
L 330.887529 167.01821 
L 332.926816 163.552048 
L 334.966103 164.641982 
L 337.005391 160.776811 
L 339.044678 162.829891 
L 341.083965 162.522709 
L 343.123253 162.755162 
L 345.16254 164.808697 
L 347.201827 163.27127 
L 349.241115 251.542744 
L 351.280402 162.774875 
L 353.319689 163.533535 
L 355.358977 170.319265 
L 357.398264 167.348412 
L 359.437551 171.022425 
L 361.476839 166.169501 
L 363.516126 165.861502 
L 365.555413 169.927875 
L 367.594701 167.002115 
L 369.633988 169.970043 
L 371.673275 165.301088 
L 373.712563 171.612482 
L 375.75185 175.600127 
L 377.791138 173.836342 
L 379.830425 165.883164 
L 381.869712 178.385506 
L 383.909 171.184069 
L 385.948287 169.459083 
L 387.987574 168.299241 
L 390.026862 171.852439 
L 392.066149 171.650961 
L 394.105436 171.742924 
L 396.144724 249.178875 
L 398.184011 164.628736 
L 400.223298 170.961028 
L 402.262586 171.031364 
L 404.301873 169.809065 
L 406.34116 167.13554 
L 408.380448 172.246823 
L 410.419735 166.322324 
L 412.459022 171.373732 
L 414.49831 164.839815 
L 416.537597 166.636314 
L 418.576884 160.720625 
L 420.616172 168.272732 
L 422.655459 167.06601 
L 424.694746 171.27884 
L 426.734034 167.208615 
L 428.773321 171.861957 
L 430.812608 175.58793 
L 432.851896 171.824291 
L 434.891183 173.344382 
L 436.930471 178.127222 
L 438.969758 170.449049 
L 441.009045 178.151281 
L 443.048333 171.736843 
L 445.08762 173.88898 
L 447.126907 175.15023 
L 449.166195 163.481221 
L 451.205482 168.965144 
L 453.244769 172.992295 
L 455.284057 178.488064 
L 457.323344 179.983634 
L 459.362631 173.492306 
L 461.401919 172.906459 
L 463.441206 176.913694 
L 465.480493 174.732166 
L 467.519781 174.733634 
L 469.559068 175.225777 
L 471.598355 170.309294 
L 473.637643 175.327173 
L 475.67693 177.749996 
L 477.716217 179.389272 
L 479.755505 173.153393 
L 481.794792 176.361291 
L 483.834079 170.707686 
L 485.873367 173.672304 
L 487.912654 177.811949 
L 489.951942 172.493429 
L 491.991229 168.786652 
L 494.030516 168.514774 
L 496.069804 173.501103 
L 498.109091 176.170553 
L 498.109091 176.170553 
" clip-path="url(#pcfeb10d0aa)" style="fill: none; stroke: #ff0000; stroke-opacity: 0.9; stroke-width: 1.5; stroke-linecap: square"/>
   </g>
   <g id="line2d_38">
    <path d="M 92.290909 176.331277 
L 96.369484 163.628806 
L 98.408771 163.49509 
L 100.448058 169.652655 
L 102.487346 166.186709 
L 104.526633 168.343972 
L 106.565921 162.38169 
L 108.605208 164.463743 
L 110.644495 175.490646 
L 112.683783 249.189251 
L 114.72307 161.773688 
L 116.762357 163.297658 
L 118.801645 169.796433 
L 120.840932 161.086305 
L 122.880219 167.894654 
L 124.919507 166.076422 
L 126.958794 180.281145 
L 128.998081 163.329673 
L 131.037369 166.850621 
L 133.076656 173.862953 
L 135.115943 167.568339 
L 137.155231 165.608724 
L 139.194518 165.367961 
L 141.233805 167.442071 
L 143.273093 164.660987 
L 145.31238 161.075463 
L 147.351667 160.961123 
L 149.390955 163.712504 
L 151.430242 162.108783 
L 153.469529 164.019894 
L 155.508817 167.925201 
L 157.548104 163.479461 
L 159.587392 165.130293 
L 161.626679 168.075587 
L 163.665966 168.120855 
L 165.705254 250.425714 
L 167.744541 162.030769 
L 169.783828 168.03366 
L 171.823116 166.255606 
L 173.862403 166.922357 
L 175.90169 172.17704 
L 177.940978 170.678342 
L 179.980265 184.51864 
L 182.019552 169.525725 
L 184.05884 172.520885 
L 186.098127 187.836104 
L 188.137414 172.896942 
L 190.176702 173.988805 
L 192.215989 197.602842 
L 194.255276 193.097807 
L 196.294564 189.913714 
L 198.333851 187.980482 
L 200.373138 171.303257 
L 202.412426 164.229728 
L 204.451713 167.212381 
L 206.491 166.221078 
L 208.530288 174.30352 
L 210.569575 165.949302 
L 212.608862 163.394313 
L 214.64815 168.316804 
L 216.687437 161.247783 
L 218.726725 167.305933 
L 220.766012 166.333185 
L 222.805299 169.767161 
L 224.844587 162.141646 
L 226.883874 177.615697 
L 228.923161 186.710669 
L 230.962449 166.202838 
L 233.001736 170.7212 
L 235.041023 166.02757 
L 237.080311 166.17324 
L 239.119598 168.25456 
L 241.158885 164.555657 
L 243.198173 170.470446 
L 245.23746 162.101365 
L 247.276747 164.072466 
L 249.316035 164.601092 
L 251.355322 169.338745 
L 253.394609 165.396566 
L 255.433897 162.654113 
L 257.473184 169.239031 
L 259.512471 163.918394 
L 261.551759 162.140355 
L 263.591046 164.60636 
L 265.630333 167.619643 
L 267.669621 163.255644 
L 269.708908 164.769748 
L 271.748196 164.938598 
L 273.787483 166.086125 
L 275.82677 162.162475 
L 277.866058 250.872126 
L 279.905345 167.970318 
L 281.944632 163.999129 
L 283.98392 163.063778 
L 286.023207 169.541225 
L 288.062494 171.152519 
L 290.101782 169.424823 
L 292.141069 171.324695 
L 294.180356 167.084973 
L 296.219644 167.575707 
L 298.258931 173.913966 
L 300.298218 169.222376 
L 302.337506 164.008999 
L 304.376793 169.978376 
L 306.41608 163.785413 
L 308.455368 167.383637 
L 310.494655 167.728068 
L 312.533942 163.223803 
L 314.57323 250.931865 
L 316.612517 160.136672 
L 318.651804 162.188545 
L 320.691092 161.843157 
L 322.730379 165.481642 
L 326.808954 163.978474 
L 328.848241 166.414106 
L 330.887529 166.996151 
L 332.926816 163.524585 
L 334.966103 164.735027 
L 337.005391 160.758366 
L 339.044678 162.875534 
L 341.083965 162.487106 
L 343.123253 162.59247 
L 345.16254 164.762199 
L 347.201827 163.105232 
L 349.241115 251.62223 
L 351.280402 162.732172 
L 353.319689 163.510871 
L 355.358977 170.350418 
L 357.398264 167.495971 
L 359.437551 171.08596 
L 361.476839 166.155219 
L 363.516126 165.899853 
L 365.555413 169.815162 
L 367.594701 166.883106 
L 369.633988 170.112667 
L 371.673275 165.423435 
L 373.712563 171.640225 
L 375.75185 175.695108 
L 377.791138 174.011345 
L 379.830425 165.928893 
L 381.869712 178.2484 
L 383.909 171.134846 
L 385.948287 169.450965 
L 387.987574 168.322768 
L 390.026862 171.95328 
L 392.066149 171.644774 
L 394.105436 171.657837 
L 396.144724 249.513558 
L 398.184011 164.775062 
L 400.223298 171.030247 
L 402.262586 170.727236 
L 404.301873 169.910406 
L 406.34116 167.168176 
L 408.380448 172.203784 
L 410.419735 166.170845 
L 412.459022 171.496401 
L 414.49831 164.745139 
L 416.537597 166.775759 
L 418.576884 160.579223 
L 420.616172 168.237568 
L 422.655459 167.197058 
L 424.694746 171.529669 
L 426.734034 167.372204 
L 428.773321 171.87882 
L 430.812608 175.449885 
L 432.851896 171.882494 
L 434.891183 173.326989 
L 436.930471 178.29494 
L 438.969758 170.522719 
L 441.009045 178.216055 
L 443.048333 171.815125 
L 445.08762 173.957915 
L 447.126907 175.158527 
L 449.166195 163.451033 
L 451.205482 169.197358 
L 453.244769 173.035039 
L 455.284057 178.421923 
L 457.323344 180.091053 
L 459.362631 173.454813 
L 461.401919 172.833864 
L 463.441206 176.730846 
L 465.480493 174.792107 
L 467.519781 174.814503 
L 469.559068 175.242012 
L 471.598355 170.291239 
L 473.637643 175.537945 
L 475.67693 177.795145 
L 477.716217 179.471425 
L 479.755505 173.106531 
L 481.794792 176.46122 
L 483.834079 170.651121 
L 485.873367 173.637568 
L 487.912654 177.668926 
L 489.951942 172.666411 
L 491.991229 168.743261 
L 494.030516 168.649084 
L 496.069804 173.550258 
L 498.109091 176.302007 
L 498.109091 176.302007 
" clip-path="url(#pcfeb10d0aa)" style="fill: none; stroke: #ff0000; stroke-opacity: 0.9; stroke-width: 1.5; stroke-linecap: square"/>
   </g>
   <g id="line2d_39">
    <path d="M 92.290909 170.293403 
L 94.330196 168.534381 
L 96.369484 165.147701 
L 98.408771 163.063396 
L 100.448058 166.373621 
L 102.487346 164.474937 
L 104.526633 167.10486 
L 106.565921 162.919603 
L 108.605208 163.983462 
L 110.644495 174.073175 
L 112.683783 248.076476 
L 114.72307 161.297565 
L 116.762357 162.522929 
L 118.801645 169.002416 
L 120.840932 160.475782 
L 122.880219 167.210072 
L 124.919507 165.120181 
L 126.958794 179.774976 
L 128.998081 162.596224 
L 131.037369 165.515436 
L 133.076656 172.95424 
L 135.115943 166.536056 
L 139.194518 165.133627 
L 141.233805 166.763199 
L 143.273093 164.097764 
L 145.31238 161.022853 
L 147.351667 161.099989 
L 149.390955 163.71728 
L 151.430242 162.088764 
L 153.469529 162.955633 
L 155.508817 167.09971 
L 157.548104 163.401791 
L 159.587392 164.755073 
L 161.626679 167.884384 
L 163.665966 167.268332 
L 165.705254 248.254532 
L 167.744541 163.090038 
L 169.783828 167.224827 
L 171.823116 165.680505 
L 173.862403 166.098575 
L 175.90169 171.386815 
L 177.940978 170.482749 
L 179.980265 183.206218 
L 182.019552 168.389853 
L 184.05884 172.348936 
L 186.098127 188.251943 
L 188.137414 171.650908 
L 190.176702 173.789927 
L 192.215989 195.634023 
L 198.333851 186.688452 
L 200.373138 172.060929 
L 202.412426 164.123195 
L 204.451713 166.190111 
L 206.491 166.384614 
L 208.530288 172.922414 
L 210.569575 165.517029 
L 212.608862 162.905544 
L 214.64815 166.712837 
L 216.687437 160.437996 
L 218.726725 165.202983 
L 220.766012 165.968727 
L 222.805299 169.386306 
L 224.844587 161.988373 
L 226.883874 176.914636 
L 228.923161 186.000666 
L 230.962449 165.154089 
L 233.001736 169.855499 
L 235.041023 166.513051 
L 237.080311 165.543951 
L 239.119598 167.761885 
L 241.158885 164.902904 
L 243.198173 170.056076 
L 245.23746 161.304252 
L 247.276747 163.291194 
L 249.316035 164.482162 
L 251.355322 168.601511 
L 253.394609 164.87873 
L 255.433897 162.311865 
L 257.473184 168.577299 
L 259.512471 162.975505 
L 261.551759 161.705199 
L 263.591046 163.785496 
L 265.630333 167.178651 
L 267.669621 163.114886 
L 269.708908 164.211237 
L 271.748196 164.166177 
L 273.787483 165.922657 
L 275.82677 161.782812 
L 277.866058 248.82532 
L 279.905345 168.438497 
L 281.944632 163.766995 
L 283.98392 162.097176 
L 286.023207 169.446125 
L 288.062494 170.282936 
L 290.101782 168.495137 
L 292.141069 170.598655 
L 294.180356 165.888356 
L 296.219644 167.26826 
L 298.258931 174.123348 
L 300.298218 167.869704 
L 302.337506 165.404498 
L 304.376793 170.071255 
L 306.41608 162.967452 
L 308.455368 166.478401 
L 310.494655 166.14969 
L 312.533942 162.497638 
L 314.57323 248.626112 
L 316.612517 160.788372 
L 318.651804 161.531388 
L 320.691092 161.977928 
L 322.730379 164.048258 
L 324.769667 163.705283 
L 326.808954 163.849625 
L 328.848241 165.089297 
L 330.887529 165.815307 
L 332.926816 163.493523 
L 334.966103 165.171262 
L 337.005391 160.749159 
L 339.044678 162.220296 
L 341.083965 161.516039 
L 343.123253 162.417176 
L 345.16254 163.869868 
L 347.201827 163.070825 
L 349.241115 249.30811 
L 351.280402 163.5463 
L 353.319689 161.785154 
L 355.358977 169.880551 
L 357.398264 166.996814 
L 359.437551 171.719662 
L 361.476839 167.460656 
L 363.516126 166.60442 
L 365.555413 169.5437 
L 367.594701 166.631587 
L 369.633988 169.42404 
L 371.673275 164.577852 
L 373.712563 170.703633 
L 375.75185 175.820455 
L 377.791138 173.665322 
L 379.830425 165.241394 
L 381.869712 177.423665 
L 383.909 171.11533 
L 385.948287 169.15044 
L 387.987574 167.352984 
L 390.026862 170.732579 
L 394.105436 172.252549 
L 396.144724 248.871307 
L 398.184011 165.457301 
L 400.223298 169.841679 
L 402.262586 170.67564 
L 404.301873 170.300624 
L 406.34116 167.322811 
L 408.380448 172.177952 
L 410.419735 166.12731 
L 412.459022 170.422699 
L 414.49831 164.667708 
L 416.537597 165.592637 
L 418.576884 160.584745 
L 420.616172 168.022046 
L 422.655459 166.753265 
L 424.694746 170.765673 
L 426.734034 167.07107 
L 428.773321 171.308229 
L 430.812608 174.555484 
L 432.851896 171.487391 
L 434.891183 173.103262 
L 436.930471 177.602369 
L 438.969758 170.707307 
L 441.009045 177.520659 
L 443.048333 171.554597 
L 445.08762 173.712662 
L 447.126907 175.036227 
L 449.166195 163.142292 
L 451.205482 168.575214 
L 453.244769 172.017935 
L 455.284057 177.767674 
L 457.323344 178.972733 
L 459.362631 174.02391 
L 461.401919 172.669866 
L 463.441206 175.499346 
L 465.480493 174.666698 
L 467.519781 175.27299 
L 469.559068 175.30823 
L 471.598355 168.873968 
L 473.637643 174.360941 
L 475.67693 177.649102 
L 477.716217 177.917468 
L 479.755505 172.950762 
L 481.794792 176.033912 
L 483.834079 169.793875 
L 487.912654 176.993284 
L 489.951942 171.817426 
L 491.991229 168.519853 
L 494.030516 167.741767 
L 496.069804 173.804991 
L 498.109091 175.315515 
L 498.109091 175.315515 
" clip-path="url(#pcfeb10d0aa)" style="fill: none; stroke: #008000; stroke-opacity: 0.9; stroke-width: 1.5; stroke-linecap: square"/>
   </g>
   <g id="line2d_40">
    <path d="M 438.969758 256.32 
L 438.969758 155.52 
" clip-path="url(#pcfeb10d0aa)" style="fill: none; stroke-dasharray: 5.55,2.4; stroke-dashoffset: 0; stroke: #0000ff; stroke-width: 1.5"/>
   </g>
   <g id="line2d_41">
    <path d="M 153.469529 256.32 
L 153.469529 155.52 
" clip-path="url(#pcfeb10d0aa)" style="fill: none; stroke-dasharray: 5.55,2.4; stroke-dashoffset: 0; stroke: #000000; stroke-width: 1.5"/>
   </g>
   <g id="patch_8">
    <path d="M 72 256.32 
L 72 155.52 
" style="fill: none; stroke: #000000; stroke-width: 0.8; stroke-linejoin: miter; stroke-linecap: square"/>
   </g>
   <g id="patch_9">
    <path d="M 518.4 256.32 
L 518.4 155.52 
" style="fill: none; stroke: #000000; stroke-width: 0.8; stroke-linejoin: miter; stroke-linecap: square"/>
   </g>
   <g id="patch_10">
    <path d="M 72 256.32 
L 518.4 256.32 
" style="fill: none; stroke: #000000; stroke-width: 0.8; stroke-linejoin: miter; stroke-linecap: square"/>
   </g>
   <g id="patch_11">
    <path d="M 72 155.52 
L 518.4 155.52 
" style="fill: none; stroke: #000000; stroke-width: 0.8; stroke-linejoin: miter; stroke-linecap: square"/>
   </g>
  </g>
 </g>
 <defs>
  <clipPath id="p88fd117a22">
   <rect x="72" y="34.56" width="446.4" height="100.8"/>
  </clipPath>
  <clipPath id="pcfeb10d0aa">
   <rect x="72" y="155.52" width="446.4" height="100.8"/>
  </clipPath>
 </defs>
</svg>
