<?xml version="1.0" encoding="utf-8" standalone="no"?>
<!DOCTYPE svg PUBLIC "-//W3C//DTD SVG 1.1//EN"
  "http://www.w3.org/Graphics/SVG/1.1/DTD/svg11.dtd">
<svg xmlns:xlink="http://www.w3.org/1999/xlink" width="576pt" height="288pt" viewBox="0 0 576 288" xmlns="http://www.w3.org/2000/svg" version="1.1">
 <metadata>
  <rdf:RDF xmlns:dc="http://purl.org/dc/elements/1.1/" xmlns:cc="http://creativecommons.org/ns#" xmlns:rdf="http://www.w3.org/1999/02/22-rdf-syntax-ns#">
   <cc:Work>
    <dc:type rdf:resource="http://purl.org/dc/dcmitype/StillImage"/>
    <dc:date>2025-01-01T00:43:54.586125</dc:date>
    <dc:format>image/svg+xml</dc:format>
    <dc:creator>
     <cc:Agent>
      <dc:title>Matplotlib v3.10.0, https://matplotlib.org/</dc:title>
     </cc:Agent>
    </dc:creator>
   </cc:Work>
  </rdf:RDF>
 </metadata>
 <defs>
  <style type="text/css">*{stroke-linejoin: round; stroke-linecap: butt}</style>
 </defs>
 <g id="figure_1">
  <g id="patch_1">
   <path d="M 0 288 
L 576 288 
L 576 0 
L 0 0 
z
" style="fill: #ffffff"/>
  </g>
  <g id="axes_1">
   <g id="patch_2">
    <path d="M 72 135.36 
L 518.4 135.36 
L 518.4 34.56 
L 72 34.56 
z
" style="fill: #ffffff"/>
   </g>
   <g id="matplotlib.axis_1">
    <g id="xtick_1">
     <g id="line2d_1">
      <defs>
       <path id="md3284aabfd" d="M 0 0 
L 0 3.5 
" style="stroke: #000000; stroke-width: 0.8"/>
      </defs>
      <g>
       <use xlink:href="#md3284aabfd" x="92.290909" y="135.36" style="stroke: #000000; stroke-width: 0.8"/>
      </g>
     </g>
    </g>
    <g id="xtick_2">
     <g id="line2d_2">
      <g>
       <use xlink:href="#md3284aabfd" x="143.273093" y="135.36" style="stroke: #000000; stroke-width: 0.8"/>
      </g>
     </g>
    </g>
    <g id="xtick_3">
     <g id="line2d_3">
      <g>
       <use xlink:href="#md3284aabfd" x="194.255276" y="135.36" style="stroke: #000000; stroke-width: 0.8"/>
      </g>
     </g>
    </g>
    <g id="xtick_4">
     <g id="line2d_4">
      <g>
       <use xlink:href="#md3284aabfd" x="245.23746" y="135.36" style="stroke: #000000; stroke-width: 0.8"/>
      </g>
     </g>
    </g>
    <g id="xtick_5">
     <g id="line2d_5">
      <g>
       <use xlink:href="#md3284aabfd" x="296.219644" y="135.36" style="stroke: #000000; stroke-width: 0.8"/>
      </g>
     </g>
    </g>
    <g id="xtick_6">
     <g id="line2d_6">
      <g>
       <use xlink:href="#md3284aabfd" x="347.201827" y="135.36" style="stroke: #000000; stroke-width: 0.8"/>
      </g>
     </g>
    </g>
    <g id="xtick_7">
     <g id="line2d_7">
      <g>
       <use xlink:href="#md3284aabfd" x="398.184011" y="135.36" style="stroke: #000000; stroke-width: 0.8"/>
      </g>
     </g>
    </g>
    <g id="xtick_8">
     <g id="line2d_8">
      <g>
       <use xlink:href="#md3284aabfd" x="449.166195" y="135.36" style="stroke: #000000; stroke-width: 0.8"/>
      </g>
     </g>
    </g>
    <g id="xtick_9">
     <g id="line2d_9">
      <g>
       <use xlink:href="#md3284aabfd" x="500.148378" y="135.36" style="stroke: #000000; stroke-width: 0.8"/>
      </g>
     </g>
    </g>
   </g>
   <g id="matplotlib.axis_2">
    <g id="ytick_1">
     <g id="line2d_10">
      <defs>
       <path id="m242faeaead" d="M 0 0 
L -3.5 0 
" style="stroke: #000000; stroke-width: 0.8"/>
      </defs>
      <g>
       <use xlink:href="#m242faeaead" x="72" y="116.841731" style="stroke: #000000; stroke-width: 0.8"/>
      </g>
     </g>
     <g id="text_1">
      <!-- −150 -->
      <g transform="translate(37.532812 120.64095) scale(0.1 -0.1)">
       <defs>
        <path id="DejaVuSans-2212" d="M 678 2272 
L 4684 2272 
L 4684 1741 
L 678 1741 
L 678 2272 
z
" transform="scale(0.015625)"/>
        <path id="DejaVuSans-31" d="M 794 531 
L 1825 531 
L 1825 4091 
L 703 3866 
L 703 4441 
L 1819 4666 
L 2450 4666 
L 2450 531 
L 3481 531 
L 3481 0 
L 794 0 
L 794 531 
z
" transform="scale(0.015625)"/>
        <path id="DejaVuSans-35" d="M 691 4666 
L 3169 4666 
L 3169 4134 
L 1269 4134 
L 1269 2991 
Q 1406 3038 1543 3061 
Q 1681 3084 1819 3084 
Q 2600 3084 3056 2656 
Q 3513 2228 3513 1497 
Q 3513 744 3044 326 
Q 2575 -91 1722 -91 
Q 1428 -91 1123 -41 
Q 819 9 494 109 
L 494 744 
Q 775 591 1075 516 
Q 1375 441 1709 441 
Q 2250 441 2565 725 
Q 2881 1009 2881 1497 
Q 2881 1984 2565 2268 
Q 2250 2553 1709 2553 
Q 1456 2553 1204 2497 
Q 953 2441 691 2322 
L 691 4666 
z
" transform="scale(0.015625)"/>
        <path id="DejaVuSans-30" d="M 2034 4250 
Q 1547 4250 1301 3770 
Q 1056 3291 1056 2328 
Q 1056 1369 1301 889 
Q 1547 409 2034 409 
Q 2525 409 2770 889 
Q 3016 1369 3016 2328 
Q 3016 3291 2770 3770 
Q 2525 4250 2034 4250 
z
M 2034 4750 
Q 2819 4750 3233 4129 
Q 3647 3509 3647 2328 
Q 3647 1150 3233 529 
Q 2819 -91 2034 -91 
Q 1250 -91 836 529 
Q 422 1150 422 2328 
Q 422 3509 836 4129 
Q 1250 4750 2034 4750 
z
" transform="scale(0.015625)"/>
       </defs>
       <use xlink:href="#DejaVuSans-2212"/>
       <use xlink:href="#DejaVuSans-31" transform="translate(83.789062 0)"/>
       <use xlink:href="#DejaVuSans-35" transform="translate(147.412109 0)"/>
       <use xlink:href="#DejaVuSans-30" transform="translate(211.035156 0)"/>
      </g>
     </g>
    </g>
    <g id="ytick_2">
     <g id="line2d_11">
      <g>
       <use xlink:href="#m242faeaead" x="72" y="77.7594" style="stroke: #000000; stroke-width: 0.8"/>
      </g>
     </g>
     <g id="text_2">
      <!-- −100 -->
      <g transform="translate(37.532812 81.558619) scale(0.1 -0.1)">
       <use xlink:href="#DejaVuSans-2212"/>
       <use xlink:href="#DejaVuSans-31" transform="translate(83.789062 0)"/>
       <use xlink:href="#DejaVuSans-30" transform="translate(147.412109 0)"/>
       <use xlink:href="#DejaVuSans-30" transform="translate(211.035156 0)"/>
      </g>
     </g>
    </g>
    <g id="ytick_3">
     <g id="line2d_12">
      <g>
       <use xlink:href="#m242faeaead" x="72" y="38.677068" style="stroke: #000000; stroke-width: 0.8"/>
      </g>
     </g>
     <g id="text_3">
      <!-- −50 -->
      <g transform="translate(43.895313 42.476287) scale(0.1 -0.1)">
       <use xlink:href="#DejaVuSans-2212"/>
       <use xlink:href="#DejaVuSans-35" transform="translate(83.789062 0)"/>
       <use xlink:href="#DejaVuSans-30" transform="translate(147.412109 0)"/>
      </g>
     </g>
    </g>
   </g>
   <g id="line2d_13">
    <path d="M 92.290909 61.787163 
L 94.330196 105.920958 
L 96.369484 130.778182 
L 98.408771 104.578564 
L 100.448058 89.480837 
L 102.487346 107.456867 
L 104.526633 98.538324 
L 106.565921 67.800329 
L 108.605208 115.599357 
L 110.644495 45.15601 
L 112.683783 82.018781 
L 114.72307 123.881465 
L 116.762357 122.88326 
L 118.801645 111.655021 
L 120.840932 68.075055 
L 122.880219 116.860194 
L 124.919507 69.98949 
L 126.958794 66.392337 
L 128.998081 88.377961 
L 131.037369 64.796793 
L 133.076656 52.653331 
L 135.115943 53.178953 
L 137.155231 108.677355 
L 139.194518 108.397142 
L 141.233805 126.145325 
L 143.273093 122.20143 
L 145.31238 120.918278 
L 147.351667 116.836614 
L 149.390955 117.681558 
L 151.430242 110.251776 
L 153.469529 107.595148 
L 155.508817 112.643815 
L 157.548104 128.437667 
L 159.587392 109.719654 
L 161.626679 122.037446 
L 163.665966 98.402803 
L 165.705254 94.186985 
L 167.744541 111.8264 
L 169.783828 47.796587 
L 171.823116 54.998313 
L 173.862403 75.068082 
L 175.90169 48.089308 
L 177.940978 42.383023 
L 179.980265 70.602627 
L 182.019552 67.200813 
L 184.05884 70.905691 
L 186.098127 64.903295 
L 188.137414 56.779673 
L 190.176702 66.99227 
L 192.215989 60.750952 
L 194.255276 48.670394 
L 196.294564 69.09777 
L 198.333851 75.621321 
L 200.373138 96.83236 
L 202.412426 71.020751 
L 204.451713 53.427631 
L 206.491 44.699249 
L 208.530288 76.646135 
L 210.569575 56.84879 
L 212.608862 110.738051 
L 214.64815 108.794287 
L 216.687437 93.396906 
L 218.726725 92.495459 
L 220.766012 109.788759 
L 222.805299 121.96716 
L 224.844587 121.420308 
L 226.883874 67.899794 
L 228.923161 59.492972 
L 230.962449 80.010051 
L 233.001736 73.43928 
L 235.041023 41.632876 
L 237.080311 60.375634 
L 239.119598 52.723319 
L 241.158885 74.917594 
L 243.198173 50.692542 
L 245.23746 84.489938 
L 247.276747 49.88137 
L 249.316035 99.132335 
L 251.355322 74.983544 
L 253.394609 112.420149 
L 257.473184 69.198249 
L 259.512471 64.805858 
L 261.551759 57.884708 
L 263.591046 69.234769 
L 265.630333 67.212496 
L 267.669621 60.053588 
L 269.708908 49.642043 
L 271.748196 41.854494 
L 273.787483 59.888817 
L 275.82677 49.781028 
L 277.866058 66.246088 
L 279.905345 56.390818 
L 281.944632 78.232018 
L 283.98392 64.836337 
L 286.023207 59.709614 
L 288.062494 54.15792 
L 290.101782 68.833987 
L 292.141069 75.011006 
L 294.180356 53.123505 
L 296.219644 43.150822 
L 298.258931 80.854684 
L 300.298218 56.942304 
L 302.337506 62.866501 
L 304.376793 59.41166 
L 306.41608 44.612447 
L 308.455368 47.026301 
L 310.494655 51.06161 
L 312.533942 58.021767 
L 314.57323 72.750777 
L 316.612517 40.066252 
L 318.651804 55.661364 
L 320.691092 45.631718 
L 322.730379 42.364005 
L 324.769667 55.761926 
L 326.808954 63.181033 
L 328.848241 46.308658 
L 330.887529 44.834691 
L 332.926816 49.390604 
L 334.966103 44.959686 
L 337.005391 55.603572 
L 339.044678 46.97268 
L 341.083965 49.392074 
L 343.123253 52.065755 
L 345.16254 47.953281 
L 347.201827 53.665181 
L 349.241115 53.669707 
L 351.280402 41.888518 
L 353.319689 52.424512 
L 355.358977 54.611974 
L 357.398264 64.532056 
L 359.437551 82.524253 
L 361.476839 49.659218 
L 363.516126 56.815037 
L 365.555413 45.078533 
L 367.594701 69.441458 
L 369.633988 53.488554 
L 371.673275 59.811071 
L 373.712563 52.557039 
L 375.75185 68.619766 
L 377.791138 51.738824 
L 379.830425 91.663582 
L 381.869712 66.89946 
L 383.909 69.708753 
L 385.948287 101.088479 
L 387.987574 72.959148 
L 390.026862 78.552401 
L 392.066149 62.239756 
L 394.105436 63.794139 
L 396.144724 98.935796 
L 398.184011 83.924373 
L 400.223298 84.751038 
L 402.262586 56.774348 
L 404.301873 81.194478 
L 406.34116 73.044956 
L 408.380448 68.221071 
L 410.419735 50.189289 
L 412.459022 69.083201 
L 414.49831 106.973097 
L 416.537597 78.721162 
L 418.576884 115.765106 
L 420.616172 100.532909 
L 422.655459 83.852423 
L 424.694746 79.403743 
L 426.734034 65.769134 
L 428.773321 66.607869 
L 430.812608 62.696285 
L 432.851896 60.562572 
L 434.891183 69.096219 
L 436.930471 59.118471 
L 438.969758 60.643073 
L 441.009045 71.62499 
L 443.048333 46.968548 
L 445.08762 61.796525 
L 447.126907 69.666245 
L 449.166195 66.451036 
L 451.205482 56.050666 
L 453.244769 63.571212 
L 455.284057 62.780913 
L 457.323344 55.661072 
L 459.362631 52.28112 
L 461.401919 58.385337 
L 463.441206 60.644134 
L 465.480493 62.708397 
L 467.519781 60.049759 
L 469.559068 53.54046 
L 471.598355 67.52014 
L 473.637643 68.370743 
L 475.67693 71.881056 
L 477.716217 49.869878 
L 479.755505 64.844155 
L 481.794792 60.018815 
L 483.834079 62.231341 
L 485.873367 68.225257 
L 487.912654 66.851752 
L 489.951942 46.314985 
L 491.991229 52.90124 
L 494.030516 43.447047 
L 496.069804 62.125275 
L 498.109091 58.221144 
L 498.109091 58.221144 
" clip-path="url(#p2d40e4ed79)" style="fill: none; stroke: #ff0000; stroke-opacity: 0.9; stroke-width: 1.5; stroke-linecap: square"/>
   </g>
   <g id="line2d_14">
    <path d="M 92.290909 61.86167 
L 94.330196 106.02712 
L 96.369484 130.712464 
L 98.408771 104.757875 
L 100.448058 89.504971 
L 102.487346 107.55233 
L 104.526633 98.412572 
L 106.565921 67.825054 
L 108.605208 115.852138 
L 110.644495 45.162973 
L 112.683783 81.919704 
L 114.72307 123.792907 
L 116.762357 122.921748 
L 118.801645 111.663251 
L 120.840932 68.159874 
L 122.880219 116.881973 
L 124.919507 70.041182 
L 126.958794 66.360563 
L 128.998081 88.269897 
L 131.037369 64.712076 
L 133.076656 52.540818 
L 135.115943 53.08061 
L 137.155231 108.745219 
L 139.194518 108.448154 
L 141.233805 126.138658 
L 143.273093 122.257105 
L 145.31238 120.914461 
L 147.351667 116.87459 
L 149.390955 117.738831 
L 151.430242 110.162192 
L 153.469529 107.777428 
L 155.508817 112.505188 
L 157.548104 128.457776 
L 159.587392 109.964014 
L 161.626679 121.875335 
L 163.665966 98.441483 
L 165.705254 94.033759 
L 167.744541 111.804359 
L 169.783828 47.65728 
L 171.823116 54.824465 
L 173.862403 75.147838 
L 175.90169 47.963613 
L 177.940978 42.340924 
L 179.980265 70.502971 
L 182.019552 67.300404 
L 184.05884 71.00688 
L 186.098127 64.804677 
L 188.137414 56.681097 
L 190.176702 67.012433 
L 192.215989 60.940013 
L 194.255276 48.482597 
L 196.294564 69.344587 
L 198.333851 75.494198 
L 200.373138 96.903653 
L 202.412426 71.019898 
L 204.451713 53.493873 
L 206.491 44.617203 
L 208.530288 76.633338 
L 210.569575 56.851784 
L 212.608862 110.722653 
L 214.64815 108.806166 
L 216.687437 93.513982 
L 218.726725 92.54105 
L 220.766012 109.758893 
L 222.805299 122.109175 
L 224.844587 121.432343 
L 226.883874 68.000177 
L 228.923161 59.733253 
L 230.962449 80.060484 
L 233.001736 73.268933 
L 235.041023 41.548713 
L 237.080311 60.453022 
L 239.119598 52.582044 
L 241.158885 74.943416 
L 243.198173 50.788101 
L 245.23746 84.532303 
L 247.276747 49.905075 
L 249.316035 99.250573 
L 251.355322 74.923635 
L 253.394609 112.247041 
L 257.473184 69.187932 
L 259.512471 64.879095 
L 261.551759 57.818239 
L 263.591046 69.260484 
L 265.630333 67.105523 
L 267.669621 60.114821 
L 269.708908 49.716068 
L 271.748196 41.808724 
L 273.787483 59.906015 
L 275.82677 49.740894 
L 277.866058 66.264354 
L 279.905345 56.431399 
L 281.944632 78.24162 
L 283.98392 65.060743 
L 286.023207 59.921848 
L 288.062494 54.155767 
L 290.101782 68.729113 
L 292.141069 74.974122 
L 294.180356 53.156078 
L 296.219644 43.296496 
L 298.258931 80.874513 
L 300.298218 57.074311 
L 302.337506 62.852284 
L 304.376793 59.482124 
L 306.41608 44.642807 
L 308.455368 47.011225 
L 310.494655 51.079232 
L 312.533942 58.013382 
L 314.57323 72.875295 
L 316.612517 39.925597 
L 318.651804 55.79658 
L 320.691092 45.683302 
L 322.730379 42.38582 
L 324.769667 55.941534 
L 326.808954 63.041046 
L 328.848241 46.42383 
L 330.887529 44.878332 
L 332.926816 49.238103 
L 334.966103 45.103397 
L 337.005391 55.692571 
L 339.044678 46.826515 
L 343.123253 52.233239 
L 345.16254 47.949148 
L 347.201827 53.783777 
L 349.241115 53.824644 
L 351.280402 41.752882 
L 353.319689 52.413963 
L 355.358977 54.654404 
L 357.398264 64.479947 
L 359.437551 82.453663 
L 361.476839 49.680985 
L 363.516126 56.817649 
L 365.555413 45.044627 
L 367.594701 69.347014 
L 369.633988 53.355503 
L 371.673275 59.904143 
L 373.712563 52.645686 
L 375.75185 68.517319 
L 377.791138 51.705244 
L 379.830425 91.620734 
L 381.869712 66.987535 
L 383.909 69.793399 
L 385.948287 101.038362 
L 387.987574 72.732314 
L 390.026862 78.637804 
L 392.066149 62.323221 
L 394.105436 63.84505 
L 396.144724 99.091712 
L 398.184011 83.894854 
L 400.223298 84.764551 
L 402.262586 56.742688 
L 404.301873 81.199308 
L 406.34116 73.059179 
L 408.380448 68.269733 
L 410.419735 50.347357 
L 412.459022 69.109244 
L 414.49831 106.936206 
L 416.537597 78.680175 
L 418.576884 115.707058 
L 420.616172 100.580831 
L 422.655459 83.832356 
L 424.694746 79.598671 
L 426.734034 65.877759 
L 428.773321 66.577867 
L 430.812608 62.605908 
L 432.851896 60.717181 
L 434.891183 69.05723 
L 436.930471 59.007419 
L 438.969758 60.593528 
L 441.009045 71.555062 
L 443.048333 47.038559 
L 445.08762 61.811195 
L 447.126907 69.819889 
L 449.166195 66.304602 
L 451.205482 56.095375 
L 453.244769 63.587791 
L 455.284057 62.792261 
L 457.323344 55.778093 
L 459.362631 52.230413 
L 461.401919 58.372205 
L 465.480493 62.721862 
L 467.519781 60.047618 
L 469.559068 53.663254 
L 471.598355 67.609223 
L 473.637643 68.274367 
L 475.67693 71.91438 
L 477.716217 49.858536 
L 479.755505 65.0645 
L 481.794792 60.102071 
L 483.834079 62.26055 
L 485.873367 68.070153 
L 487.912654 66.720377 
L 489.951942 46.213498 
L 491.991229 52.918832 
L 494.030516 43.472317 
L 496.069804 62.189072 
L 498.109091 58.240448 
L 498.109091 58.240448 
" clip-path="url(#p2d40e4ed79)" style="fill: none; stroke: #ff0000; stroke-opacity: 0.9; stroke-width: 1.5; stroke-linecap: square"/>
   </g>
   <g id="line2d_15">
    <path d="M 92.290909 61.711039 
L 94.330196 105.99939 
L 96.369484 130.664363 
L 98.408771 104.768621 
L 100.448058 89.507709 
L 102.487346 107.435064 
L 104.526633 98.58308 
L 106.565921 67.819537 
L 108.605208 115.736446 
L 110.644495 45.273953 
L 112.683783 82.045235 
L 114.72307 123.916697 
L 116.762357 122.790194 
L 118.801645 111.57486 
L 120.840932 68.31564 
L 122.880219 116.96805 
L 124.919507 69.848991 
L 126.958794 66.505655 
L 128.998081 88.268138 
L 131.037369 64.707961 
L 133.076656 52.657136 
L 135.115943 53.198472 
L 137.155231 108.540218 
L 139.194518 108.312556 
L 141.233805 126.078916 
L 143.273093 122.372892 
L 145.31238 120.932268 
L 147.351667 116.903823 
L 149.390955 117.63775 
L 151.430242 110.243439 
L 153.469529 107.72972 
L 155.508817 112.399563 
L 157.548104 128.535158 
L 159.587392 109.915948 
L 161.626679 122.119182 
L 163.665966 98.462611 
L 165.705254 94.289611 
L 167.744541 111.70583 
L 169.783828 47.75795 
L 171.823116 55.000382 
L 173.862403 74.979859 
L 175.90169 48.004716 
L 177.940978 42.498038 
L 179.980265 70.550112 
L 182.019552 67.220183 
L 184.05884 70.885869 
L 186.098127 64.858509 
L 188.137414 56.82784 
L 190.176702 66.836838 
L 192.215989 60.684143 
L 194.255276 48.694438 
L 196.294564 69.348374 
L 198.333851 75.484239 
L 200.373138 96.854973 
L 202.412426 71.160088 
L 204.451713 53.439785 
L 206.491 44.615921 
L 208.530288 76.735564 
L 210.569575 56.948726 
L 212.608862 110.775025 
L 214.64815 108.813227 
L 216.687437 93.502854 
L 218.726725 92.301532 
L 220.766012 109.897974 
L 222.805299 121.999196 
L 224.844587 121.486467 
L 226.883874 67.854907 
L 228.923161 59.76548 
L 230.962449 80.003539 
L 233.001736 73.457362 
L 235.041023 41.522059 
L 237.080311 60.340789 
L 239.119598 52.481601 
L 241.158885 74.798115 
L 243.198173 50.677406 
L 245.23746 84.5671 
L 247.276747 49.857015 
L 249.316035 99.345917 
L 251.355322 74.942515 
L 253.394609 112.358474 
L 257.473184 69.218709 
L 259.512471 64.944437 
L 261.551759 57.766607 
L 263.591046 69.371709 
L 265.630333 67.342613 
L 267.669621 60.015302 
L 269.708908 49.708745 
L 271.748196 41.84407 
L 273.787483 60.009935 
L 275.82677 49.684795 
L 277.866058 66.224214 
L 279.905345 56.526941 
L 281.944632 78.18211 
L 283.98392 64.931431 
L 286.023207 59.817255 
L 288.062494 54.252602 
L 290.101782 68.748202 
L 292.141069 74.931775 
L 294.180356 53.136177 
L 296.219644 43.197573 
L 298.258931 80.875097 
L 300.298218 57.074198 
L 302.337506 62.818709 
L 304.376793 59.408589 
L 306.41608 44.603359 
L 308.455368 47.053912 
L 310.494655 50.955347 
L 312.533942 58.035221 
L 314.57323 72.668738 
L 316.612517 40.041676 
L 318.651804 55.705327 
L 320.691092 45.715794 
L 322.730379 42.414066 
L 324.769667 55.781373 
L 326.808954 63.023823 
L 328.848241 46.39243 
L 330.887529 44.842686 
L 332.926816 49.124743 
L 334.966103 44.956997 
L 337.005391 55.684973 
L 339.044678 47.013685 
L 341.083965 49.386868 
L 343.123253 52.107815 
L 345.16254 48.103668 
L 347.201827 53.729616 
L 349.241115 53.748592 
L 351.280402 41.860389 
L 353.319689 52.612112 
L 355.358977 54.704128 
L 357.398264 64.460816 
L 359.437551 82.718978 
L 361.476839 49.69473 
L 363.516126 56.96481 
L 365.555413 45.092323 
L 367.594701 69.317972 
L 369.633988 53.333116 
L 371.673275 59.660188 
L 373.712563 52.546704 
L 375.75185 68.560716 
L 377.791138 51.668926 
L 379.830425 91.597059 
L 381.869712 66.852903 
L 383.909 69.845126 
L 385.948287 101.235253 
L 387.987574 72.695573 
L 390.026862 78.525225 
L 392.066149 62.485618 
L 394.105436 63.74472 
L 396.144724 99.051876 
L 398.184011 84.001272 
L 400.223298 84.700962 
L 402.262586 56.822807 
L 404.301873 81.092782 
L 406.34116 72.982686 
L 408.380448 68.072026 
L 410.419735 50.107046 
L 412.459022 69.063981 
L 414.49831 107.069801 
L 416.537597 78.653631 
L 418.576884 115.611773 
L 420.616172 100.418529 
L 422.655459 83.89217 
L 424.694746 79.433274 
L 426.734034 65.890563 
L 428.773321 66.550483 
L 430.812608 62.835818 
L 432.851896 60.571058 
L 434.891183 69.005926 
L 436.930471 58.961971 
L 438.969758 60.661035 
L 441.009045 71.789218 
L 443.048333 46.96901 
L 445.08762 61.958517 
L 447.126907 69.771537 
L 449.166195 66.272787 
L 451.205482 55.984537 
L 453.244769 63.552254 
L 455.284057 62.561534 
L 457.323344 55.708702 
L 459.362631 52.180128 
L 461.401919 58.444215 
L 465.480493 62.701717 
L 467.519781 60.169858 
L 469.559068 53.711505 
L 471.598355 67.544161 
L 473.637643 68.270061 
L 475.67693 71.755119 
L 477.716217 49.880231 
L 479.755505 64.953854 
L 481.794792 60.048543 
L 483.834079 62.411618 
L 485.873367 68.173113 
L 487.912654 66.884766 
L 489.951942 46.103302 
L 491.991229 52.830143 
L 494.030516 43.50158 
L 496.069804 62.151442 
L 498.109091 58.260688 
L 498.109091 58.260688 
" clip-path="url(#p2d40e4ed79)" style="fill: none; stroke: #ff0000; stroke-opacity: 0.9; stroke-width: 1.5; stroke-linecap: square"/>
   </g>
   <g id="line2d_16">
    <path d="M 92.290909 61.761209 
L 94.330196 106.04117 
L 96.369484 130.739348 
L 98.408771 104.600283 
L 100.448058 89.516374 
L 102.487346 107.482653 
L 104.526633 98.509091 
L 106.565921 67.801056 
L 108.605208 115.664872 
L 110.644495 45.048152 
L 112.683783 82.002608 
L 114.72307 123.771367 
L 116.762357 122.973106 
L 118.801645 111.628865 
L 120.840932 68.163136 
L 122.880219 117.080235 
L 124.919507 69.873554 
L 126.958794 66.427927 
L 128.998081 88.218545 
L 131.037369 64.595835 
L 133.076656 52.638005 
L 135.115943 53.087629 
L 137.155231 108.635229 
L 139.194518 108.247805 
L 141.233805 126.09869 
L 143.273093 122.31018 
L 145.31238 121.074056 
L 147.351667 117.028281 
L 149.390955 117.772596 
L 151.430242 110.086349 
L 153.469529 107.696384 
L 155.508817 112.365809 
L 157.548104 128.566049 
L 159.587392 109.764034 
L 161.626679 122.015584 
L 163.665966 98.345941 
L 165.705254 94.133576 
L 167.744541 111.660889 
L 169.783828 47.730929 
L 171.823116 54.883886 
L 173.862403 75.11681 
L 175.90169 47.85627 
L 177.940978 42.501219 
L 179.980265 70.54793 
L 182.019552 67.389373 
L 184.05884 70.984213 
L 186.098127 64.949721 
L 188.137414 56.851211 
L 190.176702 67.010166 
L 192.215989 60.849559 
L 194.255276 48.70491 
L 196.294564 69.226396 
L 198.333851 75.488938 
L 200.373138 96.760136 
L 202.412426 71.064595 
L 204.451713 53.458593 
L 206.491 44.557646 
L 208.530288 76.523872 
L 210.569575 56.883545 
L 212.608862 110.800584 
L 214.64815 108.823687 
L 216.687437 93.447346 
L 218.726725 92.389333 
L 220.766012 109.745416 
L 222.805299 122.101542 
L 224.844587 121.453465 
L 226.883874 67.99419 
L 228.923161 59.65729 
L 230.962449 80.167588 
L 233.001736 73.396647 
L 235.041023 41.462934 
L 237.080311 60.393417 
L 239.119598 52.608098 
L 241.158885 74.940589 
L 243.198173 50.66248 
L 245.23746 84.534211 
L 247.276747 49.835779 
L 249.316035 99.270127 
L 251.355322 75.041432 
L 253.394609 112.355898 
L 257.473184 69.297487 
L 259.512471 64.746312 
L 261.551759 57.729001 
L 263.591046 69.249147 
L 265.630333 67.158657 
L 267.669621 60.134327 
L 269.708908 49.694641 
L 271.748196 41.92845 
L 273.787483 59.888936 
L 275.82677 49.778428 
L 277.866058 66.195148 
L 279.905345 56.507714 
L 281.944632 78.343715 
L 283.98392 64.952285 
L 288.062494 54.280917 
L 290.101782 68.608823 
L 292.141069 74.8489 
L 294.180356 53.191811 
L 296.219644 43.38528 
L 298.258931 80.808461 
L 300.298218 56.960134 
L 302.337506 62.837119 
L 304.376793 59.454185 
L 306.41608 44.739228 
L 308.455368 47.020999 
L 310.494655 50.998338 
L 312.533942 58.071294 
L 314.57323 72.675125 
L 316.612517 40.072373 
L 318.651804 55.682558 
L 320.691092 45.733011 
L 322.730379 42.204115 
L 324.769667 55.870289 
L 326.808954 63.099065 
L 328.848241 46.231618 
L 330.887529 44.88533 
L 332.926816 49.303561 
L 334.966103 45.003715 
L 337.005391 55.687007 
L 339.044678 46.875362 
L 343.123253 52.033701 
L 345.16254 47.893893 
L 347.201827 53.608909 
L 349.241115 53.70417 
L 351.280402 41.813355 
L 353.319689 52.390359 
L 355.358977 54.583266 
L 357.398264 64.35995 
L 359.437551 82.527538 
L 361.476839 49.588619 
L 363.516126 56.876801 
L 365.555413 45.051172 
L 367.594701 69.281308 
L 369.633988 53.260188 
L 371.673275 59.759206 
L 373.712563 52.462649 
L 375.75185 68.653323 
L 377.791138 51.783187 
L 379.830425 91.5257 
L 381.869712 66.913087 
L 383.909 69.680128 
L 385.948287 101.144238 
L 387.987574 72.801199 
L 390.026862 78.553773 
L 392.066149 62.328624 
L 394.105436 63.854132 
L 396.144724 98.846421 
L 398.184011 83.998493 
L 400.223298 84.743888 
L 402.262586 56.943276 
L 404.301873 81.254947 
L 406.34116 72.933737 
L 408.380448 68.265905 
L 410.419735 50.221545 
L 412.459022 69.03343 
L 414.49831 106.983545 
L 416.537597 78.624762 
L 418.576884 115.602577 
L 420.616172 100.443241 
L 422.655459 83.896315 
L 424.694746 79.522303 
L 426.734034 65.770017 
L 428.773321 66.714789 
L 430.812608 62.82877 
L 432.851896 60.697997 
L 434.891183 68.953561 
L 436.930471 59.014801 
L 438.969758 60.567295 
L 441.009045 71.695013 
L 443.048333 46.9817 
L 445.08762 61.968906 
L 447.126907 69.699581 
L 449.166195 66.287636 
L 451.205482 56.137143 
L 453.244769 63.687524 
L 455.284057 62.641659 
L 457.323344 55.761831 
L 459.362631 52.440465 
L 461.401919 58.449582 
L 465.480493 62.751823 
L 467.519781 60.015398 
L 469.559068 53.433732 
L 471.598355 67.417103 
L 473.637643 68.180722 
L 475.67693 71.973633 
L 477.716217 49.752063 
L 479.755505 64.969001 
L 481.794792 59.969455 
L 483.834079 62.326357 
L 485.873367 68.134201 
L 487.912654 66.595537 
L 489.951942 46.327249 
L 491.991229 52.834836 
L 494.030516 43.491633 
L 496.069804 62.194654 
L 498.109091 58.193474 
L 498.109091 58.193474 
" clip-path="url(#p2d40e4ed79)" style="fill: none; stroke: #ff0000; stroke-opacity: 0.9; stroke-width: 1.5; stroke-linecap: square"/>
   </g>
   <g id="line2d_17">
    <path d="M 92.290909 61.779684 
L 94.330196 106.026011 
L 96.369484 130.7549 
L 98.408771 104.622444 
L 100.448058 89.551791 
L 102.487346 107.520557 
L 104.526633 98.484873 
L 106.565921 67.935718 
L 108.605208 115.803499 
L 110.644495 45.145482 
L 112.683783 82.052696 
L 114.72307 123.827996 
L 116.762357 122.798101 
L 118.801645 111.536312 
L 120.840932 68.259112 
L 122.880219 116.979798 
L 124.919507 69.873799 
L 126.958794 66.399362 
L 128.998081 88.179198 
L 131.037369 64.728112 
L 133.076656 52.721643 
L 135.115943 53.167038 
L 137.155231 108.609132 
L 139.194518 108.276394 
L 141.233805 126.065474 
L 143.273093 122.425156 
L 145.31238 120.83913 
L 147.351667 116.944017 
L 149.390955 117.676834 
L 151.430242 110.127401 
L 153.469529 107.578391 
L 155.508817 112.450944 
L 157.548104 128.482989 
L 159.587392 109.811074 
L 161.626679 122.053357 
L 163.665966 98.475522 
L 165.705254 94.199038 
L 167.744541 111.747097 
L 169.783828 47.795123 
L 171.823116 54.844282 
L 173.862403 75.12108 
L 175.90169 48.075664 
L 177.940978 42.335047 
L 179.980265 70.551937 
L 182.019552 67.350258 
L 184.05884 70.897545 
L 186.098127 64.853297 
L 188.137414 56.740499 
L 190.176702 67.023519 
L 192.215989 60.754334 
L 194.255276 48.746279 
L 196.294564 69.253727 
L 198.333851 75.5004 
L 200.373138 96.976521 
L 202.412426 70.998465 
L 204.451713 53.397742 
L 206.491 44.746822 
L 208.530288 76.661396 
L 210.569575 56.804249 
L 212.608862 110.766819 
L 214.64815 108.845656 
L 216.687437 93.431459 
L 218.726725 92.48974 
L 220.766012 109.872081 
L 222.805299 122.045163 
L 224.844587 121.484249 
L 226.883874 68.031301 
L 228.923161 59.721392 
L 230.962449 80.099611 
L 233.001736 73.483476 
L 235.041023 41.621441 
L 237.080311 60.363534 
L 239.119598 52.558112 
L 241.158885 74.889154 
L 243.198173 50.70921 
L 245.23746 84.63373 
L 247.276747 49.97502 
L 249.316035 99.273437 
L 251.355322 75.013666 
L 253.394609 112.371487 
L 257.473184 69.163124 
L 259.512471 64.879703 
L 261.551759 57.836422 
L 263.591046 69.267276 
L 265.630333 67.291327 
L 267.669621 60.106359 
L 269.708908 49.532935 
L 271.748196 41.800992 
L 273.787483 59.898901 
L 275.82677 49.782108 
L 277.866058 66.294905 
L 279.905345 56.468737 
L 281.944632 78.180154 
L 283.98392 64.994077 
L 286.023207 59.824411 
L 288.062494 54.193743 
L 290.101782 68.835257 
L 292.141069 74.873267 
L 294.180356 53.172507 
L 296.219644 43.226949 
L 298.258931 80.822034 
L 300.298218 57.001783 
L 302.337506 62.894493 
L 304.376793 59.376171 
L 306.41608 44.713606 
L 308.455368 47.063823 
L 310.494655 50.97969 
L 312.533942 57.994675 
L 314.57323 72.696838 
L 316.612517 40.033661 
L 318.651804 55.705064 
L 320.691092 45.718278 
L 322.730379 42.186562 
L 324.769667 55.806205 
L 326.808954 63.028642 
L 328.848241 46.130683 
L 330.887529 44.823716 
L 332.926816 49.317713 
L 334.966103 44.960148 
L 337.005391 55.660505 
L 339.044678 46.929242 
L 341.083965 49.507 
L 343.123253 52.2926 
L 345.16254 48.061855 
L 347.201827 53.653844 
L 349.241115 53.727577 
L 351.280402 41.763771 
L 353.319689 52.498048 
L 355.358977 54.687234 
L 357.398264 64.680356 
L 359.437551 82.420416 
L 361.476839 49.701272 
L 363.516126 56.959938 
L 365.555413 44.928646 
L 367.594701 69.373426 
L 369.633988 53.376488 
L 371.673275 59.823045 
L 373.712563 52.711958 
L 375.75185 68.454029 
L 377.791138 51.722103 
L 379.830425 91.802794 
L 381.869712 66.686403 
L 383.909 69.816967 
L 385.948287 101.144679 
L 387.987574 72.817378 
L 390.026862 78.614839 
L 392.066149 62.270253 
L 394.105436 63.67546 
L 396.144724 98.947306 
L 398.184011 84.032735 
L 400.223298 84.753209 
L 402.262586 56.836177 
L 404.301873 81.110017 
L 406.34116 73.095366 
L 408.380448 68.194235 
L 410.419735 50.301253 
L 412.459022 68.924381 
L 414.49831 106.996867 
L 416.537597 78.827342 
L 418.576884 115.598952 
L 420.616172 100.477854 
L 422.655459 83.809134 
L 424.694746 79.477487 
L 426.734034 65.809758 
L 428.773321 66.650675 
L 430.812608 62.690763 
L 432.851896 60.615808 
L 434.891183 69.058202 
L 436.930471 58.982533 
L 438.969758 60.697812 
L 441.009045 71.556052 
L 443.048333 47.063209 
L 445.08762 61.843893 
L 447.126907 69.914965 
L 449.166195 66.265696 
L 451.205482 56.048001 
L 453.244769 63.41275 
L 455.284057 62.657075 
L 457.323344 55.808239 
L 459.362631 52.226244 
L 461.401919 58.386411 
L 465.480493 62.697901 
L 467.519781 60.228408 
L 469.559068 53.641452 
L 471.598355 67.420675 
L 473.637643 68.291279 
L 475.67693 71.867716 
L 477.716217 49.995589 
L 479.755505 65.137046 
L 481.794792 60.098499 
L 483.834079 62.199025 
L 485.873367 68.160673 
L 487.912654 66.713119 
L 489.951942 46.203903 
L 491.991229 52.8551 
L 494.030516 43.33714 
L 496.069804 62.035297 
L 498.109091 58.297215 
L 498.109091 58.297215 
" clip-path="url(#p2d40e4ed79)" style="fill: none; stroke: #ff0000; stroke-opacity: 0.9; stroke-width: 1.5; stroke-linecap: square"/>
   </g>
   <g id="line2d_18">
    <path d="M 92.290909 112.436978 
L 94.330196 100.897015 
L 96.369484 120.793426 
L 98.408771 101.069754 
L 100.448058 91.678318 
L 102.487346 104.976019 
L 104.526633 99.124207 
L 106.565921 66.531143 
L 108.605208 112.829972 
L 110.644495 46.193216 
L 112.683783 81.003073 
L 114.72307 119.440585 
L 116.762357 121.659814 
L 118.801645 112.826084 
L 120.840932 69.480119 
L 122.880219 112.737371 
L 124.919507 67.975942 
L 126.958794 63.513003 
L 128.998081 85.249365 
L 131.037369 63.384847 
L 133.076656 49.897638 
L 135.115943 52.208437 
L 137.155231 105.301387 
L 139.194518 109.492147 
L 141.233805 125.599642 
L 143.273093 121.625953 
L 145.31238 121.747513 
L 147.351667 113.628555 
L 149.390955 118.442093 
L 151.430242 109.529681 
L 153.469529 107.964133 
L 155.508817 114.871752 
L 157.548104 128.668895 
L 159.587392 109.861477 
L 161.626679 124.034225 
L 163.665966 95.959663 
L 165.705254 95.114696 
L 167.744541 113.163939 
L 169.783828 49.834622 
L 171.823116 54.403395 
L 173.862403 74.858108 
L 175.90169 50.609434 
L 177.940978 43.073905 
L 179.980265 68.733383 
L 182.019552 64.14889 
L 184.05884 70.597093 
L 186.098127 65.735357 
L 188.137414 59.339281 
L 190.176702 68.384345 
L 192.215989 61.341237 
L 194.255276 47.594589 
L 196.294564 68.665494 
L 198.333851 74.68206 
L 200.373138 92.824841 
L 202.412426 70.957872 
L 204.451713 52.274197 
L 206.491 42.316247 
L 208.530288 73.087411 
L 210.569575 57.875459 
L 212.608862 111.842549 
L 214.64815 106.0585 
L 216.687437 93.807534 
L 218.726725 92.413074 
L 220.766012 109.420823 
L 222.805299 121.215367 
L 224.844587 120.29173 
L 226.883874 69.836241 
L 228.923161 58.118853 
L 230.962449 79.032993 
L 233.001736 73.363109 
L 235.041023 43.790472 
L 237.080311 58.956747 
L 239.119598 51.550795 
L 241.158885 74.116995 
L 243.198173 52.070692 
L 245.23746 81.127329 
L 247.276747 50.137239 
L 249.316035 102.069104 
L 251.355322 76.932693 
L 253.394609 110.968039 
L 257.473184 71.896352 
L 259.512471 65.262166 
L 261.551759 56.865822 
L 263.591046 68.538227 
L 265.630333 63.826539 
L 267.669621 60.580617 
L 269.708908 48.40294 
L 271.748196 39.141818 
L 273.787483 61.834113 
L 275.82677 49.493439 
L 277.866058 65.357671 
L 279.905345 53.921557 
L 281.944632 81.784136 
L 283.98392 64.414313 
L 286.023207 62.793633 
L 288.062494 52.869955 
L 290.101782 67.072807 
L 292.141069 75.110918 
L 294.180356 54.074586 
L 296.219644 41.293529 
L 298.258931 78.792575 
L 300.298218 55.189037 
L 302.337506 60.472964 
L 304.376793 58.008892 
L 306.41608 44.611901 
L 308.455368 45.3632 
L 310.494655 56.313877 
L 312.533942 60.706852 
L 314.57323 72.461626 
L 316.612517 40.234097 
L 318.651804 56.544795 
L 320.691092 46.083673 
L 322.730379 42.022148 
L 326.808954 62.706953 
L 328.848241 45.917005 
L 332.926816 47.560487 
L 334.966103 45.813986 
L 337.005391 56.228283 
L 339.044678 40.664867 
L 341.083965 50.064932 
L 343.123253 56.263074 
L 345.16254 48.652002 
L 347.201827 52.529804 
L 349.241115 54.531199 
L 351.280402 41.045376 
L 353.319689 58.388217 
L 355.358977 57.669325 
L 357.398264 64.788891 
L 359.437551 83.25212 
L 361.476839 47.646662 
L 363.516126 55.885311 
L 365.555413 45.754366 
L 367.594701 69.973824 
L 369.633988 52.930359 
L 371.673275 62.305855 
L 373.712563 51.791255 
L 375.75185 68.31595 
L 377.791138 49.914759 
L 379.830425 94.203796 
L 381.869712 66.369413 
L 383.909 72.435953 
L 385.948287 100.257479 
L 387.987574 72.255408 
L 390.026862 80.204669 
L 392.066149 62.063815 
L 394.105436 66.753241 
L 396.144724 101.160637 
L 398.184011 83.560367 
L 400.223298 83.830162 
L 402.262586 58.957051 
L 404.301873 80.06671 
L 406.34116 68.352775 
L 408.380448 69.282244 
L 410.419735 46.926201 
L 412.459022 68.690702 
L 414.49831 105.428445 
L 416.537597 78.612412 
L 418.576884 113.197192 
L 420.616172 106.045261 
L 422.655459 86.277602 
L 424.694746 81.19449 
L 426.734034 61.496484 
L 428.773321 66.153547 
L 430.812608 64.530219 
L 432.851896 63.559882 
L 434.891183 71.067034 
L 436.930471 59.994853 
L 438.969758 59.967803 
L 441.009045 71.14373 
L 443.048333 47.784717 
L 445.08762 60.203325 
L 447.126907 69.591308 
L 449.166195 66.434654 
L 451.205482 56.335733 
L 453.244769 64.300064 
L 455.284057 62.291 
L 457.323344 52.904215 
L 459.362631 49.751932 
L 461.401919 60.264123 
L 463.441206 60.206104 
L 465.480493 62.40659 
L 467.519781 54.676785 
L 469.559068 56.016704 
L 471.598355 67.876119 
L 473.637643 67.994518 
L 475.67693 70.369538 
L 477.716217 49.980698 
L 479.755505 65.028159 
L 481.794792 57.736605 
L 483.834079 61.521459 
L 485.873367 66.291918 
L 487.912654 66.899084 
L 489.951942 46.406468 
L 491.991229 49.611066 
L 494.030516 43.750753 
L 496.069804 64.392653 
L 498.109091 58.655573 
L 498.109091 58.655573 
" clip-path="url(#p2d40e4ed79)" style="fill: none; stroke: #008000; stroke-opacity: 0.9; stroke-width: 1.5; stroke-linecap: square"/>
   </g>
   <g id="line2d_19">
    <path d="M 153.469529 135.36 
L 153.469529 34.56 
" clip-path="url(#p2d40e4ed79)" style="fill: none; stroke-dasharray: 5.55,2.4; stroke-dashoffset: 0; stroke: #000000; stroke-width: 1.5"/>
   </g>
   <g id="line2d_20">
    <path d="M 438.969758 135.36 
L 438.969758 34.56 
" clip-path="url(#p2d40e4ed79)" style="fill: none; stroke-dasharray: 5.55,2.4; stroke-dashoffset: 0; stroke: #0000ff; stroke-width: 1.5"/>
   </g>
   <g id="patch_3">
    <path d="M 72 135.36 
L 72 34.56 
" style="fill: none; stroke: #000000; stroke-width: 0.8; stroke-linejoin: miter; stroke-linecap: square"/>
   </g>
   <g id="patch_4">
    <path d="M 518.4 135.36 
L 518.4 34.56 
" style="fill: none; stroke: #000000; stroke-width: 0.8; stroke-linejoin: miter; stroke-linecap: square"/>
   </g>
   <g id="patch_5">
    <path d="M 72 135.36 
L 518.4 135.36 
" style="fill: none; stroke: #000000; stroke-width: 0.8; stroke-linejoin: miter; stroke-linecap: square"/>
   </g>
   <g id="patch_6">
    <path d="M 72 34.56 
L 518.4 34.56 
" style="fill: none; stroke: #000000; stroke-width: 0.8; stroke-linejoin: miter; stroke-linecap: square"/>
   </g>
  </g>
  <g id="axes_2">
   <g id="patch_7">
    <path d="M 72 256.32 
L 518.4 256.32 
L 518.4 155.52 
L 72 155.52 
z
" style="fill: #ffffff"/>
   </g>
   <g id="matplotlib.axis_3">
    <g id="xtick_10">
     <g id="line2d_21">
      <g>
       <use xlink:href="#md3284aabfd" x="92.290909" y="256.32" style="stroke: #000000; stroke-width: 0.8"/>
      </g>
     </g>
     <g id="text_4">
      <!-- 0 -->
      <g transform="translate(89.109659 270.918437) scale(0.1 -0.1)">
       <use xlink:href="#DejaVuSans-30"/>
      </g>
     </g>
    </g>
    <g id="xtick_11">
     <g id="line2d_22">
      <g>
       <use xlink:href="#md3284aabfd" x="143.273093" y="256.32" style="stroke: #000000; stroke-width: 0.8"/>
      </g>
     </g>
     <g id="text_5">
      <!-- 25 -->
      <g transform="translate(136.910593 270.918437) scale(0.1 -0.1)">
       <defs>
        <path id="DejaVuSans-32" d="M 1228 531 
L 3431 531 
L 3431 0 
L 469 0 
L 469 531 
Q 828 903 1448 1529 
Q 2069 2156 2228 2338 
Q 2531 2678 2651 2914 
Q 2772 3150 2772 3378 
Q 2772 3750 2511 3984 
Q 2250 4219 1831 4219 
Q 1534 4219 1204 4116 
Q 875 4013 500 3803 
L 500 4441 
Q 881 4594 1212 4672 
Q 1544 4750 1819 4750 
Q 2544 4750 2975 4387 
Q 3406 4025 3406 3419 
Q 3406 3131 3298 2873 
Q 3191 2616 2906 2266 
Q 2828 2175 2409 1742 
Q 1991 1309 1228 531 
z
" transform="scale(0.015625)"/>
       </defs>
       <use xlink:href="#DejaVuSans-32"/>
       <use xlink:href="#DejaVuSans-35" transform="translate(63.623047 0)"/>
      </g>
     </g>
    </g>
    <g id="xtick_12">
     <g id="line2d_23">
      <g>
       <use xlink:href="#md3284aabfd" x="194.255276" y="256.32" style="stroke: #000000; stroke-width: 0.8"/>
      </g>
     </g>
     <g id="text_6">
      <!-- 50 -->
      <g transform="translate(187.892776 270.918437) scale(0.1 -0.1)">
       <use xlink:href="#DejaVuSans-35"/>
       <use xlink:href="#DejaVuSans-30" transform="translate(63.623047 0)"/>
      </g>
     </g>
    </g>
    <g id="xtick_13">
     <g id="line2d_24">
      <g>
       <use xlink:href="#md3284aabfd" x="245.23746" y="256.32" style="stroke: #000000; stroke-width: 0.8"/>
      </g>
     </g>
     <g id="text_7">
      <!-- 75 -->
      <g transform="translate(238.87496 270.918437) scale(0.1 -0.1)">
       <defs>
        <path id="DejaVuSans-37" d="M 525 4666 
L 3525 4666 
L 3525 4397 
L 1831 0 
L 1172 0 
L 2766 4134 
L 525 4134 
L 525 4666 
z
" transform="scale(0.015625)"/>
       </defs>
       <use xlink:href="#DejaVuSans-37"/>
       <use xlink:href="#DejaVuSans-35" transform="translate(63.623047 0)"/>
      </g>
     </g>
    </g>
    <g id="xtick_14">
     <g id="line2d_25">
      <g>
       <use xlink:href="#md3284aabfd" x="296.219644" y="256.32" style="stroke: #000000; stroke-width: 0.8"/>
      </g>
     </g>
     <g id="text_8">
      <!-- 100 -->
      <g transform="translate(286.675894 270.918437) scale(0.1 -0.1)">
       <use xlink:href="#DejaVuSans-31"/>
       <use xlink:href="#DejaVuSans-30" transform="translate(63.623047 0)"/>
       <use xlink:href="#DejaVuSans-30" transform="translate(127.246094 0)"/>
      </g>
     </g>
    </g>
    <g id="xtick_15">
     <g id="line2d_26">
      <g>
       <use xlink:href="#md3284aabfd" x="347.201827" y="256.32" style="stroke: #000000; stroke-width: 0.8"/>
      </g>
     </g>
     <g id="text_9">
      <!-- 125 -->
      <g transform="translate(337.658077 270.918437) scale(0.1 -0.1)">
       <use xlink:href="#DejaVuSans-31"/>
       <use xlink:href="#DejaVuSans-32" transform="translate(63.623047 0)"/>
       <use xlink:href="#DejaVuSans-35" transform="translate(127.246094 0)"/>
      </g>
     </g>
    </g>
    <g id="xtick_16">
     <g id="line2d_27">
      <g>
       <use xlink:href="#md3284aabfd" x="398.184011" y="256.32" style="stroke: #000000; stroke-width: 0.8"/>
      </g>
     </g>
     <g id="text_10">
      <!-- 150 -->
      <g transform="translate(388.640261 270.918437) scale(0.1 -0.1)">
       <use xlink:href="#DejaVuSans-31"/>
       <use xlink:href="#DejaVuSans-35" transform="translate(63.623047 0)"/>
       <use xlink:href="#DejaVuSans-30" transform="translate(127.246094 0)"/>
      </g>
     </g>
    </g>
    <g id="xtick_17">
     <g id="line2d_28">
      <g>
       <use xlink:href="#md3284aabfd" x="449.166195" y="256.32" style="stroke: #000000; stroke-width: 0.8"/>
      </g>
     </g>
     <g id="text_11">
      <!-- 175 -->
      <g transform="translate(439.622445 270.918437) scale(0.1 -0.1)">
       <use xlink:href="#DejaVuSans-31"/>
       <use xlink:href="#DejaVuSans-37" transform="translate(63.623047 0)"/>
       <use xlink:href="#DejaVuSans-35" transform="translate(127.246094 0)"/>
      </g>
     </g>
    </g>
    <g id="xtick_18">
     <g id="line2d_29">
      <g>
       <use xlink:href="#md3284aabfd" x="500.148378" y="256.32" style="stroke: #000000; stroke-width: 0.8"/>
      </g>
     </g>
     <g id="text_12">
      <!-- 200 -->
      <g transform="translate(490.604628 270.918437) scale(0.1 -0.1)">
       <use xlink:href="#DejaVuSans-32"/>
       <use xlink:href="#DejaVuSans-30" transform="translate(63.623047 0)"/>
       <use xlink:href="#DejaVuSans-30" transform="translate(127.246094 0)"/>
      </g>
     </g>
    </g>
   </g>
   <g id="matplotlib.axis_4">
    <g id="ytick_4">
     <g id="line2d_30">
      <g>
       <use xlink:href="#m242faeaead" x="72" y="254.027737" style="stroke: #000000; stroke-width: 0.8"/>
      </g>
     </g>
     <g id="text_13">
      <!-- −200 -->
      <g transform="translate(37.532812 257.826956) scale(0.1 -0.1)">
       <use xlink:href="#DejaVuSans-2212"/>
       <use xlink:href="#DejaVuSans-32" transform="translate(83.789062 0)"/>
       <use xlink:href="#DejaVuSans-30" transform="translate(147.412109 0)"/>
       <use xlink:href="#DejaVuSans-30" transform="translate(211.035156 0)"/>
      </g>
     </g>
    </g>
    <g id="ytick_5">
     <g id="line2d_31">
      <g>
       <use xlink:href="#m242faeaead" x="72" y="229.35353" style="stroke: #000000; stroke-width: 0.8"/>
      </g>
     </g>
     <g id="text_14">
      <!-- −100 -->
      <g transform="translate(37.532812 233.152749) scale(0.1 -0.1)">
       <use xlink:href="#DejaVuSans-2212"/>
       <use xlink:href="#DejaVuSans-31" transform="translate(83.789062 0)"/>
       <use xlink:href="#DejaVuSans-30" transform="translate(147.412109 0)"/>
       <use xlink:href="#DejaVuSans-30" transform="translate(211.035156 0)"/>
      </g>
     </g>
    </g>
    <g id="ytick_6">
     <g id="line2d_32">
      <g>
       <use xlink:href="#m242faeaead" x="72" y="204.679323" style="stroke: #000000; stroke-width: 0.8"/>
      </g>
     </g>
     <g id="text_15">
      <!-- 0 -->
      <g transform="translate(58.6375 208.478541) scale(0.1 -0.1)">
       <use xlink:href="#DejaVuSans-30"/>
      </g>
     </g>
    </g>
    <g id="ytick_7">
     <g id="line2d_33">
      <g>
       <use xlink:href="#m242faeaead" x="72" y="180.005115" style="stroke: #000000; stroke-width: 0.8"/>
      </g>
     </g>
     <g id="text_16">
      <!-- 100 -->
      <g transform="translate(45.9125 183.804334) scale(0.1 -0.1)">
       <use xlink:href="#DejaVuSans-31"/>
       <use xlink:href="#DejaVuSans-30" transform="translate(63.623047 0)"/>
       <use xlink:href="#DejaVuSans-30" transform="translate(127.246094 0)"/>
      </g>
     </g>
    </g>
   </g>
   <g id="line2d_34">
    <path d="M 92.290909 176.391518 
L 96.369484 163.686423 
L 98.408771 163.589045 
L 100.448058 169.540151 
L 102.487346 166.024983 
L 104.526633 168.333461 
L 106.565921 162.500219 
L 108.605208 164.585294 
L 110.644495 175.366719 
L 112.683783 249.0895 
L 114.72307 161.730924 
L 116.762357 163.499311 
L 118.801645 169.943324 
L 120.840932 161.150363 
L 122.880219 167.894954 
L 124.919507 166.141939 
L 126.958794 180.185317 
L 128.998081 163.427396 
L 131.037369 167.176146 
L 133.076656 173.871536 
L 135.115943 167.749531 
L 137.155231 165.756706 
L 139.194518 165.206961 
L 141.233805 167.544147 
L 143.273093 164.920182 
L 145.31238 161.324015 
L 147.351667 160.900759 
L 149.390955 163.977724 
L 151.430242 162.360113 
L 153.469529 164.019116 
L 155.508817 167.979029 
L 157.548104 163.629594 
L 159.587392 165.243079 
L 161.626679 168.201081 
L 163.665966 168.340886 
L 165.705254 250.319667 
L 167.744541 162.103958 
L 169.783828 168.123021 
L 171.823116 166.619038 
L 173.862403 166.84592 
L 175.90169 172.251859 
L 177.940978 170.721016 
L 179.980265 184.767709 
L 182.019552 169.497794 
L 184.05884 172.614954 
L 186.098127 187.854752 
L 188.137414 173.021742 
L 190.176702 174.140716 
L 192.215989 197.768264 
L 194.255276 193.048874 
L 196.294564 189.81431 
L 198.333851 188.0879 
L 200.373138 171.512837 
L 202.412426 164.510808 
L 204.451713 167.347672 
L 206.491 166.290671 
L 208.530288 174.490805 
L 210.569575 166.001332 
L 212.608862 163.454391 
L 214.64815 168.346695 
L 216.687437 161.270677 
L 218.726725 167.367411 
L 220.766012 166.56556 
L 222.805299 169.81772 
L 224.844587 162.338829 
L 226.883874 177.771621 
L 228.923161 186.71632 
L 230.962449 166.339646 
L 233.001736 170.928534 
L 235.041023 166.132956 
L 237.080311 166.414546 
L 239.119598 168.540208 
L 241.158885 164.731944 
L 243.198173 170.575337 
L 245.23746 162.116808 
L 247.276747 164.162829 
L 249.316035 164.632895 
L 251.355322 169.548588 
L 253.394609 165.509975 
L 255.433897 163.051473 
L 257.473184 169.408625 
L 259.512471 163.986221 
L 261.551759 162.064671 
L 263.591046 164.759907 
L 265.630333 167.869423 
L 267.669621 163.474036 
L 269.708908 164.965611 
L 271.748196 165.089467 
L 273.787483 166.483931 
L 275.82677 162.403516 
L 277.866058 250.849992 
L 279.905345 167.859326 
L 281.944632 164.374926 
L 283.98392 163.074229 
L 286.023207 169.759732 
L 288.062494 171.251355 
L 290.101782 169.498796 
L 292.141069 171.440839 
L 294.180356 167.033924 
L 296.219644 167.610419 
L 298.258931 174.166468 
L 300.298218 169.447442 
L 302.337506 164.290925 
L 304.376793 170.338945 
L 306.41608 163.810724 
L 308.455368 167.426755 
L 310.494655 167.693843 
L 312.533942 163.582088 
L 314.57323 250.857996 
L 316.612517 160.110978 
L 318.651804 162.279949 
L 320.691092 161.94927 
L 322.730379 165.583768 
L 326.808954 164.38499 
L 328.848241 166.719183 
L 330.887529 167.111769 
L 332.926816 163.648999 
L 334.966103 165.049664 
L 337.005391 160.953808 
L 339.044678 163.087794 
L 341.083965 162.684869 
L 343.123253 162.783805 
L 345.16254 165.019585 
L 347.201827 163.40647 
L 349.241115 251.630654 
L 351.280402 162.867249 
L 353.319689 163.811677 
L 355.358977 170.637094 
L 357.398264 167.5089 
L 359.437551 170.897495 
L 361.476839 166.362989 
L 363.516126 165.983696 
L 365.555413 169.996892 
L 367.594701 167.157465 
L 369.633988 170.244037 
L 371.673275 165.582835 
L 373.712563 171.737426 
L 375.75185 175.816068 
L 377.791138 173.873946 
L 379.830425 166.087523 
L 381.869712 178.409543 
L 383.909 171.115469 
L 387.987574 168.299027 
L 390.026862 172.100243 
L 392.066149 171.769888 
L 394.105436 171.786958 
L 396.144724 248.965379 
L 398.184011 164.665138 
L 400.223298 171.002444 
L 402.262586 170.795521 
L 404.301873 170.145827 
L 406.34116 167.376165 
L 408.380448 172.471353 
L 410.419735 166.435491 
L 412.459022 171.636773 
L 414.49831 164.976322 
L 416.537597 166.84046 
L 418.576884 160.751625 
L 420.616172 168.392259 
L 422.655459 167.286626 
L 424.694746 171.487838 
L 426.734034 167.52684 
L 428.773321 172.228885 
L 430.812608 175.608983 
L 432.851896 171.846388 
L 434.891183 173.671554 
L 436.930471 178.255734 
L 438.969758 170.578308 
L 441.009045 178.379171 
L 443.048333 171.78465 
L 445.08762 174.224562 
L 447.126907 175.171174 
L 449.166195 163.626917 
L 451.205482 169.21492 
L 453.244769 173.128605 
L 455.284057 178.55066 
L 457.323344 180.240387 
L 459.362631 173.444711 
L 461.401919 172.905867 
L 463.441206 176.76342 
L 465.480493 174.800701 
L 467.519781 174.844783 
L 469.559068 175.19754 
L 471.598355 170.466838 
L 473.637643 175.44302 
L 475.67693 178.003293 
L 477.716217 179.527363 
L 479.755505 173.3844 
L 481.794792 176.563508 
L 483.834079 170.847429 
L 485.873367 173.876062 
L 487.912654 177.800321 
L 489.951942 172.641369 
L 491.991229 169.00777 
L 494.030516 168.771845 
L 496.069804 173.60891 
L 498.109091 176.173166 
L 498.109091 176.173166 
" clip-path="url(#p6d28cc1a89)" style="fill: none; stroke: #ff0000; stroke-opacity: 0.9; stroke-width: 1.5; stroke-linecap: square"/>
   </g>
   <g id="line2d_35">
    <path d="M 92.290909 176.368247 
L 96.369484 163.719175 
L 98.408771 163.616951 
L 100.448058 169.518656 
L 102.487346 166.01053 
L 104.526633 168.315435 
L 106.565921 162.478857 
L 108.605208 164.601495 
L 110.644495 175.398763 
L 112.683783 249.098385 
L 114.72307 161.681659 
L 116.762357 163.4741 
L 118.801645 169.937978 
L 120.840932 161.124471 
L 122.880219 167.902883 
L 124.919507 166.146013 
L 126.958794 180.184227 
L 128.998081 163.451398 
L 131.037369 167.201816 
L 133.076656 173.855097 
L 135.115943 167.755073 
L 137.155231 165.779966 
L 139.194518 165.243259 
L 141.233805 167.48102 
L 143.273093 164.879682 
L 145.31238 161.273787 
L 147.351667 160.899844 
L 149.390955 164.003182 
L 151.430242 162.381897 
L 153.469529 164.049816 
L 155.508817 167.992267 
L 157.548104 163.641823 
L 159.587392 165.209337 
L 161.626679 168.21494 
L 163.665966 168.348348 
L 165.705254 250.281863 
L 167.744541 162.143491 
L 169.783828 168.117389 
L 171.823116 166.603665 
L 173.862403 166.908437 
L 175.90169 172.230933 
L 177.940978 170.773556 
L 179.980265 184.737773 
L 182.019552 169.492173 
L 184.05884 172.628297 
L 186.098127 187.781557 
L 188.137414 173.009325 
L 190.176702 174.100867 
L 192.215989 197.710619 
L 194.255276 193.043732 
L 196.294564 189.841166 
L 198.333851 188.065988 
L 200.373138 171.470605 
L 202.412426 164.522781 
L 204.451713 167.364241 
L 206.491 166.304006 
L 208.530288 174.473414 
L 210.569575 165.951807 
L 212.608862 163.483125 
L 214.64815 168.330382 
L 216.687437 161.308808 
L 218.726725 167.429458 
L 220.766012 166.520113 
L 222.805299 169.809663 
L 224.844587 162.353852 
L 226.883874 177.754897 
L 228.923161 186.746244 
L 230.962449 166.354664 
L 233.001736 170.973447 
L 235.041023 166.089259 
L 237.080311 166.399208 
L 239.119598 168.531861 
L 241.158885 164.765739 
L 243.198173 170.572336 
L 245.23746 162.169435 
L 247.276747 164.228393 
L 249.316035 164.679777 
L 251.355322 169.555568 
L 253.394609 165.537203 
L 255.433897 162.979984 
L 257.473184 169.448432 
L 259.512471 164.004496 
L 261.551759 162.014062 
L 263.591046 164.733951 
L 265.630333 167.88169 
L 267.669621 163.466612 
L 269.708908 164.959572 
L 271.748196 165.034197 
L 273.787483 166.449056 
L 275.82677 162.369913 
L 277.866058 250.888376 
L 279.905345 167.911764 
L 281.944632 164.405181 
L 283.98392 163.067772 
L 286.023207 169.770714 
L 288.062494 171.241001 
L 290.101782 169.535482 
L 292.141069 171.454179 
L 294.180356 167.03168 
L 296.219644 167.654228 
L 298.258931 174.232009 
L 300.298218 169.434772 
L 302.337506 164.245384 
L 304.376793 170.297891 
L 306.41608 163.851284 
L 308.455368 167.432139 
L 310.494655 167.689935 
L 312.533942 163.560819 
L 314.57323 250.858591 
L 316.612517 160.101818 
L 318.651804 162.306755 
L 320.691092 162.011663 
L 322.730379 165.597006 
L 326.808954 164.343966 
L 328.848241 166.776026 
L 330.887529 167.134999 
L 332.926816 163.634862 
L 334.966103 165.031483 
L 337.005391 160.941794 
L 339.044678 163.059775 
L 341.083965 162.675871 
L 343.123253 162.774657 
L 345.16254 164.9454 
L 347.201827 163.42714 
L 349.241115 251.641738 
L 351.280402 162.884681 
L 353.319689 163.774938 
L 355.358977 170.605822 
L 357.398264 167.53719 
L 359.437551 170.914788 
L 361.476839 166.370409 
L 363.516126 165.971332 
L 365.555413 170.004362 
L 367.594701 167.196383 
L 369.633988 170.259007 
L 371.673275 165.598621 
L 373.712563 171.82375 
L 375.75185 175.735667 
L 377.791138 173.921259 
L 379.830425 166.096172 
L 381.869712 178.38107 
L 383.909 171.077206 
L 387.987574 168.286629 
L 390.026862 172.026916 
L 394.105436 171.752091 
L 396.144724 249.104665 
L 398.184011 164.627989 
L 400.223298 171.013254 
L 402.262586 170.84735 
L 404.301873 170.19001 
L 406.34116 167.373484 
L 408.380448 172.431 
L 410.419735 166.474643 
L 412.459022 171.656121 
L 414.49831 164.934444 
L 416.537597 166.865343 
L 418.576884 160.761116 
L 420.616172 168.377376 
L 422.655459 167.308102 
L 424.694746 171.481614 
L 426.734034 167.520733 
L 428.773321 172.209069 
L 430.812608 175.64555 
L 432.851896 171.88876 
L 434.891183 173.641874 
L 436.930471 178.205914 
L 438.969758 170.584252 
L 441.009045 178.310012 
L 443.048333 171.866445 
L 445.08762 174.272652 
L 447.126907 175.213462 
L 449.166195 163.553289 
L 451.205482 169.219664 
L 453.244769 173.188491 
L 455.284057 178.538266 
L 457.323344 180.221122 
L 459.362631 173.51422 
L 461.401919 172.928675 
L 463.441206 176.802553 
L 465.480493 174.784274 
L 467.519781 174.844397 
L 469.559068 175.19981 
L 471.598355 170.455449 
L 473.637643 175.448239 
L 475.67693 178.062573 
L 477.716217 179.495415 
L 479.755505 173.339295 
L 481.794792 176.605977 
L 483.834079 170.847948 
L 485.873367 173.932941 
L 487.912654 177.806537 
L 489.951942 172.618677 
L 491.991229 169.02864 
L 494.030516 168.783053 
L 496.069804 173.641716 
L 498.109091 176.158471 
L 498.109091 176.158471 
" clip-path="url(#p6d28cc1a89)" style="fill: none; stroke: #ff0000; stroke-opacity: 0.9; stroke-width: 1.5; stroke-linecap: square"/>
   </g>
   <g id="line2d_36">
    <path d="M 92.290909 176.405014 
L 96.369484 163.714935 
L 98.408771 163.603804 
L 100.448058 169.567989 
L 102.487346 165.994698 
L 104.526633 168.309407 
L 106.565921 162.452611 
L 108.605208 164.595257 
L 110.644495 175.420402 
L 112.683783 249.10939 
L 114.72307 161.676011 
L 116.762357 163.486694 
L 118.801645 169.951919 
L 120.840932 161.073294 
L 122.880219 167.854657 
L 124.919507 166.179551 
L 126.958794 180.186525 
L 128.998081 163.420577 
L 131.037369 167.2297 
L 133.076656 173.851561 
L 135.115943 167.744008 
L 137.155231 165.753573 
L 139.194518 165.211272 
L 141.233805 167.458675 
L 143.273093 164.902073 
L 145.31238 161.292811 
L 147.351667 160.87518 
L 149.390955 163.975965 
L 151.430242 162.349063 
L 153.469529 164.008318 
L 155.508817 167.964734 
L 157.548104 163.625167 
L 159.587392 165.208019 
L 161.626679 168.269227 
L 163.665966 168.365682 
L 165.705254 250.262567 
L 167.744541 162.133758 
L 169.783828 168.149406 
L 171.823116 166.642761 
L 173.862403 166.864383 
L 175.90169 172.256429 
L 177.940978 170.759648 
L 179.980265 184.813214 
L 182.019552 169.552861 
L 184.05884 172.595974 
L 186.098127 187.834379 
L 188.137414 173.010657 
L 190.176702 174.101445 
L 192.215989 197.753808 
L 194.255276 193.042604 
L 196.294564 189.832275 
L 198.333851 188.116509 
L 200.373138 171.504004 
L 202.412426 164.489314 
L 204.451713 167.414444 
L 206.491 166.296751 
L 208.530288 174.465918 
L 210.569575 166.00062 
L 212.608862 163.44944 
L 214.64815 168.360603 
L 216.687437 161.304166 
L 218.726725 167.394346 
L 220.766012 166.516416 
L 222.805299 169.765248 
L 224.844587 162.389852 
L 226.883874 177.724274 
L 228.923161 186.777414 
L 230.962449 166.303246 
L 233.001736 170.920872 
L 235.041023 166.108811 
L 237.080311 166.345406 
L 239.119598 168.590271 
L 241.158885 164.714814 
L 243.198173 170.63072 
L 245.23746 162.146491 
L 247.276747 164.229725 
L 249.316035 164.655564 
L 251.355322 169.550195 
L 253.394609 165.519865 
L 255.433897 163.031139 
L 257.473184 169.441568 
L 259.512471 163.989726 
L 261.551759 162.005952 
L 263.591046 164.740785 
L 265.630333 167.89678 
L 267.669621 163.471299 
L 269.708908 164.94592 
L 271.748196 165.036517 
L 273.787483 166.465867 
L 275.82677 162.349364 
L 277.866058 250.875319 
L 279.905345 167.841389 
L 281.944632 164.343311 
L 283.98392 163.126645 
L 286.023207 169.71497 
L 288.062494 171.262044 
L 290.101782 169.504153 
L 292.141069 171.491704 
L 294.180356 167.013104 
L 296.219644 167.609575 
L 298.258931 174.19037 
L 300.298218 169.464252 
L 302.337506 164.242952 
L 304.376793 170.297778 
L 306.41608 163.837666 
L 308.455368 167.40014 
L 310.494655 167.682036 
L 312.533942 163.572901 
L 314.57323 250.88109 
L 316.612517 160.15568 
L 318.651804 162.298322 
L 320.691092 161.966243 
L 322.730379 165.57756 
L 326.808954 164.335725 
L 328.848241 166.774151 
L 330.887529 167.194147 
L 332.926816 163.649089 
L 334.966103 165.025357 
L 337.005391 160.925898 
L 339.044678 163.10834 
L 341.083965 162.671172 
L 343.123253 162.790025 
L 345.16254 164.964202 
L 347.201827 163.42144 
L 349.241115 251.68973 
L 351.280402 162.853808 
L 353.319689 163.739201 
L 355.358977 170.595928 
L 357.398264 167.560239 
L 359.437551 170.961624 
L 361.476839 166.327681 
L 363.516126 165.978734 
L 365.555413 169.991248 
L 367.594701 167.156403 
L 369.633988 170.266258 
L 371.673275 165.549059 
L 373.712563 171.796224 
L 375.75185 175.772139 
L 377.791138 173.881756 
L 379.830425 166.025857 
L 381.869712 178.388886 
L 383.909 171.109562 
L 387.987574 168.280104 
L 390.026862 172.051399 
L 394.105436 171.732358 
L 396.144724 249.051997 
L 398.184011 164.682808 
L 400.223298 170.961741 
L 402.262586 170.858407 
L 404.301873 170.158402 
L 406.34116 167.349072 
L 408.380448 172.438997 
L 410.419735 166.452791 
L 412.459022 171.683406 
L 414.49831 164.938891 
L 416.537597 166.811161 
L 418.576884 160.778292 
L 420.616172 168.39994 
L 422.655459 167.352118 
L 424.694746 171.457789 
L 426.734034 167.51635 
L 428.773321 172.162738 
L 430.812608 175.656143 
L 432.851896 171.859012 
L 434.891183 173.687272 
L 436.930471 178.193557 
L 438.969758 170.598492 
L 441.009045 178.335261 
L 443.048333 171.808667 
L 445.08762 174.304611 
L 447.126907 175.197835 
L 449.166195 163.553907 
L 451.205482 169.246768 
L 453.244769 173.130271 
L 455.284057 178.516564 
L 457.323344 180.136011 
L 459.362631 173.481996 
L 461.401919 172.917835 
L 463.441206 176.740474 
L 465.480493 174.857225 
L 467.519781 174.861726 
L 469.559068 175.167879 
L 471.598355 170.431612 
L 473.637643 175.472393 
L 475.67693 178.033035 
L 477.716217 179.505662 
L 479.755505 173.339469 
L 481.794792 176.613818 
L 483.834079 170.83369 
L 485.873367 173.885267 
L 487.912654 177.833257 
L 489.951942 172.642272 
L 491.991229 169.037668 
L 494.030516 168.778641 
L 496.069804 173.600252 
L 498.109091 176.176558 
L 498.109091 176.176558 
" clip-path="url(#p6d28cc1a89)" style="fill: none; stroke: #ff0000; stroke-opacity: 0.9; stroke-width: 1.5; stroke-linecap: square"/>
   </g>
   <g id="line2d_37">
    <path d="M 92.290909 176.34321 
L 96.369484 163.703316 
L 98.408771 163.597901 
L 100.448058 169.564999 
L 102.487346 165.996151 
L 104.526633 168.323368 
L 106.565921 162.471266 
L 108.605208 164.534113 
L 110.644495 175.390881 
L 112.683783 249.088784 
L 114.72307 161.673315 
L 116.762357 163.462964 
L 118.801645 169.95149 
L 120.840932 161.082665 
L 122.880219 167.887258 
L 124.919507 166.148923 
L 126.958794 180.167286 
L 128.998081 163.436496 
L 131.037369 167.177374 
L 133.076656 173.856064 
L 135.115943 167.791925 
L 137.155231 165.774307 
L 139.194518 165.259584 
L 141.233805 167.464898 
L 143.273093 164.886576 
L 145.31238 161.280082 
L 147.351667 160.926557 
L 149.390955 163.982434 
L 151.430242 162.349959 
L 153.469529 164.076295 
L 155.508817 167.94371 
L 157.548104 163.615739 
L 159.587392 165.165904 
L 161.626679 168.237925 
L 163.665966 168.354771 
L 165.705254 250.25832 
L 167.744541 162.167368 
L 169.783828 168.103711 
L 171.823116 166.612942 
L 173.862403 166.915854 
L 175.90169 172.230782 
L 177.940978 170.741542 
L 179.980265 184.795319 
L 182.019552 169.499907 
L 184.05884 172.605579 
L 186.098127 187.806392 
L 188.137414 173.073567 
L 190.176702 174.124182 
L 192.215989 197.760553 
L 194.255276 193.020469 
L 196.294564 189.805636 
L 198.333851 188.115671 
L 200.373138 171.48978 
L 202.412426 164.54298 
L 204.451713 167.406405 
L 206.491 166.310433 
L 208.530288 174.42068 
L 210.569575 165.952733 
L 212.608862 163.457602 
L 214.64815 168.333785 
L 216.687437 161.358706 
L 218.726725 167.441115 
L 220.766012 166.522312 
L 222.805299 169.81202 
L 224.844587 162.365885 
L 226.883874 177.711228 
L 228.923161 186.749793 
L 230.962449 166.365387 
L 233.001736 170.943172 
L 235.041023 166.105867 
L 237.080311 166.408993 
L 239.119598 168.545859 
L 241.158885 164.753145 
L 243.198173 170.566907 
L 245.23746 162.16352 
L 247.276747 164.213562 
L 249.316035 164.65117 
L 251.355322 169.600857 
L 253.394609 165.484561 
L 255.433897 163.000013 
L 257.473184 169.447332 
L 259.512471 163.984004 
L 261.551759 162.065702 
L 263.591046 164.811118 
L 265.630333 167.895089 
L 267.669621 163.501125 
L 269.708908 164.971202 
L 271.748196 165.03835 
L 273.787483 166.44865 
L 275.82677 162.332598 
L 277.866058 250.838776 
L 279.905345 167.861163 
L 281.944632 164.36557 
L 283.98392 163.062294 
L 286.023207 169.755798 
L 288.062494 171.261475 
L 290.101782 169.540794 
L 292.141069 171.43262 
L 294.180356 166.999026 
L 296.219644 167.63046 
L 298.258931 174.191965 
L 300.298218 169.456319 
L 302.337506 164.272605 
L 304.376793 170.298565 
L 306.41608 163.892936 
L 308.455368 167.39639 
L 310.494655 167.673625 
L 312.533942 163.501344 
L 314.57323 250.843538 
L 316.612517 160.122819 
L 318.651804 162.262807 
L 320.691092 162.0055 
L 322.730379 165.588079 
L 326.808954 164.354437 
L 328.848241 166.762454 
L 330.887529 167.140789 
L 332.926816 163.6593 
L 334.966103 165.028392 
L 337.005391 160.904705 
L 339.044678 163.096446 
L 341.083965 162.687546 
L 343.123253 162.830653 
L 345.16254 164.966292 
L 347.201827 163.367043 
L 349.241115 251.738182 
L 351.280402 162.834234 
L 353.319689 163.779384 
L 355.358977 170.586158 
L 357.398264 167.520379 
L 359.437551 170.924095 
L 361.476839 166.377604 
L 363.516126 165.969299 
L 365.555413 169.961264 
L 367.594701 167.20499 
L 369.633988 170.253826 
L 371.673275 165.605963 
L 373.712563 171.760039 
L 375.75185 175.744782 
L 377.791138 173.895331 
L 379.830425 166.074335 
L 381.869712 178.412564 
L 383.909 171.049533 
L 387.987574 168.293955 
L 390.026862 172.07068 
L 394.105436 171.749248 
L 396.144724 248.985048 
L 398.184011 164.640116 
L 400.223298 170.96653 
L 402.262586 170.877997 
L 404.301873 170.196222 
L 406.34116 167.336335 
L 408.380448 172.458202 
L 410.419735 166.421199 
L 412.459022 171.689908 
L 414.49831 164.903967 
L 416.537597 166.831955 
L 418.576884 160.748718 
L 420.616172 168.351018 
L 422.655459 167.355879 
L 424.694746 171.468583 
L 426.734034 167.538346 
L 428.773321 172.203576 
L 430.812608 175.669238 
L 432.851896 171.890028 
L 434.891183 173.640202 
L 436.930471 178.212549 
L 438.969758 170.568541 
L 441.009045 178.357044 
L 443.048333 171.865191 
L 445.08762 174.219238 
L 447.126907 175.19846 
L 449.166195 163.54981 
L 451.205482 169.222815 
L 453.244769 173.125879 
L 455.284057 178.466842 
L 457.323344 180.181094 
L 459.362631 173.458175 
L 461.401919 172.903577 
L 463.441206 176.807274 
L 465.480493 174.803184 
L 467.519781 174.825913 
L 469.559068 175.178208 
L 471.598355 170.417411 
L 473.637643 175.42239 
L 475.67693 178.004011 
L 477.716217 179.524953 
L 479.755505 173.364112 
L 481.794792 176.631442 
L 483.834079 170.815735 
L 485.873367 173.88698 
L 487.912654 177.834656 
L 489.951942 172.633997 
L 491.991229 169.027386 
L 494.030516 168.831366 
L 496.069804 173.645925 
L 498.109091 176.156596 
L 498.109091 176.156596 
" clip-path="url(#p6d28cc1a89)" style="fill: none; stroke: #ff0000; stroke-opacity: 0.9; stroke-width: 1.5; stroke-linecap: square"/>
   </g>
   <g id="line2d_38">
    <path d="M 92.290909 176.315096 
L 96.369484 163.677455 
L 98.408771 163.58894 
L 100.448058 169.527809 
L 102.487346 166.034889 
L 104.526633 168.286644 
L 106.565921 162.488314 
L 108.605208 164.59183 
L 110.644495 175.38158 
L 112.683783 249.09607 
L 114.72307 161.659061 
L 116.762357 163.462587 
L 118.801645 169.954333 
L 120.840932 161.118202 
L 122.880219 167.919373 
L 124.919507 166.109846 
L 126.958794 180.161142 
L 128.998081 163.415897 
L 131.037369 167.240919 
L 133.076656 173.892494 
L 135.115943 167.762863 
L 137.155231 165.76997 
L 139.194518 165.185399 
L 141.233805 167.516283 
L 143.273093 164.850922 
L 145.31238 161.264762 
L 147.351667 160.845632 
L 149.390955 163.947404 
L 151.430242 162.324289 
L 153.469529 164.070278 
L 155.508817 167.943176 
L 157.548104 163.691958 
L 159.587392 165.253643 
L 161.626679 168.250428 
L 163.665966 168.373272 
L 165.705254 250.272134 
L 167.744541 162.112196 
L 169.783828 168.145769 
L 171.823116 166.661032 
L 173.862403 166.852384 
L 175.90169 172.269016 
L 177.940978 170.756764 
L 179.980265 184.748159 
L 182.019552 169.502038 
L 184.05884 172.583399 
L 186.098127 187.782833 
L 188.137414 173.04531 
L 190.176702 174.169614 
L 192.215989 197.67544 
L 194.255276 193.076544 
L 196.294564 189.819143 
L 198.333851 188.147154 
L 200.373138 171.428769 
L 202.412426 164.512224 
L 204.451713 167.378631 
L 206.491 166.304195 
L 208.530288 174.472846 
L 210.569575 165.960542 
L 212.608862 163.486751 
L 214.64815 168.310951 
L 216.687437 161.310582 
L 218.726725 167.382347 
L 220.766012 166.555281 
L 222.805299 169.764431 
L 224.844587 162.432525 
L 226.883874 177.772432 
L 228.923161 186.740612 
L 230.962449 166.377853 
L 233.001736 170.962099 
L 235.041023 166.132195 
L 237.080311 166.41981 
L 239.119598 168.546993 
L 241.158885 164.741786 
L 243.198173 170.612987 
L 245.23746 162.152007 
L 247.276747 164.175901 
L 249.316035 164.653847 
L 251.355322 169.533174 
L 253.394609 165.513845 
L 255.433897 163.02153 
L 257.473184 169.434592 
L 259.512471 163.989659 
L 261.551759 162.009404 
L 263.591046 164.759865 
L 265.630333 167.926497 
L 267.669621 163.465998 
L 269.708908 164.955377 
L 271.748196 165.00922 
L 273.787483 166.443958 
L 275.82677 162.37105 
L 277.866058 250.842703 
L 279.905345 167.90161 
L 281.944632 164.347031 
L 283.98392 163.063453 
L 286.023207 169.70878 
L 288.062494 171.257989 
L 290.101782 169.493284 
L 292.141069 171.412508 
L 294.180356 167.032064 
L 296.219644 167.583435 
L 298.258931 174.210137 
L 300.298218 169.409442 
L 302.337506 164.253418 
L 304.376793 170.322541 
L 306.41608 163.820528 
L 308.455368 167.450678 
L 310.494655 167.743345 
L 312.533942 163.505305 
L 314.57323 250.872295 
L 316.612517 160.116641 
L 318.651804 162.289214 
L 320.691092 162.018493 
L 322.730379 165.58628 
L 324.769667 164.915668 
L 326.808954 164.394963 
L 328.848241 166.720579 
L 330.887529 167.142077 
L 332.926816 163.643114 
L 334.966103 165.024314 
L 337.005391 160.939083 
L 339.044678 163.095942 
L 341.083965 162.626949 
L 343.123253 162.847328 
L 345.16254 164.971812 
L 347.201827 163.447892 
L 349.241115 251.679881 
L 351.280402 162.842897 
L 353.319689 163.79429 
L 355.358977 170.628909 
L 357.398264 167.520865 
L 359.437551 170.913372 
L 361.476839 166.359423 
L 363.516126 165.99181 
L 365.555413 169.975737 
L 367.594701 167.154584 
L 369.633988 170.251548 
L 371.673275 165.625116 
L 373.712563 171.762045 
L 375.75185 175.798317 
L 377.791138 173.87769 
L 379.830425 166.007337 
L 381.869712 178.426517 
L 383.909 171.119366 
L 385.948287 169.606685 
L 387.987574 168.306941 
L 390.026862 172.086267 
L 392.066149 171.828042 
L 394.105436 171.728352 
L 396.144724 249.07697 
L 398.184011 164.645975 
L 400.223298 170.982185 
L 402.262586 170.863535 
L 404.301873 170.162103 
L 406.34116 167.334283 
L 408.380448 172.495671 
L 410.419735 166.435393 
L 412.459022 171.62154 
L 414.49831 164.911116 
L 416.537597 166.800145 
L 418.576884 160.811311 
L 420.616172 168.393569 
L 422.655459 167.348236 
L 424.694746 171.459992 
L 426.734034 167.533801 
L 428.773321 172.169518 
L 430.812608 175.659951 
L 432.851896 171.885036 
L 434.891183 173.653323 
L 436.930471 178.220887 
L 438.969758 170.571655 
L 441.009045 178.317182 
L 443.048333 171.785607 
L 445.08762 174.233265 
L 447.126907 175.220559 
L 449.166195 163.560669 
L 451.205482 169.195255 
L 453.244769 173.077448 
L 455.284057 178.469999 
L 457.323344 180.183677 
L 459.362631 173.51701 
L 461.401919 172.936178 
L 463.441206 176.786619 
L 465.480493 174.786799 
L 467.519781 174.873838 
L 469.559068 175.206817 
L 471.598355 170.489891 
L 473.637643 175.438998 
L 475.67693 178.045247 
L 477.716217 179.487499 
L 479.755505 173.369221 
L 481.794792 176.60636 
L 483.834079 170.831394 
L 485.873367 173.910645 
L 487.912654 177.834053 
L 489.951942 172.661338 
L 491.991229 168.974431 
L 494.030516 168.769966 
L 496.069804 173.58542 
L 498.109091 176.12758 
L 498.109091 176.12758 
" clip-path="url(#p6d28cc1a89)" style="fill: none; stroke: #ff0000; stroke-opacity: 0.9; stroke-width: 1.5; stroke-linecap: square"/>
   </g>
   <g id="line2d_39">
    <path d="M 92.290909 170.378492 
L 94.330196 168.628463 
L 96.369484 165.259099 
L 98.408771 163.18545 
L 100.448058 166.478751 
L 102.487346 164.589775 
L 104.526633 167.206251 
L 106.565921 163.042392 
L 108.605208 164.100812 
L 110.644495 174.138939 
L 112.683783 247.763878 
L 114.72307 161.428648 
L 116.762357 162.647746 
L 118.801645 169.094105 
L 120.840932 160.611066 
L 122.880219 167.310925 
L 124.919507 165.23172 
L 126.958794 179.811587 
L 128.998081 162.720667 
L 131.037369 165.624954 
L 133.076656 173.025725 
L 135.115943 166.640355 
L 139.194518 165.245097 
L 141.233805 166.866337 
L 143.273093 164.21453 
L 145.31238 161.15534 
L 147.351667 161.232082 
L 149.390955 163.835991 
L 151.430242 162.215801 
L 153.469529 163.078239 
L 155.508817 167.201127 
L 157.548104 163.522115 
L 159.587392 164.868478 
L 161.626679 167.981789 
L 163.665966 167.368887 
L 165.705254 247.941025 
L 167.744541 163.211956 
L 169.783828 167.325605 
L 171.823116 165.789179 
L 173.862403 166.205112 
L 175.90169 171.466313 
L 177.940978 170.56687 
L 179.980265 183.225286 
L 182.019552 168.484675 
L 184.05884 172.423516 
L 186.098127 188.245215 
L 188.137414 171.729056 
L 190.176702 173.857139 
L 192.215989 195.589552 
L 198.333851 186.689717 
L 200.373138 172.136981 
L 202.412426 164.239831 
L 204.451713 166.296179 
L 206.491 166.489688 
L 208.530288 172.994061 
L 210.569575 165.626539 
L 212.608862 163.028405 
L 214.64815 166.816233 
L 216.687437 160.573473 
L 218.726725 165.314098 
L 220.766012 166.075927 
L 222.805299 169.476033 
L 224.844587 162.115923 
L 226.883874 176.965872 
L 228.923161 186.005448 
L 230.962449 165.265454 
L 233.001736 169.942827 
L 235.041023 166.617468 
L 237.080311 165.653323 
L 239.119598 167.859917 
L 241.158885 165.015553 
L 243.198173 170.142379 
L 245.23746 161.435301 
L 247.276747 163.412084 
L 249.316035 164.596962 
L 251.355322 168.69525 
L 253.394609 164.991502 
L 255.433897 162.437762 
L 257.473184 168.671162 
L 259.512471 163.098008 
L 261.551759 161.834197 
L 263.591046 163.903858 
L 265.630333 167.279665 
L 267.669621 163.236677 
L 269.708908 164.327423 
L 271.748196 164.282593 
L 273.787483 166.030092 
L 275.82677 161.911413 
L 277.866058 248.508894 
L 279.905345 168.53307 
L 281.944632 163.885451 
L 283.98392 162.22417 
L 286.023207 169.535546 
L 288.062494 170.368078 
L 290.101782 168.58942 
L 292.141069 170.682183 
L 294.180356 165.995967 
L 296.219644 167.368816 
L 298.258931 174.188855 
L 300.298218 167.967185 
L 302.337506 165.514583 
L 304.376793 170.15748 
L 306.41608 163.089997 
L 308.455368 166.582996 
L 310.494655 166.255965 
L 312.533942 162.622585 
L 314.57323 248.310705 
L 316.612517 160.922058 
L 318.651804 161.661275 
L 320.691092 162.105532 
L 322.730379 164.165276 
L 324.769667 163.824056 
L 326.808954 163.96766 
L 328.848241 165.200994 
L 330.887529 165.923291 
L 332.926816 163.613379 
L 334.966103 165.28254 
L 337.005391 160.883045 
L 339.044678 162.346661 
L 341.083965 161.646004 
L 343.123253 162.542534 
L 345.16254 163.987799 
L 347.201827 163.192841 
L 349.241115 248.989215 
L 351.280402 163.665885 
L 353.319689 161.913744 
L 355.358977 169.967751 
L 357.398264 167.098757 
L 359.437551 171.797459 
L 361.476839 167.560228 
L 363.516126 166.70837 
L 365.555413 169.632622 
L 367.594701 166.735398 
L 369.633988 169.513573 
L 371.673275 164.692163 
L 373.712563 170.786624 
L 375.75185 175.877285 
L 377.791138 173.733171 
L 379.830425 165.352312 
L 381.869712 177.472299 
L 383.909 171.196217 
L 385.948287 169.241373 
L 387.987574 167.453106 
L 390.026862 170.815423 
L 394.105436 172.327621 
L 396.144724 248.554646 
L 398.184011 165.567116 
L 400.223298 169.929077 
L 402.262586 170.758775 
L 404.301873 170.385676 
L 406.34116 167.423088 
L 408.380448 172.253406 
L 410.419735 166.233699 
L 412.459022 170.507127 
L 414.49831 164.781559 
L 416.537597 165.701759 
L 418.576884 160.719472 
L 420.616172 168.118748 
L 422.655459 166.856454 
L 424.694746 170.848347 
L 426.734034 167.172634 
L 428.773321 171.38813 
L 430.812608 174.618782 
L 432.851896 171.566375 
L 434.891183 173.173984 
L 436.930471 177.650089 
L 438.969758 170.79028 
L 441.009045 177.568797 
L 443.048333 171.633238 
L 445.08762 173.780269 
L 447.126907 175.097067 
L 449.166195 163.263943 
L 451.205482 168.669087 
L 453.244769 172.094207 
L 455.284057 177.814549 
L 457.323344 179.013446 
L 459.362631 174.089926 
L 461.401919 172.742805 
L 463.441206 175.557819 
L 465.480493 174.729428 
L 467.519781 175.33262 
L 469.559068 175.367679 
L 471.598355 168.966314 
L 473.637643 174.425234 
L 475.67693 177.696583 
L 477.716217 177.963576 
L 479.755505 173.022265 
L 481.794792 176.089651 
L 483.834079 169.881518 
L 487.912654 177.044118 
L 489.951942 171.894723 
L 491.991229 168.614009 
L 494.030516 167.839902 
L 496.069804 173.872126 
L 498.109091 175.374927 
L 498.109091 175.374927 
" clip-path="url(#p6d28cc1a89)" style="fill: none; stroke: #008000; stroke-opacity: 0.9; stroke-width: 1.5; stroke-linecap: square"/>
   </g>
   <g id="line2d_40">
    <path d="M 438.969758 256.32 
L 438.969758 155.52 
" clip-path="url(#p6d28cc1a89)" style="fill: none; stroke-dasharray: 5.55,2.4; stroke-dashoffset: 0; stroke: #0000ff; stroke-width: 1.5"/>
   </g>
   <g id="line2d_41">
    <path d="M 153.469529 256.32 
L 153.469529 155.52 
" clip-path="url(#p6d28cc1a89)" style="fill: none; stroke-dasharray: 5.55,2.4; stroke-dashoffset: 0; stroke: #000000; stroke-width: 1.5"/>
   </g>
   <g id="patch_8">
    <path d="M 72 256.32 
L 72 155.52 
" style="fill: none; stroke: #000000; stroke-width: 0.8; stroke-linejoin: miter; stroke-linecap: square"/>
   </g>
   <g id="patch_9">
    <path d="M 518.4 256.32 
L 518.4 155.52 
" style="fill: none; stroke: #000000; stroke-width: 0.8; stroke-linejoin: miter; stroke-linecap: square"/>
   </g>
   <g id="patch_10">
    <path d="M 72 256.32 
L 518.4 256.32 
" style="fill: none; stroke: #000000; stroke-width: 0.8; stroke-linejoin: miter; stroke-linecap: square"/>
   </g>
   <g id="patch_11">
    <path d="M 72 155.52 
L 518.4 155.52 
" style="fill: none; stroke: #000000; stroke-width: 0.8; stroke-linejoin: miter; stroke-linecap: square"/>
   </g>
  </g>
 </g>
 <defs>
  <clipPath id="p2d40e4ed79">
   <rect x="72" y="34.56" width="446.4" height="100.8"/>
  </clipPath>
  <clipPath id="p6d28cc1a89">
   <rect x="72" y="155.52" width="446.4" height="100.8"/>
  </clipPath>
 </defs>
</svg>
