<?xml version="1.0" encoding="utf-8" standalone="no"?>
<!DOCTYPE svg PUBLIC "-//W3C//DTD SVG 1.1//EN"
  "http://www.w3.org/Graphics/SVG/1.1/DTD/svg11.dtd">
<svg xmlns:xlink="http://www.w3.org/1999/xlink" width="576pt" height="288pt" viewBox="0 0 576 288" xmlns="http://www.w3.org/2000/svg" version="1.1">
 <metadata>
  <rdf:RDF xmlns:dc="http://purl.org/dc/elements/1.1/" xmlns:cc="http://creativecommons.org/ns#" xmlns:rdf="http://www.w3.org/1999/02/22-rdf-syntax-ns#">
   <cc:Work>
    <dc:type rdf:resource="http://purl.org/dc/dcmitype/StillImage"/>
    <dc:date>2025-01-01T00:43:49.943595</dc:date>
    <dc:format>image/svg+xml</dc:format>
    <dc:creator>
     <cc:Agent>
      <dc:title>Matplotlib v3.10.0, https://matplotlib.org/</dc:title>
     </cc:Agent>
    </dc:creator>
   </cc:Work>
  </rdf:RDF>
 </metadata>
 <defs>
  <style type="text/css">*{stroke-linejoin: round; stroke-linecap: butt}</style>
 </defs>
 <g id="figure_1">
  <g id="patch_1">
   <path d="M 0 288 
L 576 288 
L 576 0 
L 0 0 
z
" style="fill: #ffffff"/>
  </g>
  <g id="axes_1">
   <g id="patch_2">
    <path d="M 72 135.36 
L 518.4 135.36 
L 518.4 34.56 
L 72 34.56 
z
" style="fill: #ffffff"/>
   </g>
   <g id="matplotlib.axis_1">
    <g id="xtick_1">
     <g id="line2d_1">
      <defs>
       <path id="m59d3de4fbd" d="M 0 0 
L 0 3.5 
" style="stroke: #000000; stroke-width: 0.8"/>
      </defs>
      <g>
       <use xlink:href="#m59d3de4fbd" x="92.290909" y="135.36" style="stroke: #000000; stroke-width: 0.8"/>
      </g>
     </g>
    </g>
    <g id="xtick_2">
     <g id="line2d_2">
      <g>
       <use xlink:href="#m59d3de4fbd" x="143.273093" y="135.36" style="stroke: #000000; stroke-width: 0.8"/>
      </g>
     </g>
    </g>
    <g id="xtick_3">
     <g id="line2d_3">
      <g>
       <use xlink:href="#m59d3de4fbd" x="194.255276" y="135.36" style="stroke: #000000; stroke-width: 0.8"/>
      </g>
     </g>
    </g>
    <g id="xtick_4">
     <g id="line2d_4">
      <g>
       <use xlink:href="#m59d3de4fbd" x="245.23746" y="135.36" style="stroke: #000000; stroke-width: 0.8"/>
      </g>
     </g>
    </g>
    <g id="xtick_5">
     <g id="line2d_5">
      <g>
       <use xlink:href="#m59d3de4fbd" x="296.219644" y="135.36" style="stroke: #000000; stroke-width: 0.8"/>
      </g>
     </g>
    </g>
    <g id="xtick_6">
     <g id="line2d_6">
      <g>
       <use xlink:href="#m59d3de4fbd" x="347.201827" y="135.36" style="stroke: #000000; stroke-width: 0.8"/>
      </g>
     </g>
    </g>
    <g id="xtick_7">
     <g id="line2d_7">
      <g>
       <use xlink:href="#m59d3de4fbd" x="398.184011" y="135.36" style="stroke: #000000; stroke-width: 0.8"/>
      </g>
     </g>
    </g>
    <g id="xtick_8">
     <g id="line2d_8">
      <g>
       <use xlink:href="#m59d3de4fbd" x="449.166195" y="135.36" style="stroke: #000000; stroke-width: 0.8"/>
      </g>
     </g>
    </g>
    <g id="xtick_9">
     <g id="line2d_9">
      <g>
       <use xlink:href="#m59d3de4fbd" x="500.148378" y="135.36" style="stroke: #000000; stroke-width: 0.8"/>
      </g>
     </g>
    </g>
   </g>
   <g id="matplotlib.axis_2">
    <g id="ytick_1">
     <g id="line2d_10">
      <defs>
       <path id="m98877a54b2" d="M 0 0 
L -3.5 0 
" style="stroke: #000000; stroke-width: 0.8"/>
      </defs>
      <g>
       <use xlink:href="#m98877a54b2" x="72" y="116.599813" style="stroke: #000000; stroke-width: 0.8"/>
      </g>
     </g>
     <g id="text_1">
      <!-- −150 -->
      <g transform="translate(37.532812 120.399032) scale(0.1 -0.1)">
       <defs>
        <path id="DejaVuSans-2212" d="M 678 2272 
L 4684 2272 
L 4684 1741 
L 678 1741 
L 678 2272 
z
" transform="scale(0.015625)"/>
        <path id="DejaVuSans-31" d="M 794 531 
L 1825 531 
L 1825 4091 
L 703 3866 
L 703 4441 
L 1819 4666 
L 2450 4666 
L 2450 531 
L 3481 531 
L 3481 0 
L 794 0 
L 794 531 
z
" transform="scale(0.015625)"/>
        <path id="DejaVuSans-35" d="M 691 4666 
L 3169 4666 
L 3169 4134 
L 1269 4134 
L 1269 2991 
Q 1406 3038 1543 3061 
Q 1681 3084 1819 3084 
Q 2600 3084 3056 2656 
Q 3513 2228 3513 1497 
Q 3513 744 3044 326 
Q 2575 -91 1722 -91 
Q 1428 -91 1123 -41 
Q 819 9 494 109 
L 494 744 
Q 775 591 1075 516 
Q 1375 441 1709 441 
Q 2250 441 2565 725 
Q 2881 1009 2881 1497 
Q 2881 1984 2565 2268 
Q 2250 2553 1709 2553 
Q 1456 2553 1204 2497 
Q 953 2441 691 2322 
L 691 4666 
z
" transform="scale(0.015625)"/>
        <path id="DejaVuSans-30" d="M 2034 4250 
Q 1547 4250 1301 3770 
Q 1056 3291 1056 2328 
Q 1056 1369 1301 889 
Q 1547 409 2034 409 
Q 2525 409 2770 889 
Q 3016 1369 3016 2328 
Q 3016 3291 2770 3770 
Q 2525 4250 2034 4250 
z
M 2034 4750 
Q 2819 4750 3233 4129 
Q 3647 3509 3647 2328 
Q 3647 1150 3233 529 
Q 2819 -91 2034 -91 
Q 1250 -91 836 529 
Q 422 1150 422 2328 
Q 422 3509 836 4129 
Q 1250 4750 2034 4750 
z
" transform="scale(0.015625)"/>
       </defs>
       <use xlink:href="#DejaVuSans-2212"/>
       <use xlink:href="#DejaVuSans-31" transform="translate(83.789062 0)"/>
       <use xlink:href="#DejaVuSans-35" transform="translate(147.412109 0)"/>
       <use xlink:href="#DejaVuSans-30" transform="translate(211.035156 0)"/>
      </g>
     </g>
    </g>
    <g id="ytick_2">
     <g id="line2d_11">
      <g>
       <use xlink:href="#m98877a54b2" x="72" y="77.639164" style="stroke: #000000; stroke-width: 0.8"/>
      </g>
     </g>
     <g id="text_2">
      <!-- −100 -->
      <g transform="translate(37.532812 81.438383) scale(0.1 -0.1)">
       <use xlink:href="#DejaVuSans-2212"/>
       <use xlink:href="#DejaVuSans-31" transform="translate(83.789062 0)"/>
       <use xlink:href="#DejaVuSans-30" transform="translate(147.412109 0)"/>
       <use xlink:href="#DejaVuSans-30" transform="translate(211.035156 0)"/>
      </g>
     </g>
    </g>
    <g id="ytick_3">
     <g id="line2d_12">
      <g>
       <use xlink:href="#m98877a54b2" x="72" y="38.678515" style="stroke: #000000; stroke-width: 0.8"/>
      </g>
     </g>
     <g id="text_3">
      <!-- −50 -->
      <g transform="translate(43.895313 42.477734) scale(0.1 -0.1)">
       <use xlink:href="#DejaVuSans-2212"/>
       <use xlink:href="#DejaVuSans-35" transform="translate(83.789062 0)"/>
       <use xlink:href="#DejaVuSans-30" transform="translate(147.412109 0)"/>
      </g>
     </g>
    </g>
   </g>
   <g id="line2d_13">
    <path d="M 92.290909 62.009212 
L 94.330196 106.079297 
L 96.369484 130.774876 
L 98.408771 104.194923 
L 100.448058 89.584947 
L 102.487346 107.320537 
L 104.526633 98.148775 
L 106.565921 67.449126 
L 108.605208 115.342926 
L 110.644495 44.737118 
L 112.683783 81.517983 
L 114.72307 123.574683 
L 116.762357 122.74816 
L 118.801645 110.771042 
L 120.840932 67.633389 
L 122.880219 116.287586 
L 124.919507 69.678722 
L 126.958794 66.314103 
L 128.998081 87.852222 
L 131.037369 64.565196 
L 133.076656 52.491033 
L 135.115943 52.351363 
L 137.155231 108.065864 
L 139.194518 107.823656 
L 141.233805 125.419297 
L 143.273093 121.840144 
L 145.31238 120.04259 
L 147.351667 116.248623 
L 149.390955 117.115191 
L 151.430242 109.45656 
L 153.469529 107.402565 
L 155.508817 111.868927 
L 157.548104 127.679402 
L 159.587392 109.429689 
L 161.626679 121.476577 
L 163.665966 98.162496 
L 165.705254 93.818594 
L 167.744541 111.105563 
L 169.783828 47.328227 
L 171.823116 54.79138 
L 173.862403 74.647661 
L 175.90169 47.572165 
L 177.940978 41.961573 
L 179.980265 70.408491 
L 182.019552 66.853106 
L 184.05884 70.951595 
L 186.098127 64.661914 
L 188.137414 56.353498 
L 190.176702 66.456829 
L 192.215989 60.372355 
L 194.255276 48.512072 
L 196.294564 68.866425 
L 198.333851 75.379226 
L 200.373138 96.70511 
L 202.412426 70.705529 
L 204.451713 52.816774 
L 206.491 44.176223 
L 208.530288 76.535478 
L 210.569575 56.516174 
L 212.608862 109.845251 
L 214.64815 108.452938 
L 216.687437 93.023526 
L 218.726725 92.015754 
L 220.766012 109.265859 
L 222.805299 121.819147 
L 224.844587 120.873298 
L 226.883874 67.521375 
L 228.923161 59.175844 
L 230.962449 79.770116 
L 233.001736 73.169093 
L 235.041023 41.027453 
L 237.080311 60.240372 
L 239.119598 52.218679 
L 241.158885 74.539571 
L 243.198173 50.519203 
L 245.23746 84.424807 
L 247.276747 49.611122 
L 249.316035 98.775548 
L 251.355322 74.528216 
L 253.394609 112.600985 
L 255.433897 89.652279 
L 257.473184 68.771794 
L 259.512471 64.500682 
L 261.551759 57.698287 
L 263.591046 69.323067 
L 265.630333 66.45806 
L 267.669621 60.057791 
L 269.708908 49.425263 
L 271.748196 41.691111 
L 273.787483 59.409634 
L 275.82677 49.709374 
L 277.866058 65.917327 
L 279.905345 56.053255 
L 281.944632 77.930846 
L 283.98392 64.6673 
L 286.023207 59.503617 
L 288.062494 53.784452 
L 290.101782 68.394048 
L 292.141069 74.553547 
L 294.180356 53.135968 
L 296.219644 43.526606 
L 298.258931 80.563502 
L 300.298218 56.737468 
L 302.337506 62.842013 
L 304.376793 59.376378 
L 306.41608 44.312296 
L 308.455368 46.746026 
L 310.494655 51.208333 
L 312.533942 57.928605 
L 314.57323 72.606763 
L 316.612517 39.454114 
L 318.651804 55.236732 
L 320.691092 45.632622 
L 322.730379 41.935323 
L 324.769667 55.647996 
L 326.808954 62.731395 
L 328.848241 45.529825 
L 330.887529 44.664899 
L 332.926816 49.019614 
L 334.966103 45.512074 
L 337.005391 55.350993 
L 339.044678 46.768542 
L 341.083965 49.18046 
L 343.123253 51.778564 
L 345.16254 47.615988 
L 347.201827 53.42765 
L 349.241115 53.259783 
L 351.280402 41.464628 
L 353.319689 52.159794 
L 355.358977 54.336165 
L 357.398264 64.708606 
L 359.437551 81.846351 
L 361.476839 49.498377 
L 363.516126 56.920863 
L 365.555413 45.212435 
L 367.594701 69.04318 
L 369.633988 52.970337 
L 371.673275 59.447503 
L 373.712563 52.118524 
L 375.75185 68.039748 
L 377.791138 51.654505 
L 379.830425 91.10004 
L 381.869712 66.649243 
L 383.909 69.794927 
L 385.948287 100.909199 
L 387.987574 72.281522 
L 390.026862 78.489972 
L 392.066149 62.191721 
L 394.105436 63.293316 
L 396.144724 99.381681 
L 398.184011 83.525655 
L 400.223298 83.91758 
L 402.262586 57.251876 
L 404.301873 81.127253 
L 406.34116 72.81776 
L 408.380448 67.951627 
L 410.419735 49.885843 
L 412.459022 68.963916 
L 414.49831 106.718233 
L 416.537597 78.344868 
L 418.576884 115.642538 
L 422.655459 84.413393 
L 424.694746 78.83687 
L 426.734034 65.254778 
L 428.773321 65.844645 
L 430.812608 62.09316 
L 432.851896 59.813502 
L 434.891183 68.718979 
L 436.930471 58.744855 
L 438.969758 59.840748 
L 441.009045 70.972022 
L 443.048333 46.628721 
L 445.08762 61.693905 
L 447.126907 69.570489 
L 449.166195 65.451941 
L 451.205482 55.65655 
L 453.244769 62.84775 
L 455.284057 62.56363 
L 457.323344 55.635101 
L 459.362631 51.839832 
L 461.401919 57.827702 
L 463.441206 60.399065 
L 465.480493 62.325167 
L 467.519781 59.227297 
L 469.559068 52.862538 
L 471.598355 67.10674 
L 473.637643 67.85951 
L 475.67693 71.688647 
L 477.716217 49.477394 
L 479.755505 64.546832 
L 481.794792 59.562769 
L 483.834079 61.951445 
L 485.873367 67.643026 
L 487.912654 66.257876 
L 489.951942 45.52419 
L 491.991229 52.508684 
L 494.030516 42.94944 
L 496.069804 61.510772 
L 498.109091 58.110621 
L 498.109091 58.110621 
" clip-path="url(#p02872d7c3a)" style="fill: none; stroke: #ff0000; stroke-opacity: 0.9; stroke-width: 1.5; stroke-linecap: square"/>
   </g>
   <g id="line2d_14">
    <path d="M 92.290909 61.753456 
L 94.330196 106.247134 
L 96.369484 130.778182 
L 98.408771 104.142821 
L 100.448058 89.606325 
L 102.487346 107.355696 
L 104.526633 98.333276 
L 106.565921 67.443354 
L 108.605208 115.339799 
L 110.644495 44.790663 
L 112.683783 81.695457 
L 114.72307 123.608545 
L 116.762357 122.602509 
L 118.801645 110.840217 
L 120.840932 67.691257 
L 122.880219 116.359948 
L 124.919507 69.74005 
L 126.958794 66.236148 
L 128.998081 87.806398 
L 131.037369 64.71326 
L 133.076656 52.573376 
L 135.115943 52.288454 
L 137.155231 108.221276 
L 139.194518 107.986797 
L 141.233805 125.403496 
L 143.273093 121.829027 
L 145.31238 119.923109 
L 147.351667 116.255709 
L 149.390955 117.164426 
L 151.430242 109.471708 
L 153.469529 107.374374 
L 155.508817 111.938173 
L 157.548104 127.672566 
L 159.587392 109.327092 
L 161.626679 121.548593 
L 163.665966 98.094415 
L 165.705254 93.69689 
L 167.744541 111.036863 
L 169.783828 47.346341 
L 171.823116 54.831894 
L 173.862403 74.648119 
L 175.90169 47.689827 
L 177.940978 41.975674 
L 179.980265 70.571174 
L 182.019552 66.85247 
L 184.05884 70.762909 
L 186.098127 64.622053 
L 188.137414 56.296587 
L 190.176702 66.606724 
L 192.215989 60.503197 
L 194.255276 48.426576 
L 196.294564 69.133471 
L 198.333851 75.39262 
L 200.373138 96.706804 
L 202.412426 70.760722 
L 204.451713 52.8003 
L 206.491 44.27053 
L 208.530288 76.391277 
L 210.569575 56.513981 
L 212.608862 110.011602 
L 214.64815 108.503529 
L 216.687437 93.225737 
L 218.726725 91.886678 
L 220.766012 109.174997 
L 222.805299 121.785915 
L 224.844587 120.865403 
L 226.883874 67.414283 
L 228.923161 59.208594 
L 230.962449 79.702261 
L 233.001736 73.180365 
L 235.041023 41.215113 
L 237.080311 60.070917 
L 239.119598 52.311342 
L 241.158885 74.557744 
L 243.198173 50.482779 
L 245.23746 84.546553 
L 247.276747 49.499807 
L 249.316035 98.888454 
L 251.355322 74.525677 
L 253.394609 112.435621 
L 255.433897 89.6398 
L 257.473184 68.830589 
L 259.512471 64.508571 
L 261.551759 57.805367 
L 263.591046 69.312955 
L 265.630333 66.609697 
L 267.669621 60.141478 
L 269.708908 49.306011 
L 271.748196 41.944591 
L 273.787483 59.469006 
L 275.82677 49.797204 
L 277.866058 66.143133 
L 279.905345 56.086041 
L 281.944632 77.966563 
L 283.98392 64.691401 
L 286.023207 59.528158 
L 288.062494 53.752124 
L 290.101782 68.349663 
L 292.141069 74.64083 
L 294.180356 53.019305 
L 296.219644 43.649286 
L 298.258931 80.643633 
L 300.298218 56.833538 
L 302.337506 62.816895 
L 304.376793 59.353835 
L 306.41608 44.372182 
L 308.455368 46.728474 
L 310.494655 51.229723 
L 312.533942 57.894029 
L 314.57323 72.679684 
L 316.612517 39.646049 
L 318.651804 55.137398 
L 320.691092 45.750022 
L 322.730379 42.149661 
L 324.769667 55.695829 
L 326.808954 62.656519 
L 328.848241 45.468081 
L 330.887529 44.678667 
L 332.926816 49.060673 
L 334.966103 45.653655 
L 337.005391 55.405514 
L 339.044678 46.784933 
L 341.083965 49.022034 
L 343.123253 51.841836 
L 345.16254 47.678948 
L 347.201827 53.452428 
L 349.241115 53.300161 
L 351.280402 41.721977 
L 353.319689 52.159003 
L 355.358977 54.335963 
L 357.398264 64.66003 
L 359.437551 81.843271 
L 361.476839 49.450434 
L 363.516126 57.016475 
L 365.555413 45.226013 
L 367.594701 69.067061 
L 369.633988 53.068446 
L 371.673275 59.494486 
L 373.712563 52.138916 
L 375.75185 68.118263 
L 377.791138 51.660587 
L 379.830425 91.196752 
L 381.869712 66.34038 
L 383.909 69.58072 
L 385.948287 101.08436 
L 387.987574 72.078045 
L 390.026862 78.439048 
L 392.066149 62.152461 
L 394.105436 63.210027 
L 396.144724 99.314901 
L 398.184011 83.545915 
L 400.223298 83.90113 
L 402.262586 57.251234 
L 404.301873 81.078326 
L 406.34116 72.930256 
L 408.380448 67.782428 
L 410.419735 50.060665 
L 412.459022 68.969059 
L 414.49831 106.70129 
L 416.537597 78.425553 
L 418.576884 115.610055 
L 422.655459 84.25505 
L 424.694746 78.802199 
L 426.734034 65.195299 
L 428.773321 65.852064 
L 430.812608 61.949341 
L 432.851896 59.760051 
L 434.891183 68.624075 
L 436.930471 58.804363 
L 438.969758 59.98317 
L 441.009045 71.025247 
L 443.048333 46.778554 
L 445.08762 61.704416 
L 447.126907 69.612329 
L 449.166195 65.462315 
L 451.205482 55.644155 
L 453.244769 62.910064 
L 455.284057 62.490608 
L 457.323344 55.685413 
L 459.362631 51.757685 
L 461.401919 57.807923 
L 463.441206 60.411264 
L 465.480493 62.32808 
L 467.519781 59.360053 
L 469.559068 52.893285 
L 471.598355 67.199279 
L 473.637643 67.801262 
L 475.67693 71.830053 
L 477.716217 49.380988 
L 479.755505 64.464251 
L 481.794792 59.637865 
L 483.834079 61.900545 
L 485.873367 67.645392 
L 487.912654 66.250398 
L 489.951942 45.611164 
L 491.991229 52.511954 
L 494.030516 42.954018 
L 496.069804 61.369871 
L 498.109091 58.09816 
L 498.109091 58.09816 
" clip-path="url(#p02872d7c3a)" style="fill: none; stroke: #ff0000; stroke-opacity: 0.9; stroke-width: 1.5; stroke-linecap: square"/>
   </g>
   <g id="line2d_15">
    <path d="M 92.290909 61.636697 
L 94.330196 106.184296 
L 96.369484 130.609287 
L 98.408771 104.067142 
L 100.448058 89.507847 
L 102.487346 107.341273 
L 104.526633 98.257365 
L 106.565921 67.463346 
L 108.605208 115.299195 
L 110.644495 44.718162 
L 112.683783 81.586165 
L 114.72307 123.588927 
L 116.762357 122.675656 
L 118.801645 110.69742 
L 120.840932 67.611619 
L 122.880219 116.374869 
L 124.919507 69.679007 
L 126.958794 66.122832 
L 128.998081 87.948107 
L 131.037369 64.716804 
L 133.076656 52.561302 
L 135.115943 52.418428 
L 137.155231 108.21954 
L 139.194518 107.83664 
L 141.233805 125.437073 
L 143.273093 121.857753 
L 145.31238 119.993401 
L 147.351667 116.136181 
L 149.390955 117.197088 
L 151.430242 109.397063 
L 153.469529 107.253776 
L 155.508817 111.706321 
L 157.548104 127.703396 
L 159.587392 109.510611 
L 161.626679 121.515076 
L 163.665966 98.09146 
L 165.705254 93.781706 
L 167.744541 111.071855 
L 169.783828 47.284021 
L 171.823116 54.6916 
L 173.862403 74.769051 
L 175.90169 47.753506 
L 177.940978 42.025418 
L 179.980265 70.398236 
L 182.019552 66.835693 
L 184.05884 70.868913 
L 186.098127 64.463776 
L 188.137414 56.363158 
L 190.176702 66.609316 
L 192.215989 60.572057 
L 194.255276 48.510681 
L 196.294564 68.963387 
L 198.333851 75.254596 
L 200.373138 96.655862 
L 202.412426 70.716884 
L 204.451713 52.889569 
L 206.491 44.185001 
L 208.530288 76.401859 
L 210.569575 56.60319 
L 212.608862 109.833706 
L 214.64815 108.444984 
L 216.687437 93.051776 
L 218.726725 91.902206 
L 220.766012 109.239012 
L 222.805299 121.91914 
L 224.844587 120.828271 
L 226.883874 67.595639 
L 228.923161 59.103304 
L 230.962449 79.582203 
L 233.001736 73.0702 
L 235.041023 41.086991 
L 237.080311 59.995744 
L 239.119598 52.250627 
L 241.158885 74.558131 
L 243.198173 50.427336 
L 245.23746 84.548913 
L 247.276747 49.368777 
L 249.316035 98.808121 
L 251.355322 74.464926 
L 253.394609 112.371582 
L 255.433897 89.670304 
L 257.473184 68.808385 
L 259.512471 64.460072 
L 261.551759 57.789084 
L 263.591046 69.408543 
L 265.630333 66.485656 
L 267.669621 60.133672 
L 269.708908 49.408121 
L 271.748196 41.727961 
L 273.787483 59.41458 
L 275.82677 49.800611 
L 277.866058 65.836524 
L 279.905345 56.152886 
L 281.944632 77.909058 
L 283.98392 64.810246 
L 286.023207 59.502636 
L 288.062494 53.584447 
L 290.101782 68.468169 
L 292.141069 74.443406 
L 294.180356 52.985336 
L 296.219644 43.62481 
L 298.258931 80.659584 
L 300.298218 56.708463 
L 302.337506 62.682897 
L 304.376793 59.423509 
L 306.41608 44.585567 
L 308.455368 46.765332 
L 310.494655 51.320401 
L 312.533942 57.922511 
L 314.57323 72.659827 
L 316.612517 39.533086 
L 318.651804 55.309997 
L 320.691092 45.621897 
L 322.730379 42.088247 
L 324.769667 55.576395 
L 326.808954 62.55605 
L 328.848241 45.606765 
L 330.887529 44.732525 
L 332.926816 49.052909 
L 334.966103 45.485179 
L 337.005391 55.225609 
L 339.044678 46.705131 
L 341.083965 49.09403 
L 343.123253 51.813645 
L 345.16254 47.597381 
L 347.201827 53.428797 
L 349.241115 53.284651 
L 351.280402 41.697347 
L 353.319689 52.205939 
L 355.358977 54.331237 
L 357.398264 64.756106 
L 359.437551 82.05934 
L 361.476839 49.604791 
L 363.516126 57.031296 
L 365.555413 45.239416 
L 367.594701 69.065884 
L 369.633988 53.214406 
L 371.673275 59.482513 
L 373.712563 52.267968 
L 375.75185 68.176333 
L 377.791138 51.569315 
L 379.830425 91.217001 
L 381.869712 66.470639 
L 383.909 69.665542 
L 385.948287 100.986067 
L 387.987574 72.305213 
L 390.026862 78.413776 
L 392.066149 62.223491 
L 394.105436 63.214206 
L 396.144724 99.325436 
L 398.184011 83.595442 
L 400.223298 83.789372 
L 402.262586 57.242388 
L 404.301873 81.286256 
L 406.34116 72.700782 
L 408.380448 67.93441 
L 410.419735 49.828445 
L 412.459022 69.060408 
L 414.49831 106.813102 
L 416.537597 78.409062 
L 418.576884 115.708824 
L 422.655459 84.060205 
L 424.694746 78.711712 
L 426.734034 65.197891 
L 428.773321 66.070035 
L 430.812608 62.050833 
L 432.851896 59.989026 
L 434.891183 68.610948 
L 436.930471 58.833571 
L 438.969758 59.890988 
L 441.009045 71.056999 
L 443.048333 46.579414 
L 445.08762 61.707216 
L 447.126907 69.575132 
L 449.166195 65.41387 
L 451.205482 55.631683 
L 453.244769 62.658861 
L 455.284057 62.615285 
L 457.323344 55.687993 
L 459.362631 51.802427 
L 461.401919 57.779257 
L 463.441206 60.503054 
L 465.480493 62.284819 
L 467.519781 59.270422 
L 469.559068 52.924591 
L 471.598355 66.980303 
L 473.637643 67.917497 
L 475.67693 71.859023 
L 477.716217 49.614273 
L 479.755505 64.560577 
L 481.794792 59.72808 
L 483.834079 61.932101 
L 485.873367 67.645404 
L 487.912654 66.473005 
L 489.951942 45.436145 
L 491.991229 52.44905 
L 494.030516 42.87196 
L 496.069804 61.538677 
L 498.109091 57.985403 
L 498.109091 57.985403 
" clip-path="url(#p02872d7c3a)" style="fill: none; stroke: #ff0000; stroke-opacity: 0.9; stroke-width: 1.5; stroke-linecap: square"/>
   </g>
   <g id="line2d_16">
    <path d="M 92.290909 61.726775 
L 94.330196 106.148341 
L 96.369484 130.62925 
L 98.408771 103.961929 
L 100.448058 89.552244 
L 102.487346 107.213659 
L 104.526633 98.203225 
L 106.565921 67.35846 
L 108.605208 115.305259 
L 110.644495 44.802785 
L 112.683783 81.712988 
L 114.72307 123.647258 
L 116.762357 122.733 
L 118.801645 110.871345 
L 120.840932 67.588754 
L 122.880219 116.331864 
L 124.919507 69.781664 
L 126.958794 66.043562 
L 128.998081 87.912491 
L 131.037369 64.595545 
L 133.076656 52.577734 
L 135.115943 52.245823 
L 137.155231 108.256363 
L 139.194518 107.817806 
L 141.233805 125.497723 
L 143.273093 121.765631 
L 145.31238 119.981238 
L 147.351667 116.290523 
L 149.390955 117.177933 
L 151.430242 109.312752 
L 153.469529 107.285165 
L 155.508817 111.91651 
L 157.548104 127.655504 
L 159.587392 109.371655 
L 161.626679 121.605891 
L 163.665966 98.140856 
L 165.705254 93.885807 
L 167.744541 111.040846 
L 169.783828 47.332811 
L 171.823116 54.856126 
L 173.862403 74.765537 
L 175.90169 47.660575 
L 177.940978 41.96151 
L 179.980265 70.466383 
L 182.019552 66.771167 
L 184.05884 70.966178 
L 186.098127 64.505361 
L 188.137414 56.289542 
L 190.176702 66.588081 
L 192.215989 60.510509 
L 194.255276 48.483742 
L 196.294564 69.065016 
L 198.333851 75.450493 
L 200.373138 96.752277 
L 202.412426 70.662197 
L 204.451713 52.96054 
L 206.491 44.292633 
L 208.530288 76.557325 
L 210.569575 56.522393 
L 212.608862 110.018771 
L 214.64815 108.392859 
L 216.687437 93.261329 
L 218.726725 91.925576 
L 220.766012 109.317223 
L 222.805299 121.810313 
L 224.844587 120.948382 
L 226.883874 67.456825 
L 228.923161 59.176153 
L 230.962449 79.775407 
L 233.001736 73.021071 
L 235.041023 41.165333 
L 237.080311 60.076399 
L 239.119598 52.316354 
L 241.158885 74.41943 
L 243.198173 50.42478 
L 245.23746 84.569857 
L 247.276747 49.516268 
L 249.316035 98.808019 
L 251.355322 74.462917 
L 253.394609 112.541024 
L 255.433897 89.707602 
L 257.473184 68.685866 
L 259.512471 64.408785 
L 261.551759 57.788085 
L 263.591046 69.383735 
L 265.630333 66.58351 
L 267.669621 60.154028 
L 269.708908 49.445901 
L 271.748196 41.779711 
L 273.787483 59.342129 
L 275.82677 49.871427 
L 277.866058 65.940013 
L 279.905345 56.144747 
L 281.944632 77.782288 
L 283.98392 64.668156 
L 286.023207 59.648364 
L 288.062494 53.642827 
L 290.101782 68.247452 
L 292.141069 74.53441 
L 294.180356 53.158083 
L 296.219644 43.473334 
L 298.258931 80.538521 
L 300.298218 56.657253 
L 302.337506 62.797646 
L 304.376793 59.543062 
L 306.41608 44.322545 
L 308.455368 46.781461 
L 310.494655 51.346386 
L 312.533942 57.861719 
L 314.57323 72.567033 
L 316.612517 39.472035 
L 318.651804 55.132553 
L 320.691092 45.516536 
L 322.730379 41.944992 
L 324.769667 55.614532 
L 326.808954 62.794132 
L 328.848241 45.607484 
L 330.887529 44.727398 
L 332.926816 48.993439 
L 334.966103 45.638264 
L 337.005391 55.221679 
L 339.044678 46.52942 
L 341.083965 49.016273 
L 343.123253 51.806505 
L 345.16254 47.492536 
L 347.201827 53.441038 
L 349.241115 53.117486 
L 351.280402 41.481104 
L 353.319689 52.08679 
L 355.358977 54.24066 
L 357.398264 64.704284 
L 359.437551 81.925763 
L 361.476839 49.581983 
L 363.516126 56.886995 
L 365.555413 45.153114 
L 367.594701 68.965741 
L 369.633988 53.216409 
L 371.673275 59.506744 
L 373.712563 52.110243 
L 375.75185 68.005381 
L 377.791138 51.760557 
L 379.830425 91.106788 
L 381.869712 66.431771 
L 383.909 69.524148 
L 385.948287 101.011844 
L 387.987574 72.053416 
L 390.026862 78.515256 
L 392.066149 62.160362 
L 394.105436 63.210503 
L 396.144724 99.280879 
L 398.184011 83.591745 
L 400.223298 83.990126 
L 402.262586 57.310464 
L 404.301873 81.222883 
L 406.34116 72.996637 
L 408.380448 68.0139 
L 410.419735 49.757587 
L 412.459022 68.952752 
L 414.49831 106.688913 
L 416.537597 78.442597 
L 418.576884 115.67709 
L 422.655459 84.290101 
L 424.694746 78.667981 
L 426.734034 65.17939 
L 428.773321 65.979327 
L 430.812608 62.010223 
L 432.851896 59.900108 
L 434.891183 68.819871 
L 436.930471 58.906307 
L 438.969758 59.896719 
L 441.009045 71.010022 
L 443.048333 46.660131 
L 445.08762 61.69532 
L 447.126907 69.52243 
L 449.166195 65.570857 
L 451.205482 55.63289 
L 453.244769 62.882492 
L 455.284057 62.615892 
L 457.323344 55.67835 
L 459.362631 51.819959 
L 461.401919 57.80847 
L 463.441206 60.352421 
L 465.480493 62.322462 
L 467.519781 59.304379 
L 469.559068 52.772799 
L 471.598355 66.952737 
L 473.637643 67.783766 
L 475.67693 71.71937 
L 477.716217 49.759365 
L 479.755505 64.494868 
L 481.794792 59.702754 
L 483.834079 61.919795 
L 485.873367 67.638323 
L 487.912654 66.486494 
L 489.951942 45.395652 
L 491.991229 52.495825 
L 494.030516 42.963236 
L 496.069804 61.479365 
L 498.109091 58.190229 
L 498.109091 58.190229 
" clip-path="url(#p02872d7c3a)" style="fill: none; stroke: #ff0000; stroke-opacity: 0.9; stroke-width: 1.5; stroke-linecap: square"/>
   </g>
   <g id="line2d_17">
    <path d="M 92.290909 61.799767 
L 94.330196 106.033723 
L 96.369484 130.768587 
L 98.408771 104.208215 
L 100.448058 89.60535 
L 102.487346 107.390057 
L 104.526633 98.182845 
L 106.565921 67.472751 
L 108.605208 115.304177 
L 110.644495 44.722026 
L 112.683783 81.67764 
L 114.72307 123.576906 
L 116.762357 122.612235 
L 118.801645 110.839813 
L 120.840932 67.633859 
L 122.880219 116.369685 
L 124.919507 69.706723 
L 126.958794 66.287678 
L 128.998081 87.809382 
L 131.037369 64.639115 
L 133.076656 52.538979 
L 135.115943 52.323291 
L 137.155231 108.243344 
L 139.194518 107.97392 
L 141.233805 125.463551 
L 143.273093 121.853794 
L 145.31238 119.978028 
L 147.351667 116.213667 
L 149.390955 117.294656 
L 151.430242 109.301849 
L 153.469529 107.562044 
L 155.508817 111.84441 
L 157.548104 127.590336 
L 159.587392 109.489709 
L 161.626679 121.552327 
L 163.665966 98.128099 
L 165.705254 93.785451 
L 167.744541 111.129426 
L 169.783828 47.449031 
L 171.823116 54.761554 
L 173.862403 74.729059 
L 175.90169 47.622798 
L 177.940978 42.047816 
L 179.980265 70.362394 
L 182.019552 66.9492 
L 184.05884 70.936412 
L 186.098127 64.590462 
L 188.137414 56.30617 
L 190.176702 66.721319 
L 192.215989 60.527761 
L 194.255276 48.539223 
L 196.294564 68.956598 
L 198.333851 75.383215 
L 200.373138 96.62203 
L 202.412426 70.643333 
L 204.451713 52.947276 
L 206.491 44.11326 
L 208.530288 76.425871 
L 210.569575 56.563389 
L 212.608862 109.924592 
L 214.64815 108.519854 
L 216.687437 93.093926 
L 218.726725 91.995845 
L 220.766012 109.210428 
L 222.805299 121.759056 
L 224.844587 120.919228 
L 226.883874 67.518682 
L 228.923161 59.278126 
L 230.962449 79.703224 
L 233.001736 73.128252 
L 235.041023 41.162084 
L 237.080311 60.302853 
L 239.119598 52.28352 
L 241.158885 74.31814 
L 243.198173 50.357157 
L 245.23746 84.499677 
L 247.276747 49.511432 
L 249.316035 98.919291 
L 251.355322 74.595857 
L 253.394609 112.43291 
L 255.433897 89.79611 
L 257.473184 68.751391 
L 259.512471 64.367652 
L 261.551759 57.742565 
L 263.591046 69.392177 
L 265.630333 66.584633 
L 267.669621 60.206147 
L 269.708908 49.424294 
L 271.748196 41.761 
L 273.787483 59.338051 
L 275.82677 49.648082 
L 277.866058 65.934371 
L 279.905345 56.206717 
L 281.944632 77.886212 
L 283.98392 64.815876 
L 286.023207 59.530185 
L 288.062494 53.732101 
L 290.101782 68.425401 
L 292.141069 74.512908 
L 294.180356 52.882197 
L 296.219644 43.638487 
L 298.258931 80.789421 
L 300.298218 56.707125 
L 302.337506 62.887991 
L 304.376793 59.448234 
L 306.41608 44.356235 
L 308.455368 46.910778 
L 310.494655 51.337885 
L 312.533942 57.964352 
L 314.57323 72.59586 
L 316.612517 39.538796 
L 318.651804 55.300331 
L 320.691092 45.560445 
L 322.730379 41.945943 
L 324.769667 55.668619 
L 326.808954 62.801837 
L 328.848241 45.540193 
L 330.887529 44.713522 
L 332.926816 48.946878 
L 334.966103 45.568334 
L 337.005391 55.469166 
L 339.044678 46.635082 
L 341.083965 49.081254 
L 343.123253 51.835409 
L 345.16254 47.773665 
L 347.201827 53.482373 
L 349.241115 53.214959 
L 351.280402 41.567959 
L 353.319689 52.29214 
L 355.358977 54.275818 
L 357.398264 64.707232 
L 359.437551 81.931554 
L 361.476839 49.618524 
L 363.516126 57.044839 
L 365.555413 45.193569 
L 367.594701 68.982982 
L 369.633988 52.977066 
L 371.673275 59.420691 
L 373.712563 52.211194 
L 375.75185 68.158789 
L 377.791138 51.798806 
L 379.830425 91.076034 
L 381.869712 66.378636 
L 383.909 69.5671 
L 385.948287 100.956497 
L 387.987574 72.178027 
L 390.026862 78.660651 
L 392.066149 62.297047 
L 394.105436 63.269161 
L 396.144724 99.451094 
L 398.184011 83.585794 
L 400.223298 83.952447 
L 402.262586 57.334154 
L 404.301873 81.12906 
L 406.34116 73.046105 
L 408.380448 67.98713 
L 410.419735 49.909016 
L 412.459022 68.956443 
L 414.49831 106.570383 
L 416.537597 78.574592 
L 418.576884 115.632729 
L 422.655459 84.175946 
L 424.694746 78.739076 
L 426.734034 65.177648 
L 428.773321 65.847296 
L 430.812608 62.127879 
L 432.851896 59.740725 
L 434.891183 68.801406 
L 436.930471 58.881998 
L 438.969758 59.782422 
L 441.009045 71.050513 
L 443.048333 46.62697 
L 445.08762 61.624641 
L 447.126907 69.638855 
L 449.166195 65.604731 
L 451.205482 55.546052 
L 453.244769 62.991516 
L 455.284057 62.396381 
L 457.323344 55.691619 
L 459.362631 51.83554 
L 461.401919 57.810366 
L 463.441206 60.519515 
L 465.480493 62.323954 
L 467.519781 59.18076 
L 469.559068 52.976734 
L 471.598355 67.023915 
L 473.637643 67.700323 
L 475.67693 71.871002 
L 477.716217 49.683317 
L 479.755505 64.428933 
L 481.794792 59.56718 
L 483.834079 61.808036 
L 485.873367 67.640434 
L 487.912654 66.382381 
L 489.951942 45.519984 
L 491.991229 52.566629 
L 494.030516 42.763882 
L 496.069804 61.544866 
L 498.109091 58.034377 
L 498.109091 58.034377 
" clip-path="url(#p02872d7c3a)" style="fill: none; stroke: #ff0000; stroke-opacity: 0.9; stroke-width: 1.5; stroke-linecap: square"/>
   </g>
   <g id="line2d_18">
    <path d="M 92.290909 112.208774 
L 94.330196 100.704741 
L 96.369484 120.539205 
L 98.408771 100.876942 
L 100.448058 91.514746 
L 102.487346 104.771045 
L 104.526633 98.937452 
L 106.565921 66.445867 
L 108.605208 112.600545 
L 110.644495 46.171262 
L 112.683783 80.872739 
L 114.72307 119.190575 
L 116.762357 121.402895 
L 118.801645 112.596669 
L 120.840932 69.385661 
L 122.880219 112.508232 
L 124.919507 67.886167 
L 126.958794 63.437123 
L 128.998081 85.10581 
L 131.037369 63.309367 
L 133.076656 49.86415 
L 135.115943 52.167754 
L 137.155231 105.0954 
L 139.194518 109.273112 
L 141.233805 125.330456 
L 143.273093 121.36914 
L 145.31238 121.490321 
L 147.351667 113.396641 
L 149.390955 118.195193 
L 151.430242 109.310529 
L 153.469529 107.749856 
L 155.508817 114.635967 
L 157.548104 128.390154 
L 159.587392 109.641293 
L 161.626679 123.769914 
L 163.665966 95.782761 
L 165.705254 94.940425 
L 167.744541 112.933472 
L 169.783828 49.80133 
L 171.823116 54.355878 
L 173.862403 74.746906 
L 175.90169 50.57373 
L 177.940978 43.061663 
L 179.980265 68.64125 
L 182.019552 64.07103 
L 184.05884 70.499157 
L 186.098127 65.652558 
L 188.137414 59.276396 
L 190.176702 68.293299 
L 192.215989 61.272119 
L 194.255276 47.568271 
L 196.294564 68.573573 
L 198.333851 74.571406 
L 200.373138 92.657699 
L 202.412426 70.858813 
L 204.451713 52.233309 
L 206.491 42.306363 
L 208.530288 72.981721 
L 210.569575 57.817132 
L 212.608862 111.616196 
L 214.64815 105.850156 
L 216.687437 93.637333 
L 218.726725 92.247214 
L 220.766012 109.20201 
L 222.805299 120.959832 
L 224.844587 120.03907 
L 226.883874 69.740674 
L 228.923161 58.059768 
L 230.962449 78.908792 
L 233.001736 73.256561 
L 235.041023 43.775999 
L 237.080311 58.895053 
L 239.119598 51.51216 
L 241.158885 74.0081 
L 243.198173 52.030439 
L 245.23746 80.996607 
L 247.276747 50.103005 
L 249.316035 101.87318 
L 251.355322 76.815032 
L 253.394609 110.744409 
L 257.473184 71.794372 
L 259.512471 65.180841 
L 261.551759 56.810638 
L 263.591046 68.446702 
L 265.630333 63.749684 
L 267.669621 60.513868 
L 269.708908 48.374106 
L 271.748196 39.141818 
L 273.787483 61.763461 
L 275.82677 49.461209 
L 277.866058 65.276049 
L 279.905345 53.875541 
L 281.944632 81.651369 
L 283.98392 64.335627 
L 286.023207 62.719993 
L 288.062494 52.827213 
L 290.101782 66.985844 
L 292.141069 74.998929 
L 294.180356 54.028093 
L 296.219644 41.28683 
L 298.258931 78.669122 
L 300.298218 55.139075 
L 302.337506 60.40655 
L 304.376793 57.950149 
L 306.41608 44.59487 
L 308.455368 45.34383 
L 310.494655 56.260412 
L 312.533942 60.63971 
L 314.57323 72.357885 
L 316.612517 40.230696 
L 318.651804 56.490611 
L 320.691092 46.06206 
L 322.730379 42.01318 
L 326.808954 62.633584 
L 328.848241 45.895911 
L 332.926816 47.534275 
L 334.966103 45.793212 
L 337.005391 56.175084 
L 339.044678 40.660125 
L 341.083965 50.030923 
L 343.123253 56.209767 
L 345.16254 48.622392 
L 347.201827 52.48812 
L 349.241115 54.483284 
L 351.280402 41.03945 
L 353.319689 58.328294 
L 355.358977 57.611639 
L 357.398264 64.70904 
L 359.437551 83.114784 
L 361.476839 47.620182 
L 363.516126 55.83318 
L 365.555413 45.733778 
L 367.594701 69.877829 
L 369.633988 52.887429 
L 371.673275 62.233734 
L 373.712563 51.751871 
L 375.75185 68.225117 
L 377.791138 49.881218 
L 379.830425 94.032362 
L 381.869712 66.28464 
L 383.909 72.332292 
L 385.948287 100.067196 
L 387.987574 72.152309 
L 390.026862 80.076821 
L 392.066149 61.992447 
L 394.105436 66.667274 
L 396.144724 100.967543 
L 398.184011 83.422071 
L 400.223298 83.691025 
L 402.262586 58.895356 
L 404.301873 79.939291 
L 406.34116 68.261827 
L 408.380448 69.188403 
L 410.419735 46.901964 
L 412.459022 68.598702 
L 414.49831 105.222063 
L 416.537597 78.48952 
L 418.576884 112.966621 
L 420.616172 105.836958 
L 422.655459 86.130845 
L 424.694746 81.063559 
L 426.734034 61.426883 
L 428.773321 66.069446 
L 430.812608 64.451173 
L 432.851896 63.483856 
L 434.891183 70.967635 
L 436.930471 59.929928 
L 438.969758 59.902962 
L 441.009045 71.044092 
L 443.048333 47.757807 
L 445.08762 60.13775 
L 447.126907 69.496504 
L 449.166195 66.349678 
L 451.205482 56.2822 
L 453.244769 64.221734 
L 455.284057 62.218925 
L 457.323344 52.861366 
L 459.362631 49.718898 
L 461.401919 60.198359 
L 463.441206 60.140521 
L 465.480493 62.334156 
L 467.519781 54.628418 
L 469.559068 55.964165 
L 471.598355 67.786655 
L 473.637643 67.904686 
L 475.67693 70.272311 
L 477.716217 49.946951 
L 479.755505 64.947562 
L 481.794792 57.67871 
L 483.834079 61.45178 
L 485.873367 66.207386 
L 487.912654 66.812663 
L 489.951942 46.383849 
L 491.991229 49.57847 
L 494.030516 43.736403 
L 496.069804 64.314035 
L 498.109091 58.594817 
L 498.109091 58.594817 
" clip-path="url(#p02872d7c3a)" style="fill: none; stroke: #008000; stroke-opacity: 0.9; stroke-width: 1.5; stroke-linecap: square"/>
   </g>
   <g id="line2d_19">
    <path d="M 153.469529 135.36 
L 153.469529 34.56 
" clip-path="url(#p02872d7c3a)" style="fill: none; stroke-dasharray: 5.55,2.4; stroke-dashoffset: 0; stroke: #000000; stroke-width: 1.5"/>
   </g>
   <g id="line2d_20">
    <path d="M 438.969758 135.36 
L 438.969758 34.56 
" clip-path="url(#p02872d7c3a)" style="fill: none; stroke-dasharray: 5.55,2.4; stroke-dashoffset: 0; stroke: #0000ff; stroke-width: 1.5"/>
   </g>
   <g id="patch_3">
    <path d="M 72 135.36 
L 72 34.56 
" style="fill: none; stroke: #000000; stroke-width: 0.8; stroke-linejoin: miter; stroke-linecap: square"/>
   </g>
   <g id="patch_4">
    <path d="M 518.4 135.36 
L 518.4 34.56 
" style="fill: none; stroke: #000000; stroke-width: 0.8; stroke-linejoin: miter; stroke-linecap: square"/>
   </g>
   <g id="patch_5">
    <path d="M 72 135.36 
L 518.4 135.36 
" style="fill: none; stroke: #000000; stroke-width: 0.8; stroke-linejoin: miter; stroke-linecap: square"/>
   </g>
   <g id="patch_6">
    <path d="M 72 34.56 
L 518.4 34.56 
" style="fill: none; stroke: #000000; stroke-width: 0.8; stroke-linejoin: miter; stroke-linecap: square"/>
   </g>
  </g>
  <g id="axes_2">
   <g id="patch_7">
    <path d="M 72 256.32 
L 518.4 256.32 
L 518.4 155.52 
L 72 155.52 
z
" style="fill: #ffffff"/>
   </g>
   <g id="matplotlib.axis_3">
    <g id="xtick_10">
     <g id="line2d_21">
      <g>
       <use xlink:href="#m59d3de4fbd" x="92.290909" y="256.32" style="stroke: #000000; stroke-width: 0.8"/>
      </g>
     </g>
     <g id="text_4">
      <!-- 0 -->
      <g transform="translate(89.109659 270.918437) scale(0.1 -0.1)">
       <use xlink:href="#DejaVuSans-30"/>
      </g>
     </g>
    </g>
    <g id="xtick_11">
     <g id="line2d_22">
      <g>
       <use xlink:href="#m59d3de4fbd" x="143.273093" y="256.32" style="stroke: #000000; stroke-width: 0.8"/>
      </g>
     </g>
     <g id="text_5">
      <!-- 25 -->
      <g transform="translate(136.910593 270.918437) scale(0.1 -0.1)">
       <defs>
        <path id="DejaVuSans-32" d="M 1228 531 
L 3431 531 
L 3431 0 
L 469 0 
L 469 531 
Q 828 903 1448 1529 
Q 2069 2156 2228 2338 
Q 2531 2678 2651 2914 
Q 2772 3150 2772 3378 
Q 2772 3750 2511 3984 
Q 2250 4219 1831 4219 
Q 1534 4219 1204 4116 
Q 875 4013 500 3803 
L 500 4441 
Q 881 4594 1212 4672 
Q 1544 4750 1819 4750 
Q 2544 4750 2975 4387 
Q 3406 4025 3406 3419 
Q 3406 3131 3298 2873 
Q 3191 2616 2906 2266 
Q 2828 2175 2409 1742 
Q 1991 1309 1228 531 
z
" transform="scale(0.015625)"/>
       </defs>
       <use xlink:href="#DejaVuSans-32"/>
       <use xlink:href="#DejaVuSans-35" transform="translate(63.623047 0)"/>
      </g>
     </g>
    </g>
    <g id="xtick_12">
     <g id="line2d_23">
      <g>
       <use xlink:href="#m59d3de4fbd" x="194.255276" y="256.32" style="stroke: #000000; stroke-width: 0.8"/>
      </g>
     </g>
     <g id="text_6">
      <!-- 50 -->
      <g transform="translate(187.892776 270.918437) scale(0.1 -0.1)">
       <use xlink:href="#DejaVuSans-35"/>
       <use xlink:href="#DejaVuSans-30" transform="translate(63.623047 0)"/>
      </g>
     </g>
    </g>
    <g id="xtick_13">
     <g id="line2d_24">
      <g>
       <use xlink:href="#m59d3de4fbd" x="245.23746" y="256.32" style="stroke: #000000; stroke-width: 0.8"/>
      </g>
     </g>
     <g id="text_7">
      <!-- 75 -->
      <g transform="translate(238.87496 270.918437) scale(0.1 -0.1)">
       <defs>
        <path id="DejaVuSans-37" d="M 525 4666 
L 3525 4666 
L 3525 4397 
L 1831 0 
L 1172 0 
L 2766 4134 
L 525 4134 
L 525 4666 
z
" transform="scale(0.015625)"/>
       </defs>
       <use xlink:href="#DejaVuSans-37"/>
       <use xlink:href="#DejaVuSans-35" transform="translate(63.623047 0)"/>
      </g>
     </g>
    </g>
    <g id="xtick_14">
     <g id="line2d_25">
      <g>
       <use xlink:href="#m59d3de4fbd" x="296.219644" y="256.32" style="stroke: #000000; stroke-width: 0.8"/>
      </g>
     </g>
     <g id="text_8">
      <!-- 100 -->
      <g transform="translate(286.675894 270.918437) scale(0.1 -0.1)">
       <use xlink:href="#DejaVuSans-31"/>
       <use xlink:href="#DejaVuSans-30" transform="translate(63.623047 0)"/>
       <use xlink:href="#DejaVuSans-30" transform="translate(127.246094 0)"/>
      </g>
     </g>
    </g>
    <g id="xtick_15">
     <g id="line2d_26">
      <g>
       <use xlink:href="#m59d3de4fbd" x="347.201827" y="256.32" style="stroke: #000000; stroke-width: 0.8"/>
      </g>
     </g>
     <g id="text_9">
      <!-- 125 -->
      <g transform="translate(337.658077 270.918437) scale(0.1 -0.1)">
       <use xlink:href="#DejaVuSans-31"/>
       <use xlink:href="#DejaVuSans-32" transform="translate(63.623047 0)"/>
       <use xlink:href="#DejaVuSans-35" transform="translate(127.246094 0)"/>
      </g>
     </g>
    </g>
    <g id="xtick_16">
     <g id="line2d_27">
      <g>
       <use xlink:href="#m59d3de4fbd" x="398.184011" y="256.32" style="stroke: #000000; stroke-width: 0.8"/>
      </g>
     </g>
     <g id="text_10">
      <!-- 150 -->
      <g transform="translate(388.640261 270.918437) scale(0.1 -0.1)">
       <use xlink:href="#DejaVuSans-31"/>
       <use xlink:href="#DejaVuSans-35" transform="translate(63.623047 0)"/>
       <use xlink:href="#DejaVuSans-30" transform="translate(127.246094 0)"/>
      </g>
     </g>
    </g>
    <g id="xtick_17">
     <g id="line2d_28">
      <g>
       <use xlink:href="#m59d3de4fbd" x="449.166195" y="256.32" style="stroke: #000000; stroke-width: 0.8"/>
      </g>
     </g>
     <g id="text_11">
      <!-- 175 -->
      <g transform="translate(439.622445 270.918437) scale(0.1 -0.1)">
       <use xlink:href="#DejaVuSans-31"/>
       <use xlink:href="#DejaVuSans-37" transform="translate(63.623047 0)"/>
       <use xlink:href="#DejaVuSans-35" transform="translate(127.246094 0)"/>
      </g>
     </g>
    </g>
    <g id="xtick_18">
     <g id="line2d_29">
      <g>
       <use xlink:href="#m59d3de4fbd" x="500.148378" y="256.32" style="stroke: #000000; stroke-width: 0.8"/>
      </g>
     </g>
     <g id="text_12">
      <!-- 200 -->
      <g transform="translate(490.604628 270.918437) scale(0.1 -0.1)">
       <use xlink:href="#DejaVuSans-32"/>
       <use xlink:href="#DejaVuSans-30" transform="translate(63.623047 0)"/>
       <use xlink:href="#DejaVuSans-30" transform="translate(127.246094 0)"/>
      </g>
     </g>
    </g>
   </g>
   <g id="matplotlib.axis_4">
    <g id="ytick_4">
     <g id="line2d_30">
      <g>
       <use xlink:href="#m98877a54b2" x="72" y="253.592654" style="stroke: #000000; stroke-width: 0.8"/>
      </g>
     </g>
     <g id="text_13">
      <!-- −200 -->
      <g transform="translate(37.532812 257.391872) scale(0.1 -0.1)">
       <use xlink:href="#DejaVuSans-2212"/>
       <use xlink:href="#DejaVuSans-32" transform="translate(83.789062 0)"/>
       <use xlink:href="#DejaVuSans-30" transform="translate(147.412109 0)"/>
       <use xlink:href="#DejaVuSans-30" transform="translate(211.035156 0)"/>
      </g>
     </g>
    </g>
    <g id="ytick_5">
     <g id="line2d_31">
      <g>
       <use xlink:href="#m98877a54b2" x="72" y="229.088957" style="stroke: #000000; stroke-width: 0.8"/>
      </g>
     </g>
     <g id="text_14">
      <!-- −100 -->
      <g transform="translate(37.532812 232.888175) scale(0.1 -0.1)">
       <use xlink:href="#DejaVuSans-2212"/>
       <use xlink:href="#DejaVuSans-31" transform="translate(83.789062 0)"/>
       <use xlink:href="#DejaVuSans-30" transform="translate(147.412109 0)"/>
       <use xlink:href="#DejaVuSans-30" transform="translate(211.035156 0)"/>
      </g>
     </g>
    </g>
    <g id="ytick_6">
     <g id="line2d_32">
      <g>
       <use xlink:href="#m98877a54b2" x="72" y="204.58526" style="stroke: #000000; stroke-width: 0.8"/>
      </g>
     </g>
     <g id="text_15">
      <!-- 0 -->
      <g transform="translate(58.6375 208.384478) scale(0.1 -0.1)">
       <use xlink:href="#DejaVuSans-30"/>
      </g>
     </g>
    </g>
    <g id="ytick_7">
     <g id="line2d_33">
      <g>
       <use xlink:href="#m98877a54b2" x="72" y="180.081563" style="stroke: #000000; stroke-width: 0.8"/>
      </g>
     </g>
     <g id="text_16">
      <!-- 100 -->
      <g transform="translate(45.9125 183.880781) scale(0.1 -0.1)">
       <use xlink:href="#DejaVuSans-31"/>
       <use xlink:href="#DejaVuSans-30" transform="translate(63.623047 0)"/>
       <use xlink:href="#DejaVuSans-30" transform="translate(127.246094 0)"/>
      </g>
     </g>
    </g>
    <g id="ytick_8">
     <g id="line2d_34">
      <g>
       <use xlink:href="#m98877a54b2" x="72" y="155.577866" style="stroke: #000000; stroke-width: 0.8"/>
      </g>
     </g>
     <g id="text_17">
      <!-- 200 -->
      <g transform="translate(45.9125 159.377085) scale(0.1 -0.1)">
       <use xlink:href="#DejaVuSans-32"/>
       <use xlink:href="#DejaVuSans-30" transform="translate(63.623047 0)"/>
       <use xlink:href="#DejaVuSans-30" transform="translate(127.246094 0)"/>
      </g>
     </g>
    </g>
   </g>
   <g id="line2d_35">
    <path d="M 92.290909 176.512937 
L 94.330196 169.839147 
L 96.369484 163.86427 
L 98.408771 164.016895 
L 100.448058 169.526918 
L 102.487346 166.03692 
L 104.526633 168.445481 
L 106.565921 162.640263 
L 108.605208 164.795206 
L 110.644495 175.478036 
L 112.683783 248.93786 
L 114.72307 161.588921 
L 116.762357 163.678178 
L 118.801645 170.137083 
L 120.840932 161.139849 
L 122.880219 167.96588 
L 124.919507 166.228475 
L 126.958794 180.324205 
L 128.998081 163.704979 
L 131.037369 167.537379 
L 133.076656 174.009596 
L 135.115943 168.091087 
L 137.155231 166.027614 
L 139.194518 165.193279 
L 141.233805 167.643667 
L 143.273093 165.106512 
L 145.31238 161.658593 
L 147.351667 161.221015 
L 149.390955 164.280709 
L 151.430242 162.617743 
L 153.469529 164.378318 
L 155.508817 168.036098 
L 157.548104 163.822734 
L 159.587392 165.465165 
L 161.626679 168.422771 
L 163.665966 168.53903 
L 165.705254 250.14669 
L 167.744541 162.175334 
L 169.783828 168.26739 
L 171.823116 166.979084 
L 173.862403 167.030678 
L 175.90169 172.408693 
L 177.940978 171.011011 
L 179.980265 184.97279 
L 182.019552 169.731772 
L 184.05884 172.860315 
L 186.098127 187.866512 
L 188.137414 173.088684 
L 190.176702 174.268285 
L 192.215989 197.714045 
L 194.255276 192.964125 
L 196.294564 189.859173 
L 198.333851 188.092297 
L 200.373138 171.628808 
L 202.412426 164.84533 
L 204.451713 167.505598 
L 206.491 166.464464 
L 208.530288 174.687921 
L 210.569575 166.097896 
L 212.608862 163.657109 
L 214.64815 168.528348 
L 216.687437 161.521777 
L 218.726725 167.636727 
L 220.766012 166.805776 
L 222.805299 170.025569 
L 224.844587 162.596454 
L 226.883874 177.737395 
L 228.923161 186.811313 
L 230.962449 166.476548 
L 233.001736 171.092648 
L 235.041023 166.262788 
L 237.080311 166.647127 
L 239.119598 168.82213 
L 241.158885 164.957413 
L 243.198173 170.788281 
L 245.23746 162.236058 
L 247.276747 164.475703 
L 249.316035 164.785451 
L 251.355322 169.779926 
L 253.394609 165.66548 
L 255.433897 163.370259 
L 257.473184 169.736517 
L 259.512471 164.091969 
L 261.551759 162.09311 
L 263.591046 164.957021 
L 265.630333 168.176971 
L 267.669621 163.717777 
L 269.708908 165.193634 
L 271.748196 165.189981 
L 273.787483 166.75186 
L 275.82677 162.587323 
L 277.866058 250.989599 
L 279.905345 167.849033 
L 281.944632 164.634796 
L 283.98392 163.321394 
L 286.023207 169.958966 
L 288.062494 171.502229 
L 290.101782 169.690247 
L 292.141069 171.552799 
L 294.180356 167.229816 
L 296.219644 167.883656 
L 298.258931 174.444056 
L 300.298218 169.663166 
L 302.337506 164.492772 
L 304.376793 170.590515 
L 306.41608 164.116123 
L 308.455368 167.767202 
L 310.494655 167.884247 
L 312.533942 163.845156 
L 314.57323 250.866341 
L 316.612517 160.139466 
L 318.651804 162.448719 
L 320.691092 162.21392 
L 322.730379 165.977097 
L 324.769667 165.238916 
L 326.808954 164.6415 
L 328.848241 166.992384 
L 330.887529 167.425165 
L 332.926816 163.896317 
L 334.966103 165.350611 
L 337.005391 161.089309 
L 339.044678 163.377875 
L 341.083965 162.954187 
L 343.123253 163.022019 
L 345.16254 165.270058 
L 347.201827 163.694368 
L 349.241115 251.733381 
L 351.280402 162.91043 
L 353.319689 164.088485 
L 355.358977 170.965799 
L 357.398264 167.712726 
L 359.437551 170.795329 
L 361.476839 166.472518 
L 363.516126 166.13828 
L 365.555413 170.173983 
L 367.594701 167.553001 
L 369.633988 170.519886 
L 371.673275 165.788373 
L 373.712563 172.054912 
L 375.75185 175.967106 
L 377.791138 174.058813 
L 379.830425 166.220182 
L 381.869712 178.699027 
L 383.909 170.983814 
L 385.948287 169.839136 
L 387.987574 168.411785 
L 390.026862 172.32288 
L 392.066149 172.171912 
L 394.105436 171.869672 
L 396.144724 248.923012 
L 398.184011 164.636049 
L 400.223298 171.195518 
L 404.301873 170.35422 
L 406.34116 167.49738 
L 408.380448 172.760728 
L 410.419735 166.713722 
L 412.459022 171.96447 
L 414.49831 165.241122 
L 416.537597 167.097632 
L 418.576884 161.097386 
L 420.616172 168.619044 
L 422.655459 167.655359 
L 424.694746 171.61912 
L 426.734034 167.8636 
L 428.773321 172.506108 
L 430.812608 175.762835 
L 432.851896 172.032119 
L 434.891183 173.957394 
L 436.930471 178.40022 
L 438.969758 170.739225 
L 441.009045 178.480688 
L 443.048333 171.902717 
L 445.08762 174.506727 
L 447.126907 175.334674 
L 449.166195 163.777922 
L 451.205482 169.548499 
L 453.244769 173.294004 
L 455.284057 178.530224 
L 457.323344 180.342191 
L 459.362631 173.681524 
L 461.401919 173.062332 
L 463.441206 176.980895 
L 465.480493 174.934711 
L 467.519781 174.931245 
L 469.559068 175.214437 
L 471.598355 170.712649 
L 473.637643 175.657736 
L 475.67693 178.253974 
L 477.716217 179.612739 
L 479.755505 173.703196 
L 481.794792 176.800082 
L 483.834079 171.22319 
L 485.873367 174.162364 
L 487.912654 178.03927 
L 489.951942 172.670555 
L 491.991229 169.244431 
L 494.030516 169.033452 
L 496.069804 173.812122 
L 498.109091 176.219518 
L 498.109091 176.219518 
" clip-path="url(#pf9a379f344)" style="fill: none; stroke: #ff0000; stroke-opacity: 0.9; stroke-width: 1.5; stroke-linecap: square"/>
   </g>
   <g id="line2d_36">
    <path d="M 92.290909 176.50054 
L 94.330196 169.890386 
L 96.369484 163.81929 
L 98.408771 163.947148 
L 100.448058 169.561623 
L 102.487346 166.003337 
L 104.526633 168.406304 
L 106.565921 162.700075 
L 108.605208 164.78219 
L 110.644495 175.442239 
L 112.683783 248.952617 
L 114.72307 161.523639 
L 116.762357 163.626434 
L 118.801645 170.126087 
L 120.840932 161.132375 
L 122.880219 167.984762 
L 124.919507 166.169979 
L 126.958794 180.311178 
L 128.998081 163.712976 
L 131.037369 167.498868 
L 133.076656 174.035617 
L 135.115943 168.049973 
L 137.155231 166.032441 
L 139.194518 165.172662 
L 141.233805 167.709746 
L 143.273093 165.089608 
L 145.31238 161.646516 
L 147.351667 161.231592 
L 149.390955 164.252431 
L 151.430242 162.631233 
L 153.469529 164.309368 
L 155.508817 168.022271 
L 157.548104 163.856594 
L 159.587392 165.44502 
L 161.626679 168.383407 
L 163.665966 168.526994 
L 165.705254 250.222292 
L 167.744541 162.188771 
L 169.783828 168.278226 
L 171.823116 166.988888 
L 173.862403 167.029949 
L 175.90169 172.414664 
L 177.940978 171.010779 
L 179.980265 184.891443 
L 182.019552 169.771353 
L 184.05884 172.779857 
L 186.098127 187.855663 
L 188.137414 173.090726 
L 190.176702 174.256956 
L 192.215989 197.692714 
L 194.255276 192.937634 
L 196.294564 189.902401 
L 198.333851 188.115983 
L 200.373138 171.533378 
L 202.412426 164.799737 
L 204.451713 167.476315 
L 206.491 166.517385 
L 208.530288 174.64525 
L 210.569575 166.052306 
L 212.608862 163.657262 
L 214.64815 168.617122 
L 216.687437 161.4637 
L 218.726725 167.598796 
L 220.766012 166.815175 
L 222.805299 169.965506 
L 224.844587 162.607525 
L 226.883874 177.832936 
L 228.923161 186.876631 
L 230.962449 166.494349 
L 233.001736 171.110037 
L 235.041023 166.254308 
L 237.080311 166.655585 
L 239.119598 168.792891 
L 241.158885 164.964177 
L 243.198173 170.759932 
L 245.23746 162.309892 
L 247.276747 164.506247 
L 249.316035 164.784206 
L 251.355322 169.787038 
L 253.394609 165.650801 
L 255.433897 163.33656 
L 257.473184 169.698001 
L 259.512471 164.101433 
L 261.551759 162.1176 
L 263.591046 164.958763 
L 265.630333 168.174152 
L 267.669621 163.746822 
L 269.708908 165.178693 
L 271.748196 165.215877 
L 273.787483 166.771056 
L 275.82677 162.609054 
L 277.866058 250.990788 
L 279.905345 167.850637 
L 281.944632 164.619396 
L 283.98392 163.320318 
L 286.023207 169.953623 
L 288.062494 171.456386 
L 290.101782 169.668583 
L 292.141069 171.58563 
L 294.180356 167.221074 
L 296.219644 167.88099 
L 298.258931 174.469021 
L 300.298218 169.673504 
L 302.337506 164.478145 
L 304.376793 170.640431 
L 306.41608 164.130253 
L 308.455368 167.758087 
L 310.494655 167.928692 
L 312.533942 163.791061 
L 314.57323 250.871542 
L 316.612517 160.147807 
L 318.651804 162.443264 
L 320.691092 162.26216 
L 322.730379 165.958025 
L 326.808954 164.616442 
L 328.848241 166.99929 
L 330.887529 167.469009 
L 332.926816 163.912645 
L 334.966103 165.373381 
L 337.005391 161.107918 
L 339.044678 163.367571 
L 341.083965 162.940644 
L 343.123253 163.062658 
L 345.16254 165.282898 
L 347.201827 163.685981 
L 349.241115 251.738182 
L 351.280402 162.96906 
L 353.319689 164.084424 
L 355.358977 170.972141 
L 357.398264 167.676596 
L 359.437551 170.820679 
L 361.476839 166.496043 
L 363.516126 166.108825 
L 365.555413 170.179352 
L 367.594701 167.479463 
L 369.633988 170.480179 
L 371.673275 165.835248 
L 373.712563 172.004241 
L 375.75185 175.913885 
L 377.791138 174.0085 
L 379.830425 166.166023 
L 381.869712 178.734906 
L 383.909 171.036327 
L 385.948287 169.89094 
L 387.987574 168.439147 
L 390.026862 172.334288 
L 392.066149 172.206172 
L 394.105436 171.867522 
L 396.144724 248.880302 
L 398.184011 164.656669 
L 400.223298 171.170852 
L 404.301873 170.348873 
L 406.34116 167.519515 
L 408.380448 172.753833 
L 410.419735 166.708458 
L 412.459022 171.937535 
L 414.49831 165.160106 
L 416.537597 167.081151 
L 418.576884 161.07942 
L 420.616172 168.632781 
L 422.655459 167.632663 
L 424.694746 171.673451 
L 426.734034 167.866906 
L 428.773321 172.53495 
L 430.812608 175.774536 
L 432.851896 172.066462 
L 434.891183 173.92141 
L 436.930471 178.378525 
L 438.969758 170.753512 
L 441.009045 178.478194 
L 443.048333 171.909814 
L 445.08762 174.524874 
L 447.126907 175.340588 
L 449.166195 163.760274 
L 451.205482 169.554922 
L 453.244769 173.28558 
L 455.284057 178.565946 
L 457.323344 180.366984 
L 459.362631 173.703268 
L 461.401919 173.104414 
L 463.441206 176.947269 
L 465.480493 174.933691 
L 467.519781 174.929735 
L 469.559068 175.236416 
L 471.598355 170.750042 
L 473.637643 175.631363 
L 475.67693 178.267726 
L 477.716217 179.653782 
L 479.755505 173.712017 
L 481.794792 176.788299 
L 483.834079 171.165071 
L 485.873367 174.119489 
L 487.912654 178.046675 
L 489.951942 172.677906 
L 491.991229 169.241552 
L 494.030516 169.083899 
L 496.069804 173.728973 
L 498.109091 176.246928 
L 498.109091 176.246928 
" clip-path="url(#pf9a379f344)" style="fill: none; stroke: #ff0000; stroke-opacity: 0.9; stroke-width: 1.5; stroke-linecap: square"/>
   </g>
   <g id="line2d_37">
    <path d="M 92.290909 176.443908 
L 94.330196 169.903263 
L 96.369484 163.856725 
L 98.408771 163.999901 
L 100.448058 169.540875 
L 102.487346 166.01618 
L 104.526633 168.466307 
L 106.565921 162.647401 
L 108.605208 164.773673 
L 110.644495 175.420738 
L 112.683783 248.956274 
L 114.72307 161.598841 
L 116.762357 163.644093 
L 118.801645 170.083908 
L 120.840932 161.136132 
L 122.880219 168.007091 
L 124.919507 166.226688 
L 126.958794 180.340883 
L 128.998081 163.696275 
L 131.037369 167.547336 
L 133.076656 174.000553 
L 135.115943 168.056348 
L 137.155231 166.065322 
L 139.194518 165.228776 
L 141.233805 167.64514 
L 143.273093 165.136873 
L 145.31238 161.669672 
L 147.351667 161.207479 
L 149.390955 164.294113 
L 151.430242 162.630123 
L 153.469529 164.358932 
L 155.508817 168.029977 
L 157.548104 163.812171 
L 159.587392 165.418716 
L 161.626679 168.372354 
L 163.665966 168.555556 
L 165.705254 250.173678 
L 167.744541 162.168813 
L 169.783828 168.3006 
L 171.823116 166.967953 
L 173.862403 167.058762 
L 175.90169 172.405952 
L 177.940978 170.996765 
L 179.980265 184.917904 
L 182.019552 169.766215 
L 184.05884 172.778152 
L 186.098127 187.894404 
L 188.137414 173.094853 
L 190.176702 174.26934 
L 192.215989 197.68764 
L 194.255276 192.927475 
L 196.294564 189.875711 
L 198.333851 188.065436 
L 200.373138 171.593456 
L 202.412426 164.87584 
L 204.451713 167.475481 
L 206.491 166.522934 
L 208.530288 174.654695 
L 210.569575 166.06153 
L 212.608862 163.67273 
L 214.64815 168.543401 
L 216.687437 161.470235 
L 218.726725 167.568117 
L 220.766012 166.83872 
L 222.805299 169.992269 
L 224.844587 162.613279 
L 226.883874 177.810994 
L 228.923161 186.826942 
L 230.962449 166.428869 
L 233.001736 171.123258 
L 235.041023 166.276024 
L 237.080311 166.638247 
L 239.119598 168.769844 
L 241.158885 164.932403 
L 243.198173 170.767069 
L 245.23746 162.27393 
L 247.276747 164.508644 
L 249.316035 164.782149 
L 251.355322 169.789505 
L 253.394609 165.637913 
L 255.433897 163.332918 
L 257.473184 169.666213 
L 259.512471 164.067001 
L 261.551759 162.099481 
L 263.591046 164.971935 
L 265.630333 168.191661 
L 267.669621 163.821223 
L 269.708908 165.197713 
L 271.748196 165.232635 
L 273.787483 166.770719 
L 275.82677 162.626863 
L 277.866058 251.008246 
L 279.905345 167.880867 
L 281.944632 164.617021 
L 283.98392 163.295095 
L 286.023207 169.976577 
L 288.062494 171.505785 
L 290.101782 169.679606 
L 292.141069 171.596189 
L 294.180356 167.201908 
L 296.219644 167.886876 
L 298.258931 174.4132 
L 300.298218 169.72927 
L 302.337506 164.455188 
L 304.376793 170.586758 
L 306.41608 164.14768 
L 308.455368 167.749237 
L 310.494655 167.905391 
L 312.533942 163.842076 
L 314.57323 250.85272 
L 316.612517 160.101818 
L 318.651804 162.455124 
L 320.691092 162.240601 
L 322.730379 165.922994 
L 326.808954 164.599231 
L 328.848241 166.947909 
L 330.887529 167.469629 
L 332.926816 163.905358 
L 334.966103 165.373071 
L 337.005391 161.073262 
L 339.044678 163.307661 
L 341.083965 162.928537 
L 343.123253 163.062987 
L 345.16254 165.348143 
L 347.201827 163.681943 
L 349.241115 251.704961 
L 351.280402 162.913937 
L 353.319689 164.065292 
L 355.358977 170.936706 
L 357.398264 167.660541 
L 359.437551 170.784172 
L 361.476839 166.469082 
L 363.516126 166.127905 
L 365.555413 170.175692 
L 367.594701 167.553999 
L 369.633988 170.568347 
L 371.673275 165.788552 
L 373.712563 172.052059 
L 375.75185 175.96086 
L 377.791138 174.045441 
L 379.830425 166.241214 
L 381.869712 178.730171 
L 383.909 171.020886 
L 385.948287 169.837824 
L 387.987574 168.45457 
L 390.026862 172.290515 
L 392.066149 172.196649 
L 394.105436 171.900702 
L 396.144724 248.808906 
L 398.184011 164.641953 
L 400.223298 171.193974 
L 404.301873 170.363807 
L 406.34116 167.470934 
L 408.380448 172.776824 
L 410.419735 166.719719 
L 412.459022 171.928707 
L 414.49831 165.195731 
L 416.537597 167.106781 
L 418.576884 161.038702 
L 420.616172 168.610512 
L 422.655459 167.664246 
L 424.694746 171.666557 
L 426.734034 167.829467 
L 428.773321 172.495138 
L 430.812608 175.800811 
L 432.851896 172.020248 
L 434.891183 173.908075 
L 436.930471 178.436477 
L 438.969758 170.724871 
L 441.009045 178.496003 
L 443.048333 171.904953 
L 445.08762 174.41785 
L 447.126907 175.302843 
L 449.166195 163.741052 
L 451.205482 169.568573 
L 453.244769 173.296946 
L 455.284057 178.577397 
L 457.323344 180.347633 
L 459.362631 173.702325 
L 461.401919 173.052745 
L 463.441206 176.930681 
L 465.480493 174.904895 
L 467.519781 174.939323 
L 469.559068 175.234509 
L 471.598355 170.744976 
L 473.637643 175.652389 
L 475.67693 178.262151 
L 477.716217 179.64862 
L 479.755505 173.695702 
L 481.794792 176.797658 
L 483.834079 171.17305 
L 485.873367 174.116317 
L 487.912654 178.022655 
L 489.951942 172.716167 
L 491.991229 169.229154 
L 494.030516 169.073067 
L 496.069804 173.727012 
L 498.109091 176.223788 
L 498.109091 176.223788 
" clip-path="url(#pf9a379f344)" style="fill: none; stroke: #ff0000; stroke-opacity: 0.9; stroke-width: 1.5; stroke-linecap: square"/>
   </g>
   <g id="line2d_38">
    <path d="M 92.290909 176.437571 
L 94.330196 169.893707 
L 96.369484 163.879338 
L 98.408771 163.972607 
L 100.448058 169.542606 
L 102.487346 166.016319 
L 104.526633 168.467014 
L 106.565921 162.628455 
L 108.605208 164.840634 
L 110.644495 175.423323 
L 112.683783 248.931399 
L 114.72307 161.546593 
L 116.762357 163.723195 
L 118.801645 170.14369 
L 120.840932 161.186605 
L 122.880219 167.978435 
L 124.919507 166.20612 
L 126.958794 180.292065 
L 128.998081 163.732849 
L 131.037369 167.578059 
L 133.076656 174.029309 
L 135.115943 168.077873 
L 137.155231 166.031555 
L 139.194518 165.223759 
L 141.233805 167.691473 
L 143.273093 165.100541 
L 145.31238 161.6381 
L 147.351667 161.24786 
L 149.390955 164.279606 
L 151.430242 162.660263 
L 153.469529 164.320435 
L 155.508817 168.041575 
L 157.548104 163.860277 
L 159.587392 165.407559 
L 161.626679 168.433352 
L 163.665966 168.555953 
L 165.705254 250.178202 
L 167.744541 162.148948 
L 169.783828 168.277261 
L 171.823116 166.977701 
L 173.862403 167.027515 
L 175.90169 172.437509 
L 177.940978 170.998205 
L 179.980265 184.935195 
L 182.019552 169.768339 
L 184.05884 172.828717 
L 186.098127 187.866484 
L 188.137414 173.094106 
L 190.176702 174.282505 
L 192.215989 197.714532 
L 194.255276 192.88003 
L 196.294564 189.885953 
L 198.333851 188.132681 
L 200.373138 171.591325 
L 202.412426 164.806135 
L 204.451713 167.521306 
L 206.491 166.518986 
L 208.530288 174.650815 
L 210.569575 166.108653 
L 212.608862 163.659595 
L 214.64815 168.553328 
L 216.687437 161.498423 
L 218.726725 167.583346 
L 220.766012 166.777999 
L 222.805299 170.001908 
L 224.844587 162.612598 
L 226.883874 177.769957 
L 228.923161 186.882939 
L 230.962449 166.471804 
L 233.001736 171.105487 
L 235.041023 166.229788 
L 237.080311 166.662887 
L 239.119598 168.746431 
L 241.158885 164.980681 
L 243.198173 170.759752 
L 245.23746 162.266602 
L 247.276747 164.434627 
L 249.316035 164.817905 
L 251.355322 169.81281 
L 253.394609 165.675456 
L 255.433897 163.326263 
L 257.473184 169.72131 
L 259.512471 164.075783 
L 261.551759 162.067005 
L 263.591046 164.939754 
L 265.630333 168.181065 
L 267.669621 163.780169 
L 269.708908 165.13989 
L 271.748196 165.185479 
L 273.787483 166.785323 
L 275.82677 162.572419 
L 277.866058 250.993249 
L 279.905345 167.881974 
L 281.944632 164.61295 
L 283.98392 163.310727 
L 286.023207 169.929788 
L 288.062494 171.478565 
L 290.101782 169.667256 
L 292.141069 171.546768 
L 294.180356 167.256258 
L 296.219644 167.841791 
L 298.258931 174.432463 
L 300.298218 169.71956 
L 302.337506 164.469725 
L 304.376793 170.633128 
L 306.41608 164.147837 
L 308.455368 167.812003 
L 310.494655 167.862726 
L 312.533942 163.826282 
L 314.57323 250.846475 
L 316.612517 160.150013 
L 318.651804 162.428174 
L 320.691092 162.250625 
L 322.730379 165.951006 
L 326.808954 164.619411 
L 328.848241 166.972219 
L 330.887529 167.472946 
L 332.926816 163.876624 
L 334.966103 165.352095 
L 337.005391 161.071074 
L 339.044678 163.329942 
L 341.083965 162.954553 
L 343.123253 163.03103 
L 345.16254 165.273891 
L 347.201827 163.692214 
L 349.241115 251.724497 
L 351.280402 162.968757 
L 353.319689 164.075959 
L 355.358977 170.959955 
L 357.398264 167.732669 
L 359.437551 170.749852 
L 361.476839 166.475471 
L 363.516126 166.130929 
L 365.555413 170.161899 
L 367.594701 167.473832 
L 369.633988 170.54253 
L 371.673275 165.825269 
L 373.712563 171.99784 
L 375.75185 175.964668 
L 377.791138 174.015099 
L 379.830425 166.212428 
L 381.869712 178.727221 
L 383.909 170.988854 
L 385.948287 169.845571 
L 387.987574 168.431482 
L 390.026862 172.312927 
L 392.066149 172.186647 
L 394.105436 171.864763 
L 396.144724 248.889014 
L 398.184011 164.650766 
L 400.223298 171.185497 
L 404.301873 170.369864 
L 406.34116 167.470459 
L 408.380448 172.717651 
L 410.419735 166.766965 
L 412.459022 171.936686 
L 414.49831 165.188575 
L 416.537597 167.080507 
L 418.576884 161.046554 
L 420.616172 168.645516 
L 422.655459 167.645084 
L 424.694746 171.685293 
L 426.734034 167.824038 
L 428.773321 172.489017 
L 430.812608 175.808482 
L 432.851896 172.093046 
L 434.891183 173.9272 
L 436.930471 178.419872 
L 438.969758 170.770068 
L 441.009045 178.507955 
L 443.048333 171.898298 
L 445.08762 174.478862 
L 447.126907 175.36935 
L 449.166195 163.732875 
L 451.205482 169.535061 
L 453.244769 173.335198 
L 455.284057 178.550358 
L 457.323344 180.362172 
L 459.362631 173.667336 
L 461.401919 173.044721 
L 463.441206 176.937673 
L 465.480493 174.969983 
L 467.519781 174.949566 
L 469.559068 175.208067 
L 471.598355 170.747631 
L 473.637643 175.659404 
L 475.67693 178.240951 
L 477.716217 179.672755 
L 479.755505 173.700531 
L 481.794792 176.84527 
L 483.834079 171.161497 
L 485.873367 174.143479 
L 487.912654 178.063231 
L 489.951942 172.657304 
L 491.991229 169.292301 
L 494.030516 169.051699 
L 496.069804 173.702247 
L 498.109091 176.259102 
L 498.109091 176.259102 
" clip-path="url(#pf9a379f344)" style="fill: none; stroke: #ff0000; stroke-opacity: 0.9; stroke-width: 1.5; stroke-linecap: square"/>
   </g>
   <g id="line2d_39">
    <path d="M 92.290909 176.489206 
L 94.330196 169.877861 
L 96.369484 163.851984 
L 98.408771 164.004104 
L 100.448058 169.536635 
L 102.487346 166.06979 
L 104.526633 168.406757 
L 106.565921 162.691685 
L 108.605208 164.772226 
L 110.644495 175.478834 
L 112.683783 248.967786 
L 114.72307 161.531708 
L 116.762357 163.653807 
L 118.801645 170.106816 
L 120.840932 161.127653 
L 122.880219 167.972105 
L 124.919507 166.180325 
L 126.958794 180.294392 
L 128.998081 163.685316 
L 131.037369 167.52374 
L 133.076656 173.973027 
L 135.115943 168.064432 
L 137.155231 166.063561 
L 139.194518 165.180951 
L 141.233805 167.672708 
L 143.273093 165.064482 
L 145.31238 161.628311 
L 147.351667 161.227823 
L 149.390955 164.279486 
L 151.430242 162.637728 
L 153.469529 164.341961 
L 155.508817 168.082648 
L 157.548104 163.845127 
L 159.587392 165.430273 
L 161.626679 168.380019 
L 163.665966 168.527974 
L 165.705254 250.220595 
L 167.744541 162.158303 
L 169.783828 168.339227 
L 171.823116 166.940221 
L 173.862403 167.028323 
L 175.90169 172.426674 
L 177.940978 170.98307 
L 179.980265 184.921237 
L 182.019552 169.773876 
L 184.05884 172.794708 
L 186.098127 187.844448 
L 188.137414 173.133604 
L 190.176702 174.267139 
L 192.215989 197.664529 
L 194.255276 192.962369 
L 196.294564 189.837364 
L 198.333851 188.057737 
L 200.373138 171.578668 
L 202.412426 164.881322 
L 204.451713 167.497989 
L 206.491 166.506067 
L 208.530288 174.655227 
L 210.569575 166.135356 
L 212.608862 163.634256 
L 214.64815 168.543502 
L 216.687437 161.495612 
L 218.726725 167.588887 
L 220.766012 166.800919 
L 222.805299 169.956323 
L 224.844587 162.587095 
L 226.883874 177.801086 
L 228.923161 186.874771 
L 230.962449 166.468147 
L 233.001736 171.087559 
L 235.041023 166.26106 
L 237.080311 166.604458 
L 239.119598 168.782747 
L 241.158885 164.96316 
L 243.198173 170.774884 
L 245.23746 162.245574 
L 247.276747 164.494323 
L 249.316035 164.822493 
L 251.355322 169.794874 
L 253.394609 165.694222 
L 255.433897 163.360138 
L 257.473184 169.733353 
L 259.512471 164.122577 
L 261.551759 162.089805 
L 263.591046 164.926843 
L 265.630333 168.180717 
L 267.669621 163.803845 
L 269.708908 165.202503 
L 271.748196 165.145352 
L 273.787483 166.778668 
L 275.82677 162.607345 
L 277.866058 250.970116 
L 279.905345 167.896417 
L 281.944632 164.645067 
L 283.98392 163.390924 
L 286.023207 169.998708 
L 288.062494 171.489505 
L 290.101782 169.672371 
L 292.141069 171.595804 
L 294.180356 167.205195 
L 296.219644 167.870125 
L 298.258931 174.424845 
L 300.298218 169.693919 
L 302.337506 164.462942 
L 304.376793 170.619694 
L 306.41608 164.115813 
L 308.455368 167.80331 
L 310.494655 167.909751 
L 312.533942 163.844988 
L 314.57323 250.914158 
L 316.612517 160.156437 
L 318.651804 162.439746 
L 320.691092 162.220953 
L 322.730379 165.91945 
L 326.808954 164.669655 
L 328.848241 166.974407 
L 330.887529 167.445793 
L 332.926816 163.866599 
L 334.966103 165.374327 
L 337.005391 161.113157 
L 339.044678 163.337521 
L 341.083965 162.977895 
L 343.123253 163.038728 
L 345.16254 165.309964 
L 347.201827 163.689447 
L 349.241115 251.71389 
L 351.280402 162.985037 
L 353.319689 164.104592 
L 355.358977 170.938019 
L 357.398264 167.659868 
L 359.437551 170.830161 
L 361.476839 166.477913 
L 363.516126 166.100277 
L 365.555413 170.155068 
L 367.594701 167.481153 
L 369.633988 170.564578 
L 371.673275 165.822457 
L 373.712563 172.031237 
L 375.75185 175.997771 
L 377.791138 174.019195 
L 379.830425 166.232626 
L 381.869712 178.715854 
L 383.909 170.984352 
L 385.948287 169.857199 
L 387.987574 168.418976 
L 390.026862 172.317186 
L 392.066149 172.164882 
L 394.105436 171.880444 
L 396.144724 248.863522 
L 398.184011 164.60779 
L 400.223298 171.24937 
L 404.301873 170.348193 
L 406.34116 167.469184 
L 408.380448 172.732514 
L 410.419735 166.728031 
L 412.459022 171.910191 
L 414.49831 165.216845 
L 416.537597 167.063506 
L 418.576884 161.038934 
L 420.616172 168.669924 
L 422.655459 167.695661 
L 424.694746 171.660496 
L 426.734034 167.798322 
L 428.773321 172.50173 
L 430.812608 175.836649 
L 432.851896 172.018035 
L 434.891183 173.886542 
L 436.930471 178.382823 
L 438.969758 170.77786 
L 441.009045 178.51501 
L 443.048333 171.946953 
L 445.08762 174.48364 
L 447.126907 175.309096 
L 449.166195 163.768829 
L 451.205482 169.523096 
L 453.244769 173.347488 
L 455.284057 178.519196 
L 457.323344 180.33665 
L 459.362631 173.66651 
L 461.401919 173.064123 
L 463.441206 176.929651 
L 465.480493 174.922526 
L 467.519781 174.910522 
L 469.559068 175.239832 
L 471.598355 170.722546 
L 473.637643 175.671982 
L 475.67693 178.2636 
L 477.716217 179.644657 
L 479.755505 173.697665 
L 481.794792 176.796412 
L 483.834079 171.144384 
L 485.873367 174.100488 
L 487.912654 178.05413 
L 489.951942 172.659125 
L 491.991229 169.2411 
L 494.030516 169.054735 
L 496.069804 173.733478 
L 498.109091 176.255339 
L 498.109091 176.255339 
" clip-path="url(#pf9a379f344)" style="fill: none; stroke: #ff0000; stroke-opacity: 0.9; stroke-width: 1.5; stroke-linecap: square"/>
   </g>
   <g id="line2d_40">
    <path d="M 92.290909 170.521464 
L 94.330196 168.783529 
L 96.369484 165.437448 
L 98.408771 163.37813 
L 100.448058 166.648672 
L 102.487346 164.772749 
L 104.526633 167.371145 
L 106.565921 163.23606 
L 108.605208 164.287166 
L 110.644495 174.255924 
L 112.683783 247.372081 
L 114.72307 161.633467 
L 116.762357 162.844141 
L 118.801645 169.245953 
L 120.840932 160.821536 
L 122.880219 167.475096 
L 124.919507 165.410258 
L 126.958794 179.889372 
L 128.998081 162.916558 
L 131.037369 165.800775 
L 133.076656 173.150403 
L 135.115943 166.809159 
L 139.194518 165.423543 
L 141.233805 167.03358 
L 143.273093 164.400098 
L 145.31238 161.362048 
L 147.351667 161.43826 
L 149.390955 164.024174 
L 151.430242 162.415181 
L 153.469529 163.271659 
L 155.508817 167.366056 
L 157.548104 163.712468 
L 159.587392 165.049526 
L 161.626679 168.141324 
L 163.665966 167.532657 
L 165.705254 247.548003 
L 167.744541 163.404452 
L 169.783828 167.489674 
L 171.823116 165.963865 
L 173.862403 166.376923 
L 175.90169 171.601768 
L 177.940978 170.70854 
L 179.980265 183.279481 
L 182.019552 168.640734 
L 184.05884 172.552355 
L 186.098127 188.264719 
L 188.137414 171.862695 
L 190.176702 173.976072 
L 192.215989 195.558303 
L 198.333851 186.71997 
L 200.373138 172.267801 
L 202.412426 164.425224 
L 204.451713 166.467362 
L 206.491 166.659533 
L 208.530288 173.118959 
L 210.569575 165.802349 
L 212.608862 163.22217 
L 214.64815 166.983821 
L 216.687437 160.784202 
L 218.726725 165.492067 
L 220.766012 166.248632 
L 222.805299 169.625241 
L 224.844587 162.315994 
L 226.883874 177.063322 
L 228.923161 186.04043 
L 230.962449 165.443759 
L 233.001736 170.08881 
L 235.041023 166.78643 
L 237.080311 165.828948 
L 239.119598 168.020293 
L 241.158885 165.195586 
L 243.198173 170.286982 
L 245.23746 161.640074 
L 247.276747 163.603197 
L 249.316035 164.779887 
L 251.355322 168.849854 
L 253.394609 165.171701 
L 255.433897 162.635608 
L 257.473184 168.825932 
L 259.512471 163.291292 
L 261.551759 162.036214 
L 263.591046 164.091573 
L 265.630333 167.444051 
L 267.669621 163.429002 
L 269.708908 164.512211 
L 271.748196 164.467691 
L 273.787483 166.203114 
L 275.82677 162.112897 
L 277.866058 248.111948 
L 279.905345 168.688794 
L 281.944632 164.073293 
L 283.98392 162.423493 
L 286.023207 169.684343 
L 288.062494 170.511122 
L 290.101782 168.744755 
L 292.141069 170.823057 
L 294.180356 166.169224 
L 296.219644 167.532586 
L 298.258931 174.305496 
L 300.298218 168.12682 
L 302.337506 165.691167 
L 304.376793 170.301979 
L 306.41608 163.283335 
L 308.455368 166.752196 
L 310.494655 166.427426 
L 312.533942 162.819154 
L 314.57323 247.915129 
L 316.612517 161.130378 
L 318.651804 161.864487 
L 320.691092 162.305674 
L 322.730379 164.351185 
L 324.769667 164.012322 
L 326.808954 164.154934 
L 328.848241 165.379745 
L 330.887529 166.097051 
L 332.926816 163.803101 
L 334.966103 165.460727 
L 337.005391 161.091635 
L 339.044678 162.545136 
L 341.083965 161.849322 
L 343.123253 162.739656 
L 345.16254 164.174933 
L 347.201827 163.385469 
L 349.241115 248.588951 
L 351.280402 163.855244 
L 353.319689 162.115211 
L 355.358977 170.113562 
L 357.398264 167.264394 
L 359.437551 171.930625 
L 361.476839 167.722675 
L 363.516126 166.876704 
L 365.555413 169.780749 
L 367.594701 166.903546 
L 369.633988 169.662522 
L 371.673275 164.874431 
L 373.712563 170.926776 
L 375.75185 175.982258 
L 377.791138 173.852961 
L 379.830425 165.530017 
L 381.869712 177.566249 
L 383.909 171.333538 
L 385.948287 169.392203 
L 387.987574 167.616294 
L 390.026862 170.955375 
L 394.105436 172.457124 
L 396.144724 248.157384 
L 398.184011 165.743337 
L 400.223298 170.075155 
L 402.262586 170.899119 
L 404.301873 170.528598 
L 406.34116 167.586483 
L 408.380448 172.383421 
L 410.419735 166.405313 
L 412.459022 170.64921 
L 414.49831 164.963209 
L 416.537597 165.87705 
L 418.576884 160.929192 
L 420.616172 168.277336 
L 422.655459 167.023765 
L 424.694746 170.988072 
L 426.734034 167.33776 
L 428.773321 171.524124 
L 430.812608 174.732452 
L 432.851896 171.701138 
L 434.891183 173.297638 
L 436.930471 177.742811 
L 438.969758 170.930406 
L 441.009045 177.662081 
L 443.048333 171.767539 
L 445.08762 173.899733 
L 447.126907 175.207432 
L 449.166195 163.45608 
L 451.205482 168.823872 
L 453.244769 172.225323 
L 455.284057 177.906134 
L 457.323344 179.096747 
L 459.362631 174.20725 
L 461.401919 172.869439 
L 463.441206 175.664999 
L 465.480493 174.842333 
L 467.519781 175.441356 
L 469.559068 175.476174 
L 471.598355 169.119045 
L 473.637643 174.540241 
L 475.67693 177.788983 
L 477.716217 178.054132 
L 479.755505 173.146967 
L 481.794792 176.193156 
L 483.834079 170.027924 
L 487.912654 177.141027 
L 489.951942 172.027217 
L 491.991229 168.769175 
L 494.030516 168.000417 
L 496.069804 173.990955 
L 498.109091 175.483371 
L 498.109091 175.483371 
" clip-path="url(#pf9a379f344)" style="fill: none; stroke: #008000; stroke-opacity: 0.9; stroke-width: 1.5; stroke-linecap: square"/>
   </g>
   <g id="line2d_41">
    <path d="M 438.969758 256.32 
L 438.969758 155.52 
" clip-path="url(#pf9a379f344)" style="fill: none; stroke-dasharray: 5.55,2.4; stroke-dashoffset: 0; stroke: #0000ff; stroke-width: 1.5"/>
   </g>
   <g id="line2d_42">
    <path d="M 153.469529 256.32 
L 153.469529 155.52 
" clip-path="url(#pf9a379f344)" style="fill: none; stroke-dasharray: 5.55,2.4; stroke-dashoffset: 0; stroke: #000000; stroke-width: 1.5"/>
   </g>
   <g id="patch_8">
    <path d="M 72 256.32 
L 72 155.52 
" style="fill: none; stroke: #000000; stroke-width: 0.8; stroke-linejoin: miter; stroke-linecap: square"/>
   </g>
   <g id="patch_9">
    <path d="M 518.4 256.32 
L 518.4 155.52 
" style="fill: none; stroke: #000000; stroke-width: 0.8; stroke-linejoin: miter; stroke-linecap: square"/>
   </g>
   <g id="patch_10">
    <path d="M 72 256.32 
L 518.4 256.32 
" style="fill: none; stroke: #000000; stroke-width: 0.8; stroke-linejoin: miter; stroke-linecap: square"/>
   </g>
   <g id="patch_11">
    <path d="M 72 155.52 
L 518.4 155.52 
" style="fill: none; stroke: #000000; stroke-width: 0.8; stroke-linejoin: miter; stroke-linecap: square"/>
   </g>
  </g>
 </g>
 <defs>
  <clipPath id="p02872d7c3a">
   <rect x="72" y="34.56" width="446.4" height="100.8"/>
  </clipPath>
  <clipPath id="pf9a379f344">
   <rect x="72" y="155.52" width="446.4" height="100.8"/>
  </clipPath>
 </defs>
</svg>
