<?xml version="1.0" encoding="utf-8" standalone="no"?>
<!DOCTYPE svg PUBLIC "-//W3C//DTD SVG 1.1//EN"
  "http://www.w3.org/Graphics/SVG/1.1/DTD/svg11.dtd">
<svg xmlns:xlink="http://www.w3.org/1999/xlink" width="576pt" height="288pt" viewBox="0 0 576 288" xmlns="http://www.w3.org/2000/svg" version="1.1">
 <metadata>
  <rdf:RDF xmlns:dc="http://purl.org/dc/elements/1.1/" xmlns:cc="http://creativecommons.org/ns#" xmlns:rdf="http://www.w3.org/1999/02/22-rdf-syntax-ns#">
   <cc:Work>
    <dc:type rdf:resource="http://purl.org/dc/dcmitype/StillImage"/>
    <dc:date>2025-01-01T00:43:48.510256</dc:date>
    <dc:format>image/svg+xml</dc:format>
    <dc:creator>
     <cc:Agent>
      <dc:title>Matplotlib v3.10.0, https://matplotlib.org/</dc:title>
     </cc:Agent>
    </dc:creator>
   </cc:Work>
  </rdf:RDF>
 </metadata>
 <defs>
  <style type="text/css">*{stroke-linejoin: round; stroke-linecap: butt}</style>
 </defs>
 <g id="figure_1">
  <g id="patch_1">
   <path d="M 0 288 
L 576 288 
L 576 0 
L 0 0 
z
" style="fill: #ffffff"/>
  </g>
  <g id="axes_1">
   <g id="patch_2">
    <path d="M 72 135.36 
L 518.4 135.36 
L 518.4 34.56 
L 72 34.56 
z
" style="fill: #ffffff"/>
   </g>
   <g id="matplotlib.axis_1">
    <g id="xtick_1">
     <g id="line2d_1">
      <defs>
       <path id="ma496848b14" d="M 0 0 
L 0 3.5 
" style="stroke: #000000; stroke-width: 0.8"/>
      </defs>
      <g>
       <use xlink:href="#ma496848b14" x="92.290909" y="135.36" style="stroke: #000000; stroke-width: 0.8"/>
      </g>
     </g>
    </g>
    <g id="xtick_2">
     <g id="line2d_2">
      <g>
       <use xlink:href="#ma496848b14" x="143.273093" y="135.36" style="stroke: #000000; stroke-width: 0.8"/>
      </g>
     </g>
    </g>
    <g id="xtick_3">
     <g id="line2d_3">
      <g>
       <use xlink:href="#ma496848b14" x="194.255276" y="135.36" style="stroke: #000000; stroke-width: 0.8"/>
      </g>
     </g>
    </g>
    <g id="xtick_4">
     <g id="line2d_4">
      <g>
       <use xlink:href="#ma496848b14" x="245.23746" y="135.36" style="stroke: #000000; stroke-width: 0.8"/>
      </g>
     </g>
    </g>
    <g id="xtick_5">
     <g id="line2d_5">
      <g>
       <use xlink:href="#ma496848b14" x="296.219644" y="135.36" style="stroke: #000000; stroke-width: 0.8"/>
      </g>
     </g>
    </g>
    <g id="xtick_6">
     <g id="line2d_6">
      <g>
       <use xlink:href="#ma496848b14" x="347.201827" y="135.36" style="stroke: #000000; stroke-width: 0.8"/>
      </g>
     </g>
    </g>
    <g id="xtick_7">
     <g id="line2d_7">
      <g>
       <use xlink:href="#ma496848b14" x="398.184011" y="135.36" style="stroke: #000000; stroke-width: 0.8"/>
      </g>
     </g>
    </g>
    <g id="xtick_8">
     <g id="line2d_8">
      <g>
       <use xlink:href="#ma496848b14" x="449.166195" y="135.36" style="stroke: #000000; stroke-width: 0.8"/>
      </g>
     </g>
    </g>
    <g id="xtick_9">
     <g id="line2d_9">
      <g>
       <use xlink:href="#ma496848b14" x="500.148378" y="135.36" style="stroke: #000000; stroke-width: 0.8"/>
      </g>
     </g>
    </g>
   </g>
   <g id="matplotlib.axis_2">
    <g id="ytick_1">
     <g id="line2d_10">
      <defs>
       <path id="m417bcc7e95" d="M 0 0 
L -3.5 0 
" style="stroke: #000000; stroke-width: 0.8"/>
      </defs>
      <g>
       <use xlink:href="#m417bcc7e95" x="72" y="116.517239" style="stroke: #000000; stroke-width: 0.8"/>
      </g>
     </g>
     <g id="text_1">
      <!-- −150 -->
      <g transform="translate(37.532812 120.316457) scale(0.1 -0.1)">
       <defs>
        <path id="DejaVuSans-2212" d="M 678 2272 
L 4684 2272 
L 4684 1741 
L 678 1741 
L 678 2272 
z
" transform="scale(0.015625)"/>
        <path id="DejaVuSans-31" d="M 794 531 
L 1825 531 
L 1825 4091 
L 703 3866 
L 703 4441 
L 1819 4666 
L 2450 4666 
L 2450 531 
L 3481 531 
L 3481 0 
L 794 0 
L 794 531 
z
" transform="scale(0.015625)"/>
        <path id="DejaVuSans-35" d="M 691 4666 
L 3169 4666 
L 3169 4134 
L 1269 4134 
L 1269 2991 
Q 1406 3038 1543 3061 
Q 1681 3084 1819 3084 
Q 2600 3084 3056 2656 
Q 3513 2228 3513 1497 
Q 3513 744 3044 326 
Q 2575 -91 1722 -91 
Q 1428 -91 1123 -41 
Q 819 9 494 109 
L 494 744 
Q 775 591 1075 516 
Q 1375 441 1709 441 
Q 2250 441 2565 725 
Q 2881 1009 2881 1497 
Q 2881 1984 2565 2268 
Q 2250 2553 1709 2553 
Q 1456 2553 1204 2497 
Q 953 2441 691 2322 
L 691 4666 
z
" transform="scale(0.015625)"/>
        <path id="DejaVuSans-30" d="M 2034 4250 
Q 1547 4250 1301 3770 
Q 1056 3291 1056 2328 
Q 1056 1369 1301 889 
Q 1547 409 2034 409 
Q 2525 409 2770 889 
Q 3016 1369 3016 2328 
Q 3016 3291 2770 3770 
Q 2525 4250 2034 4250 
z
M 2034 4750 
Q 2819 4750 3233 4129 
Q 3647 3509 3647 2328 
Q 3647 1150 3233 529 
Q 2819 -91 2034 -91 
Q 1250 -91 836 529 
Q 422 1150 422 2328 
Q 422 3509 836 4129 
Q 1250 4750 2034 4750 
z
" transform="scale(0.015625)"/>
       </defs>
       <use xlink:href="#DejaVuSans-2212"/>
       <use xlink:href="#DejaVuSans-31" transform="translate(83.789062 0)"/>
       <use xlink:href="#DejaVuSans-35" transform="translate(147.412109 0)"/>
       <use xlink:href="#DejaVuSans-30" transform="translate(211.035156 0)"/>
      </g>
     </g>
    </g>
    <g id="ytick_2">
     <g id="line2d_11">
      <g>
       <use xlink:href="#m417bcc7e95" x="72" y="77.598124" style="stroke: #000000; stroke-width: 0.8"/>
      </g>
     </g>
     <g id="text_2">
      <!-- −100 -->
      <g transform="translate(37.532812 81.397343) scale(0.1 -0.1)">
       <use xlink:href="#DejaVuSans-2212"/>
       <use xlink:href="#DejaVuSans-31" transform="translate(83.789062 0)"/>
       <use xlink:href="#DejaVuSans-30" transform="translate(147.412109 0)"/>
       <use xlink:href="#DejaVuSans-30" transform="translate(211.035156 0)"/>
      </g>
     </g>
    </g>
    <g id="ytick_3">
     <g id="line2d_12">
      <g>
       <use xlink:href="#m417bcc7e95" x="72" y="38.679009" style="stroke: #000000; stroke-width: 0.8"/>
      </g>
     </g>
     <g id="text_3">
      <!-- −50 -->
      <g transform="translate(43.895313 42.478228) scale(0.1 -0.1)">
       <use xlink:href="#DejaVuSans-2212"/>
       <use xlink:href="#DejaVuSans-35" transform="translate(83.789062 0)"/>
       <use xlink:href="#DejaVuSans-30" transform="translate(147.412109 0)"/>
      </g>
     </g>
    </g>
   </g>
   <g id="line2d_13">
    <path d="M 92.290909 61.566841 
L 94.330196 105.933705 
L 96.369484 130.651108 
L 98.408771 103.97497 
L 100.448058 89.377766 
L 102.487346 107.214171 
L 104.526633 98.212208 
L 106.565921 67.41203 
L 108.605208 115.219931 
L 110.644495 44.822019 
L 112.683783 81.705036 
L 114.72307 123.302061 
L 116.762357 122.564809 
L 118.801645 110.749126 
L 120.840932 67.726467 
L 122.880219 116.173347 
L 124.919507 69.789264 
L 126.958794 66.227829 
L 128.998081 87.723086 
L 131.037369 64.61795 
L 133.076656 52.460335 
L 135.115943 52.45227 
L 137.155231 107.939486 
L 139.194518 107.774405 
L 141.233805 125.354305 
L 143.273093 121.757292 
L 145.31238 119.946237 
L 147.351667 116.127287 
L 149.390955 117.005568 
L 151.430242 109.304993 
L 153.469529 107.230372 
L 155.508817 111.659666 
L 157.548104 127.630375 
L 159.587392 109.378109 
L 161.626679 121.486623 
L 163.665966 98.091933 
L 165.705254 93.689713 
L 167.744541 110.994687 
L 169.783828 47.294136 
L 171.823116 54.626404 
L 173.862403 74.827946 
L 175.90169 47.500348 
L 177.940978 41.873244 
L 179.980265 70.386947 
L 182.019552 66.784874 
L 184.05884 70.833517 
L 186.098127 64.51694 
L 188.137414 56.356896 
L 190.176702 66.54217 
L 192.215989 60.631793 
L 194.255276 48.384514 
L 196.294564 69.023715 
L 198.333851 75.297326 
L 200.373138 96.597577 
L 202.412426 70.75046 
L 204.451713 52.754122 
L 206.491 44.075016 
L 208.530288 76.354299 
L 210.569575 56.557976 
L 212.608862 109.853718 
L 214.64815 108.300279 
L 216.687437 93.175111 
L 218.726725 91.909367 
L 220.766012 109.197872 
L 222.805299 121.644447 
L 224.844587 120.75208 
L 226.883874 67.5772 
L 228.923161 59.305558 
L 230.962449 79.681505 
L 233.001736 73.091129 
L 235.041023 41.202421 
L 237.080311 60.027577 
L 239.119598 52.316027 
L 241.158885 74.561541 
L 243.198173 50.486361 
L 245.23746 84.58237 
L 247.276747 49.57561 
L 249.316035 98.656853 
L 251.355322 74.530482 
L 253.394609 112.392048 
L 255.433897 89.508474 
L 257.473184 68.817765 
L 259.512471 64.3151 
L 261.551759 57.677637 
L 263.591046 69.211012 
L 265.630333 66.544035 
L 267.669621 60.051486 
L 269.708908 49.330035 
L 271.748196 41.672698 
L 273.787483 59.284013 
L 275.82677 49.823258 
L 277.866058 65.916635 
L 279.905345 55.983496 
L 281.944632 77.840686 
L 283.98392 64.621531 
L 286.023207 59.582712 
L 288.062494 53.806737 
L 290.101782 68.394433 
L 292.141069 74.535714 
L 294.180356 53.029691 
L 296.219644 43.384584 
L 298.258931 80.563913 
L 300.298218 56.714993 
L 302.337506 62.890415 
L 304.376793 59.425446 
L 306.41608 44.285714 
L 308.455368 46.689321 
L 310.494655 51.216967 
L 312.533942 57.926725 
L 314.57323 72.601083 
L 316.612517 39.545027 
L 318.651804 55.127401 
L 320.691092 45.579281 
L 322.730379 41.922389 
L 324.769667 55.626272 
L 326.808954 62.541315 
L 328.848241 45.443551 
L 330.887529 44.696759 
L 332.926816 48.937779 
L 334.966103 45.465001 
L 337.005391 55.345175 
L 339.044678 46.586061 
L 341.083965 49.06328 
L 343.123253 51.778953 
L 345.16254 47.550897 
L 347.201827 53.409273 
L 349.241115 53.248046 
L 351.280402 41.51189 
L 353.319689 52.256237 
L 355.358977 54.224908 
L 357.398264 64.632131 
L 359.437551 81.834361 
L 361.476839 49.380759 
L 363.516126 57.089029 
L 365.555413 45.132907 
L 367.594701 68.87531 
L 369.633988 53.031591 
L 371.673275 59.388051 
L 373.712563 52.38131 
L 375.75185 68.237595 
L 377.791138 51.616123 
L 379.830425 91.086671 
L 381.869712 66.596484 
L 383.909 69.641702 
L 385.948287 100.861037 
L 387.987574 72.019203 
L 390.026862 78.45024 
L 392.066149 62.240306 
L 394.105436 63.242454 
L 396.144724 99.213008 
L 398.184011 83.667566 
L 400.223298 83.777175 
L 402.262586 57.326198 
L 404.301873 81.244107 
L 406.34116 72.825384 
L 408.380448 67.852151 
L 410.419735 49.81748 
L 412.459022 68.97196 
L 414.49831 106.719962 
L 416.537597 78.448779 
L 418.576884 115.616011 
L 422.655459 84.092086 
L 424.694746 78.579547 
L 426.734034 65.138627 
L 428.773321 65.942789 
L 430.812608 62.062832 
L 432.851896 59.771298 
L 434.891183 68.677953 
L 436.930471 58.843982 
L 438.969758 59.849639 
L 441.009045 71.094013 
L 443.048333 46.696634 
L 445.08762 61.639992 
L 447.126907 69.750515 
L 449.166195 65.349067 
L 451.205482 55.555704 
L 453.244769 62.80446 
L 455.284057 62.59712 
L 457.323344 55.609121 
L 459.362631 51.890551 
L 461.401919 57.796694 
L 463.441206 60.365269 
L 465.480493 62.388795 
L 467.519781 59.354641 
L 469.559068 52.901672 
L 471.598355 66.906057 
L 473.637643 67.639543 
L 475.67693 71.85063 
L 477.716217 49.534581 
L 479.755505 64.439376 
L 481.794792 59.566992 
L 483.834079 61.749583 
L 485.873367 67.689736 
L 487.912654 66.357783 
L 489.951942 45.493424 
L 491.991229 52.528842 
L 494.030516 42.806323 
L 496.069804 61.671942 
L 498.109091 58.181425 
L 498.109091 58.181425 
" clip-path="url(#p665246f488)" style="fill: none; stroke: #ff0000; stroke-opacity: 0.9; stroke-width: 1.5; stroke-linecap: square"/>
   </g>
   <g id="line2d_14">
    <path d="M 92.290909 61.765302 
L 94.330196 106.026727 
L 96.369484 130.778182 
L 98.408771 103.893124 
L 100.448058 89.468044 
L 102.487346 107.260563 
L 104.526633 98.148184 
L 106.565921 67.340239 
L 108.605208 115.450538 
L 110.644495 44.65948 
L 112.683783 81.575551 
L 114.72307 123.47561 
L 116.762357 122.674459 
L 118.801645 110.818869 
L 120.840932 67.746747 
L 122.880219 116.316467 
L 124.919507 69.704811 
L 126.958794 66.044053 
L 128.998081 87.83539 
L 131.037369 64.593845 
L 133.076656 52.492094 
L 135.115943 52.384143 
L 137.155231 108.11661 
L 139.194518 107.827568 
L 141.233805 125.294361 
L 143.273093 121.760998 
L 145.31238 119.85293 
L 147.351667 116.168228 
L 149.390955 117.275157 
L 151.430242 109.596019 
L 153.469529 107.349511 
L 155.508817 111.782998 
L 157.548104 127.654367 
L 159.587392 109.413502 
L 161.626679 121.649744 
L 163.665966 97.989523 
L 165.705254 93.576833 
L 167.744541 111.218001 
L 169.783828 47.225911 
L 171.823116 54.838815 
L 173.862403 74.782415 
L 175.90169 47.589952 
L 177.940978 41.938325 
L 179.980265 70.437104 
L 182.019552 66.712061 
L 184.05884 70.969041 
L 186.098127 64.598144 
L 188.137414 56.274926 
L 190.176702 66.54913 
L 192.215989 60.464883 
L 194.255276 48.578836 
L 196.294564 68.882549 
L 198.333851 75.277972 
L 200.373138 96.665307 
L 202.412426 70.599406 
L 204.451713 52.899416 
L 206.491 44.347181 
L 208.530288 76.617966 
L 210.569575 56.527131 
L 212.608862 110.07765 
L 214.64815 108.41373 
L 216.687437 93.014217 
L 218.726725 91.976325 
L 220.766012 108.977646 
L 222.805299 121.745059 
L 224.844587 120.991001 
L 226.883874 67.544205 
L 228.923161 59.235037 
L 230.962449 79.542138 
L 233.001736 73.084264 
L 235.041023 41.219394 
L 237.080311 60.072912 
L 239.119598 52.165555 
L 241.158885 74.43616 
L 243.198173 50.448597 
L 245.23746 84.447053 
L 247.276747 49.402411 
L 249.316035 98.786796 
L 251.355322 74.436581 
L 253.394609 112.315452 
L 255.433897 89.499596 
L 257.473184 68.689569 
L 259.512471 64.384914 
L 261.551759 57.553064 
L 263.591046 69.264477 
L 265.630333 66.603058 
L 267.669621 60.05809 
L 269.708908 49.438539 
L 271.748196 41.736312 
L 273.787483 59.179078 
L 275.82677 49.75674 
L 277.866058 66.004538 
L 279.905345 56.013984 
L 281.944632 77.813291 
L 283.98392 64.769912 
L 286.023207 59.53297 
L 288.062494 53.7271 
L 290.101782 68.255577 
L 292.141069 74.630441 
L 294.180356 53.118561 
L 296.219644 43.51308 
L 298.258931 80.519908 
L 300.298218 56.846871 
L 302.337506 62.799923 
L 304.376793 59.32759 
L 306.41608 44.509165 
L 308.455368 46.80181 
L 310.494655 51.280611 
L 312.533942 57.871651 
L 314.57323 72.674175 
L 316.612517 39.581615 
L 318.651804 55.320708 
L 320.691092 45.471736 
L 322.730379 41.98168 
L 324.769667 55.580319 
L 326.808954 62.692553 
L 328.848241 45.559829 
L 330.887529 44.763019 
L 332.926816 49.075964 
L 334.966103 45.566263 
L 337.005391 55.303991 
L 339.044678 46.575027 
L 341.083965 48.905913 
L 343.123253 51.875081 
L 345.16254 47.517902 
L 347.201827 53.420491 
L 349.241115 53.301393 
L 351.280402 41.607403 
L 353.319689 52.19273 
L 355.358977 54.222087 
L 357.398264 64.696737 
L 359.437551 81.929414 
L 361.476839 49.473202 
L 363.516126 56.981861 
L 365.555413 45.190407 
L 367.594701 69.014261 
L 369.633988 53.044133 
L 371.673275 59.376572 
L 373.712563 52.146272 
L 375.75185 68.028467 
L 377.791138 51.631546 
L 379.830425 91.214083 
L 381.869712 66.426789 
L 383.909 69.635348 
L 385.948287 100.899424 
L 387.987574 72.2562 
L 390.026862 78.41408 
L 392.066149 62.156875 
L 394.105436 63.218789 
L 396.144724 99.166182 
L 398.184011 83.451152 
L 400.223298 83.826198 
L 402.262586 57.227873 
L 404.301873 81.196984 
L 406.34116 72.751139 
L 408.380448 67.807861 
L 410.419735 49.902806 
L 412.459022 68.768742 
L 414.49831 106.670648 
L 416.537597 78.493716 
L 418.576884 115.613623 
L 422.655459 84.223097 
L 424.694746 78.635001 
L 426.734034 65.223881 
L 428.773321 65.889169 
L 430.812608 61.864703 
L 432.851896 59.75537 
L 434.891183 68.539851 
L 436.930471 58.925061 
L 438.969758 59.839692 
L 441.009045 70.900065 
L 443.048333 46.659028 
L 445.08762 61.659287 
L 447.126907 69.595975 
L 449.166195 65.631274 
L 451.205482 55.67207 
L 453.244769 62.915333 
L 455.284057 62.376745 
L 457.323344 55.741118 
L 459.362631 51.883229 
L 461.401919 57.938424 
L 463.441206 60.492563 
L 465.480493 62.271121 
L 467.519781 59.363038 
L 469.559068 52.783221 
L 471.598355 66.916746 
L 473.637643 67.856403 
L 475.67693 71.810551 
L 477.716217 49.435985 
L 479.755505 64.445309 
L 481.794792 59.588668 
L 483.834079 61.903802 
L 485.873367 67.713699 
L 487.912654 66.453958 
L 489.951942 45.5055 
L 491.991229 52.575211 
L 494.030516 42.83884 
L 496.069804 61.421874 
L 498.109091 58.003986 
L 498.109091 58.003986 
" clip-path="url(#p665246f488)" style="fill: none; stroke: #ff0000; stroke-opacity: 0.9; stroke-width: 1.5; stroke-linecap: square"/>
   </g>
   <g id="line2d_15">
    <path d="M 92.290909 61.769056 
L 94.330196 106.041051 
L 96.369484 130.739985 
L 98.408771 103.93973 
L 100.448058 89.324253 
L 102.487346 107.400583 
L 104.526633 98.205254 
L 106.565921 67.425944 
L 108.605208 115.204645 
L 110.644495 44.822901 
L 112.683783 81.619526 
L 114.72307 123.392719 
L 116.762357 122.578539 
L 118.801645 110.702959 
L 120.840932 67.654182 
L 122.880219 116.099637 
L 124.919507 69.843679 
L 126.958794 66.146838 
L 128.998081 87.869252 
L 131.037369 64.59473 
L 133.076656 52.580852 
L 135.115943 52.352573 
L 137.155231 107.950176 
L 139.194518 107.775783 
L 141.233805 125.441222 
L 143.273093 121.677026 
L 145.31238 119.885296 
L 147.351667 116.13515 
L 149.390955 117.032791 
L 151.430242 109.317381 
L 153.469529 107.204954 
L 155.508817 111.816753 
L 157.548104 127.648322 
L 159.587392 109.399167 
L 161.626679 121.366046 
L 163.665966 98.086387 
L 165.705254 93.612221 
L 167.744541 111.063776 
L 169.783828 47.335038 
L 171.823116 54.83163 
L 173.862403 74.694067 
L 175.90169 47.613671 
L 177.940978 41.914597 
L 179.980265 70.40256 
L 182.019552 66.907334 
L 184.05884 70.838713 
L 186.098127 64.601244 
L 188.137414 56.22038 
L 190.176702 66.533755 
L 192.215989 60.554615 
L 194.255276 48.406502 
L 196.294564 68.913358 
L 198.333851 75.333783 
L 200.373138 96.657427 
L 202.412426 70.733297 
L 204.451713 52.707944 
L 206.491 44.287113 
L 208.530288 76.33238 
L 210.569575 56.598436 
L 212.608862 109.864467 
L 214.64815 108.347051 
L 216.687437 93.004757 
L 218.726725 91.825829 
L 220.766012 109.097831 
L 222.805299 121.867013 
L 224.844587 120.882871 
L 226.883874 67.476577 
L 228.923161 59.259332 
L 230.962449 79.595668 
L 233.001736 72.998903 
L 235.041023 41.209396 
L 237.080311 60.05578 
L 239.119598 52.188662 
L 241.158885 74.390949 
L 243.198173 50.485232 
L 245.23746 84.399675 
L 247.276747 49.490026 
L 249.316035 98.675019 
L 251.355322 74.455751 
L 253.394609 112.447953 
L 255.433897 89.604792 
L 257.473184 68.82286 
L 259.512471 64.582383 
L 261.551759 57.739209 
L 263.591046 69.218809 
L 265.630333 66.526617 
L 267.669621 60.048986 
L 269.708908 49.417139 
L 271.748196 41.883138 
L 273.787483 59.244652 
L 275.82677 50.001249 
L 277.866058 65.86532 
L 279.905345 56.157122 
L 281.944632 77.81778 
L 283.98392 64.525302 
L 286.023207 59.513052 
L 288.062494 53.709801 
L 290.101782 68.232173 
L 292.141069 74.576774 
L 294.180356 53.108317 
L 296.219644 43.558255 
L 298.258931 80.671823 
L 300.298218 56.635261 
L 302.337506 62.771887 
L 304.376793 59.390462 
L 306.41608 44.503438 
L 308.455368 46.638059 
L 310.494655 51.232152 
L 312.533942 57.986961 
L 314.57323 72.650094 
L 316.612517 39.529249 
L 318.651804 55.137954 
L 320.691092 45.665901 
L 322.730379 42.136991 
L 324.769667 55.631991 
L 326.808954 62.72458 
L 328.848241 45.481425 
L 330.887529 44.796326 
L 332.926816 48.933786 
L 334.966103 45.516017 
L 337.005391 55.247592 
L 339.044678 46.620116 
L 341.083965 49.117825 
L 343.123253 51.835002 
L 345.16254 47.574268 
L 347.201827 53.389973 
L 349.241115 53.243943 
L 351.280402 41.5474 
L 353.319689 52.213747 
L 355.358977 54.256519 
L 357.398264 64.581065 
L 359.437551 81.87928 
L 361.476839 49.503917 
L 363.516126 56.913104 
L 365.555413 45.151818 
L 367.594701 68.907818 
L 369.633988 53.257109 
L 371.673275 59.486299 
L 373.712563 52.067444 
L 375.75185 67.971588 
L 377.791138 51.61218 
L 379.830425 91.040819 
L 381.869712 66.398528 
L 383.909 69.513138 
L 385.948287 100.81626 
L 387.987574 72.13418 
L 390.026862 78.362574 
L 392.066149 62.220644 
L 394.105436 63.0982 
L 396.144724 99.255029 
L 398.184011 83.526192 
L 400.223298 83.758177 
L 402.262586 57.256817 
L 404.301873 81.105007 
L 406.34116 72.794361 
L 408.380448 67.920189 
L 410.419735 49.813673 
L 412.459022 68.940949 
L 414.49831 106.501149 
L 416.537597 78.38371 
L 418.576884 115.520043 
L 422.655459 84.127682 
L 424.694746 78.692522 
L 426.734034 65.22305 
L 428.773321 65.937676 
L 430.812608 62.159322 
L 432.851896 59.90393 
L 434.891183 68.765933 
L 436.930471 58.838304 
L 438.969758 59.925612 
L 441.009045 71.048547 
L 443.048333 46.660186 
L 445.08762 61.689835 
L 447.126907 69.472072 
L 449.166195 65.678931 
L 451.205482 55.795076 
L 453.244769 62.777273 
L 455.284057 62.481353 
L 457.323344 55.572997 
L 459.362631 51.882089 
L 461.401919 57.693208 
L 463.441206 60.451331 
L 465.480493 62.342723 
L 467.519781 59.296745 
L 469.559068 52.896066 
L 471.598355 67.15578 
L 473.637643 67.874973 
L 475.67693 71.773815 
L 477.716217 49.628752 
L 479.755505 64.57477 
L 481.794792 59.680604 
L 483.834079 61.831173 
L 485.873367 67.621181 
L 487.912654 66.335644 
L 489.951942 45.567876 
L 491.991229 52.408319 
L 494.030516 42.833973 
L 496.069804 61.540812 
L 498.109091 57.980131 
L 498.109091 57.980131 
" clip-path="url(#p665246f488)" style="fill: none; stroke: #ff0000; stroke-opacity: 0.9; stroke-width: 1.5; stroke-linecap: square"/>
   </g>
   <g id="line2d_16">
    <path d="M 92.290909 61.575476 
L 94.330196 105.940606 
L 96.369484 130.634753 
L 98.408771 103.951667 
L 100.448058 89.466073 
L 102.487346 107.124392 
L 104.526633 98.219589 
L 106.565921 67.409138 
L 108.605208 115.453092 
L 110.644495 44.778453 
L 112.683783 81.601924 
L 114.72307 123.554902 
L 116.762357 122.582708 
L 118.801645 110.71859 
L 120.840932 67.66714 
L 122.880219 116.218635 
L 124.919507 69.757873 
L 126.958794 66.279459 
L 128.998081 87.755635 
L 131.037369 64.623069 
L 133.076656 52.619423 
L 135.115943 52.524489 
L 137.155231 108.143334 
L 139.194518 107.707276 
L 141.233805 125.502984 
L 143.273093 121.763587 
L 145.31238 119.947282 
L 147.351667 116.066322 
L 149.390955 117.126431 
L 151.430242 109.239395 
L 153.469529 107.312027 
L 155.508817 111.78744 
L 157.548104 127.777747 
L 159.587392 109.336099 
L 161.626679 121.362139 
L 163.665966 98.104856 
L 165.705254 93.655881 
L 167.744541 111.156477 
L 169.783828 47.263508 
L 171.823116 54.790457 
L 173.862403 74.623451 
L 175.90169 47.564419 
L 177.940978 41.927235 
L 179.980265 70.418469 
L 182.019552 66.743156 
L 184.05884 70.870015 
L 186.098127 64.646087 
L 188.137414 56.337685 
L 190.176702 66.447479 
L 192.215989 60.46572 
L 194.255276 48.484184 
L 196.294564 69.03501 
L 198.333851 75.235345 
L 200.373138 96.814092 
L 202.412426 70.715606 
L 204.451713 52.80893 
L 206.491 44.131085 
L 208.530288 76.428935 
L 210.569575 56.528955 
L 212.608862 109.76787 
L 214.64815 108.217531 
L 216.687437 93.019586 
L 218.726725 91.938953 
L 220.766012 109.021603 
L 222.805299 121.712373 
L 224.844587 120.804565 
L 226.883874 67.531699 
L 228.923161 59.257729 
L 230.962449 79.632381 
L 233.001736 73.124712 
L 235.041023 41.134169 
L 237.080311 60.01535 
L 239.119598 52.133095 
L 241.158885 74.536403 
L 243.198173 50.416072 
L 245.23746 84.434321 
L 247.276747 49.519511 
L 249.316035 98.771884 
L 251.355322 74.352782 
L 253.394609 112.259451 
L 255.433897 89.718207 
L 257.473184 68.840504 
L 259.512471 64.281944 
L 261.551759 57.740943 
L 263.591046 69.251483 
L 265.630333 66.547491 
L 267.669621 60.108289 
L 269.708908 49.482484 
L 271.748196 41.815942 
L 273.787483 59.414733 
L 275.82677 49.680643 
L 277.866058 65.883248 
L 279.905345 55.972723 
L 281.944632 77.781698 
L 283.98392 64.524601 
L 286.023207 59.618225 
L 288.062494 53.631816 
L 290.101782 68.401488 
L 292.141069 74.601104 
L 294.180356 53.012184 
L 296.219644 43.716617 
L 298.258931 80.502134 
L 300.298218 56.718479 
L 302.337506 62.853542 
L 304.376793 59.255733 
L 306.41608 44.378107 
L 308.455368 46.834763 
L 310.494655 51.255491 
L 312.533942 57.95972 
L 314.57323 72.683944 
L 316.612517 39.603463 
L 318.651804 55.338844 
L 320.691092 45.430575 
L 322.730379 42.105048 
L 324.769667 55.838291 
L 326.808954 62.827977 
L 328.848241 45.502432 
L 330.887529 44.629294 
L 332.926816 49.029079 
L 334.966103 45.499193 
L 337.005391 55.323285 
L 339.044678 46.624899 
L 343.123253 51.712981 
L 345.16254 47.66767 
L 347.201827 53.477478 
L 349.241115 53.150487 
L 351.280402 41.522472 
L 353.319689 52.06065 
L 355.358977 54.24384 
L 357.398264 64.581997 
L 359.437551 81.812233 
L 361.476839 49.481139 
L 363.516126 56.862163 
L 365.555413 45.354318 
L 367.594701 68.65209 
L 369.633988 53.177057 
L 371.673275 59.364469 
L 373.712563 52.129799 
L 375.75185 68.123336 
L 377.791138 51.545733 
L 379.830425 91.248135 
L 381.869712 66.513433 
L 383.909 69.495072 
L 385.948287 100.939355 
L 387.987574 72.290685 
L 390.026862 78.556909 
L 392.066149 62.028263 
L 394.105436 63.264682 
L 396.144724 99.255065 
L 398.184011 83.479794 
L 400.223298 83.791303 
L 402.262586 57.311298 
L 404.301873 81.23103 
L 406.34116 72.831471 
L 408.380448 67.719726 
L 410.419735 49.847589 
L 412.459022 68.849435 
L 414.49831 106.542481 
L 416.537597 78.394387 
L 418.576884 115.547325 
L 422.655459 84.277792 
L 424.694746 78.611484 
L 426.734034 65.266728 
L 428.773321 65.922247 
L 430.812608 62.079709 
L 432.851896 59.879718 
L 434.891183 68.631151 
L 436.930471 58.69114 
L 438.969758 59.819056 
L 441.009045 70.966713 
L 443.048333 46.624953 
L 445.08762 61.603031 
L 447.126907 69.502062 
L 449.166195 65.558117 
L 451.205482 55.64252 
L 453.244769 62.874226 
L 455.284057 62.473556 
L 457.323344 55.727269 
L 459.362631 51.788354 
L 461.401919 57.748051 
L 463.441206 60.445303 
L 465.480493 62.42815 
L 467.519781 59.192422 
L 469.559068 53.004475 
L 471.598355 66.953025 
L 473.637643 67.757383 
L 475.67693 71.567288 
L 477.716217 49.4348 
L 479.755505 64.433438 
L 481.794792 59.639811 
L 483.834079 62.024332 
L 485.873367 67.799131 
L 487.912654 66.319515 
L 489.951942 45.417451 
L 491.991229 52.524822 
L 494.030516 42.900319 
L 496.069804 61.438894 
L 498.109091 58.066152 
L 498.109091 58.066152 
" clip-path="url(#p665246f488)" style="fill: none; stroke: #ff0000; stroke-opacity: 0.9; stroke-width: 1.5; stroke-linecap: square"/>
   </g>
   <g id="line2d_17">
    <path d="M 92.290909 61.656692 
L 94.330196 105.948552 
L 96.369484 130.770177 
L 98.408771 103.948044 
L 100.448058 89.436344 
L 102.487346 107.158099 
L 104.526633 98.175382 
L 106.565921 67.36992 
L 108.605208 115.325305 
L 110.644495 44.73329 
L 112.683783 81.721533 
L 114.72307 123.394976 
L 116.762357 122.570094 
L 118.801645 110.651223 
L 120.840932 67.521734 
L 122.880219 116.174618 
L 124.919507 69.768663 
L 126.958794 66.120424 
L 128.998081 87.793547 
L 131.037369 64.473678 
L 133.076656 52.439656 
L 135.115943 52.465056 
L 137.155231 108.070503 
L 139.194518 107.75482 
L 141.233805 125.560054 
L 143.273093 121.858307 
L 145.31238 119.938458 
L 147.351667 116.210297 
L 149.390955 117.096548 
L 151.430242 109.432755 
L 153.469529 107.240788 
L 155.508817 111.751916 
L 157.548104 127.533137 
L 159.587392 109.48258 
L 161.626679 121.489189 
L 163.665966 98.140683 
L 165.705254 93.677189 
L 167.744541 111.023893 
L 169.783828 47.301025 
L 171.823116 54.83584 
L 173.862403 74.661131 
L 175.90169 47.73858 
L 177.940978 41.79794 
L 179.980265 70.243667 
L 182.019552 66.875556 
L 184.05884 70.900165 
L 186.098127 64.496482 
L 188.137414 56.360376 
L 190.176702 66.667652 
L 192.215989 60.620391 
L 194.255276 48.408455 
L 196.294564 68.915995 
L 198.333851 75.404179 
L 200.373138 96.586104 
L 202.412426 70.718065 
L 204.451713 52.80931 
L 206.491 44.311238 
L 208.530288 76.328852 
L 210.569575 56.638153 
L 212.608862 109.851212 
L 214.64815 108.289281 
L 216.687437 93.005452 
L 218.726725 91.754495 
L 220.766012 109.0803 
L 222.805299 121.70995 
L 224.844587 120.828426 
L 226.883874 67.464842 
L 228.923161 59.174298 
L 230.962449 79.627196 
L 233.001736 73.228869 
L 235.041023 41.083142 
L 237.080311 60.199208 
L 239.119598 52.246522 
L 241.158885 74.403581 
L 243.198173 50.337682 
L 245.23746 84.372589 
L 247.276747 49.484919 
L 249.316035 98.780328 
L 251.355322 74.620796 
L 253.394609 112.36264 
L 255.433897 89.612542 
L 257.473184 68.785548 
L 259.512471 64.519814 
L 261.551759 57.735847 
L 263.591046 69.253966 
L 265.630333 66.517822 
L 267.669621 60.127102 
L 269.708908 49.396422 
L 271.748196 41.79011 
L 273.787483 59.300605 
L 275.82677 49.939233 
L 277.866058 65.971941 
L 279.905345 56.129329 
L 281.944632 77.81243 
L 283.98392 64.701571 
L 286.023207 59.616936 
L 288.062494 53.797075 
L 290.101782 68.519191 
L 292.141069 74.567515 
L 294.180356 53.00754 
L 296.219644 43.663959 
L 298.258931 80.537433 
L 300.298218 56.711471 
L 302.337506 62.925512 
L 304.376793 59.44325 
L 306.41608 44.329205 
L 308.455368 46.86839 
L 310.494655 51.26811 
L 312.533942 57.88737 
L 314.57323 72.695845 
L 316.612517 39.502382 
L 318.651804 55.32126 
L 320.691092 45.542571 
L 322.730379 41.980691 
L 324.769667 55.648506 
L 326.808954 62.737894 
L 328.848241 45.481861 
L 330.887529 44.796709 
L 332.926816 48.986122 
L 334.966103 45.523966 
L 337.005391 55.224782 
L 339.044678 46.595058 
L 343.123253 51.791365 
L 345.16254 47.53709 
L 347.201827 53.494302 
L 349.241115 53.292194 
L 351.280402 41.603285 
L 353.319689 52.351605 
L 355.358977 54.306522 
L 357.398264 64.560143 
L 359.437551 81.890724 
L 361.476839 49.644079 
L 363.516126 56.953664 
L 365.555413 45.195461 
L 367.594701 68.865832 
L 369.633988 53.088863 
L 371.673275 59.402529 
L 373.712563 52.119062 
L 375.75185 68.129524 
L 377.791138 51.631118 
L 379.830425 91.202865 
L 381.869712 66.472902 
L 383.909 69.65121 
L 385.948287 101.013824 
L 387.987574 72.138408 
L 390.026862 78.274048 
L 392.066149 62.067 
L 394.105436 63.198622 
L 396.144724 99.232279 
L 398.184011 83.521827 
L 400.223298 83.890905 
L 402.262586 57.286956 
L 404.301873 81.376692 
L 406.34116 72.970493 
L 408.380448 67.751195 
L 410.419735 49.99518 
L 412.459022 68.84991 
L 414.49831 106.657381 
L 416.537597 78.584737 
L 418.576884 115.441321 
L 420.616172 100.297892 
L 422.655459 84.230105 
L 424.694746 78.727952 
L 426.734034 65.376824 
L 428.773321 65.988094 
L 430.812608 61.942599 
L 432.851896 59.82674 
L 434.891183 68.80486 
L 436.930471 58.713261 
L 438.969758 59.748559 
L 441.009045 70.991192 
L 443.048333 46.478258 
L 445.08762 61.661116 
L 447.126907 69.564144 
L 449.166195 65.59572 
L 451.205482 55.734318 
L 453.244769 62.822317 
L 455.284057 62.526605 
L 457.323344 55.799566 
L 459.362631 51.93569 
L 461.401919 57.863384 
L 463.441206 60.447899 
L 465.480493 62.282844 
L 467.519781 59.230209 
L 469.559068 52.830605 
L 471.598355 66.956719 
L 473.637643 67.818455 
L 475.67693 71.721484 
L 477.716217 49.492194 
L 479.755505 64.477959 
L 481.794792 59.564872 
L 483.834079 61.872316 
L 485.873367 67.614845 
L 487.912654 66.389828 
L 489.951942 45.528812 
L 491.991229 52.403675 
L 494.030516 42.889259 
L 496.069804 61.395049 
L 498.109091 58.041756 
L 498.109091 58.041756 
" clip-path="url(#p665246f488)" style="fill: none; stroke: #ff0000; stroke-opacity: 0.9; stroke-width: 1.5; stroke-linecap: square"/>
   </g>
   <g id="line2d_18">
    <path d="M 92.290909 112.13088 
L 94.330196 100.639112 
L 96.369484 120.45243 
L 98.408771 100.811129 
L 100.448058 91.458913 
L 102.487346 104.70108 
L 104.526633 98.873707 
L 106.565921 66.416759 
L 108.605208 112.522233 
L 110.644495 46.163768 
L 112.683783 80.828251 
L 114.72307 119.105239 
L 116.762357 121.3152 
L 118.801645 112.518361 
L 120.840932 69.353419 
L 122.880219 112.430019 
L 124.919507 67.855524 
L 126.958794 63.411223 
L 128.998081 85.056809 
L 131.037369 63.283603 
L 133.076656 49.852719 
L 135.115943 52.153868 
L 137.155231 105.02509 
L 139.194518 109.198348 
L 141.233805 125.238574 
L 143.273093 121.281481 
L 145.31238 121.402533 
L 147.351667 113.317481 
L 149.390955 118.110917 
L 151.430242 109.235725 
L 153.469529 107.676716 
L 155.508817 114.555486 
L 157.548104 128.29501 
L 159.587392 109.566136 
L 161.626679 123.679695 
L 163.665966 95.722378 
L 165.705254 94.88094 
L 167.744541 112.854806 
L 169.783828 49.789966 
L 171.823116 54.339659 
L 173.862403 74.708949 
L 175.90169 50.561543 
L 177.940978 43.057484 
L 179.980265 68.609801 
L 182.019552 64.044454 
L 184.05884 70.465728 
L 186.098127 65.624296 
L 188.137414 59.254932 
L 190.176702 68.262222 
L 192.215989 61.248527 
L 194.255276 47.559288 
L 196.294564 68.542197 
L 198.333851 74.533636 
L 200.373138 92.600648 
L 202.412426 70.825001 
L 204.451713 52.219353 
L 206.491 42.30299 
L 208.530288 72.945646 
L 210.569575 57.797223 
L 212.608862 111.538934 
L 214.64815 105.779041 
L 216.687437 93.579238 
L 218.726725 92.190601 
L 220.766012 109.127322 
L 222.805299 120.872609 
L 224.844587 119.952829 
L 226.883874 69.708054 
L 228.923161 58.0396 
L 230.962449 78.866398 
L 233.001736 73.220193 
L 235.041023 43.771058 
L 237.080311 58.873995 
L 239.119598 51.498973 
L 241.158885 73.970931 
L 243.198173 52.016698 
L 245.23746 80.951988 
L 247.276747 50.09132 
L 249.316035 101.806305 
L 251.355322 76.77487 
L 253.394609 110.668076 
L 257.473184 71.759562 
L 259.512471 65.153081 
L 261.551759 56.791802 
L 263.591046 68.415461 
L 265.630333 63.72345 
L 267.669621 60.491084 
L 269.708908 48.364263 
L 271.748196 39.141818 
L 273.787483 61.739345 
L 275.82677 49.450208 
L 277.866058 65.248188 
L 279.905345 53.859834 
L 281.944632 81.606052 
L 283.98392 64.308769 
L 286.023207 62.694857 
L 288.062494 52.812623 
L 290.101782 66.956161 
L 292.141069 74.960703 
L 294.180356 54.012224 
L 296.219644 41.284543 
L 298.258931 78.626984 
L 300.298218 55.122021 
L 302.337506 60.383881 
L 304.376793 57.930099 
L 306.41608 44.589057 
L 308.455368 45.337218 
L 310.494655 56.242162 
L 312.533942 60.616792 
L 314.57323 72.322475 
L 316.612517 40.229535 
L 318.651804 56.472116 
L 320.691092 46.054682 
L 322.730379 42.010119 
L 326.808954 62.60854 
L 328.848241 45.888711 
L 332.926816 47.525328 
L 334.966103 45.786122 
L 337.005391 56.156926 
L 339.044678 40.658506 
L 341.083965 50.019315 
L 343.123253 56.191572 
L 345.16254 48.612286 
L 347.201827 52.473892 
L 349.241115 54.466929 
L 351.280402 41.037427 
L 353.319689 58.30784 
L 355.358977 57.59195 
L 357.398264 64.681783 
L 359.437551 83.067906 
L 361.476839 47.611144 
L 363.516126 55.815386 
L 365.555413 45.726751 
L 367.594701 69.845063 
L 369.633988 52.872775 
L 371.673275 62.209117 
L 373.712563 51.738428 
L 375.75185 68.194112 
L 377.791138 49.869769 
L 379.830425 93.973845 
L 381.869712 66.255705 
L 383.909 72.296909 
L 385.948287 100.002246 
L 387.987574 72.117118 
L 390.026862 80.033182 
L 392.066149 61.968087 
L 394.105436 66.63793 
L 396.144724 100.901633 
L 398.184011 83.374865 
L 400.223298 83.643533 
L 402.262586 58.874298 
L 404.301873 79.895798 
L 406.34116 68.230783 
L 408.380448 69.156371 
L 410.419735 46.893692 
L 412.459022 68.567299 
L 414.49831 105.151617 
L 416.537597 78.447573 
L 418.576884 112.88792 
L 420.616172 105.765857 
L 422.655459 86.080752 
L 424.694746 81.018868 
L 426.734034 61.403126 
L 428.773321 66.04074 
L 430.812608 64.424191 
L 432.851896 63.457906 
L 434.891183 70.933707 
L 436.930471 59.907766 
L 438.969758 59.880829 
L 441.009045 71.010083 
L 443.048333 47.748622 
L 445.08762 60.115367 
L 447.126907 69.464144 
L 449.166195 66.320673 
L 451.205482 56.263927 
L 453.244769 64.194998 
L 455.284057 62.194324 
L 457.323344 52.846741 
L 459.362631 49.707622 
L 461.401919 60.175911 
L 463.441206 60.118135 
L 465.480493 62.309431 
L 467.519781 54.611908 
L 469.559068 55.946231 
L 471.598355 67.756118 
L 473.637643 67.874023 
L 475.67693 70.239124 
L 477.716217 49.935432 
L 479.755505 64.920051 
L 481.794792 57.658949 
L 483.834079 61.427997 
L 485.873367 66.178533 
L 487.912654 66.783164 
L 489.951942 46.376129 
L 491.991229 49.567344 
L 494.030516 43.731505 
L 496.069804 64.2872 
L 498.109091 58.574079 
L 498.109091 58.574079 
" clip-path="url(#p665246f488)" style="fill: none; stroke: #008000; stroke-opacity: 0.9; stroke-width: 1.5; stroke-linecap: square"/>
   </g>
   <g id="line2d_19">
    <path d="M 153.469529 135.36 
L 153.469529 34.56 
" clip-path="url(#p665246f488)" style="fill: none; stroke-dasharray: 5.55,2.4; stroke-dashoffset: 0; stroke: #000000; stroke-width: 1.5"/>
   </g>
   <g id="line2d_20">
    <path d="M 438.969758 135.36 
L 438.969758 34.56 
" clip-path="url(#p665246f488)" style="fill: none; stroke-dasharray: 5.55,2.4; stroke-dashoffset: 0; stroke: #0000ff; stroke-width: 1.5"/>
   </g>
   <g id="patch_3">
    <path d="M 72 135.36 
L 72 34.56 
" style="fill: none; stroke: #000000; stroke-width: 0.8; stroke-linejoin: miter; stroke-linecap: square"/>
   </g>
   <g id="patch_4">
    <path d="M 518.4 135.36 
L 518.4 34.56 
" style="fill: none; stroke: #000000; stroke-width: 0.8; stroke-linejoin: miter; stroke-linecap: square"/>
   </g>
   <g id="patch_5">
    <path d="M 72 135.36 
L 518.4 135.36 
" style="fill: none; stroke: #000000; stroke-width: 0.8; stroke-linejoin: miter; stroke-linecap: square"/>
   </g>
   <g id="patch_6">
    <path d="M 72 34.56 
L 518.4 34.56 
" style="fill: none; stroke: #000000; stroke-width: 0.8; stroke-linejoin: miter; stroke-linecap: square"/>
   </g>
  </g>
  <g id="axes_2">
   <g id="patch_7">
    <path d="M 72 256.32 
L 518.4 256.32 
L 518.4 155.52 
L 72 155.52 
z
" style="fill: #ffffff"/>
   </g>
   <g id="matplotlib.axis_3">
    <g id="xtick_10">
     <g id="line2d_21">
      <g>
       <use xlink:href="#ma496848b14" x="92.290909" y="256.32" style="stroke: #000000; stroke-width: 0.8"/>
      </g>
     </g>
     <g id="text_4">
      <!-- 0 -->
      <g transform="translate(89.109659 270.918437) scale(0.1 -0.1)">
       <use xlink:href="#DejaVuSans-30"/>
      </g>
     </g>
    </g>
    <g id="xtick_11">
     <g id="line2d_22">
      <g>
       <use xlink:href="#ma496848b14" x="143.273093" y="256.32" style="stroke: #000000; stroke-width: 0.8"/>
      </g>
     </g>
     <g id="text_5">
      <!-- 25 -->
      <g transform="translate(136.910593 270.918437) scale(0.1 -0.1)">
       <defs>
        <path id="DejaVuSans-32" d="M 1228 531 
L 3431 531 
L 3431 0 
L 469 0 
L 469 531 
Q 828 903 1448 1529 
Q 2069 2156 2228 2338 
Q 2531 2678 2651 2914 
Q 2772 3150 2772 3378 
Q 2772 3750 2511 3984 
Q 2250 4219 1831 4219 
Q 1534 4219 1204 4116 
Q 875 4013 500 3803 
L 500 4441 
Q 881 4594 1212 4672 
Q 1544 4750 1819 4750 
Q 2544 4750 2975 4387 
Q 3406 4025 3406 3419 
Q 3406 3131 3298 2873 
Q 3191 2616 2906 2266 
Q 2828 2175 2409 1742 
Q 1991 1309 1228 531 
z
" transform="scale(0.015625)"/>
       </defs>
       <use xlink:href="#DejaVuSans-32"/>
       <use xlink:href="#DejaVuSans-35" transform="translate(63.623047 0)"/>
      </g>
     </g>
    </g>
    <g id="xtick_12">
     <g id="line2d_23">
      <g>
       <use xlink:href="#ma496848b14" x="194.255276" y="256.32" style="stroke: #000000; stroke-width: 0.8"/>
      </g>
     </g>
     <g id="text_6">
      <!-- 50 -->
      <g transform="translate(187.892776 270.918437) scale(0.1 -0.1)">
       <use xlink:href="#DejaVuSans-35"/>
       <use xlink:href="#DejaVuSans-30" transform="translate(63.623047 0)"/>
      </g>
     </g>
    </g>
    <g id="xtick_13">
     <g id="line2d_24">
      <g>
       <use xlink:href="#ma496848b14" x="245.23746" y="256.32" style="stroke: #000000; stroke-width: 0.8"/>
      </g>
     </g>
     <g id="text_7">
      <!-- 75 -->
      <g transform="translate(238.87496 270.918437) scale(0.1 -0.1)">
       <defs>
        <path id="DejaVuSans-37" d="M 525 4666 
L 3525 4666 
L 3525 4397 
L 1831 0 
L 1172 0 
L 2766 4134 
L 525 4134 
L 525 4666 
z
" transform="scale(0.015625)"/>
       </defs>
       <use xlink:href="#DejaVuSans-37"/>
       <use xlink:href="#DejaVuSans-35" transform="translate(63.623047 0)"/>
      </g>
     </g>
    </g>
    <g id="xtick_14">
     <g id="line2d_25">
      <g>
       <use xlink:href="#ma496848b14" x="296.219644" y="256.32" style="stroke: #000000; stroke-width: 0.8"/>
      </g>
     </g>
     <g id="text_8">
      <!-- 100 -->
      <g transform="translate(286.675894 270.918437) scale(0.1 -0.1)">
       <use xlink:href="#DejaVuSans-31"/>
       <use xlink:href="#DejaVuSans-30" transform="translate(63.623047 0)"/>
       <use xlink:href="#DejaVuSans-30" transform="translate(127.246094 0)"/>
      </g>
     </g>
    </g>
    <g id="xtick_15">
     <g id="line2d_26">
      <g>
       <use xlink:href="#ma496848b14" x="347.201827" y="256.32" style="stroke: #000000; stroke-width: 0.8"/>
      </g>
     </g>
     <g id="text_9">
      <!-- 125 -->
      <g transform="translate(337.658077 270.918437) scale(0.1 -0.1)">
       <use xlink:href="#DejaVuSans-31"/>
       <use xlink:href="#DejaVuSans-32" transform="translate(63.623047 0)"/>
       <use xlink:href="#DejaVuSans-35" transform="translate(127.246094 0)"/>
      </g>
     </g>
    </g>
    <g id="xtick_16">
     <g id="line2d_27">
      <g>
       <use xlink:href="#ma496848b14" x="398.184011" y="256.32" style="stroke: #000000; stroke-width: 0.8"/>
      </g>
     </g>
     <g id="text_10">
      <!-- 150 -->
      <g transform="translate(388.640261 270.918437) scale(0.1 -0.1)">
       <use xlink:href="#DejaVuSans-31"/>
       <use xlink:href="#DejaVuSans-35" transform="translate(63.623047 0)"/>
       <use xlink:href="#DejaVuSans-30" transform="translate(127.246094 0)"/>
      </g>
     </g>
    </g>
    <g id="xtick_17">
     <g id="line2d_28">
      <g>
       <use xlink:href="#ma496848b14" x="449.166195" y="256.32" style="stroke: #000000; stroke-width: 0.8"/>
      </g>
     </g>
     <g id="text_11">
      <!-- 175 -->
      <g transform="translate(439.622445 270.918437) scale(0.1 -0.1)">
       <use xlink:href="#DejaVuSans-31"/>
       <use xlink:href="#DejaVuSans-37" transform="translate(63.623047 0)"/>
       <use xlink:href="#DejaVuSans-35" transform="translate(127.246094 0)"/>
      </g>
     </g>
    </g>
    <g id="xtick_18">
     <g id="line2d_29">
      <g>
       <use xlink:href="#ma496848b14" x="500.148378" y="256.32" style="stroke: #000000; stroke-width: 0.8"/>
      </g>
     </g>
     <g id="text_12">
      <!-- 200 -->
      <g transform="translate(490.604628 270.918437) scale(0.1 -0.1)">
       <use xlink:href="#DejaVuSans-32"/>
       <use xlink:href="#DejaVuSans-30" transform="translate(63.623047 0)"/>
       <use xlink:href="#DejaVuSans-30" transform="translate(127.246094 0)"/>
      </g>
     </g>
    </g>
   </g>
   <g id="matplotlib.axis_4">
    <g id="ytick_4">
     <g id="line2d_30">
      <g>
       <use xlink:href="#m417bcc7e95" x="72" y="253.58453" style="stroke: #000000; stroke-width: 0.8"/>
      </g>
     </g>
     <g id="text_13">
      <!-- −200 -->
      <g transform="translate(37.532812 257.383749) scale(0.1 -0.1)">
       <use xlink:href="#DejaVuSans-2212"/>
       <use xlink:href="#DejaVuSans-32" transform="translate(83.789062 0)"/>
       <use xlink:href="#DejaVuSans-30" transform="translate(147.412109 0)"/>
       <use xlink:href="#DejaVuSans-30" transform="translate(211.035156 0)"/>
      </g>
     </g>
    </g>
    <g id="ytick_5">
     <g id="line2d_31">
      <g>
       <use xlink:href="#m417bcc7e95" x="72" y="229.08176" style="stroke: #000000; stroke-width: 0.8"/>
      </g>
     </g>
     <g id="text_14">
      <!-- −100 -->
      <g transform="translate(37.532812 232.880979) scale(0.1 -0.1)">
       <use xlink:href="#DejaVuSans-2212"/>
       <use xlink:href="#DejaVuSans-31" transform="translate(83.789062 0)"/>
       <use xlink:href="#DejaVuSans-30" transform="translate(147.412109 0)"/>
       <use xlink:href="#DejaVuSans-30" transform="translate(211.035156 0)"/>
      </g>
     </g>
    </g>
    <g id="ytick_6">
     <g id="line2d_32">
      <g>
       <use xlink:href="#m417bcc7e95" x="72" y="204.57899" style="stroke: #000000; stroke-width: 0.8"/>
      </g>
     </g>
     <g id="text_15">
      <!-- 0 -->
      <g transform="translate(58.6375 208.378208) scale(0.1 -0.1)">
       <use xlink:href="#DejaVuSans-30"/>
      </g>
     </g>
    </g>
    <g id="ytick_7">
     <g id="line2d_33">
      <g>
       <use xlink:href="#m417bcc7e95" x="72" y="180.076219" style="stroke: #000000; stroke-width: 0.8"/>
      </g>
     </g>
     <g id="text_16">
      <!-- 100 -->
      <g transform="translate(45.9125 183.875438) scale(0.1 -0.1)">
       <use xlink:href="#DejaVuSans-31"/>
       <use xlink:href="#DejaVuSans-30" transform="translate(63.623047 0)"/>
       <use xlink:href="#DejaVuSans-30" transform="translate(127.246094 0)"/>
      </g>
     </g>
    </g>
    <g id="ytick_8">
     <g id="line2d_34">
      <g>
       <use xlink:href="#m417bcc7e95" x="72" y="155.573449" style="stroke: #000000; stroke-width: 0.8"/>
      </g>
     </g>
     <g id="text_17">
      <!-- 200 -->
      <g transform="translate(45.9125 159.372668) scale(0.1 -0.1)">
       <use xlink:href="#DejaVuSans-32"/>
       <use xlink:href="#DejaVuSans-30" transform="translate(63.623047 0)"/>
       <use xlink:href="#DejaVuSans-30" transform="translate(127.246094 0)"/>
      </g>
     </g>
    </g>
   </g>
   <g id="line2d_35">
    <path d="M 92.290909 176.476597 
L 94.330196 169.856841 
L 96.369484 163.83003 
L 98.408771 163.99763 
L 100.448058 169.532397 
L 102.487346 166.044488 
L 104.526633 168.463138 
L 106.565921 162.616743 
L 108.605208 164.826004 
L 110.644495 175.469709 
L 112.683783 248.934219 
L 114.72307 161.545424 
L 116.762357 163.647317 
L 118.801645 170.151113 
L 120.840932 161.142143 
L 122.880219 167.981858 
L 124.919507 166.197226 
L 126.958794 180.360978 
L 128.998081 163.668591 
L 131.037369 167.506615 
L 133.076656 173.964198 
L 135.115943 168.096913 
L 137.155231 166.046694 
L 139.194518 165.18003 
L 141.233805 167.701363 
L 143.273093 165.068748 
L 145.31238 161.623573 
L 147.351667 161.196116 
L 149.390955 164.231094 
L 151.430242 162.629646 
L 153.469529 164.363743 
L 155.508817 168.072386 
L 157.548104 163.845299 
L 159.587392 165.425252 
L 161.626679 168.400554 
L 163.665966 168.542969 
L 165.705254 250.198758 
L 167.744541 162.162334 
L 169.783828 168.263761 
L 171.823116 166.955255 
L 173.862403 167.051791 
L 175.90169 172.461603 
L 177.940978 171.003248 
L 179.980265 184.890192 
L 182.019552 169.726192 
L 184.05884 172.814215 
L 186.098127 187.872872 
L 188.137414 173.134248 
L 190.176702 174.300978 
L 192.215989 197.724119 
L 194.255276 192.904074 
L 196.294564 189.910883 
L 198.333851 188.071776 
L 200.373138 171.59261 
L 202.412426 164.833572 
L 204.451713 167.451228 
L 206.491 166.511912 
L 208.530288 174.63617 
L 210.569575 166.070633 
L 212.608862 163.58397 
L 214.64815 168.52134 
L 216.687437 161.508727 
L 218.726725 167.599914 
L 220.766012 166.80228 
L 222.805299 169.933648 
L 224.844587 162.560627 
L 226.883874 177.783484 
L 228.923161 186.830261 
L 230.962449 166.47249 
L 233.001736 171.097777 
L 235.041023 166.24112 
L 237.080311 166.64513 
L 239.119598 168.753047 
L 241.158885 164.939848 
L 243.198173 170.778724 
L 245.23746 162.27227 
L 247.276747 164.449905 
L 249.316035 164.785154 
L 251.355322 169.831346 
L 253.394609 165.683912 
L 255.433897 163.296286 
L 257.473184 169.718408 
L 259.512471 164.086027 
L 261.551759 162.069413 
L 263.591046 164.938603 
L 265.630333 168.185033 
L 267.669621 163.789684 
L 269.708908 165.216454 
L 271.748196 165.205379 
L 273.787483 166.777144 
L 275.82677 162.581968 
L 277.866058 250.955489 
L 279.905345 167.891939 
L 281.944632 164.608113 
L 283.98392 163.364624 
L 286.023207 169.948043 
L 288.062494 171.466944 
L 290.101782 169.676765 
L 292.141069 171.55173 
L 294.180356 167.201808 
L 296.219644 167.894743 
L 298.258931 174.417503 
L 300.298218 169.689346 
L 302.337506 164.495014 
L 304.376793 170.640967 
L 306.41608 164.105495 
L 308.455368 167.80651 
L 310.494655 167.894881 
L 312.533942 163.836984 
L 314.57323 250.929851 
L 316.612517 160.169655 
L 318.651804 162.362683 
L 320.691092 162.236553 
L 322.730379 165.909396 
L 326.808954 164.638813 
L 328.848241 166.95887 
L 330.887529 167.470626 
L 332.926816 163.892285 
L 334.966103 165.390904 
L 337.005391 161.09571 
L 339.044678 163.36855 
L 341.083965 162.946702 
L 343.123253 163.030571 
L 345.16254 165.264157 
L 347.201827 163.661218 
L 349.241115 251.67974 
L 351.280402 162.905067 
L 353.319689 164.038342 
L 355.358977 170.940439 
L 357.398264 167.627133 
L 359.437551 170.787843 
L 361.476839 166.498927 
L 363.516126 166.13527 
L 365.555413 170.160262 
L 367.594701 167.521653 
L 369.633988 170.498734 
L 371.673275 165.830881 
L 373.712563 172.044597 
L 375.75185 175.956011 
L 377.791138 174.047764 
L 379.830425 166.205758 
L 381.869712 178.699687 
L 383.909 170.962379 
L 385.948287 169.826206 
L 387.987574 168.399507 
L 390.026862 172.331757 
L 394.105436 171.905913 
L 396.144724 248.80283 
L 398.184011 164.633025 
L 400.223298 171.224549 
L 402.262586 170.713175 
L 404.301873 170.412741 
L 406.34116 167.496711 
L 408.380448 172.722741 
L 410.419735 166.762499 
L 412.459022 171.966369 
L 414.49831 165.170967 
L 416.537597 167.074415 
L 418.576884 161.060562 
L 420.616172 168.618916 
L 422.655459 167.612248 
L 424.694746 171.635274 
L 426.734034 167.885856 
L 428.773321 172.496165 
L 430.812608 175.772167 
L 432.851896 172.041939 
L 434.891183 173.910808 
L 436.930471 178.388426 
L 438.969758 170.69183 
L 441.009045 178.50314 
L 443.048333 171.895941 
L 445.08762 174.493283 
L 447.126907 175.341062 
L 449.166195 163.76644 
L 451.205482 169.602657 
L 453.244769 173.297696 
L 455.284057 178.534664 
L 457.323344 180.352917 
L 459.362631 173.682225 
L 461.401919 173.030514 
L 463.441206 176.942444 
L 465.480493 174.959881 
L 467.519781 174.934018 
L 469.559068 175.233705 
L 471.598355 170.763268 
L 473.637643 175.714522 
L 475.67693 178.264493 
L 477.716217 179.685916 
L 479.755505 173.691948 
L 481.794792 176.760126 
L 483.834079 171.167603 
L 485.873367 174.145165 
L 487.912654 178.0457 
L 489.951942 172.67829 
L 491.991229 169.216111 
L 494.030516 169.073363 
L 496.069804 173.713979 
L 498.109091 176.245039 
L 498.109091 176.245039 
" clip-path="url(#pe23cb552fe)" style="fill: none; stroke: #ff0000; stroke-opacity: 0.9; stroke-width: 1.5; stroke-linecap: square"/>
   </g>
   <g id="line2d_36">
    <path d="M 92.290909 176.45206 
L 94.330196 169.917769 
L 96.369484 163.848331 
L 98.408771 163.964197 
L 100.448058 169.523028 
L 102.487346 166.00302 
L 104.526633 168.428831 
L 106.565921 162.666638 
L 108.605208 164.775594 
L 110.644495 175.42921 
L 112.683783 248.928663 
L 114.72307 161.53752 
L 116.762357 163.677448 
L 118.801645 170.086181 
L 120.840932 161.162433 
L 122.880219 167.979297 
L 124.919507 166.256595 
L 126.958794 180.303546 
L 128.998081 163.71877 
L 131.037369 167.491286 
L 133.076656 173.994701 
L 135.115943 168.042195 
L 137.155231 166.051655 
L 139.194518 165.222645 
L 141.233805 167.661175 
L 143.273093 165.072124 
L 145.31238 161.6363 
L 147.351667 161.223522 
L 149.390955 164.259318 
L 151.430242 162.610298 
L 153.469529 164.313254 
L 155.508817 168.024069 
L 157.548104 163.845864 
L 159.587392 165.385209 
L 161.626679 168.402061 
L 163.665966 168.588482 
L 165.705254 250.122145 
L 167.744541 162.197662 
L 169.783828 168.27315 
L 171.823116 166.948364 
L 173.862403 166.942281 
L 175.90169 172.42279 
L 177.940978 171.045583 
L 179.980265 184.902289 
L 182.019552 169.76548 
L 184.05884 172.777769 
L 186.098127 187.905923 
L 188.137414 173.079893 
L 190.176702 174.323112 
L 192.215989 197.665772 
L 194.255276 192.927344 
L 196.294564 189.884172 
L 198.333851 188.061724 
L 200.373138 171.611974 
L 202.412426 164.80639 
L 204.451713 167.463709 
L 206.491 166.515924 
L 208.530288 174.666321 
L 210.569575 166.096065 
L 212.608862 163.64034 
L 214.64815 168.524212 
L 216.687437 161.543255 
L 218.726725 167.582028 
L 220.766012 166.780296 
L 222.805299 170.001231 
L 224.844587 162.614952 
L 226.883874 177.804255 
L 228.923161 186.828958 
L 230.962449 166.466063 
L 233.001736 171.12058 
L 235.041023 166.325868 
L 237.080311 166.653834 
L 239.119598 168.733373 
L 241.158885 164.943519 
L 243.198173 170.746648 
L 245.23746 162.310066 
L 247.276747 164.514994 
L 249.316035 164.772603 
L 251.355322 169.784503 
L 253.394609 165.672953 
L 255.433897 163.320768 
L 257.473184 169.738829 
L 259.512471 164.089594 
L 261.551759 162.021036 
L 263.591046 164.948511 
L 265.630333 168.155818 
L 267.669621 163.729941 
L 269.708908 165.193909 
L 271.748196 165.171898 
L 273.787483 166.7847 
L 275.82677 162.597971 
L 277.866058 250.972123 
L 279.905345 167.8831 
L 281.944632 164.624713 
L 283.98392 163.372453 
L 286.023207 169.966217 
L 288.062494 171.477798 
L 290.101782 169.67276 
L 292.141069 171.553465 
L 294.180356 167.278637 
L 296.219644 167.880337 
L 298.258931 174.422156 
L 300.298218 169.706114 
L 302.337506 164.495286 
L 304.376793 170.607198 
L 306.41608 164.163279 
L 308.455368 167.717205 
L 310.494655 167.884502 
L 312.533942 163.823636 
L 314.57323 250.894306 
L 316.612517 160.167042 
L 318.651804 162.427237 
L 320.691092 162.211881 
L 322.730379 165.926752 
L 326.808954 164.599517 
L 328.848241 166.959076 
L 330.887529 167.409103 
L 332.926816 163.880257 
L 334.966103 165.357751 
L 337.005391 161.144509 
L 339.044678 163.333114 
L 341.083965 162.934854 
L 343.123253 163.035006 
L 345.16254 165.311005 
L 347.201827 163.68201 
L 349.241115 251.708092 
L 351.280402 162.942515 
L 353.319689 164.0701 
L 355.358977 170.947214 
L 357.398264 167.678183 
L 359.437551 170.807412 
L 361.476839 166.477171 
L 363.516126 166.043639 
L 365.555413 170.171527 
L 367.594701 167.497781 
L 369.633988 170.500394 
L 371.673275 165.859427 
L 373.712563 172.006502 
L 375.75185 175.94864 
L 377.791138 174.059059 
L 379.830425 166.192257 
L 381.869712 178.765746 
L 383.909 171.018334 
L 385.948287 169.850456 
L 387.987574 168.438619 
L 390.026862 172.301263 
L 394.105436 171.885147 
L 396.144724 248.788147 
L 398.184011 164.628714 
L 400.223298 171.218851 
L 404.301873 170.391172 
L 406.34116 167.477961 
L 408.380448 172.72854 
L 410.419735 166.714276 
L 412.459022 171.968972 
L 414.49831 165.176605 
L 416.537597 167.065729 
L 418.576884 161.089564 
L 420.616172 168.598398 
L 422.655459 167.669748 
L 424.694746 171.678166 
L 426.734034 167.782298 
L 428.773321 172.48453 
L 430.812608 175.769393 
L 432.851896 172.069759 
L 434.891183 173.9021 
L 436.930471 178.360984 
L 438.969758 170.766831 
L 441.009045 178.488164 
L 443.048333 171.938029 
L 445.08762 174.453423 
L 447.126907 175.333343 
L 449.166195 163.749794 
L 451.205482 169.559332 
L 453.244769 173.338055 
L 455.284057 178.530699 
L 457.323344 180.348847 
L 459.362631 173.708189 
L 461.401919 173.069364 
L 463.441206 176.996605 
L 465.480493 174.942544 
L 467.519781 174.941568 
L 469.559068 175.214359 
L 471.598355 170.762879 
L 473.637643 175.680302 
L 475.67693 178.278298 
L 477.716217 179.647021 
L 479.755505 173.728921 
L 481.794792 176.791085 
L 483.834079 171.142022 
L 485.873367 174.157817 
L 487.912654 178.032794 
L 489.951942 172.689814 
L 491.991229 169.272687 
L 494.030516 169.064973 
L 496.069804 173.707642 
L 498.109091 176.253281 
L 498.109091 176.253281 
" clip-path="url(#pe23cb552fe)" style="fill: none; stroke: #ff0000; stroke-opacity: 0.9; stroke-width: 1.5; stroke-linecap: square"/>
   </g>
   <g id="line2d_37">
    <path d="M 92.290909 176.496114 
L 94.330196 169.859556 
L 96.369484 163.814304 
L 98.408771 163.970348 
L 100.448058 169.55243 
L 102.487346 166.038173 
L 104.526633 168.497774 
L 106.565921 162.634394 
L 108.605208 164.730477 
L 110.644495 175.425492 
L 112.683783 248.949978 
L 114.72307 161.521907 
L 116.762357 163.692691 
L 118.801645 170.052618 
L 120.840932 161.149905 
L 122.880219 167.992053 
L 124.919507 166.213247 
L 126.958794 180.275516 
L 128.998081 163.670337 
L 131.037369 167.513454 
L 133.076656 173.9835 
L 135.115943 168.064261 
L 137.155231 166.052332 
L 139.194518 165.185762 
L 141.233805 167.62523 
L 143.273093 165.098505 
L 145.31238 161.655607 
L 147.351667 161.18084 
L 149.390955 164.333597 
L 151.430242 162.674295 
L 153.469529 164.307152 
L 155.508817 168.051557 
L 157.548104 163.887768 
L 159.587392 165.393509 
L 161.626679 168.360436 
L 163.665966 168.499472 
L 165.705254 250.172003 
L 167.744541 162.162536 
L 169.783828 168.296166 
L 171.823116 166.942012 
L 173.862403 167.04376 
L 175.90169 172.45804 
L 177.940978 171.031203 
L 179.980265 184.897309 
L 182.019552 169.742127 
L 184.05884 172.793831 
L 186.098127 187.860229 
L 188.137414 173.111815 
L 190.176702 174.256776 
L 192.215989 197.699382 
L 194.255276 192.906578 
L 196.294564 189.865617 
L 198.333851 188.080362 
L 200.373138 171.582093 
L 202.412426 164.843674 
L 204.451713 167.487854 
L 206.491 166.52652 
L 208.530288 174.644608 
L 210.569575 166.10358 
L 212.608862 163.593949 
L 214.64815 168.516465 
L 216.687437 161.532207 
L 218.726725 167.61014 
L 220.766012 166.769861 
L 222.805299 169.970416 
L 224.844587 162.596819 
L 226.883874 177.80607 
L 228.923161 186.787005 
L 230.962449 166.456017 
L 233.001736 171.032115 
L 235.041023 166.23903 
L 237.080311 166.688848 
L 239.119598 168.793168 
L 241.158885 164.96092 
L 243.198173 170.759181 
L 245.23746 162.303149 
L 247.276747 164.511176 
L 249.316035 164.789547 
L 251.355322 169.771473 
L 253.394609 165.630506 
L 255.433897 163.316749 
L 257.473184 169.76493 
L 259.512471 164.071999 
L 261.551759 162.017548 
L 263.591046 165.005475 
L 265.630333 168.206853 
L 267.669621 163.751032 
L 269.708908 165.189691 
L 271.748196 165.252264 
L 273.787483 166.799555 
L 275.82677 162.560504 
L 277.866058 250.948183 
L 279.905345 167.873686 
L 281.944632 164.616151 
L 283.98392 163.367503 
L 286.023207 169.97513 
L 288.062494 171.465427 
L 290.101782 169.707928 
L 292.141069 171.598779 
L 294.180356 167.192487 
L 296.219644 167.871005 
L 298.258931 174.394834 
L 300.298218 169.68487 
L 302.337506 164.472132 
L 304.376793 170.567054 
L 306.41608 164.117392 
L 308.455368 167.770214 
L 310.494655 167.88368 
L 312.533942 163.878447 
L 314.57323 250.931579 
L 316.612517 160.101818 
L 318.651804 162.448687 
L 320.691092 162.223875 
L 322.730379 165.893013 
L 326.808954 164.664173 
L 328.848241 166.991076 
L 330.887529 167.40268 
L 332.926816 163.914505 
L 334.966103 165.339951 
L 337.005391 161.104657 
L 339.044678 163.348327 
L 341.083965 162.967142 
L 343.123253 163.068487 
L 345.16254 165.30577 
L 347.201827 163.701732 
L 349.241115 251.700479 
L 351.280402 162.897525 
L 353.319689 164.095628 
L 355.358977 170.952426 
L 357.398264 167.665101 
L 359.437551 170.785054 
L 361.476839 166.537228 
L 363.516126 166.086232 
L 365.555413 170.165317 
L 367.594701 167.530634 
L 369.633988 170.495369 
L 371.673275 165.866086 
L 373.712563 172.018115 
L 375.75185 175.938221 
L 377.791138 174.094133 
L 379.830425 166.194848 
L 381.869712 178.708299 
L 383.909 171.001704 
L 385.948287 169.814193 
L 387.987574 168.407228 
L 390.026862 172.305432 
L 392.066149 172.165163 
L 394.105436 171.869306 
L 396.144724 248.853954 
L 398.184011 164.617281 
L 400.223298 171.189972 
L 404.301873 170.354068 
L 406.34116 167.454683 
L 408.380448 172.713536 
L 410.419735 166.746938 
L 412.459022 171.919428 
L 414.49831 165.18602 
L 416.537597 167.027081 
L 418.576884 161.09528 
L 420.616172 168.593242 
L 422.655459 167.654553 
L 424.694746 171.639252 
L 426.734034 167.816179 
L 428.773321 172.49243 
L 430.812608 175.777824 
L 432.851896 172.042324 
L 434.891183 173.937234 
L 436.930471 178.385244 
L 438.969758 170.746544 
L 441.009045 178.478722 
L 443.048333 171.896061 
L 445.08762 174.455291 
L 447.126907 175.378596 
L 449.166195 163.782218 
L 451.205482 169.584408 
L 453.244769 173.300259 
L 455.284057 178.538519 
L 457.323344 180.311401 
L 459.362631 173.652645 
L 461.401919 173.090675 
L 463.441206 176.937299 
L 465.480493 174.955271 
L 467.519781 174.927639 
L 469.559068 175.170268 
L 471.598355 170.746884 
L 473.637643 175.683581 
L 475.67693 178.26557 
L 477.716217 179.670905 
L 479.755505 173.680165 
L 481.794792 176.751538 
L 483.834079 171.149167 
L 485.873367 174.122195 
L 487.912654 178.036142 
L 489.951942 172.666603 
L 491.991229 169.2433 
L 494.030516 169.104915 
L 496.069804 173.75216 
L 498.109091 176.236821 
L 498.109091 176.236821 
" clip-path="url(#pe23cb552fe)" style="fill: none; stroke: #ff0000; stroke-opacity: 0.9; stroke-width: 1.5; stroke-linecap: square"/>
   </g>
   <g id="line2d_38">
    <path d="M 92.290909 176.488268 
L 94.330196 169.873393 
L 96.369484 163.882269 
L 98.408771 164.010634 
L 100.448058 169.560577 
L 102.487346 166.016394 
L 104.526633 168.466402 
L 106.565921 162.617906 
L 108.605208 164.744184 
L 110.644495 175.485175 
L 112.683783 248.914175 
L 114.72307 161.530353 
L 116.762357 163.654286 
L 118.801645 170.087796 
L 120.840932 161.193806 
L 122.880219 167.944507 
L 124.919507 166.197193 
L 126.958794 180.291342 
L 128.998081 163.711412 
L 131.037369 167.528918 
L 133.076656 174.001151 
L 135.115943 168.031853 
L 137.155231 166.067639 
L 139.194518 165.178643 
L 141.233805 167.687874 
L 143.273093 165.09812 
L 145.31238 161.659608 
L 147.351667 161.209879 
L 149.390955 164.243263 
L 151.430242 162.627362 
L 153.469529 164.316032 
L 155.508817 168.033917 
L 157.548104 163.849868 
L 159.587392 165.431616 
L 161.626679 168.393151 
L 163.665966 168.535828 
L 165.705254 250.16436 
L 167.744541 162.156254 
L 169.783828 168.324712 
L 171.823116 166.943799 
L 173.862403 167.011707 
L 175.90169 172.476162 
L 177.940978 171.054103 
L 179.980265 184.950336 
L 182.019552 169.753111 
L 184.05884 172.807418 
L 186.098127 187.909533 
L 188.137414 173.14226 
L 190.176702 174.24103 
L 192.215989 197.655249 
L 194.255276 192.923005 
L 196.294564 189.845291 
L 198.333851 188.119453 
L 200.373138 171.53759 
L 202.412426 164.838873 
L 204.451713 167.475247 
L 206.491 166.503481 
L 208.530288 174.654419 
L 210.569575 166.070813 
L 212.608862 163.618607 
L 214.64815 168.606743 
L 216.687437 161.512193 
L 218.726725 167.546135 
L 220.766012 166.803791 
L 222.805299 169.997915 
L 224.844587 162.560014 
L 226.883874 177.79883 
L 228.923161 186.849557 
L 230.962449 166.439682 
L 233.001736 171.087768 
L 235.041023 166.235258 
L 237.080311 166.691978 
L 239.119598 168.770182 
L 241.158885 164.95493 
L 243.198173 170.759757 
L 245.23746 162.255804 
L 247.276747 164.456178 
L 249.316035 164.791065 
L 251.355322 169.852519 
L 253.394609 165.681033 
L 255.433897 163.328433 
L 257.473184 169.693406 
L 259.512471 164.06694 
L 261.551759 162.064399 
L 263.591046 164.960015 
L 265.630333 168.168272 
L 267.669621 163.75756 
L 269.708908 165.144272 
L 271.748196 165.18009 
L 273.787483 166.757949 
L 275.82677 162.617001 
L 277.866058 250.933097 
L 279.905345 167.894672 
L 281.944632 164.598433 
L 283.98392 163.350439 
L 286.023207 169.941059 
L 288.062494 171.460925 
L 290.101782 169.704159 
L 292.141069 171.574155 
L 294.180356 167.235113 
L 296.219644 167.867988 
L 298.258931 174.431153 
L 300.298218 169.677352 
L 302.337506 164.457046 
L 304.376793 170.57418 
L 306.41608 164.146746 
L 308.455368 167.765772 
L 310.494655 167.869682 
L 312.533942 163.793804 
L 314.57323 250.902117 
L 316.612517 160.120273 
L 318.651804 162.422691 
L 320.691092 162.27393 
L 322.730379 165.915543 
L 324.769667 165.203887 
L 326.808954 164.624422 
L 328.848241 166.979882 
L 330.887529 167.429712 
L 332.926816 163.879431 
L 334.966103 165.346741 
L 337.005391 161.111694 
L 339.044678 163.348375 
L 341.083965 162.951402 
L 343.123253 163.037215 
L 345.16254 165.3042 
L 347.201827 163.707931 
L 349.241115 251.738182 
L 351.280402 162.882159 
L 353.319689 164.119673 
L 355.358977 170.916185 
L 357.398264 167.637467 
L 359.437551 170.729794 
L 361.476839 166.536869 
L 363.516126 166.072488 
L 365.555413 170.178186 
L 367.594701 167.49556 
L 369.633988 170.516449 
L 371.673275 165.827318 
L 373.712563 172.038237 
L 375.75185 175.996947 
L 377.791138 174.029298 
L 379.830425 166.2252 
L 381.869712 178.702012 
L 383.909 170.994607 
L 385.948287 169.841049 
L 387.987574 168.382585 
L 390.026862 172.295939 
L 392.066149 172.169388 
L 394.105436 171.889933 
L 396.144724 248.804475 
L 398.184011 164.603099 
L 400.223298 171.189434 
L 404.301873 170.331119 
L 406.34116 167.524311 
L 408.380448 172.733098 
L 410.419735 166.711004 
L 412.459022 171.938119 
L 414.49831 165.198649 
L 416.537597 167.122922 
L 418.576884 161.032883 
L 420.616172 168.610564 
L 422.655459 167.610989 
L 424.694746 171.660096 
L 426.734034 167.860555 
L 428.773321 172.488653 
L 430.812608 175.80325 
L 432.851896 172.013213 
L 434.891183 173.916251 
L 436.930471 178.363314 
L 438.969758 170.707436 
L 441.009045 178.499923 
L 443.048333 171.926671 
L 445.08762 174.450561 
L 447.126907 175.341273 
L 449.166195 163.753073 
L 451.205482 169.538312 
L 453.244769 173.310068 
L 455.284057 178.516566 
L 457.323344 180.346772 
L 459.362631 173.640047 
L 461.401919 173.038418 
L 463.441206 176.928784 
L 465.480493 174.960879 
L 467.519781 174.959359 
L 469.559068 175.258765 
L 471.598355 170.704396 
L 473.637643 175.679091 
L 475.67693 178.274489 
L 477.716217 179.616331 
L 479.755505 173.690673 
L 481.794792 176.755774 
L 483.834079 171.120976 
L 485.873367 174.097414 
L 487.912654 178.023613 
L 489.951942 172.655618 
L 491.991229 169.291583 
L 494.030516 169.106822 
L 496.069804 173.71219 
L 498.109091 176.201708 
L 498.109091 176.201708 
" clip-path="url(#pe23cb552fe)" style="fill: none; stroke: #ff0000; stroke-opacity: 0.9; stroke-width: 1.5; stroke-linecap: square"/>
   </g>
   <g id="line2d_39">
    <path d="M 92.290909 176.486238 
L 94.330196 169.88458 
L 96.369484 163.818544 
L 98.408771 163.951848 
L 100.448058 169.504173 
L 102.487346 166.051322 
L 104.526633 168.425731 
L 106.565921 162.635135 
L 108.605208 164.760212 
L 110.644495 175.45822 
L 112.683783 248.952203 
L 114.72307 161.513206 
L 116.762357 163.662358 
L 118.801645 170.1059 
L 120.840932 161.105906 
L 122.880219 167.999849 
L 124.919507 166.239168 
L 126.958794 180.336182 
L 128.998081 163.744082 
L 131.037369 167.512384 
L 133.076656 174.004073 
L 135.115943 168.017866 
L 137.155231 166.044233 
L 139.194518 165.168615 
L 141.233805 167.639897 
L 143.273093 165.142821 
L 145.31238 161.673075 
L 147.351667 161.208627 
L 149.390955 164.273989 
L 151.430242 162.606402 
L 153.469529 164.371853 
L 155.508817 168.056279 
L 157.548104 163.88413 
L 159.587392 165.4252 
L 161.626679 168.386844 
L 163.665966 168.533634 
L 165.705254 250.171464 
L 167.744541 162.158629 
L 169.783828 168.294977 
L 171.823116 166.955441 
L 173.862403 167.064122 
L 175.90169 172.42654 
L 177.940978 171.005102 
L 179.980265 184.884017 
L 182.019552 169.761954 
L 184.05884 172.760971 
L 186.098127 187.903555 
L 188.137414 173.0964 
L 190.176702 174.235861 
L 192.215989 197.65924 
L 194.255276 192.913683 
L 196.294564 189.899306 
L 198.333851 188.078315 
L 200.373138 171.573523 
L 202.412426 164.806738 
L 204.451713 167.473934 
L 206.491 166.471185 
L 208.530288 174.660216 
L 210.569575 166.07251 
L 212.608862 163.647059 
L 214.64815 168.579363 
L 216.687437 161.547738 
L 218.726725 167.567274 
L 220.766012 166.82536 
L 222.805299 170.021922 
L 224.844587 162.604622 
L 226.883874 177.779842 
L 228.923161 186.820263 
L 230.962449 166.439311 
L 233.001736 171.134017 
L 235.041023 166.241442 
L 237.080311 166.679329 
L 239.119598 168.775169 
L 241.158885 164.93443 
L 243.198173 170.808784 
L 245.23746 162.313771 
L 247.276747 164.446285 
L 249.316035 164.818119 
L 251.355322 169.813052 
L 253.394609 165.626233 
L 255.433897 163.309159 
L 257.473184 169.703916 
L 259.512471 164.101536 
L 261.551759 162.085669 
L 263.591046 164.936416 
L 265.630333 168.144212 
L 267.669621 163.75495 
L 269.708908 165.207043 
L 271.748196 165.165284 
L 273.787483 166.801877 
L 275.82677 162.568337 
L 277.866058 250.960147 
L 279.905345 167.873933 
L 281.944632 164.613273 
L 283.98392 163.311619 
L 286.023207 169.941503 
L 288.062494 171.476385 
L 290.101782 169.740456 
L 292.141069 171.616135 
L 294.180356 167.275276 
L 296.219644 167.868115 
L 298.258931 174.428141 
L 300.298218 169.671871 
L 302.337506 164.471137 
L 304.376793 170.628012 
L 306.41608 164.144416 
L 308.455368 167.77076 
L 310.494655 167.885082 
L 312.533942 163.868727 
L 314.57323 250.895645 
L 316.612517 160.155582 
L 318.651804 162.428149 
L 320.691092 162.241373 
L 322.730379 165.914433 
L 326.808954 164.674058 
L 328.848241 167.006245 
L 330.887529 167.435492 
L 332.926816 163.883768 
L 334.966103 165.359195 
L 337.005391 161.144543 
L 339.044678 163.32346 
L 341.083965 162.93918 
L 343.123253 163.049669 
L 345.16254 165.271684 
L 347.201827 163.657472 
L 349.241115 251.710941 
L 351.280402 162.915374 
L 353.319689 164.043064 
L 355.358977 170.942638 
L 357.398264 167.6599 
L 359.437551 170.7892 
L 361.476839 166.507081 
L 363.516126 166.092277 
L 365.555413 170.16608 
L 367.594701 167.485379 
L 369.633988 170.482242 
L 371.673275 165.823871 
L 373.712563 172.05778 
L 375.75185 175.965515 
L 377.791138 174.033682 
L 379.830425 166.22142 
L 381.869712 178.724251 
L 383.909 170.96872 
L 385.948287 169.885122 
L 387.987574 168.403571 
L 390.026862 172.320339 
L 392.066149 172.191895 
L 394.105436 171.823412 
L 396.144724 248.757743 
L 398.184011 164.627177 
L 400.223298 171.193599 
L 404.301873 170.410371 
L 406.34116 167.506937 
L 408.380448 172.807377 
L 410.419735 166.724868 
L 412.459022 171.942703 
L 414.49831 165.209604 
L 416.537597 167.107167 
L 418.576884 161.052175 
L 420.616172 168.570768 
L 422.655459 167.672186 
L 424.694746 171.611764 
L 426.734034 167.813547 
L 428.773321 172.525417 
L 430.812608 175.764125 
L 432.851896 172.06651 
L 434.891183 173.902633 
L 436.930471 178.381772 
L 438.969758 170.7143 
L 441.009045 178.480139 
L 443.048333 171.943787 
L 445.08762 174.512224 
L 447.126907 175.326634 
L 449.166195 163.740436 
L 451.205482 169.560566 
L 453.244769 173.34775 
L 455.284057 178.52774 
L 457.323344 180.373419 
L 459.362631 173.686272 
L 461.401919 173.019032 
L 463.441206 176.966913 
L 465.480493 174.945509 
L 467.519781 174.947292 
L 469.559068 175.231896 
L 471.598355 170.772573 
L 473.637643 175.661388 
L 475.67693 178.264347 
L 477.716217 179.653209 
L 479.755505 173.708098 
L 481.794792 176.790427 
L 483.834079 171.130611 
L 485.873367 174.138306 
L 487.912654 178.019923 
L 489.951942 172.710485 
L 491.991229 169.277686 
L 494.030516 169.074638 
L 496.069804 173.699188 
L 498.109091 176.211872 
L 498.109091 176.211872 
" clip-path="url(#pe23cb552fe)" style="fill: none; stroke: #ff0000; stroke-opacity: 0.9; stroke-width: 1.5; stroke-linecap: square"/>
   </g>
   <g id="line2d_40">
    <path d="M 92.290909 170.516483 
L 94.330196 168.778613 
L 96.369484 165.432659 
L 98.408771 163.373418 
L 100.448058 166.643836 
L 102.487346 164.767985 
L 104.526633 167.366282 
L 106.565921 163.231354 
L 108.605208 164.28242 
L 110.644495 174.250801 
L 112.683783 247.364193 
L 114.72307 161.628822 
L 116.762357 162.83945 
L 118.801645 169.241019 
L 120.840932 160.816921 
L 122.880219 167.470229 
L 124.919507 165.40547 
L 126.958794 179.884036 
L 128.998081 162.911864 
L 131.037369 165.795972 
L 133.076656 173.145322 
L 135.115943 166.804318 
L 139.194518 165.418754 
L 141.233805 167.02873 
L 143.273093 164.395348 
L 145.31238 161.357413 
L 147.351667 161.433622 
L 149.390955 164.019439 
L 151.430242 162.410506 
L 153.469529 163.266951 
L 155.508817 167.361194 
L 157.548104 163.707744 
L 159.587392 165.044752 
L 161.626679 168.136432 
L 163.665966 167.527788 
L 165.705254 247.540108 
L 167.744541 163.399739 
L 169.783828 167.484807 
L 171.823116 165.959056 
L 173.862403 166.372099 
L 175.90169 171.596745 
L 177.940978 170.703551 
L 179.980265 183.274017 
L 182.019552 168.635823 
L 184.05884 172.547297 
L 186.098127 188.259066 
L 188.137414 171.857663 
L 190.176702 173.97096 
L 192.215989 195.552375 
L 198.333851 186.714376 
L 200.373138 172.262754 
L 202.412426 164.420473 
L 204.451713 166.462533 
L 206.491 166.654698 
L 208.530288 173.113879 
L 210.569575 165.797546 
L 212.608862 163.217464 
L 214.64815 166.978974 
L 216.687437 160.779589 
L 218.726725 165.487276 
L 220.766012 166.243812 
L 222.805299 169.620293 
L 224.844587 162.311322 
L 226.883874 177.058093 
L 228.923161 186.034861 
L 230.962449 165.43897 
L 233.001736 170.083844 
L 235.041023 166.78159 
L 237.080311 165.824144 
L 239.119598 168.015406 
L 241.158885 165.190805 
L 243.198173 170.28201 
L 245.23746 161.635429 
L 247.276747 163.598477 
L 249.316035 164.775123 
L 251.355322 168.844936 
L 253.394609 165.166922 
L 255.433897 162.630925 
L 257.473184 168.821015 
L 259.512471 163.286584 
L 261.551759 162.031553 
L 263.591046 164.086835 
L 265.630333 167.439186 
L 267.669621 163.424289 
L 269.708908 164.507456 
L 271.748196 164.462938 
L 273.787483 166.198296 
L 275.82677 162.108233 
L 277.866058 248.104032 
L 279.905345 168.683882 
L 281.944632 164.068556 
L 283.98392 162.418817 
L 286.023207 169.679393 
L 288.062494 170.506141 
L 290.101782 168.739841 
L 292.141069 170.818064 
L 294.180356 166.164407 
L 296.219644 167.527717 
L 298.258931 174.300371 
L 300.298218 168.121929 
L 302.337506 165.686368 
L 304.376793 170.297006 
L 306.41608 163.278628 
L 308.455368 166.747357 
L 310.494655 166.422599 
L 312.533942 162.814464 
L 314.57323 247.90722 
L 316.612517 161.125752 
L 318.651804 161.859833 
L 320.691092 162.301003 
L 322.730379 164.346436 
L 324.769667 164.007587 
L 326.808954 164.150193 
L 328.848241 165.374957 
L 330.887529 166.092236 
L 332.926816 163.798373 
L 334.966103 165.455937 
L 337.005391 161.08701 
L 339.044678 162.540456 
L 341.083965 161.844668 
L 343.123253 162.734969 
L 345.16254 164.170192 
L 347.201827 163.380757 
L 349.241115 248.581016 
L 351.280402 163.850515 
L 353.319689 162.110547 
L 355.358977 170.108595 
L 357.398264 167.259535 
L 359.437551 171.92559 
L 361.476839 167.717799 
L 363.516126 166.87186 
L 365.555413 169.775795 
L 367.594701 166.898701 
L 369.633988 169.657573 
L 371.673275 164.869663 
L 373.712563 170.921779 
L 375.75185 175.97707 
L 377.791138 173.847853 
L 379.830425 165.525225 
L 381.869712 177.561001 
L 383.909 171.328526 
L 385.948287 169.387264 
L 387.987574 167.611422 
L 390.026862 170.950377 
L 394.105436 172.452069 
L 396.144724 248.149466 
L 398.184011 165.738536 
L 400.223298 170.07019 
L 402.262586 170.894123 
L 404.301873 170.523616 
L 406.34116 167.581613 
L 408.380448 172.378369 
L 410.419735 166.400488 
L 412.459022 170.644223 
L 414.49831 164.958437 
L 416.537597 165.872244 
L 418.576884 160.924573 
L 420.616172 168.272439 
L 422.655459 167.018916 
L 424.694746 170.983073 
L 426.734034 167.332898 
L 428.773321 171.519105 
L 430.812608 174.727311 
L 432.851896 171.696112 
L 434.891183 173.292552 
L 436.930471 177.737556 
L 438.969758 170.925409 
L 441.009045 177.656829 
L 443.048333 171.76251 
L 445.08762 173.894624 
L 447.126907 175.202273 
L 449.166195 163.451365 
L 451.205482 168.818955 
L 453.244769 172.220277 
L 455.284057 177.900873 
L 457.323344 179.091441 
L 459.362631 174.202129 
L 461.401919 172.864368 
L 463.441206 175.659823 
L 465.480493 174.837188 
L 467.519781 175.436189 
L 469.559068 175.471005 
L 471.598355 169.114116 
L 473.637643 174.535107 
L 475.67693 177.783727 
L 477.716217 178.048865 
L 479.755505 173.141886 
L 481.794792 176.18796 
L 483.834079 170.022961 
L 487.912654 177.135795 
L 489.951942 172.022179 
L 491.991229 168.764259 
L 494.030516 167.995531 
L 496.069804 173.985842 
L 498.109091 175.478202 
L 498.109091 175.478202 
" clip-path="url(#pe23cb552fe)" style="fill: none; stroke: #008000; stroke-opacity: 0.9; stroke-width: 1.5; stroke-linecap: square"/>
   </g>
   <g id="line2d_41">
    <path d="M 438.969758 256.32 
L 438.969758 155.52 
" clip-path="url(#pe23cb552fe)" style="fill: none; stroke-dasharray: 5.55,2.4; stroke-dashoffset: 0; stroke: #0000ff; stroke-width: 1.5"/>
   </g>
   <g id="line2d_42">
    <path d="M 153.469529 256.32 
L 153.469529 155.52 
" clip-path="url(#pe23cb552fe)" style="fill: none; stroke-dasharray: 5.55,2.4; stroke-dashoffset: 0; stroke: #000000; stroke-width: 1.5"/>
   </g>
   <g id="patch_8">
    <path d="M 72 256.32 
L 72 155.52 
" style="fill: none; stroke: #000000; stroke-width: 0.8; stroke-linejoin: miter; stroke-linecap: square"/>
   </g>
   <g id="patch_9">
    <path d="M 518.4 256.32 
L 518.4 155.52 
" style="fill: none; stroke: #000000; stroke-width: 0.8; stroke-linejoin: miter; stroke-linecap: square"/>
   </g>
   <g id="patch_10">
    <path d="M 72 256.32 
L 518.4 256.32 
" style="fill: none; stroke: #000000; stroke-width: 0.8; stroke-linejoin: miter; stroke-linecap: square"/>
   </g>
   <g id="patch_11">
    <path d="M 72 155.52 
L 518.4 155.52 
" style="fill: none; stroke: #000000; stroke-width: 0.8; stroke-linejoin: miter; stroke-linecap: square"/>
   </g>
  </g>
 </g>
 <defs>
  <clipPath id="p665246f488">
   <rect x="72" y="34.56" width="446.4" height="100.8"/>
  </clipPath>
  <clipPath id="pe23cb552fe">
   <rect x="72" y="155.52" width="446.4" height="100.8"/>
  </clipPath>
 </defs>
</svg>
