<?xml version="1.0" encoding="utf-8" standalone="no"?>
<!DOCTYPE svg PUBLIC "-//W3C//DTD SVG 1.1//EN"
  "http://www.w3.org/Graphics/SVG/1.1/DTD/svg11.dtd">
<svg xmlns:xlink="http://www.w3.org/1999/xlink" width="576pt" height="288pt" viewBox="0 0 576 288" xmlns="http://www.w3.org/2000/svg" version="1.1">
 <metadata>
  <rdf:RDF xmlns:dc="http://purl.org/dc/elements/1.1/" xmlns:cc="http://creativecommons.org/ns#" xmlns:rdf="http://www.w3.org/1999/02/22-rdf-syntax-ns#">
   <cc:Work>
    <dc:type rdf:resource="http://purl.org/dc/dcmitype/StillImage"/>
    <dc:date>2025-05-07T09:55:03.280896</dc:date>
    <dc:format>image/svg+xml</dc:format>
    <dc:creator>
     <cc:Agent>
      <dc:title>Matplotlib v3.10.0, https://matplotlib.org/</dc:title>
     </cc:Agent>
    </dc:creator>
   </cc:Work>
  </rdf:RDF>
 </metadata>
 <defs>
  <style type="text/css">*{stroke-linejoin: round; stroke-linecap: butt}</style>
 </defs>
 <g id="figure_1">
  <g id="patch_1">
   <path d="M 0 288 
L 576 288 
L 576 0 
L 0 0 
z
" style="fill: #ffffff"/>
  </g>
  <g id="axes_1">
   <g id="patch_2">
    <path d="M 72 135.36 
L 518.4 135.36 
L 518.4 34.56 
L 72 34.56 
z
" style="fill: #ffffff"/>
   </g>
   <g id="matplotlib.axis_1">
    <g id="xtick_1">
     <g id="line2d_1">
      <defs>
       <path id="mfc12981675" d="M 0 0 
L 0 3.5 
" style="stroke: #000000; stroke-width: 0.8"/>
      </defs>
      <g>
       <use xlink:href="#mfc12981675" x="92.290909" y="135.36" style="stroke: #000000; stroke-width: 0.8"/>
      </g>
     </g>
    </g>
    <g id="xtick_2">
     <g id="line2d_2">
      <g>
       <use xlink:href="#mfc12981675" x="143.273093" y="135.36" style="stroke: #000000; stroke-width: 0.8"/>
      </g>
     </g>
    </g>
    <g id="xtick_3">
     <g id="line2d_3">
      <g>
       <use xlink:href="#mfc12981675" x="194.255276" y="135.36" style="stroke: #000000; stroke-width: 0.8"/>
      </g>
     </g>
    </g>
    <g id="xtick_4">
     <g id="line2d_4">
      <g>
       <use xlink:href="#mfc12981675" x="245.23746" y="135.36" style="stroke: #000000; stroke-width: 0.8"/>
      </g>
     </g>
    </g>
    <g id="xtick_5">
     <g id="line2d_5">
      <g>
       <use xlink:href="#mfc12981675" x="296.219644" y="135.36" style="stroke: #000000; stroke-width: 0.8"/>
      </g>
     </g>
    </g>
    <g id="xtick_6">
     <g id="line2d_6">
      <g>
       <use xlink:href="#mfc12981675" x="347.201827" y="135.36" style="stroke: #000000; stroke-width: 0.8"/>
      </g>
     </g>
    </g>
    <g id="xtick_7">
     <g id="line2d_7">
      <g>
       <use xlink:href="#mfc12981675" x="398.184011" y="135.36" style="stroke: #000000; stroke-width: 0.8"/>
      </g>
     </g>
    </g>
    <g id="xtick_8">
     <g id="line2d_8">
      <g>
       <use xlink:href="#mfc12981675" x="449.166195" y="135.36" style="stroke: #000000; stroke-width: 0.8"/>
      </g>
     </g>
    </g>
    <g id="xtick_9">
     <g id="line2d_9">
      <g>
       <use xlink:href="#mfc12981675" x="500.148378" y="135.36" style="stroke: #000000; stroke-width: 0.8"/>
      </g>
     </g>
    </g>
   </g>
   <g id="matplotlib.axis_2">
    <g id="ytick_1">
     <g id="line2d_10">
      <defs>
       <path id="md215f2c4c0" d="M 0 0 
L -3.5 0 
" style="stroke: #000000; stroke-width: 0.8"/>
      </defs>
      <g>
       <use xlink:href="#md215f2c4c0" x="72" y="113.593189" style="stroke: #000000; stroke-width: 0.8"/>
      </g>
     </g>
     <g id="text_1">
      <!-- −150 -->
      <g transform="translate(37.532812 117.392408) scale(0.1 -0.1)">
       <defs>
        <path id="DejaVuSans-2212" d="M 678 2272 
L 4684 2272 
L 4684 1741 
L 678 1741 
L 678 2272 
z
" transform="scale(0.015625)"/>
        <path id="DejaVuSans-31" d="M 794 531 
L 1825 531 
L 1825 4091 
L 703 3866 
L 703 4441 
L 1819 4666 
L 2450 4666 
L 2450 531 
L 3481 531 
L 3481 0 
L 794 0 
L 794 531 
z
" transform="scale(0.015625)"/>
        <path id="DejaVuSans-35" d="M 691 4666 
L 3169 4666 
L 3169 4134 
L 1269 4134 
L 1269 2991 
Q 1406 3038 1543 3061 
Q 1681 3084 1819 3084 
Q 2600 3084 3056 2656 
Q 3513 2228 3513 1497 
Q 3513 744 3044 326 
Q 2575 -91 1722 -91 
Q 1428 -91 1123 -41 
Q 819 9 494 109 
L 494 744 
Q 775 591 1075 516 
Q 1375 441 1709 441 
Q 2250 441 2565 725 
Q 2881 1009 2881 1497 
Q 2881 1984 2565 2268 
Q 2250 2553 1709 2553 
Q 1456 2553 1204 2497 
Q 953 2441 691 2322 
L 691 4666 
z
" transform="scale(0.015625)"/>
        <path id="DejaVuSans-30" d="M 2034 4250 
Q 1547 4250 1301 3770 
Q 1056 3291 1056 2328 
Q 1056 1369 1301 889 
Q 1547 409 2034 409 
Q 2525 409 2770 889 
Q 3016 1369 3016 2328 
Q 3016 3291 2770 3770 
Q 2525 4250 2034 4250 
z
M 2034 4750 
Q 2819 4750 3233 4129 
Q 3647 3509 3647 2328 
Q 3647 1150 3233 529 
Q 2819 -91 2034 -91 
Q 1250 -91 836 529 
Q 422 1150 422 2328 
Q 422 3509 836 4129 
Q 1250 4750 2034 4750 
z
" transform="scale(0.015625)"/>
       </defs>
       <use xlink:href="#DejaVuSans-2212"/>
       <use xlink:href="#DejaVuSans-31" transform="translate(83.789062 0)"/>
       <use xlink:href="#DejaVuSans-35" transform="translate(147.412109 0)"/>
       <use xlink:href="#DejaVuSans-30" transform="translate(211.035156 0)"/>
      </g>
     </g>
    </g>
    <g id="ytick_2">
     <g id="line2d_11">
      <g>
       <use xlink:href="#md215f2c4c0" x="72" y="76.383464" style="stroke: #000000; stroke-width: 0.8"/>
      </g>
     </g>
     <g id="text_2">
      <!-- −100 -->
      <g transform="translate(37.532812 80.182683) scale(0.1 -0.1)">
       <use xlink:href="#DejaVuSans-2212"/>
       <use xlink:href="#DejaVuSans-31" transform="translate(83.789062 0)"/>
       <use xlink:href="#DejaVuSans-30" transform="translate(147.412109 0)"/>
       <use xlink:href="#DejaVuSans-30" transform="translate(211.035156 0)"/>
      </g>
     </g>
    </g>
    <g id="ytick_3">
     <g id="line2d_12">
      <g>
       <use xlink:href="#md215f2c4c0" x="72" y="39.173739" style="stroke: #000000; stroke-width: 0.8"/>
      </g>
     </g>
     <g id="text_3">
      <!-- −50 -->
      <g transform="translate(43.895313 42.972957) scale(0.1 -0.1)">
       <use xlink:href="#DejaVuSans-2212"/>
       <use xlink:href="#DejaVuSans-35" transform="translate(83.789062 0)"/>
       <use xlink:href="#DejaVuSans-30" transform="translate(147.412109 0)"/>
      </g>
     </g>
    </g>
   </g>
   <g id="line2d_13">
    <path d="M 92.290909 62.63174 
L 94.330196 101.53447 
L 96.369484 126.204172 
L 98.408771 103.934763 
L 100.448058 87.004729 
L 102.487346 104.780578 
L 104.526633 99.468301 
L 106.565921 66.323552 
L 108.605208 112.792683 
L 110.644495 45.559919 
L 112.683783 79.397494 
L 114.72307 123.661606 
L 116.762357 118.727877 
L 118.801645 108.766758 
L 120.840932 65.094773 
L 122.880219 114.413931 
L 124.919507 69.94961 
L 126.958794 65.174233 
L 128.998081 87.997927 
L 131.037369 61.983046 
L 133.076656 51.976613 
L 135.115943 55.2308 
L 137.155231 107.604079 
L 139.194518 109.002839 
L 141.233805 122.807297 
L 143.273093 118.546927 
L 145.31238 117.523568 
L 147.351667 113.174705 
L 149.390955 111.857136 
L 151.430242 107.315967 
L 153.469529 103.727309 
L 155.508817 108.781407 
L 157.548104 126.650603 
L 159.587392 106.363013 
L 161.626679 117.158057 
L 163.665966 96.565112 
L 165.705254 94.15519 
L 167.744541 108.230789 
L 169.783828 47.214965 
L 171.823116 54.569506 
L 173.862403 75.595517 
L 175.90169 47.833593 
L 177.940978 47.519 
L 179.980265 66.396886 
L 182.019552 68.191459 
L 184.05884 70.706136 
L 188.137414 56.308954 
L 190.176702 65.871881 
L 192.215989 60.137327 
L 194.255276 50.950648 
L 196.294564 67.969726 
L 198.333851 72.989377 
L 200.373138 96.005195 
L 202.412426 71.682 
L 204.451713 54.122934 
L 206.491 43.025876 
L 208.530288 79.842147 
L 210.569575 55.783399 
L 212.608862 109.756811 
L 214.64815 106.600502 
L 216.687437 89.174835 
L 218.726725 93.552252 
L 220.766012 103.837366 
L 222.805299 119.447782 
L 224.844587 117.740958 
L 226.883874 64.350959 
L 228.923161 60.306797 
L 230.962449 79.419302 
L 233.001736 73.074452 
L 235.041023 42.716449 
L 237.080311 62.038211 
L 239.119598 54.002611 
L 241.158885 70.7863 
L 243.198173 47.553685 
L 245.23746 85.180558 
L 247.276747 52.661441 
L 249.316035 96.355297 
L 251.355322 72.681228 
L 253.394609 110.228666 
L 257.473184 66.862178 
L 259.512471 64.064618 
L 261.551759 60.536666 
L 263.591046 64.768728 
L 265.630333 64.410138 
L 267.669621 58.321985 
L 269.708908 47.631402 
L 271.748196 41.290936 
L 273.787483 60.31382 
L 275.82677 51.046074 
L 277.866058 66.687195 
L 279.905345 56.964854 
L 281.944632 80.339842 
L 283.98392 65.78873 
L 286.023207 56.998569 
L 288.062494 56.070421 
L 290.101782 69.676987 
L 292.141069 76.451972 
L 294.180356 52.629867 
L 296.219644 44.750297 
L 298.258931 79.388108 
L 300.298218 54.941661 
L 302.337506 65.798922 
L 304.376793 60.434569 
L 306.41608 47.743879 
L 308.455368 48.905059 
L 310.494655 50.99816 
L 312.533942 56.5323 
L 314.57323 73.825732 
L 316.612517 41.215166 
L 318.651804 58.508891 
L 320.691092 46.265715 
L 322.730379 40.455369 
L 324.769667 54.401417 
L 326.808954 62.93403 
L 328.848241 48.360179 
L 330.887529 46.497371 
L 332.926816 47.436309 
L 334.966103 41.102531 
L 337.005391 53.905113 
L 339.044678 46.271825 
L 343.123253 51.173761 
L 345.16254 47.524343 
L 347.201827 53.960272 
L 349.241115 56.315756 
L 351.280402 41.016666 
L 353.319689 49.442858 
L 355.358977 53.669072 
L 357.398264 65.544695 
L 359.437551 81.113918 
L 361.476839 47.889996 
L 363.516126 56.114843 
L 365.555413 47.312063 
L 367.594701 65.717446 
L 369.633988 53.57804 
L 371.673275 60.195814 
L 373.712563 55.149903 
L 375.75185 67.709997 
L 377.791138 51.750411 
L 379.830425 90.33522 
L 381.869712 66.270505 
L 383.909 70.552854 
L 385.948287 95.377923 
L 387.987574 71.48589 
L 390.026862 78.350436 
L 392.066149 61.52547 
L 394.105436 63.725872 
L 396.144724 94.948696 
L 398.184011 84.158602 
L 400.223298 83.290286 
L 402.262586 56.277 
L 404.301873 82.54444 
L 406.34116 70.709344 
L 408.380448 65.935676 
L 410.419735 53.553603 
L 412.459022 67.525237 
L 414.49831 106.786914 
L 416.537597 73.784631 
L 418.576884 110.954101 
L 420.616172 98.736177 
L 422.655459 81.156371 
L 424.694746 77.755533 
L 426.734034 63.898941 
L 428.773321 65.254976 
L 430.812608 59.417286 
L 432.851896 60.51772 
L 434.891183 68.190676 
L 436.930471 57.681733 
L 438.969758 61.456133 
L 441.009045 69.322076 
L 443.048333 45.497947 
L 445.08762 60.201594 
L 447.126907 66.137594 
L 449.166195 65.64719 
L 451.205482 53.540164 
L 453.244769 61.487179 
L 455.284057 60.192453 
L 457.323344 54.798161 
L 459.362631 50.449252 
L 461.401919 60.373329 
L 463.441206 59.365442 
L 465.480493 62.697211 
L 467.519781 61.016437 
L 469.559068 56.333227 
L 471.598355 66.585115 
L 473.637643 71.694588 
L 475.67693 70.675215 
L 477.716217 48.722201 
L 479.755505 67.41707 
L 481.794792 60.208316 
L 483.834079 61.98727 
L 485.873367 70.184754 
L 487.912654 64.903461 
L 489.951942 49.042225 
L 491.991229 51.972224 
L 494.030516 42.054665 
L 496.069804 58.485697 
L 498.109091 61.831353 
L 498.109091 61.831353 
" clip-path="url(#pa1f75732da)" style="fill: none; stroke: #ff0000; stroke-opacity: 0.9; stroke-width: 1.5; stroke-linecap: square"/>
   </g>
   <g id="line2d_14">
    <path d="M 92.290909 58.419336 
L 94.330196 102.631162 
L 96.369484 123.094512 
L 98.408771 104.655281 
L 100.448058 87.95535 
L 102.487346 104.537922 
L 104.526633 93.55102 
L 106.565921 65.594318 
L 108.605208 113.030115 
L 110.644495 42.930776 
L 114.72307 119.92083 
L 116.762357 117.246585 
L 118.801645 110.538796 
L 120.840932 67.465212 
L 122.880219 113.105163 
L 124.919507 68.138577 
L 126.958794 67.743677 
L 128.998081 87.142761 
L 131.037369 61.973235 
L 133.076656 56.07431 
L 135.115943 55.396091 
L 137.155231 105.028843 
L 139.194518 106.713898 
L 141.233805 119.920103 
L 145.31238 119.079307 
L 147.351667 113.991404 
L 149.390955 117.41325 
L 151.430242 106.690517 
L 153.469529 103.987918 
L 155.508817 109.755334 
L 157.548104 122.508125 
L 159.587392 110.74801 
L 161.626679 118.212882 
L 163.665966 95.496633 
L 165.705254 90.964423 
L 167.744541 108.044241 
L 169.783828 45.520729 
L 171.823116 53.771544 
L 173.862403 73.884724 
L 175.90169 48.888846 
L 177.940978 45.376903 
L 179.980265 69.405959 
L 182.019552 67.91292 
L 184.05884 70.274809 
L 186.098127 63.336333 
L 188.137414 58.633847 
L 190.176702 65.548493 
L 192.215989 60.560104 
L 194.255276 47.62537 
L 196.294564 66.475023 
L 198.333851 73.425519 
L 200.373138 94.049692 
L 202.412426 71.332035 
L 204.451713 52.157489 
L 206.491 42.136981 
L 208.530288 75.442018 
L 210.569575 58.19268 
L 212.608862 107.70344 
L 214.64815 106.319726 
L 216.687437 92.795141 
L 218.726725 88.850499 
L 220.766012 104.880268 
L 222.805299 118.465792 
L 224.844587 118.275553 
L 226.883874 65.783615 
L 228.923161 59.677685 
L 230.962449 75.711099 
L 233.001736 68.119766 
L 235.041023 43.780588 
L 237.080311 61.485902 
L 239.119598 56.299734 
L 241.158885 76.187928 
L 243.198173 50.162394 
L 245.23746 79.891753 
L 247.276747 50.600865 
L 249.316035 96.65146 
L 251.355322 69.438952 
L 253.394609 111.298446 
L 255.433897 87.309602 
L 257.473184 70.750048 
L 259.512471 63.172081 
L 261.551759 56.360968 
L 263.591046 69.340069 
L 265.630333 66.102466 
L 271.748196 41.398345 
L 273.787483 59.77139 
L 275.82677 47.372954 
L 277.866058 65.570733 
L 279.905345 54.305877 
L 281.944632 77.192686 
L 283.98392 61.298513 
L 286.023207 61.475171 
L 288.062494 51.488616 
L 290.101782 70.044814 
L 292.141069 71.510129 
L 294.180356 53.99548 
L 296.219644 43.856534 
L 298.258931 77.465104 
L 300.298218 57.009901 
L 302.337506 64.468744 
L 304.376793 58.570631 
L 306.41608 42.762618 
L 308.455368 47.388125 
L 310.494655 52.907577 
L 312.533942 59.521581 
L 314.57323 69.204705 
L 316.612517 39.868874 
L 318.651804 55.069841 
L 320.691092 46.564027 
L 322.730379 41.793803 
L 324.769667 56.725168 
L 326.808954 63.832795 
L 328.848241 46.503855 
L 330.887529 48.324676 
L 332.926816 53.331949 
L 334.966103 43.570829 
L 337.005391 57.089004 
L 339.044678 46.10895 
L 341.083965 50.030699 
L 343.123253 51.717457 
L 345.16254 45.171984 
L 347.201827 56.629662 
L 349.241115 54.173233 
L 351.280402 40.796676 
L 353.319689 53.024056 
L 355.358977 51.6554 
L 357.398264 63.73151 
L 359.437551 81.560121 
L 361.476839 48.492371 
L 363.516126 56.693475 
L 365.555413 48.181909 
L 367.594701 68.646701 
L 369.633988 54.653736 
L 371.673275 60.485675 
L 373.712563 57.364392 
L 375.75185 72.142551 
L 377.791138 50.416661 
L 379.830425 86.381817 
L 381.869712 63.523028 
L 383.909 71.527207 
L 385.948287 101.586171 
L 387.987574 72.253909 
L 390.026862 75.980332 
L 392.066149 63.685452 
L 394.105436 65.864949 
L 396.144724 96.051134 
L 398.184011 83.082282 
L 400.223298 86.144731 
L 402.262586 56.343782 
L 404.301873 75.25484 
L 406.34116 73.719831 
L 408.380448 67.918893 
L 410.419735 50.666789 
L 412.459022 68.483988 
L 414.49831 104.172536 
L 416.537597 76.888097 
L 418.576884 111.04549 
L 420.616172 97.342266 
L 422.655459 82.107105 
L 424.694746 80.608723 
L 426.734034 62.633943 
L 428.773321 64.825431 
L 430.812608 64.677367 
L 432.851896 60.471344 
L 434.891183 64.874476 
L 436.930471 58.909808 
L 438.969758 61.980309 
L 441.009045 71.93135 
L 443.048333 47.5567 
L 445.08762 59.109614 
L 447.126907 67.951949 
L 449.166195 66.735127 
L 451.205482 56.302891 
L 453.244769 63.130673 
L 455.284057 60.31868 
L 457.323344 57.034753 
L 459.362631 49.554585 
L 461.401919 60.422345 
L 463.441206 59.299177 
L 465.480493 61.880801 
L 467.519781 61.209668 
L 469.559068 56.149745 
L 471.598355 68.015386 
L 473.637643 67.871137 
L 475.67693 72.475903 
L 477.716217 50.10619 
L 479.755505 64.215612 
L 481.794792 60.836656 
L 483.834079 61.359555 
L 485.873367 70.257997 
L 487.912654 69.006024 
L 489.951942 44.224205 
L 491.991229 50.67576 
L 494.030516 41.286252 
L 496.069804 60.832176 
L 498.109091 58.333795 
L 498.109091 58.333795 
" clip-path="url(#pa1f75732da)" style="fill: none; stroke: #ff0000; stroke-opacity: 0.9; stroke-width: 1.5; stroke-linecap: square"/>
   </g>
   <g id="line2d_15">
    <path d="M 92.290909 60.522733 
L 94.330196 105.383226 
L 96.369484 126.079318 
L 98.408771 102.053905 
L 100.448058 88.5728 
L 102.487346 104.537013 
L 104.526633 96.136232 
L 106.565921 64.37765 
L 108.605208 111.464259 
L 110.644495 47.536226 
L 112.683783 81.034452 
L 114.72307 122.046819 
L 116.762357 119.495691 
L 118.801645 106.672064 
L 120.840932 67.274701 
L 122.880219 114.281072 
L 124.919507 69.241963 
L 126.958794 66.060598 
L 128.998081 86.160158 
L 131.037369 65.369723 
L 133.076656 49.007511 
L 135.115943 52.323654 
L 137.155231 107.88682 
L 139.194518 106.800756 
L 141.233805 124.988486 
L 143.273093 121.000988 
L 145.31238 118.383407 
L 147.351667 112.454016 
L 149.390955 115.53715 
L 151.430242 108.617524 
L 153.469529 106.334692 
L 155.508817 109.776558 
L 157.548104 125.253387 
L 159.587392 107.758832 
L 161.626679 117.14945 
L 163.665966 94.378229 
L 165.705254 92.24139 
L 167.744541 111.408526 
L 169.783828 48.283121 
L 171.823116 54.29811 
L 173.862403 73.375742 
L 175.90169 48.995338 
L 177.940978 43.067178 
L 179.980265 68.892469 
L 182.019552 66.726213 
L 184.05884 67.650432 
L 186.098127 67.877212 
L 188.137414 53.381499 
L 190.176702 65.731697 
L 192.215989 59.531114 
L 194.255276 51.90836 
L 196.294564 68.192231 
L 198.333851 74.182914 
L 200.373138 93.563897 
L 202.412426 67.871171 
L 204.451713 52.992698 
L 206.491 42.785028 
L 208.530288 75.451716 
L 210.569575 59.427693 
L 212.608862 110.900844 
L 214.64815 106.451302 
L 216.687437 93.135051 
L 218.726725 87.256322 
L 220.766012 107.117609 
L 222.805299 116.958825 
L 224.844587 119.452494 
L 226.883874 67.47977 
L 228.923161 59.492425 
L 230.962449 79.855921 
L 233.001736 71.898141 
L 235.041023 39.141818 
L 237.080311 61.362479 
L 239.119598 55.407486 
L 241.158885 69.260325 
L 243.198173 49.064521 
L 245.23746 83.505235 
L 247.276747 48.402356 
L 249.316035 97.783416 
L 251.355322 74.440769 
L 253.394609 109.51814 
L 255.433897 88.132235 
L 257.473184 69.138406 
L 259.512471 62.423719 
L 261.551759 53.880273 
L 263.591046 68.517345 
L 265.630333 68.6727 
L 267.669621 62.70646 
L 269.708908 48.526035 
L 271.748196 44.166911 
L 273.787483 58.958433 
L 275.82677 46.490767 
L 277.866058 68.174534 
L 279.905345 56.0398 
L 281.944632 72.82006 
L 283.98392 60.924065 
L 286.023207 57.310873 
L 288.062494 52.223198 
L 290.101782 67.552116 
L 292.141069 75.493476 
L 294.180356 54.138741 
L 296.219644 41.610582 
L 298.258931 78.282945 
L 300.298218 56.529177 
L 302.337506 62.117234 
L 304.376793 59.475318 
L 306.41608 46.998569 
L 308.455368 44.387827 
L 310.494655 51.832966 
L 312.533942 55.221347 
L 314.57323 71.129833 
L 316.612517 44.274436 
L 318.651804 52.617773 
L 320.691092 44.871475 
L 322.730379 41.880392 
L 324.769667 57.226065 
L 326.808954 61.224452 
L 328.848241 47.47573 
L 330.887529 47.594835 
L 332.926816 48.79369 
L 334.966103 47.767475 
L 337.005391 57.015199 
L 339.044678 47.770158 
L 341.083965 49.5177 
L 343.123253 51.672626 
L 345.16254 46.825883 
L 347.201827 52.433422 
L 349.241115 54.99397 
L 351.280402 41.603613 
L 353.319689 53.412426 
L 355.358977 57.668907 
L 357.398264 62.352094 
L 359.437551 79.077291 
L 361.476839 48.408497 
L 363.516126 54.072345 
L 365.555413 45.119922 
L 367.594701 66.056635 
L 369.633988 51.29212 
L 371.673275 60.941218 
L 373.712563 50.527667 
L 375.75185 66.255862 
L 377.791138 53.96796 
L 379.830425 88.242235 
L 381.869712 69.517408 
L 383.909 70.550316 
L 385.948287 97.099548 
L 387.987574 73.268308 
L 390.026862 75.871484 
L 392.066149 58.053064 
L 394.105436 63.173472 
L 396.144724 95.17961 
L 398.184011 81.603965 
L 400.223298 83.753063 
L 402.262586 58.703649 
L 404.301873 79.875526 
L 408.380448 65.349074 
L 410.419735 47.102366 
L 412.459022 67.457961 
L 414.49831 103.06978 
L 416.537597 76.650489 
L 418.576884 113.898039 
L 422.655459 81.220887 
L 424.694746 78.865329 
L 426.734034 66.010061 
L 428.773321 64.591843 
L 430.812608 62.57213 
L 432.851896 60.805951 
L 434.891183 70.165268 
L 436.930471 58.921238 
L 438.969758 59.741872 
L 441.009045 70.593512 
L 443.048333 47.235669 
L 445.08762 60.810385 
L 447.126907 68.727138 
L 449.166195 63.49133 
L 451.205482 59.18083 
L 453.244769 66.118562 
L 455.284057 60.536706 
L 457.323344 53.335816 
L 459.362631 55.177151 
L 461.401919 59.098622 
L 463.441206 59.417155 
L 465.480493 61.567201 
L 467.519781 60.961504 
L 469.559068 48.981288 
L 471.598355 67.440712 
L 473.637643 68.082974 
L 475.67693 71.043043 
L 477.716217 49.274922 
L 479.755505 62.783189 
L 481.794792 61.152924 
L 483.834079 63.831898 
L 485.873367 70.424735 
L 487.912654 66.858107 
L 489.951942 46.52371 
L 491.991229 51.045546 
L 494.030516 44.267027 
L 496.069804 61.318828 
L 498.109091 57.113435 
L 498.109091 57.113435 
" clip-path="url(#pa1f75732da)" style="fill: none; stroke: #ff0000; stroke-opacity: 0.9; stroke-width: 1.5; stroke-linecap: square"/>
   </g>
   <g id="line2d_16">
    <path d="M 92.290909 63.637889 
L 94.330196 102.294198 
L 96.369484 130.778182 
L 98.408771 100.364727 
L 100.448058 87.129521 
L 102.487346 105.182653 
L 104.526633 96.263533 
L 106.565921 71.009635 
L 108.605208 112.813554 
L 110.644495 45.140078 
L 112.683783 79.586029 
L 114.72307 120.329934 
L 116.762357 123.860804 
L 118.801645 111.263573 
L 120.840932 67.488178 
L 122.880219 110.412932 
L 124.919507 67.217015 
L 126.958794 64.075423 
L 128.998081 84.288912 
L 131.037369 66.047539 
L 133.076656 53.179967 
L 135.115943 52.581719 
L 137.155231 107.775547 
L 139.194518 107.368407 
L 141.233805 123.462544 
L 143.273093 118.713387 
L 145.31238 117.371779 
L 147.351667 113.846746 
L 149.390955 114.423118 
L 151.430242 106.306599 
L 153.469529 105.173694 
L 155.508817 113.818426 
L 157.548104 128.492477 
L 159.587392 106.970146 
L 161.626679 117.686952 
L 163.665966 96.542203 
L 165.705254 92.887773 
L 167.744541 110.330479 
L 169.783828 46.722618 
L 171.823116 54.427778 
L 173.862403 75.376128 
L 175.90169 50.379131 
L 177.940978 39.860792 
L 179.980265 70.243246 
L 182.019552 67.582293 
L 184.05884 69.320742 
L 186.098127 66.095062 
L 188.137414 52.91305 
L 190.176702 65.684277 
L 192.215989 60.60866 
L 194.255276 48.401246 
L 196.294564 68.010475 
L 198.333851 73.160839 
L 200.373138 92.050339 
L 202.412426 70.976539 
L 204.451713 54.584297 
L 206.491 48.470288 
L 208.530288 73.000017 
L 210.569575 58.134954 
L 212.608862 106.439549 
L 214.64815 106.355053 
L 216.687437 90.266661 
L 218.726725 89.165359 
L 220.766012 107.420983 
L 222.805299 119.749872 
L 224.844587 118.532585 
L 226.883874 64.85512 
L 228.923161 63.391702 
L 230.962449 78.87987 
L 233.001736 69.590963 
L 235.041023 43.936289 
L 237.080311 58.792591 
L 239.119598 53.907867 
L 241.158885 77.370036 
L 243.198173 49.48895 
L 245.23746 80.653146 
L 247.276747 52.398481 
L 249.316035 94.625172 
L 251.355322 75.535088 
L 253.394609 109.728717 
L 255.433897 90.11188 
L 257.473184 67.749628 
L 259.512471 66.576303 
L 261.551759 58.589089 
L 263.591046 64.93227 
L 265.630333 66.543196 
L 267.669621 58.314519 
L 269.708908 52.239254 
L 271.748196 40.72575 
L 273.787483 59.53837 
L 275.82677 48.262033 
L 277.866058 64.419415 
L 279.905345 59.797718 
L 281.944632 77.996758 
L 283.98392 64.653026 
L 286.023207 60.473729 
L 288.062494 54.36622 
L 290.101782 67.211008 
L 292.141069 75.377082 
L 294.180356 52.999801 
L 296.219644 43.901303 
L 298.258931 79.76569 
L 300.298218 57.053717 
L 302.337506 61.361831 
L 304.376793 60.025487 
L 306.41608 44.555409 
L 308.455368 46.581512 
L 310.494655 50.160822 
L 312.533942 60.431872 
L 314.57323 69.663212 
L 316.612517 39.359895 
L 318.651804 56.382913 
L 320.691092 45.827481 
L 322.730379 44.557404 
L 324.769667 55.261886 
L 326.808954 62.72242 
L 328.848241 48.673043 
L 330.887529 44.416664 
L 332.926816 46.934918 
L 334.966103 44.590372 
L 337.005391 56.445448 
L 339.044678 45.499568 
L 341.083965 45.094014 
L 343.123253 53.432792 
L 345.16254 44.792886 
L 347.201827 51.207175 
L 349.241115 51.9902 
L 351.280402 41.819626 
L 353.319689 52.68351 
L 355.358977 52.292636 
L 357.398264 63.683635 
L 359.437551 80.409672 
L 361.476839 49.218159 
L 363.516126 58.037319 
L 365.555413 42.520289 
L 367.594701 72.079017 
L 369.633988 52.504899 
L 371.673275 62.257446 
L 373.712563 52.170656 
L 375.75185 70.883992 
L 377.791138 49.820151 
L 379.830425 92.351822 
L 381.869712 64.439361 
L 383.909 70.032198 
L 385.948287 98.268728 
L 387.987574 71.388494 
L 390.026862 77.507914 
L 392.066149 64.954044 
L 394.105436 66.074174 
L 396.144724 93.910916 
L 398.184011 79.46737 
L 400.223298 80.977533 
L 402.262586 56.588169 
L 404.301873 78.184016 
L 406.34116 72.78927 
L 408.380448 65.51705 
L 410.419735 50.729108 
L 412.459022 69.327072 
L 414.49831 102.486663 
L 416.537597 77.987077 
L 418.576884 114.231641 
L 420.616172 98.162622 
L 422.655459 85.004548 
L 424.694746 80.743257 
L 426.734034 64.021711 
L 428.773321 64.630412 
L 430.812608 61.322138 
L 432.851896 57.454555 
L 434.891183 67.997723 
L 436.930471 57.039517 
L 438.969758 59.243797 
L 441.009045 70.612601 
L 443.048333 49.1482 
L 445.08762 63.263799 
L 447.126907 70.086097 
L 449.166195 67.694258 
L 451.205482 55.56024 
L 453.244769 64.291456 
L 455.284057 59.444982 
L 457.323344 56.077041 
L 459.362631 54.175152 
L 461.401919 58.375526 
L 465.480493 64.382152 
L 467.519781 60.604374 
L 469.559068 54.751405 
L 471.598355 65.798093 
L 473.637643 62.74399 
L 475.67693 70.682681 
L 477.716217 50.913158 
L 479.755505 62.697353 
L 481.794792 60.530114 
L 483.834079 66.544019 
L 485.873367 68.9293 
L 487.912654 65.601671 
L 489.951942 44.564033 
L 491.991229 54.018049 
L 494.030516 42.125103 
L 496.069804 63.269761 
L 498.109091 56.408843 
L 498.109091 56.408843 
" clip-path="url(#pa1f75732da)" style="fill: none; stroke: #ff0000; stroke-opacity: 0.9; stroke-width: 1.5; stroke-linecap: square"/>
   </g>
   <g id="line2d_17">
    <path d="M 92.290909 62.227104 
L 94.330196 100.852605 
L 96.369484 124.668851 
L 98.408771 100.128749 
L 100.448058 85.82475 
L 102.487346 106.962334 
L 104.526633 97.065425 
L 106.565921 68.433791 
L 108.605208 112.792387 
L 110.644495 45.615879 
L 112.683783 79.608609 
L 114.72307 120.181563 
L 116.762357 116.676152 
L 118.801645 107.602035 
L 120.840932 65.872409 
L 122.880219 114.951694 
L 124.919507 70.547789 
L 126.958794 64.683107 
L 128.998081 91.755175 
L 131.037369 63.546103 
L 133.076656 51.663331 
L 135.115943 53.289849 
L 137.155231 105.400815 
L 139.194518 104.574157 
L 141.233805 121.529144 
L 143.273093 114.583537 
L 145.31238 114.343481 
L 147.351667 110.444012 
L 149.390955 116.461567 
L 151.430242 106.122299 
L 153.469529 106.201651 
L 155.508817 108.169118 
L 157.548104 122.831371 
L 159.587392 109.187763 
L 161.626679 118.752325 
L 163.665966 94.653169 
L 165.705254 94.36722 
L 167.744541 111.982274 
L 169.783828 46.549944 
L 171.823116 53.867918 
L 173.862403 71.364949 
L 175.90169 49.10181 
L 177.940978 44.048652 
L 179.980265 70.845548 
L 182.019552 65.366118 
L 184.05884 68.064783 
L 186.098127 64.103897 
L 188.137414 60.657892 
L 190.176702 64.91845 
L 192.215989 63.851441 
L 194.255276 52.000681 
L 196.294564 71.107235 
L 198.333851 74.227723 
L 200.373138 93.184175 
L 202.412426 71.724532 
L 206.491 42.236994 
L 208.530288 76.879807 
L 210.569575 56.569648 
L 212.608862 107.160726 
L 214.64815 107.684521 
L 216.687437 91.194491 
L 218.726725 90.499046 
L 220.766012 105.974314 
L 222.805299 117.663003 
L 224.844587 121.045604 
L 226.883874 70.154077 
L 228.923161 59.862376 
L 230.962449 81.821894 
L 233.001736 75.939571 
L 235.041023 39.622026 
L 237.080311 61.477209 
L 239.119598 51.995622 
L 241.158885 75.083786 
L 243.198173 52.415282 
L 245.23746 80.216129 
L 247.276747 48.446169 
L 249.316035 97.944653 
L 251.355322 76.547931 
L 253.394609 107.550447 
L 255.433897 90.138162 
L 257.473184 67.178752 
L 259.512471 64.954697 
L 261.551759 56.782967 
L 263.591046 68.383339 
L 265.630333 66.093166 
L 267.669621 56.838621 
L 271.748196 41.471392 
L 273.787483 58.251643 
L 275.82677 47.314294 
L 277.866058 66.629538 
L 279.905345 55.737392 
L 281.944632 75.691493 
L 283.98392 66.62868 
L 286.023207 59.03573 
L 288.062494 55.630134 
L 290.101782 68.553938 
L 292.141069 75.740878 
L 294.180356 52.054512 
L 296.219644 48.040578 
L 298.258931 77.052366 
L 300.298218 55.209985 
L 302.337506 61.836264 
L 304.376793 60.022058 
L 306.41608 49.075318 
L 308.455368 46.098213 
L 310.494655 47.715192 
L 312.533942 56.521359 
L 314.57323 70.016158 
L 316.612517 42.981504 
L 318.651804 58.672319 
L 320.691092 44.809661 
L 322.730379 43.648095 
L 324.769667 56.427131 
L 326.808954 62.99858 
L 328.848241 45.829542 
L 330.887529 46.598843 
L 332.926816 47.843606 
L 334.966103 43.215376 
L 337.005391 54.205063 
L 339.044678 46.644223 
L 341.083965 52.435211 
L 343.123253 53.240146 
L 345.16254 51.39805 
L 347.201827 52.146343 
L 349.241115 54.730465 
L 351.280402 43.413862 
L 353.319689 51.490625 
L 355.358977 53.933252 
L 357.398264 61.971934 
L 359.437551 78.817045 
L 361.476839 53.477039 
L 363.516126 54.039869 
L 365.555413 46.699961 
L 367.594701 68.454538 
L 369.633988 52.902149 
L 371.673275 59.769307 
L 373.712563 53.950717 
L 375.75185 67.273361 
L 377.791138 50.136623 
L 379.830425 90.55324 
L 381.869712 63.063676 
L 383.909 70.606616 
L 385.948287 99.088198 
L 387.987574 71.990558 
L 390.026862 76.829037 
L 392.066149 66.318567 
L 394.105436 61.590088 
L 396.144724 97.032431 
L 398.184011 83.938186 
L 400.223298 81.468006 
L 402.262586 54.140819 
L 404.301873 81.608842 
L 406.34116 70.928852 
L 408.380448 65.902297 
L 410.419735 48.508025 
L 412.459022 67.581612 
L 414.49831 103.809364 
L 416.537597 75.402234 
L 418.576884 113.389494 
L 420.616172 96.966274 
L 422.655459 84.642142 
L 424.694746 78.243098 
L 426.734034 64.616552 
L 428.773321 63.95158 
L 430.812608 62.462617 
L 432.851896 60.518055 
L 434.891183 71.627511 
L 436.930471 59.564601 
L 438.969758 61.064686 
L 441.009045 70.348455 
L 443.048333 46.46901 
L 445.08762 64.024283 
L 447.126907 68.287141 
L 449.166195 67.869445 
L 451.205482 55.527696 
L 453.244769 63.370155 
L 455.284057 63.506455 
L 457.323344 55.804304 
L 459.362631 50.406549 
L 461.401919 59.364392 
L 463.441206 59.82534 
L 465.480493 62.349925 
L 467.519781 57.007358 
L 469.559068 52.663746 
L 471.598355 66.792069 
L 473.637643 67.671172 
L 475.67693 69.72577 
L 477.716217 49.361158 
L 479.755505 63.655229 
L 481.794792 57.952045 
L 483.834079 57.460965 
L 485.873367 70.576837 
L 487.912654 67.218411 
L 489.951942 47.4848 
L 491.991229 51.174545 
L 494.030516 41.578432 
L 496.069804 62.679434 
L 498.109091 58.632694 
L 498.109091 58.632694 
" clip-path="url(#pa1f75732da)" style="fill: none; stroke: #ff0000; stroke-opacity: 0.9; stroke-width: 1.5; stroke-linecap: square"/>
   </g>
   <g id="line2d_18">
    <path d="M 92.290909 109.399487 
L 94.330196 98.412455 
L 96.369484 117.355541 
L 98.408771 98.576916 
L 100.448058 89.635465 
L 102.487346 102.296015 
L 104.526633 96.724589 
L 106.565921 65.693202 
L 108.605208 109.773651 
L 110.644495 46.329755 
L 112.683783 79.471719 
L 114.72307 116.06752 
L 116.762357 118.180416 
L 118.801645 109.769949 
L 120.840932 68.50088 
L 122.880219 109.685487 
L 124.919507 67.068774 
L 126.958794 62.819674 
L 128.998081 83.514552 
L 131.037369 62.697659 
L 133.076656 49.856682 
L 135.115943 52.05676 
L 137.155231 102.605794 
L 139.194518 106.595755 
L 141.233805 121.93147 
L 143.273093 118.148178 
L 145.31238 118.263913 
L 147.351667 110.53397 
L 149.390955 115.116871 
L 151.430242 106.631491 
L 153.469529 105.140956 
L 155.508817 111.7176 
L 157.548104 124.853662 
L 159.587392 106.94739 
L 161.626679 120.441059 
L 163.665966 93.711672 
L 165.705254 92.907191 
L 167.744541 110.091616 
L 169.783828 49.796685 
L 171.823116 54.146548 
L 173.862403 73.621186 
L 175.90169 50.534373 
L 177.940978 43.359904 
L 179.980265 67.789923 
L 182.019552 63.425093 
L 184.05884 69.564334 
L 186.098127 64.935546 
L 188.137414 58.845934 
L 190.176702 67.457609 
L 192.215989 60.751967 
L 194.255276 47.663981 
L 196.294564 67.725287 
L 198.333851 73.453573 
L 200.373138 90.727053 
L 202.412426 69.907827 
L 204.451713 52.119368 
L 206.491 42.638548 
L 208.530288 71.93533 
L 210.569575 57.45225 
L 212.608862 108.83354 
L 214.64815 103.32663 
L 216.687437 91.662662 
L 218.726725 90.335016 
L 220.766012 106.527849 
L 222.805299 117.757265 
L 224.844587 116.877883 
L 226.883874 68.839938 
L 228.923161 57.683981 
L 230.962449 77.596033 
L 233.001736 72.197818 
L 235.041023 44.042137 
L 237.080311 58.481728 
L 239.119598 51.430629 
L 241.158885 72.915583 
L 243.198173 51.925615 
L 245.23746 79.59002 
L 247.276747 50.084802 
L 249.316035 99.528383 
L 251.355322 75.596368 
L 253.394609 108.000931 
L 257.473184 70.801341 
L 259.512471 64.485027 
L 261.551759 56.490989 
L 263.591046 67.604118 
L 265.630333 63.118188 
L 267.669621 60.027792 
L 269.708908 48.433601 
L 271.748196 39.61622 
L 273.787483 61.221227 
L 275.82677 49.471849 
L 277.866058 64.575957 
L 279.905345 53.687797 
L 281.944632 80.215357 
L 283.98392 63.677798 
L 286.023207 62.134772 
L 288.062494 52.686582 
L 290.101782 66.208912 
L 292.141069 73.861883 
L 294.180356 53.833494 
L 296.219644 41.664833 
L 298.258931 77.367135 
L 300.298218 54.894547 
L 302.337506 59.925297 
L 304.376793 57.579289 
L 306.41608 44.824208 
L 308.455368 45.539508 
L 310.494655 55.96549 
L 312.533942 60.147979 
L 314.57323 71.339529 
L 316.612517 40.656163 
L 318.651804 56.185344 
L 320.691092 46.22546 
L 322.730379 42.358541 
L 326.808954 62.052246 
L 328.848241 46.066778 
L 332.926816 47.631513 
L 334.966103 45.968695 
L 337.005391 55.883997 
L 339.044678 41.066293 
L 341.083965 50.01596 
L 343.123253 55.917121 
L 345.16254 48.670729 
L 347.201827 52.362728 
L 349.241115 54.268228 
L 351.280402 41.42857 
L 353.319689 57.94044 
L 355.358977 57.255992 
L 357.398264 64.034429 
L 359.437551 81.613004 
L 361.476839 47.71356 
L 363.516126 55.557458 
L 365.555413 45.911932 
L 367.594701 68.970929 
L 369.633988 52.744092 
L 371.673275 61.670366 
L 373.712563 51.659567 
L 375.75185 67.392491 
L 377.791138 49.872982 
L 379.830425 92.039937 
L 381.869712 65.539221 
L 383.909 71.315087 
L 385.948287 97.803561 
L 387.987574 71.143193 
L 390.026862 78.71157 
L 392.066149 61.439923 
L 394.105436 65.904659 
L 396.144724 98.663445 
L 398.184011 81.906481 
L 400.223298 82.163349 
L 402.262586 58.482018 
L 404.301873 78.580221 
L 406.34116 67.427551 
L 408.380448 68.312486 
L 410.419735 47.027619 
L 412.459022 67.749287 
L 414.49831 102.726764 
L 416.537597 77.195604 
L 418.576884 110.123275 
L 420.616172 103.314025 
L 422.655459 84.493521 
L 424.694746 79.653963 
L 426.734034 60.899776 
L 428.773321 65.333698 
L 430.812608 63.788151 
L 432.851896 62.864307 
L 434.891183 70.011758 
L 436.930471 59.470095 
L 438.969758 59.44434 
L 441.009045 70.08478 
L 443.048333 47.845 
L 445.08762 59.668578 
L 447.126907 68.606741 
L 449.166195 65.601336 
L 451.205482 55.986299 
L 453.244769 63.569024 
L 455.284057 61.656223 
L 457.323344 52.7192 
L 459.362631 49.717957 
L 461.401919 59.726462 
L 463.441206 59.671223 
L 465.480493 61.766275 
L 467.519781 54.406839 
L 469.559068 55.682556 
L 471.598355 66.973734 
L 473.637643 67.08646 
L 475.67693 69.347683 
L 477.716217 49.935761 
L 479.755505 64.262232 
L 481.794792 57.320049 
L 483.834079 60.923554 
L 485.873367 65.465439 
L 487.912654 66.043514 
L 489.951942 46.532788 
L 491.991229 49.58384 
L 494.030516 44.00432 
L 496.069804 63.657177 
L 498.109091 58.194985 
L 498.109091 58.194985 
" clip-path="url(#pa1f75732da)" style="fill: none; stroke: #008000; stroke-opacity: 0.9; stroke-width: 1.5; stroke-linecap: square"/>
   </g>
   <g id="line2d_19">
    <path d="M 153.469529 135.36 
L 153.469529 34.56 
" clip-path="url(#pa1f75732da)" style="fill: none; stroke-dasharray: 5.55,2.4; stroke-dashoffset: 0; stroke: #000000; stroke-width: 1.5"/>
   </g>
   <g id="line2d_20">
    <path d="M 438.969758 135.36 
L 438.969758 34.56 
" clip-path="url(#pa1f75732da)" style="fill: none; stroke-dasharray: 5.55,2.4; stroke-dashoffset: 0; stroke: #0000ff; stroke-width: 1.5"/>
   </g>
   <g id="patch_3">
    <path d="M 72 135.36 
L 72 34.56 
" style="fill: none; stroke: #000000; stroke-width: 0.8; stroke-linejoin: miter; stroke-linecap: square"/>
   </g>
   <g id="patch_4">
    <path d="M 518.4 135.36 
L 518.4 34.56 
" style="fill: none; stroke: #000000; stroke-width: 0.8; stroke-linejoin: miter; stroke-linecap: square"/>
   </g>
   <g id="patch_5">
    <path d="M 72 135.36 
L 518.4 135.36 
" style="fill: none; stroke: #000000; stroke-width: 0.8; stroke-linejoin: miter; stroke-linecap: square"/>
   </g>
   <g id="patch_6">
    <path d="M 72 34.56 
L 518.4 34.56 
" style="fill: none; stroke: #000000; stroke-width: 0.8; stroke-linejoin: miter; stroke-linecap: square"/>
   </g>
  </g>
  <g id="axes_2">
   <g id="patch_7">
    <path d="M 72 256.32 
L 518.4 256.32 
L 518.4 155.52 
L 72 155.52 
z
" style="fill: #ffffff"/>
   </g>
   <g id="matplotlib.axis_3">
    <g id="xtick_10">
     <g id="line2d_21">
      <g>
       <use xlink:href="#mfc12981675" x="92.290909" y="256.32" style="stroke: #000000; stroke-width: 0.8"/>
      </g>
     </g>
     <g id="text_4">
      <!-- 0 -->
      <g transform="translate(89.109659 270.918437) scale(0.1 -0.1)">
       <use xlink:href="#DejaVuSans-30"/>
      </g>
     </g>
    </g>
    <g id="xtick_11">
     <g id="line2d_22">
      <g>
       <use xlink:href="#mfc12981675" x="143.273093" y="256.32" style="stroke: #000000; stroke-width: 0.8"/>
      </g>
     </g>
     <g id="text_5">
      <!-- 25 -->
      <g transform="translate(136.910593 270.918437) scale(0.1 -0.1)">
       <defs>
        <path id="DejaVuSans-32" d="M 1228 531 
L 3431 531 
L 3431 0 
L 469 0 
L 469 531 
Q 828 903 1448 1529 
Q 2069 2156 2228 2338 
Q 2531 2678 2651 2914 
Q 2772 3150 2772 3378 
Q 2772 3750 2511 3984 
Q 2250 4219 1831 4219 
Q 1534 4219 1204 4116 
Q 875 4013 500 3803 
L 500 4441 
Q 881 4594 1212 4672 
Q 1544 4750 1819 4750 
Q 2544 4750 2975 4387 
Q 3406 4025 3406 3419 
Q 3406 3131 3298 2873 
Q 3191 2616 2906 2266 
Q 2828 2175 2409 1742 
Q 1991 1309 1228 531 
z
" transform="scale(0.015625)"/>
       </defs>
       <use xlink:href="#DejaVuSans-32"/>
       <use xlink:href="#DejaVuSans-35" transform="translate(63.623047 0)"/>
      </g>
     </g>
    </g>
    <g id="xtick_12">
     <g id="line2d_23">
      <g>
       <use xlink:href="#mfc12981675" x="194.255276" y="256.32" style="stroke: #000000; stroke-width: 0.8"/>
      </g>
     </g>
     <g id="text_6">
      <!-- 50 -->
      <g transform="translate(187.892776 270.918437) scale(0.1 -0.1)">
       <use xlink:href="#DejaVuSans-35"/>
       <use xlink:href="#DejaVuSans-30" transform="translate(63.623047 0)"/>
      </g>
     </g>
    </g>
    <g id="xtick_13">
     <g id="line2d_24">
      <g>
       <use xlink:href="#mfc12981675" x="245.23746" y="256.32" style="stroke: #000000; stroke-width: 0.8"/>
      </g>
     </g>
     <g id="text_7">
      <!-- 75 -->
      <g transform="translate(238.87496 270.918437) scale(0.1 -0.1)">
       <defs>
        <path id="DejaVuSans-37" d="M 525 4666 
L 3525 4666 
L 3525 4397 
L 1831 0 
L 1172 0 
L 2766 4134 
L 525 4134 
L 525 4666 
z
" transform="scale(0.015625)"/>
       </defs>
       <use xlink:href="#DejaVuSans-37"/>
       <use xlink:href="#DejaVuSans-35" transform="translate(63.623047 0)"/>
      </g>
     </g>
    </g>
    <g id="xtick_14">
     <g id="line2d_25">
      <g>
       <use xlink:href="#mfc12981675" x="296.219644" y="256.32" style="stroke: #000000; stroke-width: 0.8"/>
      </g>
     </g>
     <g id="text_8">
      <!-- 100 -->
      <g transform="translate(286.675894 270.918437) scale(0.1 -0.1)">
       <use xlink:href="#DejaVuSans-31"/>
       <use xlink:href="#DejaVuSans-30" transform="translate(63.623047 0)"/>
       <use xlink:href="#DejaVuSans-30" transform="translate(127.246094 0)"/>
      </g>
     </g>
    </g>
    <g id="xtick_15">
     <g id="line2d_26">
      <g>
       <use xlink:href="#mfc12981675" x="347.201827" y="256.32" style="stroke: #000000; stroke-width: 0.8"/>
      </g>
     </g>
     <g id="text_9">
      <!-- 125 -->
      <g transform="translate(337.658077 270.918437) scale(0.1 -0.1)">
       <use xlink:href="#DejaVuSans-31"/>
       <use xlink:href="#DejaVuSans-32" transform="translate(63.623047 0)"/>
       <use xlink:href="#DejaVuSans-35" transform="translate(127.246094 0)"/>
      </g>
     </g>
    </g>
    <g id="xtick_16">
     <g id="line2d_27">
      <g>
       <use xlink:href="#mfc12981675" x="398.184011" y="256.32" style="stroke: #000000; stroke-width: 0.8"/>
      </g>
     </g>
     <g id="text_10">
      <!-- 150 -->
      <g transform="translate(388.640261 270.918437) scale(0.1 -0.1)">
       <use xlink:href="#DejaVuSans-31"/>
       <use xlink:href="#DejaVuSans-35" transform="translate(63.623047 0)"/>
       <use xlink:href="#DejaVuSans-30" transform="translate(127.246094 0)"/>
      </g>
     </g>
    </g>
    <g id="xtick_17">
     <g id="line2d_28">
      <g>
       <use xlink:href="#mfc12981675" x="449.166195" y="256.32" style="stroke: #000000; stroke-width: 0.8"/>
      </g>
     </g>
     <g id="text_11">
      <!-- 175 -->
      <g transform="translate(439.622445 270.918437) scale(0.1 -0.1)">
       <use xlink:href="#DejaVuSans-31"/>
       <use xlink:href="#DejaVuSans-37" transform="translate(63.623047 0)"/>
       <use xlink:href="#DejaVuSans-35" transform="translate(127.246094 0)"/>
      </g>
     </g>
    </g>
    <g id="xtick_18">
     <g id="line2d_29">
      <g>
       <use xlink:href="#mfc12981675" x="500.148378" y="256.32" style="stroke: #000000; stroke-width: 0.8"/>
      </g>
     </g>
     <g id="text_12">
      <!-- 200 -->
      <g transform="translate(490.604628 270.918437) scale(0.1 -0.1)">
       <use xlink:href="#DejaVuSans-32"/>
       <use xlink:href="#DejaVuSans-30" transform="translate(63.623047 0)"/>
       <use xlink:href="#DejaVuSans-30" transform="translate(127.246094 0)"/>
      </g>
     </g>
    </g>
   </g>
   <g id="matplotlib.axis_4">
    <g id="ytick_4">
     <g id="line2d_30">
      <g>
       <use xlink:href="#md215f2c4c0" x="72" y="253.49209" style="stroke: #000000; stroke-width: 0.8"/>
      </g>
     </g>
     <g id="text_13">
      <!-- −200 -->
      <g transform="translate(37.532812 257.291309) scale(0.1 -0.1)">
       <use xlink:href="#DejaVuSans-2212"/>
       <use xlink:href="#DejaVuSans-32" transform="translate(83.789062 0)"/>
       <use xlink:href="#DejaVuSans-30" transform="translate(147.412109 0)"/>
       <use xlink:href="#DejaVuSans-30" transform="translate(211.035156 0)"/>
      </g>
     </g>
    </g>
    <g id="ytick_5">
     <g id="line2d_31">
      <g>
       <use xlink:href="#md215f2c4c0" x="72" y="229.124336" style="stroke: #000000; stroke-width: 0.8"/>
      </g>
     </g>
     <g id="text_14">
      <!-- −100 -->
      <g transform="translate(37.532812 232.923555) scale(0.1 -0.1)">
       <use xlink:href="#DejaVuSans-2212"/>
       <use xlink:href="#DejaVuSans-31" transform="translate(83.789062 0)"/>
       <use xlink:href="#DejaVuSans-30" transform="translate(147.412109 0)"/>
       <use xlink:href="#DejaVuSans-30" transform="translate(211.035156 0)"/>
      </g>
     </g>
    </g>
    <g id="ytick_6">
     <g id="line2d_32">
      <g>
       <use xlink:href="#md215f2c4c0" x="72" y="204.756583" style="stroke: #000000; stroke-width: 0.8"/>
      </g>
     </g>
     <g id="text_15">
      <!-- 0 -->
      <g transform="translate(58.6375 208.555801) scale(0.1 -0.1)">
       <use xlink:href="#DejaVuSans-30"/>
      </g>
     </g>
    </g>
    <g id="ytick_7">
     <g id="line2d_33">
      <g>
       <use xlink:href="#md215f2c4c0" x="72" y="180.388829" style="stroke: #000000; stroke-width: 0.8"/>
      </g>
     </g>
     <g id="text_16">
      <!-- 100 -->
      <g transform="translate(45.9125 184.188047) scale(0.1 -0.1)">
       <use xlink:href="#DejaVuSans-31"/>
       <use xlink:href="#DejaVuSans-30" transform="translate(63.623047 0)"/>
       <use xlink:href="#DejaVuSans-30" transform="translate(127.246094 0)"/>
      </g>
     </g>
    </g>
    <g id="ytick_8">
     <g id="line2d_34">
      <g>
       <use xlink:href="#md215f2c4c0" x="72" y="156.021075" style="stroke: #000000; stroke-width: 0.8"/>
      </g>
     </g>
     <g id="text_17">
      <!-- 200 -->
      <g transform="translate(45.9125 159.820293) scale(0.1 -0.1)">
       <use xlink:href="#DejaVuSans-32"/>
       <use xlink:href="#DejaVuSans-30" transform="translate(63.623047 0)"/>
       <use xlink:href="#DejaVuSans-30" transform="translate(127.246094 0)"/>
      </g>
     </g>
    </g>
   </g>
   <g id="line2d_35">
    <path d="M 92.290909 176.276805 
L 94.330196 170.835684 
L 96.369484 163.226446 
L 98.408771 164.355526 
L 100.448058 171.728437 
L 102.487346 165.769109 
L 104.526633 168.041134 
L 106.565921 163.349263 
L 108.605208 166.080102 
L 110.644495 175.777673 
L 112.683783 249.094063 
L 114.72307 162.779323 
L 116.762357 163.771642 
L 118.801645 170.112925 
L 120.840932 161.596258 
L 122.880219 168.697683 
L 124.919507 165.926108 
L 126.958794 180.810804 
L 128.998081 164.277522 
L 131.037369 167.747327 
L 133.076656 174.75354 
L 135.115943 168.112167 
L 137.155231 166.002897 
L 139.194518 166.36056 
L 141.233805 167.925133 
L 143.273093 165.670989 
L 145.31238 161.952821 
L 147.351667 162.129013 
L 149.390955 164.37221 
L 151.430242 162.908401 
L 153.469529 164.122724 
L 155.508817 167.826589 
L 157.548104 164.495599 
L 159.587392 164.933941 
L 161.626679 167.858685 
L 163.665966 168.337224 
L 165.705254 249.808524 
L 167.744541 162.388173 
L 169.783828 168.179155 
L 171.823116 167.310905 
L 173.862403 167.25863 
L 175.90169 172.798171 
L 177.940978 170.953121 
L 179.980265 185.500037 
L 182.019552 169.858022 
L 184.05884 173.085493 
L 186.098127 189.342837 
L 188.137414 173.801801 
L 190.176702 174.698179 
L 192.215989 198.086221 
L 194.255276 193.405172 
L 196.294564 191.252393 
L 198.333851 187.78014 
L 200.373138 172.381168 
L 202.412426 165.184515 
L 204.451713 166.732144 
L 206.491 167.274276 
L 208.530288 175.307427 
L 210.569575 166.347624 
L 212.608862 163.105493 
L 214.64815 169.535098 
L 216.687437 161.37367 
L 218.726725 166.85115 
L 220.766012 167.229937 
L 222.805299 169.877152 
L 224.844587 163.412417 
L 226.883874 177.502618 
L 228.923161 186.449316 
L 230.962449 165.969254 
L 233.001736 171.690746 
L 235.041023 166.364155 
L 237.080311 166.522418 
L 239.119598 168.37477 
L 241.158885 164.69848 
L 243.198173 170.539714 
L 245.23746 161.751825 
L 247.276747 164.457264 
L 249.316035 165.84833 
L 251.355322 171.059354 
L 253.394609 165.859295 
L 255.433897 163.440832 
L 257.473184 168.860121 
L 259.512471 165.441099 
L 261.551759 162.873 
L 263.591046 165.396023 
L 265.630333 167.398052 
L 267.669621 163.586653 
L 269.708908 166.203127 
L 271.748196 165.368162 
L 273.787483 167.506212 
L 275.82677 162.04906 
L 277.866058 250.756054 
L 279.905345 168.462647 
L 281.944632 165.628107 
L 283.98392 163.465446 
L 286.023207 169.582654 
L 288.062494 171.640345 
L 290.101782 169.839204 
L 292.141069 172.49235 
L 294.180356 168.268931 
L 296.219644 167.834981 
L 298.258931 174.058747 
L 300.298218 169.844164 
L 302.337506 165.195603 
L 304.376793 171.385461 
L 306.41608 163.599678 
L 308.455368 166.87852 
L 310.494655 168.561288 
L 312.533942 165.16769 
L 314.57323 250.197736 
L 316.612517 161.609194 
L 318.651804 161.573473 
L 320.691092 163.624241 
L 322.730379 165.021185 
L 324.769667 164.706315 
L 326.808954 164.660922 
L 328.848241 167.10216 
L 330.887529 167.868739 
L 332.926816 164.212326 
L 334.966103 165.240661 
L 337.005391 161.248366 
L 339.044678 164.127833 
L 341.083965 162.533184 
L 343.123253 163.993471 
L 345.16254 166.040934 
L 347.201827 163.823727 
L 349.241115 250.0527 
L 351.280402 164.073458 
L 353.319689 164.017183 
L 355.358977 170.269075 
L 357.398264 167.73943 
L 359.437551 171.715067 
L 361.476839 167.02021 
L 363.516126 166.55448 
L 365.555413 169.973636 
L 367.594701 168.056029 
L 369.633988 170.314315 
L 371.673275 167.069904 
L 373.712563 173.316751 
L 375.75185 177.214242 
L 377.791138 174.91126 
L 379.830425 167.732886 
L 381.869712 179.084368 
L 383.909 171.678126 
L 385.948287 170.525194 
L 387.987574 168.52702 
L 390.026862 172.098044 
L 392.066149 172.0963 
L 394.105436 171.195973 
L 396.144724 248.410111 
L 398.184011 164.856051 
L 400.223298 171.730326 
L 402.262586 171.073692 
L 404.301873 170.035173 
L 406.34116 168.151852 
L 408.380448 172.210033 
L 410.419735 166.579035 
L 412.459022 171.936268 
L 414.49831 164.804561 
L 416.537597 168.380824 
L 418.576884 161.312119 
L 420.616172 169.56387 
L 422.655459 168.287574 
L 424.694746 170.77575 
L 426.734034 167.629508 
L 428.773321 172.354847 
L 430.812608 175.829944 
L 432.851896 172.281345 
L 434.891183 173.481472 
L 436.930471 178.791556 
L 438.969758 169.894442 
L 441.009045 179.23596 
L 443.048333 172.68417 
L 445.08762 174.064555 
L 447.126907 176.093233 
L 449.166195 164.0464 
L 451.205482 169.757083 
L 453.244769 173.057405 
L 455.284057 179.492943 
L 457.323344 180.832578 
L 459.362631 173.55567 
L 461.401919 173.45334 
L 463.441206 176.781463 
L 465.480493 175.56091 
L 467.519781 176.123148 
L 469.559068 175.826547 
L 471.598355 171.338414 
L 473.637643 176.108176 
L 475.67693 177.825686 
L 477.716217 179.943757 
L 479.755505 173.615873 
L 481.794792 177.540226 
L 483.834079 170.673878 
L 485.873367 173.880797 
L 487.912654 177.699015 
L 489.951942 173.181062 
L 491.991229 169.063028 
L 494.030516 169.256038 
L 496.069804 173.569691 
L 498.109091 176.631266 
L 498.109091 176.631266 
" clip-path="url(#peda7db2886)" style="fill: none; stroke: #ff0000; stroke-opacity: 0.9; stroke-width: 1.5; stroke-linecap: square"/>
   </g>
   <g id="line2d_36">
    <path d="M 92.290909 177.108068 
L 96.369484 163.946957 
L 98.408771 164.480968 
L 100.448058 169.748688 
L 102.487346 166.731795 
L 104.526633 167.978947 
L 106.565921 163.116372 
L 108.605208 164.664455 
L 110.644495 176.131311 
L 112.683783 249.336733 
L 114.72307 163.384099 
L 116.762357 164.228504 
L 118.801645 170.878046 
L 120.840932 162.453461 
L 122.880219 168.186096 
L 124.919507 166.858073 
L 126.958794 181.028025 
L 128.998081 163.140076 
L 133.076656 172.827121 
L 135.115943 167.563919 
L 137.155231 166.216535 
L 139.194518 165.898823 
L 141.233805 167.810199 
L 143.273093 165.518248 
L 145.31238 162.059854 
L 147.351667 161.144933 
L 149.390955 165.384199 
L 151.430242 162.932811 
L 153.469529 164.405949 
L 155.508817 169.008657 
L 157.548104 164.154716 
L 161.626679 168.564638 
L 163.665966 169.34065 
L 165.705254 250.124034 
L 167.744541 162.757158 
L 169.783828 168.269013 
L 171.823116 166.856028 
L 173.862403 167.614081 
L 175.90169 173.701998 
L 177.940978 171.956643 
L 179.980265 184.8476 
L 182.019552 169.626213 
L 184.05884 174.013706 
L 186.098127 187.149501 
L 188.137414 173.447205 
L 190.176702 173.972471 
L 192.215989 198.61664 
L 194.255276 193.986327 
L 196.294564 190.076991 
L 198.333851 189.048006 
L 200.373138 172.369991 
L 202.412426 165.105265 
L 204.451713 169.499425 
L 206.491 167.449743 
L 208.530288 174.313853 
L 210.569575 167.131872 
L 212.608862 163.152008 
L 214.64815 168.752873 
L 216.687437 162.236759 
L 218.726725 168.250823 
L 220.766012 167.100855 
L 222.805299 169.992893 
L 224.844587 164.34204 
L 226.883874 178.874071 
L 228.923161 186.759137 
L 230.962449 166.236754 
L 233.001736 171.077373 
L 235.041023 167.33569 
L 237.080311 166.452962 
L 239.119598 169.049338 
L 241.158885 165.199768 
L 243.198173 170.383243 
L 245.23746 163.195983 
L 247.276747 164.974499 
L 249.316035 165.527923 
L 251.355322 170.406784 
L 253.394609 165.503286 
L 255.433897 163.506232 
L 257.473184 168.500234 
L 259.512471 164.259153 
L 261.551759 163.833714 
L 263.591046 165.507941 
L 265.630333 167.826857 
L 267.669621 163.947778 
L 269.708908 166.157601 
L 271.748196 166.038201 
L 273.787483 167.413297 
L 275.82677 162.937704 
L 277.866058 250.441618 
L 279.905345 167.516805 
L 281.944632 165.901136 
L 283.98392 163.608855 
L 286.023207 170.338424 
L 288.062494 172.407456 
L 290.101782 170.657726 
L 292.141069 171.301411 
L 294.180356 166.702685 
L 296.219644 167.295292 
L 298.258931 174.567136 
L 300.298218 169.532662 
L 302.337506 163.986206 
L 304.376793 170.740795 
L 306.41608 164.384744 
L 308.455368 167.532016 
L 310.494655 167.48945 
L 312.533942 163.415897 
L 314.57323 249.963254 
L 316.612517 161.668135 
L 318.651804 162.374728 
L 320.691092 162.689933 
L 322.730379 165.763406 
L 324.769667 165.428126 
L 326.808954 164.9567 
L 328.848241 167.940601 
L 330.887529 166.92824 
L 332.926816 163.907302 
L 334.966103 165.793282 
L 337.005391 162.285319 
L 339.044678 163.439103 
L 341.083965 162.714402 
L 345.16254 165.395309 
L 347.201827 164.109647 
L 349.241115 251.738182 
L 351.280402 163.446175 
L 353.319689 164.71999 
L 355.358977 170.032641 
L 357.398264 166.973245 
L 359.437551 171.673118 
L 361.476839 166.939896 
L 363.516126 166.275494 
L 365.555413 171.223231 
L 367.594701 168.024521 
L 369.633988 169.956986 
L 371.673275 165.648475 
L 373.712563 173.020442 
L 375.75185 175.464472 
L 377.791138 174.36079 
L 379.830425 165.606207 
L 381.869712 177.728627 
L 383.909 171.95252 
L 385.948287 170.914325 
L 387.987574 168.747537 
L 390.026862 172.368195 
L 392.066149 172.255243 
L 394.105436 172.458931 
L 396.144724 250.137828 
L 398.184011 164.801672 
L 400.223298 170.850825 
L 402.262586 172.2034 
L 404.301873 170.708049 
L 406.34116 167.100613 
L 408.380448 173.322436 
L 410.419735 165.897767 
L 412.459022 171.655716 
L 414.49831 165.117256 
L 416.537597 167.752514 
L 418.576884 161.876538 
L 420.616172 169.273956 
L 422.655459 168.050352 
L 424.694746 173.028689 
L 426.734034 167.842101 
L 428.773321 172.595669 
L 430.812608 175.300591 
L 432.851896 172.082636 
L 434.891183 174.602764 
L 436.930471 178.351593 
L 438.969758 170.533943 
L 441.009045 178.605133 
L 443.048333 171.40954 
L 445.08762 174.323671 
L 447.126907 175.414434 
L 449.166195 164.228597 
L 451.205482 169.142316 
L 453.244769 174.471544 
L 455.284057 178.414762 
L 457.323344 179.205102 
L 459.362631 173.465108 
L 461.401919 173.873461 
L 463.441206 176.640812 
L 465.480493 174.993568 
L 467.519781 174.500188 
L 469.559068 176.166263 
L 471.598355 170.124931 
L 473.637643 176.185754 
L 475.67693 178.261921 
L 477.716217 180.751963 
L 479.755505 174.128458 
L 481.794792 176.899532 
L 483.834079 171.560285 
L 485.873367 174.554385 
L 487.912654 179.112972 
L 489.951942 173.57957 
L 491.991229 168.377076 
L 494.030516 168.734825 
L 496.069804 174.386449 
L 498.109091 176.182556 
L 498.109091 176.182556 
" clip-path="url(#peda7db2886)" style="fill: none; stroke: #ff0000; stroke-opacity: 0.9; stroke-width: 1.5; stroke-linecap: square"/>
   </g>
   <g id="line2d_37">
    <path d="M 92.290909 177.029534 
L 96.369484 164.603041 
L 98.408771 163.69173 
L 100.448058 169.084572 
L 102.487346 167.004452 
L 104.526633 168.979406 
L 106.565921 163.003944 
L 108.605208 164.795314 
L 110.644495 176.890905 
L 112.683783 248.094344 
L 114.72307 163.353896 
L 116.762357 163.350855 
L 118.801645 170.301193 
L 120.840932 161.657136 
L 122.880219 168.311133 
L 124.919507 168.075435 
L 126.958794 180.235498 
L 128.998081 164.562895 
L 131.037369 168.021825 
L 133.076656 173.454545 
L 135.115943 167.912431 
L 137.155231 165.648516 
L 141.233805 167.074831 
L 143.273093 164.930233 
L 145.31238 162.031807 
L 147.351667 162.710461 
L 149.390955 164.920291 
L 151.430242 163.572624 
L 153.469529 164.786282 
L 155.508817 168.028358 
L 157.548104 163.149212 
L 159.587392 165.354989 
L 161.626679 169.099976 
L 163.665966 169.226314 
L 165.705254 248.385905 
L 167.744541 163.322046 
L 169.783828 168.752943 
L 171.823116 167.77675 
L 173.862403 166.951743 
L 175.90169 174.084122 
L 177.940978 171.61743 
L 179.980265 185.297206 
L 182.019552 170.065235 
L 184.05884 173.566484 
L 186.098127 188.364007 
L 188.137414 173.229306 
L 190.176702 175.934156 
L 192.215989 197.781484 
L 194.255276 193.142857 
L 196.294564 190.718392 
L 198.333851 188.792761 
L 200.373138 171.344207 
L 202.412426 164.258666 
L 204.451713 168.782544 
L 206.491 166.790714 
L 208.530288 174.116242 
L 210.569575 166.317101 
L 212.608862 164.433315 
L 214.64815 167.548101 
L 216.687437 161.224462 
L 218.726725 168.727756 
L 220.766012 167.204798 
L 222.805299 171.00354 
L 224.844587 163.549441 
L 226.883874 177.651477 
L 228.923161 186.901079 
L 230.962449 166.519916 
L 233.001736 171.309353 
L 235.041023 166.373217 
L 237.080311 166.833113 
L 239.119598 169.012338 
L 241.158885 165.488491 
L 243.198173 170.776591 
L 245.23746 162.252123 
L 247.276747 164.251836 
L 249.316035 165.150311 
L 251.355322 169.907277 
L 253.394609 166.118098 
L 255.433897 164.090733 
L 257.473184 170.485617 
L 259.512471 164.562765 
L 261.551759 163.564229 
L 263.591046 165.543785 
L 265.630333 168.208149 
L 267.669621 165.028168 
L 269.708908 166.272698 
L 271.748196 165.991612 
L 273.787483 166.737365 
L 275.82677 163.276181 
L 277.866058 250.824172 
L 279.905345 167.661117 
L 281.944632 164.402432 
L 283.98392 163.326667 
L 286.023207 169.751439 
L 288.062494 171.642368 
L 290.101782 170.863575 
L 292.141069 171.675713 
L 294.180356 167.417064 
L 296.219644 168.352851 
L 298.258931 174.048559 
L 300.298218 169.873467 
L 302.337506 164.834441 
L 304.376793 170.530124 
L 306.41608 163.350349 
L 308.455368 167.484341 
L 310.494655 168.087419 
L 312.533942 163.208636 
L 314.57323 249.6374 
L 316.612517 161.228749 
L 318.651804 162.462578 
L 320.691092 163.359622 
L 322.730379 167.190895 
L 324.769667 166.68206 
L 326.808954 164.775708 
L 328.848241 168.319677 
L 330.887529 168.136042 
L 332.926816 164.237737 
L 334.966103 166.43588 
L 337.005391 161.825546 
L 339.044678 164.1307 
L 341.083965 162.862057 
L 343.123253 163.635217 
L 345.16254 165.673886 
L 347.201827 164.475268 
L 349.241115 251.456259 
L 351.280402 163.858823 
L 353.319689 163.494906 
L 355.358977 170.849624 
L 357.398264 167.270443 
L 359.437551 170.99713 
L 361.476839 166.933471 
L 363.516126 166.155176 
L 365.555413 169.831136 
L 367.594701 166.759763 
L 369.633988 170.571519 
L 371.673275 165.26477 
L 373.712563 171.278715 
L 375.75185 175.774938 
L 377.791138 174.331719 
L 379.830425 165.688591 
L 381.869712 177.939116 
L 383.909 172.202868 
L 385.948287 169.617847 
L 387.987574 169.346736 
L 390.026862 172.417681 
L 392.066149 172.239496 
L 394.105436 172.476299 
L 396.144724 246.656552 
L 398.184011 166.114202 
L 400.223298 170.536706 
L 402.262586 171.924369 
L 406.34116 168.331829 
L 408.380448 171.94531 
L 410.419735 166.334027 
L 412.459022 171.742221 
L 414.49831 165.288336 
L 416.537597 167.545822 
L 418.576884 160.484647 
L 420.616172 169.081021 
L 422.655459 168.293237 
L 424.694746 171.297239 
L 426.734034 166.760202 
L 428.773321 173.706419 
L 430.812608 175.550991 
L 432.851896 173.579622 
L 434.891183 174.859277 
L 436.930471 178.796529 
L 438.969758 172.030108 
L 441.009045 179.465374 
L 443.048333 172.883132 
L 445.08762 175.310365 
L 447.126907 175.37817 
L 449.166195 163.870309 
L 453.244769 173.644976 
L 455.284057 179.761005 
L 457.323344 180.4252 
L 459.362631 173.94383 
L 461.401919 172.789537 
L 463.441206 176.527109 
L 465.480493 175.239192 
L 467.519781 174.71258 
L 469.559068 174.668166 
L 471.598355 170.14028 
L 473.637643 175.777401 
L 477.716217 179.26688 
L 479.755505 173.040558 
L 481.794792 176.827552 
L 483.834079 171.570101 
L 485.873367 173.633737 
L 487.912654 178.650693 
L 489.951942 172.663958 
L 491.991229 169.733499 
L 494.030516 169.057354 
L 496.069804 174.454143 
L 498.109091 175.574028 
L 498.109091 175.574028 
" clip-path="url(#peda7db2886)" style="fill: none; stroke: #ff0000; stroke-opacity: 0.9; stroke-width: 1.5; stroke-linecap: square"/>
   </g>
   <g id="line2d_38">
    <path d="M 92.290909 177.100085 
L 94.330196 170.312776 
L 96.369484 164.308056 
L 98.408771 164.305386 
L 100.448058 169.517016 
L 102.487346 166.995941 
L 104.526633 168.462327 
L 106.565921 162.22334 
L 108.605208 164.232524 
L 110.644495 176.076081 
L 112.683783 248.215927 
L 114.72307 162.929911 
L 116.762357 164.155337 
L 118.801645 170.405449 
L 120.840932 161.307289 
L 122.880219 168.685621 
L 124.919507 166.613399 
L 126.958794 179.88751 
L 128.998081 164.327256 
L 131.037369 167.415747 
L 133.076656 174.562442 
L 135.115943 168.0579 
L 137.155231 166.234903 
L 139.194518 165.383663 
L 141.233805 167.027647 
L 143.273093 165.343808 
L 145.31238 161.245072 
L 147.351667 160.465066 
L 149.390955 164.811447 
L 151.430242 161.985333 
L 153.469529 165.628549 
L 155.508817 168.561975 
L 157.548104 164.975384 
L 159.587392 166.022328 
L 161.626679 169.398156 
L 163.665966 168.482301 
L 165.705254 249.792138 
L 167.744541 162.651776 
L 169.783828 168.004517 
L 171.823116 168.188524 
L 173.862403 167.237522 
L 175.90169 172.494447 
L 177.940978 171.85392 
L 179.980265 185.228702 
L 182.019552 170.629739 
L 184.05884 172.176186 
L 186.098127 187.248686 
L 188.137414 173.542864 
L 190.176702 174.417677 
L 192.215989 198.07494 
L 194.255276 194.439946 
L 196.294564 190.243127 
L 198.333851 188.59314 
L 200.373138 171.890876 
L 202.412426 165.000846 
L 204.451713 168.963369 
L 206.491 166.724358 
L 208.530288 175.201099 
L 210.569575 166.202037 
L 212.608862 163.240133 
L 214.64815 169.586049 
L 216.687437 162.038143 
L 218.726725 167.431052 
L 220.766012 167.345354 
L 222.805299 169.023262 
L 224.844587 162.936276 
L 226.883874 178.929457 
L 228.923161 187.033881 
L 230.962449 166.408696 
L 233.001736 171.690188 
L 235.041023 166.382204 
L 237.080311 166.956952 
L 239.119598 169.229445 
L 241.158885 164.827246 
L 243.198173 171.580991 
L 245.23746 162.321386 
L 247.276747 164.889999 
L 249.316035 165.173115 
L 251.355322 169.840937 
L 253.394609 167.005702 
L 255.433897 163.118008 
L 257.473184 169.679733 
L 259.512471 165.507372 
L 261.551759 163.008726 
L 263.591046 165.245788 
L 265.630333 168.862661 
L 267.669621 163.021717 
L 269.708908 165.574245 
L 271.748196 165.222835 
L 273.787483 166.032921 
L 275.82677 161.541764 
L 277.866058 251.24574 
L 279.905345 169.212427 
L 281.944632 164.178561 
L 283.98392 163.015534 
L 286.023207 170.518698 
L 288.062494 170.962706 
L 290.101782 171.07345 
L 292.141069 171.93101 
L 294.180356 167.247438 
L 296.219644 167.506766 
L 298.258931 174.25817 
L 300.298218 169.913996 
L 302.337506 165.206657 
L 304.376793 169.921135 
L 306.41608 164.45017 
L 308.455368 167.530953 
L 310.494655 168.684286 
L 312.533942 163.41351 
L 314.57323 249.956762 
L 316.612517 160.101818 
L 318.651804 162.488015 
L 320.691092 163.035534 
L 322.730379 164.95062 
L 324.769667 166.413147 
L 326.808954 163.891838 
L 328.848241 167.913205 
L 330.887529 166.958075 
L 332.926816 163.783745 
L 334.966103 165.172416 
L 337.005391 161.741276 
L 339.044678 163.948068 
L 341.083965 163.780648 
L 343.123253 162.899793 
L 345.16254 164.897372 
L 347.201827 164.830711 
L 349.241115 251.230458 
L 351.280402 163.643795 
L 353.319689 164.631515 
L 355.358977 170.902676 
L 357.398264 167.351519 
L 359.437551 171.464745 
L 361.476839 166.534119 
L 363.516126 167.237652 
L 365.555413 170.643549 
L 367.594701 166.817095 
L 369.633988 170.62034 
L 371.673275 165.842176 
L 373.712563 171.307639 
L 375.75185 176.054647 
L 377.791138 174.670627 
L 379.830425 166.303147 
L 381.869712 178.61752 
L 383.909 171.868146 
L 385.948287 171.07239 
L 387.987574 167.956325 
L 390.026862 172.349582 
L 392.066149 171.783207 
L 394.105436 172.910357 
L 396.144724 248.143819 
L 398.184011 166.107457 
L 400.223298 170.92233 
L 402.262586 171.44818 
L 404.301873 170.86456 
L 406.34116 167.952819 
L 408.380448 172.880942 
L 410.419735 167.28069 
L 412.459022 172.591649 
L 414.49831 164.579047 
L 416.537597 167.586098 
L 418.576884 161.773617 
L 420.616172 169.581308 
L 422.655459 168.248328 
L 424.694746 171.749434 
L 426.734034 168.131141 
L 430.812608 175.716298 
L 432.851896 172.290436 
L 434.891183 174.049905 
L 436.930471 178.902788 
L 438.969758 171.333837 
L 441.009045 178.863314 
L 443.048333 172.103394 
L 445.08762 175.075732 
L 447.126907 175.030812 
L 449.166195 163.595242 
L 451.205482 170.504432 
L 453.244769 173.913405 
L 455.284057 179.436707 
L 457.323344 180.105033 
L 459.362631 174.182408 
L 461.401919 173.465599 
L 463.441206 176.312822 
L 465.480493 173.89527 
L 467.519781 174.936151 
L 469.559068 174.551508 
L 471.598355 171.92882 
L 473.637643 175.664126 
L 475.67693 178.068716 
L 477.716217 179.290235 
L 479.755505 173.756597 
L 481.794792 177.042715 
L 483.834079 171.61469 
L 487.912654 177.995333 
L 489.951942 172.326919 
L 491.991229 169.902856 
L 494.030516 168.425372 
L 496.069804 173.899061 
L 498.109091 176.726941 
L 498.109091 176.726941 
" clip-path="url(#peda7db2886)" style="fill: none; stroke: #ff0000; stroke-opacity: 0.9; stroke-width: 1.5; stroke-linecap: square"/>
   </g>
   <g id="line2d_39">
    <path d="M 92.290909 176.18665 
L 96.369484 164.839791 
L 98.408771 163.504893 
L 100.448058 169.74617 
L 102.487346 167.455785 
L 104.526633 169.424194 
L 106.565921 162.407835 
L 108.605208 166.361248 
L 110.644495 175.484857 
L 112.683783 248.211922 
L 114.72307 162.44698 
L 116.762357 164.91397 
L 118.801645 170.813323 
L 120.840932 161.835016 
L 122.880219 169.029866 
L 124.919507 167.343365 
L 126.958794 180.024422 
L 128.998081 164.958689 
L 131.037369 167.933313 
L 133.076656 173.274007 
L 135.115943 168.681345 
L 137.155231 165.022185 
L 139.194518 165.850747 
L 141.233805 168.254887 
L 143.273093 165.79314 
L 145.31238 161.267392 
L 147.351667 162.404894 
L 149.390955 164.405365 
L 151.430242 163.073174 
L 153.469529 164.146554 
L 155.508817 168.544734 
L 157.548104 163.947507 
L 159.587392 165.927536 
L 161.626679 168.384479 
L 163.665966 168.376752 
L 165.705254 249.602698 
L 167.744541 162.725379 
L 169.783828 168.003844 
L 173.862403 167.515321 
L 175.90169 172.394052 
L 177.940978 171.885603 
L 179.980265 185.597525 
L 182.019552 169.897413 
L 184.05884 173.21257 
L 186.098127 187.126035 
L 188.137414 173.81718 
L 190.176702 174.815125 
L 192.215989 198.160959 
L 194.255276 193.220918 
L 196.294564 191.350324 
L 198.333851 188.311191 
L 200.373138 172.048569 
L 202.412426 164.119709 
L 204.451713 168.298993 
L 206.491 167.612088 
L 208.530288 175.660248 
L 210.569575 166.057235 
L 212.608862 164.201986 
L 214.64815 167.993269 
L 216.687437 162.114738 
L 218.726725 167.531559 
L 220.766012 167.224627 
L 222.805299 169.960325 
L 224.844587 162.38885 
L 226.883874 178.290012 
L 228.923161 186.304746 
L 230.962449 166.779723 
L 233.001736 171.253512 
L 235.041023 166.854188 
L 237.080311 166.994354 
L 239.119598 168.811175 
L 241.158885 165.562993 
L 243.198173 172.182987 
L 245.23746 163.706161 
L 247.276747 165.437027 
L 249.316035 165.783737 
L 251.355322 169.224002 
L 253.394609 166.661197 
L 255.433897 163.633704 
L 257.473184 171.046474 
L 259.512471 164.155374 
L 261.551759 161.211913 
L 263.591046 166.782642 
L 265.630333 169.273015 
L 267.669621 164.420792 
L 269.708908 164.911419 
L 271.748196 164.244269 
L 273.787483 166.881279 
L 275.82677 162.244322 
L 277.866058 249.73429 
L 279.905345 168.797242 
L 281.944632 164.761025 
L 283.98392 164.15083 
L 286.023207 169.496956 
L 288.062494 171.830376 
L 290.101782 169.542453 
L 292.141069 172.530109 
L 294.180356 167.300185 
L 296.219644 167.506483 
L 298.258931 174.388304 
L 300.298218 169.549818 
L 302.337506 166.229318 
L 304.376793 169.834039 
L 306.41608 164.360624 
L 308.455368 168.994885 
L 310.494655 168.370126 
L 312.533942 163.274263 
L 314.57323 249.877452 
L 316.612517 160.657923 
L 318.651804 162.996511 
L 320.691092 162.920812 
L 322.730379 166.015248 
L 324.769667 165.17699 
L 326.808954 163.691165 
L 328.848241 167.370448 
L 330.887529 167.617387 
L 332.926816 164.361204 
L 334.966103 165.624378 
L 337.005391 160.771046 
L 339.044678 163.771557 
L 341.083965 162.619353 
L 343.123253 163.191852 
L 345.16254 166.154258 
L 347.201827 165.335222 
L 349.241115 251.642181 
L 351.280402 163.42471 
L 353.319689 164.658063 
L 355.358977 171.704243 
L 357.398264 169.351433 
L 359.437551 170.893804 
L 361.476839 166.592975 
L 363.516126 167.645664 
L 365.555413 170.058178 
L 367.594701 167.840142 
L 369.633988 170.085232 
L 371.673275 166.610439 
L 373.712563 172.459169 
L 375.75185 176.326276 
L 377.791138 174.18423 
L 379.830425 166.648432 
L 381.869712 178.059303 
L 383.909 171.323467 
L 385.948287 169.573541 
L 387.987574 168.577228 
L 390.026862 172.891955 
L 392.066149 173.070371 
L 394.105436 172.223385 
L 396.144724 248.486216 
L 398.184011 164.063735 
L 400.223298 171.701294 
L 402.262586 172.004426 
L 404.301873 170.897957 
L 406.34116 167.881637 
L 408.380448 171.859471 
L 410.419735 166.744827 
L 412.459022 172.18492 
L 414.49831 165.458039 
L 416.537597 168.189737 
L 418.576884 161.987861 
L 420.616172 168.488849 
L 422.655459 168.912281 
L 424.694746 172.519081 
L 426.734034 167.067268 
L 428.773321 172.576899 
L 430.812608 175.512145 
L 432.851896 173.509102 
L 434.891183 174.190255 
L 436.930471 177.732804 
L 438.969758 171.220469 
L 441.009045 179.305191 
L 443.048333 171.157935 
L 445.08762 174.181926 
L 447.126907 175.186049 
L 449.166195 165.348839 
L 453.244769 173.319347 
L 455.284057 180.111122 
L 457.323344 180.737617 
L 459.362631 173.676895 
L 461.401919 172.83861 
L 463.441206 176.094668 
L 465.480493 175.372347 
L 467.519781 175.112944 
L 469.559068 175.141317 
L 471.598355 170.402976 
L 473.637643 176.015366 
L 475.67693 177.88511 
L 477.716217 180.165782 
L 479.755505 173.592874 
L 481.794792 177.466829 
L 483.834079 171.036625 
L 485.873367 174.289251 
L 487.912654 178.745983 
L 489.951942 172.77298 
L 491.991229 169.92582 
L 494.030516 170.202597 
L 496.069804 173.057792 
L 498.109091 177.136663 
L 498.109091 177.136663 
" clip-path="url(#peda7db2886)" style="fill: none; stroke: #ff0000; stroke-opacity: 0.9; stroke-width: 1.5; stroke-linecap: square"/>
   </g>
   <g id="line2d_40">
    <path d="M 92.290909 170.881768 
L 94.330196 169.153474 
L 96.369484 165.825957 
L 98.408771 163.778064 
L 100.448058 167.030461 
L 102.487346 165.164946 
L 104.526633 167.748926 
L 106.565921 163.636782 
L 108.605208 164.682057 
L 110.644495 174.59551 
L 112.683783 247.306029 
L 114.72307 162.043081 
L 116.762357 163.247038 
L 118.801645 169.613333 
L 120.840932 161.235653 
L 122.880219 167.8523 
L 124.919507 165.798918 
L 126.958794 180.197704 
L 128.998081 163.319053 
L 131.037369 166.187268 
L 133.076656 173.496122 
L 135.115943 167.190059 
L 139.194518 165.812129 
L 141.233805 167.413234 
L 143.273093 164.794362 
L 145.31238 161.773167 
L 147.351667 161.848956 
L 149.390955 164.420524 
L 151.430242 162.820457 
L 153.469529 163.672183 
L 155.508817 167.743866 
L 157.548104 164.110547 
L 159.587392 165.440188 
L 161.626679 168.514832 
L 163.665966 167.909542 
L 165.705254 247.480975 
L 167.744541 163.80424 
L 169.783828 167.866798 
L 171.823116 166.349454 
L 173.862403 166.760221 
L 175.90169 171.956078 
L 177.940978 171.067806 
L 179.980265 183.569005 
L 182.019552 169.011472 
L 184.05884 172.901392 
L 186.098127 188.526586 
L 188.137414 172.215558 
L 190.176702 174.31721 
L 192.215989 195.779706 
L 198.333851 186.990407 
L 200.373138 172.618417 
L 202.412426 164.819349 
L 204.451713 166.850157 
L 206.491 167.041263 
L 208.530288 173.464852 
L 210.569575 166.188834 
L 212.608862 163.622969 
L 214.64815 167.363752 
L 216.687437 161.198527 
L 218.726725 165.880273 
L 220.766012 166.632641 
L 222.805299 169.990517 
L 224.844587 162.72182 
L 226.883874 177.387333 
L 228.923161 186.314637 
L 230.962449 165.832234 
L 233.001736 170.451514 
L 235.041023 167.167455 
L 237.080311 166.215285 
L 239.119598 168.394473 
L 241.158885 165.585437 
L 243.198173 170.648587 
L 245.23746 162.049651 
L 247.276747 164.001882 
L 249.316035 165.172044 
L 251.355322 169.219432 
L 253.394609 165.561685 
L 255.433897 163.039661 
L 257.473184 169.195643 
L 259.512471 163.691708 
L 261.551759 162.443593 
L 263.591046 164.487549 
L 265.630333 167.821428 
L 267.669621 163.828654 
L 269.708908 164.905853 
L 271.748196 164.86158 
L 273.787483 166.587375 
L 275.82677 162.51985 
L 277.866058 248.041791 
L 279.905345 169.059266 
L 281.944632 164.469371 
L 283.98392 162.828723 
L 286.023207 170.049291 
L 288.062494 170.871483 
L 290.101782 169.114916 
L 292.141069 171.181687 
L 294.180356 166.553673 
L 296.219644 167.909472 
L 298.258931 174.644806 
L 300.298218 168.500409 
L 302.337506 166.078269 
L 304.376793 170.663501 
L 306.41608 163.683795 
L 308.455368 167.133411 
L 310.494655 166.810443 
L 312.533942 163.222189 
L 314.57323 247.846064 
L 316.612517 161.542782 
L 318.651804 162.272819 
L 320.691092 162.711558 
L 322.730379 164.74572 
L 324.769667 164.408738 
L 326.808954 164.550558 
L 328.848241 165.768574 
L 330.887529 166.4819 
L 332.926816 164.200677 
L 334.966103 165.849107 
L 337.005391 161.504254 
L 339.044678 162.949692 
L 341.083965 162.257738 
L 343.123253 163.143132 
L 345.16254 164.570447 
L 347.201827 163.785362 
L 349.241115 248.516147 
L 351.280402 164.252531 
L 353.319689 162.522152 
L 355.358977 170.476128 
L 357.398264 167.642767 
L 359.437551 172.283111 
L 361.476839 168.098506 
L 363.516126 167.257228 
L 365.555413 170.145162 
L 367.594701 167.283921 
L 369.633988 170.027592 
L 371.673275 165.266063 
L 373.712563 171.284831 
L 375.75185 176.312266 
L 377.791138 174.194782 
L 379.830425 165.918013 
L 381.869712 177.887469 
L 383.909 171.689337 
L 385.948287 169.758771 
L 387.987574 167.992715 
L 390.026862 171.313272 
L 394.105436 172.806689 
L 396.144724 248.086975 
L 398.184011 166.130149 
L 400.223298 170.437935 
L 402.262586 171.257327 
L 404.301873 170.888862 
L 406.34116 167.96307 
L 408.380448 172.733395 
L 410.419735 166.788453 
L 412.459022 171.008805 
L 414.49831 165.354349 
L 416.537597 166.26312 
L 418.576884 161.342712 
L 420.616172 168.65009 
L 422.655459 167.403473 
L 424.694746 171.345788 
L 426.734034 167.715726 
L 428.773321 171.878866 
L 430.812608 175.069394 
L 432.851896 172.054898 
L 434.891183 173.64254 
L 436.930471 178.063051 
L 438.969758 171.288441 
L 441.009045 177.982769 
L 443.048333 172.120929 
L 445.08762 174.241295 
L 447.126907 175.541739 
L 449.166195 163.855581 
L 451.205482 169.193594 
L 453.244769 172.576174 
L 455.284057 178.225469 
L 457.323344 179.409476 
L 459.362631 174.547106 
L 461.401919 173.216716 
L 463.441206 175.996767 
L 465.480493 175.178665 
L 467.519781 175.774365 
L 469.559068 175.80899 
L 471.598355 169.487129 
L 473.637643 174.878249 
L 475.67693 178.108968 
L 477.716217 178.372646 
L 479.755505 173.492705 
L 481.794792 176.521994 
L 483.834079 170.390966 
L 487.912654 177.464607 
L 489.951942 172.379168 
L 491.991229 169.1392 
L 494.030516 168.374707 
L 496.069804 174.332011 
L 498.109091 175.816147 
L 498.109091 175.816147 
" clip-path="url(#peda7db2886)" style="fill: none; stroke: #008000; stroke-opacity: 0.9; stroke-width: 1.5; stroke-linecap: square"/>
   </g>
   <g id="line2d_41">
    <path d="M 438.969758 256.32 
L 438.969758 155.52 
" clip-path="url(#peda7db2886)" style="fill: none; stroke-dasharray: 5.55,2.4; stroke-dashoffset: 0; stroke: #0000ff; stroke-width: 1.5"/>
   </g>
   <g id="line2d_42">
    <path d="M 153.469529 256.32 
L 153.469529 155.52 
" clip-path="url(#peda7db2886)" style="fill: none; stroke-dasharray: 5.55,2.4; stroke-dashoffset: 0; stroke: #000000; stroke-width: 1.5"/>
   </g>
   <g id="patch_8">
    <path d="M 72 256.32 
L 72 155.52 
" style="fill: none; stroke: #000000; stroke-width: 0.8; stroke-linejoin: miter; stroke-linecap: square"/>
   </g>
   <g id="patch_9">
    <path d="M 518.4 256.32 
L 518.4 155.52 
" style="fill: none; stroke: #000000; stroke-width: 0.8; stroke-linejoin: miter; stroke-linecap: square"/>
   </g>
   <g id="patch_10">
    <path d="M 72 256.32 
L 518.4 256.32 
" style="fill: none; stroke: #000000; stroke-width: 0.8; stroke-linejoin: miter; stroke-linecap: square"/>
   </g>
   <g id="patch_11">
    <path d="M 72 155.52 
L 518.4 155.52 
" style="fill: none; stroke: #000000; stroke-width: 0.8; stroke-linejoin: miter; stroke-linecap: square"/>
   </g>
  </g>
 </g>
 <defs>
  <clipPath id="pa1f75732da">
   <rect x="72" y="34.56" width="446.4" height="100.8"/>
  </clipPath>
  <clipPath id="peda7db2886">
   <rect x="72" y="155.52" width="446.4" height="100.8"/>
  </clipPath>
 </defs>
</svg>
