<?xml version="1.0" encoding="utf-8" standalone="no"?>
<!DOCTYPE svg PUBLIC "-//W3C//DTD SVG 1.1//EN"
  "http://www.w3.org/Graphics/SVG/1.1/DTD/svg11.dtd">
<svg xmlns:xlink="http://www.w3.org/1999/xlink" width="576pt" height="288pt" viewBox="0 0 576 288" xmlns="http://www.w3.org/2000/svg" version="1.1">
 <metadata>
  <rdf:RDF xmlns:dc="http://purl.org/dc/elements/1.1/" xmlns:cc="http://creativecommons.org/ns#" xmlns:rdf="http://www.w3.org/1999/02/22-rdf-syntax-ns#">
   <cc:Work>
    <dc:type rdf:resource="http://purl.org/dc/dcmitype/StillImage"/>
    <dc:date>2025-01-01T00:44:02.200293</dc:date>
    <dc:format>image/svg+xml</dc:format>
    <dc:creator>
     <cc:Agent>
      <dc:title>Matplotlib v3.10.0, https://matplotlib.org/</dc:title>
     </cc:Agent>
    </dc:creator>
   </cc:Work>
  </rdf:RDF>
 </metadata>
 <defs>
  <style type="text/css">*{stroke-linejoin: round; stroke-linecap: butt}</style>
 </defs>
 <g id="figure_1">
  <g id="patch_1">
   <path d="M 0 288 
L 576 288 
L 576 0 
L 0 0 
z
" style="fill: #ffffff"/>
  </g>
  <g id="axes_1">
   <g id="patch_2">
    <path d="M 72 135.36 
L 518.4 135.36 
L 518.4 34.56 
L 72 34.56 
z
" style="fill: #ffffff"/>
   </g>
   <g id="matplotlib.axis_1">
    <g id="xtick_1">
     <g id="line2d_1">
      <defs>
       <path id="m3fb8eedde0" d="M 0 0 
L 0 3.5 
" style="stroke: #000000; stroke-width: 0.8"/>
      </defs>
      <g>
       <use xlink:href="#m3fb8eedde0" x="92.290909" y="135.36" style="stroke: #000000; stroke-width: 0.8"/>
      </g>
     </g>
    </g>
    <g id="xtick_2">
     <g id="line2d_2">
      <g>
       <use xlink:href="#m3fb8eedde0" x="143.273093" y="135.36" style="stroke: #000000; stroke-width: 0.8"/>
      </g>
     </g>
    </g>
    <g id="xtick_3">
     <g id="line2d_3">
      <g>
       <use xlink:href="#m3fb8eedde0" x="194.255276" y="135.36" style="stroke: #000000; stroke-width: 0.8"/>
      </g>
     </g>
    </g>
    <g id="xtick_4">
     <g id="line2d_4">
      <g>
       <use xlink:href="#m3fb8eedde0" x="245.23746" y="135.36" style="stroke: #000000; stroke-width: 0.8"/>
      </g>
     </g>
    </g>
    <g id="xtick_5">
     <g id="line2d_5">
      <g>
       <use xlink:href="#m3fb8eedde0" x="296.219644" y="135.36" style="stroke: #000000; stroke-width: 0.8"/>
      </g>
     </g>
    </g>
    <g id="xtick_6">
     <g id="line2d_6">
      <g>
       <use xlink:href="#m3fb8eedde0" x="347.201827" y="135.36" style="stroke: #000000; stroke-width: 0.8"/>
      </g>
     </g>
    </g>
    <g id="xtick_7">
     <g id="line2d_7">
      <g>
       <use xlink:href="#m3fb8eedde0" x="398.184011" y="135.36" style="stroke: #000000; stroke-width: 0.8"/>
      </g>
     </g>
    </g>
    <g id="xtick_8">
     <g id="line2d_8">
      <g>
       <use xlink:href="#m3fb8eedde0" x="449.166195" y="135.36" style="stroke: #000000; stroke-width: 0.8"/>
      </g>
     </g>
    </g>
    <g id="xtick_9">
     <g id="line2d_9">
      <g>
       <use xlink:href="#m3fb8eedde0" x="500.148378" y="135.36" style="stroke: #000000; stroke-width: 0.8"/>
      </g>
     </g>
    </g>
   </g>
   <g id="matplotlib.axis_2">
    <g id="ytick_1">
     <g id="line2d_10">
      <defs>
       <path id="m67ca2bd2f9" d="M 0 0 
L -3.5 0 
" style="stroke: #000000; stroke-width: 0.8"/>
      </defs>
      <g>
       <use xlink:href="#m67ca2bd2f9" x="72" y="114.114358" style="stroke: #000000; stroke-width: 0.8"/>
      </g>
     </g>
     <g id="text_1">
      <!-- −150 -->
      <g transform="translate(37.532812 117.913577) scale(0.1 -0.1)">
       <defs>
        <path id="DejaVuSans-2212" d="M 678 2272 
L 4684 2272 
L 4684 1741 
L 678 1741 
L 678 2272 
z
" transform="scale(0.015625)"/>
        <path id="DejaVuSans-31" d="M 794 531 
L 1825 531 
L 1825 4091 
L 703 3866 
L 703 4441 
L 1819 4666 
L 2450 4666 
L 2450 531 
L 3481 531 
L 3481 0 
L 794 0 
L 794 531 
z
" transform="scale(0.015625)"/>
        <path id="DejaVuSans-35" d="M 691 4666 
L 3169 4666 
L 3169 4134 
L 1269 4134 
L 1269 2991 
Q 1406 3038 1543 3061 
Q 1681 3084 1819 3084 
Q 2600 3084 3056 2656 
Q 3513 2228 3513 1497 
Q 3513 744 3044 326 
Q 2575 -91 1722 -91 
Q 1428 -91 1123 -41 
Q 819 9 494 109 
L 494 744 
Q 775 591 1075 516 
Q 1375 441 1709 441 
Q 2250 441 2565 725 
Q 2881 1009 2881 1497 
Q 2881 1984 2565 2268 
Q 2250 2553 1709 2553 
Q 1456 2553 1204 2497 
Q 953 2441 691 2322 
L 691 4666 
z
" transform="scale(0.015625)"/>
        <path id="DejaVuSans-30" d="M 2034 4250 
Q 1547 4250 1301 3770 
Q 1056 3291 1056 2328 
Q 1056 1369 1301 889 
Q 1547 409 2034 409 
Q 2525 409 2770 889 
Q 3016 1369 3016 2328 
Q 3016 3291 2770 3770 
Q 2525 4250 2034 4250 
z
M 2034 4750 
Q 2819 4750 3233 4129 
Q 3647 3509 3647 2328 
Q 3647 1150 3233 529 
Q 2819 -91 2034 -91 
Q 1250 -91 836 529 
Q 422 1150 422 2328 
Q 422 3509 836 4129 
Q 1250 4750 2034 4750 
z
" transform="scale(0.015625)"/>
       </defs>
       <use xlink:href="#DejaVuSans-2212"/>
       <use xlink:href="#DejaVuSans-31" transform="translate(83.789062 0)"/>
       <use xlink:href="#DejaVuSans-35" transform="translate(147.412109 0)"/>
       <use xlink:href="#DejaVuSans-30" transform="translate(211.035156 0)"/>
      </g>
     </g>
    </g>
    <g id="ytick_2">
     <g id="line2d_11">
      <g>
       <use xlink:href="#m67ca2bd2f9" x="72" y="77.497373" style="stroke: #000000; stroke-width: 0.8"/>
      </g>
     </g>
     <g id="text_2">
      <!-- −100 -->
      <g transform="translate(37.532812 81.296592) scale(0.1 -0.1)">
       <use xlink:href="#DejaVuSans-2212"/>
       <use xlink:href="#DejaVuSans-31" transform="translate(83.789062 0)"/>
       <use xlink:href="#DejaVuSans-30" transform="translate(147.412109 0)"/>
       <use xlink:href="#DejaVuSans-30" transform="translate(211.035156 0)"/>
      </g>
     </g>
    </g>
    <g id="ytick_3">
     <g id="line2d_12">
      <g>
       <use xlink:href="#m67ca2bd2f9" x="72" y="40.880387" style="stroke: #000000; stroke-width: 0.8"/>
      </g>
     </g>
     <g id="text_3">
      <!-- −50 -->
      <g transform="translate(43.895313 44.679606) scale(0.1 -0.1)">
       <use xlink:href="#DejaVuSans-2212"/>
       <use xlink:href="#DejaVuSans-35" transform="translate(83.789062 0)"/>
       <use xlink:href="#DejaVuSans-30" transform="translate(147.412109 0)"/>
      </g>
     </g>
    </g>
   </g>
   <g id="line2d_13">
    <path d="M 92.290909 63.46406 
L 94.330196 102.186102 
L 96.369484 125.138475 
L 98.408771 101.129509 
L 100.448058 91.590252 
L 102.487346 109.715135 
L 104.526633 98.671149 
L 106.565921 66.819909 
L 108.605208 110.124796 
L 110.644495 46.086072 
L 112.683783 80.860201 
L 114.72307 122.718232 
L 116.762357 118.486695 
L 118.801645 108.919077 
L 120.840932 68.005323 
L 122.880219 114.165158 
L 124.919507 72.01229 
L 126.958794 64.50331 
L 128.998081 87.585823 
L 131.037369 63.770177 
L 133.076656 54.670569 
L 135.115943 55.505156 
L 137.155231 105.293518 
L 139.194518 107.26843 
L 141.233805 120.781302 
L 143.273093 122.631875 
L 145.31238 116.518164 
L 147.351667 113.331207 
L 149.390955 113.66201 
L 151.430242 105.298289 
L 153.469529 103.712086 
L 155.508817 110.310407 
L 157.548104 124.837878 
L 159.587392 107.078853 
L 161.626679 116.051735 
L 163.665966 97.78884 
L 165.705254 93.655299 
L 167.744541 112.002355 
L 169.783828 51.255299 
L 171.823116 58.597776 
L 173.862403 73.53044 
L 175.90169 49.229637 
L 177.940978 47.691928 
L 179.980265 71.995964 
L 182.019552 68.276051 
L 184.05884 70.130188 
L 186.098127 62.641217 
L 188.137414 56.882227 
L 190.176702 67.701692 
L 192.215989 63.260296 
L 194.255276 50.892822 
L 196.294564 66.916647 
L 198.333851 77.659751 
L 200.373138 94.356518 
L 202.412426 72.39654 
L 204.451713 53.419906 
L 206.491 46.376804 
L 208.530288 76.048243 
L 210.569575 58.516168 
L 212.608862 106.776691 
L 214.64815 105.417053 
L 216.687437 93.771029 
L 218.726725 90.213931 
L 220.766012 107.390133 
L 222.805299 119.75878 
L 224.844587 117.388677 
L 226.883874 67.927531 
L 228.923161 60.450148 
L 230.962449 80.31398 
L 233.001736 73.043735 
L 235.041023 45.705366 
L 237.080311 61.466736 
L 239.119598 52.071549 
L 241.158885 73.819007 
L 243.198173 49.351666 
L 245.23746 84.923174 
L 247.276747 48.760769 
L 249.316035 97.855609 
L 251.355322 73.789579 
L 253.394609 112.104972 
L 257.473184 69.491972 
L 259.512471 64.930309 
L 261.551759 57.869359 
L 263.591046 68.430657 
L 265.630333 71.32338 
L 269.708908 49.843936 
L 271.748196 41.771211 
L 273.787483 59.254073 
L 275.82677 45.788687 
L 277.866058 64.80065 
L 279.905345 56.762234 
L 281.944632 78.357802 
L 283.98392 64.250065 
L 286.023207 64.042441 
L 288.062494 54.358395 
L 290.101782 69.902606 
L 292.141069 70.589582 
L 294.180356 54.966333 
L 296.219644 46.798166 
L 298.258931 81.785241 
L 300.298218 54.720704 
L 302.337506 65.130089 
L 304.376793 59.502619 
L 306.41608 48.011936 
L 308.455368 49.277783 
L 310.494655 50.782087 
L 312.533942 62.022009 
L 314.57323 75.696678 
L 316.612517 41.40396 
L 318.651804 58.839092 
L 320.691092 46.871234 
L 322.730379 48.797349 
L 324.769667 56.697997 
L 326.808954 65.189186 
L 328.848241 45.636927 
L 330.887529 46.916061 
L 332.926816 49.780598 
L 334.966103 48.120173 
L 337.005391 54.717301 
L 339.044678 48.107303 
L 341.083965 53.112509 
L 343.123253 52.818756 
L 345.16254 48.562266 
L 347.201827 53.573875 
L 349.241115 56.952074 
L 351.280402 46.645819 
L 353.319689 57.046807 
L 355.358977 55.362613 
L 357.398264 63.036435 
L 359.437551 78.428269 
L 361.476839 52.596325 
L 363.516126 56.237669 
L 365.555413 45.548181 
L 367.594701 70.063503 
L 369.633988 51.823902 
L 371.673275 61.613264 
L 373.712563 57.127811 
L 375.75185 67.974453 
L 377.791138 55.658187 
L 379.830425 87.243092 
L 381.869712 69.193269 
L 383.909 73.530786 
L 385.948287 97.515526 
L 387.987574 74.859023 
L 390.026862 76.476901 
L 392.066149 61.16567 
L 394.105436 65.144074 
L 396.144724 97.849412 
L 398.184011 84.672103 
L 400.223298 85.077339 
L 402.262586 55.288838 
L 404.301873 81.43566 
L 406.34116 72.731561 
L 408.380448 67.378606 
L 410.419735 50.240722 
L 412.459022 67.079266 
L 414.49831 105.425725 
L 416.537597 77.776118 
L 418.576884 111.571596 
L 420.616172 95.919126 
L 422.655459 84.508937 
L 424.694746 77.88835 
L 426.734034 68.279174 
L 428.773321 64.466629 
L 430.812608 66.435396 
L 432.851896 59.202698 
L 434.891183 69.333449 
L 436.930471 58.941524 
L 438.969758 59.11691 
L 441.009045 72.37946 
L 443.048333 51.15718 
L 445.08762 61.719121 
L 447.126907 69.388886 
L 449.166195 67.402302 
L 451.205482 58.742443 
L 453.244769 66.140224 
L 455.284057 63.712354 
L 457.323344 55.816325 
L 459.362631 50.196361 
L 461.401919 57.436762 
L 463.441206 59.044912 
L 465.480493 61.642463 
L 467.519781 58.703282 
L 469.559068 55.552727 
L 471.598355 67.808991 
L 473.637643 68.605898 
L 475.67693 69.939655 
L 477.716217 50.555469 
L 479.755505 66.468819 
L 481.794792 61.445136 
L 483.834079 63.71774 
L 485.873367 68.864042 
L 487.912654 68.956188 
L 489.951942 45.307899 
L 491.991229 54.749641 
L 494.030516 41.610615 
L 496.069804 61.984781 
L 498.109091 58.296945 
L 498.109091 58.296945 
" clip-path="url(#pc3dee9ef79)" style="fill: none; stroke: #ff0000; stroke-opacity: 0.9; stroke-width: 1.5; stroke-linecap: square"/>
   </g>
   <g id="line2d_14">
    <path d="M 92.290909 63.40898 
L 94.330196 106.881911 
L 96.369484 130.778182 
L 98.408771 101.832225 
L 100.448058 88.004435 
L 102.487346 103.358812 
L 104.526633 97.851016 
L 106.565921 69.776696 
L 108.605208 114.545598 
L 110.644495 46.476697 
L 112.683783 80.412193 
L 114.72307 122.270097 
L 116.762357 116.745768 
L 118.801645 106.861719 
L 120.840932 66.16468 
L 122.880219 113.228669 
L 124.919507 71.618228 
L 126.958794 64.025333 
L 128.998081 87.750766 
L 131.037369 63.783682 
L 133.076656 55.760234 
L 135.115943 54.530333 
L 137.155231 106.375187 
L 139.194518 104.088749 
L 141.233805 122.872364 
L 145.31238 117.253353 
L 147.351667 111.914154 
L 149.390955 113.679252 
L 151.430242 109.223139 
L 153.469529 107.182698 
L 155.508817 106.814282 
L 157.548104 122.28411 
L 159.587392 107.763488 
L 161.626679 115.779845 
L 163.665966 96.272741 
L 165.705254 92.543721 
L 167.744541 107.388434 
L 169.783828 47.964184 
L 171.823116 54.750294 
L 173.862403 73.275027 
L 175.90169 50.566923 
L 177.940978 46.53654 
L 179.980265 73.325229 
L 182.019552 68.567613 
L 184.05884 69.912641 
L 186.098127 64.998865 
L 188.137414 56.763033 
L 190.176702 63.915486 
L 192.215989 60.968242 
L 194.255276 52.430019 
L 196.294564 71.274776 
L 198.333851 74.330861 
L 200.373138 94.594587 
L 202.412426 73.837149 
L 204.451713 51.616311 
L 206.491 49.2589 
L 208.530288 74.34546 
L 210.569575 55.910298 
L 212.608862 111.428025 
L 214.64815 106.343876 
L 216.687437 93.836021 
L 218.726725 91.095787 
L 220.766012 107.457337 
L 222.805299 118.695895 
L 224.844587 118.852999 
L 226.883874 68.984678 
L 228.923161 61.751684 
L 230.962449 81.210296 
L 233.001736 73.847922 
L 235.041023 45.505084 
L 237.080311 59.456177 
L 239.119598 52.22492 
L 241.158885 74.406451 
L 243.198173 52.594498 
L 245.23746 82.94953 
L 247.276747 48.92236 
L 249.316035 101.640893 
L 251.355322 73.201258 
L 253.394609 109.988354 
L 255.433897 88.127658 
L 257.473184 70.579827 
L 259.512471 63.011113 
L 261.551759 57.421346 
L 263.591046 67.722254 
L 265.630333 70.369671 
L 267.669621 63.103768 
L 269.708908 50.597309 
L 271.748196 46.309614 
L 273.787483 60.281646 
L 275.82677 51.429757 
L 277.866058 66.483436 
L 279.905345 57.459865 
L 281.944632 77.905788 
L 283.98392 64.714678 
L 286.023207 61.567453 
L 288.062494 53.117683 
L 290.101782 67.133541 
L 292.141069 77.718491 
L 294.180356 54.716826 
L 296.219644 46.937195 
L 298.258931 81.471866 
L 300.298218 60.336497 
L 302.337506 60.40284 
L 304.376793 59.684988 
L 306.41608 47.038713 
L 308.455368 47.846979 
L 310.494655 52.937397 
L 312.533942 55.978742 
L 314.57323 71.211226 
L 316.612517 39.141818 
L 318.651804 58.416558 
L 320.691092 47.794838 
L 322.730379 44.476293 
L 324.769667 58.781146 
L 326.808954 65.87957 
L 328.848241 48.903042 
L 330.887529 48.425615 
L 332.926816 54.038656 
L 334.966103 46.709875 
L 337.005391 56.096813 
L 339.044678 47.602442 
L 341.083965 52.505967 
L 343.123253 54.631497 
L 345.16254 46.706506 
L 347.201827 54.338767 
L 349.241115 54.195536 
L 351.280402 40.200054 
L 353.319689 51.115485 
L 355.358977 54.534255 
L 357.398264 66.419874 
L 359.437551 80.883729 
L 361.476839 50.978978 
L 363.516126 57.520655 
L 365.555413 47.755769 
L 367.594701 70.234246 
L 369.633988 53.774728 
L 371.673275 59.050494 
L 373.712563 54.813258 
L 375.75185 66.873346 
L 377.791138 53.17312 
L 379.830425 93.171863 
L 381.869712 66.135927 
L 383.909 71.751664 
L 385.948287 102.329126 
L 387.987574 72.406195 
L 390.026862 77.217415 
L 392.066149 60.299693 
L 394.105436 63.72097 
L 396.144724 100.788739 
L 398.184011 81.862603 
L 400.223298 83.924616 
L 402.262586 55.507263 
L 404.301873 82.649983 
L 406.34116 74.048042 
L 408.380448 66.927705 
L 410.419735 53.788718 
L 412.459022 70.618463 
L 414.49831 104.921481 
L 416.537597 78.302856 
L 418.576884 115.134601 
L 422.655459 82.235433 
L 424.694746 81.577969 
L 426.734034 68.993869 
L 428.773321 68.291025 
L 430.812608 64.863356 
L 432.851896 60.871269 
L 434.891183 68.769885 
L 436.930471 62.39975 
L 438.969758 57.786276 
L 441.009045 71.621737 
L 443.048333 47.238409 
L 445.08762 60.642938 
L 447.126907 69.106582 
L 449.166195 69.01547 
L 451.205482 57.226087 
L 453.244769 62.320913 
L 455.284057 65.32441 
L 457.323344 57.380017 
L 459.362631 55.07842 
L 461.401919 61.827956 
L 463.441206 63.61024 
L 465.480493 63.998821 
L 467.519781 60.792292 
L 469.559068 53.746836 
L 471.598355 67.093497 
L 473.637643 66.990528 
L 475.67693 76.771928 
L 477.716217 50.904209 
L 479.755505 67.07892 
L 481.794792 61.443532 
L 483.834079 63.400705 
L 485.873367 68.337427 
L 487.912654 67.797191 
L 489.951942 46.416592 
L 491.991229 53.537005 
L 494.030516 41.131626 
L 496.069804 67.012995 
L 498.109091 58.733375 
L 498.109091 58.733375 
" clip-path="url(#pc3dee9ef79)" style="fill: none; stroke: #ff0000; stroke-opacity: 0.9; stroke-width: 1.5; stroke-linecap: square"/>
   </g>
   <g id="line2d_15">
    <path d="M 92.290909 63.797711 
L 94.330196 99.940239 
L 96.369484 126.947009 
L 98.408771 101.848763 
L 100.448058 88.976275 
L 102.487346 105.663263 
L 104.526633 99.081805 
L 106.565921 66.923928 
L 108.605208 113.324559 
L 110.644495 50.475411 
L 112.683783 80.04675 
L 114.72307 119.641447 
L 116.762357 119.878013 
L 118.801645 110.634828 
L 120.840932 67.165651 
L 122.880219 114.334722 
L 124.919507 68.473428 
L 126.958794 68.582012 
L 128.998081 87.924302 
L 131.037369 64.345251 
L 133.076656 52.80985 
L 135.115943 49.93471 
L 137.155231 103.8475 
L 139.194518 108.537587 
L 141.233805 122.692396 
L 143.273093 120.894356 
L 145.31238 116.96231 
L 147.351667 114.164476 
L 149.390955 112.308641 
L 151.430242 108.06765 
L 153.469529 102.54997 
L 155.508817 114.669379 
L 157.548104 124.506529 
L 159.587392 106.991512 
L 161.626679 117.713669 
L 163.665966 98.403238 
L 165.705254 92.74364 
L 167.744541 109.000775 
L 169.783828 49.902866 
L 171.823116 55.093903 
L 173.862403 73.331783 
L 175.90169 50.549144 
L 177.940978 44.138383 
L 179.980265 72.819125 
L 182.019552 68.723136 
L 184.05884 70.576078 
L 186.098127 68.092698 
L 188.137414 55.76876 
L 190.176702 68.115516 
L 192.215989 64.221715 
L 194.255276 48.924952 
L 196.294564 67.489419 
L 198.333851 77.282066 
L 200.373138 95.58824 
L 202.412426 70.30278 
L 204.451713 54.151346 
L 206.491 44.485017 
L 208.530288 74.925915 
L 210.569575 58.307002 
L 212.608862 109.96976 
L 214.64815 106.640472 
L 216.687437 89.409408 
L 218.726725 90.468243 
L 220.766012 107.970956 
L 222.805299 117.888172 
L 224.844587 118.386034 
L 226.883874 66.134145 
L 228.923161 61.519397 
L 230.962449 77.171448 
L 233.001736 72.099608 
L 235.041023 42.072049 
L 237.080311 60.792399 
L 239.119598 56.475342 
L 241.158885 74.984464 
L 243.198173 53.428561 
L 245.23746 84.406057 
L 247.276747 48.957099 
L 249.316035 100.314835 
L 251.355322 73.703736 
L 253.394609 112.490865 
L 257.473184 71.222557 
L 259.512471 68.102928 
L 261.551759 60.252206 
L 263.591046 67.793319 
L 265.630333 69.553824 
L 267.669621 59.674037 
L 269.708908 50.690148 
L 271.748196 46.390153 
L 273.787483 58.216012 
L 275.82677 47.643567 
L 277.866058 66.693418 
L 279.905345 55.514884 
L 281.944632 75.185272 
L 283.98392 64.90863 
L 286.023207 59.467765 
L 288.062494 56.061982 
L 290.101782 72.508973 
L 292.141069 75.430398 
L 294.180356 50.244619 
L 296.219644 42.897965 
L 298.258931 81.822307 
L 300.298218 59.959795 
L 302.337506 65.80365 
L 304.376793 64.214569 
L 306.41608 47.302661 
L 308.455368 48.023323 
L 310.494655 53.235134 
L 312.533942 57.33747 
L 314.57323 73.210203 
L 316.612517 45.813165 
L 318.651804 56.676759 
L 320.691092 46.75806 
L 322.730379 44.526112 
L 324.769667 55.269858 
L 326.808954 64.011934 
L 328.848241 48.817841 
L 330.887529 45.602571 
L 332.926816 52.524065 
L 334.966103 46.861436 
L 337.005391 57.740415 
L 339.044678 46.648443 
L 341.083965 51.770823 
L 343.123253 55.563594 
L 345.16254 49.096729 
L 349.241115 55.32558 
L 351.280402 42.867489 
L 353.319689 53.100122 
L 355.358977 55.761133 
L 357.398264 63.862379 
L 359.437551 80.850328 
L 361.476839 51.255198 
L 363.516126 57.498043 
L 365.555413 46.103574 
L 367.594701 70.646075 
L 369.633988 56.068173 
L 371.673275 60.597781 
L 373.712563 50.26661 
L 375.75185 66.724472 
L 377.791138 53.959617 
L 379.830425 88.617743 
L 381.869712 63.704202 
L 383.909 72.379778 
L 385.948287 95.337107 
L 387.987574 70.269737 
L 390.026862 79.708947 
L 392.066149 65.038027 
L 394.105436 63.632321 
L 396.144724 99.242485 
L 398.184011 82.60724 
L 400.223298 84.483905 
L 402.262586 57.869543 
L 404.301873 81.014142 
L 406.34116 74.441366 
L 408.380448 66.362018 
L 410.419735 50.259434 
L 412.459022 66.718231 
L 414.49831 105.738457 
L 416.537597 80.995179 
L 418.576884 115.048243 
L 420.616172 98.682123 
L 422.655459 84.838113 
L 424.694746 77.929562 
L 426.734034 67.303898 
L 428.773321 67.094162 
L 430.812608 64.262106 
L 432.851896 60.064523 
L 434.891183 67.636125 
L 436.930471 58.700192 
L 438.969758 63.495052 
L 441.009045 72.45276 
L 443.048333 47.876022 
L 445.08762 61.768278 
L 447.126907 67.923978 
L 449.166195 67.340964 
L 451.205482 57.934675 
L 453.244769 63.328958 
L 455.284057 64.251004 
L 457.323344 62.030071 
L 459.362631 52.686555 
L 461.401919 57.47466 
L 463.441206 59.628836 
L 465.480493 62.241573 
L 467.519781 61.286674 
L 469.559068 53.841781 
L 471.598355 69.942818 
L 473.637643 69.865271 
L 475.67693 69.663301 
L 477.716217 52.529529 
L 479.755505 64.752538 
L 481.794792 63.672293 
L 483.834079 63.642809 
L 485.873367 66.417058 
L 487.912654 72.228217 
L 489.951942 46.997655 
L 491.991229 53.803475 
L 494.030516 45.900559 
L 496.069804 62.43024 
L 498.109091 58.315075 
L 498.109091 58.315075 
" clip-path="url(#pc3dee9ef79)" style="fill: none; stroke: #ff0000; stroke-opacity: 0.9; stroke-width: 1.5; stroke-linecap: square"/>
   </g>
   <g id="line2d_16">
    <path d="M 92.290909 64.235963 
L 94.330196 105.784944 
L 96.369484 126.821015 
L 98.408771 104.828128 
L 100.448058 88.194688 
L 102.487346 106.69239 
L 104.526633 97.55676 
L 106.565921 66.000608 
L 108.605208 116.008199 
L 110.644495 45.740796 
L 112.683783 80.016064 
L 114.72307 121.981378 
L 116.762357 118.225232 
L 118.801645 110.366202 
L 120.840932 66.601104 
L 122.880219 113.001534 
L 124.919507 69.748212 
L 126.958794 68.953205 
L 128.998081 86.066013 
L 131.037369 64.520167 
L 133.076656 52.276424 
L 135.115943 53.308517 
L 137.155231 109.283124 
L 139.194518 106.564943 
L 141.233805 122.331769 
L 143.273093 118.806356 
L 145.31238 118.213532 
L 147.351667 113.446038 
L 149.390955 113.383762 
L 151.430242 108.162321 
L 153.469529 104.701185 
L 155.508817 112.810638 
L 157.548104 125.683607 
L 159.587392 107.136681 
L 161.626679 116.942196 
L 163.665966 95.083918 
L 165.705254 90.601494 
L 167.744541 108.505572 
L 169.783828 47.701296 
L 171.823116 59.28254 
L 173.862403 72.705881 
L 175.90169 47.365669 
L 177.940978 47.202776 
L 179.980265 71.579849 
L 182.019552 65.947585 
L 184.05884 73.443697 
L 186.098127 68.016537 
L 188.137414 54.776108 
L 190.176702 65.416187 
L 192.215989 60.907167 
L 194.255276 50.287705 
L 196.294564 68.391825 
L 198.333851 77.47409 
L 200.373138 95.473437 
L 202.412426 71.997176 
L 204.451713 56.063641 
L 206.491 45.957117 
L 208.530288 76.605521 
L 210.569575 54.596582 
L 212.608862 108.387512 
L 214.64815 104.693508 
L 216.687437 92.071996 
L 218.726725 91.411777 
L 220.766012 107.506908 
L 222.805299 121.35656 
L 224.844587 114.813643 
L 226.883874 65.985428 
L 228.923161 60.155663 
L 230.962449 79.650314 
L 233.001736 77.178036 
L 235.041023 41.128213 
L 237.080311 62.507278 
L 239.119598 49.402162 
L 241.158885 74.093964 
L 243.198173 50.511295 
L 245.23746 85.291746 
L 247.276747 51.368788 
L 249.316035 99.730078 
L 251.355322 75.135444 
L 253.394609 110.894437 
L 255.433897 88.364509 
L 257.473184 72.629615 
L 259.512471 64.021997 
L 261.551759 58.737331 
L 263.591046 68.92795 
L 265.630333 70.163148 
L 267.669621 62.380859 
L 269.708908 51.930704 
L 271.748196 43.808157 
L 273.787483 59.479113 
L 275.82677 51.565394 
L 277.866058 65.706565 
L 279.905345 55.390097 
L 281.944632 78.231797 
L 283.98392 66.582348 
L 286.023207 58.208447 
L 288.062494 54.67348 
L 290.101782 70.743719 
L 292.141069 74.323675 
L 294.180356 55.384845 
L 296.219644 44.760069 
L 298.258931 82.260497 
L 300.298218 58.16742 
L 302.337506 65.465433 
L 304.376793 63.020623 
L 306.41608 48.306557 
L 310.494655 52.587291 
L 312.533942 58.786432 
L 314.57323 72.666832 
L 316.612517 41.045235 
L 318.651804 54.378085 
L 320.691092 49.30425 
L 322.730379 43.045193 
L 324.769667 57.669825 
L 326.808954 63.388363 
L 328.848241 46.639802 
L 330.887529 48.075416 
L 332.926816 50.925955 
L 334.966103 44.808659 
L 337.005391 57.460128 
L 339.044678 48.309443 
L 341.083965 49.592943 
L 343.123253 53.470907 
L 345.16254 50.693567 
L 347.201827 53.355942 
L 349.241115 54.56541 
L 351.280402 43.211158 
L 353.319689 54.036342 
L 355.358977 55.499413 
L 357.398264 61.248971 
L 359.437551 83.686664 
L 361.476839 52.628877 
L 363.516126 57.237222 
L 365.555413 42.225973 
L 367.594701 68.467964 
L 369.633988 54.615003 
L 371.673275 58.109021 
L 373.712563 57.544418 
L 375.75185 64.655296 
L 377.791138 53.485367 
L 379.830425 89.153845 
L 381.869712 66.607099 
L 383.909 72.619144 
L 385.948287 98.306164 
L 387.987574 72.289957 
L 390.026862 80.083559 
L 392.066149 66.480592 
L 394.105436 63.738927 
L 396.144724 101.324294 
L 398.184011 81.862849 
L 400.223298 81.295882 
L 402.262586 59.047689 
L 404.301873 83.41122 
L 406.34116 72.613344 
L 408.380448 70.276123 
L 410.419735 50.989591 
L 412.459022 70.313295 
L 414.49831 108.050989 
L 416.537597 79.347029 
L 418.576884 113.858359 
L 420.616172 97.305896 
L 422.655459 85.458651 
L 424.694746 78.490958 
L 426.734034 63.966275 
L 428.773321 69.658792 
L 430.812608 62.19488 
L 432.851896 60.796796 
L 434.891183 70.172534 
L 436.930471 58.955616 
L 438.969758 60.763021 
L 441.009045 72.244498 
L 443.048333 49.419446 
L 445.08762 59.711612 
L 447.126907 74.874148 
L 449.166195 63.852137 
L 451.205482 57.467916 
L 453.244769 65.276957 
L 455.284057 61.891478 
L 457.323344 57.596017 
L 459.362631 55.209118 
L 461.401919 58.401137 
L 463.441206 59.902614 
L 465.480493 61.160747 
L 467.519781 60.538495 
L 469.559068 56.891457 
L 471.598355 68.602216 
L 473.637643 68.294606 
L 475.67693 69.57415 
L 477.716217 54.849206 
L 479.755505 65.464797 
L 481.794792 60.836209 
L 483.834079 61.70746 
L 485.873367 67.833759 
L 487.912654 65.514809 
L 489.951942 49.84792 
L 491.991229 51.412464 
L 494.030516 45.03818 
L 496.069804 65.23156 
L 498.109091 57.511179 
L 498.109091 57.511179 
" clip-path="url(#pc3dee9ef79)" style="fill: none; stroke: #ff0000; stroke-opacity: 0.9; stroke-width: 1.5; stroke-linecap: square"/>
   </g>
   <g id="line2d_17">
    <path d="M 92.290909 62.415791 
L 94.330196 103.825866 
L 96.369484 124.903641 
L 98.408771 104.29986 
L 100.448058 90.667262 
L 102.487346 101.86253 
L 104.526633 96.316987 
L 106.565921 65.083848 
L 108.605208 114.438042 
L 110.644495 43.546112 
L 112.683783 79.673456 
L 114.72307 123.631813 
L 116.762357 120.452791 
L 118.801645 106.655826 
L 120.840932 67.129217 
L 122.880219 114.201218 
L 124.919507 69.306926 
L 126.958794 66.646026 
L 128.998081 86.576453 
L 131.037369 66.108594 
L 133.076656 56.074106 
L 135.115943 52.335515 
L 137.155231 106.475468 
L 139.194518 107.716532 
L 141.233805 119.42714 
L 143.273093 118.97154 
L 145.31238 115.550051 
L 147.351667 114.340599 
L 149.390955 113.854302 
L 151.430242 107.404816 
L 153.469529 105.084496 
L 155.508817 108.189688 
L 157.548104 125.220374 
L 159.587392 110.262836 
L 161.626679 120.365752 
L 163.665966 96.371173 
L 165.705254 93.460934 
L 167.744541 108.378528 
L 169.783828 48.903693 
L 171.823116 55.079616 
L 173.862403 73.567014 
L 175.90169 49.384313 
L 177.940978 44.883582 
L 179.980265 69.601075 
L 182.019552 65.93622 
L 184.05884 72.398853 
L 186.098127 66.770377 
L 188.137414 56.826901 
L 190.176702 65.188046 
L 192.215989 62.306135 
L 194.255276 49.133862 
L 196.294564 68.372627 
L 198.333851 74.771694 
L 200.373138 97.118179 
L 202.412426 70.051602 
L 206.491 44.09535 
L 208.530288 74.613361 
L 210.569575 54.899163 
L 212.608862 107.037887 
L 214.64815 109.479451 
L 216.687437 97.097417 
L 218.726725 87.885163 
L 220.766012 107.651876 
L 222.805299 118.13731 
L 224.844587 118.016702 
L 226.883874 68.587985 
L 228.923161 60.847897 
L 230.962449 84.176397 
L 233.001736 70.834893 
L 235.041023 42.197797 
L 237.080311 60.270896 
L 239.119598 52.725454 
L 241.158885 75.336615 
L 243.198173 48.694018 
L 245.23746 82.798902 
L 247.276747 53.470303 
L 249.316035 96.339431 
L 251.355322 73.630927 
L 253.394609 112.564606 
L 255.433897 88.445508 
L 257.473184 70.727125 
L 259.512471 64.526827 
L 261.551759 58.81857 
L 263.591046 69.874284 
L 265.630333 65.990087 
L 267.669621 63.964895 
L 269.708908 52.051216 
L 271.748196 41.503716 
L 273.787483 61.0772 
L 275.82677 51.512505 
L 277.866058 67.195393 
L 279.905345 58.084778 
L 281.944632 76.799188 
L 283.98392 66.380629 
L 286.023207 60.505496 
L 288.062494 55.496949 
L 290.101782 70.160019 
L 292.141069 76.900408 
L 294.180356 55.42751 
L 296.219644 46.026472 
L 298.258931 79.345336 
L 300.298218 60.436224 
L 302.337506 64.882644 
L 304.376793 59.215839 
L 306.41608 47.736873 
L 308.455368 50.986664 
L 310.494655 50.556231 
L 312.533942 57.675708 
L 314.57323 72.858555 
L 316.612517 44.247026 
L 318.651804 54.476661 
L 320.691092 46.028877 
L 322.730379 42.075007 
L 324.769667 57.482114 
L 326.808954 65.112466 
L 328.848241 48.532433 
L 330.887529 47.388898 
L 332.926816 48.56944 
L 334.966103 50.801159 
L 337.005391 54.717251 
L 339.044678 45.530654 
L 341.083965 50.782587 
L 343.123253 52.34065 
L 345.16254 51.2281 
L 347.201827 55.728062 
L 349.241115 56.367507 
L 351.280402 41.806073 
L 353.319689 56.637262 
L 355.358977 53.917785 
L 357.398264 65.310766 
L 359.437551 79.352979 
L 361.476839 49.134943 
L 363.516126 57.975021 
L 365.555413 47.868004 
L 367.594701 69.845341 
L 369.633988 51.571736 
L 371.673275 62.073798 
L 373.712563 50.743339 
L 375.75185 68.245907 
L 377.791138 52.312507 
L 379.830425 88.826445 
L 381.869712 63.760103 
L 383.909 72.884524 
L 385.948287 101.453942 
L 387.987574 73.220836 
L 390.026862 78.111127 
L 392.066149 60.811462 
L 394.105436 63.905826 
L 396.144724 98.748299 
L 398.184011 85.497734 
L 400.223298 85.655173 
L 402.262586 58.212492 
L 404.301873 80.491014 
L 406.34116 75.25204 
L 408.380448 67.64264 
L 410.419735 51.460683 
L 412.459022 66.61557 
L 414.49831 103.517089 
L 416.537597 77.744561 
L 418.576884 113.160672 
L 420.616172 101.012812 
L 422.655459 82.38876 
L 424.694746 79.808379 
L 426.734034 66.562541 
L 428.773321 66.540359 
L 430.812608 62.659252 
L 432.851896 60.338804 
L 434.891183 72.891045 
L 436.930471 63.323343 
L 438.969758 61.204222 
L 441.009045 75.545156 
L 443.048333 48.052656 
L 445.08762 61.382916 
L 447.126907 72.428181 
L 449.166195 65.303089 
L 451.205482 56.070486 
L 453.244769 61.207083 
L 455.284057 64.804114 
L 457.323344 56.338509 
L 459.362631 53.986392 
L 461.401919 61.347403 
L 463.441206 60.987725 
L 465.480493 61.405667 
L 467.519781 60.826431 
L 469.559068 54.287911 
L 471.598355 66.78867 
L 473.637643 68.134843 
L 475.67693 69.11798 
L 477.716217 51.640566 
L 479.755505 65.229688 
L 481.794792 60.547982 
L 483.834079 64.19488 
L 485.873367 71.709424 
L 487.912654 68.223133 
L 489.951942 49.693286 
L 491.991229 51.462353 
L 494.030516 47.255607 
L 496.069804 63.577772 
L 498.109091 61.291937 
L 498.109091 61.291937 
" clip-path="url(#pc3dee9ef79)" style="fill: none; stroke: #ff0000; stroke-opacity: 0.9; stroke-width: 1.5; stroke-linecap: square"/>
   </g>
   <g id="line2d_18">
    <path d="M 92.290909 109.98746 
L 94.330196 99.175448 
L 96.369484 117.816777 
L 98.408771 99.33729 
L 100.448058 90.538274 
L 102.487346 102.997145 
L 104.526633 97.51447 
L 106.565921 66.977404 
L 108.605208 110.355664 
L 110.644495 47.92241 
L 112.683783 80.536433 
L 114.72307 116.549274 
L 116.762357 118.628512 
L 118.801645 110.352021 
L 120.840932 69.740356 
L 122.880219 110.268904 
L 124.919507 68.331063 
L 126.958794 64.14965 
L 128.998081 84.514865 
L 131.037369 64.029579 
L 133.076656 51.393154 
L 135.115943 53.558186 
L 137.155231 103.301989 
L 139.194518 107.228391 
L 141.233805 122.319812 
L 143.273093 118.596788 
L 145.31238 118.710679 
L 147.351667 111.103872 
L 149.390955 115.613768 
L 151.430242 107.263558 
L 153.469529 105.796767 
L 155.508817 112.268647 
L 157.548104 125.195455 
L 159.587392 107.574425 
L 161.626679 120.853144 
L 163.665966 94.549548 
L 165.705254 93.757882 
L 167.744541 110.668564 
L 169.783828 51.334113 
L 171.823116 55.614684 
L 173.862403 74.779097 
L 175.90169 52.06005 
L 177.940978 44.999868 
L 179.980265 69.040724 
L 182.019552 64.745425 
L 184.05884 70.78687 
L 186.098127 66.231817 
L 188.137414 60.23921 
L 190.176702 68.713705 
L 192.215989 62.114881 
L 194.255276 49.235383 
L 196.294564 68.977118 
L 198.333851 74.614154 
L 200.373138 91.612473 
L 202.412426 71.124891 
L 204.451713 53.619797 
L 206.491 44.290003 
L 208.530288 73.120096 
L 210.569575 58.867727 
L 212.608862 109.430529 
L 214.64815 104.011342 
L 216.687437 92.533178 
L 218.726725 91.226681 
L 220.766012 107.161567 
L 222.805299 118.212101 
L 224.844587 117.346728 
L 226.883874 70.074013 
L 228.923161 59.095768 
L 230.962449 78.690626 
L 233.001736 73.378403 
L 235.041023 45.671234 
L 237.080311 59.880807 
L 239.119598 52.942029 
L 241.158885 74.084734 
L 243.198173 53.42913 
L 245.23746 80.65285 
L 247.276747 51.617641 
L 249.316035 100.2736 
L 251.355322 76.722815 
L 253.394609 108.611183 
L 257.473184 72.004171 
L 259.512471 65.788475 
L 261.551759 57.921779 
L 263.591046 68.85788 
L 265.630333 64.443409 
L 267.669621 61.402242 
L 269.708908 49.992743 
L 271.748196 41.31582 
L 273.787483 62.576666 
L 275.82677 51.014452 
L 277.866058 65.877956 
L 279.905345 55.163241 
L 281.944632 81.268225 
L 283.98392 64.994105 
L 286.023207 63.475659 
L 288.062494 54.177975 
L 290.101782 67.484899 
L 292.141069 75.01596 
L 294.180356 55.306617 
L 296.219644 43.3318 
L 298.258931 78.465374 
L 300.298218 56.350768 
L 302.337506 61.30138 
L 304.376793 58.992743 
L 306.41608 46.440846 
L 308.455368 47.144752 
L 310.494655 57.404651 
L 312.533942 61.520514 
L 314.57323 72.533787 
L 316.612517 42.339197 
L 318.651804 57.621003 
L 320.691092 47.819777 
L 322.730379 44.014457 
L 326.808954 63.394447 
L 328.848241 47.663623 
L 332.926816 49.203432 
L 334.966103 47.567102 
L 337.005391 57.324457 
L 339.044678 42.742794 
L 341.083965 51.549895 
L 343.123253 57.357053 
L 345.16254 50.226094 
L 347.201827 53.859281 
L 349.241115 55.734426 
L 351.280402 43.0993 
L 353.319689 59.348141 
L 355.358977 58.674596 
L 357.398264 65.345055 
L 359.437551 82.643608 
L 361.476839 49.284172 
L 363.516126 57.003119 
L 365.555413 47.511243 
L 367.594701 70.202918 
L 369.633988 54.234569 
L 371.673275 63.01865 
L 373.712563 53.16732 
L 375.75185 68.649624 
L 377.791138 51.409196 
L 379.830425 92.904443 
L 381.869712 66.825876 
L 383.909 72.509733 
L 385.948287 98.576254 
L 387.987574 72.340578 
L 390.026862 79.788393 
L 392.066149 62.791878 
L 394.105436 67.185492 
L 396.144724 99.422441 
L 398.184011 82.93241 
L 400.223298 83.185186 
L 402.262586 59.881092 
L 404.301873 79.659136 
L 406.34116 68.684125 
L 408.380448 69.554963 
L 410.419735 48.609158 
L 412.459022 69.000736 
L 414.49831 103.421032 
L 416.537597 78.296576 
L 418.576884 110.699719 
L 420.616172 103.998938 
L 422.655459 85.47824 
L 424.694746 80.715774 
L 426.734034 62.260335 
L 428.773321 66.623627 
L 430.812608 65.1027 
L 432.851896 64.193572 
L 434.891183 71.227167 
L 436.930471 60.853429 
L 438.969758 60.828085 
L 441.009045 71.299025 
L 443.048333 49.413518 
L 445.08762 61.04875 
L 447.126907 69.844531 
L 449.166195 66.887001 
L 451.205482 57.425129 
L 453.244769 64.887063 
L 455.284057 63.004733 
L 457.323344 54.210074 
L 459.362631 51.25664 
L 461.401919 61.105712 
L 463.441206 61.051354 
L 465.480493 63.113031 
L 467.519781 55.870829 
L 469.559068 57.126225 
L 471.598355 68.237538 
L 473.637643 68.348468 
L 475.67693 70.573669 
L 477.716217 51.470974 
L 479.755505 65.569229 
L 481.794792 58.737632 
L 483.834079 62.283735 
L 485.873367 66.753269 
L 487.912654 67.322135 
L 489.951942 48.12221 
L 491.991229 51.124659 
L 494.030516 45.634019 
L 496.069804 64.973812 
L 498.109091 59.598631 
L 498.109091 59.598631 
" clip-path="url(#pc3dee9ef79)" style="fill: none; stroke: #008000; stroke-opacity: 0.9; stroke-width: 1.5; stroke-linecap: square"/>
   </g>
   <g id="line2d_19">
    <path d="M 153.469529 135.36 
L 153.469529 34.56 
" clip-path="url(#pc3dee9ef79)" style="fill: none; stroke-dasharray: 5.55,2.4; stroke-dashoffset: 0; stroke: #000000; stroke-width: 1.5"/>
   </g>
   <g id="line2d_20">
    <path d="M 438.969758 135.36 
L 438.969758 34.56 
" clip-path="url(#pc3dee9ef79)" style="fill: none; stroke-dasharray: 5.55,2.4; stroke-dashoffset: 0; stroke: #0000ff; stroke-width: 1.5"/>
   </g>
   <g id="patch_3">
    <path d="M 72 135.36 
L 72 34.56 
" style="fill: none; stroke: #000000; stroke-width: 0.8; stroke-linejoin: miter; stroke-linecap: square"/>
   </g>
   <g id="patch_4">
    <path d="M 518.4 135.36 
L 518.4 34.56 
" style="fill: none; stroke: #000000; stroke-width: 0.8; stroke-linejoin: miter; stroke-linecap: square"/>
   </g>
   <g id="patch_5">
    <path d="M 72 135.36 
L 518.4 135.36 
" style="fill: none; stroke: #000000; stroke-width: 0.8; stroke-linejoin: miter; stroke-linecap: square"/>
   </g>
   <g id="patch_6">
    <path d="M 72 34.56 
L 518.4 34.56 
" style="fill: none; stroke: #000000; stroke-width: 0.8; stroke-linejoin: miter; stroke-linecap: square"/>
   </g>
  </g>
  <g id="axes_2">
   <g id="patch_7">
    <path d="M 72 256.32 
L 518.4 256.32 
L 518.4 155.52 
L 72 155.52 
z
" style="fill: #ffffff"/>
   </g>
   <g id="matplotlib.axis_3">
    <g id="xtick_10">
     <g id="line2d_21">
      <g>
       <use xlink:href="#m3fb8eedde0" x="92.290909" y="256.32" style="stroke: #000000; stroke-width: 0.8"/>
      </g>
     </g>
     <g id="text_4">
      <!-- 0 -->
      <g transform="translate(89.109659 270.918437) scale(0.1 -0.1)">
       <use xlink:href="#DejaVuSans-30"/>
      </g>
     </g>
    </g>
    <g id="xtick_11">
     <g id="line2d_22">
      <g>
       <use xlink:href="#m3fb8eedde0" x="143.273093" y="256.32" style="stroke: #000000; stroke-width: 0.8"/>
      </g>
     </g>
     <g id="text_5">
      <!-- 25 -->
      <g transform="translate(136.910593 270.918437) scale(0.1 -0.1)">
       <defs>
        <path id="DejaVuSans-32" d="M 1228 531 
L 3431 531 
L 3431 0 
L 469 0 
L 469 531 
Q 828 903 1448 1529 
Q 2069 2156 2228 2338 
Q 2531 2678 2651 2914 
Q 2772 3150 2772 3378 
Q 2772 3750 2511 3984 
Q 2250 4219 1831 4219 
Q 1534 4219 1204 4116 
Q 875 4013 500 3803 
L 500 4441 
Q 881 4594 1212 4672 
Q 1544 4750 1819 4750 
Q 2544 4750 2975 4387 
Q 3406 4025 3406 3419 
Q 3406 3131 3298 2873 
Q 3191 2616 2906 2266 
Q 2828 2175 2409 1742 
Q 1991 1309 1228 531 
z
" transform="scale(0.015625)"/>
       </defs>
       <use xlink:href="#DejaVuSans-32"/>
       <use xlink:href="#DejaVuSans-35" transform="translate(63.623047 0)"/>
      </g>
     </g>
    </g>
    <g id="xtick_12">
     <g id="line2d_23">
      <g>
       <use xlink:href="#m3fb8eedde0" x="194.255276" y="256.32" style="stroke: #000000; stroke-width: 0.8"/>
      </g>
     </g>
     <g id="text_6">
      <!-- 50 -->
      <g transform="translate(187.892776 270.918437) scale(0.1 -0.1)">
       <use xlink:href="#DejaVuSans-35"/>
       <use xlink:href="#DejaVuSans-30" transform="translate(63.623047 0)"/>
      </g>
     </g>
    </g>
    <g id="xtick_13">
     <g id="line2d_24">
      <g>
       <use xlink:href="#m3fb8eedde0" x="245.23746" y="256.32" style="stroke: #000000; stroke-width: 0.8"/>
      </g>
     </g>
     <g id="text_7">
      <!-- 75 -->
      <g transform="translate(238.87496 270.918437) scale(0.1 -0.1)">
       <defs>
        <path id="DejaVuSans-37" d="M 525 4666 
L 3525 4666 
L 3525 4397 
L 1831 0 
L 1172 0 
L 2766 4134 
L 525 4134 
L 525 4666 
z
" transform="scale(0.015625)"/>
       </defs>
       <use xlink:href="#DejaVuSans-37"/>
       <use xlink:href="#DejaVuSans-35" transform="translate(63.623047 0)"/>
      </g>
     </g>
    </g>
    <g id="xtick_14">
     <g id="line2d_25">
      <g>
       <use xlink:href="#m3fb8eedde0" x="296.219644" y="256.32" style="stroke: #000000; stroke-width: 0.8"/>
      </g>
     </g>
     <g id="text_8">
      <!-- 100 -->
      <g transform="translate(286.675894 270.918437) scale(0.1 -0.1)">
       <use xlink:href="#DejaVuSans-31"/>
       <use xlink:href="#DejaVuSans-30" transform="translate(63.623047 0)"/>
       <use xlink:href="#DejaVuSans-30" transform="translate(127.246094 0)"/>
      </g>
     </g>
    </g>
    <g id="xtick_15">
     <g id="line2d_26">
      <g>
       <use xlink:href="#m3fb8eedde0" x="347.201827" y="256.32" style="stroke: #000000; stroke-width: 0.8"/>
      </g>
     </g>
     <g id="text_9">
      <!-- 125 -->
      <g transform="translate(337.658077 270.918437) scale(0.1 -0.1)">
       <use xlink:href="#DejaVuSans-31"/>
       <use xlink:href="#DejaVuSans-32" transform="translate(63.623047 0)"/>
       <use xlink:href="#DejaVuSans-35" transform="translate(127.246094 0)"/>
      </g>
     </g>
    </g>
    <g id="xtick_16">
     <g id="line2d_27">
      <g>
       <use xlink:href="#m3fb8eedde0" x="398.184011" y="256.32" style="stroke: #000000; stroke-width: 0.8"/>
      </g>
     </g>
     <g id="text_10">
      <!-- 150 -->
      <g transform="translate(388.640261 270.918437) scale(0.1 -0.1)">
       <use xlink:href="#DejaVuSans-31"/>
       <use xlink:href="#DejaVuSans-35" transform="translate(63.623047 0)"/>
       <use xlink:href="#DejaVuSans-30" transform="translate(127.246094 0)"/>
      </g>
     </g>
    </g>
    <g id="xtick_17">
     <g id="line2d_28">
      <g>
       <use xlink:href="#m3fb8eedde0" x="449.166195" y="256.32" style="stroke: #000000; stroke-width: 0.8"/>
      </g>
     </g>
     <g id="text_11">
      <!-- 175 -->
      <g transform="translate(439.622445 270.918437) scale(0.1 -0.1)">
       <use xlink:href="#DejaVuSans-31"/>
       <use xlink:href="#DejaVuSans-37" transform="translate(63.623047 0)"/>
       <use xlink:href="#DejaVuSans-35" transform="translate(127.246094 0)"/>
      </g>
     </g>
    </g>
    <g id="xtick_18">
     <g id="line2d_29">
      <g>
       <use xlink:href="#m3fb8eedde0" x="500.148378" y="256.32" style="stroke: #000000; stroke-width: 0.8"/>
      </g>
     </g>
     <g id="text_12">
      <!-- 200 -->
      <g transform="translate(490.604628 270.918437) scale(0.1 -0.1)">
       <use xlink:href="#DejaVuSans-32"/>
       <use xlink:href="#DejaVuSans-30" transform="translate(63.623047 0)"/>
       <use xlink:href="#DejaVuSans-30" transform="translate(127.246094 0)"/>
      </g>
     </g>
    </g>
   </g>
   <g id="matplotlib.axis_4">
    <g id="ytick_4">
     <g id="line2d_30">
      <g>
       <use xlink:href="#m67ca2bd2f9" x="72" y="252.68137" style="stroke: #000000; stroke-width: 0.8"/>
      </g>
     </g>
     <g id="text_13">
      <!-- −200 -->
      <g transform="translate(37.532812 256.480589) scale(0.1 -0.1)">
       <use xlink:href="#DejaVuSans-2212"/>
       <use xlink:href="#DejaVuSans-32" transform="translate(83.789062 0)"/>
       <use xlink:href="#DejaVuSans-30" transform="translate(147.412109 0)"/>
       <use xlink:href="#DejaVuSans-30" transform="translate(211.035156 0)"/>
      </g>
     </g>
    </g>
    <g id="ytick_5">
     <g id="line2d_31">
      <g>
       <use xlink:href="#m67ca2bd2f9" x="72" y="228.554691" style="stroke: #000000; stroke-width: 0.8"/>
      </g>
     </g>
     <g id="text_14">
      <!-- −100 -->
      <g transform="translate(37.532812 232.35391) scale(0.1 -0.1)">
       <use xlink:href="#DejaVuSans-2212"/>
       <use xlink:href="#DejaVuSans-31" transform="translate(83.789062 0)"/>
       <use xlink:href="#DejaVuSans-30" transform="translate(147.412109 0)"/>
       <use xlink:href="#DejaVuSans-30" transform="translate(211.035156 0)"/>
      </g>
     </g>
    </g>
    <g id="ytick_6">
     <g id="line2d_32">
      <g>
       <use xlink:href="#m67ca2bd2f9" x="72" y="204.428012" style="stroke: #000000; stroke-width: 0.8"/>
      </g>
     </g>
     <g id="text_15">
      <!-- 0 -->
      <g transform="translate(58.6375 208.227231) scale(0.1 -0.1)">
       <use xlink:href="#DejaVuSans-30"/>
      </g>
     </g>
    </g>
    <g id="ytick_7">
     <g id="line2d_33">
      <g>
       <use xlink:href="#m67ca2bd2f9" x="72" y="180.301333" style="stroke: #000000; stroke-width: 0.8"/>
      </g>
     </g>
     <g id="text_16">
      <!-- 100 -->
      <g transform="translate(45.9125 184.100552) scale(0.1 -0.1)">
       <use xlink:href="#DejaVuSans-31"/>
       <use xlink:href="#DejaVuSans-30" transform="translate(63.623047 0)"/>
       <use xlink:href="#DejaVuSans-30" transform="translate(127.246094 0)"/>
      </g>
     </g>
    </g>
    <g id="ytick_8">
     <g id="line2d_34">
      <g>
       <use xlink:href="#m67ca2bd2f9" x="72" y="156.174654" style="stroke: #000000; stroke-width: 0.8"/>
      </g>
     </g>
     <g id="text_17">
      <!-- 200 -->
      <g transform="translate(45.9125 159.973873) scale(0.1 -0.1)">
       <use xlink:href="#DejaVuSans-32"/>
       <use xlink:href="#DejaVuSans-30" transform="translate(63.623047 0)"/>
       <use xlink:href="#DejaVuSans-30" transform="translate(127.246094 0)"/>
      </g>
     </g>
    </g>
   </g>
   <g id="line2d_35">
    <path d="M 92.290909 177.691123 
L 94.330196 170.985367 
L 96.369484 165.429707 
L 98.408771 164.473133 
L 100.448058 169.625046 
L 102.487346 166.027923 
L 104.526633 168.738489 
L 106.565921 163.394884 
L 108.605208 165.128716 
L 110.644495 174.922208 
L 112.683783 248.223041 
L 114.72307 162.475927 
L 116.762357 164.412135 
L 118.801645 170.271135 
L 120.840932 162.506799 
L 122.880219 168.103249 
L 124.919507 166.378425 
L 126.958794 180.026221 
L 128.998081 164.34693 
L 131.037369 167.952148 
L 133.076656 174.803293 
L 135.115943 168.449455 
L 137.155231 166.182709 
L 139.194518 165.868358 
L 141.233805 169.319372 
L 143.273093 165.752407 
L 145.31238 162.650663 
L 147.351667 161.049439 
L 149.390955 163.60484 
L 151.430242 164.442912 
L 153.469529 164.801904 
L 155.508817 167.959879 
L 157.548104 163.779708 
L 159.587392 164.976706 
L 161.626679 168.796424 
L 163.665966 168.588485 
L 165.705254 248.49948 
L 167.744541 162.652437 
L 169.783828 169.080031 
L 171.823116 166.756203 
L 173.862403 167.180382 
L 175.90169 172.756077 
L 177.940978 172.55468 
L 179.980265 186.303446 
L 182.019552 169.671347 
L 184.05884 174.101661 
L 186.098127 186.94162 
L 188.137414 173.480713 
L 190.176702 174.040348 
L 192.215989 197.616254 
L 196.294564 189.345954 
L 198.333851 188.175526 
L 200.373138 171.726404 
L 202.412426 165.600331 
L 204.451713 167.815714 
L 206.491 166.16795 
L 208.530288 174.690183 
L 210.569575 167.1903 
L 212.608862 165.309276 
L 214.64815 167.480504 
L 216.687437 162.823539 
L 218.726725 167.46865 
L 220.766012 167.580452 
L 222.805299 169.534136 
L 224.844587 163.681241 
L 226.883874 177.974975 
L 228.923161 187.106315 
L 230.962449 166.261528 
L 233.001736 171.890165 
L 235.041023 166.828801 
L 237.080311 167.829 
L 239.119598 169.560124 
L 241.158885 166.101655 
L 243.198173 170.801464 
L 245.23746 162.738885 
L 247.276747 164.28863 
L 249.316035 164.879424 
L 251.355322 170.72965 
L 253.394609 165.59775 
L 255.433897 163.194396 
L 257.473184 170.4282 
L 259.512471 164.028743 
L 261.551759 163.292993 
L 263.591046 165.093809 
L 265.630333 168.86135 
L 267.669621 164.05261 
L 271.748196 165.936954 
L 273.787483 167.020483 
L 275.82677 164.401566 
L 277.866058 249.003767 
L 279.905345 168.90873 
L 281.944632 164.488864 
L 283.98392 164.228236 
L 286.023207 170.78725 
L 288.062494 170.913295 
L 290.101782 170.718676 
L 292.141069 172.433428 
L 294.180356 167.470156 
L 296.219644 168.319976 
L 298.258931 173.832388 
L 300.298218 170.330829 
L 302.337506 164.347003 
L 304.376793 170.892164 
L 306.41608 164.553573 
L 308.455368 167.695813 
L 310.494655 167.727102 
L 312.533942 163.127059 
L 314.57323 249.94711 
L 316.612517 160.37102 
L 318.651804 162.231343 
L 320.691092 163.399515 
L 322.730379 165.631579 
L 324.769667 166.058118 
L 326.808954 164.971751 
L 328.848241 167.580039 
L 330.887529 168.056138 
L 332.926816 164.85051 
L 334.966103 164.755098 
L 337.005391 161.816548 
L 339.044678 163.405645 
L 341.083965 163.240882 
L 343.123253 163.53257 
L 345.16254 165.09974 
L 347.201827 163.806167 
L 349.241115 250.314573 
L 351.280402 163.293048 
L 353.319689 164.952339 
L 355.358977 171.69034 
L 357.398264 167.152039 
L 359.437551 171.275254 
L 361.476839 167.516421 
L 363.516126 165.86831 
L 365.555413 171.488653 
L 367.594701 167.665132 
L 369.633988 171.245453 
L 371.673275 165.679173 
L 373.712563 172.121669 
L 375.75185 176.710662 
L 377.791138 174.670025 
L 379.830425 166.232552 
L 381.869712 177.811348 
L 383.909 171.45097 
L 387.987574 169.422556 
L 390.026862 171.886071 
L 392.066149 171.756304 
L 394.105436 172.406539 
L 396.144724 246.470838 
L 398.184011 165.893429 
L 400.223298 172.028893 
L 402.262586 170.617819 
L 404.301873 170.251016 
L 406.34116 168.327791 
L 408.380448 173.686641 
L 410.419735 166.578659 
L 412.459022 172.160865 
L 414.49831 166.065845 
L 416.537597 167.306652 
L 418.576884 162.458182 
L 420.616172 168.736184 
L 422.655459 168.240773 
L 424.694746 172.986917 
L 426.734034 168.928193 
L 428.773321 172.160357 
L 430.812608 176.712707 
L 432.851896 172.501306 
L 434.891183 174.070496 
L 436.930471 177.760503 
L 438.969758 171.456024 
L 441.009045 178.122501 
L 443.048333 171.80395 
L 445.08762 174.023316 
L 447.126907 175.716666 
L 449.166195 163.566689 
L 451.205482 170.371693 
L 453.244769 173.3039 
L 455.284057 178.151049 
L 457.323344 181.259908 
L 459.362631 174.468901 
L 461.401919 172.989877 
L 463.441206 178.051153 
L 465.480493 175.639827 
L 467.519781 175.154376 
L 469.559068 176.50935 
L 471.598355 170.999305 
L 473.637643 176.802466 
L 475.67693 179.312778 
L 477.716217 179.870759 
L 479.755505 173.496683 
L 481.794792 177.175823 
L 483.834079 170.591368 
L 485.873367 173.673143 
L 487.912654 177.661962 
L 489.951942 172.341558 
L 491.991229 169.881417 
L 494.030516 169.181937 
L 496.069804 175.150886 
L 498.109091 175.690704 
L 498.109091 175.690704 
" clip-path="url(#p8ad1d2fa4c)" style="fill: none; stroke: #ff0000; stroke-opacity: 0.9; stroke-width: 1.5; stroke-linecap: square"/>
   </g>
   <g id="line2d_36">
    <path d="M 92.290909 176.445298 
L 96.369484 163.256031 
L 98.408771 164.320766 
L 100.448058 169.580048 
L 102.487346 167.164839 
L 104.526633 168.654471 
L 106.565921 163.230916 
L 108.605208 165.042574 
L 110.644495 175.689926 
L 112.683783 247.810756 
L 114.72307 161.553226 
L 116.762357 164.558804 
L 118.801645 170.296323 
L 120.840932 162.626752 
L 122.880219 167.426645 
L 124.919507 166.248997 
L 126.958794 181.265964 
L 128.998081 164.123003 
L 131.037369 168.197612 
L 133.076656 175.514235 
L 135.115943 168.454609 
L 137.155231 165.422392 
L 139.194518 166.678926 
L 141.233805 169.49011 
L 145.31238 162.666364 
L 147.351667 161.574975 
L 149.390955 165.276592 
L 151.430242 162.353121 
L 155.508817 168.712064 
L 157.548104 163.780805 
L 159.587392 167.154237 
L 161.626679 167.914233 
L 163.665966 167.028122 
L 165.705254 249.664048 
L 167.744541 161.893714 
L 169.783828 168.604043 
L 171.823116 167.006578 
L 173.862403 168.55279 
L 175.90169 172.530349 
L 177.940978 171.415341 
L 179.980265 184.26459 
L 182.019552 169.708434 
L 184.05884 173.125524 
L 186.098127 188.055863 
L 188.137414 172.716924 
L 190.176702 174.918303 
L 192.215989 198.488159 
L 194.255276 193.454224 
L 196.294564 189.030593 
L 198.333851 188.21048 
L 200.373138 171.301205 
L 202.412426 164.326398 
L 204.451713 168.534651 
L 206.491 166.662827 
L 208.530288 174.866371 
L 210.569575 167.303615 
L 212.608862 163.563866 
L 214.64815 169.565359 
L 216.687437 162.280015 
L 218.726725 168.136095 
L 220.766012 167.091564 
L 222.805299 171.549268 
L 224.844587 161.712731 
L 226.883874 177.356655 
L 228.923161 186.217385 
L 230.962449 166.403864 
L 233.001736 171.288603 
L 235.041023 166.671865 
L 237.080311 166.808296 
L 239.119598 169.699264 
L 241.158885 166.001784 
L 243.198173 171.028451 
L 245.23746 163.714293 
L 247.276747 164.979239 
L 249.316035 164.741138 
L 251.355322 169.582602 
L 253.394609 165.814429 
L 255.433897 163.657676 
L 257.473184 170.534041 
L 259.512471 164.557803 
L 261.551759 162.933055 
L 263.591046 165.124413 
L 265.630333 168.255469 
L 267.669621 163.781059 
L 269.708908 166.625203 
L 271.748196 165.376853 
L 273.787483 168.40212 
L 275.82677 163.83433 
L 277.866058 249.776505 
L 279.905345 167.894103 
L 281.944632 165.129427 
L 283.98392 163.72512 
L 286.023207 170.926144 
L 288.062494 172.022263 
L 290.101782 170.15267 
L 292.141069 171.608005 
L 294.180356 167.795919 
L 296.219644 169.099237 
L 298.258931 173.567668 
L 300.298218 169.74294 
L 302.337506 164.180613 
L 304.376793 171.215111 
L 306.41608 164.62662 
L 308.455368 168.171511 
L 310.494655 169.116749 
L 312.533942 164.278746 
L 314.57323 250.470372 
L 316.612517 161.143308 
L 318.651804 162.42724 
L 320.691092 161.874718 
L 322.730379 166.09061 
L 324.769667 166.008396 
L 326.808954 164.42717 
L 328.848241 167.199375 
L 330.887529 167.287921 
L 332.926816 164.314824 
L 334.966103 165.355372 
L 337.005391 161.177895 
L 339.044678 164.716554 
L 341.083965 163.139893 
L 343.123253 163.397277 
L 345.16254 166.351635 
L 347.201827 165.237783 
L 349.241115 250.157206 
L 351.280402 164.487373 
L 353.319689 164.616621 
L 355.358977 171.969798 
L 357.398264 167.712862 
L 359.437551 171.320893 
L 361.476839 166.182654 
L 363.516126 166.583835 
L 365.555413 170.5255 
L 367.594701 167.279663 
L 369.633988 170.714682 
L 371.673275 165.787009 
L 373.712563 172.059791 
L 375.75185 176.927267 
L 377.791138 175.017956 
L 379.830425 166.257733 
L 381.869712 178.754403 
L 383.909 170.972578 
L 385.948287 170.405441 
L 387.987574 168.740775 
L 390.026862 172.549375 
L 392.066149 173.036764 
L 394.105436 171.750072 
L 396.144724 248.119703 
L 398.184011 165.786376 
L 400.223298 171.029732 
L 402.262586 171.53625 
L 404.301873 170.969323 
L 406.34116 167.40153 
L 408.380448 172.965878 
L 410.419735 167.493183 
L 412.459022 171.790553 
L 414.49831 164.841888 
L 416.537597 166.724661 
L 418.576884 161.34754 
L 420.616172 168.700335 
L 422.655459 167.925517 
L 424.694746 172.128973 
L 426.734034 168.632983 
L 430.812608 176.50026 
L 432.851896 171.264674 
L 434.891183 173.843051 
L 436.930471 178.149637 
L 438.969758 170.994143 
L 441.009045 177.961162 
L 443.048333 172.432673 
L 445.08762 175.51496 
L 447.126907 175.257815 
L 449.166195 163.886084 
L 451.205482 171.250732 
L 453.244769 173.835824 
L 455.284057 178.525816 
L 457.323344 180.621178 
L 459.362631 173.465538 
L 461.401919 172.692288 
L 463.441206 177.024626 
L 465.480493 175.075759 
L 469.559068 175.118986 
L 471.598355 171.939128 
L 473.637643 175.479636 
L 475.67693 179.878489 
L 477.716217 179.727099 
L 479.755505 174.668792 
L 481.794792 176.975792 
L 483.834079 171.01836 
L 487.912654 178.818429 
L 489.951942 173.655117 
L 491.991229 169.529023 
L 494.030516 168.745362 
L 496.069804 174.041307 
L 498.109091 176.699213 
L 498.109091 176.699213 
" clip-path="url(#p8ad1d2fa4c)" style="fill: none; stroke: #ff0000; stroke-opacity: 0.9; stroke-width: 1.5; stroke-linecap: square"/>
   </g>
   <g id="line2d_37">
    <path d="M 92.290909 177.803666 
L 94.330196 170.40631 
L 96.369484 165.40432 
L 98.408771 163.896447 
L 100.448058 170.415035 
L 102.487346 166.174665 
L 104.526633 168.357449 
L 106.565921 163.561789 
L 108.605208 164.130888 
L 110.644495 176.39418 
L 112.683783 248.078909 
L 114.72307 162.737508 
L 116.762357 165.657787 
L 118.801645 170.132348 
L 120.840932 161.553373 
L 122.880219 167.209749 
L 124.919507 166.755949 
L 126.958794 181.269115 
L 128.998081 164.049701 
L 131.037369 168.049979 
L 133.076656 174.826851 
L 135.115943 168.080929 
L 137.155231 166.361741 
L 139.194518 165.59137 
L 141.233805 168.717505 
L 143.273093 164.724487 
L 145.31238 163.340741 
L 147.351667 161.37187 
L 149.390955 164.573596 
L 151.430242 163.088496 
L 153.469529 164.435535 
L 155.508817 169.111294 
L 157.548104 164.046686 
L 159.587392 165.231105 
L 161.626679 168.898742 
L 163.665966 168.626069 
L 165.705254 250.075346 
L 167.744541 162.29628 
L 169.783828 168.838344 
L 171.823116 166.938328 
L 173.862403 167.616044 
L 175.90169 172.488506 
L 177.940978 171.65783 
L 179.980265 185.378748 
L 182.019552 169.797919 
L 184.05884 172.219238 
L 186.098127 187.906062 
L 188.137414 174.411553 
L 190.176702 174.989885 
L 192.215989 197.274919 
L 196.294564 190.034314 
L 198.333851 188.108653 
L 200.373138 172.070703 
L 202.412426 164.648719 
L 204.451713 168.789952 
L 206.491 167.796891 
L 208.530288 175.099509 
L 210.569575 167.40065 
L 212.608862 165.213014 
L 214.64815 169.448175 
L 216.687437 161.26082 
L 218.726725 167.825989 
L 220.766012 168.533002 
L 222.805299 170.034492 
L 224.844587 163.832754 
L 226.883874 178.610426 
L 228.923161 186.53054 
L 230.962449 166.656683 
L 233.001736 172.000314 
L 235.041023 166.650277 
L 237.080311 167.072424 
L 239.119598 169.203595 
L 241.158885 165.184601 
L 243.198173 171.014307 
L 245.23746 164.021807 
L 247.276747 163.872709 
L 249.316035 165.611081 
L 251.355322 170.62784 
L 253.394609 165.76171 
L 255.433897 163.281694 
L 257.473184 169.871603 
L 259.512471 164.84653 
L 261.551759 163.115131 
L 263.591046 164.972189 
L 265.630333 168.300932 
L 267.669621 163.687617 
L 269.708908 165.955954 
L 271.748196 166.035043 
L 273.787483 167.490492 
L 275.82677 163.614198 
L 277.866058 249.868909 
L 279.905345 167.828283 
L 281.944632 165.873313 
L 283.98392 163.414079 
L 286.023207 170.305556 
L 288.062494 171.599762 
L 290.101782 170.240273 
L 292.141069 171.925194 
L 294.180356 167.805384 
L 296.219644 168.070934 
L 298.258931 175.756532 
L 300.298218 169.897796 
L 302.337506 164.655659 
L 304.376793 171.599711 
L 306.41608 164.072364 
L 308.455368 167.463316 
L 310.494655 167.820172 
L 312.533942 164.260887 
L 314.57323 250.239413 
L 316.612517 160.778949 
L 318.651804 162.331228 
L 320.691092 162.787833 
L 322.730379 165.912381 
L 326.808954 164.748899 
L 328.848241 167.070815 
L 330.887529 168.456944 
L 332.926816 164.243805 
L 334.966103 165.977086 
L 337.005391 161.912696 
L 339.044678 164.917192 
L 341.083965 163.061121 
L 343.123253 163.625272 
L 345.16254 166.618683 
L 347.201827 165.485128 
L 349.241115 249.951325 
L 351.280402 163.323979 
L 353.319689 164.312151 
L 355.358977 170.918869 
L 357.398264 168.623889 
L 359.437551 171.566559 
L 361.476839 167.326212 
L 363.516126 165.627404 
L 365.555413 170.677422 
L 367.594701 168.406847 
L 369.633988 171.201677 
L 371.673275 165.71464 
L 373.712563 172.271868 
L 375.75185 176.186657 
L 377.791138 173.630792 
L 379.830425 166.663181 
L 381.869712 178.927184 
L 383.909 171.438489 
L 385.948287 169.948674 
L 387.987574 169.040658 
L 390.026862 172.254635 
L 392.066149 173.658705 
L 394.105436 172.317437 
L 396.144724 249.129128 
L 398.184011 165.949928 
L 400.223298 170.989641 
L 402.262586 169.573804 
L 404.301873 169.942967 
L 406.34116 168.50534 
L 408.380448 173.326368 
L 410.419735 167.318606 
L 412.459022 172.68378 
L 414.49831 165.273611 
L 416.537597 167.677391 
L 418.576884 162.157328 
L 420.616172 169.688337 
L 422.655459 168.292317 
L 424.694746 171.839166 
L 426.734034 167.442376 
L 428.773321 172.254764 
L 430.812608 176.006334 
L 432.851896 172.474686 
L 434.891183 174.102036 
L 436.930471 178.59795 
L 438.969758 170.624398 
L 441.009045 178.312531 
L 443.048333 172.46077 
L 445.08762 174.487853 
L 447.126907 174.884521 
L 449.166195 163.281945 
L 451.205482 170.139214 
L 453.244769 174.185533 
L 455.284057 179.286806 
L 457.323344 180.204526 
L 459.362631 173.83183 
L 461.401919 173.998227 
L 463.441206 177.145778 
L 465.480493 176.129066 
L 467.519781 175.678762 
L 469.559068 174.622281 
L 471.598355 171.344863 
L 473.637643 174.81882 
L 475.67693 179.837783 
L 477.716217 180.66392 
L 479.755505 173.342533 
L 481.794792 176.326364 
L 483.834079 172.201722 
L 485.873367 174.804462 
L 487.912654 179.067733 
L 489.951942 172.555029 
L 491.991229 169.776349 
L 494.030516 169.359065 
L 496.069804 173.820408 
L 498.109091 176.257635 
L 498.109091 176.257635 
" clip-path="url(#p8ad1d2fa4c)" style="fill: none; stroke: #ff0000; stroke-opacity: 0.9; stroke-width: 1.5; stroke-linecap: square"/>
   </g>
   <g id="line2d_38">
    <path d="M 92.290909 176.849634 
L 94.330196 170.493078 
L 96.369484 163.355919 
L 98.408771 164.487715 
L 100.448058 169.821241 
L 102.487346 166.624242 
L 104.526633 169.107023 
L 106.565921 163.333072 
L 108.605208 164.978709 
L 110.644495 174.113793 
L 112.683783 248.121521 
L 114.72307 163.009003 
L 116.762357 164.650137 
L 118.801645 170.77498 
L 120.840932 161.839627 
L 122.880219 168.39359 
L 124.919507 167.34015 
L 126.958794 181.156625 
L 128.998081 164.297609 
L 131.037369 167.522642 
L 133.076656 174.655743 
L 135.115943 168.951324 
L 137.155231 166.539492 
L 139.194518 166.216254 
L 141.233805 167.729219 
L 143.273093 166.020957 
L 145.31238 161.475334 
L 147.351667 161.530739 
L 149.390955 164.484435 
L 151.430242 162.735406 
L 153.469529 164.593225 
L 155.508817 168.70177 
L 157.548104 164.4002 
L 159.587392 165.744121 
L 161.626679 168.66306 
L 163.665966 167.669856 
L 165.705254 248.235068 
L 167.744541 161.347061 
L 169.783828 168.783682 
L 171.823116 166.36346 
L 173.862403 166.685177 
L 175.90169 172.571441 
L 177.940978 171.673513 
L 179.980265 185.81491 
L 182.019552 169.854138 
L 184.05884 172.609717 
L 186.098127 187.918354 
L 188.137414 173.929318 
L 190.176702 175.078663 
L 192.215989 198.114473 
L 194.255276 192.387795 
L 196.294564 190.926776 
L 198.333851 187.768184 
L 200.373138 170.920585 
L 202.412426 164.409632 
L 204.451713 167.665696 
L 206.491 166.331005 
L 208.530288 174.619111 
L 210.569575 166.875453 
L 212.608862 163.660883 
L 214.64815 168.997147 
L 216.687437 162.511721 
L 218.726725 168.372775 
L 220.766012 166.617314 
L 222.805299 169.556302 
L 224.844587 163.155115 
L 226.883874 178.27934 
L 228.923161 187.6205 
L 230.962449 167.073289 
L 233.001736 170.825519 
L 235.041023 166.088446 
L 237.080311 167.004763 
L 239.119598 168.823508 
L 241.158885 164.928222 
L 243.198173 170.856137 
L 245.23746 162.020047 
L 247.276747 164.557799 
L 249.316035 165.220119 
L 251.355322 169.802366 
L 253.394609 166.864011 
L 255.433897 164.83803 
L 257.473184 170.008136 
L 259.512471 163.540477 
L 261.551759 163.655773 
L 263.591046 165.713012 
L 265.630333 168.477913 
L 267.669621 163.967955 
L 269.708908 165.610782 
L 271.748196 165.957489 
L 273.787483 166.678639 
L 275.82677 164.09305 
L 277.866058 250.395421 
L 279.905345 167.859891 
L 281.944632 164.446877 
L 283.98392 163.946838 
L 286.023207 170.186112 
L 288.062494 172.279102 
L 290.101782 170.715981 
L 292.141069 172.216124 
L 294.180356 168.414316 
L 296.219644 167.943537 
L 298.258931 174.692964 
L 302.337506 164.13503 
L 304.376793 170.804693 
L 306.41608 163.530376 
L 308.455368 167.332562 
L 310.494655 167.878207 
L 312.533942 164.310715 
L 314.57323 249.7344 
L 316.612517 160.966349 
L 318.651804 162.896531 
L 320.691092 162.919967 
L 322.730379 165.268376 
L 324.769667 165.508873 
L 326.808954 164.832342 
L 328.848241 167.274517 
L 330.887529 168.907253 
L 332.926816 164.814336 
L 334.966103 165.798797 
L 337.005391 161.410713 
L 339.044678 163.24922 
L 341.083965 163.280314 
L 343.123253 162.635767 
L 345.16254 166.414253 
L 347.201827 163.989631 
L 349.241115 251.327304 
L 351.280402 164.025514 
L 353.319689 163.595147 
L 355.358977 171.338995 
L 357.398264 168.78405 
L 359.437551 172.121264 
L 361.476839 168.226957 
L 363.516126 166.140181 
L 365.555413 169.864568 
L 367.594701 168.30589 
L 369.633988 170.857168 
L 371.673275 165.836569 
L 373.712563 172.533397 
L 375.75185 175.427318 
L 377.791138 173.952469 
L 379.830425 167.288241 
L 381.869712 178.794761 
L 383.909 171.12627 
L 385.948287 169.735518 
L 387.987574 169.052773 
L 390.026862 172.645431 
L 392.066149 172.383463 
L 394.105436 171.628146 
L 396.144724 248.314458 
L 398.184011 165.538913 
L 400.223298 171.814114 
L 402.262586 170.853424 
L 404.301873 170.87302 
L 406.34116 168.02098 
L 408.380448 173.55514 
L 410.419735 167.413381 
L 412.459022 172.733009 
L 414.49831 165.647534 
L 416.537597 167.459947 
L 418.576884 160.101818 
L 420.616172 168.538955 
L 422.655459 167.334933 
L 424.694746 171.62561 
L 426.734034 168.048779 
L 428.773321 173.026544 
L 430.812608 175.556588 
L 432.851896 173.457133 
L 434.891183 173.783507 
L 436.930471 177.622838 
L 438.969758 170.381022 
L 441.009045 178.50261 
L 443.048333 172.105695 
L 445.08762 174.306647 
L 447.126907 176.044237 
L 449.166195 164.796338 
L 451.205482 169.6547 
L 455.284057 178.372086 
L 457.323344 181.155889 
L 459.362631 173.244637 
L 461.401919 172.626199 
L 463.441206 176.716948 
L 465.480493 175.065447 
L 467.519781 174.793849 
L 469.559068 175.298596 
L 471.598355 171.54806 
L 473.637643 174.775046 
L 475.67693 178.451036 
L 477.716217 179.829987 
L 479.755505 173.423091 
L 481.794792 177.863319 
L 483.834079 171.892875 
L 487.912654 178.208671 
L 489.951942 174.402026 
L 491.991229 169.553085 
L 494.030516 169.16858 
L 496.069804 173.95969 
L 498.109091 177.765085 
L 498.109091 177.765085 
" clip-path="url(#p8ad1d2fa4c)" style="fill: none; stroke: #ff0000; stroke-opacity: 0.9; stroke-width: 1.5; stroke-linecap: square"/>
   </g>
   <g id="line2d_39">
    <path d="M 92.290909 176.821324 
L 96.369484 163.679621 
L 98.408771 164.863403 
L 100.448058 170.12546 
L 102.487346 167.106986 
L 104.526633 170.017266 
L 106.565921 162.789895 
L 108.605208 165.954088 
L 110.644495 175.969551 
L 112.683783 247.349387 
L 114.72307 162.519699 
L 116.762357 163.887928 
L 118.801645 170.874062 
L 120.840932 163.756243 
L 122.880219 168.077696 
L 124.919507 167.121277 
L 126.958794 180.112262 
L 128.998081 164.015589 
L 131.037369 167.564187 
L 133.076656 175.326715 
L 135.115943 169.517316 
L 137.155231 166.66462 
L 139.194518 165.931572 
L 141.233805 168.557668 
L 143.273093 165.014809 
L 145.31238 162.20963 
L 147.351667 162.381612 
L 149.390955 165.014187 
L 151.430242 162.018791 
L 153.469529 164.447507 
L 155.508817 167.879123 
L 157.548104 163.305833 
L 159.587392 165.62345 
L 161.626679 167.679405 
L 163.665966 169.249554 
L 165.705254 248.982724 
L 167.744541 163.384082 
L 169.783828 168.923408 
L 171.823116 167.16435 
L 173.862403 166.869227 
L 175.90169 172.618818 
L 177.940978 170.884897 
L 179.980265 185.292472 
L 182.019552 170.638925 
L 184.05884 172.6474 
L 186.098127 187.846163 
L 188.137414 172.939677 
L 190.176702 174.27541 
L 192.215989 198.318531 
L 194.255276 191.74246 
L 196.294564 189.219914 
L 198.333851 187.380291 
L 200.373138 171.631021 
L 202.412426 165.183824 
L 204.451713 167.742104 
L 206.491 166.841086 
L 208.530288 174.527379 
L 210.569575 165.29627 
L 212.608862 164.189603 
L 214.64815 168.825154 
L 216.687437 162.426573 
L 218.726725 167.460308 
L 220.766012 167.590995 
L 222.805299 171.226199 
L 224.844587 163.874572 
L 226.883874 178.526044 
L 228.923161 187.720545 
L 230.962449 167.927869 
L 233.001736 170.401734 
L 235.041023 166.572087 
L 237.080311 166.908597 
L 239.119598 170.133843 
L 241.158885 165.184663 
L 243.198173 170.213071 
L 245.23746 162.5452 
L 247.276747 166.138933 
L 249.316035 166.651455 
L 251.355322 169.867332 
L 253.394609 166.314107 
L 255.433897 163.304155 
L 257.473184 170.574062 
L 259.512471 163.604082 
L 261.551759 163.262102 
L 263.591046 165.512448 
L 265.630333 168.47661 
L 267.669621 164.477923 
L 269.708908 165.515698 
L 271.748196 165.001114 
L 273.787483 166.310569 
L 275.82677 162.762125 
L 277.866058 249.393945 
L 279.905345 167.359013 
L 281.944632 165.635308 
L 283.98392 164.122362 
L 286.023207 169.549584 
L 288.062494 172.057152 
L 290.101782 169.979439 
L 292.141069 172.338774 
L 294.180356 167.374866 
L 296.219644 168.862822 
L 298.258931 173.880708 
L 300.298218 170.375378 
L 302.337506 165.37277 
L 304.376793 170.381758 
L 306.41608 165.389053 
L 308.455368 168.578611 
L 310.494655 167.450766 
L 312.533942 165.129261 
L 314.57323 249.358411 
L 316.612517 160.317271 
L 318.651804 162.579482 
L 320.691092 162.960732 
L 322.730379 165.995493 
L 324.769667 166.508487 
L 326.808954 164.421405 
L 328.848241 166.410796 
L 330.887529 167.942882 
L 332.926816 163.944578 
L 334.966103 165.295 
L 337.005391 161.272129 
L 339.044678 164.073016 
L 343.123253 164.073469 
L 345.16254 166.700599 
L 347.201827 164.303419 
L 349.241115 251.738182 
L 351.280402 163.127994 
L 353.319689 164.535585 
L 355.358977 171.31642 
L 357.398264 169.036862 
L 359.437551 172.112657 
L 361.476839 167.399564 
L 363.516126 166.962044 
L 365.555413 169.877592 
L 367.594701 167.212459 
L 369.633988 171.282544 
L 371.673275 166.433967 
L 373.712563 172.316472 
L 375.75185 177.05772 
L 377.791138 174.864429 
L 379.830425 166.597574 
L 381.869712 178.511296 
L 383.909 172.422071 
L 385.948287 169.553987 
L 387.987574 169.904482 
L 390.026862 172.474218 
L 392.066149 171.820446 
L 394.105436 172.137035 
L 396.144724 249.151687 
L 398.184011 164.670926 
L 400.223298 170.886137 
L 404.301873 172.047436 
L 406.34116 168.060305 
L 408.380448 172.815407 
L 410.419735 167.414338 
L 412.459022 171.378817 
L 414.49831 166.480412 
L 416.537597 167.311883 
L 418.576884 161.050783 
L 420.616172 168.604205 
L 422.655459 167.135432 
L 424.694746 171.546105 
L 426.734034 167.712001 
L 428.773321 172.310453 
L 430.812608 176.180575 
L 432.851896 173.154633 
L 434.891183 173.725966 
L 436.930471 178.847189 
L 438.969758 170.396414 
L 441.009045 178.654239 
L 443.048333 172.524105 
L 445.08762 174.365121 
L 447.126907 175.773401 
L 449.166195 163.716469 
L 451.205482 168.949284 
L 453.244769 173.347032 
L 455.284057 179.94573 
L 457.323344 180.923844 
L 459.362631 173.946162 
L 461.401919 173.244519 
L 463.441206 177.134611 
L 465.480493 174.666127 
L 467.519781 175.220701 
L 469.559068 174.949252 
L 471.598355 171.188811 
L 473.637643 177.218376 
L 477.716217 179.510871 
L 479.755505 174.59308 
L 481.794792 177.553923 
L 483.834079 170.794322 
L 485.873367 173.846425 
L 487.912654 177.806985 
L 489.951942 173.16525 
L 491.991229 169.53555 
L 494.030516 169.572604 
L 496.069804 174.179868 
L 498.109091 177.439195 
L 498.109091 177.439195 
" clip-path="url(#p8ad1d2fa4c)" style="fill: none; stroke: #ff0000; stroke-opacity: 0.9; stroke-width: 1.5; stroke-linecap: square"/>
   </g>
   <g id="line2d_40">
    <path d="M 92.290909 170.888328 
L 94.330196 169.177132 
L 96.369484 165.882535 
L 98.408771 163.854902 
L 100.448058 167.075123 
L 102.487346 165.228064 
L 104.526633 167.78648 
L 106.565921 163.715018 
L 108.605208 164.749952 
L 110.644495 174.565329 
L 112.683783 246.556508 
L 114.72307 162.137083 
L 116.762357 163.32913 
L 118.801645 169.632442 
L 120.840932 161.337644 
L 122.880219 167.888831 
L 124.919507 165.855764 
L 126.958794 180.1121 
L 128.998081 163.400432 
L 131.037369 166.240272 
L 133.076656 173.476818 
L 135.115943 167.233141 
L 139.194518 165.868844 
L 141.233805 167.454108 
L 143.273093 164.861146 
L 145.31238 161.86984 
L 147.351667 161.944879 
L 149.390955 164.491007 
L 151.430242 162.906769 
L 153.469529 163.750069 
L 155.508817 167.781469 
L 157.548104 164.184096 
L 159.587392 165.500582 
L 161.626679 168.544808 
L 163.665966 167.945507 
L 165.705254 246.729724 
L 167.744541 163.880819 
L 169.783828 167.903185 
L 171.823116 166.400852 
L 173.862403 166.807556 
L 175.90169 171.95201 
L 177.940978 171.072525 
L 179.980265 183.450048 
L 182.019552 169.036535 
L 184.05884 172.887971 
L 186.098127 188.358582 
L 188.137414 172.208923 
L 190.176702 174.289782 
L 192.215989 195.539946 
L 198.333851 186.837601 
L 200.373138 172.607796 
L 202.412426 164.885885 
L 204.451713 166.896602 
L 206.491 167.085817 
L 208.530288 173.445857 
L 210.569575 166.241822 
L 212.608862 163.701342 
L 214.64815 167.405116 
L 216.687437 161.300885 
L 218.726725 165.936314 
L 220.766012 166.681238 
L 222.805299 170.005894 
L 224.844587 162.809108 
L 226.883874 177.329532 
L 228.923161 186.168516 
L 230.962449 165.88875 
L 233.001736 170.46233 
L 235.041023 167.210762 
L 237.080311 166.268011 
L 239.119598 168.42564 
L 241.158885 165.644394 
L 243.198173 170.657454 
L 245.23746 162.143588 
L 247.276747 164.076506 
L 249.316035 165.235092 
L 251.355322 169.242437 
L 253.394609 165.620877 
L 255.433897 163.123805 
L 257.473184 169.218884 
L 259.512471 163.7694 
L 261.551759 162.533633 
L 263.591046 164.557368 
L 265.630333 167.858264 
L 267.669621 163.904991 
L 269.708908 164.971534 
L 271.748196 164.927699 
L 273.787483 166.63642 
L 275.82677 162.609136 
L 277.866058 247.284992 
L 279.905345 169.083856 
L 281.944632 164.53937 
L 283.98392 162.914953 
L 286.023207 170.064087 
L 288.062494 170.878145 
L 290.101782 169.138956 
L 292.141069 171.18528 
L 294.180356 166.603052 
L 296.219644 167.945437 
L 298.258931 174.614137 
L 300.298218 168.530528 
L 302.337506 166.13235 
L 304.376793 170.67222 
L 306.41608 163.761566 
L 308.455368 167.177054 
L 310.494655 166.857281 
L 312.533942 163.304527 
L 314.57323 247.091201 
L 316.612517 161.641735 
L 318.651804 162.364548 
L 320.691092 162.798947 
L 322.730379 164.812985 
L 324.769667 164.479336 
L 326.808954 164.619754 
L 328.848241 165.82572 
L 330.887529 166.531989 
L 332.926816 164.273334 
L 334.966103 165.905456 
L 337.005391 161.603588 
L 339.044678 163.034725 
L 341.083965 162.349617 
L 343.123253 163.226252 
L 345.16254 164.639446 
L 347.201827 163.862128 
L 349.241115 247.754655 
L 351.280402 164.324675 
L 353.319689 162.611415 
L 355.358977 170.486701 
L 357.398264 167.681371 
L 359.437551 172.275807 
L 361.476839 168.132601 
L 363.516126 167.299646 
L 365.555413 170.159009 
L 367.594701 167.326075 
L 369.633988 170.042602 
L 371.673275 165.328181 
L 373.712563 171.287403 
L 375.75185 176.265101 
L 377.791138 174.168566 
L 379.830425 165.97368 
L 381.869712 177.82472 
L 383.909 171.687907 
L 385.948287 169.776441 
L 387.987574 168.027857 
L 390.026862 171.315563 
L 394.105436 172.794205 
L 396.144724 247.329728 
L 398.184011 166.183717 
L 400.223298 170.448886 
L 402.262586 171.260172 
L 404.301873 170.895352 
L 406.34116 167.998505 
L 408.380448 172.721637 
L 410.419735 166.835509 
L 412.459022 171.014108 
L 414.49831 165.415593 
L 416.537597 166.315373 
L 418.576884 161.443644 
L 420.616172 168.678728 
L 422.655459 167.444445 
L 424.694746 171.347757 
L 426.734034 167.753608 
L 428.773321 171.875561 
L 430.812608 175.034525 
L 432.851896 172.049851 
L 434.891183 173.621787 
L 436.930471 177.998565 
L 438.969758 171.290978 
L 441.009045 177.919078 
L 443.048333 172.11523 
L 445.08762 174.214618 
L 447.126907 175.502196 
L 449.166195 163.931652 
L 451.205482 169.216855 
L 453.244769 172.565971 
L 455.284057 178.159376 
L 457.323344 179.33167 
L 459.362631 174.517404 
L 461.401919 173.200176 
L 463.441206 175.952723 
L 465.480493 175.142715 
L 467.519781 175.732522 
L 469.559068 175.766803 
L 471.598355 169.507486 
L 473.637643 174.845271 
L 475.67693 178.044027 
L 477.716217 178.305097 
L 479.755505 173.473434 
L 481.794792 176.472754 
L 483.834079 170.402382 
L 487.912654 177.406041 
L 489.951942 172.370913 
L 491.991229 169.162999 
L 494.030516 168.40607 
L 496.069804 174.304436 
L 498.109091 175.77389 
L 498.109091 175.77389 
" clip-path="url(#p8ad1d2fa4c)" style="fill: none; stroke: #008000; stroke-opacity: 0.9; stroke-width: 1.5; stroke-linecap: square"/>
   </g>
   <g id="line2d_41">
    <path d="M 438.969758 256.32 
L 438.969758 155.52 
" clip-path="url(#p8ad1d2fa4c)" style="fill: none; stroke-dasharray: 5.55,2.4; stroke-dashoffset: 0; stroke: #0000ff; stroke-width: 1.5"/>
   </g>
   <g id="line2d_42">
    <path d="M 153.469529 256.32 
L 153.469529 155.52 
" clip-path="url(#p8ad1d2fa4c)" style="fill: none; stroke-dasharray: 5.55,2.4; stroke-dashoffset: 0; stroke: #000000; stroke-width: 1.5"/>
   </g>
   <g id="patch_8">
    <path d="M 72 256.32 
L 72 155.52 
" style="fill: none; stroke: #000000; stroke-width: 0.8; stroke-linejoin: miter; stroke-linecap: square"/>
   </g>
   <g id="patch_9">
    <path d="M 518.4 256.32 
L 518.4 155.52 
" style="fill: none; stroke: #000000; stroke-width: 0.8; stroke-linejoin: miter; stroke-linecap: square"/>
   </g>
   <g id="patch_10">
    <path d="M 72 256.32 
L 518.4 256.32 
" style="fill: none; stroke: #000000; stroke-width: 0.8; stroke-linejoin: miter; stroke-linecap: square"/>
   </g>
   <g id="patch_11">
    <path d="M 72 155.52 
L 518.4 155.52 
" style="fill: none; stroke: #000000; stroke-width: 0.8; stroke-linejoin: miter; stroke-linecap: square"/>
   </g>
  </g>
 </g>
 <defs>
  <clipPath id="pc3dee9ef79">
   <rect x="72" y="34.56" width="446.4" height="100.8"/>
  </clipPath>
  <clipPath id="p8ad1d2fa4c">
   <rect x="72" y="155.52" width="446.4" height="100.8"/>
  </clipPath>
 </defs>
</svg>
