<?xml version="1.0" encoding="utf-8" standalone="no"?>
<!DOCTYPE svg PUBLIC "-//W3C//DTD SVG 1.1//EN"
  "http://www.w3.org/Graphics/SVG/1.1/DTD/svg11.dtd">
<svg xmlns:xlink="http://www.w3.org/1999/xlink" width="576pt" height="288pt" viewBox="0 0 576 288" xmlns="http://www.w3.org/2000/svg" version="1.1">
 <metadata>
  <rdf:RDF xmlns:dc="http://purl.org/dc/elements/1.1/" xmlns:cc="http://creativecommons.org/ns#" xmlns:rdf="http://www.w3.org/1999/02/22-rdf-syntax-ns#">
   <cc:Work>
    <dc:type rdf:resource="http://purl.org/dc/dcmitype/StillImage"/>
    <dc:date>2025-01-01T00:43:59.195670</dc:date>
    <dc:format>image/svg+xml</dc:format>
    <dc:creator>
     <cc:Agent>
      <dc:title>Matplotlib v3.10.0, https://matplotlib.org/</dc:title>
     </cc:Agent>
    </dc:creator>
   </cc:Work>
  </rdf:RDF>
 </metadata>
 <defs>
  <style type="text/css">*{stroke-linejoin: round; stroke-linecap: butt}</style>
 </defs>
 <g id="figure_1">
  <g id="patch_1">
   <path d="M 0 288 
L 576 288 
L 576 0 
L 0 0 
z
" style="fill: #ffffff"/>
  </g>
  <g id="axes_1">
   <g id="patch_2">
    <path d="M 72 135.36 
L 518.4 135.36 
L 518.4 34.56 
L 72 34.56 
z
" style="fill: #ffffff"/>
   </g>
   <g id="matplotlib.axis_1">
    <g id="xtick_1">
     <g id="line2d_1">
      <defs>
       <path id="m68f9671b8d" d="M 0 0 
L 0 3.5 
" style="stroke: #000000; stroke-width: 0.8"/>
      </defs>
      <g>
       <use xlink:href="#m68f9671b8d" x="92.290909" y="135.36" style="stroke: #000000; stroke-width: 0.8"/>
      </g>
     </g>
    </g>
    <g id="xtick_2">
     <g id="line2d_2">
      <g>
       <use xlink:href="#m68f9671b8d" x="143.273093" y="135.36" style="stroke: #000000; stroke-width: 0.8"/>
      </g>
     </g>
    </g>
    <g id="xtick_3">
     <g id="line2d_3">
      <g>
       <use xlink:href="#m68f9671b8d" x="194.255276" y="135.36" style="stroke: #000000; stroke-width: 0.8"/>
      </g>
     </g>
    </g>
    <g id="xtick_4">
     <g id="line2d_4">
      <g>
       <use xlink:href="#m68f9671b8d" x="245.23746" y="135.36" style="stroke: #000000; stroke-width: 0.8"/>
      </g>
     </g>
    </g>
    <g id="xtick_5">
     <g id="line2d_5">
      <g>
       <use xlink:href="#m68f9671b8d" x="296.219644" y="135.36" style="stroke: #000000; stroke-width: 0.8"/>
      </g>
     </g>
    </g>
    <g id="xtick_6">
     <g id="line2d_6">
      <g>
       <use xlink:href="#m68f9671b8d" x="347.201827" y="135.36" style="stroke: #000000; stroke-width: 0.8"/>
      </g>
     </g>
    </g>
    <g id="xtick_7">
     <g id="line2d_7">
      <g>
       <use xlink:href="#m68f9671b8d" x="398.184011" y="135.36" style="stroke: #000000; stroke-width: 0.8"/>
      </g>
     </g>
    </g>
    <g id="xtick_8">
     <g id="line2d_8">
      <g>
       <use xlink:href="#m68f9671b8d" x="449.166195" y="135.36" style="stroke: #000000; stroke-width: 0.8"/>
      </g>
     </g>
    </g>
    <g id="xtick_9">
     <g id="line2d_9">
      <g>
       <use xlink:href="#m68f9671b8d" x="500.148378" y="135.36" style="stroke: #000000; stroke-width: 0.8"/>
      </g>
     </g>
    </g>
   </g>
   <g id="matplotlib.axis_2">
    <g id="ytick_1">
     <g id="line2d_10">
      <defs>
       <path id="m631086c84d" d="M 0 0 
L -3.5 0 
" style="stroke: #000000; stroke-width: 0.8"/>
      </defs>
      <g>
       <use xlink:href="#m631086c84d" x="72" y="114.893919" style="stroke: #000000; stroke-width: 0.8"/>
      </g>
     </g>
     <g id="text_1">
      <!-- −150 -->
      <g transform="translate(37.532812 118.693137) scale(0.1 -0.1)">
       <defs>
        <path id="DejaVuSans-2212" d="M 678 2272 
L 4684 2272 
L 4684 1741 
L 678 1741 
L 678 2272 
z
" transform="scale(0.015625)"/>
        <path id="DejaVuSans-31" d="M 794 531 
L 1825 531 
L 1825 4091 
L 703 3866 
L 703 4441 
L 1819 4666 
L 2450 4666 
L 2450 531 
L 3481 531 
L 3481 0 
L 794 0 
L 794 531 
z
" transform="scale(0.015625)"/>
        <path id="DejaVuSans-35" d="M 691 4666 
L 3169 4666 
L 3169 4134 
L 1269 4134 
L 1269 2991 
Q 1406 3038 1543 3061 
Q 1681 3084 1819 3084 
Q 2600 3084 3056 2656 
Q 3513 2228 3513 1497 
Q 3513 744 3044 326 
Q 2575 -91 1722 -91 
Q 1428 -91 1123 -41 
Q 819 9 494 109 
L 494 744 
Q 775 591 1075 516 
Q 1375 441 1709 441 
Q 2250 441 2565 725 
Q 2881 1009 2881 1497 
Q 2881 1984 2565 2268 
Q 2250 2553 1709 2553 
Q 1456 2553 1204 2497 
Q 953 2441 691 2322 
L 691 4666 
z
" transform="scale(0.015625)"/>
        <path id="DejaVuSans-30" d="M 2034 4250 
Q 1547 4250 1301 3770 
Q 1056 3291 1056 2328 
Q 1056 1369 1301 889 
Q 1547 409 2034 409 
Q 2525 409 2770 889 
Q 3016 1369 3016 2328 
Q 3016 3291 2770 3770 
Q 2525 4250 2034 4250 
z
M 2034 4750 
Q 2819 4750 3233 4129 
Q 3647 3509 3647 2328 
Q 3647 1150 3233 529 
Q 2819 -91 2034 -91 
Q 1250 -91 836 529 
Q 422 1150 422 2328 
Q 422 3509 836 4129 
Q 1250 4750 2034 4750 
z
" transform="scale(0.015625)"/>
       </defs>
       <use xlink:href="#DejaVuSans-2212"/>
       <use xlink:href="#DejaVuSans-31" transform="translate(83.789062 0)"/>
       <use xlink:href="#DejaVuSans-35" transform="translate(147.412109 0)"/>
       <use xlink:href="#DejaVuSans-30" transform="translate(211.035156 0)"/>
      </g>
     </g>
    </g>
    <g id="ytick_2">
     <g id="line2d_11">
      <g>
       <use xlink:href="#m631086c84d" x="72" y="77.758822" style="stroke: #000000; stroke-width: 0.8"/>
      </g>
     </g>
     <g id="text_2">
      <!-- −100 -->
      <g transform="translate(37.532812 81.558041) scale(0.1 -0.1)">
       <use xlink:href="#DejaVuSans-2212"/>
       <use xlink:href="#DejaVuSans-31" transform="translate(83.789062 0)"/>
       <use xlink:href="#DejaVuSans-30" transform="translate(147.412109 0)"/>
       <use xlink:href="#DejaVuSans-30" transform="translate(211.035156 0)"/>
      </g>
     </g>
    </g>
    <g id="ytick_3">
     <g id="line2d_12">
      <g>
       <use xlink:href="#m631086c84d" x="72" y="40.623726" style="stroke: #000000; stroke-width: 0.8"/>
      </g>
     </g>
     <g id="text_3">
      <!-- −50 -->
      <g transform="translate(43.895313 44.422945) scale(0.1 -0.1)">
       <use xlink:href="#DejaVuSans-2212"/>
       <use xlink:href="#DejaVuSans-35" transform="translate(83.789062 0)"/>
       <use xlink:href="#DejaVuSans-30" transform="translate(147.412109 0)"/>
      </g>
     </g>
    </g>
   </g>
   <g id="line2d_13">
    <path d="M 92.290909 61.38205 
L 94.330196 103.444822 
L 96.369484 130.778182 
L 98.408771 102.604693 
L 100.448058 86.654518 
L 102.487346 104.017408 
L 104.526633 99.025544 
L 106.565921 70.464611 
L 108.605208 112.886189 
L 110.644495 47.17617 
L 112.683783 83.56024 
L 114.72307 122.614161 
L 116.762357 117.904867 
L 118.801645 109.053334 
L 120.840932 69.777791 
L 122.880219 111.989657 
L 124.919507 69.977525 
L 126.958794 65.357714 
L 128.998081 86.548353 
L 131.037369 66.952456 
L 133.076656 51.742037 
L 135.115943 52.300763 
L 137.155231 108.414599 
L 139.194518 107.883774 
L 141.233805 121.98278 
L 143.273093 122.730718 
L 145.31238 121.419464 
L 147.351667 114.001443 
L 149.390955 118.450379 
L 151.430242 105.727438 
L 153.469529 106.362253 
L 155.508817 112.63781 
L 157.548104 124.925154 
L 159.587392 110.09853 
L 161.626679 116.959547 
L 163.665966 101.192952 
L 165.705254 93.557076 
L 167.744541 109.006519 
L 169.783828 48.174952 
L 171.823116 55.298339 
L 173.862403 72.885311 
L 175.90169 47.331811 
L 177.940978 42.700327 
L 179.980265 70.904831 
L 182.019552 63.386328 
L 184.05884 70.754542 
L 186.098127 68.667223 
L 188.137414 55.433204 
L 190.176702 66.571229 
L 192.215989 62.030577 
L 194.255276 53.263054 
L 196.294564 68.577762 
L 198.333851 77.277895 
L 200.373138 97.968954 
L 202.412426 71.10461 
L 204.451713 56.245795 
L 206.491 47.621215 
L 208.530288 77.776212 
L 210.569575 56.462562 
L 212.608862 109.042863 
L 214.64815 104.719346 
L 216.687437 90.938444 
L 218.726725 89.498518 
L 220.766012 106.626192 
L 222.805299 118.298464 
L 224.844587 120.817685 
L 226.883874 67.120192 
L 228.923161 59.705944 
L 230.962449 83.086498 
L 233.001736 73.066142 
L 235.041023 43.427716 
L 237.080311 61.514563 
L 239.119598 56.581641 
L 241.158885 74.979118 
L 243.198173 50.112418 
L 245.23746 82.892369 
L 247.276747 50.9568 
L 249.316035 96.782326 
L 251.355322 75.587425 
L 253.394609 111.246173 
L 257.473184 69.4578 
L 259.512471 63.805838 
L 261.551759 57.362511 
L 263.591046 70.741351 
L 265.630333 66.822996 
L 269.708908 51.894304 
L 271.748196 42.630353 
L 273.787483 58.645688 
L 275.82677 52.563807 
L 277.866058 67.489497 
L 279.905345 58.181902 
L 281.944632 77.651354 
L 283.98392 66.204904 
L 286.023207 63.508801 
L 288.062494 55.927566 
L 290.101782 72.522522 
L 292.141069 72.312952 
L 294.180356 50.747573 
L 296.219644 40.994454 
L 298.258931 79.237018 
L 300.298218 55.365151 
L 302.337506 64.285547 
L 304.376793 61.075692 
L 306.41608 43.564502 
L 308.455368 50.017575 
L 310.494655 50.94625 
L 312.533942 57.771674 
L 314.57323 75.59852 
L 316.612517 39.141818 
L 318.651804 58.286877 
L 320.691092 47.525116 
L 322.730379 42.254843 
L 324.769667 54.644225 
L 326.808954 65.238709 
L 328.848241 46.42615 
L 330.887529 46.53655 
L 332.926816 48.803324 
L 334.966103 48.831806 
L 337.005391 53.637629 
L 339.044678 49.736608 
L 341.083965 47.745869 
L 343.123253 55.033856 
L 345.16254 51.222392 
L 347.201827 54.857382 
L 349.241115 51.556458 
L 351.280402 45.113222 
L 353.319689 51.983283 
L 355.358977 54.551948 
L 357.398264 68.545107 
L 359.437551 81.450953 
L 361.476839 49.520258 
L 363.516126 60.441875 
L 365.555413 47.122022 
L 367.594701 68.420096 
L 369.633988 53.088354 
L 371.673275 62.782747 
L 373.712563 50.334503 
L 375.75185 70.363189 
L 377.791138 51.516385 
L 379.830425 92.513813 
L 381.869712 67.083893 
L 383.909 72.317621 
L 385.948287 99.494243 
L 387.987574 70.949686 
L 390.026862 80.993003 
L 392.066149 66.374657 
L 394.105436 62.195978 
L 396.144724 97.381431 
L 398.184011 80.426207 
L 400.223298 82.051735 
L 402.262586 57.716138 
L 404.301873 80.23758 
L 406.34116 71.628959 
L 408.380448 67.791662 
L 410.419735 50.087523 
L 412.459022 70.720708 
L 414.49831 106.72141 
L 416.537597 77.84371 
L 418.576884 116.05209 
L 420.616172 101.199842 
L 422.655459 81.353174 
L 424.694746 81.230786 
L 426.734034 66.953918 
L 428.773321 66.914168 
L 430.812608 62.700421 
L 432.851896 61.914122 
L 434.891183 70.635651 
L 436.930471 58.845875 
L 438.969758 62.287354 
L 441.009045 73.404645 
L 443.048333 46.965469 
L 445.08762 65.708315 
L 447.126907 71.147777 
L 449.166195 63.322548 
L 451.205482 56.122659 
L 453.244769 66.318191 
L 455.284057 61.540005 
L 457.323344 54.644151 
L 459.362631 55.784581 
L 461.401919 56.6554 
L 463.441206 62.019652 
L 465.480493 59.638532 
L 467.519781 60.905831 
L 469.559068 56.420738 
L 471.598355 64.95424 
L 473.637643 68.809755 
L 475.67693 70.840025 
L 477.716217 52.968142 
L 479.755505 64.632277 
L 481.794792 62.808376 
L 483.834079 62.555702 
L 485.873367 69.048853 
L 487.912654 68.350955 
L 489.951942 46.356819 
L 491.991229 54.704345 
L 494.030516 45.330663 
L 496.069804 60.265045 
L 498.109091 58.346544 
L 498.109091 58.346544 
" clip-path="url(#p60434b6229)" style="fill: none; stroke: #ff0000; stroke-opacity: 0.9; stroke-width: 1.5; stroke-linecap: square"/>
   </g>
   <g id="line2d_14">
    <path d="M 92.290909 64.758229 
L 94.330196 102.353809 
L 96.369484 126.197333 
L 98.408771 104.107742 
L 100.448058 87.7087 
L 102.487346 104.688499 
L 104.526633 100.032661 
L 106.565921 64.708717 
L 108.605208 111.840178 
L 110.644495 44.533153 
L 112.683783 78.846147 
L 114.72307 119.824496 
L 116.762357 123.696675 
L 118.801645 110.697125 
L 120.840932 65.863567 
L 122.880219 113.645052 
L 124.919507 70.21269 
L 126.958794 63.988737 
L 128.998081 90.196547 
L 131.037369 65.020899 
L 133.076656 52.137816 
L 135.115943 48.66248 
L 137.155231 106.150342 
L 139.194518 108.947453 
L 141.233805 123.323103 
L 143.273093 117.485692 
L 145.31238 116.250753 
L 147.351667 113.12395 
L 149.390955 115.713842 
L 151.430242 108.611222 
L 153.469529 103.415912 
L 155.508817 110.72829 
L 157.548104 125.256648 
L 159.587392 106.687468 
L 161.626679 118.886599 
L 163.665966 98.130111 
L 165.705254 92.707784 
L 167.744541 109.494948 
L 169.783828 50.581401 
L 171.823116 57.611673 
L 173.862403 72.387719 
L 175.90169 51.153171 
L 177.940978 46.605595 
L 179.980265 71.176726 
L 182.019552 67.668469 
L 184.05884 72.71783 
L 186.098127 66.309607 
L 188.137414 58.679681 
L 190.176702 67.728136 
L 192.215989 60.980542 
L 194.255276 50.904457 
L 196.294564 68.690988 
L 198.333851 77.046656 
L 200.373138 95.076228 
L 202.412426 69.258639 
L 204.451713 53.115354 
L 206.491 46.358836 
L 208.530288 77.040916 
L 210.569575 56.921419 
L 212.608862 109.309998 
L 214.64815 107.106235 
L 216.687437 91.606469 
L 218.726725 90.764572 
L 220.766012 110.262435 
L 222.805299 120.015917 
L 224.844587 120.828292 
L 226.883874 67.834522 
L 228.923161 59.232871 
L 230.962449 80.352035 
L 233.001736 73.122505 
L 235.041023 42.645919 
L 237.080311 60.726327 
L 239.119598 52.651528 
L 241.158885 77.934389 
L 243.198173 52.145584 
L 245.23746 84.186669 
L 247.276747 49.176533 
L 249.316035 99.232196 
L 251.355322 73.628529 
L 253.394609 108.838829 
L 255.433897 90.361319 
L 257.473184 67.579332 
L 259.512471 63.771942 
L 261.551759 62.385756 
L 263.591046 66.362168 
L 265.630333 64.963862 
L 267.669621 62.700477 
L 269.708908 49.247034 
L 271.748196 42.252177 
L 273.787483 58.067645 
L 275.82677 48.38867 
L 277.866058 69.44475 
L 279.905345 57.2412 
L 281.944632 82.439836 
L 283.98392 63.825081 
L 286.023207 57.383669 
L 288.062494 56.684049 
L 290.101782 68.082086 
L 292.141069 73.719111 
L 294.180356 54.054577 
L 296.219644 44.542284 
L 298.258931 78.82581 
L 300.298218 57.838882 
L 302.337506 65.065732 
L 304.376793 60.694028 
L 306.41608 43.779586 
L 308.455368 50.57697 
L 310.494655 53.200027 
L 312.533942 58.56067 
L 314.57323 72.115864 
L 316.612517 39.233506 
L 318.651804 56.074268 
L 320.691092 47.308179 
L 322.730379 44.837595 
L 324.769667 52.452503 
L 326.808954 62.215074 
L 328.848241 50.684138 
L 330.887529 45.853088 
L 332.926816 51.106123 
L 334.966103 48.894113 
L 337.005391 57.02173 
L 339.044678 47.618416 
L 341.083965 53.238575 
L 343.123253 53.558651 
L 345.16254 49.024995 
L 347.201827 54.394871 
L 349.241115 52.05018 
L 351.280402 43.220559 
L 353.319689 50.90163 
L 355.358977 54.261507 
L 357.398264 64.622554 
L 359.437551 82.334662 
L 361.476839 49.449482 
L 363.516126 56.316625 
L 365.555413 48.706927 
L 367.594701 68.665659 
L 369.633988 53.853166 
L 371.673275 58.868325 
L 373.712563 54.438168 
L 375.75185 71.041289 
L 377.791138 53.37854 
L 379.830425 91.618714 
L 381.869712 67.258791 
L 383.909 70.652559 
L 385.948287 102.126995 
L 387.987574 71.71779 
L 390.026862 79.303434 
L 392.066149 66.746461 
L 394.105436 62.691473 
L 396.144724 97.4648 
L 398.184011 82.728429 
L 400.223298 86.312338 
L 402.262586 57.082887 
L 404.301873 82.345406 
L 406.34116 73.051228 
L 408.380448 69.038948 
L 410.419735 51.449834 
L 412.459022 68.272045 
L 414.49831 107.534125 
L 416.537597 77.21527 
L 418.576884 113.967604 
L 420.616172 100.787886 
L 422.655459 84.531042 
L 424.694746 76.409377 
L 426.734034 64.514287 
L 428.773321 66.227036 
L 430.812608 65.354937 
L 432.851896 59.427647 
L 434.891183 67.426929 
L 436.930471 61.734968 
L 438.969758 59.475709 
L 441.009045 70.95992 
L 443.048333 47.435069 
L 445.08762 64.414054 
L 447.126907 70.464759 
L 449.166195 67.320124 
L 451.205482 55.193545 
L 453.244769 62.317873 
L 455.284057 60.22249 
L 457.323344 56.525221 
L 459.362631 52.302792 
L 461.401919 56.917673 
L 463.441206 63.969777 
L 465.480493 59.972609 
L 467.519781 59.439869 
L 469.559068 54.742213 
L 471.598355 65.043491 
L 475.67693 70.756078 
L 477.716217 50.654996 
L 479.755505 65.532652 
L 481.794792 60.776174 
L 483.834079 62.8792 
L 485.873367 68.227791 
L 487.912654 69.675105 
L 489.951942 50.446689 
L 491.991229 53.993924 
L 494.030516 42.428903 
L 496.069804 64.419624 
L 498.109091 57.765384 
L 498.109091 57.765384 
" clip-path="url(#p60434b6229)" style="fill: none; stroke: #ff0000; stroke-opacity: 0.9; stroke-width: 1.5; stroke-linecap: square"/>
   </g>
   <g id="line2d_15">
    <path d="M 92.290909 63.242238 
L 94.330196 105.358297 
L 96.369484 129.843549 
L 98.408771 102.965142 
L 100.448058 89.379049 
L 102.487346 107.942647 
L 104.526633 97.889341 
L 106.565921 65.280651 
L 108.605208 113.831384 
L 110.644495 41.209807 
L 112.683783 79.659435 
L 114.72307 122.638028 
L 116.762357 118.25438 
L 118.801645 108.593622 
L 120.840932 69.340869 
L 122.880219 111.157234 
L 124.919507 72.598247 
L 126.958794 67.971847 
L 128.998081 89.526148 
L 131.037369 66.574373 
L 133.076656 52.298514 
L 135.115943 53.279679 
L 137.155231 110.143362 
L 139.194518 106.169947 
L 141.233805 124.622627 
L 143.273093 118.842288 
L 145.31238 116.587482 
L 147.351667 117.11833 
L 149.390955 116.589545 
L 151.430242 106.084521 
L 153.469529 104.337433 
L 155.508817 112.665337 
L 157.548104 126.525574 
L 159.587392 106.950988 
L 161.626679 118.3986 
L 163.665966 96.777288 
L 165.705254 91.164254 
L 167.744541 107.725206 
L 169.783828 46.664871 
L 171.823116 57.305717 
L 173.862403 77.003297 
L 175.90169 49.962005 
L 177.940978 43.48619 
L 179.980265 71.349505 
L 182.019552 64.867046 
L 184.05884 71.001193 
L 186.098127 64.802013 
L 188.137414 59.058568 
L 190.176702 66.91988 
L 192.215989 59.130701 
L 194.255276 46.527629 
L 196.294564 69.822323 
L 198.333851 71.846355 
L 200.373138 94.015173 
L 202.412426 73.008611 
L 204.451713 53.788218 
L 206.491 47.600977 
L 208.530288 75.038723 
L 210.569575 56.956573 
L 212.608862 106.947713 
L 214.64815 109.407505 
L 216.687437 94.074806 
L 218.726725 94.311751 
L 220.766012 107.016673 
L 222.805299 117.881601 
L 224.844587 119.784797 
L 226.883874 67.554989 
L 228.923161 59.711945 
L 230.962449 84.017193 
L 233.001736 71.137481 
L 235.041023 42.643114 
L 237.080311 61.374168 
L 239.119598 54.647778 
L 241.158885 77.587069 
L 243.198173 53.551461 
L 245.23746 82.962824 
L 247.276747 49.852454 
L 249.316035 95.964006 
L 251.355322 76.393908 
L 253.394609 111.253256 
L 255.433897 86.395214 
L 257.473184 71.323394 
L 259.512471 62.685609 
L 261.551759 60.252998 
L 263.591046 70.202491 
L 265.630333 67.000773 
L 267.669621 58.529613 
L 269.708908 46.230864 
L 271.748196 43.181424 
L 273.787483 59.438775 
L 275.82677 50.582834 
L 277.866058 63.966831 
L 279.905345 55.680762 
L 281.944632 77.186293 
L 283.98392 66.095327 
L 286.023207 61.130407 
L 288.062494 58.390073 
L 290.101782 65.714383 
L 292.141069 74.261592 
L 294.180356 54.466494 
L 296.219644 46.169424 
L 298.258931 78.499331 
L 300.298218 59.276417 
L 302.337506 64.025852 
L 304.376793 63.838516 
L 306.41608 44.568763 
L 308.455368 47.416149 
L 310.494655 52.560249 
L 312.533942 56.649337 
L 314.57323 73.760005 
L 316.612517 43.224234 
L 318.651804 56.623288 
L 320.691092 45.29093 
L 322.730379 43.023681 
L 324.769667 58.27921 
L 326.808954 63.997338 
L 328.848241 48.729839 
L 330.887529 47.114956 
L 332.926816 48.998907 
L 334.966103 43.209646 
L 337.005391 54.426393 
L 339.044678 49.933874 
L 341.083965 50.014127 
L 343.123253 54.121554 
L 345.16254 47.578485 
L 347.201827 57.1574 
L 349.241115 54.918279 
L 351.280402 43.703365 
L 353.319689 54.832836 
L 355.358977 55.364329 
L 357.398264 64.864615 
L 359.437551 80.882072 
L 361.476839 49.696179 
L 363.516126 59.832208 
L 365.555413 47.027139 
L 367.594701 67.710927 
L 369.633988 54.264856 
L 371.673275 60.791886 
L 373.712563 52.649976 
L 375.75185 67.512701 
L 377.791138 52.256758 
L 379.830425 88.444501 
L 381.869712 65.884873 
L 383.909 72.535113 
L 385.948287 101.016376 
L 387.987574 71.96477 
L 390.026862 76.984955 
L 392.066149 63.398154 
L 394.105436 63.004342 
L 396.144724 95.723452 
L 398.184011 81.397355 
L 400.223298 83.811889 
L 402.262586 59.497711 
L 404.301873 84.268298 
L 406.34116 75.601801 
L 408.380448 66.019766 
L 410.419735 48.524043 
L 412.459022 69.27187 
L 414.49831 104.365913 
L 416.537597 78.788735 
L 418.576884 111.414045 
L 420.616172 100.468065 
L 422.655459 85.603651 
L 424.694746 78.453972 
L 426.734034 69.207341 
L 428.773321 63.8573 
L 430.812608 60.68422 
L 432.851896 60.518275 
L 434.891183 69.13569 
L 436.930471 61.299644 
L 438.969758 60.528757 
L 441.009045 71.088648 
L 443.048333 48.189438 
L 445.08762 60.541002 
L 447.126907 69.208401 
L 449.166195 65.09454 
L 451.205482 54.952328 
L 453.244769 63.857238 
L 455.284057 63.954739 
L 457.323344 55.10341 
L 461.401919 56.028705 
L 463.441206 58.770229 
L 465.480493 63.174559 
L 467.519781 60.573703 
L 469.559068 53.373775 
L 471.598355 68.524113 
L 473.637643 66.623948 
L 475.67693 71.078358 
L 477.716217 50.072958 
L 479.755505 62.853237 
L 481.794792 60.415169 
L 483.834079 59.717158 
L 485.873367 70.373275 
L 487.912654 67.005992 
L 489.951942 43.089269 
L 491.991229 53.378874 
L 494.030516 43.35447 
L 496.069804 60.781251 
L 498.109091 60.215583 
L 498.109091 60.215583 
" clip-path="url(#p60434b6229)" style="fill: none; stroke: #ff0000; stroke-opacity: 0.9; stroke-width: 1.5; stroke-linecap: square"/>
   </g>
   <g id="line2d_16">
    <path d="M 92.290909 62.981484 
L 94.330196 102.15093 
L 96.369484 127.560196 
L 98.408771 105.226804 
L 100.448058 87.633168 
L 102.487346 106.342273 
L 104.526633 98.905995 
L 106.565921 66.860406 
L 108.605208 112.703777 
L 110.644495 47.012058 
L 112.683783 80.303168 
L 114.72307 123.223205 
L 116.762357 123.485739 
L 118.801645 110.178029 
L 120.840932 69.345379 
L 122.880219 114.102656 
L 124.919507 69.790982 
L 126.958794 68.112792 
L 128.998081 84.210796 
L 131.037369 65.808201 
L 133.076656 51.470091 
L 135.115943 55.564992 
L 137.155231 110.14692 
L 139.194518 107.534204 
L 141.233805 123.000584 
L 143.273093 117.857949 
L 145.31238 117.45064 
L 147.351667 113.288014 
L 149.390955 112.344326 
L 151.430242 106.369596 
L 153.469529 108.601918 
L 155.508817 110.391843 
L 157.548104 126.907329 
L 159.587392 106.058025 
L 161.626679 119.011939 
L 163.665966 97.600957 
L 165.705254 93.673554 
L 167.744541 109.856338 
L 169.783828 47.858808 
L 171.823116 54.372976 
L 173.862403 75.005376 
L 175.90169 51.070516 
L 177.940978 42.211204 
L 179.980265 74.027951 
L 182.019552 70.093731 
L 184.05884 71.923038 
L 186.098127 66.918129 
L 188.137414 58.318569 
L 190.176702 69.748309 
L 192.215989 59.594612 
L 194.255276 50.467124 
L 196.294564 68.69845 
L 198.333851 74.343477 
L 200.373138 97.337097 
L 202.412426 72.359897 
L 204.451713 52.469406 
L 206.491 47.845243 
L 208.530288 76.942843 
L 210.569575 54.12322 
L 212.608862 107.432493 
L 214.64815 107.952926 
L 216.687437 94.338598 
L 218.726725 95.646169 
L 220.766012 106.911777 
L 222.805299 118.962743 
L 224.844587 119.490327 
L 226.883874 66.935565 
L 228.923161 58.331069 
L 230.962449 80.736027 
L 233.001736 74.898441 
L 235.041023 46.072614 
L 237.080311 65.404099 
L 239.119598 53.865349 
L 241.158885 73.870018 
L 243.198173 52.789357 
L 245.23746 86.438392 
L 247.276747 50.844133 
L 249.316035 98.823674 
L 251.355322 74.061439 
L 253.394609 110.071603 
L 257.473184 69.865047 
L 259.512471 64.159646 
L 261.551759 60.390328 
L 263.591046 71.341549 
L 265.630333 71.396961 
L 269.708908 52.294372 
L 271.748196 45.739021 
L 273.787483 59.050669 
L 275.82677 50.405341 
L 277.866058 66.392698 
L 279.905345 57.300515 
L 281.944632 80.566099 
L 283.98392 62.692522 
L 286.023207 62.444992 
L 288.062494 54.410901 
L 290.101782 72.235634 
L 292.141069 74.495001 
L 294.180356 57.51378 
L 296.219644 45.788882 
L 298.258931 80.813741 
L 300.298218 61.233262 
L 302.337506 62.35484 
L 304.376793 59.589302 
L 306.41608 47.229414 
L 308.455368 48.657307 
L 310.494655 55.039148 
L 312.533942 57.816398 
L 314.57323 75.881465 
L 316.612517 41.521148 
L 318.651804 54.483351 
L 320.691092 47.468872 
L 322.730379 42.720012 
L 324.769667 54.775974 
L 326.808954 64.215969 
L 328.848241 47.648402 
L 330.887529 44.739525 
L 332.926816 47.591169 
L 334.966103 46.477105 
L 337.005391 56.520597 
L 339.044678 50.886215 
L 341.083965 50.714311 
L 343.123253 55.889539 
L 345.16254 51.23309 
L 347.201827 53.842327 
L 349.241115 55.299104 
L 351.280402 43.107413 
L 353.319689 50.619567 
L 355.358977 55.910601 
L 357.398264 65.772135 
L 359.437551 83.095389 
L 361.476839 50.18607 
L 363.516126 61.21122 
L 365.555413 44.728787 
L 367.594701 70.190127 
L 369.633988 54.489732 
L 371.673275 61.627375 
L 373.712563 52.79436 
L 375.75185 68.013806 
L 377.791138 54.788774 
L 379.830425 88.657664 
L 381.869712 66.618526 
L 383.909 70.539725 
L 385.948287 101.046657 
L 387.987574 73.258555 
L 390.026862 81.368224 
L 392.066149 62.7181 
L 394.105436 61.18962 
L 396.144724 97.831544 
L 398.184011 84.305753 
L 400.223298 83.250472 
L 402.262586 58.853015 
L 404.301873 80.586741 
L 406.34116 71.295159 
L 408.380448 69.700592 
L 410.419735 49.697589 
L 412.459022 67.590517 
L 414.49831 108.219087 
L 416.537597 77.20183 
L 418.576884 114.870471 
L 422.655459 86.234618 
L 424.694746 76.453637 
L 426.734034 64.480764 
L 428.773321 68.066464 
L 430.812608 59.085528 
L 432.851896 62.247638 
L 434.891183 67.9652 
L 436.930471 59.483194 
L 441.009045 70.894382 
L 443.048333 46.090967 
L 445.08762 63.496437 
L 447.126907 74.8512 
L 449.166195 66.040692 
L 451.205482 56.538757 
L 453.244769 65.477841 
L 455.284057 61.051814 
L 457.323344 55.884864 
L 459.362631 55.777935 
L 461.401919 61.360059 
L 463.441206 63.026072 
L 465.480493 66.654428 
L 467.519781 62.343626 
L 469.559068 55.714936 
L 471.598355 65.126232 
L 473.637643 70.912192 
L 475.67693 71.103998 
L 477.716217 53.737827 
L 479.755505 65.274509 
L 481.794792 65.003662 
L 483.834079 61.318354 
L 485.873367 67.930482 
L 487.912654 66.940619 
L 489.951942 49.157933 
L 491.991229 54.073781 
L 494.030516 45.104586 
L 496.069804 60.030304 
L 498.109091 58.224909 
L 498.109091 58.224909 
" clip-path="url(#p60434b6229)" style="fill: none; stroke: #ff0000; stroke-opacity: 0.9; stroke-width: 1.5; stroke-linecap: square"/>
   </g>
   <g id="line2d_17">
    <path d="M 92.290909 60.953712 
L 94.330196 108.331904 
L 96.369484 127.907283 
L 98.408771 105.311561 
L 100.448058 93.45554 
L 102.487346 105.380045 
L 104.526633 97.245081 
L 106.565921 66.526833 
L 108.605208 111.707268 
L 110.644495 46.05634 
L 112.683783 80.892651 
L 114.72307 121.256284 
L 116.762357 120.68967 
L 118.801645 108.412831 
L 120.840932 68.291435 
L 122.880219 114.516913 
L 124.919507 71.667887 
L 126.958794 64.475415 
L 128.998081 86.022072 
L 131.037369 63.983705 
L 133.076656 53.948684 
L 135.115943 54.315304 
L 137.155231 106.56589 
L 139.194518 107.608808 
L 141.233805 124.80539 
L 143.273093 122.099938 
L 145.31238 116.689375 
L 147.351667 114.260646 
L 149.390955 118.222081 
L 151.430242 107.285462 
L 153.469529 107.693611 
L 155.508817 110.80006 
L 157.548104 126.334697 
L 159.587392 105.992658 
L 161.626679 117.405422 
L 163.665966 95.97973 
L 165.705254 92.941816 
L 167.744541 110.416492 
L 169.783828 49.95425 
L 171.823116 54.594378 
L 173.862403 73.530977 
L 175.90169 47.716109 
L 177.940978 45.946747 
L 179.980265 70.066719 
L 182.019552 68.488619 
L 184.05884 71.945601 
L 188.137414 57.532043 
L 190.176702 71.644796 
L 192.215989 64.563805 
L 194.255276 51.291085 
L 196.294564 70.213359 
L 198.333851 74.097177 
L 200.373138 98.827754 
L 202.412426 68.829054 
L 204.451713 52.309019 
L 206.491 44.228572 
L 208.530288 76.512465 
L 210.569575 54.99916 
L 212.608862 112.635373 
L 214.64815 109.843181 
L 216.687437 94.851268 
L 218.726725 95.154487 
L 220.766012 108.63918 
L 222.805299 121.165951 
L 224.844587 121.062948 
L 226.883874 67.481916 
L 228.923161 61.418207 
L 230.962449 81.445258 
L 233.001736 76.128308 
L 235.041023 42.714269 
L 237.080311 59.560256 
L 239.119598 50.110058 
L 241.158885 73.690745 
L 243.198173 51.116227 
L 245.23746 84.042148 
L 247.276747 49.821904 
L 249.316035 97.350532 
L 251.355322 74.566199 
L 253.394609 111.13986 
L 257.473184 67.331338 
L 259.512471 66.59756 
L 261.551759 57.720042 
L 263.591046 70.578806 
L 265.630333 64.286958 
L 267.669621 60.581347 
L 269.708908 53.148389 
L 271.748196 43.316406 
L 273.787483 59.056454 
L 275.82677 48.805533 
L 277.866058 65.2604 
L 279.905345 57.539936 
L 281.944632 74.334309 
L 283.98392 65.822532 
L 288.062494 55.111576 
L 290.101782 68.031536 
L 292.141069 73.714742 
L 294.180356 54.834468 
L 296.219644 46.660446 
L 298.258931 81.925794 
L 300.298218 57.429958 
L 302.337506 60.924411 
L 304.376793 63.400687 
L 306.41608 44.603478 
L 308.455368 46.94892 
L 310.494655 54.081827 
L 312.533942 59.810138 
L 314.57323 72.395669 
L 316.612517 42.221114 
L 318.651804 55.966783 
L 320.691092 46.17445 
L 322.730379 44.489737 
L 324.769667 58.217668 
L 326.808954 62.474106 
L 328.848241 46.106646 
L 330.887529 44.080776 
L 332.926816 51.450701 
L 334.966103 49.53412 
L 337.005391 53.651982 
L 339.044678 47.664543 
L 341.083965 48.480038 
L 343.123253 51.091844 
L 345.16254 49.845164 
L 349.241115 57.672495 
L 351.280402 44.361459 
L 353.319689 53.590717 
L 355.358977 54.505898 
L 359.437551 78.405853 
L 361.476839 49.158749 
L 363.516126 58.032978 
L 365.555413 46.657689 
L 367.594701 70.146099 
L 369.633988 56.373538 
L 371.673275 58.682525 
L 373.712563 51.398287 
L 375.75185 68.618073 
L 377.791138 50.681721 
L 379.830425 91.545459 
L 381.869712 68.74743 
L 383.909 70.669671 
L 385.948287 104.007628 
L 387.987574 72.086048 
L 390.026862 79.38716 
L 392.066149 61.016541 
L 394.105436 62.238838 
L 396.144724 97.202889 
L 398.184011 84.052806 
L 400.223298 83.333297 
L 402.262586 59.624949 
L 404.301873 78.73308 
L 406.34116 74.104515 
L 408.380448 71.232925 
L 410.419735 50.981942 
L 412.459022 68.433128 
L 414.49831 102.969516 
L 416.537597 77.612902 
L 418.576884 113.956328 
L 420.616172 99.581471 
L 422.655459 83.466621 
L 424.694746 76.555269 
L 426.734034 65.885836 
L 428.773321 64.940771 
L 430.812608 60.417413 
L 432.851896 60.068711 
L 434.891183 67.128272 
L 436.930471 58.799218 
L 438.969758 62.19391 
L 441.009045 71.608027 
L 443.048333 47.185372 
L 445.08762 61.150312 
L 447.126907 71.200196 
L 449.166195 65.555855 
L 451.205482 58.272308 
L 453.244769 65.19875 
L 455.284057 61.148448 
L 457.323344 54.08249 
L 459.362631 51.303149 
L 461.401919 57.541925 
L 463.441206 62.619794 
L 465.480493 62.914354 
L 467.519781 61.287529 
L 469.559068 53.592304 
L 471.598355 67.751227 
L 473.637643 68.039809 
L 475.67693 71.085628 
L 477.716217 51.975367 
L 479.755505 62.911249 
L 481.794792 60.53541 
L 485.873367 70.811654 
L 487.912654 68.86779 
L 489.951942 47.037491 
L 491.991229 53.074891 
L 494.030516 46.673654 
L 496.069804 64.29382 
L 498.109091 60.961651 
L 498.109091 60.961651 
" clip-path="url(#p60434b6229)" style="fill: none; stroke: #ff0000; stroke-opacity: 0.9; stroke-width: 1.5; stroke-linecap: square"/>
   </g>
   <g id="line2d_18">
    <path d="M 92.290909 110.708627 
L 94.330196 99.743631 
L 96.369484 118.648725 
L 98.408771 99.907763 
L 100.448058 90.984245 
L 102.487346 103.619403 
L 104.526633 98.059151 
L 106.565921 67.090001 
L 108.605208 111.082041 
L 110.644495 47.76539 
L 112.683783 80.840883 
L 114.72307 117.363287 
L 116.762357 119.471946 
L 118.801645 111.078346 
L 120.840932 69.892048 
L 122.880219 110.994054 
L 124.919507 68.462814 
L 126.958794 64.222236 
L 128.998081 84.875608 
L 131.037369 64.100466 
L 133.076656 51.285243 
L 135.115943 53.480909 
L 137.155231 103.92856 
L 139.194518 107.910519 
L 141.233805 123.215476 
L 143.273093 119.439772 
L 145.31238 119.555275 
L 147.351667 111.840835 
L 149.390955 116.414545 
L 151.430242 107.946183 
L 153.469529 106.458637 
L 155.508817 113.022091 
L 157.548104 126.131807 
L 159.587392 108.261449 
L 161.626679 121.728055 
L 163.665966 95.052277 
L 165.705254 94.249409 
L 167.744541 111.399369 
L 169.783828 51.225366 
L 171.823116 55.566505 
L 173.862403 75.002084 
L 175.90169 51.961575 
L 177.940978 44.801495 
L 179.980265 69.182517 
L 182.019552 64.826441 
L 184.05884 70.953369 
L 186.098127 66.333864 
L 188.137414 60.256466 
L 190.176702 68.85087 
L 192.215989 62.158676 
L 194.255276 49.09694 
L 196.294564 69.118011 
L 198.333851 74.834807 
L 200.373138 92.073644 
L 202.412426 71.296173 
L 204.451713 53.543392 
L 206.491 44.081586 
L 208.530288 73.31961 
L 210.569575 58.865577 
L 212.608862 110.143815 
L 214.64815 104.64795 
L 216.687437 93.007376 
L 218.726725 91.682392 
L 220.766012 107.842749 
L 222.805299 119.049643 
L 224.844587 118.172025 
L 226.883874 70.230426 
L 228.923161 59.096844 
L 230.962449 78.96896 
L 233.001736 73.581572 
L 235.041023 45.48236 
L 237.080311 59.892991 
L 239.119598 52.856033 
L 241.158885 74.297897 
L 243.198173 53.350027 
L 245.23746 80.958948 
L 247.276747 51.512906 
L 249.316035 100.857321 
L 251.355322 76.973305 
L 253.394609 109.312877 
L 257.473184 72.187895 
L 259.512471 65.88425 
L 261.551759 57.906244 
L 263.591046 68.997085 
L 265.630333 64.520151 
L 267.669621 61.435954 
L 269.708908 49.865016 
L 271.748196 41.06532 
L 273.787483 62.626996 
L 275.82677 50.901182 
L 277.866058 65.974996 
L 279.905345 55.108674 
L 281.944632 81.58303 
L 283.98392 65.07864 
L 286.023207 63.538708 
L 288.062494 54.109467 
L 290.101782 67.604677 
L 292.141069 75.242298 
L 294.180356 55.254079 
L 296.219644 43.109824 
L 298.258931 78.74052 
L 300.298218 56.313004 
L 302.337506 61.333665 
L 304.376793 58.992362 
L 306.41608 46.262862 
L 308.455368 46.976728 
L 310.494655 57.381799 
L 312.533942 61.5559 
L 314.57323 72.725004 
L 316.612517 42.103177 
L 318.651804 57.601212 
L 320.691092 47.661304 
L 322.730379 43.802141 
L 326.808954 63.456348 
L 328.848241 47.502941 
L 332.926816 49.064537 
L 334.966103 47.405054 
L 337.005391 57.30047 
L 339.044678 42.512484 
L 341.083965 51.444201 
L 343.123253 57.333528 
L 345.16254 50.101669 
L 347.201827 53.786264 
L 349.241115 55.687941 
L 351.280402 42.874035 
L 353.319689 59.352788 
L 355.358977 58.669713 
L 357.398264 65.434555 
L 359.437551 82.977874 
L 361.476839 49.146419 
L 363.516126 56.974586 
L 365.555413 47.348405 
L 367.594701 70.361155 
L 369.633988 54.166862 
L 371.673275 63.075234 
L 373.712563 53.084512 
L 375.75185 68.785882 
L 377.791138 51.301511 
L 379.830425 93.383895 
L 381.869712 66.936329 
L 383.909 72.70061 
L 385.948287 99.135959 
L 387.987574 72.529061 
L 390.026862 80.082259 
L 392.066149 62.845253 
L 394.105436 67.301034 
L 396.144724 99.994118 
L 398.184011 83.270763 
L 400.223298 83.527115 
L 402.262586 59.89328 
L 404.301873 79.951173 
L 406.34116 68.820872 
L 408.380448 69.704032 
L 410.419735 48.461854 
L 412.459022 69.141962 
L 414.49831 104.049287 
L 416.537597 78.569334 
L 418.576884 111.430964 
L 420.616172 104.635371 
L 422.655459 85.852614 
L 424.694746 81.022762 
L 426.734034 62.306189 
L 428.773321 66.731218 
L 430.812608 65.188771 
L 432.851896 64.26678 
L 434.891183 71.399896 
L 436.930471 60.879375 
L 438.969758 60.853673 
L 441.009045 71.472771 
L 443.048333 49.277596 
L 445.08762 61.07746 
L 447.126907 69.997697 
L 449.166195 66.99832 
L 451.205482 57.402567 
L 453.244769 64.970083 
L 455.284057 63.061119 
L 457.323344 54.142021 
L 459.362631 51.146797 
L 461.401919 61.135229 
L 463.441206 61.080101 
L 465.480493 63.17095 
L 467.519781 55.826274 
L 469.559068 57.099433 
L 471.598355 68.367965 
L 473.637643 68.480465 
L 475.67693 70.737152 
L 477.716217 51.364164 
L 479.755505 65.661901 
L 481.794792 58.733641 
L 483.834079 62.32992 
L 485.873367 66.862695 
L 487.912654 67.43961 
L 489.951942 47.968016 
L 491.991229 51.012948 
L 494.030516 45.444619 
L 496.069804 65.058059 
L 498.109091 59.606823 
L 498.109091 59.606823 
" clip-path="url(#p60434b6229)" style="fill: none; stroke: #008000; stroke-opacity: 0.9; stroke-width: 1.5; stroke-linecap: square"/>
   </g>
   <g id="line2d_19">
    <path d="M 153.469529 135.36 
L 153.469529 34.56 
" clip-path="url(#p60434b6229)" style="fill: none; stroke-dasharray: 5.55,2.4; stroke-dashoffset: 0; stroke: #000000; stroke-width: 1.5"/>
   </g>
   <g id="line2d_20">
    <path d="M 438.969758 135.36 
L 438.969758 34.56 
" clip-path="url(#p60434b6229)" style="fill: none; stroke-dasharray: 5.55,2.4; stroke-dashoffset: 0; stroke: #0000ff; stroke-width: 1.5"/>
   </g>
   <g id="patch_3">
    <path d="M 72 135.36 
L 72 34.56 
" style="fill: none; stroke: #000000; stroke-width: 0.8; stroke-linejoin: miter; stroke-linecap: square"/>
   </g>
   <g id="patch_4">
    <path d="M 518.4 135.36 
L 518.4 34.56 
" style="fill: none; stroke: #000000; stroke-width: 0.8; stroke-linejoin: miter; stroke-linecap: square"/>
   </g>
   <g id="patch_5">
    <path d="M 72 135.36 
L 518.4 135.36 
" style="fill: none; stroke: #000000; stroke-width: 0.8; stroke-linejoin: miter; stroke-linecap: square"/>
   </g>
   <g id="patch_6">
    <path d="M 72 34.56 
L 518.4 34.56 
" style="fill: none; stroke: #000000; stroke-width: 0.8; stroke-linejoin: miter; stroke-linecap: square"/>
   </g>
  </g>
  <g id="axes_2">
   <g id="patch_7">
    <path d="M 72 256.32 
L 518.4 256.32 
L 518.4 155.52 
L 72 155.52 
z
" style="fill: #ffffff"/>
   </g>
   <g id="matplotlib.axis_3">
    <g id="xtick_10">
     <g id="line2d_21">
      <g>
       <use xlink:href="#m68f9671b8d" x="92.290909" y="256.32" style="stroke: #000000; stroke-width: 0.8"/>
      </g>
     </g>
     <g id="text_4">
      <!-- 0 -->
      <g transform="translate(89.109659 270.918437) scale(0.1 -0.1)">
       <use xlink:href="#DejaVuSans-30"/>
      </g>
     </g>
    </g>
    <g id="xtick_11">
     <g id="line2d_22">
      <g>
       <use xlink:href="#m68f9671b8d" x="143.273093" y="256.32" style="stroke: #000000; stroke-width: 0.8"/>
      </g>
     </g>
     <g id="text_5">
      <!-- 25 -->
      <g transform="translate(136.910593 270.918437) scale(0.1 -0.1)">
       <defs>
        <path id="DejaVuSans-32" d="M 1228 531 
L 3431 531 
L 3431 0 
L 469 0 
L 469 531 
Q 828 903 1448 1529 
Q 2069 2156 2228 2338 
Q 2531 2678 2651 2914 
Q 2772 3150 2772 3378 
Q 2772 3750 2511 3984 
Q 2250 4219 1831 4219 
Q 1534 4219 1204 4116 
Q 875 4013 500 3803 
L 500 4441 
Q 881 4594 1212 4672 
Q 1544 4750 1819 4750 
Q 2544 4750 2975 4387 
Q 3406 4025 3406 3419 
Q 3406 3131 3298 2873 
Q 3191 2616 2906 2266 
Q 2828 2175 2409 1742 
Q 1991 1309 1228 531 
z
" transform="scale(0.015625)"/>
       </defs>
       <use xlink:href="#DejaVuSans-32"/>
       <use xlink:href="#DejaVuSans-35" transform="translate(63.623047 0)"/>
      </g>
     </g>
    </g>
    <g id="xtick_12">
     <g id="line2d_23">
      <g>
       <use xlink:href="#m68f9671b8d" x="194.255276" y="256.32" style="stroke: #000000; stroke-width: 0.8"/>
      </g>
     </g>
     <g id="text_6">
      <!-- 50 -->
      <g transform="translate(187.892776 270.918437) scale(0.1 -0.1)">
       <use xlink:href="#DejaVuSans-35"/>
       <use xlink:href="#DejaVuSans-30" transform="translate(63.623047 0)"/>
      </g>
     </g>
    </g>
    <g id="xtick_13">
     <g id="line2d_24">
      <g>
       <use xlink:href="#m68f9671b8d" x="245.23746" y="256.32" style="stroke: #000000; stroke-width: 0.8"/>
      </g>
     </g>
     <g id="text_7">
      <!-- 75 -->
      <g transform="translate(238.87496 270.918437) scale(0.1 -0.1)">
       <defs>
        <path id="DejaVuSans-37" d="M 525 4666 
L 3525 4666 
L 3525 4397 
L 1831 0 
L 1172 0 
L 2766 4134 
L 525 4134 
L 525 4666 
z
" transform="scale(0.015625)"/>
       </defs>
       <use xlink:href="#DejaVuSans-37"/>
       <use xlink:href="#DejaVuSans-35" transform="translate(63.623047 0)"/>
      </g>
     </g>
    </g>
    <g id="xtick_14">
     <g id="line2d_25">
      <g>
       <use xlink:href="#m68f9671b8d" x="296.219644" y="256.32" style="stroke: #000000; stroke-width: 0.8"/>
      </g>
     </g>
     <g id="text_8">
      <!-- 100 -->
      <g transform="translate(286.675894 270.918437) scale(0.1 -0.1)">
       <use xlink:href="#DejaVuSans-31"/>
       <use xlink:href="#DejaVuSans-30" transform="translate(63.623047 0)"/>
       <use xlink:href="#DejaVuSans-30" transform="translate(127.246094 0)"/>
      </g>
     </g>
    </g>
    <g id="xtick_15">
     <g id="line2d_26">
      <g>
       <use xlink:href="#m68f9671b8d" x="347.201827" y="256.32" style="stroke: #000000; stroke-width: 0.8"/>
      </g>
     </g>
     <g id="text_9">
      <!-- 125 -->
      <g transform="translate(337.658077 270.918437) scale(0.1 -0.1)">
       <use xlink:href="#DejaVuSans-31"/>
       <use xlink:href="#DejaVuSans-32" transform="translate(63.623047 0)"/>
       <use xlink:href="#DejaVuSans-35" transform="translate(127.246094 0)"/>
      </g>
     </g>
    </g>
    <g id="xtick_16">
     <g id="line2d_27">
      <g>
       <use xlink:href="#m68f9671b8d" x="398.184011" y="256.32" style="stroke: #000000; stroke-width: 0.8"/>
      </g>
     </g>
     <g id="text_10">
      <!-- 150 -->
      <g transform="translate(388.640261 270.918437) scale(0.1 -0.1)">
       <use xlink:href="#DejaVuSans-31"/>
       <use xlink:href="#DejaVuSans-35" transform="translate(63.623047 0)"/>
       <use xlink:href="#DejaVuSans-30" transform="translate(127.246094 0)"/>
      </g>
     </g>
    </g>
    <g id="xtick_17">
     <g id="line2d_28">
      <g>
       <use xlink:href="#m68f9671b8d" x="449.166195" y="256.32" style="stroke: #000000; stroke-width: 0.8"/>
      </g>
     </g>
     <g id="text_11">
      <!-- 175 -->
      <g transform="translate(439.622445 270.918437) scale(0.1 -0.1)">
       <use xlink:href="#DejaVuSans-31"/>
       <use xlink:href="#DejaVuSans-37" transform="translate(63.623047 0)"/>
       <use xlink:href="#DejaVuSans-35" transform="translate(127.246094 0)"/>
      </g>
     </g>
    </g>
    <g id="xtick_18">
     <g id="line2d_29">
      <g>
       <use xlink:href="#m68f9671b8d" x="500.148378" y="256.32" style="stroke: #000000; stroke-width: 0.8"/>
      </g>
     </g>
     <g id="text_12">
      <!-- 200 -->
      <g transform="translate(490.604628 270.918437) scale(0.1 -0.1)">
       <use xlink:href="#DejaVuSans-32"/>
       <use xlink:href="#DejaVuSans-30" transform="translate(63.623047 0)"/>
       <use xlink:href="#DejaVuSans-30" transform="translate(127.246094 0)"/>
      </g>
     </g>
    </g>
   </g>
   <g id="matplotlib.axis_4">
    <g id="ytick_4">
     <g id="line2d_30">
      <g>
       <use xlink:href="#m631086c84d" x="72" y="253.036819" style="stroke: #000000; stroke-width: 0.8"/>
      </g>
     </g>
     <g id="text_13">
      <!-- −200 -->
      <g transform="translate(37.532812 256.836037) scale(0.1 -0.1)">
       <use xlink:href="#DejaVuSans-2212"/>
       <use xlink:href="#DejaVuSans-32" transform="translate(83.789062 0)"/>
       <use xlink:href="#DejaVuSans-30" transform="translate(147.412109 0)"/>
       <use xlink:href="#DejaVuSans-30" transform="translate(211.035156 0)"/>
      </g>
     </g>
    </g>
    <g id="ytick_5">
     <g id="line2d_31">
      <g>
       <use xlink:href="#m631086c84d" x="72" y="228.891353" style="stroke: #000000; stroke-width: 0.8"/>
      </g>
     </g>
     <g id="text_14">
      <!-- −100 -->
      <g transform="translate(37.532812 232.690572) scale(0.1 -0.1)">
       <use xlink:href="#DejaVuSans-2212"/>
       <use xlink:href="#DejaVuSans-31" transform="translate(83.789062 0)"/>
       <use xlink:href="#DejaVuSans-30" transform="translate(147.412109 0)"/>
       <use xlink:href="#DejaVuSans-30" transform="translate(211.035156 0)"/>
      </g>
     </g>
    </g>
    <g id="ytick_6">
     <g id="line2d_32">
      <g>
       <use xlink:href="#m631086c84d" x="72" y="204.745887" style="stroke: #000000; stroke-width: 0.8"/>
      </g>
     </g>
     <g id="text_15">
      <!-- 0 -->
      <g transform="translate(58.6375 208.545106) scale(0.1 -0.1)">
       <use xlink:href="#DejaVuSans-30"/>
      </g>
     </g>
    </g>
    <g id="ytick_7">
     <g id="line2d_33">
      <g>
       <use xlink:href="#m631086c84d" x="72" y="180.600422" style="stroke: #000000; stroke-width: 0.8"/>
      </g>
     </g>
     <g id="text_16">
      <!-- 100 -->
      <g transform="translate(45.9125 184.39964) scale(0.1 -0.1)">
       <use xlink:href="#DejaVuSans-31"/>
       <use xlink:href="#DejaVuSans-30" transform="translate(63.623047 0)"/>
       <use xlink:href="#DejaVuSans-30" transform="translate(127.246094 0)"/>
      </g>
     </g>
    </g>
    <g id="ytick_8">
     <g id="line2d_34">
      <g>
       <use xlink:href="#m631086c84d" x="72" y="156.454956" style="stroke: #000000; stroke-width: 0.8"/>
      </g>
     </g>
     <g id="text_17">
      <!-- 200 -->
      <g transform="translate(45.9125 160.254175) scale(0.1 -0.1)">
       <use xlink:href="#DejaVuSans-32"/>
       <use xlink:href="#DejaVuSans-30" transform="translate(63.623047 0)"/>
       <use xlink:href="#DejaVuSans-30" transform="translate(127.246094 0)"/>
      </g>
     </g>
    </g>
   </g>
   <g id="line2d_35">
    <path d="M 92.290909 177.971824 
L 94.330196 170.00416 
L 96.369484 164.061633 
L 98.408771 165.243038 
L 100.448058 170.766885 
L 102.487346 167.308412 
L 104.526633 169.797072 
L 106.565921 163.805382 
L 108.605208 165.864584 
L 110.644495 176.637271 
L 112.683783 248.910547 
L 114.72307 163.077017 
L 116.762357 164.680891 
L 118.801645 170.503228 
L 120.840932 162.893612 
L 122.880219 168.739268 
L 124.919507 167.686949 
L 126.958794 180.450423 
L 128.998081 164.33825 
L 131.037369 168.352928 
L 133.076656 175.016182 
L 135.115943 168.915676 
L 137.155231 167.048484 
L 139.194518 165.61781 
L 141.233805 168.915547 
L 143.273093 166.172445 
L 145.31238 162.806865 
L 147.351667 161.893555 
L 149.390955 165.803425 
L 151.430242 163.8097 
L 153.469529 164.718157 
L 155.508817 169.037472 
L 157.548104 164.195693 
L 159.587392 165.194361 
L 161.626679 168.679029 
L 163.665966 169.406676 
L 165.705254 249.869988 
L 167.744541 162.230945 
L 169.783828 169.688787 
L 171.823116 168.181976 
L 173.862403 167.206062 
L 175.90169 172.244475 
L 177.940978 171.177128 
L 179.980265 184.808857 
L 182.019552 171.152082 
L 184.05884 173.164447 
L 186.098127 189.062572 
L 188.137414 173.732706 
L 190.176702 176.042479 
L 192.215989 198.250784 
L 194.255276 192.446236 
L 196.294564 190.82675 
L 198.333851 188.038046 
L 200.373138 171.283008 
L 202.412426 164.586867 
L 204.451713 168.474443 
L 206.491 167.227144 
L 208.530288 175.784964 
L 210.569575 167.673615 
L 212.608862 164.439495 
L 214.64815 170.062685 
L 216.687437 162.314568 
L 218.726725 169.569478 
L 220.766012 166.770297 
L 222.805299 170.680908 
L 224.844587 163.340308 
L 226.883874 177.811701 
L 228.923161 187.84821 
L 230.962449 167.257403 
L 233.001736 171.562868 
L 235.041023 167.964532 
L 237.080311 167.807986 
L 239.119598 169.784523 
L 241.158885 165.250013 
L 243.198173 172.187737 
L 245.23746 162.695396 
L 247.276747 165.686006 
L 249.316035 164.913805 
L 251.355322 170.880708 
L 253.394609 166.48294 
L 255.433897 163.542002 
L 257.473184 169.154544 
L 259.512471 164.885815 
L 261.551759 163.985242 
L 263.591046 165.629504 
L 265.630333 168.354866 
L 267.669621 164.46198 
L 269.708908 166.005008 
L 271.748196 165.831359 
L 273.787483 167.243465 
L 275.82677 162.983759 
L 277.866058 250.431801 
L 279.905345 169.419755 
L 281.944632 164.878826 
L 283.98392 163.884115 
L 286.023207 169.872656 
L 288.062494 171.421302 
L 290.101782 170.103706 
L 292.141069 173.938722 
L 294.180356 167.11916 
L 296.219644 168.684548 
L 298.258931 174.64647 
L 300.298218 170.119051 
L 302.337506 165.953465 
L 304.376793 170.839941 
L 306.41608 163.502329 
L 308.455368 168.118116 
L 310.494655 168.814018 
L 312.533942 164.078356 
L 314.57323 251.733816 
L 316.612517 160.101818 
L 318.651804 164.010038 
L 320.691092 162.600912 
L 322.730379 166.776111 
L 324.769667 166.233151 
L 326.808954 165.152165 
L 328.848241 167.808991 
L 330.887529 167.433395 
L 332.926816 164.594099 
L 334.966103 167.012529 
L 337.005391 161.634696 
L 339.044678 163.934255 
L 341.083965 163.31454 
L 343.123253 164.062697 
L 345.16254 165.604038 
L 347.201827 164.366218 
L 349.241115 251.697047 
L 351.280402 164.404851 
L 353.319689 164.864708 
L 355.358977 172.04367 
L 357.398264 169.624264 
L 359.437551 171.642003 
L 361.476839 167.157267 
L 363.516126 166.849657 
L 365.555413 170.690078 
L 367.594701 168.082179 
L 369.633988 170.686968 
L 371.673275 166.377889 
L 373.712563 172.303516 
L 375.75185 176.328639 
L 377.791138 174.071244 
L 379.830425 166.690171 
L 381.869712 178.605389 
L 383.909 172.220922 
L 385.948287 170.08993 
L 387.987574 170.057685 
L 390.026862 172.782601 
L 392.066149 173.53655 
L 394.105436 171.559242 
L 396.144724 247.547247 
L 398.184011 165.019209 
L 400.223298 172.740847 
L 402.262586 170.501117 
L 404.301873 171.072527 
L 406.34116 167.979976 
L 408.380448 173.369961 
L 410.419735 167.18994 
L 412.459022 172.686994 
L 414.49831 166.156573 
L 416.537597 167.303066 
L 418.576884 162.208618 
L 420.616172 170.086692 
L 422.655459 168.620497 
L 424.694746 171.897966 
L 426.734034 168.353348 
L 428.773321 174.084206 
L 430.812608 176.614069 
L 432.851896 172.738287 
L 434.891183 173.446215 
L 436.930471 179.270975 
L 438.969758 172.320483 
L 441.009045 179.590854 
L 443.048333 173.590643 
L 445.08762 175.196831 
L 447.126907 175.964688 
L 449.166195 164.819859 
L 453.244769 175.092167 
L 455.284057 178.768817 
L 457.323344 180.026105 
L 459.362631 174.713141 
L 461.401919 173.248066 
L 463.441206 176.70044 
L 465.480493 175.457203 
L 467.519781 174.513123 
L 469.559068 176.467172 
L 471.598355 171.621515 
L 473.637643 175.747421 
L 475.67693 178.107672 
L 477.716217 180.986132 
L 479.755505 173.900654 
L 481.794792 177.990415 
L 483.834079 171.962913 
L 485.873367 175.698871 
L 487.912654 178.390608 
L 489.951942 173.18702 
L 491.991229 169.968507 
L 494.030516 170.149494 
L 496.069804 174.474048 
L 498.109091 175.682741 
L 498.109091 175.682741 
" clip-path="url(#pab70544ed3)" style="fill: none; stroke: #ff0000; stroke-opacity: 0.9; stroke-width: 1.5; stroke-linecap: square"/>
   </g>
   <g id="line2d_36">
    <path d="M 92.290909 176.453259 
L 94.330196 171.343416 
L 96.369484 164.133281 
L 98.408771 165.039451 
L 100.448058 170.495904 
L 102.487346 166.729766 
L 104.526633 170.677153 
L 106.565921 163.043762 
L 108.605208 165.241775 
L 110.644495 176.406332 
L 112.683783 247.924951 
L 114.72307 162.11433 
L 116.762357 164.168654 
L 118.801645 171.274442 
L 120.840932 161.669888 
L 122.880219 168.684084 
L 124.919507 167.163619 
L 126.958794 181.363552 
L 128.998081 163.765072 
L 131.037369 168.880174 
L 133.076656 174.336758 
L 135.115943 169.143042 
L 137.155231 166.725408 
L 139.194518 165.825369 
L 141.233805 168.610685 
L 143.273093 165.954404 
L 145.31238 162.344216 
L 147.351667 162.173352 
L 149.390955 164.714138 
L 151.430242 163.285766 
L 153.469529 165.188153 
L 155.508817 169.740975 
L 157.548104 164.890506 
L 159.587392 164.972817 
L 161.626679 169.048985 
L 163.665966 168.985873 
L 165.705254 250.250883 
L 167.744541 162.65632 
L 169.783828 168.955724 
L 171.823116 167.86202 
L 173.862403 169.292573 
L 175.90169 172.700342 
L 177.940978 170.985202 
L 179.980265 184.08128 
L 182.019552 170.070164 
L 184.05884 173.999907 
L 186.098127 189.114185 
L 188.137414 173.068669 
L 190.176702 175.855692 
L 192.215989 196.576279 
L 194.255276 192.726921 
L 196.294564 189.864256 
L 198.333851 189.02719 
L 200.373138 171.676355 
L 202.412426 165.084061 
L 204.451713 168.71186 
L 206.491 167.178098 
L 208.530288 175.074774 
L 210.569575 166.085226 
L 212.608862 164.759912 
L 214.64815 169.712127 
L 216.687437 161.499051 
L 218.726725 168.362573 
L 220.766012 167.594193 
L 222.805299 170.34946 
L 224.844587 163.029706 
L 226.883874 176.908779 
L 228.923161 188.024272 
L 230.962449 167.919535 
L 233.001736 172.06705 
L 235.041023 166.722869 
L 237.080311 168.239414 
L 239.119598 169.459192 
L 241.158885 165.245271 
L 243.198173 170.499142 
L 245.23746 162.630803 
L 247.276747 165.60774 
L 249.316035 164.841626 
L 251.355322 170.58509 
L 253.394609 166.163157 
L 255.433897 163.068185 
L 257.473184 171.235919 
L 259.512471 165.148138 
L 261.551759 162.355058 
L 263.591046 166.448226 
L 265.630333 169.398183 
L 267.669621 164.814775 
L 269.708908 166.059727 
L 271.748196 165.135759 
L 273.787483 167.118048 
L 275.82677 163.58383 
L 277.866058 248.941805 
L 279.905345 168.749701 
L 281.944632 166.730039 
L 283.98392 163.057888 
L 286.023207 169.380267 
L 288.062494 171.836195 
L 290.101782 169.895045 
L 292.141069 171.624156 
L 294.180356 167.536312 
L 296.219644 169.37971 
L 298.258931 175.040576 
L 302.337506 165.373931 
L 304.376793 170.977947 
L 306.41608 164.822257 
L 308.455368 168.028484 
L 310.494655 170.151263 
L 312.533942 165.063023 
L 314.57323 250.010891 
L 316.612517 161.974834 
L 318.651804 163.032215 
L 320.691092 162.743322 
L 322.730379 166.292579 
L 324.769667 165.685159 
L 326.808954 166.304925 
L 328.848241 168.190837 
L 330.887529 167.479253 
L 332.926816 165.464727 
L 334.966103 165.775863 
L 337.005391 161.664513 
L 339.044678 162.584889 
L 341.083965 163.821014 
L 343.123253 163.424093 
L 345.16254 165.502653 
L 347.201827 164.126775 
L 349.241115 251.609342 
L 351.280402 162.810943 
L 353.319689 165.541581 
L 355.358977 172.117076 
L 357.398264 168.831511 
L 359.437551 170.985143 
L 361.476839 165.967388 
L 363.516126 166.372639 
L 365.555413 170.710968 
L 367.594701 167.859761 
L 369.633988 171.436279 
L 371.673275 166.953547 
L 373.712563 173.394557 
L 375.75185 176.47343 
L 377.791138 174.358985 
L 379.830425 167.555194 
L 381.869712 178.674668 
L 383.909 170.834849 
L 385.948287 170.210006 
L 387.987574 170.025724 
L 390.026862 173.845603 
L 392.066149 172.135302 
L 394.105436 172.065812 
L 396.144724 248.132941 
L 398.184011 165.813111 
L 400.223298 172.345201 
L 402.262586 171.520929 
L 404.301873 171.520635 
L 406.34116 168.288286 
L 408.380448 172.899073 
L 410.419735 166.79909 
L 412.459022 173.023584 
L 414.49831 165.549068 
L 416.537597 167.184892 
L 418.576884 161.554256 
L 420.616172 169.817078 
L 422.655459 167.68423 
L 424.694746 172.856608 
L 426.734034 168.548133 
L 428.773321 173.068522 
L 430.812608 176.867743 
L 432.851896 171.719893 
L 434.891183 174.646825 
L 436.930471 178.539287 
L 438.969758 170.816376 
L 441.009045 178.513145 
L 443.048333 171.538912 
L 445.08762 176.111692 
L 447.126907 175.263559 
L 449.166195 164.36519 
L 451.205482 170.561138 
L 453.244769 173.901459 
L 455.284057 178.465877 
L 457.323344 180.228651 
L 459.362631 173.85766 
L 461.401919 174.040479 
L 463.441206 176.939561 
L 465.480493 176.338439 
L 467.519781 174.666098 
L 469.559068 176.609475 
L 471.598355 170.794885 
L 475.67693 178.960023 
L 477.716217 180.11513 
L 479.755505 174.119726 
L 481.794792 177.102979 
L 483.834079 171.360909 
L 485.873367 173.882951 
L 487.912654 177.948751 
L 489.951942 173.240457 
L 491.991229 169.108122 
L 494.030516 169.904507 
L 496.069804 174.232595 
L 498.109091 175.9571 
L 498.109091 175.9571 
" clip-path="url(#pab70544ed3)" style="fill: none; stroke: #ff0000; stroke-opacity: 0.9; stroke-width: 1.5; stroke-linecap: square"/>
   </g>
   <g id="line2d_37">
    <path d="M 92.290909 177.169425 
L 94.330196 169.849913 
L 96.369484 164.855328 
L 98.408771 165.159699 
L 100.448058 170.274448 
L 102.487346 167.611642 
L 104.526633 168.841676 
L 106.565921 163.432644 
L 108.605208 164.747407 
L 110.644495 174.899778 
L 112.683783 248.563298 
L 114.72307 163.485006 
L 116.762357 165.244597 
L 118.801645 171.720917 
L 120.840932 162.638757 
L 122.880219 167.457715 
L 124.919507 167.418333 
L 126.958794 181.0819 
L 128.998081 164.739946 
L 131.037369 168.007023 
L 133.076656 174.516386 
L 135.115943 168.391414 
L 137.155231 166.762866 
L 139.194518 165.907075 
L 141.233805 168.223159 
L 143.273093 166.686947 
L 145.31238 161.958653 
L 147.351667 162.596425 
L 149.390955 165.664718 
L 151.430242 163.597388 
L 153.469529 165.922833 
L 155.508817 169.217564 
L 157.548104 165.509237 
L 159.587392 166.274327 
L 161.626679 168.555778 
L 163.665966 168.910194 
L 165.705254 248.882163 
L 167.744541 162.924811 
L 169.783828 168.830432 
L 171.823116 166.793707 
L 173.862403 166.600443 
L 175.90169 173.00993 
L 177.940978 171.745241 
L 179.980265 185.75072 
L 182.019552 170.042406 
L 184.05884 173.490485 
L 186.098127 189.626379 
L 188.137414 174.895588 
L 190.176702 174.506871 
L 192.215989 198.07403 
L 194.255276 193.363033 
L 196.294564 191.012842 
L 198.333851 187.791525 
L 200.373138 172.261777 
L 202.412426 165.275954 
L 204.451713 167.955063 
L 206.491 167.772233 
L 208.530288 175.654779 
L 210.569575 166.528426 
L 212.608862 164.370352 
L 214.64815 169.88792 
L 216.687437 162.7938 
L 218.726725 167.733861 
L 220.766012 167.61694 
L 222.805299 170.351604 
L 224.844587 162.346831 
L 226.883874 177.391719 
L 228.923161 187.291627 
L 230.962449 166.418365 
L 233.001736 171.655351 
L 235.041023 167.379073 
L 237.080311 167.279431 
L 239.119598 169.538305 
L 241.158885 165.846038 
L 243.198173 171.69694 
L 245.23746 162.338148 
L 247.276747 164.937915 
L 249.316035 165.273544 
L 251.355322 171.094895 
L 253.394609 166.45481 
L 255.433897 164.721908 
L 257.473184 169.848748 
L 259.512471 164.33758 
L 261.551759 162.976921 
L 263.591046 164.919796 
L 265.630333 170.158761 
L 267.669621 164.15864 
L 269.708908 165.476107 
L 273.787483 166.842473 
L 275.82677 162.610116 
L 277.866058 250.57736 
L 279.905345 168.73625 
L 281.944632 165.669423 
L 283.98392 164.349661 
L 286.023207 169.823721 
L 288.062494 173.06346 
L 290.101782 169.441165 
L 292.141069 170.493078 
L 294.180356 168.482836 
L 296.219644 168.27503 
L 298.258931 174.434088 
L 300.298218 170.016874 
L 302.337506 165.896387 
L 304.376793 172.794734 
L 306.41608 164.360021 
L 308.455368 168.236953 
L 310.494655 167.947451 
L 312.533942 165.17808 
L 314.57323 250.284668 
L 316.612517 160.4395 
L 318.651804 163.377844 
L 320.691092 162.537855 
L 322.730379 166.92954 
L 324.769667 166.919217 
L 326.808954 164.527472 
L 328.848241 168.09741 
L 330.887529 168.339366 
L 332.926816 163.863892 
L 334.966103 165.864146 
L 337.005391 162.069027 
L 339.044678 164.715685 
L 341.083965 163.312628 
L 343.123253 163.203344 
L 345.16254 166.289937 
L 347.201827 165.572452 
L 349.241115 250.539416 
L 351.280402 163.750533 
L 353.319689 165.19981 
L 355.358977 172.654572 
L 357.398264 169.136458 
L 359.437551 171.631657 
L 361.476839 167.233595 
L 363.516126 166.654901 
L 365.555413 170.736648 
L 367.594701 168.749701 
L 369.633988 172.076725 
L 371.673275 166.59421 
L 373.712563 172.558481 
L 375.75185 176.515814 
L 377.791138 174.564103 
L 379.830425 166.753099 
L 381.869712 179.691013 
L 383.909 171.624038 
L 385.948287 169.659334 
L 387.987574 168.46017 
L 390.026862 173.527376 
L 392.066149 172.772554 
L 394.105436 172.727112 
L 396.144724 248.728244 
L 398.184011 165.785471 
L 400.223298 172.002509 
L 402.262586 171.24485 
L 404.301873 170.955805 
L 406.34116 167.794118 
L 408.380448 173.398639 
L 410.419735 166.981062 
L 412.459022 172.052339 
L 414.49831 166.083848 
L 416.537597 168.484494 
L 418.576884 161.578414 
L 420.616172 168.865764 
L 422.655459 168.158348 
L 424.694746 172.795607 
L 426.734034 169.398762 
L 428.773321 173.225927 
L 430.812608 176.025993 
L 432.851896 172.071844 
L 436.930471 178.396918 
L 438.969758 171.353699 
L 441.009045 179.16681 
L 443.048333 172.559491 
L 445.08762 174.668408 
L 447.126907 176.574761 
L 449.166195 164.902984 
L 451.205482 170.081803 
L 455.284057 179.156791 
L 457.323344 181.290558 
L 459.362631 174.358388 
L 461.401919 173.399093 
L 463.441206 177.684719 
L 465.480493 175.461331 
L 467.519781 175.361875 
L 469.559068 174.918344 
L 471.598355 172.959721 
L 473.637643 177.213355 
L 475.67693 178.45459 
L 477.716217 180.614844 
L 479.755505 174.489308 
L 481.794792 177.08511 
L 483.834079 170.994475 
L 487.912654 179.114967 
L 489.951942 172.844564 
L 491.991229 169.155815 
L 494.030516 168.963612 
L 496.069804 173.88692 
L 498.109091 177.100188 
L 498.109091 177.100188 
" clip-path="url(#pab70544ed3)" style="fill: none; stroke: #ff0000; stroke-opacity: 0.9; stroke-width: 1.5; stroke-linecap: square"/>
   </g>
   <g id="line2d_38">
    <path d="M 92.290909 177.57323 
L 94.330196 171.517127 
L 96.369484 164.605845 
L 98.408771 163.951207 
L 100.448058 170.56277 
L 102.487346 166.860017 
L 104.526633 168.984064 
L 106.565921 163.425416 
L 108.605208 166.148851 
L 110.644495 176.037951 
L 112.683783 248.754005 
L 114.72307 161.546969 
L 116.762357 164.793826 
L 118.801645 170.287398 
L 120.840932 162.595865 
L 122.880219 169.11108 
L 124.919507 168.13391 
L 126.958794 181.898428 
L 128.998081 165.413964 
L 131.037369 168.472918 
L 133.076656 173.764981 
L 135.115943 168.835048 
L 137.155231 167.743886 
L 139.194518 164.486352 
L 141.233805 168.130381 
L 143.273093 165.272277 
L 145.31238 162.130717 
L 147.351667 161.863543 
L 149.390955 164.256381 
L 151.430242 163.398984 
L 153.469529 165.15929 
L 155.508817 168.45219 
L 157.548104 164.528143 
L 159.587392 167.370891 
L 161.626679 167.805454 
L 163.665966 170.506305 
L 165.705254 248.834787 
L 167.744541 162.133337 
L 169.783828 169.415654 
L 171.823116 168.708065 
L 173.862403 167.780659 
L 175.90169 173.55555 
L 177.940978 171.99881 
L 179.980265 185.106768 
L 182.019552 169.772918 
L 184.05884 172.540425 
L 186.098127 188.570953 
L 188.137414 173.518567 
L 190.176702 174.535202 
L 192.215989 198.365576 
L 194.255276 192.718111 
L 196.294564 190.105447 
L 198.333851 189.125371 
L 200.373138 171.620634 
L 202.412426 166.524738 
L 204.451713 167.370662 
L 206.491 167.532311 
L 208.530288 175.538711 
L 210.569575 166.85658 
L 212.608862 164.759591 
L 214.64815 168.470807 
L 216.687437 162.263736 
L 218.726725 167.721552 
L 220.766012 166.484561 
L 222.805299 170.141923 
L 224.844587 165.13462 
L 226.883874 179.219128 
L 228.923161 188.139062 
L 230.962449 165.313497 
L 233.001736 170.996166 
L 235.041023 166.673518 
L 237.080311 167.528292 
L 239.119598 169.895874 
L 241.158885 164.600241 
L 243.198173 171.117509 
L 245.23746 162.636086 
L 249.316035 165.782487 
L 251.355322 170.357742 
L 253.394609 166.377768 
L 255.433897 163.009373 
L 257.473184 170.196963 
L 259.512471 165.37431 
L 261.551759 163.19991 
L 263.591046 167.267398 
L 265.630333 168.371953 
L 267.669621 165.322122 
L 269.708908 166.571794 
L 271.748196 165.568816 
L 273.787483 168.816896 
L 275.82677 163.589636 
L 277.866058 250.218262 
L 279.905345 169.308799 
L 281.944632 166.077379 
L 283.98392 163.546548 
L 286.023207 169.893439 
L 288.062494 172.360472 
L 290.101782 170.749252 
L 292.141069 172.807714 
L 294.180356 167.454193 
L 296.219644 168.154517 
L 298.258931 175.108039 
L 300.298218 170.082366 
L 302.337506 165.981285 
L 304.376793 171.763077 
L 306.41608 165.148396 
L 308.455368 168.294774 
L 310.494655 168.15928 
L 312.533942 165.649808 
L 314.57323 250.981834 
L 316.612517 160.98002 
L 318.651804 162.471891 
L 320.691092 163.24452 
L 322.730379 166.248345 
L 324.769667 165.653684 
L 326.808954 165.627794 
L 328.848241 169.146645 
L 330.887529 168.549607 
L 332.926816 164.0101 
L 334.966103 166.800615 
L 337.005391 162.64057 
L 339.044678 163.028387 
L 341.083965 164.024874 
L 343.123253 164.324272 
L 345.16254 166.441922 
L 347.201827 164.106412 
L 349.241115 251.738182 
L 351.280402 163.969156 
L 353.319689 164.951123 
L 355.358977 171.124771 
L 357.398264 168.943172 
L 359.437551 171.750996 
L 361.476839 167.467069 
L 363.516126 165.949239 
L 365.555413 170.949051 
L 367.594701 168.178785 
L 369.633988 171.025014 
L 371.673275 166.51839 
L 373.712563 172.661262 
L 375.75185 176.400811 
L 377.791138 175.208275 
L 379.830425 166.455403 
L 381.869712 178.777499 
L 383.909 172.897979 
L 385.948287 169.53559 
L 387.987574 169.483921 
L 390.026862 172.389081 
L 392.066149 173.373185 
L 394.105436 172.294125 
L 396.144724 248.836791 
L 398.184011 165.784952 
L 400.223298 172.13944 
L 402.262586 171.649162 
L 404.301873 169.884965 
L 406.34116 167.898568 
L 408.380448 174.353455 
L 410.419735 167.139034 
L 412.459022 173.28699 
L 414.49831 166.344546 
L 416.537597 168.074987 
L 418.576884 161.502333 
L 420.616172 168.837863 
L 422.655459 168.389642 
L 424.694746 171.927176 
L 426.734034 168.596449 
L 428.773321 173.464585 
L 430.812608 177.434039 
L 432.851896 172.581737 
L 434.891183 173.885491 
L 436.930471 179.036299 
L 438.969758 170.871062 
L 441.009045 179.426665 
L 443.048333 172.280593 
L 445.08762 175.000679 
L 447.126907 176.446362 
L 449.166195 164.918753 
L 451.205482 170.462878 
L 453.244769 174.080339 
L 455.284057 180.062832 
L 457.323344 181.610275 
L 459.362631 174.866515 
L 461.401919 173.552883 
L 463.441206 177.204967 
L 465.480493 174.913458 
L 467.519781 174.539144 
L 469.559068 176.838337 
L 471.598355 172.334354 
L 473.637643 176.147563 
L 477.716217 180.012425 
L 479.755505 173.615096 
L 481.794792 176.896285 
L 483.834079 170.453369 
L 485.873367 175.268058 
L 487.912654 177.778955 
L 489.951942 172.984479 
L 491.991229 169.183436 
L 494.030516 170.300897 
L 496.069804 174.345471 
L 498.109091 176.704149 
L 498.109091 176.704149 
" clip-path="url(#pab70544ed3)" style="fill: none; stroke: #ff0000; stroke-opacity: 0.9; stroke-width: 1.5; stroke-linecap: square"/>
   </g>
   <g id="line2d_39">
    <path d="M 92.290909 176.802186 
L 94.330196 171.135426 
L 96.369484 164.922577 
L 98.408771 164.457828 
L 100.448058 169.731167 
L 102.487346 166.483857 
L 104.526633 170.659181 
L 106.565921 163.038357 
L 108.605208 164.424938 
L 110.644495 176.243966 
L 112.683783 249.20576 
L 114.72307 162.678202 
L 116.762357 163.958723 
L 118.801645 170.815908 
L 120.840932 162.554958 
L 122.880219 169.316351 
L 124.919507 166.786442 
L 126.958794 181.008488 
L 128.998081 165.107769 
L 131.037369 167.721331 
L 133.076656 173.987861 
L 135.115943 168.264887 
L 137.155231 166.193737 
L 139.194518 165.453762 
L 141.233805 168.325914 
L 143.273093 165.604822 
L 145.31238 163.089801 
L 147.351667 160.804692 
L 149.390955 165.086813 
L 151.430242 163.477843 
L 153.469529 164.857645 
L 155.508817 168.828118 
L 157.548104 164.329515 
L 159.587392 167.288049 
L 161.626679 169.274719 
L 163.665966 168.614727 
L 165.705254 249.512824 
L 167.744541 162.806629 
L 169.783828 168.133166 
L 171.823116 167.31399 
L 173.862403 167.761025 
L 175.90169 173.642857 
L 177.940978 171.717192 
L 179.980265 185.666471 
L 182.019552 170.209744 
L 184.05884 173.749352 
L 186.098127 187.868103 
L 188.137414 173.983842 
L 190.176702 175.609376 
L 192.215989 197.551891 
L 194.255276 193.859863 
L 196.294564 191.633359 
L 198.333851 187.895187 
L 200.373138 171.500633 
L 202.412426 164.654003 
L 204.451713 167.656586 
L 206.491 168.082231 
L 208.530288 175.736368 
L 210.569575 167.153937 
L 212.608862 163.785494 
L 214.64815 168.522067 
L 216.687437 161.717744 
L 218.726725 167.830198 
L 220.766012 167.558805 
L 222.805299 171.701026 
L 224.844587 163.933371 
L 226.883874 177.717125 
L 228.923161 188.062777 
L 230.962449 167.205742 
L 233.001736 172.219116 
L 235.041023 167.718704 
L 237.080311 166.30998 
L 239.119598 170.706996 
L 241.158885 164.97135 
L 243.198173 170.750294 
L 245.23746 162.955154 
L 247.276747 165.168262 
L 249.316035 165.336638 
L 251.355322 172.022805 
L 253.394609 166.012447 
L 255.433897 163.189145 
L 257.473184 170.908027 
L 259.512471 164.506019 
L 261.551759 164.048222 
L 263.591046 165.03591 
L 265.630333 170.006142 
L 267.669621 163.29354 
L 269.708908 165.632344 
L 271.748196 165.188772 
L 273.787483 167.825711 
L 275.82677 163.397028 
L 277.866058 249.957874 
L 279.905345 169.290989 
L 281.944632 166.287885 
L 283.98392 162.904223 
L 286.023207 170.860543 
L 288.062494 171.888966 
L 290.101782 170.316386 
L 292.141069 172.908944 
L 294.180356 167.536916 
L 296.219644 167.592841 
L 298.258931 174.632873 
L 300.298218 170.283721 
L 302.337506 164.881037 
L 304.376793 172.180184 
L 306.41608 164.489465 
L 308.455368 168.214843 
L 310.494655 168.364459 
L 312.533942 163.965642 
L 314.57323 249.100492 
L 316.612517 160.61628 
L 318.651804 163.269802 
L 320.691092 162.266974 
L 322.730379 167.51368 
L 324.769667 166.80651 
L 326.808954 165.817974 
L 328.848241 167.71041 
L 330.887529 167.790437 
L 332.926816 165.095018 
L 334.966103 166.587629 
L 337.005391 163.147453 
L 339.044678 164.651998 
L 341.083965 163.79091 
L 343.123253 163.776176 
L 345.16254 165.127963 
L 347.201827 164.689265 
L 349.241115 250.801178 
L 351.280402 164.788612 
L 353.319689 164.18855 
L 355.358977 171.12301 
L 357.398264 168.271961 
L 359.437551 171.991846 
L 361.476839 166.474131 
L 363.516126 166.38976 
L 365.555413 170.475655 
L 367.594701 169.655451 
L 369.633988 171.985244 
L 371.673275 167.066851 
L 373.712563 172.422438 
L 375.75185 175.891166 
L 377.791138 173.735989 
L 379.830425 167.071795 
L 381.869712 178.912855 
L 383.909 170.932354 
L 385.948287 170.031829 
L 387.987574 168.966051 
L 390.026862 172.557722 
L 392.066149 172.625374 
L 394.105436 173.490983 
L 396.144724 248.734625 
L 398.184011 166.115246 
L 400.223298 172.009936 
L 402.262586 172.229414 
L 404.301873 171.691104 
L 406.34116 168.410171 
L 408.380448 172.96174 
L 410.419735 167.329192 
L 412.459022 173.322363 
L 414.49831 164.752263 
L 416.537597 168.19245 
L 418.576884 163.102099 
L 420.616172 169.794523 
L 422.655459 168.330479 
L 424.694746 172.206317 
L 426.734034 168.088759 
L 428.773321 173.900639 
L 430.812608 175.776028 
L 432.851896 172.599911 
L 434.891183 174.330058 
L 436.930471 178.848649 
L 438.969758 171.054703 
L 441.009045 177.581492 
L 443.048333 171.955117 
L 445.08762 174.990103 
L 447.126907 176.7418 
L 449.166195 163.666351 
L 451.205482 170.45083 
L 453.244769 174.492106 
L 455.284057 178.989162 
L 457.323344 180.656834 
L 459.362631 174.168278 
L 461.401919 174.437792 
L 463.441206 178.041082 
L 465.480493 176.305413 
L 467.519781 175.427824 
L 469.559068 176.480898 
L 471.598355 170.890453 
L 473.637643 176.049932 
L 475.67693 178.733346 
L 477.716217 180.351656 
L 479.755505 174.237771 
L 481.794792 177.819926 
L 483.834079 171.696601 
L 485.873367 176.225222 
L 487.912654 177.936637 
L 489.951942 174.042673 
L 491.991229 169.21458 
L 494.030516 168.619071 
L 496.069804 174.632064 
L 498.109091 176.260897 
L 498.109091 176.260897 
" clip-path="url(#pab70544ed3)" style="fill: none; stroke: #ff0000; stroke-opacity: 0.9; stroke-width: 1.5; stroke-linecap: square"/>
   </g>
   <g id="line2d_40">
    <path d="M 92.290909 171.180087 
L 94.330196 169.467559 
L 96.369484 166.170396 
L 98.408771 164.141184 
L 100.448058 167.363913 
L 102.487346 165.515415 
L 104.526633 168.075824 
L 106.565921 164.001192 
L 108.605208 165.036931 
L 110.644495 174.859951 
L 112.683783 246.907188 
L 114.72307 162.422028 
L 116.762357 163.615003 
L 118.801645 169.923223 
L 120.840932 161.621966 
L 122.880219 168.178255 
L 124.919507 166.143604 
L 126.958794 180.411041 
L 128.998081 163.68636 
L 131.037369 166.528412 
L 133.076656 173.770592 
L 135.115943 167.522054 
L 139.194518 166.156695 
L 141.233805 167.743193 
L 143.273093 165.148212 
L 145.31238 162.154577 
L 147.351667 162.229674 
L 149.390955 164.777784 
L 151.430242 163.192313 
L 153.469529 164.03627 
L 155.508817 168.070809 
L 157.548104 164.470635 
L 159.587392 165.788146 
L 161.626679 168.834743 
L 163.665966 168.234975 
L 165.705254 247.080538 
L 167.744541 164.167122 
L 169.783828 168.19262 
L 171.823116 166.689117 
L 173.862403 167.096137 
L 175.90169 172.244597 
L 177.940978 171.364427 
L 179.980265 183.751588 
L 182.019552 169.326852 
L 184.05884 173.181288 
L 186.098127 188.663945 
L 188.137414 172.50171 
L 190.176702 174.58419 
L 192.215989 195.8509 
L 198.333851 187.141779 
L 200.373138 172.900893 
L 202.412426 165.17297 
L 204.451713 167.185253 
L 206.491 167.374615 
L 208.530288 173.739607 
L 210.569575 166.529963 
L 212.608862 163.987504 
L 214.64815 167.694163 
L 216.687437 161.585179 
L 218.726725 166.224217 
L 220.766012 166.969721 
L 222.805299 170.296966 
L 224.844587 163.094576 
L 226.883874 177.626306 
L 228.923161 186.472173 
L 230.962449 166.176616 
L 233.001736 170.753757 
L 235.041023 167.499657 
L 237.080311 166.556173 
L 239.119598 168.715482 
L 241.158885 165.93207 
L 243.198173 170.949033 
L 245.23746 162.428538 
L 247.276747 164.362961 
L 249.316035 165.522449 
L 251.355322 169.532915 
L 253.394609 165.908534 
L 255.433897 163.409518 
L 257.473184 169.509343 
L 259.512471 164.055616 
L 261.551759 162.818887 
L 263.591046 164.844197 
L 265.630333 168.147664 
L 267.669621 164.191313 
L 269.708908 165.258686 
L 271.748196 165.214817 
L 273.787483 166.924869 
L 275.82677 162.894448 
L 277.866058 247.636238 
L 279.905345 169.37421 
L 281.944632 164.826185 
L 283.98392 163.200503 
L 286.023207 170.355204 
L 288.062494 171.169896 
L 290.101782 169.429353 
L 292.141069 171.47727 
L 294.180356 166.891474 
L 296.219644 168.234905 
L 298.258931 174.908798 
L 300.298218 168.820451 
L 302.337506 166.420406 
L 304.376793 170.963811 
L 306.41608 164.047776 
L 308.455368 167.465924 
L 310.494655 167.145901 
L 312.533942 163.59038 
L 314.57323 247.442296 
L 316.612517 161.926294 
L 318.651804 162.64967 
L 320.691092 163.084407 
L 322.730379 165.100014 
L 324.769667 164.766105 
L 326.808954 164.906632 
L 328.848241 166.113537 
L 330.887529 166.820356 
L 332.926816 164.559942 
L 334.966103 166.193335 
L 337.005391 161.888117 
L 339.044678 163.320369 
L 341.083965 162.634727 
L 343.123253 163.512045 
L 345.16254 164.926339 
L 347.201827 164.148416 
L 349.241115 248.106267 
L 351.280402 164.611324 
L 353.319689 162.896729 
L 355.358977 170.778148 
L 357.398264 167.970633 
L 359.437551 172.568646 
L 361.476839 168.422215 
L 363.516126 167.588611 
L 365.555413 170.4502 
L 367.594701 167.615061 
L 369.633988 170.333702 
L 371.673275 165.61561 
L 373.712563 171.579473 
L 375.75185 176.561047 
L 377.791138 174.462879 
L 379.830425 166.261613 
L 381.869712 178.121881 
L 383.909 171.980289 
L 385.948287 170.067334 
L 387.987574 168.317389 
L 390.026862 171.607654 
L 394.105436 173.087448 
L 396.144724 247.68101 
L 398.184011 166.471813 
L 400.223298 170.740302 
L 402.262586 171.55222 
L 404.301873 171.187117 
L 406.34116 168.288014 
L 408.380448 173.014823 
L 410.419735 167.124112 
L 412.459022 171.305965 
L 414.49831 165.70309 
L 416.537597 166.603571 
L 418.576884 161.728049 
L 420.616172 168.968767 
L 422.655459 167.733522 
L 424.694746 171.639873 
L 426.734034 168.042926 
L 428.773321 172.168089 
L 430.812608 175.329512 
L 432.851896 172.342515 
L 434.891183 173.915675 
L 436.930471 178.295861 
L 438.969758 171.58305 
L 441.009045 178.216311 
L 443.048333 172.407944 
L 445.08762 174.508968 
L 447.126907 175.797548 
L 449.166195 164.217994 
L 451.205482 169.507313 
L 453.244769 172.859036 
L 455.284057 178.456797 
L 457.323344 179.630003 
L 459.362631 174.811989 
L 461.401919 173.493735 
L 463.441206 176.248426 
L 465.480493 175.437787 
L 467.519781 176.028053 
L 469.559068 176.062361 
L 471.598355 169.79817 
L 473.637643 175.140111 
L 475.67693 178.341358 
L 477.716217 178.602631 
L 479.755505 173.767206 
L 481.794792 176.768862 
L 483.834079 170.693762 
L 487.912654 177.702876 
L 489.951942 172.663827 
L 491.991229 169.453415 
L 494.030516 168.695896 
L 496.069804 174.598855 
L 498.109091 176.069453 
L 498.109091 176.069453 
" clip-path="url(#pab70544ed3)" style="fill: none; stroke: #008000; stroke-opacity: 0.9; stroke-width: 1.5; stroke-linecap: square"/>
   </g>
   <g id="line2d_41">
    <path d="M 438.969758 256.32 
L 438.969758 155.52 
" clip-path="url(#pab70544ed3)" style="fill: none; stroke-dasharray: 5.55,2.4; stroke-dashoffset: 0; stroke: #0000ff; stroke-width: 1.5"/>
   </g>
   <g id="line2d_42">
    <path d="M 153.469529 256.32 
L 153.469529 155.52 
" clip-path="url(#pab70544ed3)" style="fill: none; stroke-dasharray: 5.55,2.4; stroke-dashoffset: 0; stroke: #000000; stroke-width: 1.5"/>
   </g>
   <g id="patch_8">
    <path d="M 72 256.32 
L 72 155.52 
" style="fill: none; stroke: #000000; stroke-width: 0.8; stroke-linejoin: miter; stroke-linecap: square"/>
   </g>
   <g id="patch_9">
    <path d="M 518.4 256.32 
L 518.4 155.52 
" style="fill: none; stroke: #000000; stroke-width: 0.8; stroke-linejoin: miter; stroke-linecap: square"/>
   </g>
   <g id="patch_10">
    <path d="M 72 256.32 
L 518.4 256.32 
" style="fill: none; stroke: #000000; stroke-width: 0.8; stroke-linejoin: miter; stroke-linecap: square"/>
   </g>
   <g id="patch_11">
    <path d="M 72 155.52 
L 518.4 155.52 
" style="fill: none; stroke: #000000; stroke-width: 0.8; stroke-linejoin: miter; stroke-linecap: square"/>
   </g>
  </g>
 </g>
 <defs>
  <clipPath id="p60434b6229">
   <rect x="72" y="34.56" width="446.4" height="100.8"/>
  </clipPath>
  <clipPath id="pab70544ed3">
   <rect x="72" y="155.52" width="446.4" height="100.8"/>
  </clipPath>
 </defs>
</svg>
