<?xml version="1.0" encoding="utf-8" standalone="no"?>
<!DOCTYPE svg PUBLIC "-//W3C//DTD SVG 1.1//EN"
  "http://www.w3.org/Graphics/SVG/1.1/DTD/svg11.dtd">
<svg xmlns:xlink="http://www.w3.org/1999/xlink" width="576pt" height="288pt" viewBox="0 0 576 288" xmlns="http://www.w3.org/2000/svg" version="1.1">
 <metadata>
  <rdf:RDF xmlns:dc="http://purl.org/dc/elements/1.1/" xmlns:cc="http://creativecommons.org/ns#" xmlns:rdf="http://www.w3.org/1999/02/22-rdf-syntax-ns#">
   <cc:Work>
    <dc:type rdf:resource="http://purl.org/dc/dcmitype/StillImage"/>
    <dc:date>2025-01-01T00:43:53.024489</dc:date>
    <dc:format>image/svg+xml</dc:format>
    <dc:creator>
     <cc:Agent>
      <dc:title>Matplotlib v3.10.0, https://matplotlib.org/</dc:title>
     </cc:Agent>
    </dc:creator>
   </cc:Work>
  </rdf:RDF>
 </metadata>
 <defs>
  <style type="text/css">*{stroke-linejoin: round; stroke-linecap: butt}</style>
 </defs>
 <g id="figure_1">
  <g id="patch_1">
   <path d="M 0 288 
L 576 288 
L 576 0 
L 0 0 
z
" style="fill: #ffffff"/>
  </g>
  <g id="axes_1">
   <g id="patch_2">
    <path d="M 72 135.36 
L 518.4 135.36 
L 518.4 34.56 
L 72 34.56 
z
" style="fill: #ffffff"/>
   </g>
   <g id="matplotlib.axis_1">
    <g id="xtick_1">
     <g id="line2d_1">
      <defs>
       <path id="ma07fe3945b" d="M 0 0 
L 0 3.5 
" style="stroke: #000000; stroke-width: 0.8"/>
      </defs>
      <g>
       <use xlink:href="#ma07fe3945b" x="92.290909" y="135.36" style="stroke: #000000; stroke-width: 0.8"/>
      </g>
     </g>
    </g>
    <g id="xtick_2">
     <g id="line2d_2">
      <g>
       <use xlink:href="#ma07fe3945b" x="143.273093" y="135.36" style="stroke: #000000; stroke-width: 0.8"/>
      </g>
     </g>
    </g>
    <g id="xtick_3">
     <g id="line2d_3">
      <g>
       <use xlink:href="#ma07fe3945b" x="194.255276" y="135.36" style="stroke: #000000; stroke-width: 0.8"/>
      </g>
     </g>
    </g>
    <g id="xtick_4">
     <g id="line2d_4">
      <g>
       <use xlink:href="#ma07fe3945b" x="245.23746" y="135.36" style="stroke: #000000; stroke-width: 0.8"/>
      </g>
     </g>
    </g>
    <g id="xtick_5">
     <g id="line2d_5">
      <g>
       <use xlink:href="#ma07fe3945b" x="296.219644" y="135.36" style="stroke: #000000; stroke-width: 0.8"/>
      </g>
     </g>
    </g>
    <g id="xtick_6">
     <g id="line2d_6">
      <g>
       <use xlink:href="#ma07fe3945b" x="347.201827" y="135.36" style="stroke: #000000; stroke-width: 0.8"/>
      </g>
     </g>
    </g>
    <g id="xtick_7">
     <g id="line2d_7">
      <g>
       <use xlink:href="#ma07fe3945b" x="398.184011" y="135.36" style="stroke: #000000; stroke-width: 0.8"/>
      </g>
     </g>
    </g>
    <g id="xtick_8">
     <g id="line2d_8">
      <g>
       <use xlink:href="#ma07fe3945b" x="449.166195" y="135.36" style="stroke: #000000; stroke-width: 0.8"/>
      </g>
     </g>
    </g>
    <g id="xtick_9">
     <g id="line2d_9">
      <g>
       <use xlink:href="#ma07fe3945b" x="500.148378" y="135.36" style="stroke: #000000; stroke-width: 0.8"/>
      </g>
     </g>
    </g>
   </g>
   <g id="matplotlib.axis_2">
    <g id="ytick_1">
     <g id="line2d_10">
      <defs>
       <path id="m25ce02e64b" d="M 0 0 
L -3.5 0 
" style="stroke: #000000; stroke-width: 0.8"/>
      </defs>
      <g>
       <use xlink:href="#m25ce02e64b" x="72" y="116.654837" style="stroke: #000000; stroke-width: 0.8"/>
      </g>
     </g>
     <g id="text_1">
      <!-- −150 -->
      <g transform="translate(37.532812 120.454056) scale(0.1 -0.1)">
       <defs>
        <path id="DejaVuSans-2212" d="M 678 2272 
L 4684 2272 
L 4684 1741 
L 678 1741 
L 678 2272 
z
" transform="scale(0.015625)"/>
        <path id="DejaVuSans-31" d="M 794 531 
L 1825 531 
L 1825 4091 
L 703 3866 
L 703 4441 
L 1819 4666 
L 2450 4666 
L 2450 531 
L 3481 531 
L 3481 0 
L 794 0 
L 794 531 
z
" transform="scale(0.015625)"/>
        <path id="DejaVuSans-35" d="M 691 4666 
L 3169 4666 
L 3169 4134 
L 1269 4134 
L 1269 2991 
Q 1406 3038 1543 3061 
Q 1681 3084 1819 3084 
Q 2600 3084 3056 2656 
Q 3513 2228 3513 1497 
Q 3513 744 3044 326 
Q 2575 -91 1722 -91 
Q 1428 -91 1123 -41 
Q 819 9 494 109 
L 494 744 
Q 775 591 1075 516 
Q 1375 441 1709 441 
Q 2250 441 2565 725 
Q 2881 1009 2881 1497 
Q 2881 1984 2565 2268 
Q 2250 2553 1709 2553 
Q 1456 2553 1204 2497 
Q 953 2441 691 2322 
L 691 4666 
z
" transform="scale(0.015625)"/>
        <path id="DejaVuSans-30" d="M 2034 4250 
Q 1547 4250 1301 3770 
Q 1056 3291 1056 2328 
Q 1056 1369 1301 889 
Q 1547 409 2034 409 
Q 2525 409 2770 889 
Q 3016 1369 3016 2328 
Q 3016 3291 2770 3770 
Q 2525 4250 2034 4250 
z
M 2034 4750 
Q 2819 4750 3233 4129 
Q 3647 3509 3647 2328 
Q 3647 1150 3233 529 
Q 2819 -91 2034 -91 
Q 1250 -91 836 529 
Q 422 1150 422 2328 
Q 422 3509 836 4129 
Q 1250 4750 2034 4750 
z
" transform="scale(0.015625)"/>
       </defs>
       <use xlink:href="#DejaVuSans-2212"/>
       <use xlink:href="#DejaVuSans-31" transform="translate(83.789062 0)"/>
       <use xlink:href="#DejaVuSans-35" transform="translate(147.412109 0)"/>
       <use xlink:href="#DejaVuSans-30" transform="translate(211.035156 0)"/>
      </g>
     </g>
    </g>
    <g id="ytick_2">
     <g id="line2d_11">
      <g>
       <use xlink:href="#m25ce02e64b" x="72" y="77.666512" style="stroke: #000000; stroke-width: 0.8"/>
      </g>
     </g>
     <g id="text_2">
      <!-- −100 -->
      <g transform="translate(37.532812 81.46573) scale(0.1 -0.1)">
       <use xlink:href="#DejaVuSans-2212"/>
       <use xlink:href="#DejaVuSans-31" transform="translate(83.789062 0)"/>
       <use xlink:href="#DejaVuSans-30" transform="translate(147.412109 0)"/>
       <use xlink:href="#DejaVuSans-30" transform="translate(211.035156 0)"/>
      </g>
     </g>
    </g>
    <g id="ytick_3">
     <g id="line2d_12">
      <g>
       <use xlink:href="#m25ce02e64b" x="72" y="38.678186" style="stroke: #000000; stroke-width: 0.8"/>
      </g>
     </g>
     <g id="text_3">
      <!-- −50 -->
      <g transform="translate(43.895313 42.477405) scale(0.1 -0.1)">
       <use xlink:href="#DejaVuSans-2212"/>
       <use xlink:href="#DejaVuSans-35" transform="translate(83.789062 0)"/>
       <use xlink:href="#DejaVuSans-30" transform="translate(147.412109 0)"/>
      </g>
     </g>
    </g>
   </g>
   <g id="line2d_13">
    <path d="M 92.290909 61.745966 
L 94.330196 106.091247 
L 96.369484 130.68879 
L 98.408771 104.291345 
L 100.448058 89.46001 
L 102.487346 107.422036 
L 104.526633 98.367661 
L 106.565921 67.651332 
L 108.605208 115.422019 
L 110.644495 44.893161 
L 112.683783 81.716792 
L 114.72307 123.673878 
L 116.762357 122.688901 
L 118.801645 111.153888 
L 120.840932 67.936838 
L 122.880219 116.497661 
L 124.919507 69.78942 
L 126.958794 66.249773 
L 128.998081 88.011464 
L 131.037369 64.684404 
L 133.076656 52.578991 
L 135.115943 52.707487 
L 137.155231 108.415353 
L 139.194518 108.103701 
L 141.233805 125.741206 
L 143.273093 122.01854 
L 145.31238 120.29456 
L 147.351667 116.407936 
L 149.390955 117.427179 
L 151.430242 109.787975 
L 153.469529 107.390208 
L 155.508817 112.038561 
L 157.548104 128.011305 
L 159.587392 109.632405 
L 161.626679 121.778289 
L 163.665966 98.300918 
L 165.705254 93.952484 
L 167.744541 111.267135 
L 169.783828 47.52468 
L 171.823116 54.850685 
L 173.862403 74.780634 
L 175.90169 47.881807 
L 177.940978 42.229874 
L 179.980265 70.40076 
L 182.019552 67.069577 
L 184.05884 71.074054 
L 186.098127 64.599706 
L 188.137414 56.571469 
L 190.176702 66.760079 
L 192.215989 60.547343 
L 194.255276 48.64057 
L 196.294564 69.057169 
L 198.333851 75.501879 
L 200.373138 96.805391 
L 202.412426 70.863359 
L 204.451713 53.082253 
L 206.491 44.434678 
L 208.530288 76.586641 
L 210.569575 56.757481 
L 212.608862 110.339997 
L 214.64815 108.662671 
L 216.687437 93.165448 
L 218.726725 92.16614 
L 220.766012 109.544643 
L 222.805299 121.885576 
L 224.844587 121.203102 
L 226.883874 67.673457 
L 228.923161 59.409843 
L 230.962449 79.879588 
L 233.001736 73.201683 
L 235.041023 41.435595 
L 237.080311 60.298395 
L 239.119598 52.503723 
L 241.158885 74.664947 
L 243.198173 50.517898 
L 245.23746 84.602235 
L 247.276747 49.650363 
L 249.316035 98.861654 
L 251.355322 74.634309 
L 253.394609 112.323894 
L 255.433897 89.8264 
L 257.473184 68.934069 
L 259.512471 64.590978 
L 261.551759 57.894839 
L 263.591046 69.375228 
L 265.630333 66.816625 
L 267.669621 60.1558 
L 269.708908 49.495201 
L 271.748196 41.841791 
L 273.787483 59.590727 
L 275.82677 49.763278 
L 277.866058 66.148869 
L 279.905345 56.218263 
L 281.944632 77.944783 
L 283.98392 64.861123 
L 286.023207 59.624006 
L 288.062494 53.974768 
L 290.101782 68.404476 
L 292.141069 74.751061 
L 294.180356 52.987858 
L 296.219644 43.414331 
L 298.258931 80.820059 
L 300.298218 56.840228 
L 302.337506 62.873513 
L 304.376793 59.363154 
L 306.41608 44.467217 
L 308.455368 46.919048 
L 310.494655 51.021927 
L 312.533942 58.005707 
L 314.57323 72.702657 
L 316.612517 39.872912 
L 318.651804 55.354435 
L 320.691092 45.550268 
L 322.730379 42.306734 
L 324.769667 55.688235 
L 326.808954 62.802808 
L 328.848241 45.884465 
L 330.887529 44.768411 
L 332.926816 49.031316 
L 334.966103 45.209373 
L 337.005391 55.435403 
L 339.044678 46.878302 
L 341.083965 49.298126 
L 343.123253 51.916661 
L 345.16254 47.716091 
L 347.201827 53.38989 
L 349.241115 53.606468 
L 351.280402 41.696593 
L 353.319689 52.286293 
L 355.358977 54.502636 
L 357.398264 64.538322 
L 359.437551 82.273846 
L 361.476839 49.606013 
L 363.516126 56.979736 
L 365.555413 45.040659 
L 367.594701 69.233014 
L 369.633988 53.329803 
L 371.673275 59.655507 
L 373.712563 52.321393 
L 375.75185 68.222527 
L 377.791138 51.715705 
L 379.830425 91.312217 
L 381.869712 66.796249 
L 383.909 69.490582 
L 385.948287 101.025097 
L 387.987574 72.37875 
L 390.026862 78.417835 
L 392.066149 62.265493 
L 394.105436 63.6168 
L 396.144724 99.14779 
L 398.184011 83.695626 
L 400.223298 84.287715 
L 402.262586 56.973899 
L 404.301873 81.138987 
L 406.34116 72.968191 
L 408.380448 67.949741 
L 410.419735 49.940658 
L 412.459022 68.924081 
L 414.49831 106.720179 
L 416.537597 78.559794 
L 418.576884 115.624171 
L 420.616172 100.363528 
L 422.655459 83.950815 
L 424.694746 79.060474 
L 426.734034 65.583296 
L 428.773321 66.303363 
L 430.812608 62.437262 
L 432.851896 60.17758 
L 434.891183 68.701416 
L 436.930471 58.974002 
L 438.969758 60.160893 
L 441.009045 71.293031 
L 443.048333 46.7296 
L 445.08762 61.826106 
L 447.126907 69.816714 
L 449.166195 65.940929 
L 451.205482 55.84587 
L 453.244769 63.021462 
L 455.284057 62.707841 
L 457.323344 55.684696 
L 459.362631 52.045014 
L 461.401919 58.020943 
L 463.441206 60.597168 
L 465.480493 62.549636 
L 467.519781 59.548767 
L 469.559068 53.120185 
L 471.598355 67.226492 
L 473.637643 67.988696 
L 475.67693 71.812058 
L 477.716217 49.715298 
L 479.755505 64.69115 
L 481.794792 59.926193 
L 483.834079 62.054786 
L 485.873367 67.956024 
L 487.912654 66.531846 
L 489.951942 45.842258 
L 491.991229 52.803125 
L 494.030516 43.164997 
L 496.069804 61.882611 
L 498.109091 58.254447 
L 498.109091 58.254447 
" clip-path="url(#p694883f977)" style="fill: none; stroke: #ff0000; stroke-opacity: 0.9; stroke-width: 1.5; stroke-linecap: square"/>
   </g>
   <g id="line2d_14">
    <path d="M 92.290909 61.774629 
L 94.330196 105.890666 
L 96.369484 130.778182 
L 98.408771 104.35036 
L 100.448058 89.39172 
L 102.487346 107.264264 
L 104.526633 98.248952 
L 106.565921 67.615822 
L 108.605208 115.609405 
L 110.644495 44.91412 
L 112.683783 81.80525 
L 114.72307 123.725445 
L 116.762357 122.706797 
L 118.801645 111.256605 
L 120.840932 67.875413 
L 122.880219 116.513105 
L 124.919507 69.83869 
L 126.958794 66.253705 
L 128.998081 87.933322 
L 131.037369 64.666895 
L 133.076656 52.544683 
L 135.115943 52.66952 
L 137.155231 108.330137 
L 139.194518 107.958292 
L 141.233805 125.648649 
L 143.273093 122.026357 
L 145.31238 120.284578 
L 147.351667 116.46989 
L 149.390955 117.370174 
L 151.430242 109.708816 
L 153.469529 107.400381 
L 155.508817 112.175225 
L 157.548104 128.068143 
L 159.587392 109.464984 
L 161.626679 121.729483 
L 163.665966 98.262778 
L 165.705254 93.939949 
L 167.744541 111.392436 
L 169.783828 47.511375 
L 171.823116 54.778896 
L 173.862403 74.792949 
L 175.90169 47.690608 
L 177.940978 42.214398 
L 179.980265 70.350686 
L 182.019552 67.249592 
L 184.05884 70.915224 
L 186.098127 64.812221 
L 188.137414 56.472987 
L 190.176702 67.016903 
L 192.215989 60.526414 
L 194.255276 48.584642 
L 196.294564 69.108986 
L 198.333851 75.479719 
L 200.373138 96.768685 
L 202.412426 70.895687 
L 204.451713 53.220886 
L 206.491 44.363399 
L 208.530288 76.507874 
L 210.569575 56.711786 
L 212.608862 110.259445 
L 214.64815 108.556919 
L 216.687437 93.289101 
L 218.726725 92.164522 
L 220.766012 109.543228 
L 222.805299 121.781918 
L 224.844587 121.219284 
L 226.883874 67.72177 
L 228.923161 59.453438 
L 230.962449 79.987553 
L 233.001736 73.239205 
L 235.041023 41.594675 
L 237.080311 60.303696 
L 239.119598 52.356291 
L 241.158885 74.655435 
L 243.198173 50.448174 
L 245.23746 84.597731 
L 247.276747 49.722122 
L 249.316035 98.905743 
L 251.355322 74.660943 
L 253.394609 112.236239 
L 255.433897 89.834759 
L 257.473184 68.927555 
L 259.512471 64.534437 
L 261.551759 57.811129 
L 263.591046 69.39517 
L 265.630333 66.902055 
L 267.669621 60.011272 
L 269.708908 49.592514 
L 271.748196 41.862419 
L 273.787483 59.615535 
L 275.82677 49.755538 
L 277.866058 66.160869 
L 279.905345 56.150889 
L 281.944632 77.994095 
L 283.98392 64.668299 
L 286.023207 59.79411 
L 288.062494 53.92965 
L 290.101782 68.590916 
L 292.141069 74.641942 
L 294.180356 52.984402 
L 296.219644 43.571856 
L 298.258931 80.703134 
L 300.298218 56.866089 
L 302.337506 62.831471 
L 304.376793 59.285059 
L 306.41608 44.483218 
L 308.455368 47.052487 
L 310.494655 51.218862 
L 312.533942 57.948191 
L 314.57323 72.746948 
L 316.612517 39.758028 
L 318.651804 55.553624 
L 320.691092 45.6199 
L 322.730379 42.118714 
L 324.769667 55.773719 
L 326.808954 63.011289 
L 328.848241 46.084169 
L 330.887529 44.922842 
L 332.926816 49.194474 
L 334.966103 45.182926 
L 337.005391 55.478998 
L 339.044678 46.768326 
L 341.083965 49.230122 
L 343.123253 51.960001 
L 345.16254 47.776855 
L 347.201827 53.472012 
L 349.241115 53.504798 
L 351.280402 41.672198 
L 353.319689 52.266631 
L 355.358977 54.454311 
L 357.398264 64.550917 
L 359.437551 82.177208 
L 361.476839 49.556084 
L 363.516126 56.982692 
L 365.555413 45.096137 
L 367.594701 68.887053 
L 369.633988 53.328578 
L 371.673275 59.613006 
L 373.712563 52.417234 
L 375.75185 68.272221 
L 377.791138 51.701332 
L 379.830425 91.499068 
L 381.869712 66.550716 
L 383.909 69.483449 
L 385.948287 100.878903 
L 387.987574 72.584596 
L 390.026862 78.36095 
L 392.066149 62.190391 
L 394.105436 63.579915 
L 396.144724 99.061403 
L 398.184011 83.832165 
L 400.223298 84.313796 
L 402.262586 57.162737 
L 404.301873 81.082952 
L 406.34116 72.968655 
L 408.380448 68.080575 
L 410.419735 49.953972 
L 412.459022 68.930059 
L 414.49831 106.816448 
L 416.537597 78.609023 
L 418.576884 115.686887 
L 420.616172 100.339494 
L 422.655459 84.055978 
L 424.694746 79.16252 
L 426.734034 65.585414 
L 428.773321 66.280411 
L 430.812608 62.319344 
L 432.851896 60.182607 
L 434.891183 68.691201 
L 436.930471 58.839284 
L 438.969758 60.355341 
L 441.009045 71.176457 
L 443.048333 46.760307 
L 445.08762 61.727934 
L 447.126907 69.549294 
L 449.166195 66.041737 
L 451.205482 55.970029 
L 453.244769 63.307051 
L 455.284057 62.533293 
L 457.323344 55.649298 
L 459.362631 52.036191 
L 461.401919 58.226986 
L 463.441206 60.64955 
L 465.480493 62.425537 
L 467.519781 59.717693 
L 469.559068 53.245094 
L 471.598355 67.280177 
L 473.637643 68.036783 
L 475.67693 71.935931 
L 477.716217 49.657389 
L 479.755505 64.721479 
L 481.794792 59.856701 
L 483.834079 62.030537 
L 485.873367 67.886889 
L 487.912654 66.507525 
L 489.951942 45.740245 
L 491.991229 52.58945 
L 494.030516 43.138374 
L 496.069804 61.826654 
L 498.109091 58.119895 
L 498.109091 58.119895 
" clip-path="url(#p694883f977)" style="fill: none; stroke: #ff0000; stroke-opacity: 0.9; stroke-width: 1.5; stroke-linecap: square"/>
   </g>
   <g id="line2d_15">
    <path d="M 92.290909 61.709152 
L 94.330196 106.014967 
L 96.369484 130.598506 
L 98.408771 104.268774 
L 100.448058 89.49956 
L 102.487346 107.272189 
L 104.526633 98.431983 
L 106.565921 67.673873 
L 108.605208 115.583931 
L 110.644495 45.016773 
L 112.683783 81.896539 
L 114.72307 123.629295 
L 116.762357 122.744871 
L 118.801645 111.025481 
L 120.840932 67.970551 
L 122.880219 116.638239 
L 124.919507 69.746984 
L 126.958794 66.287931 
L 128.998081 87.961551 
L 131.037369 64.632581 
L 133.076656 52.496417 
L 135.115943 52.682501 
L 137.155231 108.361679 
L 139.194518 108.090387 
L 141.233805 125.830539 
L 143.273093 122.100983 
L 145.31238 120.324865 
L 147.351667 116.640404 
L 149.390955 117.331993 
L 151.430242 109.780694 
L 153.469529 107.426712 
L 155.508817 112.249137 
L 157.548104 127.840113 
L 159.587392 109.642745 
L 161.626679 121.83433 
L 163.665966 98.245513 
L 165.705254 93.914594 
L 167.744541 111.347211 
L 169.783828 47.66259 
L 171.823116 54.8023 
L 173.862403 74.88663 
L 175.90169 47.923297 
L 177.940978 42.104172 
L 179.980265 70.405793 
L 182.019552 67.021359 
L 184.05884 70.845328 
L 186.098127 64.82469 
L 188.137414 56.59034 
L 190.176702 66.647467 
L 192.215989 60.629888 
L 194.255276 48.601217 
L 196.294564 68.997094 
L 198.333851 75.514343 
L 200.373138 96.857476 
L 202.412426 70.729438 
L 204.451713 53.150187 
L 206.491 44.40612 
L 208.530288 76.495422 
L 210.569575 56.690018 
L 212.608862 110.31175 
L 214.64815 108.664277 
L 216.687437 93.268689 
L 218.726725 92.312144 
L 220.766012 109.511614 
L 222.805299 121.977776 
L 224.844587 121.351438 
L 226.883874 67.63449 
L 228.923161 59.358079 
L 230.962449 79.772331 
L 233.001736 73.211363 
L 235.041023 41.370672 
L 237.080311 60.289835 
L 239.119598 52.34149 
L 241.158885 74.72216 
L 243.198173 50.480246 
L 245.23746 84.660983 
L 247.276747 49.897556 
L 249.316035 99.059172 
L 251.355322 74.745778 
L 253.394609 112.48677 
L 255.433897 89.906422 
L 257.473184 68.911504 
L 259.512471 64.657043 
L 261.551759 57.812812 
L 263.591046 69.177246 
L 265.630333 66.931057 
L 267.669621 60.06463 
L 269.708908 49.417725 
L 271.748196 41.753145 
L 273.787483 59.512347 
L 275.82677 49.819569 
L 277.866058 66.287556 
L 279.905345 56.297452 
L 281.944632 78.08103 
L 283.98392 64.78009 
L 286.023207 59.572403 
L 288.062494 53.917139 
L 290.101782 68.515594 
L 292.141069 74.794145 
L 294.180356 53.301926 
L 296.219644 43.339875 
L 298.258931 80.827513 
L 300.298218 56.753359 
L 302.337506 62.777833 
L 304.376793 59.314865 
L 306.41608 44.528684 
L 308.455368 46.957569 
L 310.494655 51.068337 
L 312.533942 57.908528 
L 314.57323 72.635033 
L 316.612517 39.680927 
L 318.651804 55.475119 
L 320.691092 45.500185 
L 322.730379 42.255955 
L 324.769667 55.709902 
L 326.808954 62.964785 
L 328.848241 45.915347 
L 330.887529 44.899628 
L 332.926816 49.098565 
L 334.966103 45.334294 
L 337.005391 55.508732 
L 339.044678 46.75779 
L 343.123253 52.107873 
L 345.16254 47.811194 
L 347.201827 53.510461 
L 349.241115 53.68489 
L 351.280402 41.774283 
L 353.319689 52.246268 
L 355.358977 54.343288 
L 357.398264 64.689924 
L 359.437551 82.220315 
L 361.476839 49.545736 
L 363.516126 56.904033 
L 365.555413 45.218389 
L 367.594701 69.280119 
L 369.633988 53.277855 
L 371.673275 59.580536 
L 373.712563 52.346332 
L 375.75185 68.265921 
L 377.791138 51.595764 
L 379.830425 91.420539 
L 381.869712 66.631744 
L 383.909 69.621921 
L 385.948287 100.989438 
L 387.987574 72.578088 
L 390.026862 78.489695 
L 392.066149 62.109101 
L 394.105436 63.542518 
L 396.144724 99.144411 
L 398.184011 83.716556 
L 400.223298 84.134096 
L 402.262586 57.091217 
L 404.301873 81.104506 
L 406.34116 72.943324 
L 408.380448 67.995544 
L 410.419735 50.115087 
L 412.459022 69.093239 
L 414.49831 106.768998 
L 416.537597 78.544076 
L 418.576884 115.56581 
L 420.616172 100.28375 
L 422.655459 83.808708 
L 424.694746 79.003535 
L 426.734034 65.519307 
L 428.773321 66.233377 
L 430.812608 62.205525 
L 432.851896 60.139083 
L 434.891183 68.92464 
L 436.930471 58.884587 
L 438.969758 60.179948 
L 441.009045 71.221784 
L 443.048333 46.70379 
L 445.08762 61.842592 
L 447.126907 69.660627 
L 449.166195 65.951732 
L 451.205482 55.912048 
L 453.244769 63.283748 
L 455.284057 62.449583 
L 457.323344 55.706297 
L 459.362631 52.113102 
L 461.401919 58.142074 
L 463.441206 60.523981 
L 465.480493 62.586651 
L 467.519781 59.706396 
L 469.559068 53.359115 
L 471.598355 67.223166 
L 473.637643 68.116103 
L 475.67693 71.977605 
L 477.716217 49.725531 
L 479.755505 64.812852 
L 481.794792 59.833821 
L 483.834079 62.109667 
L 485.873367 67.817777 
L 487.912654 66.461033 
L 489.951942 46.027553 
L 491.991229 52.571614 
L 494.030516 43.195281 
L 496.069804 61.828486 
L 498.109091 58.123721 
L 498.109091 58.123721 
" clip-path="url(#p694883f977)" style="fill: none; stroke: #ff0000; stroke-opacity: 0.9; stroke-width: 1.5; stroke-linecap: square"/>
   </g>
   <g id="line2d_16">
    <path d="M 92.290909 61.647596 
L 94.330196 106.068569 
L 96.369484 130.672144 
L 98.408771 104.400512 
L 100.448058 89.49392 
L 102.487346 107.480706 
L 104.526633 98.192792 
L 106.565921 67.577194 
L 108.605208 115.478964 
L 110.644495 44.804793 
L 112.683783 81.918069 
L 114.72307 123.625357 
L 116.762357 122.667306 
L 118.801645 111.083842 
L 120.840932 68.006395 
L 122.880219 116.638001 
L 124.919507 69.748989 
L 126.958794 66.169061 
L 128.998081 87.923625 
L 131.037369 64.454172 
L 133.076656 52.593602 
L 135.115943 52.839064 
L 137.155231 108.266529 
L 139.194518 108.159813 
L 141.233805 125.715637 
L 143.273093 122.156441 
L 145.31238 120.284685 
L 147.351667 116.504966 
L 149.390955 117.244552 
L 151.430242 109.688196 
L 153.469529 107.408222 
L 155.508817 112.033564 
L 157.548104 127.964129 
L 159.587392 109.438404 
L 161.626679 121.777599 
L 163.665966 98.154444 
L 165.705254 94.009441 
L 167.744541 111.414353 
L 169.783828 47.474618 
L 171.823116 54.88209 
L 173.862403 74.825753 
L 175.90169 47.860866 
L 177.940978 42.190434 
L 179.980265 70.482947 
L 182.019552 67.08442 
L 184.05884 70.771868 
L 186.098127 64.686051 
L 188.137414 56.647172 
L 190.176702 66.864926 
L 192.215989 60.692247 
L 194.255276 48.503434 
L 196.294564 69.067413 
L 198.333851 75.596262 
L 200.373138 96.634639 
L 202.412426 70.937926 
L 204.451713 53.157831 
L 206.491 44.373084 
L 208.530288 76.520659 
L 210.569575 56.798102 
L 212.608862 110.347183 
L 214.64815 108.640599 
L 216.687437 93.285115 
L 218.726725 92.179276 
L 220.766012 109.439379 
L 222.805299 121.854296 
L 224.844587 121.039584 
L 226.883874 67.72061 
L 228.923161 59.354688 
L 230.962449 79.879529 
L 233.001736 73.192272 
L 235.041023 41.443567 
L 237.080311 60.251022 
L 239.119598 52.373805 
L 241.158885 74.783258 
L 243.198173 50.459894 
L 245.23746 84.553708 
L 247.276747 49.808539 
L 249.316035 98.982803 
L 251.355322 74.63397 
L 253.394609 112.282571 
L 257.473184 68.96441 
L 259.512471 64.772076 
L 261.551759 57.805114 
L 263.591046 69.318128 
L 265.630333 66.918879 
L 267.669621 60.102264 
L 269.708908 49.501971 
L 271.748196 41.721951 
L 273.787483 59.646821 
L 275.82677 49.772488 
L 277.866058 66.07316 
L 279.905345 56.314157 
L 281.944632 77.968639 
L 283.98392 64.766841 
L 286.023207 59.746582 
L 288.062494 53.978231 
L 290.101782 68.566549 
L 292.141069 74.671705 
L 294.180356 53.054388 
L 296.219644 43.384006 
L 298.258931 80.711386 
L 300.298218 56.759361 
L 302.337506 62.724124 
L 304.376793 59.397724 
L 306.41608 44.690983 
L 308.455368 46.853521 
L 310.494655 51.079295 
L 312.533942 57.979835 
L 314.57323 72.591926 
L 316.612517 39.757385 
L 318.651804 55.562399 
L 320.691092 45.581011 
L 322.730379 42.154055 
L 324.769667 55.793601 
L 326.808954 62.858884 
L 328.848241 45.880776 
L 330.887529 44.871465 
L 332.926816 49.12381 
L 334.966103 45.320961 
L 337.005391 55.560549 
L 339.044678 46.654936 
L 341.083965 49.418379 
L 343.123253 51.957591 
L 345.16254 47.923695 
L 347.201827 53.543413 
L 349.241115 53.382953 
L 351.280402 41.592429 
L 353.319689 52.406924 
L 355.358977 54.428867 
L 357.398264 64.610045 
L 359.437551 82.139449 
L 361.476839 49.5221 
L 363.516126 56.79091 
L 365.555413 45.177563 
L 367.594701 69.091436 
L 369.633988 53.194889 
L 371.673275 59.547714 
L 373.712563 52.378339 
L 375.75185 68.361119 
L 377.791138 51.668831 
L 379.830425 91.277855 
L 381.869712 66.647491 
L 383.909 69.380576 
L 385.948287 100.951589 
L 387.987574 72.452329 
L 390.026862 78.495811 
L 392.066149 62.220868 
L 394.105436 63.414118 
L 396.144724 99.127278 
L 398.184011 83.624974 
L 400.223298 84.301446 
L 402.262586 57.047318 
L 404.301873 81.09761 
L 406.34116 72.886028 
L 408.380448 68.089267 
L 410.419735 49.931633 
L 412.459022 68.957866 
L 414.49831 106.664305 
L 416.537597 78.62079 
L 418.576884 115.666934 
L 420.616172 100.410943 
L 422.655459 83.917934 
L 424.694746 78.941247 
L 426.734034 65.569732 
L 428.773321 66.209777 
L 430.812608 62.350988 
L 432.851896 60.198688 
L 434.891183 68.847229 
L 436.930471 59.027408 
L 438.969758 60.274956 
L 441.009045 71.3883 
L 443.048333 46.837161 
L 445.08762 61.674808 
L 447.126907 69.589463 
L 449.166195 65.921148 
L 451.205482 55.94641 
L 453.244769 63.062637 
L 455.284057 62.73281 
L 457.323344 55.716809 
L 459.362631 52.081119 
L 461.401919 58.194587 
L 463.441206 60.520269 
L 465.480493 62.499116 
L 467.519781 59.627272 
L 469.559068 53.178546 
L 471.598355 67.241162 
L 473.637643 67.92488 
L 475.67693 71.754012 
L 477.716217 49.713656 
L 479.755505 64.692369 
L 481.794792 59.813367 
L 483.834079 61.998209 
L 485.873367 67.994104 
L 487.912654 66.515515 
L 489.951942 45.868919 
L 491.991229 52.678009 
L 494.030516 43.165113 
L 496.069804 61.832371 
L 498.109091 58.110442 
L 498.109091 58.110442 
" clip-path="url(#p694883f977)" style="fill: none; stroke: #ff0000; stroke-opacity: 0.9; stroke-width: 1.5; stroke-linecap: square"/>
   </g>
   <g id="line2d_17">
    <path d="M 92.290909 61.749844 
L 94.330196 106.026449 
L 96.369484 130.686268 
L 98.408771 104.327206 
L 100.448058 89.601279 
L 102.487346 107.342186 
L 104.526633 98.388156 
L 106.565921 67.576879 
L 108.605208 115.422924 
L 110.644495 44.936724 
L 112.683783 81.799098 
L 114.72307 123.57812 
L 116.762357 122.683464 
L 118.801645 111.023661 
L 120.840932 67.908543 
L 122.880219 116.620582 
L 124.919507 69.706584 
L 126.958794 66.288216 
L 128.998081 88.143232 
L 131.037369 64.560376 
L 133.076656 52.506281 
L 135.115943 52.648561 
L 137.155231 108.382763 
L 139.194518 108.075823 
L 141.233805 125.869696 
L 143.273093 121.931266 
L 145.31238 120.397826 
L 147.351667 116.558663 
L 149.390955 117.319059 
L 151.430242 109.782645 
L 153.469529 107.424939 
L 155.508817 111.993752 
L 157.548104 127.946519 
L 159.587392 109.587025 
L 161.626679 121.749079 
L 163.665966 98.141457 
L 165.705254 93.940146 
L 167.744541 111.366177 
L 169.783828 47.552108 
L 171.823116 54.932967 
L 173.862403 74.91405 
L 175.90169 47.858481 
L 177.940978 42.072386 
L 179.980265 70.645847 
L 182.019552 67.214451 
L 184.05884 70.853311 
L 186.098127 64.724584 
L 188.137414 56.478455 
L 190.176702 66.614485 
L 192.215989 60.596364 
L 194.255276 48.572488 
L 196.294564 69.097385 
L 198.333851 75.459581 
L 200.373138 96.832026 
L 202.412426 70.817492 
L 204.451713 52.977364 
L 206.491 44.396339 
L 208.530288 76.454022 
L 210.569575 56.804301 
L 212.608862 110.263979 
L 214.64815 108.600859 
L 216.687437 93.250086 
L 218.726725 92.03226 
L 220.766012 109.415523 
L 222.805299 121.806988 
L 224.844587 121.138185 
L 226.883874 67.596344 
L 228.923161 59.304608 
L 230.962449 79.864888 
L 233.001736 73.20915 
L 235.041023 41.389545 
L 237.080311 60.180132 
L 239.119598 52.428264 
L 241.158885 74.617479 
L 243.198173 50.549815 
L 245.23746 84.556914 
L 247.276747 49.838226 
L 249.316035 98.842028 
L 251.355322 74.651645 
L 253.394609 112.303441 
L 257.473184 68.917691 
L 259.512471 64.781601 
L 261.551759 57.745456 
L 263.591046 69.346286 
L 265.630333 66.828934 
L 267.669621 60.141267 
L 269.708908 49.53031 
L 271.748196 41.693475 
L 273.787483 59.699132 
L 275.82677 49.773874 
L 277.866058 66.030892 
L 279.905345 56.382703 
L 281.944632 78.09112 
L 283.98392 64.763724 
L 286.023207 59.688614 
L 288.062494 53.991289 
L 290.101782 68.505344 
L 292.141069 74.751442 
L 294.180356 53.07101 
L 296.219644 43.444422 
L 298.258931 80.654435 
L 300.298218 56.843875 
L 302.337506 62.821303 
L 304.376793 59.477705 
L 306.41608 44.630929 
L 308.455368 46.93127 
L 310.494655 51.149822 
L 312.533942 58.027374 
L 314.57323 72.81932 
L 316.612517 39.792982 
L 318.651804 55.570311 
L 320.691092 45.583759 
L 322.730379 42.166361 
L 324.769667 55.740998 
L 326.808954 62.801368 
L 328.848241 46.076833 
L 330.887529 44.705844 
L 332.926816 49.063314 
L 334.966103 45.188905 
L 337.005391 55.648912 
L 339.044678 46.697841 
L 343.123253 51.986528 
L 345.16254 47.775787 
L 347.201827 53.659404 
L 349.241115 53.549975 
L 351.280402 41.66826 
L 353.319689 52.34889 
L 355.358977 54.43312 
L 357.398264 64.630011 
L 359.437551 82.120138 
L 361.476839 49.572784 
L 363.516126 56.940929 
L 365.555413 45.063134 
L 367.594701 69.204095 
L 369.633988 53.197352 
L 371.673275 59.653788 
L 373.712563 52.442572 
L 375.75185 68.399883 
L 377.791138 51.658171 
L 379.830425 91.429927 
L 381.869712 66.742546 
L 383.909 69.489713 
L 385.948287 100.994471 
L 387.987574 72.36568 
L 390.026862 78.537235 
L 392.066149 62.203883 
L 394.105436 63.493718 
L 396.144724 99.065835 
L 398.184011 83.778022 
L 400.223298 84.180648 
L 402.262586 57.019631 
L 404.301873 81.246357 
L 406.34116 72.879287 
L 408.380448 68.014926 
L 410.419735 50.127039 
L 412.459022 68.870877 
L 414.49831 106.783561 
L 416.537597 78.622272 
L 418.576884 115.66334 
L 420.616172 100.374344 
L 422.655459 84.043247 
L 424.694746 79.04287 
L 426.734034 65.625541 
L 428.773321 66.090817 
L 430.812608 62.394161 
L 432.851896 60.247661 
L 434.891183 68.804223 
L 436.930471 58.862795 
L 438.969758 60.287622 
L 441.009045 71.319653 
L 443.048333 46.770527 
L 445.08762 61.699277 
L 447.126907 69.689516 
L 449.166195 65.965796 
L 451.205482 55.908621 
L 453.244769 63.103888 
L 455.284057 62.622061 
L 457.323344 55.851397 
L 459.362631 51.988021 
L 461.401919 58.102893 
L 463.441206 60.391666 
L 465.480493 62.456591 
L 467.519781 59.734559 
L 469.559068 53.27096 
L 471.598355 67.364732 
L 473.637643 68.079433 
L 475.67693 71.600935 
L 477.716217 49.690711 
L 479.755505 64.759589 
L 481.794792 59.729074 
L 483.834079 62.052614 
L 485.873367 67.830181 
L 487.912654 66.529228 
L 489.951942 45.872974 
L 491.991229 52.770167 
L 494.030516 43.31772 
L 496.069804 61.840837 
L 498.109091 58.076371 
L 498.109091 58.076371 
" clip-path="url(#p694883f977)" style="fill: none; stroke: #ff0000; stroke-opacity: 0.9; stroke-width: 1.5; stroke-linecap: square"/>
   </g>
   <g id="line2d_18">
    <path d="M 92.290909 112.260679 
L 94.330196 100.748474 
L 96.369484 120.597027 
L 98.408771 100.920797 
L 100.448058 91.55195 
L 102.487346 104.817666 
L 104.526633 98.979929 
L 106.565921 66.465263 
L 108.605208 112.652727 
L 110.644495 46.176255 
L 112.683783 80.902383 
L 114.72307 119.247439 
L 116.762357 121.461331 
L 118.801645 112.648848 
L 120.840932 69.407145 
L 122.880219 112.560349 
L 124.919507 67.906586 
L 126.958794 63.454382 
L 128.998081 85.138461 
L 131.037369 63.326535 
L 133.076656 49.871767 
L 135.115943 52.177008 
L 137.155231 105.142251 
L 139.194518 109.322931 
L 141.233805 125.391682 
L 143.273093 121.427552 
L 145.31238 121.548819 
L 147.351667 113.449389 
L 149.390955 118.25135 
L 151.430242 109.360375 
L 153.469529 107.798593 
L 155.508817 114.689596 
L 157.548104 128.453553 
L 159.587392 109.691373 
L 161.626679 123.830031 
L 163.665966 95.822997 
L 165.705254 94.980062 
L 167.744541 112.985891 
L 169.783828 49.808902 
L 171.823116 54.366686 
L 173.862403 74.772198 
L 175.90169 50.581851 
L 177.940978 43.064447 
L 179.980265 68.662205 
L 182.019552 64.088739 
L 184.05884 70.521432 
L 186.098127 65.671391 
L 188.137414 59.290699 
L 190.176702 68.314007 
L 192.215989 61.28784 
L 194.255276 47.574257 
L 196.294564 68.59448 
L 198.333851 74.596574 
L 200.373138 92.695715 
L 202.412426 70.881344 
L 204.451713 52.242609 
L 206.491 42.308611 
L 208.530288 73.00576 
L 210.569575 57.830398 
L 212.608862 111.66768 
L 214.64815 105.897543 
L 216.687437 93.676045 
L 218.726725 92.284938 
L 220.766012 109.251779 
L 222.805299 121.017953 
L 224.844587 120.096537 
L 226.883874 69.76241 
L 228.923161 58.073206 
L 230.962449 78.937041 
L 233.001736 73.280795 
L 235.041023 43.779291 
L 237.080311 58.909085 
L 239.119598 51.520948 
L 241.158885 74.032868 
L 243.198173 52.039594 
L 245.23746 81.02634 
L 247.276747 50.110792 
L 249.316035 101.917743 
L 251.355322 76.841793 
L 253.394609 110.795273 
L 257.473184 71.817567 
L 259.512471 65.199338 
L 261.551759 56.82319 
L 263.591046 68.467519 
L 265.630333 63.767164 
L 267.669621 60.52905 
L 269.708908 48.380664 
L 271.748196 39.141818 
L 273.787483 61.779531 
L 275.82677 49.46854 
L 277.866058 65.294613 
L 279.905345 53.886007 
L 281.944632 81.681567 
L 283.98392 64.353524 
L 286.023207 62.736742 
L 288.062494 52.836934 
L 290.101782 67.005624 
L 292.141069 75.024401 
L 294.180356 54.038668 
L 296.219644 41.288353 
L 298.258931 78.697201 
L 300.298218 55.150438 
L 302.337506 60.421656 
L 304.376793 57.96351 
L 306.41608 44.598744 
L 308.455368 45.348235 
L 310.494655 56.272572 
L 312.533942 60.654981 
L 314.57323 72.38148 
L 316.612517 40.23147 
L 318.651804 56.502935 
L 320.691092 46.066976 
L 322.730379 42.01522 
L 326.808954 62.650271 
L 328.848241 45.900709 
L 332.926816 47.540237 
L 334.966103 45.797937 
L 337.005391 56.187184 
L 339.044678 40.661203 
L 341.083965 50.038658 
L 343.123253 56.221892 
L 345.16254 48.629127 
L 347.201827 52.497601 
L 349.241115 54.494182 
L 351.280402 41.040798 
L 353.319689 58.341923 
L 355.358977 57.62476 
L 357.398264 64.727202 
L 359.437551 83.146021 
L 361.476839 47.626205 
L 363.516126 55.845037 
L 365.555413 45.738461 
L 367.594701 69.899663 
L 369.633988 52.897193 
L 371.673275 62.250138 
L 373.712563 51.760829 
L 375.75185 68.245777 
L 377.791138 49.888847 
L 379.830425 94.071354 
L 381.869712 66.303922 
L 383.909 72.355869 
L 385.948287 100.110475 
L 387.987574 72.175759 
L 390.026862 80.1059 
L 392.066149 62.00868 
L 394.105436 66.686827 
L 396.144724 101.011462 
L 398.184011 83.453526 
L 400.223298 83.722671 
L 402.262586 58.909389 
L 404.301873 79.968272 
L 406.34116 68.282513 
L 408.380448 69.209747 
L 410.419735 46.907477 
L 412.459022 68.619627 
L 414.49831 105.269004 
L 416.537597 78.517472 
L 418.576884 113.019064 
L 420.616172 105.884336 
L 422.655459 86.164225 
L 424.694746 81.093339 
L 426.734034 61.442714 
L 428.773321 66.088575 
L 430.812608 64.469152 
L 432.851896 63.501148 
L 434.891183 70.990243 
L 436.930471 59.944695 
L 438.969758 59.91771 
L 441.009045 71.066755 
L 443.048333 47.763928 
L 445.08762 60.152665 
L 447.126907 69.518067 
L 449.166195 66.369005 
L 451.205482 56.294376 
L 453.244769 64.23955 
L 455.284057 62.235318 
L 457.323344 52.871112 
L 459.362631 49.726411 
L 461.401919 60.213317 
L 463.441206 60.155437 
L 465.480493 62.350631 
L 467.519781 54.639419 
L 469.559068 55.976115 
L 471.598355 67.807003 
L 473.637643 67.925118 
L 475.67693 70.294425 
L 477.716217 49.954627 
L 479.755505 64.965893 
L 481.794792 57.691878 
L 483.834079 61.467629 
L 485.873367 66.226613 
L 487.912654 66.832319 
L 489.951942 46.388994 
L 491.991229 49.585884 
L 494.030516 43.739666 
L 496.069804 64.331917 
L 498.109091 58.608636 
L 498.109091 58.608636 
" clip-path="url(#p694883f977)" style="fill: none; stroke: #008000; stroke-opacity: 0.9; stroke-width: 1.5; stroke-linecap: square"/>
   </g>
   <g id="line2d_19">
    <path d="M 153.469529 135.36 
L 153.469529 34.56 
" clip-path="url(#p694883f977)" style="fill: none; stroke-dasharray: 5.55,2.4; stroke-dashoffset: 0; stroke: #000000; stroke-width: 1.5"/>
   </g>
   <g id="line2d_20">
    <path d="M 438.969758 135.36 
L 438.969758 34.56 
" clip-path="url(#p694883f977)" style="fill: none; stroke-dasharray: 5.55,2.4; stroke-dashoffset: 0; stroke: #0000ff; stroke-width: 1.5"/>
   </g>
   <g id="patch_3">
    <path d="M 72 135.36 
L 72 34.56 
" style="fill: none; stroke: #000000; stroke-width: 0.8; stroke-linejoin: miter; stroke-linecap: square"/>
   </g>
   <g id="patch_4">
    <path d="M 518.4 135.36 
L 518.4 34.56 
" style="fill: none; stroke: #000000; stroke-width: 0.8; stroke-linejoin: miter; stroke-linecap: square"/>
   </g>
   <g id="patch_5">
    <path d="M 72 135.36 
L 518.4 135.36 
" style="fill: none; stroke: #000000; stroke-width: 0.8; stroke-linejoin: miter; stroke-linecap: square"/>
   </g>
   <g id="patch_6">
    <path d="M 72 34.56 
L 518.4 34.56 
" style="fill: none; stroke: #000000; stroke-width: 0.8; stroke-linejoin: miter; stroke-linecap: square"/>
   </g>
  </g>
  <g id="axes_2">
   <g id="patch_7">
    <path d="M 72 256.32 
L 518.4 256.32 
L 518.4 155.52 
L 72 155.52 
z
" style="fill: #ffffff"/>
   </g>
   <g id="matplotlib.axis_3">
    <g id="xtick_10">
     <g id="line2d_21">
      <g>
       <use xlink:href="#ma07fe3945b" x="92.290909" y="256.32" style="stroke: #000000; stroke-width: 0.8"/>
      </g>
     </g>
     <g id="text_4">
      <!-- 0 -->
      <g transform="translate(89.109659 270.918437) scale(0.1 -0.1)">
       <use xlink:href="#DejaVuSans-30"/>
      </g>
     </g>
    </g>
    <g id="xtick_11">
     <g id="line2d_22">
      <g>
       <use xlink:href="#ma07fe3945b" x="143.273093" y="256.32" style="stroke: #000000; stroke-width: 0.8"/>
      </g>
     </g>
     <g id="text_5">
      <!-- 25 -->
      <g transform="translate(136.910593 270.918437) scale(0.1 -0.1)">
       <defs>
        <path id="DejaVuSans-32" d="M 1228 531 
L 3431 531 
L 3431 0 
L 469 0 
L 469 531 
Q 828 903 1448 1529 
Q 2069 2156 2228 2338 
Q 2531 2678 2651 2914 
Q 2772 3150 2772 3378 
Q 2772 3750 2511 3984 
Q 2250 4219 1831 4219 
Q 1534 4219 1204 4116 
Q 875 4013 500 3803 
L 500 4441 
Q 881 4594 1212 4672 
Q 1544 4750 1819 4750 
Q 2544 4750 2975 4387 
Q 3406 4025 3406 3419 
Q 3406 3131 3298 2873 
Q 3191 2616 2906 2266 
Q 2828 2175 2409 1742 
Q 1991 1309 1228 531 
z
" transform="scale(0.015625)"/>
       </defs>
       <use xlink:href="#DejaVuSans-32"/>
       <use xlink:href="#DejaVuSans-35" transform="translate(63.623047 0)"/>
      </g>
     </g>
    </g>
    <g id="xtick_12">
     <g id="line2d_23">
      <g>
       <use xlink:href="#ma07fe3945b" x="194.255276" y="256.32" style="stroke: #000000; stroke-width: 0.8"/>
      </g>
     </g>
     <g id="text_6">
      <!-- 50 -->
      <g transform="translate(187.892776 270.918437) scale(0.1 -0.1)">
       <use xlink:href="#DejaVuSans-35"/>
       <use xlink:href="#DejaVuSans-30" transform="translate(63.623047 0)"/>
      </g>
     </g>
    </g>
    <g id="xtick_13">
     <g id="line2d_24">
      <g>
       <use xlink:href="#ma07fe3945b" x="245.23746" y="256.32" style="stroke: #000000; stroke-width: 0.8"/>
      </g>
     </g>
     <g id="text_7">
      <!-- 75 -->
      <g transform="translate(238.87496 270.918437) scale(0.1 -0.1)">
       <defs>
        <path id="DejaVuSans-37" d="M 525 4666 
L 3525 4666 
L 3525 4397 
L 1831 0 
L 1172 0 
L 2766 4134 
L 525 4134 
L 525 4666 
z
" transform="scale(0.015625)"/>
       </defs>
       <use xlink:href="#DejaVuSans-37"/>
       <use xlink:href="#DejaVuSans-35" transform="translate(63.623047 0)"/>
      </g>
     </g>
    </g>
    <g id="xtick_14">
     <g id="line2d_25">
      <g>
       <use xlink:href="#ma07fe3945b" x="296.219644" y="256.32" style="stroke: #000000; stroke-width: 0.8"/>
      </g>
     </g>
     <g id="text_8">
      <!-- 100 -->
      <g transform="translate(286.675894 270.918437) scale(0.1 -0.1)">
       <use xlink:href="#DejaVuSans-31"/>
       <use xlink:href="#DejaVuSans-30" transform="translate(63.623047 0)"/>
       <use xlink:href="#DejaVuSans-30" transform="translate(127.246094 0)"/>
      </g>
     </g>
    </g>
    <g id="xtick_15">
     <g id="line2d_26">
      <g>
       <use xlink:href="#ma07fe3945b" x="347.201827" y="256.32" style="stroke: #000000; stroke-width: 0.8"/>
      </g>
     </g>
     <g id="text_9">
      <!-- 125 -->
      <g transform="translate(337.658077 270.918437) scale(0.1 -0.1)">
       <use xlink:href="#DejaVuSans-31"/>
       <use xlink:href="#DejaVuSans-32" transform="translate(63.623047 0)"/>
       <use xlink:href="#DejaVuSans-35" transform="translate(127.246094 0)"/>
      </g>
     </g>
    </g>
    <g id="xtick_16">
     <g id="line2d_27">
      <g>
       <use xlink:href="#ma07fe3945b" x="398.184011" y="256.32" style="stroke: #000000; stroke-width: 0.8"/>
      </g>
     </g>
     <g id="text_10">
      <!-- 150 -->
      <g transform="translate(388.640261 270.918437) scale(0.1 -0.1)">
       <use xlink:href="#DejaVuSans-31"/>
       <use xlink:href="#DejaVuSans-35" transform="translate(63.623047 0)"/>
       <use xlink:href="#DejaVuSans-30" transform="translate(127.246094 0)"/>
      </g>
     </g>
    </g>
    <g id="xtick_17">
     <g id="line2d_28">
      <g>
       <use xlink:href="#ma07fe3945b" x="449.166195" y="256.32" style="stroke: #000000; stroke-width: 0.8"/>
      </g>
     </g>
     <g id="text_11">
      <!-- 175 -->
      <g transform="translate(439.622445 270.918437) scale(0.1 -0.1)">
       <use xlink:href="#DejaVuSans-31"/>
       <use xlink:href="#DejaVuSans-37" transform="translate(63.623047 0)"/>
       <use xlink:href="#DejaVuSans-35" transform="translate(127.246094 0)"/>
      </g>
     </g>
    </g>
    <g id="xtick_18">
     <g id="line2d_29">
      <g>
       <use xlink:href="#ma07fe3945b" x="500.148378" y="256.32" style="stroke: #000000; stroke-width: 0.8"/>
      </g>
     </g>
     <g id="text_12">
      <!-- 200 -->
      <g transform="translate(490.604628 270.918437) scale(0.1 -0.1)">
       <use xlink:href="#DejaVuSans-32"/>
       <use xlink:href="#DejaVuSans-30" transform="translate(63.623047 0)"/>
       <use xlink:href="#DejaVuSans-30" transform="translate(127.246094 0)"/>
      </g>
     </g>
    </g>
   </g>
   <g id="matplotlib.axis_4">
    <g id="ytick_4">
     <g id="line2d_30">
      <g>
       <use xlink:href="#m25ce02e64b" x="72" y="253.791532" style="stroke: #000000; stroke-width: 0.8"/>
      </g>
     </g>
     <g id="text_13">
      <!-- −200 -->
      <g transform="translate(37.532812 257.590751) scale(0.1 -0.1)">
       <use xlink:href="#DejaVuSans-2212"/>
       <use xlink:href="#DejaVuSans-32" transform="translate(83.789062 0)"/>
       <use xlink:href="#DejaVuSans-30" transform="translate(147.412109 0)"/>
       <use xlink:href="#DejaVuSans-30" transform="translate(211.035156 0)"/>
      </g>
     </g>
    </g>
    <g id="ytick_5">
     <g id="line2d_31">
      <g>
       <use xlink:href="#m25ce02e64b" x="72" y="229.209516" style="stroke: #000000; stroke-width: 0.8"/>
      </g>
     </g>
     <g id="text_14">
      <!-- −100 -->
      <g transform="translate(37.532812 233.008734) scale(0.1 -0.1)">
       <use xlink:href="#DejaVuSans-2212"/>
       <use xlink:href="#DejaVuSans-31" transform="translate(83.789062 0)"/>
       <use xlink:href="#DejaVuSans-30" transform="translate(147.412109 0)"/>
       <use xlink:href="#DejaVuSans-30" transform="translate(211.035156 0)"/>
      </g>
     </g>
    </g>
    <g id="ytick_6">
     <g id="line2d_32">
      <g>
       <use xlink:href="#m25ce02e64b" x="72" y="204.627499" style="stroke: #000000; stroke-width: 0.8"/>
      </g>
     </g>
     <g id="text_15">
      <!-- 0 -->
      <g transform="translate(58.6375 208.426718) scale(0.1 -0.1)">
       <use xlink:href="#DejaVuSans-30"/>
      </g>
     </g>
    </g>
    <g id="ytick_7">
     <g id="line2d_33">
      <g>
       <use xlink:href="#m25ce02e64b" x="72" y="180.045483" style="stroke: #000000; stroke-width: 0.8"/>
      </g>
     </g>
     <g id="text_16">
      <!-- 100 -->
      <g transform="translate(45.9125 183.844702) scale(0.1 -0.1)">
       <use xlink:href="#DejaVuSans-31"/>
       <use xlink:href="#DejaVuSans-30" transform="translate(63.623047 0)"/>
       <use xlink:href="#DejaVuSans-30" transform="translate(127.246094 0)"/>
      </g>
     </g>
    </g>
   </g>
   <g id="line2d_34">
    <path d="M 92.290909 176.423662 
L 94.330196 169.876718 
L 96.369484 163.781195 
L 98.408771 163.809496 
L 100.448058 169.522162 
L 102.487346 166.026138 
L 104.526633 168.395998 
L 106.565921 162.602424 
L 108.605208 164.684431 
L 110.644495 175.431366 
L 112.683783 249.038327 
L 114.72307 161.577654 
L 116.762357 163.63884 
L 118.801645 170.002854 
L 120.840932 161.200706 
L 122.880219 167.907996 
L 124.919507 166.167642 
L 126.958794 180.282907 
L 128.998081 163.567246 
L 131.037369 167.352463 
L 133.076656 173.957051 
L 135.115943 167.936619 
L 137.155231 165.936941 
L 139.194518 165.25298 
L 141.233805 167.590837 
L 143.273093 164.994632 
L 145.31238 161.440348 
L 147.351667 161.090616 
L 149.390955 164.129858 
L 151.430242 162.503839 
L 153.469529 164.232562 
L 155.508817 168.006195 
L 157.548104 163.752317 
L 159.587392 165.352199 
L 161.626679 168.349442 
L 163.665966 168.418357 
L 165.705254 250.212725 
L 167.744541 162.154992 
L 169.783828 168.226344 
L 171.823116 166.782158 
L 173.862403 166.935106 
L 175.90169 172.333108 
L 177.940978 170.860723 
L 179.980265 184.837658 
L 182.019552 169.621431 
L 184.05884 172.697795 
L 186.098127 187.870708 
L 188.137414 173.063761 
L 190.176702 174.174479 
L 192.215989 197.69456 
L 194.255276 192.983642 
L 196.294564 189.828376 
L 198.333851 188.127757 
L 200.373138 171.564151 
L 202.412426 164.693223 
L 204.451713 167.396952 
L 206.491 166.416879 
L 208.530288 174.563147 
L 210.569575 166.049214 
L 212.608862 163.569156 
L 214.64815 168.463023 
L 216.687437 161.436155 
L 218.726725 167.531697 
L 220.766012 166.676757 
L 222.805299 169.855544 
L 224.844587 162.494082 
L 226.883874 177.764133 
L 228.923161 186.820524 
L 230.962449 166.367513 
L 233.001736 171.011209 
L 235.041023 166.214367 
L 237.080311 166.533116 
L 239.119598 168.668949 
L 241.158885 164.829547 
L 243.198173 170.702685 
L 245.23746 162.21492 
L 247.276747 164.364624 
L 249.316035 164.730095 
L 251.355322 169.722049 
L 253.394609 165.566478 
L 255.433897 163.177117 
L 257.473184 169.569705 
L 259.512471 164.030912 
L 261.551759 162.037408 
L 263.591046 164.834288 
L 265.630333 168.079968 
L 267.669621 163.605547 
L 269.708908 165.073758 
L 271.748196 165.140408 
L 273.787483 166.66897 
L 275.82677 162.50026 
L 277.866058 250.893351 
L 279.905345 167.862651 
L 281.944632 164.518547 
L 283.98392 163.22463 
L 286.023207 169.852311 
L 288.062494 171.350833 
L 290.101782 169.612567 
L 292.141069 171.48806 
L 294.180356 167.128109 
L 296.219644 167.76548 
L 298.258931 174.319437 
L 300.298218 169.567297 
L 302.337506 164.341488 
L 304.376793 170.440323 
L 306.41608 164.029971 
L 308.455368 167.618024 
L 310.494655 167.796054 
L 312.533942 163.66836 
L 314.57323 250.893816 
L 316.612517 160.101818 
L 318.651804 162.339912 
L 320.691092 162.115562 
L 322.730379 165.741541 
L 326.808954 164.529559 
L 328.848241 166.888782 
L 330.887529 167.248292 
L 332.926816 163.726184 
L 334.966103 165.189631 
L 337.005391 161.032942 
L 339.044678 163.222649 
L 341.083965 162.796744 
L 343.123253 162.910997 
L 345.16254 165.157669 
L 347.201827 163.559666 
L 349.241115 251.705192 
L 351.280402 162.869643 
L 353.319689 163.960879 
L 355.358977 170.815543 
L 357.398264 167.675664 
L 359.437551 170.885017 
L 361.476839 166.420701 
L 363.516126 166.057462 
L 365.555413 170.10537 
L 367.594701 167.342864 
L 369.633988 170.403429 
L 371.673275 165.679505 
L 373.712563 171.923463 
L 375.75185 175.909154 
L 377.791138 173.990791 
L 379.830425 166.157176 
L 381.869712 178.598915 
L 383.909 171.097904 
L 387.987574 168.388136 
L 390.026862 172.171252 
L 394.105436 171.787882 
L 396.144724 248.939772 
L 398.184011 164.632961 
L 400.223298 171.076592 
L 402.262586 170.83992 
L 404.301873 170.27151 
L 406.34116 167.489998 
L 408.380448 172.584089 
L 410.419735 166.605239 
L 412.459022 171.827901 
L 414.49831 165.065836 
L 416.537597 166.957142 
L 418.576884 160.932163 
L 420.616172 168.494321 
L 422.655459 167.497815 
L 424.694746 171.558941 
L 426.734034 167.697967 
L 428.773321 172.346262 
L 430.812608 175.737743 
L 432.851896 171.979573 
L 434.891183 173.793477 
L 436.930471 178.28321 
L 438.969758 170.656639 
L 441.009045 178.411251 
L 443.048333 171.863114 
L 445.08762 174.365894 
L 447.126907 175.273441 
L 449.166195 163.651728 
L 451.205482 169.373476 
L 453.244769 173.202743 
L 455.284057 178.551474 
L 457.323344 180.282113 
L 459.362631 173.611179 
L 461.401919 172.992853 
L 463.441206 176.856706 
L 465.480493 174.898119 
L 467.519781 174.899925 
L 469.559068 175.155355 
L 471.598355 170.64123 
L 473.637643 175.561711 
L 475.67693 178.13295 
L 477.716217 179.564754 
L 479.755505 173.519786 
L 481.794792 176.688288 
L 483.834079 171.050609 
L 485.873367 173.992276 
L 487.912654 177.902486 
L 489.951942 172.643556 
L 491.991229 169.121951 
L 494.030516 168.909356 
L 496.069804 173.724554 
L 498.109091 176.184243 
L 498.109091 176.184243 
" clip-path="url(#p2973c42351)" style="fill: none; stroke: #ff0000; stroke-opacity: 0.9; stroke-width: 1.5; stroke-linecap: square"/>
   </g>
   <g id="line2d_35">
    <path d="M 92.290909 176.410061 
L 94.330196 169.881909 
L 96.369484 163.780066 
L 98.408771 163.818558 
L 100.448058 169.57801 
L 102.487346 166.034409 
L 104.526633 168.392078 
L 106.565921 162.511052 
L 108.605208 164.711396 
L 110.644495 175.492212 
L 112.683783 248.970826 
L 114.72307 161.639537 
L 116.762357 163.596729 
L 118.801645 170.011335 
L 120.840932 161.135642 
L 122.880219 167.944545 
L 124.919507 166.218954 
L 126.958794 180.242901 
L 128.998081 163.575847 
L 131.037369 167.366934 
L 133.076656 173.926667 
L 135.115943 167.949481 
L 137.155231 165.912035 
L 139.194518 165.212305 
L 141.233805 167.592334 
L 143.273093 164.98114 
L 145.31238 161.444984 
L 147.351667 161.087514 
L 149.390955 164.124993 
L 151.430242 162.426675 
L 153.469529 164.211545 
L 155.508817 167.996473 
L 157.548104 163.77645 
L 159.587392 165.320819 
L 161.626679 168.308275 
L 163.665966 168.428065 
L 165.705254 250.236892 
L 167.744541 162.12845 
L 169.783828 168.233741 
L 171.823116 166.780301 
L 173.862403 166.941088 
L 175.90169 172.367534 
L 177.940978 170.876221 
L 179.980265 184.833712 
L 182.019552 169.622136 
L 184.05884 172.72368 
L 186.098127 187.84827 
L 188.137414 173.04935 
L 190.176702 174.158258 
L 192.215989 197.671917 
L 194.255276 193.000523 
L 196.294564 189.886398 
L 198.333851 188.099576 
L 200.373138 171.522985 
L 202.412426 164.672623 
L 204.451713 167.409852 
L 206.491 166.442201 
L 208.530288 174.536984 
L 210.569575 166.032578 
L 212.608862 163.557696 
L 214.64815 168.470443 
L 216.687437 161.447633 
L 218.726725 167.49083 
L 220.766012 166.635801 
L 222.805299 169.823601 
L 224.844587 162.522537 
L 226.883874 177.788751 
L 228.923161 186.775268 
L 230.962449 166.359456 
L 233.001736 171.092492 
L 235.041023 166.206659 
L 237.080311 166.542084 
L 239.119598 168.647538 
L 241.158885 164.878042 
L 243.198173 170.68171 
L 245.23746 162.232546 
L 247.276747 164.334557 
L 249.316035 164.684791 
L 251.355322 169.710459 
L 253.394609 165.630536 
L 255.433897 163.167196 
L 257.473184 169.635436 
L 259.512471 164.072116 
L 261.551759 162.092168 
L 263.591046 164.86916 
L 265.630333 168.016889 
L 267.669621 163.624812 
L 269.708908 165.078829 
L 271.748196 165.139144 
L 273.787483 166.624079 
L 275.82677 162.458014 
L 277.866058 250.896682 
L 279.905345 167.866188 
L 281.944632 164.49094 
L 283.98392 163.201986 
L 286.023207 169.865274 
L 288.062494 171.361879 
L 290.101782 169.589668 
L 292.141069 171.490007 
L 294.180356 167.171732 
L 296.219644 167.743057 
L 298.258931 174.298687 
L 300.298218 169.597391 
L 302.337506 164.369421 
L 304.376793 170.477641 
L 306.41608 163.974739 
L 308.455368 167.604138 
L 310.494655 167.790116 
L 312.533942 163.668424 
L 314.57323 250.834724 
L 316.612517 160.125235 
L 318.651804 162.362767 
L 320.691092 162.113784 
L 322.730379 165.747081 
L 326.808954 164.514946 
L 328.848241 166.864416 
L 330.887529 167.291278 
L 332.926816 163.776266 
L 334.966103 165.223967 
L 337.005391 161.035204 
L 339.044678 163.168651 
L 341.083965 162.825007 
L 343.123253 162.966177 
L 345.16254 165.12881 
L 347.201827 163.582929 
L 349.241115 251.696104 
L 351.280402 162.900607 
L 353.319689 163.926521 
L 355.358977 170.771766 
L 357.398264 167.587326 
L 359.437551 170.887264 
L 361.476839 166.435104 
L 363.516126 165.99981 
L 365.555413 170.089421 
L 367.594701 167.314845 
L 369.633988 170.403711 
L 371.673275 165.689666 
L 373.712563 171.913286 
L 375.75185 175.875479 
L 377.791138 173.942818 
L 379.830425 166.177401 
L 381.869712 178.580922 
L 383.909 171.040605 
L 387.987574 168.393024 
L 390.026862 172.204849 
L 394.105436 171.80376 
L 396.144724 248.976145 
L 398.184011 164.694236 
L 400.223298 171.104393 
L 402.262586 170.801346 
L 404.301873 170.283299 
L 406.34116 167.432579 
L 408.380448 172.585271 
L 410.419735 166.58681 
L 412.459022 171.822417 
L 414.49831 165.091308 
L 416.537597 166.97341 
L 418.576884 160.911881 
L 420.616172 168.521684 
L 422.655459 167.476228 
L 424.694746 171.538622 
L 426.734034 167.683868 
L 428.773321 172.382883 
L 430.812608 175.762895 
L 432.851896 171.982558 
L 434.891183 173.82714 
L 436.930471 178.301936 
L 438.969758 170.601328 
L 441.009045 178.394308 
L 443.048333 171.874446 
L 445.08762 174.409792 
L 447.126907 175.232644 
L 449.166195 163.721934 
L 451.205482 169.406766 
L 453.244769 173.275657 
L 455.284057 178.49569 
L 457.323344 180.235135 
L 459.362631 173.580592 
L 461.401919 172.990314 
L 463.441206 176.894389 
L 465.480493 174.861827 
L 467.519781 174.925932 
L 469.559068 175.206671 
L 471.598355 170.55742 
L 473.637643 175.585064 
L 475.67693 178.149098 
L 477.716217 179.582252 
L 479.755505 173.53373 
L 481.794792 176.658083 
L 483.834079 171.011479 
L 485.873367 174.021415 
L 487.912654 177.947904 
L 489.951942 172.636914 
L 491.991229 169.102682 
L 494.030516 168.955871 
L 496.069804 173.664828 
L 498.109091 176.214796 
L 498.109091 176.214796 
" clip-path="url(#p2973c42351)" style="fill: none; stroke: #ff0000; stroke-opacity: 0.9; stroke-width: 1.5; stroke-linecap: square"/>
   </g>
   <g id="line2d_36">
    <path d="M 92.290909 176.409975 
L 94.330196 169.840623 
L 96.369484 163.744312 
L 98.408771 163.782729 
L 100.448058 169.62014 
L 102.487346 166.052001 
L 104.526633 168.439835 
L 106.565921 162.537499 
L 108.605208 164.694528 
L 110.644495 175.447173 
L 112.683783 249.054059 
L 114.72307 161.597463 
L 116.762357 163.560251 
L 118.801645 170.012175 
L 120.840932 161.110718 
L 122.880219 167.925839 
L 124.919507 166.194978 
L 126.958794 180.226296 
L 128.998081 163.602591 
L 131.037369 167.382639 
L 133.076656 173.956344 
L 135.115943 167.910562 
L 137.155231 165.951007 
L 139.194518 165.232684 
L 141.233805 167.607158 
L 143.273093 164.993083 
L 145.31238 161.442753 
L 147.351667 161.035797 
L 149.390955 164.148046 
L 151.430242 162.480054 
L 153.469529 164.1915 
L 155.508817 168.030077 
L 157.548104 163.713498 
L 159.587392 165.389258 
L 161.626679 168.341906 
L 163.665966 168.449392 
L 165.705254 250.248467 
L 167.744541 162.170161 
L 169.783828 168.198216 
L 171.823116 166.805646 
L 173.862403 166.993635 
L 175.90169 172.369904 
L 177.940978 170.877628 
L 179.980265 184.825737 
L 182.019552 169.662379 
L 184.05884 172.706864 
L 186.098127 187.83054 
L 188.137414 173.082871 
L 190.176702 174.194419 
L 192.215989 197.733253 
L 194.255276 193.000469 
L 196.294564 189.843744 
L 198.333851 188.09889 
L 200.373138 171.5133 
L 202.412426 164.689502 
L 204.451713 167.485692 
L 206.491 166.423822 
L 208.530288 174.611284 
L 210.569575 166.012065 
L 212.608862 163.591721 
L 214.64815 168.489118 
L 216.687437 161.423372 
L 218.726725 167.510564 
L 220.766012 166.69361 
L 222.805299 169.885154 
L 224.844587 162.491232 
L 226.883874 177.762421 
L 228.923161 186.775883 
L 230.962449 166.413518 
L 233.001736 171.03828 
L 235.041023 166.204022 
L 237.080311 166.521357 
L 239.119598 168.679556 
L 241.158885 164.878886 
L 243.198173 170.720318 
L 245.23746 162.218199 
L 247.276747 164.426409 
L 249.316035 164.703178 
L 251.355322 169.725459 
L 253.394609 165.606527 
L 255.433897 163.197046 
L 257.473184 169.635549 
L 259.512471 164.035455 
L 261.551759 162.014498 
L 263.591046 164.877768 
L 265.630333 168.062114 
L 267.669621 163.670232 
L 269.708908 165.067182 
L 271.748196 165.167298 
L 273.787483 166.641983 
L 275.82677 162.557788 
L 277.866058 250.938347 
L 279.905345 167.88312 
L 281.944632 164.499177 
L 283.98392 163.21451 
L 286.023207 169.853459 
L 288.062494 171.357881 
L 290.101782 169.593936 
L 292.141069 171.512355 
L 294.180356 167.124973 
L 296.219644 167.735548 
L 298.258931 174.334979 
L 300.298218 169.580013 
L 302.337506 164.394894 
L 304.376793 170.448684 
L 306.41608 163.98481 
L 308.455368 167.593245 
L 310.494655 167.765829 
L 312.533942 163.697471 
L 314.57323 250.831585 
L 316.612517 160.114729 
L 318.651804 162.393869 
L 320.691092 162.125075 
L 322.730379 165.764748 
L 326.808954 164.511817 
L 328.848241 166.887188 
L 330.887529 167.285014 
L 332.926816 163.767992 
L 334.966103 165.222601 
L 337.005391 161.053981 
L 339.044678 163.220789 
L 341.083965 162.853773 
L 343.123253 162.933953 
L 345.16254 165.14525 
L 347.201827 163.598098 
L 349.241115 251.702353 
L 351.280402 162.894508 
L 353.319689 163.955009 
L 355.358977 170.806042 
L 357.398264 167.627338 
L 359.437551 170.85208 
L 361.476839 166.462632 
L 363.516126 166.075556 
L 365.555413 170.076871 
L 367.594701 167.36507 
L 369.633988 170.3996 
L 371.673275 165.696744 
L 373.712563 171.903823 
L 375.75185 175.91305 
L 377.791138 173.970444 
L 379.830425 166.113062 
L 381.869712 178.568915 
L 383.909 171.067413 
L 387.987574 168.386054 
L 390.026862 172.225712 
L 394.105436 171.796442 
L 396.144724 248.937525 
L 398.184011 164.672045 
L 400.223298 171.087368 
L 402.262586 170.80273 
L 404.301873 170.304026 
L 406.34116 167.410973 
L 408.380448 172.579322 
L 410.419735 166.585651 
L 412.459022 171.817428 
L 414.49831 165.065843 
L 416.537597 166.990327 
L 418.576884 160.933509 
L 420.616172 168.517925 
L 422.655459 167.48589 
L 424.694746 171.578772 
L 426.734034 167.708466 
L 428.773321 172.367826 
L 430.812608 175.705765 
L 432.851896 172.043912 
L 434.891183 173.76233 
L 436.930471 178.331719 
L 438.969758 170.689996 
L 441.009045 178.400784 
L 443.048333 171.893043 
L 445.08762 174.403853 
L 447.126907 175.290592 
L 449.166195 163.652085 
L 451.205482 169.430738 
L 453.244769 173.268469 
L 455.284057 178.496048 
L 457.323344 180.245129 
L 459.362631 173.575508 
L 461.401919 173.028753 
L 463.441206 176.896964 
L 465.480493 174.88936 
L 467.519781 174.871874 
L 469.559068 175.212429 
L 471.598355 170.614914 
L 473.637643 175.570169 
L 475.67693 178.125171 
L 477.716217 179.573816 
L 479.755505 173.528608 
L 481.794792 176.708205 
L 483.834079 171.032263 
L 485.873367 174.0326 
L 487.912654 177.924356 
L 489.951942 172.64799 
L 491.991229 169.131834 
L 494.030516 168.954682 
L 496.069804 173.688367 
L 498.109091 176.187309 
L 498.109091 176.187309 
" clip-path="url(#p2973c42351)" style="fill: none; stroke: #ff0000; stroke-opacity: 0.9; stroke-width: 1.5; stroke-linecap: square"/>
   </g>
   <g id="line2d_37">
    <path d="M 92.290909 176.404311 
L 94.330196 169.838402 
L 96.369484 163.799672 
L 98.408771 163.820054 
L 100.448058 169.519102 
L 102.487346 166.029386 
L 104.526633 168.409074 
L 106.565921 162.62308 
L 108.605208 164.708321 
L 110.644495 175.462184 
L 112.683783 249.009712 
L 114.72307 161.649815 
L 116.762357 163.596121 
L 118.801645 170.004913 
L 120.840932 161.181111 
L 122.880219 167.955397 
L 124.919507 166.251947 
L 126.958794 180.273102 
L 128.998081 163.612212 
L 131.037369 167.335482 
L 133.076656 173.975378 
L 135.115943 167.934545 
L 137.155231 165.975426 
L 139.194518 165.20696 
L 141.233805 167.577739 
L 143.273093 165.007535 
L 145.31238 161.441834 
L 147.351667 161.088565 
L 149.390955 164.165503 
L 151.430242 162.524877 
L 153.469529 164.166212 
L 155.508817 168.021139 
L 157.548104 163.748052 
L 159.587392 165.358538 
L 161.626679 168.314806 
L 163.665966 168.408511 
L 165.705254 250.18996 
L 167.744541 162.097959 
L 169.783828 168.21592 
L 171.823116 166.766003 
L 173.862403 166.934382 
L 175.90169 172.349833 
L 177.940978 170.883479 
L 179.980265 184.857633 
L 182.019552 169.692529 
L 184.05884 172.71476 
L 186.098127 187.880417 
L 188.137414 173.036304 
L 190.176702 174.175977 
L 192.215989 197.695108 
L 194.255276 193.008789 
L 196.294564 189.823776 
L 198.333851 188.105889 
L 200.373138 171.513979 
L 202.412426 164.70628 
L 204.451713 167.436738 
L 206.491 166.425791 
L 208.530288 174.541838 
L 210.569575 166.011472 
L 212.608862 163.540967 
L 214.64815 168.435855 
L 216.687437 161.396035 
L 218.726725 167.49891 
L 220.766012 166.692909 
L 222.805299 169.88889 
L 224.844587 162.472001 
L 226.883874 177.804259 
L 228.923161 186.796314 
L 230.962449 166.424066 
L 233.001736 170.997942 
L 235.041023 166.207889 
L 237.080311 166.561038 
L 239.119598 168.658319 
L 241.158885 164.918631 
L 243.198173 170.612854 
L 245.23746 162.203941 
L 247.276747 164.394204 
L 249.316035 164.70912 
L 251.355322 169.67017 
L 253.394609 165.610015 
L 255.433897 163.177571 
L 257.473184 169.571435 
L 259.512471 164.018005 
L 261.551759 162.013522 
L 263.591046 164.843849 
L 265.630333 168.037628 
L 267.669621 163.650393 
L 269.708908 165.090622 
L 271.748196 165.137699 
L 273.787483 166.605835 
L 275.82677 162.476719 
L 277.866058 250.895696 
L 279.905345 167.906732 
L 281.944632 164.490914 
L 283.98392 163.231535 
L 286.023207 169.843485 
L 288.062494 171.36279 
L 290.101782 169.612185 
L 292.141069 171.500472 
L 294.180356 167.125611 
L 296.219644 167.760971 
L 298.258931 174.361713 
L 300.298218 169.574844 
L 302.337506 164.372955 
L 304.376793 170.43104 
L 306.41608 164.007848 
L 308.455368 167.583362 
L 310.494655 167.77946 
L 312.533942 163.708138 
L 314.57323 250.892489 
L 316.612517 160.134819 
L 318.651804 162.395887 
L 320.691092 162.119981 
L 322.730379 165.78198 
L 324.769667 165.074163 
L 326.808954 164.518213 
L 328.848241 166.859172 
L 330.887529 167.248375 
L 332.926816 163.784758 
L 334.966103 165.194293 
L 337.005391 161.034701 
L 339.044678 163.237331 
L 341.083965 162.816661 
L 343.123253 162.955127 
L 345.16254 165.160899 
L 347.201827 163.515169 
L 349.241115 251.732863 
L 351.280402 162.895266 
L 353.319689 163.907267 
L 355.358977 170.765277 
L 357.398264 167.620132 
L 359.437551 170.912733 
L 361.476839 166.441605 
L 363.516126 166.009814 
L 365.555413 170.113202 
L 367.594701 167.334518 
L 369.633988 170.373842 
L 371.673275 165.679531 
L 373.712563 171.888935 
L 375.75185 175.873483 
L 377.791138 173.95505 
L 379.830425 166.165046 
L 381.869712 178.607497 
L 383.909 171.092511 
L 385.948287 169.813102 
L 387.987574 168.376812 
L 390.026862 172.2377 
L 394.105436 171.793073 
L 396.144724 248.929329 
L 398.184011 164.633467 
L 400.223298 171.127915 
L 402.262586 170.759842 
L 404.301873 170.276255 
L 406.34116 167.450981 
L 408.380448 172.625691 
L 410.419735 166.576672 
L 412.459022 171.80065 
L 414.49831 165.060427 
L 416.537597 166.963433 
L 418.576884 160.960463 
L 420.616172 168.467236 
L 422.655459 167.475152 
L 424.694746 171.552733 
L 426.734034 167.704805 
L 428.773321 172.383513 
L 430.812608 175.696162 
L 432.851896 171.983054 
L 434.891183 173.799454 
L 436.930471 178.294101 
L 438.969758 170.664463 
L 441.009045 178.426255 
L 443.048333 171.873107 
L 445.08762 174.3349 
L 447.126907 175.323132 
L 449.166195 163.652205 
L 451.205482 169.436447 
L 453.244769 173.198942 
L 455.284057 178.526708 
L 457.323344 180.287961 
L 459.362631 173.578769 
L 461.401919 173.007692 
L 463.441206 176.855764 
L 465.480493 174.879835 
L 467.519781 174.9078 
L 469.559068 175.204873 
L 471.598355 170.619944 
L 473.637643 175.548444 
L 475.67693 178.159833 
L 477.716217 179.595313 
L 479.755505 173.546185 
L 481.794792 176.698856 
L 483.834079 170.986127 
L 485.873367 173.996993 
L 487.912654 177.931588 
L 489.951942 172.659663 
L 491.991229 169.089074 
L 494.030516 168.879581 
L 496.069804 173.656537 
L 498.109091 176.187951 
L 498.109091 176.187951 
" clip-path="url(#p2973c42351)" style="fill: none; stroke: #ff0000; stroke-opacity: 0.9; stroke-width: 1.5; stroke-linecap: square"/>
   </g>
   <g id="line2d_38">
    <path d="M 92.290909 176.403829 
L 94.330196 169.875908 
L 96.369484 163.77525 
L 98.408771 163.805227 
L 100.448058 169.540696 
L 102.487346 165.998351 
L 104.526633 168.380439 
L 106.565921 162.496112 
L 108.605208 164.675373 
L 110.644495 175.415605 
L 112.683783 249.010571 
L 114.72307 161.619023 
L 116.762357 163.603979 
L 118.801645 170.02806 
L 120.840932 161.130189 
L 122.880219 167.953581 
L 124.919507 166.193069 
L 126.958794 180.205216 
L 128.998081 163.57629 
L 131.037369 167.399927 
L 133.076656 173.94206 
L 135.115943 167.884493 
L 137.155231 165.920959 
L 139.194518 165.231191 
L 141.233805 167.596194 
L 143.273093 165.012978 
L 145.31238 161.450093 
L 147.351667 161.05906 
L 149.390955 164.1706 
L 151.430242 162.481014 
L 153.469529 164.200844 
L 155.508817 168.028224 
L 157.548104 163.755449 
L 159.587392 165.333006 
L 161.626679 168.323418 
L 163.665966 168.418642 
L 165.705254 250.191288 
L 167.744541 162.114392 
L 169.783828 168.208685 
L 171.823116 166.797713 
L 173.862403 166.94197 
L 175.90169 172.336195 
L 177.940978 170.933025 
L 179.980265 184.850962 
L 182.019552 169.633655 
L 184.05884 172.70407 
L 186.098127 187.840896 
L 188.137414 173.053093 
L 190.176702 174.176592 
L 192.215989 197.697409 
L 194.255276 193.027478 
L 196.294564 189.832372 
L 198.333851 188.1035 
L 200.373138 171.535231 
L 202.412426 164.691925 
L 204.451713 167.419165 
L 206.491 166.420367 
L 208.530288 174.583901 
L 210.569575 166.031967 
L 212.608862 163.592749 
L 214.64815 168.463158 
L 216.687437 161.411549 
L 218.726725 167.495065 
L 220.766012 166.721843 
L 222.805299 169.822754 
L 224.844587 162.50565 
L 226.883874 177.73476 
L 228.923161 186.794457 
L 230.962449 166.427348 
L 233.001736 171.07011 
L 235.041023 166.202311 
L 237.080311 166.522771 
L 239.119598 168.657358 
L 241.158885 164.843717 
L 243.198173 170.678991 
L 245.23746 162.202359 
L 247.276747 164.372501 
L 249.316035 164.740987 
L 251.355322 169.700414 
L 253.394609 165.580645 
L 255.433897 163.165722 
L 257.473184 169.613366 
L 259.512471 164.085327 
L 261.551759 162.058537 
L 263.591046 164.855705 
L 265.630333 168.051259 
L 267.669621 163.614692 
L 269.708908 165.142519 
L 271.748196 165.119748 
L 273.787483 166.619147 
L 275.82677 162.48993 
L 277.866058 250.86058 
L 279.905345 167.87222 
L 281.944632 164.483386 
L 283.98392 163.231284 
L 286.023207 169.843091 
L 288.062494 171.366054 
L 290.101782 169.623752 
L 292.141069 171.548037 
L 294.180356 167.13099 
L 296.219644 167.734212 
L 298.258931 174.312299 
L 300.298218 169.60801 
L 302.337506 164.384466 
L 304.376793 170.462604 
L 306.41608 163.976044 
L 308.455368 167.58053 
L 310.494655 167.803912 
L 312.533942 163.682538 
L 314.57323 250.839301 
L 316.612517 160.130228 
L 318.651804 162.39421 
L 320.691092 162.073364 
L 322.730379 165.695408 
L 326.808954 164.515625 
L 328.848241 166.871738 
L 330.887529 167.323389 
L 332.926816 163.74405 
L 334.966103 165.21747 
L 337.005391 161.039293 
L 339.044678 163.271539 
L 341.083965 162.801845 
L 343.123253 162.954057 
L 345.16254 165.129046 
L 347.201827 163.551087 
L 349.241115 251.738182 
L 351.280402 162.895108 
L 353.319689 163.882188 
L 355.358977 170.767711 
L 357.398264 167.5885 
L 359.437551 170.826075 
L 361.476839 166.438829 
L 363.516126 166.034581 
L 365.555413 170.096972 
L 367.594701 167.342076 
L 369.633988 170.420264 
L 371.673275 165.664422 
L 373.712563 171.879322 
L 375.75185 175.902994 
L 377.791138 173.956528 
L 379.830425 166.12993 
L 381.869712 178.563043 
L 383.909 171.10382 
L 387.987574 168.329209 
L 390.026862 172.236098 
L 394.105436 171.845927 
L 396.144724 248.920001 
L 398.184011 164.677968 
L 400.223298 171.087619 
L 402.262586 170.846844 
L 404.301873 170.236075 
L 406.34116 167.437976 
L 408.380448 172.599074 
L 410.419735 166.5633 
L 412.459022 171.808021 
L 414.49831 165.084151 
L 416.537597 166.955443 
L 418.576884 160.950913 
L 420.616172 168.503496 
L 422.655459 167.529131 
L 424.694746 171.56417 
L 426.734034 167.713609 
L 428.773321 172.338809 
L 430.812608 175.763154 
L 432.851896 171.951711 
L 434.891183 173.773455 
L 436.930471 178.32827 
L 438.969758 170.679276 
L 441.009045 178.43488 
L 443.048333 171.852507 
L 445.08762 174.362465 
L 447.126907 175.239355 
L 449.166195 163.691968 
L 451.205482 169.402182 
L 453.244769 173.204373 
L 455.284057 178.51563 
L 457.323344 180.278184 
L 459.362631 173.62511 
L 461.401919 172.987621 
L 463.441206 176.901797 
L 465.480493 174.903398 
L 467.519781 174.890338 
L 469.559068 175.212054 
L 471.598355 170.603132 
L 473.637643 175.547737 
L 475.67693 178.146905 
L 477.716217 179.628362 
L 479.755505 173.459008 
L 481.794792 176.69189 
L 483.834079 171.01729 
L 485.873367 174.024262 
L 487.912654 177.914673 
L 489.951942 172.699445 
L 491.991229 169.12566 
L 494.030516 168.934863 
L 496.069804 173.678082 
L 498.109091 176.181351 
L 498.109091 176.181351 
" clip-path="url(#p2973c42351)" style="fill: none; stroke: #ff0000; stroke-opacity: 0.9; stroke-width: 1.5; stroke-linecap: square"/>
   </g>
   <g id="line2d_39">
    <path d="M 92.290909 170.454828 
L 94.330196 168.711338 
L 96.369484 165.354563 
L 98.408771 163.288662 
L 100.448058 166.569657 
L 102.487346 164.687739 
L 104.526633 167.29444 
L 106.565921 163.146138 
L 108.605208 164.200604 
L 110.644495 174.201225 
L 112.683783 247.551077 
L 114.72307 161.538424 
L 116.762357 162.752967 
L 118.801645 169.17524 
L 120.840932 160.723897 
L 122.880219 167.398723 
L 124.919507 165.327286 
L 126.958794 179.852678 
L 128.998081 162.825615 
L 131.037369 165.71905 
L 133.076656 173.09217 
L 135.115943 166.730658 
L 139.194518 165.340613 
L 141.233805 166.955796 
L 143.273093 164.313897 
L 145.31238 161.266137 
L 147.351667 161.342592 
L 149.390955 163.936772 
L 151.430242 162.322635 
L 153.469529 163.181851 
L 155.508817 167.289335 
L 157.548104 163.624069 
L 159.587392 164.965401 
L 161.626679 168.06708 
L 163.665966 167.456468 
L 165.705254 247.727561 
L 167.744541 163.315068 
L 169.783828 167.413348 
L 171.823116 165.882662 
L 173.862403 166.297041 
L 175.90169 171.538585 
L 177.940978 170.642502 
L 179.980265 183.253623 
L 182.019552 168.568086 
L 184.05884 172.492211 
L 186.098127 188.254795 
L 188.137414 171.800346 
L 190.176702 173.920478 
L 192.215989 195.571691 
L 198.333851 186.705109 
L 200.373138 172.206747 
L 202.412426 164.339103 
L 204.451713 166.387768 
L 206.491 166.580554 
L 208.530288 173.060625 
L 210.569575 165.72063 
L 212.608862 163.132204 
L 214.64815 166.905878 
L 216.687437 160.686444 
L 218.726725 165.409356 
L 220.766012 166.168339 
L 222.805299 169.555741 
L 224.844587 162.223131 
L 226.883874 177.017596 
L 228.923161 186.023396 
L 230.962449 165.360894 
L 233.001736 170.020791 
L 235.041023 166.707856 
L 237.080311 165.747314 
L 239.119598 167.945663 
L 241.158885 165.111927 
L 243.198173 170.219597 
L 245.23746 161.545051 
L 247.276747 163.514448 
L 249.316035 164.6949 
L 251.355322 168.777875 
L 253.394609 165.087966 
L 255.433897 162.543767 
L 257.473184 168.753877 
L 259.512471 163.201547 
L 261.551759 161.942457 
L 263.591046 164.004386 
L 265.630333 167.367579 
L 267.669621 163.339697 
L 269.708908 164.426368 
L 271.748196 164.381706 
L 273.787483 166.122675 
L 275.82677 162.019385 
L 277.866058 248.293309 
L 279.905345 168.616301 
L 281.944632 163.986048 
L 283.98392 162.330974 
L 286.023207 169.615031 
L 288.062494 170.444453 
L 290.101782 168.672441 
L 292.141069 170.757385 
L 294.180356 166.088677 
L 296.219644 167.456397 
L 298.258931 174.250954 
L 300.298218 168.05253 
L 302.337506 165.609092 
L 304.376793 170.234642 
L 306.41608 163.193565 
L 308.455368 166.673513 
L 310.494655 166.347704 
L 312.533942 162.7279 
L 314.57323 248.09586 
L 316.612517 161.033726 
L 318.651804 161.770182 
L 320.691092 162.212779 
L 322.730379 164.264827 
L 324.769667 163.924881 
L 326.808954 164.067949 
L 328.848241 165.296675 
L 330.887529 166.016273 
L 332.926816 163.714991 
L 334.966103 165.377916 
L 337.005391 160.994859 
L 339.044678 162.453006 
L 341.083965 161.754968 
L 343.123253 162.648148 
L 345.16254 164.088013 
L 347.201827 163.296025 
L 349.241115 248.771836 
L 351.280402 163.767302 
L 353.319689 162.021707 
L 355.358977 170.045622 
L 357.398264 167.187347 
L 359.437551 171.868493 
L 361.476839 167.647094 
L 363.516126 166.798418 
L 365.555413 169.711745 
L 367.594701 166.825346 
L 369.633988 169.593141 
L 371.673275 164.789746 
L 373.712563 170.861435 
L 375.75185 175.933076 
L 377.791138 173.796973 
L 379.830425 165.447428 
L 381.869712 177.52213 
L 383.909 171.269498 
L 385.948287 169.321957 
L 387.987574 167.540372 
L 390.026862 170.890126 
L 394.105436 172.396675 
L 396.144724 248.33889 
L 398.184011 165.661429 
L 400.223298 170.007092 
L 402.262586 170.83369 
L 404.301873 170.461985 
L 406.34116 167.510466 
L 408.380448 172.322737 
L 410.419735 166.325521 
L 412.459022 170.582982 
L 414.49831 164.878807 
L 416.537597 165.795569 
L 418.576884 160.831897 
L 420.616172 168.203527 
L 422.655459 166.945949 
L 424.694746 170.922928 
L 426.734034 167.260948 
L 428.773321 171.460693 
L 430.812608 174.679275 
L 432.851896 171.638273 
L 434.891183 173.239876 
L 436.930471 177.699256 
L 438.969758 170.865077 
L 441.009045 177.618268 
L 443.048333 171.704885 
L 445.08762 173.843895 
L 447.126907 175.155773 
L 449.166195 163.366861 
L 451.205482 168.75181 
L 453.244769 172.164133 
L 455.284057 177.863101 
L 457.323344 179.057519 
L 459.362631 174.152395 
L 461.401919 172.810307 
L 463.441206 175.614803 
L 465.480493 174.789507 
L 467.519781 175.390446 
L 469.559068 175.425374 
L 471.598355 169.047926 
L 473.637643 174.48645 
L 475.67693 177.745576 
L 477.716217 178.011572 
L 479.755505 173.088723 
L 481.794792 176.144648 
L 483.834079 169.959711 
L 487.912654 177.095549 
L 489.951942 171.965394 
L 491.991229 168.696938 
L 494.030516 167.925723 
L 496.069804 173.935408 
L 498.109091 175.432595 
L 498.109091 175.432595 
" clip-path="url(#p2973c42351)" style="fill: none; stroke: #008000; stroke-opacity: 0.9; stroke-width: 1.5; stroke-linecap: square"/>
   </g>
   <g id="line2d_40">
    <path d="M 438.969758 256.32 
L 438.969758 155.52 
" clip-path="url(#p2973c42351)" style="fill: none; stroke-dasharray: 5.55,2.4; stroke-dashoffset: 0; stroke: #0000ff; stroke-width: 1.5"/>
   </g>
   <g id="line2d_41">
    <path d="M 153.469529 256.32 
L 153.469529 155.52 
" clip-path="url(#p2973c42351)" style="fill: none; stroke-dasharray: 5.55,2.4; stroke-dashoffset: 0; stroke: #000000; stroke-width: 1.5"/>
   </g>
   <g id="patch_8">
    <path d="M 72 256.32 
L 72 155.52 
" style="fill: none; stroke: #000000; stroke-width: 0.8; stroke-linejoin: miter; stroke-linecap: square"/>
   </g>
   <g id="patch_9">
    <path d="M 518.4 256.32 
L 518.4 155.52 
" style="fill: none; stroke: #000000; stroke-width: 0.8; stroke-linejoin: miter; stroke-linecap: square"/>
   </g>
   <g id="patch_10">
    <path d="M 72 256.32 
L 518.4 256.32 
" style="fill: none; stroke: #000000; stroke-width: 0.8; stroke-linejoin: miter; stroke-linecap: square"/>
   </g>
   <g id="patch_11">
    <path d="M 72 155.52 
L 518.4 155.52 
" style="fill: none; stroke: #000000; stroke-width: 0.8; stroke-linejoin: miter; stroke-linecap: square"/>
   </g>
  </g>
 </g>
 <defs>
  <clipPath id="p694883f977">
   <rect x="72" y="34.56" width="446.4" height="100.8"/>
  </clipPath>
  <clipPath id="p2973c42351">
   <rect x="72" y="155.52" width="446.4" height="100.8"/>
  </clipPath>
 </defs>
</svg>
